<?xml version="1.0" encoding="utf-8" standalone="no"?>
<!DOCTYPE svg PUBLIC "-//W3C//DTD SVG 1.1//EN"
  "http://www.w3.org/Graphics/SVG/1.1/DTD/svg11.dtd">
<svg xmlns:xlink="http://www.w3.org/1999/xlink" width="144pt" height="360pt" viewBox="0 0 144 360" xmlns="http://www.w3.org/2000/svg" version="1.1">
 <metadata>
  <rdf:RDF xmlns:dc="http://purl.org/dc/elements/1.1/" xmlns:cc="http://creativecommons.org/ns#" xmlns:rdf="http://www.w3.org/1999/02/22-rdf-syntax-ns#">
   <cc:Work>
    <dc:type rdf:resource="http://purl.org/dc/dcmitype/StillImage"/>
    <dc:date>2023-06-26T16:48:20.222601</dc:date>
    <dc:format>image/svg+xml</dc:format>
    <dc:creator>
     <cc:Agent>
      <dc:title>Matplotlib v3.6.2, https://matplotlib.org/</dc:title>
     </cc:Agent>
    </dc:creator>
   </cc:Work>
  </rdf:RDF>
 </metadata>
 <defs>
  <style type="text/css">*{stroke-linejoin: round; stroke-linecap: butt}</style>
 </defs>
 <g id="figure_1">
  <g id="patch_1">
   <path d="M 0 360 
L 144 360 
L 144 0 
L 0 0 
z
" style="fill: #ffffff"/>
  </g>
  <g id="axes_1">
   <g id="patch_2">
    <path d="M 40.08 110.818377 
L 134 110.818377 
L 134 38.8 
L 40.08 38.8 
z
" style="fill: #ffffff"/>
   </g>
   <g id="line2d_1">
    <path d="M 62.386 59.97377 
L 109.346 91.851289 
" clip-path="url(#pdfe8aaf9ba)" style="fill: none; stroke: #e41a1c; stroke-width: 1.35; stroke-linecap: square"/>
   </g>
   <g id="line2d_2">
    <path d="M 62.386 77.873978 
L 62.386 42.073563 
" clip-path="url(#pdfe8aaf9ba)" style="fill: none; stroke: #e41a1c; stroke-linecap: square"/>
   </g>
   <g id="line2d_3">
    <path d="M 109.346 107.544814 
L 109.346 76.157764 
" clip-path="url(#pdfe8aaf9ba)" style="fill: none; stroke: #e41a1c; stroke-linecap: square"/>
   </g>
   <g id="PathCollection_1">
    <defs>
     <path id="ma0bfc4914b" d="M 0 1.691974 
C 0.448717 1.691974 0.879116 1.513697 1.196406 1.196406 
C 1.513697 0.879116 1.691974 0.448717 1.691974 0 
C 1.691974 -0.448717 1.513697 -0.879116 1.196406 -1.196406 
C 0.879116 -1.513697 0.448717 -1.691974 0 -1.691974 
C -0.448717 -1.691974 -0.879116 -1.513697 -1.196406 -1.196406 
C -1.513697 -0.879116 -1.691974 -0.448717 -1.691974 0 
C -1.691974 0.448717 -1.513697 0.879116 -1.196406 1.196406 
C -0.879116 1.513697 -0.448717 1.691974 0 1.691974 
z
" style="stroke: #e41a1c; stroke-width: 1.0125"/>
    </defs>
    <g clip-path="url(#pdfe8aaf9ba)">
     <use xlink:href="#ma0bfc4914b" x="62.386" y="59.97377" style="fill: #e41a1c; stroke: #e41a1c; stroke-width: 1.0125"/>
     <use xlink:href="#ma0bfc4914b" x="109.346" y="91.851289" style="fill: #e41a1c; stroke: #e41a1c; stroke-width: 1.0125"/>
    </g>
   </g>
   <g id="matplotlib.axis_1">
    <g id="xtick_1">
     <g id="line2d_4">
      <defs>
       <path id="mf73cb348da" d="M 0 0 
L 0 3.5 
" style="stroke: #000000; stroke-width: 0.8"/>
      </defs>
      <g>
       <use xlink:href="#mf73cb348da" x="63.56" y="110.818377" style="stroke: #000000; stroke-width: 0.8"/>
      </g>
     </g>
     <g id="text_1">
      <text style="font: 6px 'Arial', sans-serif; text-anchor: middle" x="63.56" y="122.113064" transform="rotate(-0 63.56 122.113064)">1</text>
     </g>
    </g>
    <g id="xtick_2">
     <g id="line2d_5">
      <g>
       <use xlink:href="#mf73cb348da" x="110.52" y="110.818377" style="stroke: #000000; stroke-width: 0.8"/>
      </g>
     </g>
     <g id="text_2">
      <text style="font: 6px 'Arial', sans-serif; text-anchor: middle" x="110.52" y="122.113064" transform="rotate(-0 110.52 122.113064)">3</text>
     </g>
    </g>
    <g id="text_3">
     <text style="font: 8px 'Arial', sans-serif; text-anchor: middle" x="87.04" y="133.031814" transform="rotate(-0 87.04 133.031814)">Training Day</text>
    </g>
   </g>
   <g id="matplotlib.axis_2">
    <g id="ytick_1">
     <g id="line2d_6">
      <defs>
       <path id="mb194f26444" d="M 0 0 
L -3.5 0 
" style="stroke: #000000; stroke-width: 0.8"/>
      </defs>
      <g>
       <use xlink:href="#mb194f26444" x="40.08" y="103.61476" style="stroke: #000000; stroke-width: 0.8"/>
      </g>
     </g>
     <g id="text_4">
      <text style="font: 6px 'Arial', sans-serif; text-anchor: end" x="33.08" y="105.762103" transform="rotate(-0 33.08 105.762103)">−0.75</text>
     </g>
    </g>
    <g id="ytick_2">
     <g id="line2d_7">
      <g>
       <use xlink:href="#mb194f26444" x="40.08" y="78.111955" style="stroke: #000000; stroke-width: 0.8"/>
      </g>
     </g>
     <g id="text_5">
      <text style="font: 6px 'Arial', sans-serif; text-anchor: end" x="33.08" y="80.259299" transform="rotate(-0 33.08 80.259299)">−0.50</text>
     </g>
    </g>
    <g id="ytick_3">
     <g id="line2d_8">
      <g>
       <use xlink:href="#mb194f26444" x="40.08" y="52.60915" style="stroke: #000000; stroke-width: 0.8"/>
      </g>
     </g>
     <g id="text_6">
      <text style="font: 6px 'Arial', sans-serif; text-anchor: end" x="33.08" y="54.756494" transform="rotate(-0 33.08 54.756494)">−0.25</text>
     </g>
    </g>
    <g id="text_7">
     <text style="font: 8px 'Arial', sans-serif; text-anchor: middle" x="12.309062" y="74.809188" transform="rotate(-90 12.309062 74.809188)">Peri-Bout Minimum</text>
    </g>
   </g>
   <g id="line2d_9">
    <path d="M 64.734 53.774235 
L 111.694 64.979042 
" clip-path="url(#pdfe8aaf9ba)" style="fill: none; stroke: #377eb8; stroke-width: 1.35; stroke-linecap: square"/>
   </g>
   <g id="line2d_10">
    <path d="M 64.734 62.323713 
L 64.734 45.224757 
" clip-path="url(#pdfe8aaf9ba)" style="fill: none; stroke: #377eb8; stroke-linecap: square"/>
   </g>
   <g id="line2d_11">
    <path d="M 111.694 74.338813 
L 111.694 55.619271 
" clip-path="url(#pdfe8aaf9ba)" style="fill: none; stroke: #377eb8; stroke-linecap: square"/>
   </g>
   <g id="PathCollection_2">
    <defs>
     <path id="mf153763b2d" d="M 0 1.691974 
C 0.448717 1.691974 0.879116 1.513697 1.196406 1.196406 
C 1.513697 0.879116 1.691974 0.448717 1.691974 0 
C 1.691974 -0.448717 1.513697 -0.879116 1.196406 -1.196406 
C 0.879116 -1.513697 0.448717 -1.691974 0 -1.691974 
C -0.448717 -1.691974 -0.879116 -1.513697 -1.196406 -1.196406 
C -1.513697 -0.879116 -1.691974 -0.448717 -1.691974 0 
C -1.691974 0.448717 -1.513697 0.879116 -1.196406 1.196406 
C -0.879116 1.513697 -0.448717 1.691974 0 1.691974 
z
" style="stroke: #377eb8; stroke-width: 1.0125"/>
    </defs>
    <g clip-path="url(#pdfe8aaf9ba)">
     <use xlink:href="#mf153763b2d" x="64.734" y="53.774235" style="fill: #377eb8; stroke: #377eb8; stroke-width: 1.0125"/>
     <use xlink:href="#mf153763b2d" x="111.694" y="64.979042" style="fill: #377eb8; stroke: #377eb8; stroke-width: 1.0125"/>
    </g>
   </g>
   <g id="patch_3">
    <path d="M 40.08 110.818377 
L 40.08 38.8 
" style="fill: none; stroke: #000000; stroke-width: 0.8; stroke-linejoin: miter; stroke-linecap: square"/>
   </g>
   <g id="patch_4">
    <path d="M 40.08 110.818377 
L 134 110.818377 
" style="fill: none; stroke: #000000; stroke-width: 0.8; stroke-linejoin: miter; stroke-linecap: square"/>
   </g>
   <g id="legend_1">
    <g id="PathCollection_3">
     <g>
      <use xlink:href="#ma0bfc4914b" x="55.28" y="16.59375" style="fill: #e41a1c; stroke: #e41a1c; stroke-width: 1.0125"/>
     </g>
    </g>
    <g id="text_8">
     <text style="font: 8px 'Arial', sans-serif; text-anchor: start" x="69.68" y="18.69375" transform="rotate(-0 69.68 18.69375)">CS+</text>
    </g>
    <g id="PathCollection_4">
     <g>
      <use xlink:href="#mf153763b2d" x="55.28" y="27.91" style="fill: #377eb8; stroke: #377eb8; stroke-width: 1.0125"/>
     </g>
    </g>
    <g id="text_9">
     <text style="font: 8px 'Arial', sans-serif; text-anchor: start" x="69.68" y="30.01" transform="rotate(-0 69.68 30.01)">CS-</text>
    </g>
   </g>
  </g>
  <g id="axes_2">
   <g id="patch_5">
    <path d="M 40.08 218.052313 
L 134 218.052313 
L 134 146.033937 
L 40.08 146.033937 
z
" style="fill: #ffffff"/>
   </g>
   <g id="PolyCollection_1"/>
   <g id="PolyCollection_2"/>
   <g id="PolyCollection_3"/>
   <g id="PolyCollection_4"/>
   <g id="PolyCollection_5"/>
   <g id="PolyCollection_6"/>
   <g id="PolyCollection_7"/>
   <g id="matplotlib.axis_3">
    <g id="xtick_3">
     <g id="line2d_12">
      <g>
       <use xlink:href="#mf73cb348da" x="55.733333" y="218.052313" style="stroke: #000000; stroke-width: 0.8"/>
      </g>
     </g>
     <g id="text_10">
      <text style="font: 6px 'Arial', sans-serif; text-anchor: middle" x="55.733333" y="229.347001" transform="rotate(-0 55.733333 229.347001)">1</text>
     </g>
    </g>
    <g id="xtick_4">
     <g id="line2d_13">
      <g>
       <use xlink:href="#mf73cb348da" x="87.04" y="218.052313" style="stroke: #000000; stroke-width: 0.8"/>
      </g>
     </g>
     <g id="text_11">
      <text style="font: 6px 'Arial', sans-serif; text-anchor: middle" x="87.04" y="229.347001" transform="rotate(-0 87.04 229.347001)">2</text>
     </g>
    </g>
    <g id="xtick_5">
     <g id="line2d_14">
      <g>
       <use xlink:href="#mf73cb348da" x="118.346667" y="218.052313" style="stroke: #000000; stroke-width: 0.8"/>
      </g>
     </g>
     <g id="text_12">
      <text style="font: 6px 'Arial', sans-serif; text-anchor: middle" x="118.346667" y="229.347001" transform="rotate(-0 118.346667 229.347001)">3</text>
     </g>
    </g>
    <g id="text_13">
     <text style="font: 8px 'Arial', sans-serif; text-anchor: middle" x="87.04" y="240.265751" transform="rotate(-0 87.04 240.265751)">Training Day</text>
    </g>
   </g>
   <g id="matplotlib.axis_4">
    <g id="ytick_4">
     <g id="line2d_15">
      <g>
       <use xlink:href="#mb194f26444" x="40.08" y="203.482949" style="stroke: #000000; stroke-width: 0.8"/>
      </g>
     </g>
     <g id="text_14">
      <text style="font: 6px 'Arial', sans-serif; text-anchor: end" x="33.08" y="205.630292" transform="rotate(-0 33.08 205.630292)">−5</text>
     </g>
    </g>
    <g id="ytick_5">
     <g id="line2d_16">
      <g>
       <use xlink:href="#mb194f26444" x="40.08" y="175.634913" style="stroke: #000000; stroke-width: 0.8"/>
      </g>
     </g>
     <g id="text_15">
      <text style="font: 6px 'Arial', sans-serif; text-anchor: end" x="33.08" y="177.782256" transform="rotate(-0 33.08 177.782256)">0</text>
     </g>
    </g>
    <g id="ytick_6">
     <g id="line2d_17">
      <g>
       <use xlink:href="#mb194f26444" x="40.08" y="147.786877" style="stroke: #000000; stroke-width: 0.8"/>
      </g>
     </g>
     <g id="text_16">
      <text style="font: 6px 'Arial', sans-serif; text-anchor: end" x="33.08" y="149.93422" transform="rotate(-0 33.08 149.93422)">5</text>
     </g>
    </g>
    <g id="text_17">
     <text style="font: 8px 'Arial', sans-serif; text-anchor: middle" x="20.649062" y="182.043125" transform="rotate(-90 20.649062 182.043125)">Area Between Curves</text>
    </g>
   </g>
   <g id="line2d_18">
    <path d="M 55.733333 177.931839 
L 118.346667 188.229124 
" clip-path="url(#pf073f10e65)" style="fill: none; stroke: #800080; stroke-linecap: square"/>
    <defs>
     <path id="md23615aec5" d="M 0 2.5 
C 0.663008 2.5 1.29895 2.236584 1.767767 1.767767 
C 2.236584 1.29895 2.5 0.663008 2.5 0 
C 2.5 -0.663008 2.236584 -1.29895 1.767767 -1.767767 
C 1.29895 -2.236584 0.663008 -2.5 0 -2.5 
C -0.663008 -2.5 -1.29895 -2.236584 -1.767767 -1.767767 
C -2.236584 -1.29895 -2.5 -0.663008 -2.5 0 
C -2.5 0.663008 -2.236584 1.29895 -1.767767 1.767767 
C -1.29895 2.236584 -0.663008 2.5 0 2.5 
z
"/>
    </defs>
    <g clip-path="url(#pf073f10e65)">
     <use xlink:href="#md23615aec5" x="55.733333" y="177.931839" style="fill: #800080"/>
     <use xlink:href="#md23615aec5" x="118.346667" y="188.229124" style="fill: #800080"/>
    </g>
   </g>
   <g id="LineCollection_1">
    <path d="M 55.733333 184.195818 
L 55.733333 171.66786 
" clip-path="url(#pf073f10e65)" style="fill: none; stroke: #800080; stroke-width: 1.5; stroke-linecap: square"/>
    <path d="M 118.346667 193.237004 
L 118.346667 183.221245 
" clip-path="url(#pf073f10e65)" style="fill: none; stroke: #800080; stroke-width: 1.5; stroke-linecap: square"/>
   </g>
   <g id="line2d_19">
    <path d="M 55.733333 203.477637 
L 118.346667 173.277061 
" clip-path="url(#pf073f10e65)" style="fill: none; stroke: #800080; stroke-opacity: 0.1; stroke-width: 0.7; stroke-linecap: square"/>
   </g>
   <g id="line2d_20">
    <path d="M 55.733333 185.977655 
L 118.346667 190.456158 
" clip-path="url(#pf073f10e65)" style="fill: none; stroke: #800080; stroke-opacity: 0.1; stroke-width: 0.7; stroke-linecap: square"/>
   </g>
   <g id="line2d_21">
    <path d="M 55.733333 184.369213 
L 118.346667 187.139716 
" clip-path="url(#pf073f10e65)" style="fill: none; stroke: #800080; stroke-opacity: 0.1; stroke-width: 0.7; stroke-linecap: square"/>
   </g>
   <g id="line2d_22">
    <path d="M 55.733333 175.383442 
L 118.346667 181.336935 
" clip-path="url(#pf073f10e65)" style="fill: none; stroke: #800080; stroke-opacity: 0.1; stroke-width: 0.7; stroke-linecap: square"/>
   </g>
   <g id="line2d_23">
    <path d="M 55.733333 176.97832 
L 118.346667 214.778751 
" clip-path="url(#pf073f10e65)" style="fill: none; stroke: #800080; stroke-opacity: 0.1; stroke-width: 0.7; stroke-linecap: square"/>
   </g>
   <g id="line2d_24">
    <path d="M 55.733333 170.029109 
L 118.346667 180.104458 
" clip-path="url(#pf073f10e65)" style="fill: none; stroke: #800080; stroke-opacity: 0.1; stroke-width: 0.7; stroke-linecap: square"/>
   </g>
   <g id="line2d_25">
    <path d="M 55.733333 149.307499 
L 118.346667 190.510792 
" clip-path="url(#pf073f10e65)" style="fill: none; stroke: #800080; stroke-opacity: 0.1; stroke-width: 0.7; stroke-linecap: square"/>
   </g>
   <g id="line2d_26"/>
   <g id="line2d_27"/>
   <g id="line2d_28"/>
   <g id="line2d_29"/>
   <g id="line2d_30"/>
   <g id="line2d_31"/>
   <g id="line2d_32"/>
   <g id="line2d_33">
    <path d="M 40.08 175.634913 
L 134 175.634913 
" clip-path="url(#pf073f10e65)" style="fill: none; stroke-dasharray: 5.55,2.4; stroke-dashoffset: 0; stroke: #808080; stroke-width: 1.5"/>
   </g>
   <g id="line2d_34"/>
   <g id="patch_6">
    <path d="M 40.08 218.052313 
L 40.08 146.033937 
" style="fill: none; stroke: #000000; stroke-width: 0.8; stroke-linejoin: miter; stroke-linecap: square"/>
   </g>
   <g id="patch_7">
    <path d="M 40.08 218.052313 
L 134 218.052313 
" style="fill: none; stroke: #000000; stroke-width: 0.8; stroke-linejoin: miter; stroke-linecap: square"/>
   </g>
  </g>
  <g id="axes_3">
   <g id="patch_8">
    <path d="M 40.08 325.28625 
L 134 325.28625 
L 134 253.267873 
L 40.08 253.267873 
z
" style="fill: #ffffff"/>
   </g>
   <g id="PathCollection_5">
    <defs>
     <path id="m64ecf9d115" d="M 0 1.581139 
C 0.419323 1.581139 0.821528 1.41454 1.118034 1.118034 
C 1.41454 0.821528 1.581139 0.419323 1.581139 0 
C 1.581139 -0.419323 1.41454 -0.821528 1.118034 -1.118034 
C 0.821528 -1.41454 0.419323 -1.581139 0 -1.581139 
C -0.419323 -1.581139 -0.821528 -1.41454 -1.118034 -1.118034 
C -1.41454 -0.821528 -1.581139 -0.419323 -1.581139 0 
C -1.581139 0.419323 -1.41454 0.821528 -1.118034 1.118034 
C -0.821528 1.41454 -0.419323 1.581139 0 1.581139 
z
" style="stroke: #ffffff; stroke-width: 0.252982"/>
    </defs>
    <g clip-path="url(#p3a0a43bba0)">
     <use xlink:href="#m64ecf9d115" x="62.364655" y="277.863058" style="fill: #800080; stroke: #ffffff; stroke-width: 0.252982"/>
     <use xlink:href="#m64ecf9d115" x="64.428048" y="291.827652" style="fill: #800080; stroke: #ffffff; stroke-width: 0.252982"/>
     <use xlink:href="#m64ecf9d115" x="92.974036" y="289.131773" style="fill: #800080; stroke: #ffffff; stroke-width: 0.252982"/>
     <use xlink:href="#m64ecf9d115" x="80.778667" y="284.414792" style="fill: #800080; stroke: #ffffff; stroke-width: 0.252982"/>
     <use xlink:href="#m64ecf9d115" x="78.544509" y="311.599073" style="fill: #800080; stroke: #ffffff; stroke-width: 0.252982"/>
     <use xlink:href="#m64ecf9d115" x="111.701115" y="283.412932" style="fill: #800080; stroke: #ffffff; stroke-width: 0.252982"/>
     <use xlink:href="#m64ecf9d115" x="100.331103" y="291.872064" style="fill: #800080; stroke: #ffffff; stroke-width: 0.252982"/>
    </g>
   </g>
   <g id="PolyCollection_8">
    <defs>
     <path id="m8119477c16" d="M 44.349091 -98.79772 
L 44.349091 -39.856679 
L 45.211534 -40.407936 
L 46.073976 -40.957343 
L 46.936419 -41.504794 
L 47.798861 -42.050174 
L 48.661304 -42.59336 
L 49.523747 -43.134221 
L 50.386189 -43.672612 
L 51.248632 -44.208381 
L 52.111074 -44.741361 
L 52.973517 -45.271372 
L 53.83596 -45.798221 
L 54.698402 -46.321698 
L 55.560845 -46.841575 
L 56.423287 -47.357606 
L 57.28573 -47.869524 
L 58.148173 -48.377038 
L 59.010615 -48.879834 
L 59.873058 -49.37757 
L 60.7355 -49.869872 
L 61.597943 -50.356336 
L 62.460386 -50.836522 
L 63.322828 -51.309951 
L 64.185271 -51.776102 
L 65.047713 -52.234408 
L 65.910156 -52.684254 
L 66.772599 -53.124974 
L 67.635041 -53.555843 
L 68.497484 -53.97608 
L 69.359927 -54.38484 
L 70.222369 -54.781217 
L 71.084812 -55.164236 
L 71.947254 -55.532861 
L 72.809697 -55.88599 
L 73.67214 -56.222463 
L 74.534582 -56.541067 
L 75.397025 -56.840546 
L 76.259467 -57.119614 
L 77.12191 -57.37697 
L 77.984353 -57.611323 
L 78.846795 -57.821413 
L 79.709238 -58.006042 
L 80.57168 -58.164102 
L 81.434123 -58.294606 
L 82.296566 -58.396722 
L 83.159008 -58.469797 
L 84.021451 -58.513383 
L 84.883893 -58.527251 
L 85.746336 -58.511405 
L 86.608779 -58.466075 
L 87.471221 -58.391713 
L 88.333664 -58.288973 
L 89.196107 -58.158693 
L 90.058549 -58.001859 
L 90.920992 -57.819581 
L 91.783434 -57.61306 
L 92.645877 -57.383556 
L 93.50832 -57.132361 
L 94.370762 -56.860774 
L 95.233205 -56.570081 
L 96.095647 -56.261539 
L 96.95809 -55.936359 
L 97.820533 -55.5957 
L 98.682975 -55.240664 
L 99.545418 -54.872286 
L 100.40786 -54.491538 
L 101.270303 -54.099328 
L 102.132746 -53.696498 
L 102.995188 -53.283829 
L 103.857631 -52.862044 
L 104.720073 -52.431809 
L 105.582516 -51.993738 
L 106.444959 -51.548398 
L 107.307401 -51.096309 
L 108.169844 -50.637948 
L 109.032287 -50.173755 
L 109.894729 -49.704136 
L 110.757172 -49.229461 
L 111.619614 -48.750073 
L 112.482057 -48.266286 
L 113.3445 -47.778391 
L 114.206942 -47.286653 
L 115.069385 -46.791319 
L 115.931827 -46.292617 
L 116.79427 -45.790755 
L 117.656713 -45.285928 
L 118.519155 -44.778314 
L 119.381598 -44.26808 
L 120.24404 -43.75538 
L 121.106483 -43.240355 
L 121.968926 -42.723139 
L 122.831368 -42.203853 
L 123.693811 -41.682614 
L 124.556253 -41.159527 
L 125.418696 -40.634691 
L 126.281139 -40.108198 
L 127.143581 -39.580136 
L 128.006024 -39.050585 
L 128.868466 -38.51962 
L 129.730909 -37.987313 
L 129.730909 -103.458564 
L 129.730909 -103.458564 
L 128.868466 -102.89806 
L 128.006024 -102.338898 
L 127.143581 -101.78115 
L 126.281139 -101.224892 
L 125.418696 -100.670203 
L 124.556253 -100.11717 
L 123.693811 -99.565886 
L 122.831368 -99.016449 
L 121.968926 -98.468968 
L 121.106483 -97.923554 
L 120.24404 -97.380333 
L 119.381598 -96.839436 
L 118.519155 -96.301005 
L 117.656713 -95.765195 
L 116.79427 -95.232171 
L 115.931827 -94.702112 
L 115.069385 -94.175213 
L 114.206942 -93.651682 
L 113.3445 -93.131748 
L 112.482057 -92.615656 
L 111.619614 -92.103672 
L 110.757172 -91.596087 
L 109.894729 -91.093216 
L 109.032287 -90.5954 
L 108.169844 -90.103011 
L 107.307401 -89.616453 
L 106.444959 -89.136166 
L 105.582516 -88.66263 
L 104.720073 -88.196363 
L 103.857631 -87.737931 
L 102.995188 -87.287949 
L 102.132746 -86.847083 
L 101.270303 -86.416056 
L 100.40786 -85.995649 
L 99.545418 -85.586705 
L 98.682975 -85.19013 
L 97.820533 -84.806897 
L 96.95809 -84.438042 
L 96.095647 -84.084665 
L 95.233205 -83.747926 
L 94.370762 -83.429036 
L 93.50832 -83.129253 
L 92.645877 -82.849861 
L 91.783434 -82.59216 
L 90.920992 -82.357442 
L 90.058549 -82.146968 
L 89.196107 -81.961937 
L 88.333664 -81.80346 
L 87.471221 -81.672524 
L 86.608779 -81.569964 
L 85.746336 -81.496438 
L 84.883893 -81.452395 
L 84.021451 -81.438067 
L 83.159008 -81.453456 
L 82.296566 -81.498334 
L 81.434123 -81.572253 
L 80.57168 -81.67456 
L 79.709238 -81.804423 
L 78.846795 -81.960856 
L 77.984353 -82.142749 
L 77.12191 -82.348906 
L 76.259467 -82.578065 
L 75.397025 -82.828936 
L 74.534582 -83.100218 
L 73.67214 -83.390625 
L 72.809697 -83.698902 
L 71.947254 -84.023834 
L 71.084812 -84.364262 
L 70.222369 -84.719085 
L 69.359927 -85.087264 
L 68.497484 -85.467828 
L 67.635041 -85.859868 
L 66.772599 -86.262541 
L 65.910156 -86.675063 
L 65.047713 -87.096713 
L 64.185271 -87.526823 
L 63.322828 -87.964776 
L 62.460386 -88.410008 
L 61.597943 -88.861998 
L 60.7355 -89.320265 
L 59.873058 -89.784371 
L 59.010615 -90.253909 
L 58.148173 -90.728509 
L 57.28573 -91.207827 
L 56.423287 -91.691548 
L 55.560845 -92.179382 
L 54.698402 -92.671062 
L 53.83596 -93.166342 
L 52.973517 -93.664995 
L 52.111074 -94.166809 
L 51.248632 -94.671592 
L 50.386189 -95.179164 
L 49.523747 -95.689359 
L 48.661304 -96.202022 
L 47.798861 -96.717012 
L 46.936419 -97.234196 
L 46.073976 -97.75345 
L 45.211534 -98.27466 
L 44.349091 -98.79772 
z
" style="stroke: #800080; stroke-opacity: 0.2"/>
    </defs>
    <g clip-path="url(#p3a0a43bba0)">
     <use xlink:href="#m8119477c16" x="0" y="360" style="fill: #800080; fill-opacity: 0.2; stroke: #800080; stroke-opacity: 0.2"/>
    </g>
   </g>
   <g id="matplotlib.axis_5">
    <g id="xtick_6">
     <g id="line2d_35">
      <g>
       <use xlink:href="#mf73cb348da" x="44.349091" y="325.28625" style="stroke: #000000; stroke-width: 0.8"/>
      </g>
     </g>
     <g id="text_18">
      <text style="font: 6px 'Arial', sans-serif; text-anchor: middle" x="44.349091" y="336.580938" transform="rotate(-0 44.349091 336.580938)">0</text>
     </g>
    </g>
    <g id="xtick_7">
     <g id="line2d_36">
      <g>
       <use xlink:href="#mf73cb348da" x="79.924848" y="325.28625" style="stroke: #000000; stroke-width: 0.8"/>
      </g>
     </g>
     <g id="text_19">
      <text style="font: 6px 'Arial', sans-serif; text-anchor: middle" x="79.924848" y="336.580938" transform="rotate(-0 79.924848 336.580938)">2500</text>
     </g>
    </g>
    <g id="xtick_8">
     <g id="line2d_37">
      <g>
       <use xlink:href="#mf73cb348da" x="115.500606" y="325.28625" style="stroke: #000000; stroke-width: 0.8"/>
      </g>
     </g>
     <g id="text_20">
      <text style="font: 6px 'Arial', sans-serif; text-anchor: middle" x="115.500606" y="336.580938" transform="rotate(-0 115.500606 336.580938)">5000</text>
     </g>
    </g>
    <g id="text_21">
     <text style="font: 8px 'Arial', sans-serif; text-anchor: middle" x="87.04" y="347.597187" transform="rotate(-0 87.04 347.597187)">Total CS+ Training Licks</text>
    </g>
   </g>
   <g id="matplotlib.axis_6">
    <g id="ytick_7">
     <g id="line2d_38">
      <g>
       <use xlink:href="#mb194f26444" x="40.08" y="325.054102" style="stroke: #000000; stroke-width: 0.8"/>
      </g>
     </g>
     <g id="text_22">
      <text style="font: 6px 'Arial', sans-serif; text-anchor: end" x="33.08" y="327.201445" transform="rotate(-0 33.08 327.201445)">−10</text>
     </g>
    </g>
    <g id="ytick_8">
     <g id="line2d_39">
      <g>
       <use xlink:href="#mb194f26444" x="40.08" y="279.779715" style="stroke: #000000; stroke-width: 0.8"/>
      </g>
     </g>
     <g id="text_23">
      <text style="font: 6px 'Arial', sans-serif; text-anchor: end" x="33.08" y="281.927059" transform="rotate(-0 33.08 281.927059)">0</text>
     </g>
    </g>
    <g id="text_24">
     <text style="font: 8px 'Arial', sans-serif; text-anchor: middle" x="17.21875" y="289.277062" transform="rotate(-90 17.21875 289.277062)">Day 3 Area Between Curves</text>
    </g>
   </g>
   <g id="line2d_40">
    <path d="M 44.349091 290.672801 
L 45.211534 290.658702 
L 46.073976 290.644604 
L 46.936419 290.630505 
L 47.798861 290.616407 
L 48.661304 290.602309 
L 49.523747 290.58821 
L 50.386189 290.574112 
L 51.248632 290.560014 
L 52.111074 290.545915 
L 52.973517 290.531817 
L 53.83596 290.517718 
L 54.698402 290.50362 
L 55.560845 290.489522 
L 56.423287 290.475423 
L 57.28573 290.461325 
L 58.148173 290.447227 
L 59.010615 290.433128 
L 59.873058 290.41903 
L 60.7355 290.404931 
L 61.597943 290.390833 
L 62.460386 290.376735 
L 63.322828 290.362636 
L 64.185271 290.348538 
L 65.047713 290.33444 
L 65.910156 290.320341 
L 66.772599 290.306243 
L 67.635041 290.292144 
L 68.497484 290.278046 
L 69.359927 290.263948 
L 70.222369 290.249849 
L 71.084812 290.235751 
L 71.947254 290.221653 
L 72.809697 290.207554 
L 73.67214 290.193456 
L 74.534582 290.179357 
L 75.397025 290.165259 
L 76.259467 290.151161 
L 77.12191 290.137062 
L 77.984353 290.122964 
L 78.846795 290.108866 
L 79.709238 290.094767 
L 80.57168 290.080669 
L 81.434123 290.06657 
L 82.296566 290.052472 
L 83.159008 290.038374 
L 84.021451 290.024275 
L 84.883893 290.010177 
L 85.746336 289.996079 
L 86.608779 289.98198 
L 87.471221 289.967882 
L 88.333664 289.953783 
L 89.196107 289.939685 
L 90.058549 289.925587 
L 90.920992 289.911488 
L 91.783434 289.89739 
L 92.645877 289.883292 
L 93.50832 289.869193 
L 94.370762 289.855095 
L 95.233205 289.840996 
L 96.095647 289.826898 
L 96.95809 289.8128 
L 97.820533 289.798701 
L 98.682975 289.784603 
L 99.545418 289.770505 
L 100.40786 289.756406 
L 101.270303 289.742308 
L 102.132746 289.728209 
L 102.995188 289.714111 
L 103.857631 289.700013 
L 104.720073 289.685914 
L 105.582516 289.671816 
L 106.444959 289.657718 
L 107.307401 289.643619 
L 108.169844 289.629521 
L 109.032287 289.615422 
L 109.894729 289.601324 
L 110.757172 289.587226 
L 111.619614 289.573127 
L 112.482057 289.559029 
L 113.3445 289.544931 
L 114.206942 289.530832 
L 115.069385 289.516734 
L 115.931827 289.502636 
L 116.79427 289.488537 
L 117.656713 289.474439 
L 118.519155 289.46034 
L 119.381598 289.446242 
L 120.24404 289.432144 
L 121.106483 289.418045 
L 121.968926 289.403947 
L 122.831368 289.389849 
L 123.693811 289.37575 
L 124.556253 289.361652 
L 125.418696 289.347553 
L 126.281139 289.333455 
L 127.143581 289.319357 
L 128.006024 289.305258 
L 128.868466 289.29116 
L 129.730909 289.277062 
" clip-path="url(#p3a0a43bba0)" style="fill: none; stroke: #800080; stroke-width: 1.5; stroke-linecap: square"/>
   </g>
   <g id="patch_9">
    <path d="M 40.08 325.28625 
L 40.08 253.267873 
" style="fill: none; stroke: #000000; stroke-width: 0.8; stroke-linejoin: miter; stroke-linecap: square"/>
   </g>
   <g id="patch_10">
    <path d="M 40.08 325.28625 
L 134 325.28625 
" style="fill: none; stroke: #000000; stroke-width: 0.8; stroke-linejoin: miter; stroke-linecap: square"/>
   </g>
  </g>
 </g>
 <defs>
  <clipPath id="pdfe8aaf9ba">
   <rect x="40.08" y="38.8" width="93.92" height="72.018377"/>
  </clipPath>
  <clipPath id="pf073f10e65">
   <rect x="40.08" y="146.033937" width="93.92" height="72.018377"/>
  </clipPath>
  <clipPath id="p3a0a43bba0">
   <rect x="40.08" y="253.267873" width="93.92" height="72.018377"/>
  </clipPath>
 </defs>
</svg>
