<?xml version="1.0" encoding="utf-8" standalone="no"?>
<!DOCTYPE svg PUBLIC "-//W3C//DTD SVG 1.1//EN"
  "http://www.w3.org/Graphics/SVG/1.1/DTD/svg11.dtd">
<svg xmlns:xlink="http://www.w3.org/1999/xlink" width="195.676pt" height="198.90775pt" viewBox="0 0 195.676 198.90775" xmlns="http://www.w3.org/2000/svg" version="1.1">
 <metadata>
  <rdf:RDF xmlns:dc="http://purl.org/dc/elements/1.1/" xmlns:cc="http://creativecommons.org/ns#" xmlns:rdf="http://www.w3.org/1999/02/22-rdf-syntax-ns#">
   <cc:Work>
    <dc:type rdf:resource="http://purl.org/dc/dcmitype/StillImage"/>
    <dc:date>2023-07-07T22:08:42.847749</dc:date>
    <dc:format>image/svg+xml</dc:format>
    <dc:creator>
     <cc:Agent>
      <dc:title>Matplotlib v3.6.2, https://matplotlib.org/</dc:title>
     </cc:Agent>
    </dc:creator>
   </cc:Work>
  </rdf:RDF>
 </metadata>
 <defs>
  <style type="text/css">*{stroke-linejoin: round; stroke-linecap: butt}</style>
 </defs>
 <g id="figure_1">
  <g id="patch_1">
   <path d="M 0 198.90775 
L 195.676 198.90775 
L 195.676 0 
L 0 0 
L 0 198.90775 
z
" style="fill: none"/>
  </g>
  <g id="axes_1">
   <g id="patch_2">
    <path d="M 25.42 82.34525 
L 188.476 82.34525 
L 188.476 20.0715 
L 25.42 20.0715 
L 25.42 82.34525 
z
" style="fill: none"/>
   </g>
   <g id="matplotlib.axis_1"/>
   <g id="matplotlib.axis_2">
    <g id="text_1">
     <!-- $\frac{\Delta F}{F}$ -->
     <g transform="translate(14.8 55.248375) rotate(-90)">
      <text>
       <tspan style="font: 5.6px 'DejaVu Sans'" x="0" y="-3.9203125000000005">Δ</tspan>
       <tspan style="font: oblique 5.6px 'DejaVu Sans'" x="2 3.830859" y="2.659374999999999 -3.9203125000000005">FF</tspan>
      </text>
      <rect x="0" y="-2.920313" width="7.051953" height="0.5"/>
     </g>
    </g>
   </g>
   <g id="line2d_1">
    <path d="M 32.831636 29.652185 
L 34.328937 29.652231 
L 35.826237 29.652296 
L 37.323537 29.652389 
L 38.820837 29.652522 
L 40.318138 29.652711 
L 41.815438 29.65298 
L 43.312738 29.653363 
L 44.810039 29.653908 
L 46.307339 29.654684 
L 47.804639 29.65579 
L 49.301939 29.657365 
L 50.79924 29.659608 
L 52.29654 29.662801 
L 53.79384 29.667348 
L 55.29114 29.673821 
L 56.788441 29.683037 
L 58.285741 29.696156 
L 59.783041 29.714826 
L 61.280342 29.741389 
L 62.777642 29.779167 
L 64.274942 29.832863 
L 65.772242 29.909124 
L 67.269543 30.017308 
L 68.766843 30.170526 
L 70.264143 30.387028 
L 71.761444 30.691955 
L 73.258744 31.119457 
L 74.756044 31.714971 
L 76.253344 32.537148 
L 77.750645 33.658367 
L 79.247945 35.161988 
L 80.745245 37.13375 
L 82.242545 39.644791 
L 83.739846 42.726003 
L 85.237146 46.339074 
L 86.734446 50.357031 
L 88.231747 54.570123 
L 89.729047 58.724068 
L 91.226347 62.578386 
L 92.723647 65.958323 
L 94.220948 68.778558 
L 95.718248 71.035766 
L 97.215548 72.78282 
L 98.712848 74.100211 
L 100.210149 75.074109 
L 101.707449 75.783457 
L 103.204749 76.294393 
L 104.70205 76.659269 
L 106.19935 76.917991 
L 107.69665 77.100193 
L 109.19395 77.22747 
L 110.691251 77.315337 
L 112.188551 77.374798 
L 113.685851 77.413553 
L 115.183152 77.436892 
L 116.680452 77.448338 
L 118.177752 77.450103 
L 119.675052 77.4434 
L 121.172353 77.428645 
L 122.669653 77.40558 
L 124.166953 77.373331 
L 125.664253 77.330408 
L 127.161554 77.274671 
L 128.658854 77.203244 
L 130.156154 77.112396 
L 131.653455 76.997379 
L 133.150755 76.852227 
L 134.648055 76.669513 
L 136.145355 76.440079 
L 137.642656 76.152735 
L 139.139956 75.793957 
L 140.637256 75.347625 
L 142.134556 74.794858 
L 143.631857 74.114037 
L 145.129157 73.281142 
L 146.626457 72.270578 
L 148.123758 71.056634 
L 149.621058 69.615759 
L 151.118358 67.929661 
L 152.615658 65.989105 
L 154.112959 63.797921 
L 155.610259 61.376437 
L 157.107559 58.763295 
L 158.60486 56.014659 
L 160.10216 53.200333 
L 161.59946 50.397098 
L 163.09676 47.680543 
L 164.594061 45.117148 
L 166.091361 42.758331 
L 167.588661 40.637451 
L 169.085961 38.769845 
L 170.583262 37.155218 
L 172.080562 35.781333 
L 173.577862 34.628031 
L 175.075163 33.670862 
L 176.572463 32.883951 
L 178.069763 32.24203 
L 179.567063 31.721701 
L 181.064364 31.302101 
" clip-path="url(#p8f20e45c10)" style="fill: none; stroke: #d4d4d4; stroke-width: 2; stroke-linecap: square"/>
   </g>
   <g id="line2d_2">
    <path d="M 75.183844 82.34525 
L 75.183844 20.0715 
" clip-path="url(#p8f20e45c10)" style="fill: none; stroke-dasharray: 3.7,1.6; stroke-dashoffset: 0; stroke: #808080"/>
   </g>
   <g id="patch_3">
    <path d="M 25.42 82.34525 
L 25.42 20.0715 
" style="fill: none; stroke: #000000; stroke-width: 0.8; stroke-linejoin: miter; stroke-linecap: square"/>
   </g>
   <g id="patch_4">
    <path d="M 25.42 82.34525 
L 188.476 82.34525 
" style="fill: none; stroke: #000000; stroke-width: 0.8; stroke-linejoin: miter; stroke-linecap: square"/>
   </g>
   <g id="text_2">
    <!-- $t_{20}$ -->
    <g transform="translate(79.419065 24.861788)">
     <text>
      <tspan style="font: oblique 8px 'DejaVu Sans'" x="0" y="-0.375">t</tspan>
      <tspan style="font: 5.6px 'DejaVu Sans'" x="3.136719 6.699609" y="0.9375">20</tspan>
     </text>
    </g>
   </g>
   <g id="text_3">
    <text style="font: 9.6px 'Arial', sans-serif; text-anchor: middle" x="106.948" y="14.0715" transform="rotate(-0 106.948 14.0715)">Control</text>
   </g>
  </g>
  <g id="axes_2">
   <g id="patch_5">
    <path d="M 25.42 176.8915 
L 188.476 176.8915 
L 188.476 114.61775 
L 25.42 114.61775 
L 25.42 176.8915 
z
" style="fill: none"/>
   </g>
   <g id="matplotlib.axis_3">
    <g id="text_4">
     <text style="font: 8px 'Arial', sans-serif; text-anchor: middle" x="106.948" y="190.11775" transform="rotate(-0 106.948 190.11775)">Time</text>
    </g>
   </g>
   <g id="matplotlib.axis_4">
    <g id="text_5">
     <!-- $\frac{\Delta F}{F}$ -->
     <g transform="translate(14.8 149.794625) rotate(-90)">
      <text>
       <tspan style="font: 5.6px 'DejaVu Sans'" x="0" y="-3.9203125000000005">Δ</tspan>
       <tspan style="font: oblique 5.6px 'DejaVu Sans'" x="2 3.830859" y="2.659374999999999 -3.9203125000000005">FF</tspan>
      </text>
      <rect x="0" y="-2.920313" width="7.051953" height="0.5"/>
     </g>
    </g>
   </g>
   <g id="line2d_3">
    <path d="M 32.831636 124.198327 
L 34.328937 124.198327 
L 35.826237 124.198327 
L 37.323537 124.198327 
L 38.820837 124.198327 
L 40.318138 124.198327 
L 41.815438 124.198327 
L 43.312738 124.198327 
L 44.810039 124.198327 
L 46.307339 124.198327 
L 47.804639 124.198327 
L 49.301939 124.198327 
L 50.79924 124.198327 
L 52.29654 124.198327 
L 53.79384 124.198327 
L 55.29114 124.198327 
L 56.788441 124.198327 
L 58.285741 124.198327 
L 59.783041 124.198327 
L 61.280342 124.198327 
L 62.777642 124.198327 
L 64.274942 124.198327 
L 65.772242 124.198327 
L 67.269543 124.198327 
L 68.766843 124.198327 
L 70.264143 124.198327 
L 71.761444 124.198327 
L 73.258744 124.198327 
L 74.756044 124.198327 
L 76.253344 124.198327 
L 77.750645 124.198327 
L 79.247945 124.198327 
L 80.745245 124.198327 
L 82.242545 124.198327 
L 83.739846 124.198327 
L 85.237146 124.198327 
L 86.734446 124.198327 
L 88.231747 124.198327 
L 89.729047 124.198327 
L 91.226347 124.198327 
L 92.723647 124.198327 
L 94.220948 124.198327 
L 95.718248 124.198327 
L 97.215548 124.198327 
L 98.712848 124.198327 
L 100.210149 124.198327 
L 101.707449 124.198327 
L 103.204749 124.198327 
L 104.70205 124.198327 
L 106.19935 124.198327 
L 107.69665 124.198327 
L 109.19395 124.198327 
L 110.691251 124.198327 
L 112.188551 124.198327 
L 113.685851 124.198327 
L 115.183152 124.198327 
L 116.680452 124.198327 
L 118.177752 124.198327 
L 119.675052 124.198327 
L 121.172353 124.198327 
L 122.669653 124.198327 
L 124.166953 124.198327 
L 125.664253 124.198327 
L 127.161554 124.198327 
L 128.658854 124.198327 
L 130.156154 124.198327 
L 131.653455 124.198327 
L 133.150755 124.198327 
L 134.648055 124.198327 
L 136.145355 124.198327 
L 137.642656 124.198327 
L 139.139956 124.198327 
L 140.637256 124.198327 
L 142.134556 124.198327 
L 143.631857 124.198327 
L 145.129157 124.198327 
L 146.626457 124.198327 
L 148.123758 124.198327 
L 149.621058 124.198327 
L 151.118358 124.198327 
L 152.615658 124.198327 
L 154.112959 124.198327 
L 155.610259 124.198327 
L 157.107559 124.198327 
L 158.60486 124.198327 
L 160.10216 124.198327 
L 161.59946 124.198327 
L 163.09676 124.198327 
L 164.594061 124.198327 
L 166.091361 124.198327 
L 167.588661 124.198327 
L 169.085961 124.198327 
L 170.583262 124.198327 
L 172.080562 124.198327 
L 173.577862 124.198327 
L 175.075163 124.198327 
L 176.572463 124.198327 
L 178.069763 124.198327 
L 179.567063 124.198327 
L 181.064364 124.198327 
" clip-path="url(#p481a1b69be)" style="fill: none; stroke: #06e1e9; stroke-width: 2; stroke-linecap: square"/>
   </g>
   <g id="line2d_4">
    <path d="M 75.183844 176.8915 
L 75.183844 114.61775 
" clip-path="url(#p481a1b69be)" style="fill: none; stroke-dasharray: 3.7,1.6; stroke-dashoffset: 0; stroke: #808080"/>
   </g>
   <g id="patch_6">
    <path d="M 25.42 176.8915 
L 25.42 114.61775 
" style="fill: none; stroke: #000000; stroke-width: 0.8; stroke-linejoin: miter; stroke-linecap: square"/>
   </g>
   <g id="patch_7">
    <path d="M 25.42 176.8915 
L 188.476 176.8915 
" style="fill: none; stroke: #000000; stroke-width: 0.8; stroke-linejoin: miter; stroke-linecap: square"/>
   </g>
   <g id="text_6">
    <!-- $t_{20}$ -->
    <g transform="translate(79.419065 119.408038)">
     <text>
      <tspan style="font: oblique 8px 'DejaVu Sans'" x="0" y="-0.375">t</tspan>
      <tspan style="font: 5.6px 'DejaVu Sans'" x="3.136719 6.699609" y="0.9375">20</tspan>
     </text>
    </g>
   </g>
   <g id="text_7">
    <text style="font: 9.6px 'Arial', sans-serif; text-anchor: middle" x="106.948" y="108.61775" transform="rotate(-0 106.948 108.61775)">AgRP Stim</text>
   </g>
  </g>
 </g>
 <defs>
  <clipPath id="p8f20e45c10">
   <rect x="25.42" y="20.0715" width="163.056" height="62.27375"/>
  </clipPath>
  <clipPath id="p481a1b69be">
   <rect x="25.42" y="114.61775" width="163.056" height="62.27375"/>
  </clipPath>
 </defs>
</svg>
