<?xml version="1.0" encoding="utf-8" standalone="no"?>
<!DOCTYPE svg PUBLIC "-//W3C//DTD SVG 1.1//EN"
  "http://www.w3.org/Graphics/SVG/1.1/DTD/svg11.dtd">
<svg xmlns:xlink="http://www.w3.org/1999/xlink" width="434.5425pt" height="198.2965pt" viewBox="0 0 434.5425 198.2965" xmlns="http://www.w3.org/2000/svg" version="1.1">
 <metadata>
  <rdf:RDF xmlns:dc="http://purl.org/dc/elements/1.1/" xmlns:cc="http://creativecommons.org/ns#" xmlns:rdf="http://www.w3.org/1999/02/22-rdf-syntax-ns#">
   <cc:Work>
    <dc:type rdf:resource="http://purl.org/dc/dcmitype/StillImage"/>
    <dc:date>2023-07-07T22:08:43.767434</dc:date>
    <dc:format>image/svg+xml</dc:format>
    <dc:creator>
     <cc:Agent>
      <dc:title>Matplotlib v3.6.2, https://matplotlib.org/</dc:title>
     </cc:Agent>
    </dc:creator>
   </cc:Work>
  </rdf:RDF>
 </metadata>
 <defs>
  <style type="text/css">*{stroke-linejoin: round; stroke-linecap: butt}</style>
 </defs>
 <g id="figure_1">
  <g id="patch_1">
   <path d="M 0 198.2965 
L 434.5425 198.2965 
L 434.5425 0 
L 0 0 
L 0 198.2965 
z
" style="fill: none"/>
  </g>
  <g id="axes_1">
   <g id="patch_2">
    <path d="M 38.8625 175.0565 
L 131.32 175.0565 
L 131.32 36.2325 
L 38.8625 36.2325 
L 38.8625 175.0565 
z
" style="fill: none"/>
   </g>
   <g id="patch_3">
    <path d="M 43.065114 175.0565 
L 61.743396 175.0565 
L 61.743396 167.458332 
L 43.065114 167.458332 
z
" clip-path="url(#pcc9ab9e543)" style="fill: #721f81"/>
   </g>
   <g id="patch_4">
    <path d="M 89.760821 175.0565 
L 108.439104 175.0565 
L 108.439104 170.95845 
L 89.760821 170.95845 
z
" clip-path="url(#pcc9ab9e543)" style="fill: #721f81"/>
   </g>
   <g id="patch_5">
    <path d="M 61.743396 175.0565 
L 80.421679 175.0565 
L 80.421679 133.832755 
L 61.743396 133.832755 
z
" clip-path="url(#pcc9ab9e543)" style="fill: #f1605d"/>
   </g>
   <g id="patch_6">
    <path d="M 108.439104 175.0565 
L 127.117386 175.0565 
L 127.117386 118.053551 
L 108.439104 118.053551 
z
" clip-path="url(#pcc9ab9e543)" style="fill: #f1605d"/>
   </g>
   <g id="matplotlib.axis_1">
    <g id="xtick_1">
     <g id="line2d_1">
      <defs>
       <path id="mf62bc57216" d="M 0 0 
L 0 3.5 
" style="stroke: #000000; stroke-width: 0.8"/>
      </defs>
      <g>
       <use xlink:href="#mf62bc57216" x="61.743396" y="175.0565" style="stroke: #000000; stroke-width: 0.8"/>
      </g>
     </g>
     <g id="text_1">
      <!-- $AgRP^{TdTomato}$ -->
      <g transform="translate(36.703396 189.4165)">
       <text>
        <tspan style="font: oblique 8px 'DejaVu Sans'" x="0 5.472656 10.550781 16.109375" y="-0.6828125000000007">AgRP</tspan>
        <tspan style="font: oblique 5.6px 'DejaVu Sans'" x="21.494323 24.915026 28.469714 31.890417 35.316589 40.771667 44.203307 46.39901" y="-3.7453125000000007">TdTomato</tspan>
       </text>
      </g>
     </g>
    </g>
    <g id="xtick_2">
     <g id="line2d_2">
      <g>
       <use xlink:href="#mf62bc57216" x="108.439104" y="175.0565" style="stroke: #000000; stroke-width: 0.8"/>
      </g>
     </g>
     <g id="text_2">
      <!-- $AgRP^{Chr2}$ -->
      <g transform="translate(90.919104 189.4165)">
       <text>
        <tspan style="font: oblique 8px 'DejaVu Sans'" x="0 5.472656 10.550781 16.109375" y="-0.6828125000000007">AgRP</tspan>
        <tspan style="font: oblique 5.6px 'DejaVu Sans'" x="21.494323 25.404479 28.953698" y="-3.7453125000000007">Chr</tspan>
        <tspan style="font: 5.6px 'DejaVu Sans'" x="31.256042" y="-3.7453125000000007">2</tspan>
       </text>
      </g>
     </g>
    </g>
   </g>
   <g id="matplotlib.axis_2">
    <g id="ytick_1">
     <g id="line2d_3">
      <defs>
       <path id="m6c2954295f" d="M 0 0 
L -3.5 0 
" style="stroke: #000000; stroke-width: 0.8"/>
      </defs>
      <g>
       <use xlink:href="#m6c2954295f" x="38.8625" y="175.0565" style="stroke: #000000; stroke-width: 0.8"/>
      </g>
     </g>
     <g id="text_3">
      <text style="font: 6px 'Arial', sans-serif; text-anchor: end" x="31.8625" y="177.203844" transform="rotate(-0 31.8625 177.203844)">0</text>
     </g>
    </g>
    <g id="ytick_2">
     <g id="line2d_4">
      <g>
       <use xlink:href="#m6c2954295f" x="38.8625" y="157.082597" style="stroke: #000000; stroke-width: 0.8"/>
      </g>
     </g>
     <g id="text_4">
      <text style="font: 6px 'Arial', sans-serif; text-anchor: end" x="31.8625" y="159.229941" transform="rotate(-0 31.8625 159.229941)">500</text>
     </g>
    </g>
    <g id="ytick_3">
     <g id="line2d_5">
      <g>
       <use xlink:href="#m6c2954295f" x="38.8625" y="139.108694" style="stroke: #000000; stroke-width: 0.8"/>
      </g>
     </g>
     <g id="text_5">
      <text style="font: 6px 'Arial', sans-serif; text-anchor: end" x="31.8625" y="141.256038" transform="rotate(-0 31.8625 141.256038)">1000</text>
     </g>
    </g>
    <g id="ytick_4">
     <g id="line2d_6">
      <g>
       <use xlink:href="#m6c2954295f" x="38.8625" y="121.134791" style="stroke: #000000; stroke-width: 0.8"/>
      </g>
     </g>
     <g id="text_6">
      <text style="font: 6px 'Arial', sans-serif; text-anchor: end" x="31.8625" y="123.282135" transform="rotate(-0 31.8625 123.282135)">1500</text>
     </g>
    </g>
    <g id="ytick_5">
     <g id="line2d_7">
      <g>
       <use xlink:href="#m6c2954295f" x="38.8625" y="103.160889" style="stroke: #000000; stroke-width: 0.8"/>
      </g>
     </g>
     <g id="text_7">
      <text style="font: 6px 'Arial', sans-serif; text-anchor: end" x="31.8625" y="105.308232" transform="rotate(-0 31.8625 105.308232)">2000</text>
     </g>
    </g>
    <g id="ytick_6">
     <g id="line2d_8">
      <g>
       <use xlink:href="#m6c2954295f" x="38.8625" y="85.186986" style="stroke: #000000; stroke-width: 0.8"/>
      </g>
     </g>
     <g id="text_8">
      <text style="font: 6px 'Arial', sans-serif; text-anchor: end" x="31.8625" y="87.334329" transform="rotate(-0 31.8625 87.334329)">2500</text>
     </g>
    </g>
    <g id="ytick_7">
     <g id="line2d_9">
      <g>
       <use xlink:href="#m6c2954295f" x="38.8625" y="67.213083" style="stroke: #000000; stroke-width: 0.8"/>
      </g>
     </g>
     <g id="text_9">
      <text style="font: 6px 'Arial', sans-serif; text-anchor: end" x="31.8625" y="69.360427" transform="rotate(-0 31.8625 69.360427)">3000</text>
     </g>
    </g>
    <g id="ytick_8">
     <g id="line2d_10">
      <g>
       <use xlink:href="#m6c2954295f" x="38.8625" y="49.23918" style="stroke: #000000; stroke-width: 0.8"/>
      </g>
     </g>
     <g id="text_10">
      <text style="font: 6px 'Arial', sans-serif; text-anchor: end" x="31.8625" y="51.386524" transform="rotate(-0 31.8625 51.386524)">3500</text>
     </g>
    </g>
    <g id="text_11">
     <text style="font: 8px 'Arial', sans-serif; text-anchor: middle" x="12.92625" y="105.6445" transform="rotate(-90 12.92625 105.6445)">Lick/Test Session</text>
    </g>
   </g>
   <g id="line2d_11">
    <path d="M 117.778245 124.154407 
L 99.099962 174.858787 
" clip-path="url(#pcc9ab9e543)" style="fill: none; stroke: #000000; stroke-opacity: 0.3; stroke-linecap: square"/>
    <defs>
     <path id="m448c0a0ab8" d="M 0 1 
C 0.265203 1 0.51958 0.894634 0.707107 0.707107 
C 0.894634 0.51958 1 0.265203 1 0 
C 1 -0.265203 0.894634 -0.51958 0.707107 -0.707107 
C 0.51958 -0.894634 0.265203 -1 0 -1 
C -0.265203 -1 -0.51958 -0.894634 -0.707107 -0.707107 
C -0.894634 -0.51958 -1 -0.265203 -1 0 
C -1 0.265203 -0.894634 0.51958 -0.707107 0.707107 
C -0.51958 0.894634 -0.265203 1 0 1 
z
" style="stroke: #000000; stroke-opacity: 0.3"/>
    </defs>
    <g clip-path="url(#pcc9ab9e543)">
     <use xlink:href="#m448c0a0ab8" x="117.778245" y="124.154407" style="fill-opacity: 0.3; stroke: #000000; stroke-opacity: 0.3"/>
     <use xlink:href="#m448c0a0ab8" x="99.099962" y="174.858787" style="fill-opacity: 0.3; stroke: #000000; stroke-opacity: 0.3"/>
    </g>
   </g>
   <g id="line2d_12">
    <path d="M 117.778245 145.884856 
L 99.099962 173.420875 
" clip-path="url(#pcc9ab9e543)" style="fill: none; stroke: #000000; stroke-opacity: 0.3; stroke-linecap: square"/>
    <g clip-path="url(#pcc9ab9e543)">
     <use xlink:href="#m448c0a0ab8" x="117.778245" y="145.884856" style="fill-opacity: 0.3; stroke: #000000; stroke-opacity: 0.3"/>
     <use xlink:href="#m448c0a0ab8" x="99.099962" y="173.420875" style="fill-opacity: 0.3; stroke: #000000; stroke-opacity: 0.3"/>
    </g>
   </g>
   <g id="line2d_13">
    <path d="M 117.778245 109.793259 
L 99.099962 171.084267 
" clip-path="url(#pcc9ab9e543)" style="fill: none; stroke: #000000; stroke-opacity: 0.3; stroke-linecap: square"/>
    <g clip-path="url(#pcc9ab9e543)">
     <use xlink:href="#m448c0a0ab8" x="117.778245" y="109.793259" style="fill-opacity: 0.3; stroke: #000000; stroke-opacity: 0.3"/>
     <use xlink:href="#m448c0a0ab8" x="99.099962" y="171.084267" style="fill-opacity: 0.3; stroke: #000000; stroke-opacity: 0.3"/>
    </g>
   </g>
   <g id="line2d_14">
    <path d="M 117.778245 123.004077 
L 99.099962 174.121857 
" clip-path="url(#pcc9ab9e543)" style="fill: none; stroke: #000000; stroke-opacity: 0.3; stroke-linecap: square"/>
    <g clip-path="url(#pcc9ab9e543)">
     <use xlink:href="#m448c0a0ab8" x="117.778245" y="123.004077" style="fill-opacity: 0.3; stroke: #000000; stroke-opacity: 0.3"/>
     <use xlink:href="#m448c0a0ab8" x="99.099962" y="174.121857" style="fill-opacity: 0.3; stroke: #000000; stroke-opacity: 0.3"/>
    </g>
   </g>
   <g id="line2d_15">
    <path d="M 117.778245 103.807949 
L 99.099962 167.022165 
" clip-path="url(#pcc9ab9e543)" style="fill: none; stroke: #000000; stroke-opacity: 0.3; stroke-linecap: square"/>
    <g clip-path="url(#pcc9ab9e543)">
     <use xlink:href="#m448c0a0ab8" x="117.778245" y="103.807949" style="fill-opacity: 0.3; stroke: #000000; stroke-opacity: 0.3"/>
     <use xlink:href="#m448c0a0ab8" x="99.099962" y="167.022165" style="fill-opacity: 0.3; stroke: #000000; stroke-opacity: 0.3"/>
    </g>
   </g>
   <g id="line2d_16">
    <path d="M 117.778245 134.471427 
L 99.099962 174.301596 
" clip-path="url(#pcc9ab9e543)" style="fill: none; stroke: #000000; stroke-opacity: 0.3; stroke-linecap: square"/>
    <g clip-path="url(#pcc9ab9e543)">
     <use xlink:href="#m448c0a0ab8" x="117.778245" y="134.471427" style="fill-opacity: 0.3; stroke: #000000; stroke-opacity: 0.3"/>
     <use xlink:href="#m448c0a0ab8" x="99.099962" y="174.301596" style="fill-opacity: 0.3; stroke: #000000; stroke-opacity: 0.3"/>
    </g>
   </g>
   <g id="line2d_17">
    <path d="M 117.778245 136.951826 
L 99.099962 173.942118 
" clip-path="url(#pcc9ab9e543)" style="fill: none; stroke: #000000; stroke-opacity: 0.3; stroke-linecap: square"/>
    <g clip-path="url(#pcc9ab9e543)">
     <use xlink:href="#m448c0a0ab8" x="117.778245" y="136.951826" style="fill-opacity: 0.3; stroke: #000000; stroke-opacity: 0.3"/>
     <use xlink:href="#m448c0a0ab8" x="99.099962" y="173.942118" style="fill-opacity: 0.3; stroke: #000000; stroke-opacity: 0.3"/>
    </g>
   </g>
   <g id="line2d_18">
    <path d="M 117.778245 118.995897 
L 99.099962 172.144728 
" clip-path="url(#pcc9ab9e543)" style="fill: none; stroke: #000000; stroke-opacity: 0.3; stroke-linecap: square"/>
    <g clip-path="url(#pcc9ab9e543)">
     <use xlink:href="#m448c0a0ab8" x="117.778245" y="118.995897" style="fill-opacity: 0.3; stroke: #000000; stroke-opacity: 0.3"/>
     <use xlink:href="#m448c0a0ab8" x="99.099962" y="172.144728" style="fill-opacity: 0.3; stroke: #000000; stroke-opacity: 0.3"/>
    </g>
   </g>
   <g id="line2d_19">
    <path d="M 117.778245 83.874891 
L 99.099962 165.260723 
" clip-path="url(#pcc9ab9e543)" style="fill: none; stroke: #000000; stroke-opacity: 0.3; stroke-linecap: square"/>
    <g clip-path="url(#pcc9ab9e543)">
     <use xlink:href="#m448c0a0ab8" x="117.778245" y="83.874891" style="fill-opacity: 0.3; stroke: #000000; stroke-opacity: 0.3"/>
     <use xlink:href="#m448c0a0ab8" x="99.099962" y="165.260723" style="fill-opacity: 0.3; stroke: #000000; stroke-opacity: 0.3"/>
    </g>
   </g>
   <g id="line2d_20">
    <path d="M 117.778245 129.618474 
L 99.099962 168.226417 
" clip-path="url(#pcc9ab9e543)" style="fill: none; stroke: #000000; stroke-opacity: 0.3; stroke-linecap: square"/>
    <g clip-path="url(#pcc9ab9e543)">
     <use xlink:href="#m448c0a0ab8" x="117.778245" y="129.618474" style="fill-opacity: 0.3; stroke: #000000; stroke-opacity: 0.3"/>
     <use xlink:href="#m448c0a0ab8" x="99.099962" y="168.226417" style="fill-opacity: 0.3; stroke: #000000; stroke-opacity: 0.3"/>
    </g>
   </g>
   <g id="line2d_21">
    <path d="M 117.778245 110.638032 
L 99.099962 171.102241 
" clip-path="url(#pcc9ab9e543)" style="fill: none; stroke: #000000; stroke-opacity: 0.3; stroke-linecap: square"/>
    <g clip-path="url(#pcc9ab9e543)">
     <use xlink:href="#m448c0a0ab8" x="117.778245" y="110.638032" style="fill-opacity: 0.3; stroke: #000000; stroke-opacity: 0.3"/>
     <use xlink:href="#m448c0a0ab8" x="99.099962" y="171.102241" style="fill-opacity: 0.3; stroke: #000000; stroke-opacity: 0.3"/>
    </g>
   </g>
   <g id="line2d_22">
    <path d="M 117.778245 132.78188 
L 99.099962 169.286877 
" clip-path="url(#pcc9ab9e543)" style="fill: none; stroke: #000000; stroke-opacity: 0.3; stroke-linecap: square"/>
    <g clip-path="url(#pcc9ab9e543)">
     <use xlink:href="#m448c0a0ab8" x="117.778245" y="132.78188" style="fill-opacity: 0.3; stroke: #000000; stroke-opacity: 0.3"/>
     <use xlink:href="#m448c0a0ab8" x="99.099962" y="169.286877" style="fill-opacity: 0.3; stroke: #000000; stroke-opacity: 0.3"/>
    </g>
   </g>
   <g id="line2d_23">
    <path d="M 117.778245 109.415807 
L 99.099962 169.179034 
" clip-path="url(#pcc9ab9e543)" style="fill: none; stroke: #000000; stroke-opacity: 0.3; stroke-linecap: square"/>
    <g clip-path="url(#pcc9ab9e543)">
     <use xlink:href="#m448c0a0ab8" x="117.778245" y="109.415807" style="fill-opacity: 0.3; stroke: #000000; stroke-opacity: 0.3"/>
     <use xlink:href="#m448c0a0ab8" x="99.099962" y="169.179034" style="fill-opacity: 0.3; stroke: #000000; stroke-opacity: 0.3"/>
    </g>
   </g>
   <g id="line2d_24">
    <path d="M 117.778245 89.356931 
L 99.099962 169.466616 
" clip-path="url(#pcc9ab9e543)" style="fill: none; stroke: #000000; stroke-opacity: 0.3; stroke-linecap: square"/>
    <g clip-path="url(#pcc9ab9e543)">
     <use xlink:href="#m448c0a0ab8" x="117.778245" y="89.356931" style="fill-opacity: 0.3; stroke: #000000; stroke-opacity: 0.3"/>
     <use xlink:href="#m448c0a0ab8" x="99.099962" y="169.466616" style="fill-opacity: 0.3; stroke: #000000; stroke-opacity: 0.3"/>
    </g>
   </g>
   <g id="line2d_25">
    <path d="M 71.082538 161.216595 
L 52.404255 172.863684 
" clip-path="url(#pcc9ab9e543)" style="fill: none; stroke: #000000; stroke-opacity: 0.3; stroke-linecap: square"/>
    <g clip-path="url(#pcc9ab9e543)">
     <use xlink:href="#m448c0a0ab8" x="71.082538" y="161.216595" style="fill-opacity: 0.3; stroke: #000000; stroke-opacity: 0.3"/>
     <use xlink:href="#m448c0a0ab8" x="52.404255" y="172.863684" style="fill-opacity: 0.3; stroke: #000000; stroke-opacity: 0.3"/>
    </g>
   </g>
   <g id="line2d_26">
    <path d="M 71.082538 139.432225 
L 52.404255 160.911038 
" clip-path="url(#pcc9ab9e543)" style="fill: none; stroke: #000000; stroke-opacity: 0.3; stroke-linecap: square"/>
    <g clip-path="url(#pcc9ab9e543)">
     <use xlink:href="#m448c0a0ab8" x="71.082538" y="139.432225" style="fill-opacity: 0.3; stroke: #000000; stroke-opacity: 0.3"/>
     <use xlink:href="#m448c0a0ab8" x="52.404255" y="160.911038" style="fill-opacity: 0.3; stroke: #000000; stroke-opacity: 0.3"/>
    </g>
   </g>
   <g id="line2d_27">
    <path d="M 71.082538 155.608737 
L 52.404255 162.277055 
" clip-path="url(#pcc9ab9e543)" style="fill: none; stroke: #000000; stroke-opacity: 0.3; stroke-linecap: square"/>
    <g clip-path="url(#pcc9ab9e543)">
     <use xlink:href="#m448c0a0ab8" x="71.082538" y="155.608737" style="fill-opacity: 0.3; stroke: #000000; stroke-opacity: 0.3"/>
     <use xlink:href="#m448c0a0ab8" x="52.404255" y="162.277055" style="fill-opacity: 0.3; stroke: #000000; stroke-opacity: 0.3"/>
    </g>
   </g>
   <g id="line2d_28">
    <path d="M 71.082538 156.777041 
L 52.404255 154.42246 
" clip-path="url(#pcc9ab9e543)" style="fill: none; stroke: #000000; stroke-opacity: 0.3; stroke-linecap: square"/>
    <g clip-path="url(#pcc9ab9e543)">
     <use xlink:href="#m448c0a0ab8" x="71.082538" y="156.777041" style="fill-opacity: 0.3; stroke: #000000; stroke-opacity: 0.3"/>
     <use xlink:href="#m448c0a0ab8" x="52.404255" y="154.42246" style="fill-opacity: 0.3; stroke: #000000; stroke-opacity: 0.3"/>
    </g>
   </g>
   <g id="line2d_29">
    <path d="M 71.082538 97.121657 
L 52.404255 174.697022 
" clip-path="url(#pcc9ab9e543)" style="fill: none; stroke: #000000; stroke-opacity: 0.3; stroke-linecap: square"/>
    <g clip-path="url(#pcc9ab9e543)">
     <use xlink:href="#m448c0a0ab8" x="71.082538" y="97.121657" style="fill-opacity: 0.3; stroke: #000000; stroke-opacity: 0.3"/>
     <use xlink:href="#m448c0a0ab8" x="52.404255" y="174.697022" style="fill-opacity: 0.3; stroke: #000000; stroke-opacity: 0.3"/>
    </g>
   </g>
   <g id="line2d_30">
    <path d="M 71.082538 143.260666 
L 52.404255 163.966602 
" clip-path="url(#pcc9ab9e543)" style="fill: none; stroke: #000000; stroke-opacity: 0.3; stroke-linecap: square"/>
    <g clip-path="url(#pcc9ab9e543)">
     <use xlink:href="#m448c0a0ab8" x="71.082538" y="143.260666" style="fill-opacity: 0.3; stroke: #000000; stroke-opacity: 0.3"/>
     <use xlink:href="#m448c0a0ab8" x="52.404255" y="163.966602" style="fill-opacity: 0.3; stroke: #000000; stroke-opacity: 0.3"/>
    </g>
   </g>
   <g id="line2d_31">
    <path d="M 71.082538 114.178891 
L 52.404255 174.067935 
" clip-path="url(#pcc9ab9e543)" style="fill: none; stroke: #000000; stroke-opacity: 0.3; stroke-linecap: square"/>
    <g clip-path="url(#pcc9ab9e543)">
     <use xlink:href="#m448c0a0ab8" x="71.082538" y="114.178891" style="fill-opacity: 0.3; stroke: #000000; stroke-opacity: 0.3"/>
     <use xlink:href="#m448c0a0ab8" x="52.404255" y="174.067935" style="fill-opacity: 0.3; stroke: #000000; stroke-opacity: 0.3"/>
    </g>
   </g>
   <g id="line2d_32">
    <path d="M 71.082538 143.350535 
L 52.404255 160.785221 
" clip-path="url(#pcc9ab9e543)" style="fill: none; stroke: #000000; stroke-opacity: 0.3; stroke-linecap: square"/>
    <g clip-path="url(#pcc9ab9e543)">
     <use xlink:href="#m448c0a0ab8" x="71.082538" y="143.350535" style="fill-opacity: 0.3; stroke: #000000; stroke-opacity: 0.3"/>
     <use xlink:href="#m448c0a0ab8" x="52.404255" y="160.785221" style="fill-opacity: 0.3; stroke: #000000; stroke-opacity: 0.3"/>
    </g>
   </g>
   <g id="line2d_33">
    <path d="M 71.082538 126.293302 
L 52.404255 170.22152 
" clip-path="url(#pcc9ab9e543)" style="fill: none; stroke: #000000; stroke-opacity: 0.3; stroke-linecap: square"/>
    <g clip-path="url(#pcc9ab9e543)">
     <use xlink:href="#m448c0a0ab8" x="71.082538" y="126.293302" style="fill-opacity: 0.3; stroke: #000000; stroke-opacity: 0.3"/>
     <use xlink:href="#m448c0a0ab8" x="52.404255" y="170.22152" style="fill-opacity: 0.3; stroke: #000000; stroke-opacity: 0.3"/>
    </g>
   </g>
   <g id="line2d_34">
    <path d="M 71.082538 124.513885 
L 52.404255 170.922502 
" clip-path="url(#pcc9ab9e543)" style="fill: none; stroke: #000000; stroke-opacity: 0.3; stroke-linecap: square"/>
    <g clip-path="url(#pcc9ab9e543)">
     <use xlink:href="#m448c0a0ab8" x="71.082538" y="124.513885" style="fill-opacity: 0.3; stroke: #000000; stroke-opacity: 0.3"/>
     <use xlink:href="#m448c0a0ab8" x="52.404255" y="170.922502" style="fill-opacity: 0.3; stroke: #000000; stroke-opacity: 0.3"/>
    </g>
   </g>
   <g id="line2d_35">
    <path d="M 71.082538 149.875062 
L 52.404255 163.031959 
" clip-path="url(#pcc9ab9e543)" style="fill: none; stroke: #000000; stroke-opacity: 0.3; stroke-linecap: square"/>
    <g clip-path="url(#pcc9ab9e543)">
     <use xlink:href="#m448c0a0ab8" x="71.082538" y="149.875062" style="fill-opacity: 0.3; stroke: #000000; stroke-opacity: 0.3"/>
     <use xlink:href="#m448c0a0ab8" x="52.404255" y="163.031959" style="fill-opacity: 0.3; stroke: #000000; stroke-opacity: 0.3"/>
    </g>
   </g>
   <g id="line2d_36">
    <path d="M 71.082538 138.138104 
L 52.404255 167.920861 
" clip-path="url(#pcc9ab9e543)" style="fill: none; stroke: #000000; stroke-opacity: 0.3; stroke-linecap: square"/>
    <g clip-path="url(#pcc9ab9e543)">
     <use xlink:href="#m448c0a0ab8" x="71.082538" y="138.138104" style="fill-opacity: 0.3; stroke: #000000; stroke-opacity: 0.3"/>
     <use xlink:href="#m448c0a0ab8" x="52.404255" y="167.920861" style="fill-opacity: 0.3; stroke: #000000; stroke-opacity: 0.3"/>
    </g>
   </g>
   <g id="line2d_37">
    <path d="M 71.082538 116.030203 
L 52.404255 170.491129 
" clip-path="url(#pcc9ab9e543)" style="fill: none; stroke: #000000; stroke-opacity: 0.3; stroke-linecap: square"/>
    <g clip-path="url(#pcc9ab9e543)">
     <use xlink:href="#m448c0a0ab8" x="71.082538" y="116.030203" style="fill-opacity: 0.3; stroke: #000000; stroke-opacity: 0.3"/>
     <use xlink:href="#m448c0a0ab8" x="52.404255" y="170.491129" style="fill-opacity: 0.3; stroke: #000000; stroke-opacity: 0.3"/>
    </g>
   </g>
   <g id="line2d_38">
    <path d="M 71.082538 124.585781 
L 52.404255 174.2297 
" clip-path="url(#pcc9ab9e543)" style="fill: none; stroke: #000000; stroke-opacity: 0.3; stroke-linecap: square"/>
    <g clip-path="url(#pcc9ab9e543)">
     <use xlink:href="#m448c0a0ab8" x="71.082538" y="124.585781" style="fill-opacity: 0.3; stroke: #000000; stroke-opacity: 0.3"/>
     <use xlink:href="#m448c0a0ab8" x="52.404255" y="174.2297" style="fill-opacity: 0.3; stroke: #000000; stroke-opacity: 0.3"/>
    </g>
   </g>
   <g id="line2d_39">
    <path d="M 71.082538 117.108637 
L 52.404255 171.066294 
" clip-path="url(#pcc9ab9e543)" style="fill: none; stroke: #000000; stroke-opacity: 0.3; stroke-linecap: square"/>
    <g clip-path="url(#pcc9ab9e543)">
     <use xlink:href="#m448c0a0ab8" x="71.082538" y="117.108637" style="fill-opacity: 0.3; stroke: #000000; stroke-opacity: 0.3"/>
     <use xlink:href="#m448c0a0ab8" x="52.404255" y="171.066294" style="fill-opacity: 0.3; stroke: #000000; stroke-opacity: 0.3"/>
    </g>
   </g>
   <g id="line2d_40">
    <path d="M 99.099962 74.75673 
L 99.099962 70.197649 
L 117.778245 70.197649 
L 117.778245 74.75673 
" clip-path="url(#pcc9ab9e543)" style="fill: none; stroke: #000000; stroke-width: 0.5; stroke-linecap: square"/>
   </g>
   <g id="line2d_41">
    <path d="M 52.404255 74.75673 
L 52.404255 70.197649 
L 71.082538 70.197649 
L 71.082538 74.75673 
" clip-path="url(#pcc9ab9e543)" style="fill: none; stroke: #000000; stroke-width: 0.5; stroke-linecap: square"/>
   </g>
   <g id="line2d_42">
    <path d="M 52.404255 61.079489 
L 52.404255 56.520408 
L 99.099962 56.520408 
L 99.099962 61.079489 
" clip-path="url(#pcc9ab9e543)" style="fill: none; stroke: #000000; stroke-width: 0.5; stroke-linecap: square"/>
   </g>
   <g id="line2d_43">
    <path d="M 71.082538 47.402247 
L 71.082538 42.843167 
L 117.778245 42.843167 
L 117.778245 47.402247 
" clip-path="url(#pcc9ab9e543)" style="fill: none; stroke: #000000; stroke-width: 0.5; stroke-linecap: square"/>
   </g>
   <g id="patch_7">
    <path d="M 38.8625 175.0565 
L 38.8625 36.2325 
" style="fill: none; stroke: #000000; stroke-width: 0.8; stroke-linejoin: miter; stroke-linecap: square"/>
   </g>
   <g id="patch_8">
    <path d="M 38.8625 175.0565 
L 131.32 175.0565 
" style="fill: none; stroke: #000000; stroke-width: 0.8; stroke-linejoin: miter; stroke-linecap: square"/>
   </g>
   <g id="text_12">
    <text style="font: 8px 'Arial', sans-serif; text-anchor: middle" x="108.439104" y="68.607649" transform="rotate(-0 108.439104 68.607649)">****</text>
   </g>
   <g id="text_13">
    <text style="font: 8px 'Arial', sans-serif; text-anchor: middle" x="61.743396" y="68.607649" transform="rotate(-0 61.743396 68.607649)">***</text>
   </g>
   <g id="text_14">
    <text style="font: 8px 'Arial', sans-serif; text-anchor: middle" x="75.752109" y="54.930408" transform="rotate(-0 75.752109 54.930408)">ns</text>
   </g>
   <g id="text_15">
    <text style="font: 8px 'Arial', sans-serif; text-anchor: middle" x="94.430391" y="41.253167" transform="rotate(-0 94.430391 41.253167)">ns</text>
   </g>
   <g id="legend_1">
    <g id="patch_9">
     <path d="M 46.0625 16.12625 
L 62.0625 16.12625 
L 62.0625 10.52625 
L 46.0625 10.52625 
z
" style="fill: #721f81"/>
    </g>
    <g id="text_16">
     <text style="font: 8px 'Arial', sans-serif; text-anchor: start" x="68.4625" y="16.12625" transform="rotate(-0 68.4625 16.12625)">CS -</text>
    </g>
    <g id="patch_10">
     <path d="M 46.0625 27.4425 
L 62.0625 27.4425 
L 62.0625 21.8425 
L 46.0625 21.8425 
z
" style="fill: #f1605d"/>
    </g>
    <g id="text_17">
     <text style="font: 8px 'Arial', sans-serif; text-anchor: start" x="68.4625" y="27.4425" transform="rotate(-0 68.4625 27.4425)">CS+</text>
    </g>
   </g>
  </g>
  <g id="axes_2">
   <g id="patch_11">
    <path d="M 186.87375 175.0565 
L 279.33125 175.0565 
L 279.33125 36.2325 
L 186.87375 36.2325 
L 186.87375 175.0565 
z
" style="fill: none"/>
   </g>
   <g id="PolyCollection_1">
    <defs>
     <path id="m1108ea235d" d="M 210.294635 -29.550182 
L 209.681615 -29.550182 
L 209.606202 -30.531922 
L 209.518087 -31.513662 
L 209.416713 -32.495402 
L 209.3019 -33.477142 
L 209.173919 -34.458882 
L 209.033536 -35.440622 
L 208.882029 -36.422362 
L 208.721164 -37.404102 
L 208.553125 -38.385842 
L 208.38039 -39.367582 
L 208.20557 -40.349322 
L 208.031197 -41.331062 
L 207.859492 -42.312802 
L 207.692117 -43.294542 
L 207.529939 -44.276282 
L 207.372821 -45.258022 
L 207.219465 -46.239762 
L 207.067326 -47.221502 
L 206.912613 -48.203242 
L 206.75037 -49.184982 
L 206.574665 -50.166722 
L 206.378852 -51.148462 
L 206.155904 -52.130202 
L 205.8988 -53.111942 
L 205.600924 -54.093682 
L 205.25647 -55.075422 
L 204.860805 -56.057162 
L 204.410785 -57.038902 
L 203.904985 -58.020642 
L 203.343848 -59.002382 
L 202.729735 -59.984122 
L 202.066878 -60.965862 
L 201.36125 -61.947602 
L 200.620355 -62.929342 
L 199.85296 -63.911082 
L 199.06879 -64.892822 
L 198.278197 -65.874562 
L 197.491825 -66.856302 
L 196.720294 -67.838042 
L 195.973901 -68.819782 
L 195.262368 -69.801522 
L 194.59462 -70.783262 
L 193.978623 -71.765002 
L 193.42126 -72.746742 
L 192.928255 -73.728482 
L 192.504145 -74.710222 
L 192.152289 -75.691962 
L 191.87491 -76.673702 
L 191.673174 -77.655442 
L 191.54729 -78.637182 
L 191.496625 -79.618922 
L 191.519838 -80.600662 
L 191.615009 -81.582402 
L 191.779768 -82.564142 
L 192.011403 -83.545881 
L 192.30694 -84.527621 
L 192.663203 -85.509361 
L 193.076815 -86.491101 
L 193.544181 -87.472841 
L 194.06142 -88.454581 
L 194.624281 -89.436321 
L 195.228039 -90.418061 
L 195.867409 -91.399801 
L 196.536475 -92.381541 
L 197.228677 -93.363281 
L 197.936849 -94.345021 
L 198.653339 -95.326761 
L 199.3702 -96.308501 
L 200.079441 -97.290241 
L 200.773336 -98.271981 
L 201.444746 -99.253721 
L 202.087441 -100.235461 
L 202.696381 -101.217201 
L 203.267926 -102.198941 
L 203.799961 -103.180681 
L 204.291908 -104.162421 
L 204.744635 -105.144161 
L 205.160268 -106.125901 
L 205.541916 -107.107641 
L 205.89335 -108.089381 
L 206.218651 -109.071121 
L 206.521877 -110.052861 
L 206.806762 -111.034601 
L 207.076486 -112.016341 
L 207.333512 -112.998081 
L 207.579518 -113.979821 
L 207.815402 -114.961561 
L 208.041364 -115.943301 
L 208.257031 -116.925041 
L 208.461632 -117.906781 
L 208.654169 -118.888521 
L 208.833595 -119.870261 
L 208.998965 -120.852001 
L 209.149557 -121.833741 
L 209.284949 -122.815481 
L 209.405068 -123.797221 
L 209.510189 -124.778961 
L 209.600913 -125.760701 
L 209.678117 -126.742441 
L 210.298133 -126.742441 
L 210.298133 -126.742441 
L 210.375337 -125.760701 
L 210.466061 -124.778961 
L 210.571182 -123.797221 
L 210.691301 -122.815481 
L 210.826693 -121.833741 
L 210.977285 -120.852001 
L 211.142655 -119.870261 
L 211.322081 -118.888521 
L 211.514618 -117.906781 
L 211.719219 -116.925041 
L 211.934886 -115.943301 
L 212.160848 -114.961561 
L 212.396732 -113.979821 
L 212.642738 -112.998081 
L 212.899764 -112.016341 
L 213.169488 -111.034601 
L 213.454373 -110.052861 
L 213.757599 -109.071121 
L 214.0829 -108.089381 
L 214.434334 -107.107641 
L 214.815982 -106.125901 
L 215.231615 -105.144161 
L 215.684342 -104.162421 
L 216.176289 -103.180681 
L 216.708324 -102.198941 
L 217.279869 -101.217201 
L 217.888809 -100.235461 
L 218.531504 -99.253721 
L 219.202914 -98.271981 
L 219.896809 -97.290241 
L 220.60605 -96.308501 
L 221.322911 -95.326761 
L 222.039401 -94.345021 
L 222.747573 -93.363281 
L 223.439775 -92.381541 
L 224.108841 -91.399801 
L 224.748211 -90.418061 
L 225.351969 -89.436321 
L 225.91483 -88.454581 
L 226.432069 -87.472841 
L 226.899435 -86.491101 
L 227.313047 -85.509361 
L 227.66931 -84.527621 
L 227.964847 -83.545881 
L 228.196482 -82.564142 
L 228.361241 -81.582402 
L 228.456412 -80.600662 
L 228.479625 -79.618922 
L 228.42896 -78.637182 
L 228.303076 -77.655442 
L 228.10134 -76.673702 
L 227.823961 -75.691962 
L 227.472105 -74.710222 
L 227.047995 -73.728482 
L 226.55499 -72.746742 
L 225.997627 -71.765002 
L 225.38163 -70.783262 
L 224.713882 -69.801522 
L 224.002349 -68.819782 
L 223.255956 -67.838042 
L 222.484425 -66.856302 
L 221.698053 -65.874562 
L 220.90746 -64.892822 
L 220.12329 -63.911082 
L 219.355895 -62.929342 
L 218.615 -61.947602 
L 217.909372 -60.965862 
L 217.246515 -59.984122 
L 216.632402 -59.002382 
L 216.071265 -58.020642 
L 215.565465 -57.038902 
L 215.115445 -56.057162 
L 214.71978 -55.075422 
L 214.375326 -54.093682 
L 214.07745 -53.111942 
L 213.820346 -52.130202 
L 213.597398 -51.148462 
L 213.401585 -50.166722 
L 213.22588 -49.184982 
L 213.063637 -48.203242 
L 212.908924 -47.221502 
L 212.756785 -46.239762 
L 212.603429 -45.258022 
L 212.446311 -44.276282 
L 212.284133 -43.294542 
L 212.116758 -42.312802 
L 211.945053 -41.331062 
L 211.77068 -40.349322 
L 211.59586 -39.367582 
L 211.423125 -38.385842 
L 211.255086 -37.404102 
L 211.094221 -36.422362 
L 210.942714 -35.440622 
L 210.802331 -34.458882 
L 210.67435 -33.477142 
L 210.559537 -32.495402 
L 210.458163 -31.513662 
L 210.370048 -30.531922 
L 210.294635 -29.550182 
z
"/>
    </defs>
    <g clip-path="url(#p78566f6ca2)">
     <use xlink:href="#m1108ea235d" x="0" y="198.2965" style="fill: #d4d4d4"/>
    </g>
   </g>
   <g id="PolyCollection_2">
    <defs>
     <path id="m3d8fe285bd" d="M 256.53833 -38.020395 
L 255.89542 -38.020395 
L 255.817102 -39.209621 
L 255.723802 -40.398848 
L 255.613667 -41.588074 
L 255.484828 -42.777301 
L 255.335449 -43.966527 
L 255.163774 -45.155754 
L 254.968179 -46.34498 
L 254.747226 -47.534207 
L 254.499715 -48.723433 
L 254.224735 -49.91266 
L 253.921706 -51.101886 
L 253.590421 -52.291113 
L 253.231078 -53.480339 
L 252.844303 -54.669566 
L 252.431166 -55.858792 
L 251.993194 -57.048019 
L 251.532368 -58.237245 
L 251.051121 -59.426472 
L 250.552327 -60.615698 
L 250.039281 -61.804925 
L 249.515679 -62.994151 
L 248.985581 -64.183378 
L 248.453378 -65.372604 
L 247.923733 -66.561831 
L 247.401525 -67.751057 
L 246.891771 -68.940284 
L 246.399533 -70.12951 
L 245.929818 -71.318737 
L 245.487461 -72.507963 
L 245.077001 -73.69719 
L 244.702554 -74.886416 
L 244.367688 -76.075643 
L 244.075308 -77.264869 
L 243.827566 -78.454096 
L 243.625788 -79.643322 
L 243.470443 -80.832549 
L 243.361147 -82.021775 
L 243.296707 -83.211002 
L 243.275207 -84.400228 
L 243.294124 -85.589455 
L 243.350484 -86.778681 
L 243.441016 -87.967908 
L 243.562333 -89.157134 
L 243.711083 -90.346361 
L 243.884101 -91.535587 
L 244.078513 -92.724814 
L 244.291809 -93.91404 
L 244.521873 -95.103267 
L 244.766967 -96.292493 
L 245.025677 -97.48172 
L 245.29683 -98.670946 
L 245.579387 -99.860173 
L 245.872332 -101.049399 
L 246.174561 -102.238626 
L 246.484799 -103.427852 
L 246.801529 -104.617079 
L 247.12297 -105.806305 
L 247.447088 -106.995532 
L 247.771638 -108.184758 
L 248.094248 -109.373985 
L 248.412523 -110.563211 
L 248.724166 -111.752438 
L 249.027105 -112.941664 
L 249.319606 -114.130891 
L 249.600379 -115.320117 
L 249.868647 -116.509344 
L 250.124188 -117.69857 
L 250.367342 -118.887797 
L 250.598974 -120.077023 
L 250.820412 -121.26625 
L 251.033353 -122.455476 
L 251.239741 -123.644703 
L 251.441642 -124.833929 
L 251.641108 -126.023156 
L 251.840049 -127.212382 
L 252.040115 -128.401609 
L 252.242601 -129.590835 
L 252.448379 -130.780062 
L 252.65785 -131.969288 
L 252.870936 -133.158515 
L 253.087095 -134.347741 
L 253.305361 -135.536968 
L 253.524415 -136.726194 
L 253.742658 -137.915421 
L 253.95831 -139.104647 
L 254.169503 -140.293874 
L 254.374375 -141.4831 
L 254.57116 -142.672327 
L 254.758266 -143.861553 
L 254.934332 -145.05078 
L 255.098277 -146.240006 
L 255.249323 -147.429233 
L 255.387008 -148.618459 
L 255.511178 -149.807686 
L 255.621964 -150.996912 
L 255.719754 -152.186139 
L 255.805151 -153.375365 
L 255.878931 -154.564592 
L 255.941996 -155.753818 
L 256.491754 -155.753818 
L 256.491754 -155.753818 
L 256.554819 -154.564592 
L 256.628599 -153.375365 
L 256.713996 -152.186139 
L 256.811786 -150.996912 
L 256.922572 -149.807686 
L 257.046742 -148.618459 
L 257.184427 -147.429233 
L 257.335473 -146.240006 
L 257.499418 -145.05078 
L 257.675484 -143.861553 
L 257.86259 -142.672327 
L 258.059375 -141.4831 
L 258.264247 -140.293874 
L 258.47544 -139.104647 
L 258.691092 -137.915421 
L 258.909335 -136.726194 
L 259.128389 -135.536968 
L 259.346655 -134.347741 
L 259.562814 -133.158515 
L 259.7759 -131.969288 
L 259.985371 -130.780062 
L 260.191149 -129.590835 
L 260.393635 -128.401609 
L 260.593701 -127.212382 
L 260.792642 -126.023156 
L 260.992108 -124.833929 
L 261.194009 -123.644703 
L 261.400397 -122.455476 
L 261.613338 -121.26625 
L 261.834776 -120.077023 
L 262.066408 -118.887797 
L 262.309562 -117.69857 
L 262.565103 -116.509344 
L 262.833371 -115.320117 
L 263.114144 -114.130891 
L 263.406645 -112.941664 
L 263.709584 -111.752438 
L 264.021227 -110.563211 
L 264.339502 -109.373985 
L 264.662112 -108.184758 
L 264.986662 -106.995532 
L 265.31078 -105.806305 
L 265.632221 -104.617079 
L 265.948951 -103.427852 
L 266.259189 -102.238626 
L 266.561418 -101.049399 
L 266.854363 -99.860173 
L 267.13692 -98.670946 
L 267.408073 -97.48172 
L 267.666783 -96.292493 
L 267.911877 -95.103267 
L 268.141941 -93.91404 
L 268.355237 -92.724814 
L 268.549649 -91.535587 
L 268.722667 -90.346361 
L 268.871417 -89.157134 
L 268.992734 -87.967908 
L 269.083266 -86.778681 
L 269.139626 -85.589455 
L 269.158543 -84.400228 
L 269.137043 -83.211002 
L 269.072603 -82.021775 
L 268.963307 -80.832549 
L 268.807962 -79.643322 
L 268.606184 -78.454096 
L 268.358442 -77.264869 
L 268.066062 -76.075643 
L 267.731196 -74.886416 
L 267.356749 -73.69719 
L 266.946289 -72.507963 
L 266.503932 -71.318737 
L 266.034217 -70.12951 
L 265.541979 -68.940284 
L 265.032225 -67.751057 
L 264.510017 -66.561831 
L 263.980372 -65.372604 
L 263.448169 -64.183378 
L 262.918071 -62.994151 
L 262.394469 -61.804925 
L 261.881423 -60.615698 
L 261.382629 -59.426472 
L 260.901382 -58.237245 
L 260.440556 -57.048019 
L 260.002584 -55.858792 
L 259.589447 -54.669566 
L 259.202672 -53.480339 
L 258.843329 -52.291113 
L 258.512044 -51.101886 
L 258.209015 -49.91266 
L 257.934035 -48.723433 
L 257.686524 -47.534207 
L 257.465571 -46.34498 
L 257.269976 -45.155754 
L 257.098301 -43.966527 
L 256.948922 -42.777301 
L 256.820083 -41.588074 
L 256.709948 -40.398848 
L 256.616648 -39.209621 
L 256.53833 -38.020395 
z
"/>
    </defs>
    <g clip-path="url(#p78566f6ca2)">
     <use xlink:href="#m3d8fe285bd" x="0" y="198.2965" style="fill: #06e1e9"/>
    </g>
   </g>
   <g id="matplotlib.axis_3">
    <g id="xtick_3">
     <g id="line2d_44">
      <g>
       <use xlink:href="#mf62bc57216" x="209.988125" y="175.0565" style="stroke: #000000; stroke-width: 0.8"/>
      </g>
     </g>
     <g id="text_18">
      <!-- $AgRP^{TdTomato}$ -->
      <g transform="translate(184.948125 189.4165)">
       <text>
        <tspan style="font: oblique 8px 'DejaVu Sans'" x="0 5.472656 10.550781 16.109375" y="-0.6828125000000007">AgRP</tspan>
        <tspan style="font: oblique 5.6px 'DejaVu Sans'" x="21.494323 24.915026 28.469714 31.890417 35.316589 40.771667 44.203307 46.39901" y="-3.7453125000000007">TdTomato</tspan>
       </text>
      </g>
     </g>
    </g>
    <g id="xtick_4">
     <g id="line2d_45">
      <g>
       <use xlink:href="#mf62bc57216" x="256.216875" y="175.0565" style="stroke: #000000; stroke-width: 0.8"/>
      </g>
     </g>
     <g id="text_19">
      <!-- $AgRP^{Chr2}$ -->
      <g transform="translate(238.696875 189.4165)">
       <text>
        <tspan style="font: oblique 8px 'DejaVu Sans'" x="0 5.472656 10.550781 16.109375" y="-0.6828125000000007">AgRP</tspan>
        <tspan style="font: oblique 5.6px 'DejaVu Sans'" x="21.494323 25.404479 28.953698" y="-3.7453125000000007">Chr</tspan>
        <tspan style="font: 5.6px 'DejaVu Sans'" x="31.256042" y="-3.7453125000000007">2</tspan>
       </text>
      </g>
     </g>
    </g>
   </g>
   <g id="matplotlib.axis_4">
    <g id="ytick_9">
     <g id="line2d_46">
      <g>
       <use xlink:href="#m6c2954295f" x="186.87375" y="167.343898" style="stroke: #000000; stroke-width: 0.8"/>
      </g>
     </g>
     <g id="text_20">
      <text style="font: 6px 'Arial', sans-serif; text-anchor: end" x="179.87375" y="169.491242" transform="rotate(-0 179.87375 169.491242)">0</text>
     </g>
    </g>
    <g id="ytick_10">
     <g id="line2d_47">
      <g>
       <use xlink:href="#m6c2954295f" x="186.87375" y="149.358491" style="stroke: #000000; stroke-width: 0.8"/>
      </g>
     </g>
     <g id="text_21">
      <text style="font: 6px 'Arial', sans-serif; text-anchor: end" x="179.87375" y="151.505834" transform="rotate(-0 179.87375 151.505834)">1000</text>
     </g>
    </g>
    <g id="ytick_11">
     <g id="line2d_48">
      <g>
       <use xlink:href="#m6c2954295f" x="186.87375" y="131.373083" style="stroke: #000000; stroke-width: 0.8"/>
      </g>
     </g>
     <g id="text_22">
      <text style="font: 6px 'Arial', sans-serif; text-anchor: end" x="179.87375" y="133.520427" transform="rotate(-0 179.87375 133.520427)">2000</text>
     </g>
    </g>
    <g id="ytick_12">
     <g id="line2d_49">
      <g>
       <use xlink:href="#m6c2954295f" x="186.87375" y="113.387675" style="stroke: #000000; stroke-width: 0.8"/>
      </g>
     </g>
     <g id="text_23">
      <text style="font: 6px 'Arial', sans-serif; text-anchor: end" x="179.87375" y="115.535019" transform="rotate(-0 179.87375 115.535019)">3000</text>
     </g>
    </g>
    <g id="ytick_13">
     <g id="line2d_50">
      <g>
       <use xlink:href="#m6c2954295f" x="186.87375" y="95.402267" style="stroke: #000000; stroke-width: 0.8"/>
      </g>
     </g>
     <g id="text_24">
      <text style="font: 6px 'Arial', sans-serif; text-anchor: end" x="179.87375" y="97.549611" transform="rotate(-0 179.87375 97.549611)">4000</text>
     </g>
    </g>
    <g id="ytick_14">
     <g id="line2d_51">
      <g>
       <use xlink:href="#m6c2954295f" x="186.87375" y="77.41686" style="stroke: #000000; stroke-width: 0.8"/>
      </g>
     </g>
     <g id="text_25">
      <text style="font: 6px 'Arial', sans-serif; text-anchor: end" x="179.87375" y="79.564204" transform="rotate(-0 179.87375 79.564204)">5000</text>
     </g>
    </g>
    <g id="ytick_15">
     <g id="line2d_52">
      <g>
       <use xlink:href="#m6c2954295f" x="186.87375" y="59.431452" style="stroke: #000000; stroke-width: 0.8"/>
      </g>
     </g>
     <g id="text_26">
      <text style="font: 6px 'Arial', sans-serif; text-anchor: end" x="179.87375" y="61.578796" transform="rotate(-0 179.87375 61.578796)">6000</text>
     </g>
    </g>
    <g id="ytick_16">
     <g id="line2d_53">
      <g>
       <use xlink:href="#m6c2954295f" x="186.87375" y="41.446044" style="stroke: #000000; stroke-width: 0.8"/>
      </g>
     </g>
     <g id="text_27">
      <text style="font: 6px 'Arial', sans-serif; text-anchor: end" x="179.87375" y="43.593388" transform="rotate(-0 179.87375 43.593388)">7000</text>
     </g>
    </g>
    <g id="text_28">
     <text style="font: 8px 'Arial', sans-serif; text-anchor: middle" x="160.84375" y="105.6445" transform="rotate(-90 160.84375 105.6445)">Cummulative Testing Licks</text>
    </g>
   </g>
   <g id="line2d_54">
    <path d="M 209.988125 151.300915 
L 209.988125 88.999462 
" clip-path="url(#p78566f6ca2)" style="fill: none"/>
   </g>
   <g id="line2d_55">
    <path d="M 209.988125 126.418103 
L 209.988125 109.035207 
" clip-path="url(#p78566f6ca2)" style="fill: none"/>
   </g>
   <g id="line2d_56">
    <path d="M 256.216875 136.516909 
L 256.216875 66.301878 
" clip-path="url(#p78566f6ca2)" style="fill: none"/>
   </g>
   <g id="line2d_57">
    <path d="M 256.216875 118.504524 
L 256.216875 96.350998 
" clip-path="url(#p78566f6ca2)" style="fill: none"/>
   </g>
   <g id="line2d_58">
    <path d="M 209.988125 58.218516 
L 209.988125 48.114314 
L 256.216875 48.114314 
L 256.216875 58.218516 
" clip-path="url(#p78566f6ca2)" style="fill: none; stroke: #000000; stroke-width: 0.5; stroke-linecap: square"/>
   </g>
   <g id="patch_12">
    <path d="M 186.87375 175.0565 
L 186.87375 36.2325 
" style="fill: none; stroke: #000000; stroke-width: 0.8; stroke-linejoin: miter; stroke-linecap: square"/>
   </g>
   <g id="patch_13">
    <path d="M 186.87375 175.0565 
L 279.33125 175.0565 
" style="fill: none; stroke: #000000; stroke-width: 0.8; stroke-linejoin: miter; stroke-linecap: square"/>
   </g>
   <g id="PathCollection_1">
    <defs>
     <path id="m4ce301a84f" d="M 0 1 
C 0.265203 1 0.51958 0.894634 0.707107 0.707107 
C 0.894634 0.51958 1 0.265203 1 0 
C 1 -0.265203 0.894634 -0.51958 0.707107 -0.707107 
C 0.51958 -0.894634 0.265203 -1 0 -1 
C -0.265203 -1 -0.51958 -0.894634 -0.707107 -0.707107 
C -0.894634 -0.51958 -1 -0.265203 -1 0 
C -1 0.265203 -0.894634 0.51958 -0.707107 0.707107 
C -0.51958 0.894634 -0.265203 1 0 1 
z
"/>
    </defs>
    <g clip-path="url(#p78566f6ca2)">
     <use xlink:href="#m4ce301a84f" x="209.988125" y="151.300915" style="fill-opacity: 0.3"/>
     <use xlink:href="#m4ce301a84f" x="209.988125" y="117.542304" style="fill-opacity: 0.3"/>
     <use xlink:href="#m4ce301a84f" x="209.988125" y="135.096062" style="fill-opacity: 0.3"/>
     <use xlink:href="#m4ce301a84f" x="208.89661" y="128.405491" style="fill-opacity: 0.3"/>
     <use xlink:href="#m4ce301a84f" x="209.988125" y="88.999462" style="fill-opacity: 0.3"/>
     <use xlink:href="#m4ce301a84f" x="209.988125" y="124.430716" style="fill-opacity: 0.3"/>
     <use xlink:href="#m4ce301a84f" x="209.988125" y="105.438125" style="fill-opacity: 0.3"/>
     <use xlink:href="#m4ce301a84f" x="209.988125" y="121.337225" style="fill-opacity: 0.3"/>
     <use xlink:href="#m4ce301a84f" x="209.988125" y="113.711413" style="fill-opacity: 0.3"/>
     <use xlink:href="#m4ce301a84f" x="208.220039" y="112.632288" style="fill-opacity: 0.3"/>
     <use xlink:href="#m4ce301a84f" x="209.988125" y="130.114104" style="fill-opacity: 0.3"/>
     <use xlink:href="#m4ce301a84f" x="208.284237" y="123.261664" style="fill-opacity: 0.3"/>
     <use xlink:href="#m4ce301a84f" x="211.047978" y="103.711526" style="fill-opacity: 0.3"/>
     <use xlink:href="#m4ce301a84f" x="208.634116" y="116.013545" style="fill-opacity: 0.3"/>
     <use xlink:href="#m4ce301a84f" x="207.889484" y="105.366183" style="fill-opacity: 0.3"/>
    </g>
   </g>
   <g id="PathCollection_2">
    <g clip-path="url(#p78566f6ca2)">
     <use xlink:href="#m4ce301a84f" x="256.216875" y="116.211384" style="fill-opacity: 0.3"/>
     <use xlink:href="#m4ce301a84f" x="256.216875" y="136.516909" style="fill-opacity: 0.3"/>
     <use xlink:href="#m4ce301a84f" x="254.322588" y="98.064108" style="fill-opacity: 0.3"/>
     <use xlink:href="#m4ce301a84f" x="256.908353" y="114.322916" style="fill-opacity: 0.3"/>
     <use xlink:href="#m4ce301a84f" x="256.216875" y="88.010265" style="fill-opacity: 0.3"/>
     <use xlink:href="#m4ce301a84f" x="256.216875" y="125.977461" style="fill-opacity: 0.3"/>
     <use xlink:href="#m4ce301a84f" x="256.216875" y="128.099739" style="fill-opacity: 0.3"/>
     <use xlink:href="#m4ce301a84f" x="256.216875" y="108.333776" style="fill-opacity: 0.3"/>
     <use xlink:href="#m4ce301a84f" x="256.216875" y="66.301878" style="fill-opacity: 0.3"/>
     <use xlink:href="#m4ce301a84f" x="254.512987" y="115.042333" style="fill-opacity: 0.3"/>
     <use xlink:href="#m4ce301a84f" x="256.216875" y="98.927407" style="fill-opacity: 0.3"/>
     <use xlink:href="#m4ce301a84f" x="256.216875" y="119.268903" style="fill-opacity: 0.3"/>
     <use xlink:href="#m4ce301a84f" x="256.216875" y="95.779961" style="fill-opacity: 0.3"/>
     <use xlink:href="#m4ce301a84f" x="256.216875" y="75.996013" style="fill-opacity: 0.3"/>
    </g>
   </g>
   <g id="PathCollection_3">
    <defs>
     <path id="m6c58c6b54a" d="M 0 0 
C 0 0 0 0 0 0 
C 0 0 0 0 0 0 
C 0 0 0 0 0 0 
C 0 0 0 0 0 0 
C 0 0 0 0 0 0 
C 0 0 0 0 0 0 
C 0 0 0 0 0 0 
C 0 0 0 0 0 0 
z
" style="stroke: #484848"/>
    </defs>
    <g clip-path="url(#p78566f6ca2)">
     <use xlink:href="#m6c58c6b54a" x="209.988125" y="117.542304" style="fill: #ffffff; stroke: #484848"/>
    </g>
   </g>
   <g id="PathCollection_4">
    <g clip-path="url(#p78566f6ca2)">
     <use xlink:href="#m6c58c6b54a" x="256.216875" y="111.328346" style="fill: #ffffff; stroke: #484848"/>
    </g>
   </g>
   <g id="text_29">
    <text style="font: 8px 'Arial', sans-serif; text-anchor: middle" x="233.1025" y="46.524314" transform="rotate(-0 233.1025 46.524314)">ns</text>
   </g>
  </g>
  <g id="axes_3">
   <g id="patch_14">
    <path d="M 334.885 175.0565 
L 427.3425 175.0565 
L 427.3425 36.2325 
L 334.885 36.2325 
L 334.885 175.0565 
z
" style="fill: none"/>
   </g>
   <g id="PolyCollection_3">
    <defs>
     <path id="ma466a90bd8" d="M 358.953982 -75.969609 
L 357.044768 -75.969609 
L 357.010505 -76.46102 
L 356.975572 -76.952431 
L 356.939855 -77.443843 
L 356.903231 -77.935254 
L 356.86557 -78.426666 
L 356.826741 -78.918077 
L 356.786611 -79.409489 
L 356.745051 -79.9009 
L 356.701937 -80.392311 
L 356.657155 -80.883723 
L 356.610605 -81.375134 
L 356.562201 -81.866546 
L 356.511877 -82.357957 
L 356.459589 -82.849368 
L 356.405318 -83.34078 
L 356.349071 -83.832191 
L 356.290883 -84.323603 
L 356.230821 -84.815014 
L 356.168982 -85.306425 
L 356.105491 -85.797837 
L 356.040508 -86.289248 
L 355.974219 -86.78066 
L 355.906838 -87.272071 
L 355.838606 -87.763483 
L 355.769785 -88.254894 
L 355.700657 -88.746305 
L 355.631519 -89.237717 
L 355.562677 -89.729128 
L 355.494445 -90.22054 
L 355.427135 -90.711951 
L 355.361056 -91.203362 
L 355.296504 -91.694774 
L 355.233761 -92.186185 
L 355.173085 -92.677597 
L 355.114708 -93.169008 
L 355.058829 -93.66042 
L 355.005611 -94.151831 
L 354.955173 -94.643242 
L 354.907593 -95.134654 
L 354.862899 -95.626065 
L 354.821071 -96.117477 
L 354.782038 -96.608888 
L 354.745679 -97.100299 
L 354.711822 -97.591711 
L 354.680248 -98.083122 
L 354.650694 -98.574534 
L 354.622855 -99.065945 
L 354.59639 -99.557356 
L 354.570925 -100.048768 
L 354.546065 -100.540179 
L 354.521396 -101.031591 
L 354.496493 -101.523002 
L 354.470932 -102.014414 
L 354.444294 -102.505825 
L 354.416174 -102.997236 
L 354.386193 -103.488648 
L 354.354002 -103.980059 
L 354.319292 -104.471471 
L 354.281803 -104.962882 
L 354.241327 -105.454293 
L 354.197716 -105.945705 
L 354.150889 -106.437116 
L 354.100834 -106.928528 
L 354.047609 -107.419939 
L 353.991349 -107.911351 
L 353.932265 -108.402762 
L 353.87064 -108.894173 
L 353.806832 -109.385585 
L 353.741267 -109.876996 
L 353.674439 -110.368408 
L 353.606901 -110.859819 
L 353.539262 -111.35123 
L 353.472175 -111.842642 
L 353.406337 -112.334053 
L 353.342469 -112.825465 
L 353.281318 -113.316876 
L 353.223638 -113.808287 
L 353.170187 -114.299699 
L 353.121711 -114.79111 
L 353.078938 -115.282522 
L 353.042565 -115.773933 
L 353.01325 -116.265345 
L 352.991604 -116.756756 
L 352.978179 -117.248167 
L 352.973463 -117.739579 
L 352.977873 -118.23099 
L 352.991747 -118.722402 
L 353.015341 -119.213813 
L 353.048827 -119.705224 
L 353.092286 -120.196636 
L 353.14571 -120.688047 
L 353.209003 -121.179459 
L 353.281978 -121.67087 
L 353.364363 -122.162282 
L 353.455805 -122.653693 
L 353.555871 -123.145104 
L 353.664057 -123.636516 
L 353.779793 -124.127927 
L 353.902453 -124.619339 
L 362.096297 -124.619339 
L 362.096297 -124.619339 
L 362.218957 -124.127927 
L 362.334693 -123.636516 
L 362.442879 -123.145104 
L 362.542945 -122.653693 
L 362.634387 -122.162282 
L 362.716772 -121.67087 
L 362.789747 -121.179459 
L 362.85304 -120.688047 
L 362.906464 -120.196636 
L 362.949923 -119.705224 
L 362.983409 -119.213813 
L 363.007003 -118.722402 
L 363.020877 -118.23099 
L 363.025287 -117.739579 
L 363.020571 -117.248167 
L 363.007146 -116.756756 
L 362.9855 -116.265345 
L 362.956185 -115.773933 
L 362.919812 -115.282522 
L 362.877039 -114.79111 
L 362.828563 -114.299699 
L 362.775112 -113.808287 
L 362.717432 -113.316876 
L 362.656281 -112.825465 
L 362.592413 -112.334053 
L 362.526575 -111.842642 
L 362.459488 -111.35123 
L 362.391849 -110.859819 
L 362.324311 -110.368408 
L 362.257483 -109.876996 
L 362.191918 -109.385585 
L 362.12811 -108.894173 
L 362.066485 -108.402762 
L 362.007401 -107.911351 
L 361.951141 -107.419939 
L 361.897916 -106.928528 
L 361.847861 -106.437116 
L 361.801034 -105.945705 
L 361.757423 -105.454293 
L 361.716947 -104.962882 
L 361.679458 -104.471471 
L 361.644748 -103.980059 
L 361.612557 -103.488648 
L 361.582576 -102.997236 
L 361.554456 -102.505825 
L 361.527818 -102.014414 
L 361.502257 -101.523002 
L 361.477354 -101.031591 
L 361.452685 -100.540179 
L 361.427825 -100.048768 
L 361.40236 -99.557356 
L 361.375895 -99.065945 
L 361.348056 -98.574534 
L 361.318502 -98.083122 
L 361.286928 -97.591711 
L 361.253071 -97.100299 
L 361.216712 -96.608888 
L 361.177679 -96.117477 
L 361.135851 -95.626065 
L 361.091157 -95.134654 
L 361.043577 -94.643242 
L 360.993139 -94.151831 
L 360.939921 -93.66042 
L 360.884042 -93.169008 
L 360.825665 -92.677597 
L 360.764989 -92.186185 
L 360.702246 -91.694774 
L 360.637694 -91.203362 
L 360.571615 -90.711951 
L 360.504305 -90.22054 
L 360.436073 -89.729128 
L 360.367231 -89.237717 
L 360.298093 -88.746305 
L 360.228965 -88.254894 
L 360.160144 -87.763483 
L 360.091912 -87.272071 
L 360.024531 -86.78066 
L 359.958242 -86.289248 
L 359.893259 -85.797837 
L 359.829768 -85.306425 
L 359.767929 -84.815014 
L 359.707867 -84.323603 
L 359.649679 -83.832191 
L 359.593432 -83.34078 
L 359.539161 -82.849368 
L 359.486873 -82.357957 
L 359.436549 -81.866546 
L 359.388145 -81.375134 
L 359.341595 -80.883723 
L 359.296813 -80.392311 
L 359.253699 -79.9009 
L 359.212139 -79.409489 
L 359.172009 -78.918077 
L 359.13318 -78.426666 
L 359.095519 -77.935254 
L 359.058895 -77.443843 
L 359.023178 -76.952431 
L 358.988245 -76.46102 
L 358.953982 -75.969609 
z
"/>
    </defs>
    <g clip-path="url(#pd4c56d4030)">
     <use xlink:href="#ma466a90bd8" x="0" y="198.2965" style="fill: #d4d4d4"/>
    </g>
   </g>
   <g id="PolyCollection_4">
    <defs>
     <path id="mce2b30b3c9" d="M 411.782003 -112.950475 
L 396.674247 -112.950475 
L 396.40838 -113.069017 
L 396.14642 -113.18756 
L 395.888921 -113.306102 
L 395.636374 -113.424645 
L 395.389211 -113.543187 
L 395.147792 -113.66173 
L 394.912407 -113.780272 
L 394.683272 -113.898815 
L 394.460523 -114.017357 
L 394.24422 -114.1359 
L 394.034342 -114.254442 
L 393.830789 -114.372984 
L 393.633384 -114.491527 
L 393.441871 -114.610069 
L 393.255922 -114.728612 
L 393.075138 -114.847154 
L 392.899054 -114.965697 
L 392.727145 -115.084239 
L 392.558833 -115.202782 
L 392.393492 -115.321324 
L 392.230458 -115.439867 
L 392.069042 -115.558409 
L 391.908531 -115.676952 
L 391.748211 -115.795494 
L 391.587368 -115.914037 
L 391.425306 -116.032579 
L 391.261362 -116.151121 
L 391.094912 -116.269664 
L 390.925392 -116.388206 
L 390.752307 -116.506749 
L 390.575243 -116.625291 
L 390.393883 -116.743834 
L 390.208012 -116.862376 
L 390.017535 -116.980919 
L 389.822476 -117.099461 
L 389.622993 -117.218004 
L 389.419376 -117.336546 
L 389.212052 -117.455089 
L 389.001584 -117.573631 
L 388.78867 -117.692174 
L 388.574132 -117.810716 
L 388.358915 -117.929259 
L 388.144071 -118.047801 
L 387.930746 -118.166343 
L 387.720168 -118.284886 
L 387.513627 -118.403428 
L 387.312455 -118.521971 
L 387.118008 -118.640513 
L 386.931646 -118.759056 
L 386.754707 -118.877598 
L 386.588489 -118.996141 
L 386.43423 -119.114683 
L 386.293088 -119.233226 
L 386.16612 -119.351768 
L 386.054274 -119.470311 
L 385.958366 -119.588853 
L 385.879078 -119.707396 
L 385.816948 -119.825938 
L 385.772361 -119.94448 
L 385.745557 -120.063023 
L 385.736625 -120.181565 
L 385.745515 -120.300108 
L 385.772041 -120.41865 
L 385.815898 -120.537193 
L 385.876669 -120.655735 
L 385.953848 -120.774278 
L 386.046848 -120.89282 
L 386.155029 -121.011363 
L 386.277706 -121.129905 
L 386.414178 -121.248448 
L 386.563736 -121.36699 
L 386.725685 -121.485533 
L 386.899358 -121.604075 
L 387.084129 -121.722617 
L 387.279423 -121.84116 
L 387.484726 -121.959702 
L 387.699588 -122.078245 
L 387.923631 -122.196787 
L 388.156542 -122.31533 
L 388.398077 -122.433872 
L 388.648052 -122.552415 
L 388.906335 -122.670957 
L 389.172842 -122.7895 
L 389.447521 -122.908042 
L 389.730339 -123.026585 
L 390.021275 -123.145127 
L 390.3203 -123.26367 
L 390.627367 -123.382212 
L 390.942397 -123.500755 
L 391.265268 -123.619297 
L 391.595801 -123.737839 
L 391.933754 -123.856382 
L 392.278814 -123.974924 
L 392.630586 -124.093467 
L 392.988596 -124.212009 
L 393.352286 -124.330552 
L 393.721015 -124.449094 
L 394.094061 -124.567637 
L 394.470627 -124.686179 
L 413.985623 -124.686179 
L 413.985623 -124.686179 
L 414.362189 -124.567637 
L 414.735235 -124.449094 
L 415.103964 -124.330552 
L 415.467654 -124.212009 
L 415.825664 -124.093467 
L 416.177436 -123.974924 
L 416.522496 -123.856382 
L 416.860449 -123.737839 
L 417.190982 -123.619297 
L 417.513853 -123.500755 
L 417.828883 -123.382212 
L 418.13595 -123.26367 
L 418.434975 -123.145127 
L 418.725911 -123.026585 
L 419.008729 -122.908042 
L 419.283408 -122.7895 
L 419.549915 -122.670957 
L 419.808198 -122.552415 
L 420.058173 -122.433872 
L 420.299708 -122.31533 
L 420.532619 -122.196787 
L 420.756662 -122.078245 
L 420.971524 -121.959702 
L 421.176827 -121.84116 
L 421.372121 -121.722617 
L 421.556892 -121.604075 
L 421.730565 -121.485533 
L 421.892514 -121.36699 
L 422.042072 -121.248448 
L 422.178544 -121.129905 
L 422.301221 -121.011363 
L 422.409402 -120.89282 
L 422.502402 -120.774278 
L 422.579581 -120.655735 
L 422.640352 -120.537193 
L 422.684209 -120.41865 
L 422.710735 -120.300108 
L 422.719625 -120.181565 
L 422.710693 -120.063023 
L 422.683889 -119.94448 
L 422.639302 -119.825938 
L 422.577172 -119.707396 
L 422.497884 -119.588853 
L 422.401976 -119.470311 
L 422.29013 -119.351768 
L 422.163162 -119.233226 
L 422.02202 -119.114683 
L 421.867761 -118.996141 
L 421.701543 -118.877598 
L 421.524604 -118.759056 
L 421.338242 -118.640513 
L 421.143795 -118.521971 
L 420.942623 -118.403428 
L 420.736082 -118.284886 
L 420.525504 -118.166343 
L 420.312179 -118.047801 
L 420.097335 -117.929259 
L 419.882118 -117.810716 
L 419.66758 -117.692174 
L 419.454666 -117.573631 
L 419.244198 -117.455089 
L 419.036874 -117.336546 
L 418.833257 -117.218004 
L 418.633774 -117.099461 
L 418.438715 -116.980919 
L 418.248238 -116.862376 
L 418.062367 -116.743834 
L 417.881007 -116.625291 
L 417.703943 -116.506749 
L 417.530858 -116.388206 
L 417.361338 -116.269664 
L 417.194888 -116.151121 
L 417.030944 -116.032579 
L 416.868882 -115.914037 
L 416.708039 -115.795494 
L 416.547719 -115.676952 
L 416.387208 -115.558409 
L 416.225792 -115.439867 
L 416.062758 -115.321324 
L 415.897417 -115.202782 
L 415.729105 -115.084239 
L 415.557196 -114.965697 
L 415.381112 -114.847154 
L 415.200328 -114.728612 
L 415.014379 -114.610069 
L 414.822866 -114.491527 
L 414.625461 -114.372984 
L 414.421908 -114.254442 
L 414.21203 -114.1359 
L 413.995727 -114.017357 
L 413.772978 -113.898815 
L 413.543843 -113.780272 
L 413.308458 -113.66173 
L 413.067039 -113.543187 
L 412.819876 -113.424645 
L 412.567329 -113.306102 
L 412.30983 -113.18756 
L 412.04787 -113.069017 
L 411.782003 -112.950475 
z
"/>
    </defs>
    <g clip-path="url(#pd4c56d4030)">
     <use xlink:href="#mce2b30b3c9" x="0" y="198.2965" style="fill: #06e1e9"/>
    </g>
   </g>
   <g id="matplotlib.axis_5">
    <g id="xtick_5">
     <g id="line2d_59">
      <g>
       <use xlink:href="#mf62bc57216" x="357.999375" y="175.0565" style="stroke: #000000; stroke-width: 0.8"/>
      </g>
     </g>
     <g id="text_30">
      <!-- $AgRP^{TdTomato}$ -->
      <g transform="translate(332.959375 189.4165)">
       <text>
        <tspan style="font: oblique 8px 'DejaVu Sans'" x="0 5.472656 10.550781 16.109375" y="-0.6828125000000007">AgRP</tspan>
        <tspan style="font: oblique 5.6px 'DejaVu Sans'" x="21.494323 24.915026 28.469714 31.890417 35.316589 40.771667 44.203307 46.39901" y="-3.7453125000000007">TdTomato</tspan>
       </text>
      </g>
     </g>
    </g>
    <g id="xtick_6">
     <g id="line2d_60">
      <g>
       <use xlink:href="#mf62bc57216" x="404.228125" y="175.0565" style="stroke: #000000; stroke-width: 0.8"/>
      </g>
     </g>
     <g id="text_31">
      <!-- $AgRP^{Chr2}$ -->
      <g transform="translate(386.708125 189.4165)">
       <text>
        <tspan style="font: oblique 8px 'DejaVu Sans'" x="0 5.472656 10.550781 16.109375" y="-0.6828125000000007">AgRP</tspan>
        <tspan style="font: oblique 5.6px 'DejaVu Sans'" x="21.494323 25.404479 28.953698" y="-3.7453125000000007">Chr</tspan>
        <tspan style="font: 5.6px 'DejaVu Sans'" x="31.256042" y="-3.7453125000000007">2</tspan>
       </text>
      </g>
     </g>
    </g>
   </g>
   <g id="matplotlib.axis_6">
    <g id="ytick_17">
     <g id="line2d_61">
      <g>
       <use xlink:href="#m6c2954295f" x="334.885" y="165.801567" style="stroke: #000000; stroke-width: 0.8"/>
      </g>
     </g>
     <g id="text_32">
      <text style="font: 6px 'Arial', sans-serif; text-anchor: end" x="327.885" y="167.94891" transform="rotate(-0 327.885 167.94891)">0.0</text>
     </g>
    </g>
    <g id="ytick_18">
     <g id="line2d_62">
      <g>
       <use xlink:href="#m6c2954295f" x="334.885" y="147.2917" style="stroke: #000000; stroke-width: 0.8"/>
      </g>
     </g>
     <g id="text_33">
      <text style="font: 6px 'Arial', sans-serif; text-anchor: end" x="327.885" y="149.439044" transform="rotate(-0 327.885 149.439044)">0.2</text>
     </g>
    </g>
    <g id="ytick_19">
     <g id="line2d_63">
      <g>
       <use xlink:href="#m6c2954295f" x="334.885" y="128.781833" style="stroke: #000000; stroke-width: 0.8"/>
      </g>
     </g>
     <g id="text_34">
      <text style="font: 6px 'Arial', sans-serif; text-anchor: end" x="327.885" y="130.929177" transform="rotate(-0 327.885 130.929177)">0.4</text>
     </g>
    </g>
    <g id="ytick_20">
     <g id="line2d_64">
      <g>
       <use xlink:href="#m6c2954295f" x="334.885" y="110.271967" style="stroke: #000000; stroke-width: 0.8"/>
      </g>
     </g>
     <g id="text_35">
      <text style="font: 6px 'Arial', sans-serif; text-anchor: end" x="327.885" y="112.41931" transform="rotate(-0 327.885 112.41931)">0.6</text>
     </g>
    </g>
    <g id="ytick_21">
     <g id="line2d_65">
      <g>
       <use xlink:href="#m6c2954295f" x="334.885" y="91.7621" style="stroke: #000000; stroke-width: 0.8"/>
      </g>
     </g>
     <g id="text_36">
      <text style="font: 6px 'Arial', sans-serif; text-anchor: end" x="327.885" y="93.909444" transform="rotate(-0 327.885 93.909444)">0.8</text>
     </g>
    </g>
    <g id="ytick_22">
     <g id="line2d_66">
      <g>
       <use xlink:href="#m6c2954295f" x="334.885" y="73.252233" style="stroke: #000000; stroke-width: 0.8"/>
      </g>
     </g>
     <g id="text_37">
      <text style="font: 6px 'Arial', sans-serif; text-anchor: end" x="327.885" y="75.399577" transform="rotate(-0 327.885 75.399577)">1.0</text>
     </g>
    </g>
    <g id="ytick_23">
     <g id="line2d_67">
      <g>
       <use xlink:href="#m6c2954295f" x="334.885" y="54.742367" style="stroke: #000000; stroke-width: 0.8"/>
      </g>
     </g>
     <g id="text_38">
      <text style="font: 6px 'Arial', sans-serif; text-anchor: end" x="327.885" y="56.88971" transform="rotate(-0 327.885 56.88971)">1.2</text>
     </g>
    </g>
    <g id="ytick_24">
     <g id="line2d_68">
      <g>
       <use xlink:href="#m6c2954295f" x="334.885" y="36.2325" style="stroke: #000000; stroke-width: 0.8"/>
      </g>
     </g>
     <g id="text_39">
      <text style="font: 6px 'Arial', sans-serif; text-anchor: end" x="327.885" y="38.379844" transform="rotate(-0 327.885 38.379844)">1.4</text>
     </g>
    </g>
    <g id="text_40">
     <text style="font: 8px 'Arial', sans-serif; text-anchor: middle" x="313.955" y="105.6445" transform="rotate(-90 313.955 105.6445)">Preference Index</text>
    </g>
   </g>
   <g id="line2d_69">
    <path d="M 357.999375 122.326891 
L 357.999375 73.677161 
" clip-path="url(#pd4c56d4030)" style="fill: none"/>
   </g>
   <g id="line2d_70">
    <path d="M 357.999375 100.767931 
L 357.999375 79.555514 
" clip-path="url(#pd4c56d4030)" style="fill: none"/>
   </g>
   <g id="line2d_71">
    <path d="M 404.228125 85.346025 
L 404.228125 73.610321 
" clip-path="url(#pd4c56d4030)" style="fill: none"/>
   </g>
   <g id="line2d_72">
    <path d="M 404.228125 81.887324 
L 404.228125 76.366937 
" clip-path="url(#pd4c56d4030)" style="fill: none"/>
   </g>
   <g id="line2d_73">
    <path d="M 357.999375 63.9973 
L 357.999375 54.742367 
L 404.228125 54.742367 
L 404.228125 63.9973 
" clip-path="url(#pd4c56d4030)" style="fill: none; stroke: #000000; stroke-width: 0.5; stroke-linecap: square"/>
   </g>
   <g id="patch_15">
    <path d="M 334.885 175.0565 
L 334.885 36.2325 
" style="fill: none; stroke: #000000; stroke-width: 0.8; stroke-linejoin: miter; stroke-linecap: square"/>
   </g>
   <g id="patch_16">
    <path d="M 334.885 175.0565 
L 427.3425 175.0565 
" style="fill: none; stroke: #000000; stroke-width: 0.8; stroke-linejoin: miter; stroke-linecap: square"/>
   </g>
   <g id="PathCollection_5">
    <g clip-path="url(#pd4c56d4030)">
     <use xlink:href="#m4ce301a84f" x="357.999375" y="85.910326" style="fill-opacity: 0.3"/>
     <use xlink:href="#m4ce301a84f" x="357.999375" y="99.556432" style="fill-opacity: 0.3"/>
     <use xlink:href="#m4ce301a84f" x="357.999375" y="109.951941" style="fill-opacity: 0.3"/>
     <use xlink:href="#m4ce301a84f" x="357.999375" y="122.326891" style="fill-opacity: 0.3"/>
     <use xlink:href="#m4ce301a84f" x="359.775716" y="73.677161" style="fill-opacity: 0.3"/>
     <use xlink:href="#m4ce301a84f" x="357.999375" y="97.184731" style="fill-opacity: 0.3"/>
     <use xlink:href="#m4ce301a84f" x="355.899418" y="74.731087" style="fill-opacity: 0.3"/>
     <use xlink:href="#m4ce301a84f" x="356.306654" y="101.979431" style="fill-opacity: 0.3"/>
     <use xlink:href="#m4ce301a84f" x="357.999375" y="81.600916" style="fill-opacity: 0.3"/>
     <use xlink:href="#m4ce301a84f" x="356.45111" y="80.249717" style="fill-opacity: 0.3"/>
     <use xlink:href="#m4ce301a84f" x="357.999375" y="103.163105" style="fill-opacity: 0.3"/>
     <use xlink:href="#m4ce301a84f" x="357.999375" y="88.242884" style="fill-opacity: 0.3"/>
     <use xlink:href="#m4ce301a84f" x="359.098158" y="79.896533" style="fill-opacity: 0.3"/>
     <use xlink:href="#m4ce301a84f" x="357.999375" y="74.743918" style="fill-opacity: 0.3"/>
     <use xlink:href="#m4ce301a84f" x="361.072276" y="79.214495" style="fill-opacity: 0.3"/>
    </g>
   </g>
   <g id="PathCollection_6">
    <g clip-path="url(#pd4c56d4030)">
     <use xlink:href="#m4ce301a84f" x="404.228125" y="73.610321" style="fill-opacity: 0.3"/>
     <use xlink:href="#m4ce301a84f" x="400.105435" y="78.165879" style="fill-opacity: 0.3"/>
     <use xlink:href="#m4ce301a84f" x="406.294358" y="78.562047" style="fill-opacity: 0.3"/>
     <use xlink:href="#m4ce301a84f" x="406.048449" y="74.884718" style="fill-opacity: 0.3"/>
     <use xlink:href="#m4ce301a84f" x="404.228125" y="82.630957" style="fill-opacity: 0.3"/>
     <use xlink:href="#m4ce301a84f" x="402.374354" y="74.942265" style="fill-opacity: 0.3"/>
     <use xlink:href="#m4ce301a84f" x="404.228125" y="75.881958" style="fill-opacity: 0.3"/>
     <use xlink:href="#m4ce301a84f" x="408.245252" y="77.821874" style="fill-opacity: 0.3"/>
     <use xlink:href="#m4ce301a84f" x="402.170671" y="82.230408" style="fill-opacity: 0.3"/>
     <use xlink:href="#m4ce301a84f" x="404.228125" y="85.346025" style="fill-opacity: 0.3"/>
     <use xlink:href="#m4ce301a84f" x="402.154259" y="78.604718" style="fill-opacity: 0.3"/>
     <use xlink:href="#m4ce301a84f" x="402.39725" y="84.366463" style="fill-opacity: 0.3"/>
     <use xlink:href="#m4ce301a84f" x="405.200085" y="80.858072" style="fill-opacity: 0.3"/>
     <use xlink:href="#m4ce301a84f" x="404.228125" y="78.919263" style="fill-opacity: 0.3"/>
    </g>
   </g>
   <g id="PathCollection_7">
    <g clip-path="url(#pd4c56d4030)">
     <use xlink:href="#m6c58c6b54a" x="357.999375" y="85.910326" style="fill: #ffffff; stroke: #484848"/>
    </g>
   </g>
   <g id="PathCollection_8">
    <g clip-path="url(#pd4c56d4030)">
     <use xlink:href="#m6c58c6b54a" x="404.228125" y="78.583383" style="fill: #ffffff; stroke: #484848"/>
    </g>
   </g>
   <g id="text_41">
    <text style="font: 8px 'Arial', sans-serif; text-anchor: middle" x="381.11375" y="53.152367" transform="rotate(-0 381.11375 53.152367)">*</text>
   </g>
  </g>
 </g>
 <defs>
  <clipPath id="pcc9ab9e543">
   <rect x="38.8625" y="36.2325" width="92.4575" height="138.824"/>
  </clipPath>
  <clipPath id="p78566f6ca2">
   <rect x="186.87375" y="36.2325" width="92.4575" height="138.824"/>
  </clipPath>
  <clipPath id="pd4c56d4030">
   <rect x="334.885" y="36.2325" width="92.4575" height="138.824"/>
  </clipPath>
 </defs>
</svg>
