<?xml version="1.0" encoding="utf-8" standalone="no"?>
<!DOCTYPE svg PUBLIC "-//W3C//DTD SVG 1.1//EN"
  "http://www.w3.org/Graphics/SVG/1.1/DTD/svg11.dtd">
<svg xmlns:xlink="http://www.w3.org/1999/xlink" width="402.275pt" height="406.854687pt" viewBox="0 0 402.275 406.854687" xmlns="http://www.w3.org/2000/svg" version="1.1">
 <metadata>
  <rdf:RDF xmlns:dc="http://purl.org/dc/elements/1.1/" xmlns:cc="http://creativecommons.org/ns#" xmlns:rdf="http://www.w3.org/1999/02/22-rdf-syntax-ns#">
   <cc:Work>
    <dc:type rdf:resource="http://purl.org/dc/dcmitype/StillImage"/>
    <dc:date>2023-05-22T11:16:10.218561</dc:date>
    <dc:format>image/svg+xml</dc:format>
    <dc:creator>
     <cc:Agent>
      <dc:title>Matplotlib v3.6.2, https://matplotlib.org/</dc:title>
     </cc:Agent>
    </dc:creator>
   </cc:Work>
  </rdf:RDF>
 </metadata>
 <defs>
  <style type="text/css">*{stroke-linejoin: round; stroke-linecap: butt}</style>
 </defs>
 <g id="figure_1">
  <g id="patch_1">
   <path d="M 0 406.854687 
L 402.275 406.854687 
L 402.275 0 
L 0 0 
L 0 406.854687 
z
" style="fill: none"/>
  </g>
  <g id="axes_1">
   <g id="patch_2">
    <path d="M 28.1 183.30125 
L 395.075 183.30125 
L 395.075 21.789375 
L 28.1 21.789375 
L 28.1 183.30125 
z
" style="fill: none"/>
   </g>
   <g id="matplotlib.axis_1"/>
   <g id="matplotlib.axis_2">
    <g id="text_1">
     <!-- $\frac{\Delta F}{F}$ -->
     <g transform="translate(16.7 107.595312) rotate(-90)">
      <text>
       <tspan style="font: 7px 'DejaVu Sans'" x="0" y="-4.8921875">Δ</tspan>
       <tspan style="font: oblique 7px 'DejaVu Sans'" x="2 4.788574" y="3.3406249999999993 -4.8921875">FF</tspan>
      </text>
      <rect x="0" y="-3.392188" width="8.814941" height="0.625"/>
     </g>
    </g>
   </g>
   <g id="line2d_1">
    <path d="M 44.780682 46.637636 
L 48.150517 46.637755 
L 51.520351 46.637925 
L 54.890186 46.638166 
L 58.260021 46.63851 
L 61.629855 46.639 
L 64.99969 46.639697 
L 68.369525 46.64069 
L 71.73936 46.642104 
L 75.109194 46.644118 
L 78.479029 46.646987 
L 81.848864 46.651071 
L 85.218698 46.656887 
L 88.588533 46.665169 
L 91.958368 46.676961 
L 95.328202 46.693751 
L 98.698037 46.717654 
L 102.067872 46.751679 
L 105.437707 46.800101 
L 108.807541 46.868994 
L 112.177376 46.966973 
L 115.547211 47.106239 
L 118.917045 47.304028 
L 122.28688 47.58461 
L 125.656715 47.981995 
L 129.02655 48.543509 
L 132.396384 49.334361 
L 135.766219 50.443122 
L 139.136054 51.987635 
L 142.505888 54.120016 
L 145.875723 57.027985 
L 149.245558 60.927743 
L 152.615393 66.041665 
L 155.985227 72.554248 
L 159.355062 80.545611 
L 162.724897 89.916398 
L 166.094731 100.337284 
L 169.464566 111.264271 
L 172.834401 122.037855 
L 176.204236 132.034331 
L 179.57407 140.800465 
L 182.943905 148.114967 
L 186.31374 153.969212 
L 189.683574 158.500336 
L 193.053409 161.917091 
L 196.423244 164.442973 
L 199.793079 166.282724 
L 203.162913 167.607875 
L 206.532748 168.55421 
L 209.902583 169.225227 
L 213.272417 169.697781 
L 216.642252 170.027885 
L 220.012087 170.255775 
L 223.381921 170.409992 
L 226.751756 170.510507 
L 230.121591 170.571038 
L 233.491426 170.600723 
L 236.86126 170.605301 
L 240.231095 170.587915 
L 243.60093 170.549647 
L 246.970764 170.489827 
L 250.340599 170.406186 
L 253.710434 170.294862 
L 257.080269 170.150303 
L 260.450103 169.965052 
L 263.819938 169.729432 
L 267.189773 169.431126 
L 270.559607 169.054662 
L 273.929442 168.580779 
L 277.299277 167.985725 
L 280.669112 167.240475 
L 284.038946 166.309955 
L 287.408781 165.152359 
L 290.778616 163.718715 
L 294.14845 161.95295 
L 297.518285 159.792773 
L 300.88812 157.171794 
L 304.257955 154.023336 
L 307.627789 150.286312 
L 310.997624 145.913284 
L 314.367459 140.880299 
L 317.737293 135.197291 
L 321.107128 128.916983 
L 324.476963 122.139593 
L 327.846798 115.01079 
L 331.216632 107.711611 
L 334.586467 100.441201 
L 337.956302 93.395602 
L 341.326136 86.747236 
L 344.695971 80.629458 
L 348.065806 75.128788 
L 351.43564 70.285006 
L 354.805475 66.097343 
L 358.17531 62.534063 
L 361.545145 59.542885 
L 364.914979 57.060392 
L 368.284814 55.019475 
L 371.654649 53.354602 
L 375.024483 52.005089 
L 378.394318 50.916824 
" clip-path="url(#p12f5ca377c)" style="fill: none; stroke: #d4d4d4; stroke-width: 4; stroke-linecap: square"/>
   </g>
   <g id="line2d_2">
    <path d="M 140.098864 183.30125 
L 140.098864 21.789375 
" clip-path="url(#p12f5ca377c)" style="fill: none; stroke-dasharray: 7.4,3.2; stroke-dashoffset: 0; stroke: #808080; stroke-width: 2"/>
   </g>
   <g id="patch_3">
    <path d="M 28.1 183.30125 
L 28.1 21.789375 
" style="fill: none; stroke: #000000; stroke-width: 0.8; stroke-linejoin: miter; stroke-linecap: square"/>
   </g>
   <g id="patch_4">
    <path d="M 28.1 183.30125 
L 395.075 183.30125 
" style="fill: none; stroke: #000000; stroke-width: 0.8; stroke-linejoin: miter; stroke-linecap: square"/>
   </g>
   <g id="text_2">
    <!-- $t_{20}$ -->
    <g transform="translate(149.630682 34.213365)">
     <text>
      <tspan style="font: oblique 10px 'DejaVu Sans'" x="0" y="-0.984375">t</tspan>
      <tspan style="font: 7px 'DejaVu Sans'" x="3.920898 8.374512" y="0.65625">20</tspan>
     </text>
    </g>
   </g>
   <g id="text_3">
    <text style="font: 12px 'Arial', sans-serif; text-anchor: middle" x="211.5875" y="15.789375" transform="rotate(-0 211.5875 15.789375)">Control</text>
   </g>
  </g>
  <g id="axes_2">
   <g id="patch_5">
    <path d="M 28.1 383.009375 
L 395.075 383.009375 
L 395.075 221.4975 
L 28.1 221.4975 
L 28.1 383.009375 
z
" style="fill: none"/>
   </g>
   <g id="matplotlib.axis_3">
    <g id="text_4">
     <text style="font: 10px 'Arial', sans-serif; text-anchor: middle" x="211.5875" y="397.667187" transform="rotate(-0 211.5875 397.667187)">Time</text>
    </g>
   </g>
   <g id="matplotlib.axis_4">
    <g id="text_5">
     <!-- $\frac{\Delta F}{F}$ -->
     <g transform="translate(16.7 307.303437) rotate(-90)">
      <text>
       <tspan style="font: 7px 'DejaVu Sans'" x="0" y="-4.8921875">Δ</tspan>
       <tspan style="font: oblique 7px 'DejaVu Sans'" x="2 4.788574" y="3.3406249999999993 -4.8921875">FF</tspan>
      </text>
      <rect x="0" y="-3.392188" width="8.814941" height="0.625"/>
     </g>
    </g>
   </g>
   <g id="line2d_3">
    <path d="M 44.780682 246.345481 
L 48.150517 246.345481 
L 51.520351 246.345481 
L 54.890186 246.345481 
L 58.260021 246.345481 
L 61.629855 246.345481 
L 64.99969 246.345481 
L 68.369525 246.345481 
L 71.73936 246.345481 
L 75.109194 246.345481 
L 78.479029 246.345481 
L 81.848864 246.345481 
L 85.218698 246.345481 
L 88.588533 246.345481 
L 91.958368 246.345481 
L 95.328202 246.345481 
L 98.698037 246.345481 
L 102.067872 246.345481 
L 105.437707 246.345481 
L 108.807541 246.345481 
L 112.177376 246.345481 
L 115.547211 246.345481 
L 118.917045 246.345481 
L 122.28688 246.345481 
L 125.656715 246.345481 
L 129.02655 246.345481 
L 132.396384 246.345481 
L 135.766219 246.345481 
L 139.136054 246.345481 
L 142.505888 246.345481 
L 145.875723 246.345481 
L 149.245558 246.345481 
L 152.615393 246.345481 
L 155.985227 246.345481 
L 159.355062 246.345481 
L 162.724897 246.345481 
L 166.094731 246.345481 
L 169.464566 246.345481 
L 172.834401 246.345481 
L 176.204236 246.345481 
L 179.57407 246.345481 
L 182.943905 246.345481 
L 186.31374 246.345481 
L 189.683574 246.345481 
L 193.053409 246.345481 
L 196.423244 246.345481 
L 199.793079 246.345481 
L 203.162913 246.345481 
L 206.532748 246.345481 
L 209.902583 246.345481 
L 213.272417 246.345481 
L 216.642252 246.345481 
L 220.012087 246.345481 
L 223.381921 246.345481 
L 226.751756 246.345481 
L 230.121591 246.345481 
L 233.491426 246.345481 
L 236.86126 246.345481 
L 240.231095 246.345481 
L 243.60093 246.345481 
L 246.970764 246.345481 
L 250.340599 246.345481 
L 253.710434 246.345481 
L 257.080269 246.345481 
L 260.450103 246.345481 
L 263.819938 246.345481 
L 267.189773 246.345481 
L 270.559607 246.345481 
L 273.929442 246.345481 
L 277.299277 246.345481 
L 280.669112 246.345481 
L 284.038946 246.345481 
L 287.408781 246.345481 
L 290.778616 246.345481 
L 294.14845 246.345481 
L 297.518285 246.345481 
L 300.88812 246.345481 
L 304.257955 246.345481 
L 307.627789 246.345481 
L 310.997624 246.345481 
L 314.367459 246.345481 
L 317.737293 246.345481 
L 321.107128 246.345481 
L 324.476963 246.345481 
L 327.846798 246.345481 
L 331.216632 246.345481 
L 334.586467 246.345481 
L 337.956302 246.345481 
L 341.326136 246.345481 
L 344.695971 246.345481 
L 348.065806 246.345481 
L 351.43564 246.345481 
L 354.805475 246.345481 
L 358.17531 246.345481 
L 361.545145 246.345481 
L 364.914979 246.345481 
L 368.284814 246.345481 
L 371.654649 246.345481 
L 375.024483 246.345481 
L 378.394318 246.345481 
" clip-path="url(#p8bceea9a1b)" style="fill: none; stroke: #06e1e9; stroke-width: 4; stroke-linecap: square"/>
   </g>
   <g id="line2d_4">
    <path d="M 140.098864 383.009375 
L 140.098864 221.4975 
" clip-path="url(#p8bceea9a1b)" style="fill: none; stroke-dasharray: 7.4,3.2; stroke-dashoffset: 0; stroke: #808080; stroke-width: 2"/>
   </g>
   <g id="patch_6">
    <path d="M 28.1 383.009375 
L 28.1 221.4975 
" style="fill: none; stroke: #000000; stroke-width: 0.8; stroke-linejoin: miter; stroke-linecap: square"/>
   </g>
   <g id="patch_7">
    <path d="M 28.1 383.009375 
L 395.075 383.009375 
" style="fill: none; stroke: #000000; stroke-width: 0.8; stroke-linejoin: miter; stroke-linecap: square"/>
   </g>
   <g id="text_6">
    <!-- $t_{20}$ -->
    <g transform="translate(149.630682 233.92149)">
     <text>
      <tspan style="font: oblique 10px 'DejaVu Sans'" x="0" y="-0.984375">t</tspan>
      <tspan style="font: 7px 'DejaVu Sans'" x="3.920898 8.374512" y="0.65625">20</tspan>
     </text>
    </g>
   </g>
   <g id="text_7">
    <text style="font: 12px 'Arial', sans-serif; text-anchor: middle" x="211.5875" y="215.4975" transform="rotate(-0 211.5875 215.4975)">AgRP Stim</text>
   </g>
  </g>
 </g>
 <defs>
  <clipPath id="p12f5ca377c">
   <rect x="28.1" y="21.789375" width="366.975" height="161.511875"/>
  </clipPath>
  <clipPath id="p8bceea9a1b">
   <rect x="28.1" y="221.4975" width="366.975" height="161.511875"/>
  </clipPath>
 </defs>
</svg>
