<?xml version="1.0" encoding="utf-8" standalone="no"?>
<!DOCTYPE svg PUBLIC "-//W3C//DTD SVG 1.1//EN"
  "http://www.w3.org/Graphics/SVG/1.1/DTD/svg11.dtd">
<svg xmlns:xlink="http://www.w3.org/1999/xlink" width="460.8pt" height="345.6pt" viewBox="0 0 460.8 345.6" xmlns="http://www.w3.org/2000/svg" version="1.1">
 <metadata>
  <rdf:RDF xmlns:dc="http://purl.org/dc/elements/1.1/" xmlns:cc="http://creativecommons.org/ns#" xmlns:rdf="http://www.w3.org/1999/02/22-rdf-syntax-ns#">
   <cc:Work>
    <dc:type rdf:resource="http://purl.org/dc/dcmitype/StillImage"/>
    <dc:date>2023-08-21T20:26:34.609641</dc:date>
    <dc:format>image/svg+xml</dc:format>
    <dc:creator>
     <cc:Agent>
      <dc:title>Matplotlib v3.6.2, https://matplotlib.org/</dc:title>
     </cc:Agent>
    </dc:creator>
   </cc:Work>
  </rdf:RDF>
 </metadata>
 <defs>
  <style type="text/css">*{stroke-linejoin: round; stroke-linecap: butt}</style>
 </defs>
 <g id="figure_1">
  <g id="patch_1">
   <path d="M 0 345.6 
L 460.8 345.6 
L 460.8 0 
L 0 0 
z
" style="fill: #ffffff"/>
  </g>
  <g id="axes_1">
   <g id="patch_2">
    <path d="M 57.6 307.584 
L 414.72 307.584 
L 414.72 41.472 
L 57.6 41.472 
z
" style="fill: #ffffff"/>
   </g>
   <g id="patch_3">
    <path d="M 73.832727 307.584 
L 77.112066 307.584 
L 77.112066 307.584 
L 73.832727 307.584 
z
" clip-path="url(#pb11ef0e1ed)" style="fill: #ff0000; opacity: 0.5"/>
   </g>
   <g id="patch_4">
    <path d="M 77.112066 307.584 
L 80.391405 307.584 
L 80.391405 306.842673 
L 77.112066 306.842673 
z
" clip-path="url(#pb11ef0e1ed)" style="fill: #ff0000; opacity: 0.5"/>
   </g>
   <g id="patch_5">
    <path d="M 80.391405 307.584 
L 83.670744 307.584 
L 83.670744 307.085289 
L 80.391405 307.085289 
z
" clip-path="url(#pb11ef0e1ed)" style="fill: #ff0000; opacity: 0.5"/>
   </g>
   <g id="patch_6">
    <path d="M 83.670744 307.584 
L 86.950083 307.584 
L 86.950083 307.233554 
L 83.670744 307.233554 
z
" clip-path="url(#pb11ef0e1ed)" style="fill: #ff0000; opacity: 0.5"/>
   </g>
   <g id="patch_7">
    <path d="M 86.950083 307.584 
L 90.229421 307.584 
L 90.229421 307.105507 
L 86.950083 307.105507 
z
" clip-path="url(#pb11ef0e1ed)" style="fill: #ff0000; opacity: 0.5"/>
   </g>
   <g id="patch_8">
    <path d="M 90.229421 307.584 
L 93.50876 307.584 
L 93.50876 306.903327 
L 90.229421 306.903327 
z
" clip-path="url(#pb11ef0e1ed)" style="fill: #ff0000; opacity: 0.5"/>
   </g>
   <g id="patch_9">
    <path d="M 93.50876 307.584 
L 96.788099 307.584 
L 96.788099 305.447629 
L 93.50876 305.447629 
z
" clip-path="url(#pb11ef0e1ed)" style="fill: #ff0000; opacity: 0.5"/>
   </g>
   <g id="patch_10">
    <path d="M 96.788099 307.584 
L 100.067438 307.584 
L 100.067438 300.042679 
L 96.788099 300.042679 
z
" clip-path="url(#pb11ef0e1ed)" style="fill: #ff0000; opacity: 0.5"/>
   </g>
   <g id="patch_11">
    <path d="M 100.067438 307.584 
L 103.346777 307.584 
L 103.346777 287.608598 
L 100.067438 287.608598 
z
" clip-path="url(#pb11ef0e1ed)" style="fill: #ff0000; opacity: 0.5"/>
   </g>
   <g id="patch_12">
    <path d="M 103.346777 307.584 
L 106.626116 307.584 
L 106.626116 260.954512 
L 103.346777 260.954512 
z
" clip-path="url(#pb11ef0e1ed)" style="fill: #ff0000; opacity: 0.5"/>
   </g>
   <g id="patch_13">
    <path d="M 106.626116 307.584 
L 109.905455 307.584 
L 109.905455 217.593603 
L 106.626116 217.593603 
z
" clip-path="url(#pb11ef0e1ed)" style="fill: #ff0000; opacity: 0.5"/>
   </g>
   <g id="patch_14">
    <path d="M 109.905455 307.584 
L 113.184793 307.584 
L 113.184793 162.149059 
L 109.905455 162.149059 
z
" clip-path="url(#pb11ef0e1ed)" style="fill: #ff0000; opacity: 0.5"/>
   </g>
   <g id="patch_15">
    <path d="M 113.184793 307.584 
L 116.464132 307.584 
L 116.464132 106.199065 
L 113.184793 106.199065 
z
" clip-path="url(#pb11ef0e1ed)" style="fill: #ff0000; opacity: 0.5"/>
   </g>
   <g id="patch_16">
    <path d="M 116.464132 307.584 
L 119.743471 307.584 
L 119.743471 99.776474 
L 116.464132 99.776474 
z
" clip-path="url(#pb11ef0e1ed)" style="fill: #ff0000; opacity: 0.5"/>
   </g>
   <g id="patch_17">
    <path d="M 119.743471 307.584 
L 123.02281 307.584 
L 123.02281 153.489008 
L 119.743471 153.489008 
z
" clip-path="url(#pb11ef0e1ed)" style="fill: #ff0000; opacity: 0.5"/>
   </g>
   <g id="patch_18">
    <path d="M 123.02281 307.584 
L 126.302149 307.584 
L 126.302149 222.62115 
L 123.02281 222.62115 
z
" clip-path="url(#pb11ef0e1ed)" style="fill: #ff0000; opacity: 0.5"/>
   </g>
   <g id="patch_19">
    <path d="M 126.302149 307.584 
L 129.581488 307.584 
L 129.581488 266.224675 
L 126.302149 266.224675 
z
" clip-path="url(#pb11ef0e1ed)" style="fill: #ff0000; opacity: 0.5"/>
   </g>
   <g id="patch_20">
    <path d="M 129.581488 307.584 
L 132.860826 307.584 
L 132.860826 285.795716 
L 129.581488 285.795716 
z
" clip-path="url(#pb11ef0e1ed)" style="fill: #ff0000; opacity: 0.5"/>
   </g>
   <g id="patch_21">
    <path d="M 132.860826 307.584 
L 136.140165 307.584 
L 136.140165 294.671426 
L 132.860826 294.671426 
z
" clip-path="url(#pb11ef0e1ed)" style="fill: #ff0000; opacity: 0.5"/>
   </g>
   <g id="patch_22">
    <path d="M 136.140165 307.584 
L 139.419504 307.584 
L 139.419504 298.256754 
L 136.140165 298.256754 
z
" clip-path="url(#pb11ef0e1ed)" style="fill: #ff0000; opacity: 0.5"/>
   </g>
   <g id="patch_23">
    <path d="M 139.419504 307.584 
L 142.698843 307.584 
L 142.698843 298.539807 
L 139.419504 298.539807 
z
" clip-path="url(#pb11ef0e1ed)" style="fill: #ff0000; opacity: 0.5"/>
   </g>
   <g id="patch_24">
    <path d="M 142.698843 307.584 
L 145.978182 307.584 
L 145.978182 298.034356 
L 142.698843 298.034356 
z
" clip-path="url(#pb11ef0e1ed)" style="fill: #ff0000; opacity: 0.5"/>
   </g>
   <g id="patch_25">
    <path d="M 145.978182 307.584 
L 149.257521 307.584 
L 149.257521 297.299768 
L 145.978182 297.299768 
z
" clip-path="url(#pb11ef0e1ed)" style="fill: #ff0000; opacity: 0.5"/>
   </g>
   <g id="patch_26">
    <path d="M 149.257521 307.584 
L 152.53686 307.584 
L 152.53686 295.594715 
L 149.257521 295.594715 
z
" clip-path="url(#pb11ef0e1ed)" style="fill: #ff0000; opacity: 0.5"/>
   </g>
   <g id="patch_27">
    <path d="M 152.53686 307.584 
L 155.816198 307.584 
L 155.816198 293.667264 
L 152.53686 293.667264 
z
" clip-path="url(#pb11ef0e1ed)" style="fill: #ff0000; opacity: 0.5"/>
   </g>
   <g id="patch_28">
    <path d="M 155.816198 307.584 
L 159.095537 307.584 
L 159.095537 292.265482 
L 155.816198 292.265482 
z
" clip-path="url(#pb11ef0e1ed)" style="fill: #ff0000; opacity: 0.5"/>
   </g>
   <g id="patch_29">
    <path d="M 159.095537 307.584 
L 162.374876 307.584 
L 162.374876 292.683321 
L 159.095537 292.683321 
z
" clip-path="url(#pb11ef0e1ed)" style="fill: #ff0000; opacity: 0.5"/>
   </g>
   <g id="patch_30">
    <path d="M 162.374876 307.584 
L 165.654215 307.584 
L 165.654215 293.91662 
L 162.374876 293.91662 
z
" clip-path="url(#pb11ef0e1ed)" style="fill: #ff0000; opacity: 0.5"/>
   </g>
   <g id="patch_31">
    <path d="M 165.654215 307.584 
L 168.933554 307.584 
L 168.933554 295.790156 
L 165.654215 295.790156 
z
" clip-path="url(#pb11ef0e1ed)" style="fill: #ff0000; opacity: 0.5"/>
   </g>
   <g id="patch_32">
    <path d="M 168.933554 307.584 
L 172.212893 307.584 
L 172.212893 298.50611 
L 168.933554 298.50611 
z
" clip-path="url(#pb11ef0e1ed)" style="fill: #ff0000; opacity: 0.5"/>
   </g>
   <g id="patch_33">
    <path d="M 172.212893 307.584 
L 175.492231 307.584 
L 175.492231 300.460518 
L 172.212893 300.460518 
z
" clip-path="url(#pb11ef0e1ed)" style="fill: #ff0000; opacity: 0.5"/>
   </g>
   <g id="patch_34">
    <path d="M 175.492231 307.584 
L 178.77157 307.584 
L 178.77157 302.239704 
L 175.492231 302.239704 
z
" clip-path="url(#pb11ef0e1ed)" style="fill: #ff0000; opacity: 0.5"/>
   </g>
   <g id="patch_35">
    <path d="M 178.77157 307.584 
L 182.050909 307.584 
L 182.050909 303.722359 
L 178.77157 303.722359 
z
" clip-path="url(#pb11ef0e1ed)" style="fill: #ff0000; opacity: 0.5"/>
   </g>
   <g id="patch_36">
    <path d="M 182.050909 307.584 
L 185.330248 307.584 
L 185.330248 304.349117 
L 182.050909 304.349117 
z
" clip-path="url(#pb11ef0e1ed)" style="fill: #ff0000; opacity: 0.5"/>
   </g>
   <g id="patch_37">
    <path d="M 185.330248 307.584 
L 188.609587 307.584 
L 188.609587 304.760217 
L 185.330248 304.760217 
z
" clip-path="url(#pb11ef0e1ed)" style="fill: #ff0000; opacity: 0.5"/>
   </g>
   <g id="patch_38">
    <path d="M 188.609587 307.584 
L 191.888926 307.584 
L 191.888926 304.659127 
L 188.609587 304.659127 
z
" clip-path="url(#pb11ef0e1ed)" style="fill: #ff0000; opacity: 0.5"/>
   </g>
   <g id="patch_39">
    <path d="M 191.888926 307.584 
L 195.168264 307.584 
L 195.168264 304.793914 
L 191.888926 304.793914 
z
" clip-path="url(#pb11ef0e1ed)" style="fill: #ff0000; opacity: 0.5"/>
   </g>
   <g id="patch_40">
    <path d="M 195.168264 307.584 
L 198.447603 307.584 
L 198.447603 304.571515 
L 195.168264 304.571515 
z
" clip-path="url(#pb11ef0e1ed)" style="fill: #ff0000; opacity: 0.5"/>
   </g>
   <g id="patch_41">
    <path d="M 198.447603 307.584 
L 201.726942 307.584 
L 201.726942 303.958235 
L 198.447603 303.958235 
z
" clip-path="url(#pb11ef0e1ed)" style="fill: #ff0000; opacity: 0.5"/>
   </g>
   <g id="patch_42">
    <path d="M 201.726942 307.584 
L 205.006281 307.584 
L 205.006281 304.187373 
L 201.726942 304.187373 
z
" clip-path="url(#pb11ef0e1ed)" style="fill: #ff0000; opacity: 0.5"/>
   </g>
   <g id="patch_43">
    <path d="M 205.006281 307.584 
L 208.28562 307.584 
L 208.28562 304.227809 
L 205.006281 304.227809 
z
" clip-path="url(#pb11ef0e1ed)" style="fill: #ff0000; opacity: 0.5"/>
   </g>
   <g id="patch_44">
    <path d="M 208.28562 307.584 
L 211.564959 307.584 
L 211.564959 304.376075 
L 208.28562 304.376075 
z
" clip-path="url(#pb11ef0e1ed)" style="fill: #ff0000; opacity: 0.5"/>
   </g>
   <g id="patch_45">
    <path d="M 211.564959 307.584 
L 214.844298 307.584 
L 214.844298 304.611951 
L 211.564959 304.611951 
z
" clip-path="url(#pb11ef0e1ed)" style="fill: #ff0000; opacity: 0.5"/>
   </g>
   <g id="patch_46">
    <path d="M 214.844298 307.584 
L 218.123636 307.584 
L 218.123636 305.016312 
L 214.844298 305.016312 
z
" clip-path="url(#pb11ef0e1ed)" style="fill: #ff0000; opacity: 0.5"/>
   </g>
   <g id="patch_47">
    <path d="M 218.123636 307.584 
L 221.402975 307.584 
L 221.402975 305.157838 
L 218.123636 305.157838 
z
" clip-path="url(#pb11ef0e1ed)" style="fill: #ff0000; opacity: 0.5"/>
   </g>
   <g id="patch_48">
    <path d="M 221.402975 307.584 
L 224.682314 307.584 
L 224.682314 305.595895 
L 221.402975 305.595895 
z
" clip-path="url(#pb11ef0e1ed)" style="fill: #ff0000; opacity: 0.5"/>
   </g>
   <g id="patch_49">
    <path d="M 224.682314 307.584 
L 227.961653 307.584 
L 227.961653 305.798075 
L 224.682314 305.798075 
z
" clip-path="url(#pb11ef0e1ed)" style="fill: #ff0000; opacity: 0.5"/>
   </g>
   <g id="patch_50">
    <path d="M 227.961653 307.584 
L 231.240992 307.584 
L 231.240992 305.959819 
L 227.961653 305.959819 
z
" clip-path="url(#pb11ef0e1ed)" style="fill: #ff0000; opacity: 0.5"/>
   </g>
   <g id="patch_51">
    <path d="M 231.240992 307.584 
L 234.520331 307.584 
L 234.520331 306.202435 
L 231.240992 306.202435 
z
" clip-path="url(#pb11ef0e1ed)" style="fill: #ff0000; opacity: 0.5"/>
   </g>
   <g id="patch_52">
    <path d="M 234.520331 307.584 
L 237.799669 307.584 
L 237.799669 306.15526 
L 234.520331 306.15526 
z
" clip-path="url(#pb11ef0e1ed)" style="fill: #ff0000; opacity: 0.5"/>
   </g>
   <g id="patch_53">
    <path d="M 237.799669 307.584 
L 241.079008 307.584 
L 241.079008 306.370919 
L 237.799669 306.370919 
z
" clip-path="url(#pb11ef0e1ed)" style="fill: #ff0000; opacity: 0.5"/>
   </g>
   <g id="patch_54">
    <path d="M 241.079008 307.584 
L 244.358347 307.584 
L 244.358347 306.411355 
L 241.079008 306.411355 
z
" clip-path="url(#pb11ef0e1ed)" style="fill: #ff0000; opacity: 0.5"/>
   </g>
   <g id="patch_55">
    <path d="M 244.358347 307.584 
L 247.637686 307.584 
L 247.637686 306.290047 
L 244.358347 306.290047 
z
" clip-path="url(#pb11ef0e1ed)" style="fill: #ff0000; opacity: 0.5"/>
   </g>
   <g id="patch_56">
    <path d="M 247.637686 307.584 
L 250.917025 307.584 
L 250.917025 306.445052 
L 247.637686 306.445052 
z
" clip-path="url(#pb11ef0e1ed)" style="fill: #ff0000; opacity: 0.5"/>
   </g>
   <g id="patch_57">
    <path d="M 250.917025 307.584 
L 254.196364 307.584 
L 254.196364 306.472009 
L 250.917025 306.472009 
z
" clip-path="url(#pb11ef0e1ed)" style="fill: #ff0000; opacity: 0.5"/>
   </g>
   <g id="patch_58">
    <path d="M 254.196364 307.584 
L 257.475702 307.584 
L 257.475702 306.478748 
L 254.196364 306.478748 
z
" clip-path="url(#pb11ef0e1ed)" style="fill: #ff0000; opacity: 0.5"/>
   </g>
   <g id="patch_59">
    <path d="M 257.475702 307.584 
L 260.755041 307.584 
L 260.755041 306.573099 
L 257.475702 306.573099 
z
" clip-path="url(#pb11ef0e1ed)" style="fill: #ff0000; opacity: 0.5"/>
   </g>
   <g id="patch_60">
    <path d="M 260.755041 307.584 
L 264.03438 307.584 
L 264.03438 306.573099 
L 260.755041 306.573099 
z
" clip-path="url(#pb11ef0e1ed)" style="fill: #ff0000; opacity: 0.5"/>
   </g>
   <g id="patch_61">
    <path d="M 264.03438 307.584 
L 267.313719 307.584 
L 267.313719 306.701147 
L 264.03438 306.701147 
z
" clip-path="url(#pb11ef0e1ed)" style="fill: #ff0000; opacity: 0.5"/>
   </g>
   <g id="patch_62">
    <path d="M 267.313719 307.584 
L 270.593058 307.584 
L 270.593058 306.707886 
L 267.313719 306.707886 
z
" clip-path="url(#pb11ef0e1ed)" style="fill: #ff0000; opacity: 0.5"/>
   </g>
   <g id="patch_63">
    <path d="M 270.593058 307.584 
L 273.872397 307.584 
L 273.872397 306.862891 
L 270.593058 306.862891 
z
" clip-path="url(#pb11ef0e1ed)" style="fill: #ff0000; opacity: 0.5"/>
   </g>
   <g id="patch_64">
    <path d="M 273.872397 307.584 
L 277.151736 307.584 
L 277.151736 306.849412 
L 273.872397 306.849412 
z
" clip-path="url(#pb11ef0e1ed)" style="fill: #ff0000; opacity: 0.5"/>
   </g>
   <g id="patch_65">
    <path d="M 277.151736 307.584 
L 280.431074 307.584 
L 280.431074 306.86963 
L 277.151736 306.86963 
z
" clip-path="url(#pb11ef0e1ed)" style="fill: #ff0000; opacity: 0.5"/>
   </g>
   <g id="patch_66">
    <path d="M 280.431074 307.584 
L 283.710413 307.584 
L 283.710413 306.937023 
L 280.431074 306.937023 
z
" clip-path="url(#pb11ef0e1ed)" style="fill: #ff0000; opacity: 0.5"/>
   </g>
   <g id="patch_67">
    <path d="M 283.710413 307.584 
L 286.989752 307.584 
L 286.989752 306.97072 
L 283.710413 306.97072 
z
" clip-path="url(#pb11ef0e1ed)" style="fill: #ff0000; opacity: 0.5"/>
   </g>
   <g id="patch_68">
    <path d="M 286.989752 307.584 
L 290.269091 307.584 
L 290.269091 306.984199 
L 286.989752 306.984199 
z
" clip-path="url(#pb11ef0e1ed)" style="fill: #ff0000; opacity: 0.5"/>
   </g>
   <g id="patch_69">
    <path d="M 290.269091 307.584 
L 293.54843 307.584 
L 293.54843 307.017896 
L 290.269091 307.017896 
z
" clip-path="url(#pb11ef0e1ed)" style="fill: #ff0000; opacity: 0.5"/>
   </g>
   <g id="patch_70">
    <path d="M 293.54843 307.584 
L 296.827769 307.584 
L 296.827769 307.092028 
L 293.54843 307.092028 
z
" clip-path="url(#pb11ef0e1ed)" style="fill: #ff0000; opacity: 0.5"/>
   </g>
   <g id="patch_71">
    <path d="M 296.827769 307.584 
L 300.107107 307.584 
L 300.107107 307.065071 
L 296.827769 307.065071 
z
" clip-path="url(#pb11ef0e1ed)" style="fill: #ff0000; opacity: 0.5"/>
   </g>
   <g id="patch_72">
    <path d="M 300.107107 307.584 
L 303.386446 307.584 
L 303.386446 307.004417 
L 300.107107 307.004417 
z
" clip-path="url(#pb11ef0e1ed)" style="fill: #ff0000; opacity: 0.5"/>
   </g>
   <g id="patch_73">
    <path d="M 303.386446 307.584 
L 306.665785 307.584 
L 306.665785 307.011156 
L 303.386446 307.011156 
z
" clip-path="url(#pb11ef0e1ed)" style="fill: #ff0000; opacity: 0.5"/>
   </g>
   <g id="patch_74">
    <path d="M 306.665785 307.584 
L 309.945124 307.584 
L 309.945124 307.112246 
L 306.665785 307.112246 
z
" clip-path="url(#pb11ef0e1ed)" style="fill: #ff0000; opacity: 0.5"/>
   </g>
   <g id="patch_75">
    <path d="M 309.945124 307.584 
L 313.224463 307.584 
L 313.224463 307.051592 
L 309.945124 307.051592 
z
" clip-path="url(#pb11ef0e1ed)" style="fill: #ff0000; opacity: 0.5"/>
   </g>
   <g id="patch_76">
    <path d="M 313.224463 307.584 
L 316.503802 307.584 
L 316.503802 307.17964 
L 313.224463 307.17964 
z
" clip-path="url(#pb11ef0e1ed)" style="fill: #ff0000; opacity: 0.5"/>
   </g>
   <g id="patch_77">
    <path d="M 316.503802 307.584 
L 319.78314 307.584 
L 319.78314 307.17964 
L 316.503802 307.17964 
z
" clip-path="url(#pb11ef0e1ed)" style="fill: #ff0000; opacity: 0.5"/>
   </g>
   <g id="patch_78">
    <path d="M 319.78314 307.584 
L 323.062479 307.584 
L 323.062479 307.1729 
L 319.78314 307.1729 
z
" clip-path="url(#pb11ef0e1ed)" style="fill: #ff0000; opacity: 0.5"/>
   </g>
   <g id="patch_79">
    <path d="M 323.062479 307.584 
L 326.341818 307.584 
L 326.341818 307.220076 
L 323.062479 307.220076 
z
" clip-path="url(#pb11ef0e1ed)" style="fill: #ff0000; opacity: 0.5"/>
   </g>
   <g id="patch_80">
    <path d="M 326.341818 307.584 
L 329.621157 307.584 
L 329.621157 307.327905 
L 326.341818 307.327905 
z
" clip-path="url(#pb11ef0e1ed)" style="fill: #ff0000; opacity: 0.5"/>
   </g>
   <g id="patch_81">
    <path d="M 329.621157 307.584 
L 332.900496 307.584 
L 332.900496 307.247033 
L 329.621157 307.247033 
z
" clip-path="url(#pb11ef0e1ed)" style="fill: #ff0000; opacity: 0.5"/>
   </g>
   <g id="patch_82">
    <path d="M 332.900496 307.584 
L 336.179835 307.584 
L 336.179835 307.193118 
L 332.900496 307.193118 
z
" clip-path="url(#pb11ef0e1ed)" style="fill: #ff0000; opacity: 0.5"/>
   </g>
   <g id="patch_83">
    <path d="M 336.179835 307.584 
L 339.459174 307.584 
L 339.459174 307.260512 
L 336.179835 307.260512 
z
" clip-path="url(#pb11ef0e1ed)" style="fill: #ff0000; opacity: 0.5"/>
   </g>
   <g id="patch_84">
    <path d="M 339.459174 307.584 
L 342.738512 307.584 
L 342.738512 307.213336 
L 339.459174 307.213336 
z
" clip-path="url(#pb11ef0e1ed)" style="fill: #ff0000; opacity: 0.5"/>
   </g>
   <g id="patch_85">
    <path d="M 342.738512 307.584 
L 346.017851 307.584 
L 346.017851 307.253772 
L 342.738512 307.253772 
z
" clip-path="url(#pb11ef0e1ed)" style="fill: #ff0000; opacity: 0.5"/>
   </g>
   <g id="patch_86">
    <path d="M 346.017851 307.584 
L 349.29719 307.584 
L 349.29719 307.27399 
L 346.017851 307.27399 
z
" clip-path="url(#pb11ef0e1ed)" style="fill: #ff0000; opacity: 0.5"/>
   </g>
   <g id="patch_87">
    <path d="M 349.29719 307.584 
L 352.576529 307.584 
L 352.576529 307.267251 
L 349.29719 307.267251 
z
" clip-path="url(#pb11ef0e1ed)" style="fill: #ff0000; opacity: 0.5"/>
   </g>
   <g id="patch_88">
    <path d="M 352.576529 307.584 
L 355.855868 307.584 
L 355.855868 307.314426 
L 352.576529 307.314426 
z
" clip-path="url(#pb11ef0e1ed)" style="fill: #ff0000; opacity: 0.5"/>
   </g>
   <g id="patch_89">
    <path d="M 355.855868 307.584 
L 359.135207 307.584 
L 359.135207 307.267251 
L 355.855868 307.267251 
z
" clip-path="url(#pb11ef0e1ed)" style="fill: #ff0000; opacity: 0.5"/>
   </g>
   <g id="patch_90">
    <path d="M 359.135207 307.584 
L 362.414545 307.584 
L 362.414545 307.415517 
L 359.135207 307.415517 
z
" clip-path="url(#pb11ef0e1ed)" style="fill: #ff0000; opacity: 0.5"/>
   </g>
   <g id="patch_91">
    <path d="M 362.414545 307.584 
L 365.693884 307.584 
L 365.693884 307.314426 
L 362.414545 307.314426 
z
" clip-path="url(#pb11ef0e1ed)" style="fill: #ff0000; opacity: 0.5"/>
   </g>
   <g id="patch_92">
    <path d="M 365.693884 307.584 
L 368.973223 307.584 
L 368.973223 307.37508 
L 365.693884 307.37508 
z
" clip-path="url(#pb11ef0e1ed)" style="fill: #ff0000; opacity: 0.5"/>
   </g>
   <g id="patch_93">
    <path d="M 368.973223 307.584 
L 372.252562 307.584 
L 372.252562 307.422256 
L 368.973223 307.422256 
z
" clip-path="url(#pb11ef0e1ed)" style="fill: #ff0000; opacity: 0.5"/>
   </g>
   <g id="patch_94">
    <path d="M 372.252562 307.584 
L 375.531901 307.584 
L 375.531901 307.327905 
L 372.252562 307.327905 
z
" clip-path="url(#pb11ef0e1ed)" style="fill: #ff0000; opacity: 0.5"/>
   </g>
   <g id="patch_95">
    <path d="M 375.531901 307.584 
L 378.81124 307.584 
L 378.81124 307.361602 
L 375.531901 307.361602 
z
" clip-path="url(#pb11ef0e1ed)" style="fill: #ff0000; opacity: 0.5"/>
   </g>
   <g id="patch_96">
    <path d="M 378.81124 307.584 
L 382.090579 307.584 
L 382.090579 307.307687 
L 378.81124 307.307687 
z
" clip-path="url(#pb11ef0e1ed)" style="fill: #ff0000; opacity: 0.5"/>
   </g>
   <g id="patch_97">
    <path d="M 382.090579 307.584 
L 385.369917 307.584 
L 385.369917 307.38182 
L 382.090579 307.38182 
z
" clip-path="url(#pb11ef0e1ed)" style="fill: #ff0000; opacity: 0.5"/>
   </g>
   <g id="patch_98">
    <path d="M 385.369917 307.584 
L 388.649256 307.584 
L 388.649256 307.307687 
L 385.369917 307.307687 
z
" clip-path="url(#pb11ef0e1ed)" style="fill: #ff0000; opacity: 0.5"/>
   </g>
   <g id="patch_99">
    <path d="M 388.649256 307.584 
L 391.928595 307.584 
L 391.928595 307.38182 
L 388.649256 307.38182 
z
" clip-path="url(#pb11ef0e1ed)" style="fill: #ff0000; opacity: 0.5"/>
   </g>
   <g id="patch_100">
    <path d="M 391.928595 307.584 
L 395.207934 307.584 
L 395.207934 307.415517 
L 391.928595 307.415517 
z
" clip-path="url(#pb11ef0e1ed)" style="fill: #ff0000; opacity: 0.5"/>
   </g>
   <g id="patch_101">
    <path d="M 395.207934 307.584 
L 398.487273 307.584 
L 398.487273 307.368341 
L 395.207934 307.368341 
z
" clip-path="url(#pb11ef0e1ed)" style="fill: #ff0000; opacity: 0.5"/>
   </g>
   <g id="matplotlib.axis_1">
    <g id="xtick_1">
     <g id="line2d_1">
      <defs>
       <path id="mc109f2e593" d="M 0 0 
L 0 3.5 
" style="stroke: #000000; stroke-width: 0.8"/>
      </defs>
      <g>
       <use xlink:href="#mc109f2e593" x="73.832727" y="307.584" style="stroke: #000000; stroke-width: 0.8"/>
      </g>
     </g>
     <g id="text_1">
      <text style="font: 8px 'Arial', sans-serif; text-anchor: middle" x="73.832727" y="320.31025" transform="rotate(-0 73.832727 320.31025)">0.0</text>
     </g>
    </g>
    <g id="xtick_2">
     <g id="line2d_2">
      <g>
       <use xlink:href="#mc109f2e593" x="138.763636" y="307.584" style="stroke: #000000; stroke-width: 0.8"/>
      </g>
     </g>
     <g id="text_2">
      <text style="font: 8px 'Arial', sans-serif; text-anchor: middle" x="138.763636" y="320.31025" transform="rotate(-0 138.763636 320.31025)">0.2</text>
     </g>
    </g>
    <g id="xtick_3">
     <g id="line2d_3">
      <g>
       <use xlink:href="#mc109f2e593" x="203.694545" y="307.584" style="stroke: #000000; stroke-width: 0.8"/>
      </g>
     </g>
     <g id="text_3">
      <text style="font: 8px 'Arial', sans-serif; text-anchor: middle" x="203.694545" y="320.31025" transform="rotate(-0 203.694545 320.31025)">0.4</text>
     </g>
    </g>
    <g id="xtick_4">
     <g id="line2d_4">
      <g>
       <use xlink:href="#mc109f2e593" x="268.625455" y="307.584" style="stroke: #000000; stroke-width: 0.8"/>
      </g>
     </g>
     <g id="text_4">
      <text style="font: 8px 'Arial', sans-serif; text-anchor: middle" x="268.625455" y="320.31025" transform="rotate(-0 268.625455 320.31025)">0.6</text>
     </g>
    </g>
    <g id="xtick_5">
     <g id="line2d_5">
      <g>
       <use xlink:href="#mc109f2e593" x="333.556364" y="307.584" style="stroke: #000000; stroke-width: 0.8"/>
      </g>
     </g>
     <g id="text_5">
      <text style="font: 8px 'Arial', sans-serif; text-anchor: middle" x="333.556364" y="320.31025" transform="rotate(-0 333.556364 320.31025)">0.8</text>
     </g>
    </g>
    <g id="xtick_6">
     <g id="line2d_6">
      <g>
       <use xlink:href="#mc109f2e593" x="398.487273" y="307.584" style="stroke: #000000; stroke-width: 0.8"/>
      </g>
     </g>
     <g id="text_6">
      <text style="font: 8px 'Arial', sans-serif; text-anchor: middle" x="398.487273" y="320.31025" transform="rotate(-0 398.487273 320.31025)">1.0</text>
     </g>
    </g>
    <g id="text_7">
     <text style="font: 8px 'Arial', sans-serif; text-anchor: middle" x="236.16" y="331.724" transform="rotate(-0 236.16 331.724)">Sub-Second ILIs accross training</text>
    </g>
   </g>
   <g id="matplotlib.axis_2">
    <g id="ytick_1">
     <g id="line2d_7">
      <defs>
       <path id="mcef37a7d48" d="M 0 0 
L -3.5 0 
" style="stroke: #000000; stroke-width: 0.8"/>
      </defs>
      <g>
       <use xlink:href="#mcef37a7d48" x="57.6" y="307.584" style="stroke: #000000; stroke-width: 0.8"/>
      </g>
     </g>
     <g id="text_8">
      <text style="font: 8px 'Arial', sans-serif; text-anchor: end" x="50.6" y="310.447125" transform="rotate(-0 50.6 310.447125)">0.0</text>
     </g>
    </g>
    <g id="ytick_2">
     <g id="line2d_8">
      <g>
       <use xlink:href="#mcef37a7d48" x="57.6" y="275.904" style="stroke: #000000; stroke-width: 0.8"/>
      </g>
     </g>
     <g id="text_9">
      <text style="font: 8px 'Arial', sans-serif; text-anchor: end" x="50.6" y="278.767125" transform="rotate(-0 50.6 278.767125)">2.5</text>
     </g>
    </g>
    <g id="ytick_3">
     <g id="line2d_9">
      <g>
       <use xlink:href="#mcef37a7d48" x="57.6" y="244.224" style="stroke: #000000; stroke-width: 0.8"/>
      </g>
     </g>
     <g id="text_10">
      <text style="font: 8px 'Arial', sans-serif; text-anchor: end" x="50.6" y="247.087125" transform="rotate(-0 50.6 247.087125)">5.0</text>
     </g>
    </g>
    <g id="ytick_4">
     <g id="line2d_10">
      <g>
       <use xlink:href="#mcef37a7d48" x="57.6" y="212.544" style="stroke: #000000; stroke-width: 0.8"/>
      </g>
     </g>
     <g id="text_11">
      <text style="font: 8px 'Arial', sans-serif; text-anchor: end" x="50.6" y="215.407125" transform="rotate(-0 50.6 215.407125)">7.5</text>
     </g>
    </g>
    <g id="ytick_5">
     <g id="line2d_11">
      <g>
       <use xlink:href="#mcef37a7d48" x="57.6" y="180.864" style="stroke: #000000; stroke-width: 0.8"/>
      </g>
     </g>
     <g id="text_12">
      <text style="font: 8px 'Arial', sans-serif; text-anchor: end" x="50.6" y="183.727125" transform="rotate(-0 50.6 183.727125)">10.0</text>
     </g>
    </g>
    <g id="ytick_6">
     <g id="line2d_12">
      <g>
       <use xlink:href="#mcef37a7d48" x="57.6" y="149.184" style="stroke: #000000; stroke-width: 0.8"/>
      </g>
     </g>
     <g id="text_13">
      <text style="font: 8px 'Arial', sans-serif; text-anchor: end" x="50.6" y="152.047125" transform="rotate(-0 50.6 152.047125)">12.5</text>
     </g>
    </g>
    <g id="ytick_7">
     <g id="line2d_13">
      <g>
       <use xlink:href="#mcef37a7d48" x="57.6" y="117.504" style="stroke: #000000; stroke-width: 0.8"/>
      </g>
     </g>
     <g id="text_14">
      <text style="font: 8px 'Arial', sans-serif; text-anchor: end" x="50.6" y="120.367125" transform="rotate(-0 50.6 120.367125)">15.0</text>
     </g>
    </g>
    <g id="ytick_8">
     <g id="line2d_14">
      <g>
       <use xlink:href="#mcef37a7d48" x="57.6" y="85.824" style="stroke: #000000; stroke-width: 0.8"/>
      </g>
     </g>
     <g id="text_15">
      <text style="font: 8px 'Arial', sans-serif; text-anchor: end" x="50.6" y="88.687125" transform="rotate(-0 50.6 88.687125)">17.5</text>
     </g>
    </g>
    <g id="ytick_9">
     <g id="line2d_15">
      <g>
       <use xlink:href="#mcef37a7d48" x="57.6" y="54.144" style="stroke: #000000; stroke-width: 0.8"/>
      </g>
     </g>
     <g id="text_16">
      <text style="font: 8px 'Arial', sans-serif; text-anchor: end" x="50.6" y="57.007125" transform="rotate(-0 50.6 57.007125)">20.0</text>
     </g>
    </g>
    <g id="text_17">
     <text style="font: 8px 'Arial', sans-serif; text-anchor: middle" x="29.3475" y="174.528" transform="rotate(-90 29.3475 174.528)">Density</text>
    </g>
   </g>
   <g id="patch_102">
    <path d="M 57.6 307.584 
L 57.6 41.472 
" style="fill: none; stroke: #000000; stroke-width: 0.8; stroke-linejoin: miter; stroke-linecap: square"/>
   </g>
   <g id="patch_103">
    <path d="M 57.6 307.584 
L 414.72 307.584 
" style="fill: none; stroke: #000000; stroke-width: 0.8; stroke-linejoin: miter; stroke-linecap: square"/>
   </g>
   <g id="text_18">
    <text style="font: 9.6px 'Arial', sans-serif; text-anchor: middle" x="236.16" y="35.472" transform="rotate(-0 236.16 35.472)">Med Associates</text>
   </g>
  </g>
 </g>
 <defs>
  <clipPath id="pb11ef0e1ed">
   <rect x="57.6" y="41.472" width="357.12" height="266.112"/>
  </clipPath>
 </defs>
</svg>
