<?xml version="1.0" encoding="utf-8" standalone="no"?>
<!DOCTYPE svg PUBLIC "-//W3C//DTD SVG 1.1//EN"
  "http://www.w3.org/Graphics/SVG/1.1/DTD/svg11.dtd">
<svg xmlns:xlink="http://www.w3.org/1999/xlink" width="522.609687pt" height="243.64005pt" viewBox="0 0 522.609687 243.64005" xmlns="http://www.w3.org/2000/svg" version="1.1">
 <metadata>
  <rdf:RDF xmlns:dc="http://purl.org/dc/elements/1.1/" xmlns:cc="http://creativecommons.org/ns#" xmlns:rdf="http://www.w3.org/1999/02/22-rdf-syntax-ns#">
   <cc:Work>
    <dc:type rdf:resource="http://purl.org/dc/dcmitype/StillImage"/>
    <dc:date>2023-10-17T22:50:09.533666</dc:date>
    <dc:format>image/svg+xml</dc:format>
    <dc:creator>
     <cc:Agent>
      <dc:title>Matplotlib v3.6.2, https://matplotlib.org/</dc:title>
     </cc:Agent>
    </dc:creator>
   </cc:Work>
  </rdf:RDF>
 </metadata>
 <defs>
  <style type="text/css">*{stroke-linejoin: round; stroke-linecap: butt}</style>
 </defs>
 <g id="figure_1">
  <g id="patch_1">
   <path d="M 0 243.64005 
L 522.609687 243.64005 
L 522.609687 0 
L 0 0 
L 0 243.64005 
z
" style="fill: none"/>
  </g>
  <g id="axes_1">
   <g id="patch_2">
    <path d="M 35.717188 222.1238 
L 208.760312 222.1238 
L 208.760312 56.2658 
L 35.717188 56.2658 
L 35.717188 222.1238 
z
" style="fill: none"/>
   </g>
   <g id="patch_3">
    <path d="M 78.977969 217.335479 
L 78.977969 217.335479 
L 78.977969 217.335479 
L 78.977969 217.335479 
z
" clip-path="url(#p233bc87b1a)" style="fill: #d4d4d4"/>
   </g>
   <g id="PolyCollection_1">
    <defs>
     <path id="mfe58d3c57f" d="M 62.334613 -45.805779 
L 61.0127 -45.805779 
L 60.876303 -46.945477 
L 60.71797 -48.085176 
L 60.535524 -49.224874 
L 60.326831 -50.364572 
L 60.089856 -51.504271 
L 59.822718 -52.643969 
L 59.523751 -53.783667 
L 59.191567 -54.923366 
L 58.825109 -56.063064 
L 58.42371 -57.202762 
L 57.987139 -58.342461 
L 57.515644 -59.482159 
L 57.009983 -60.621857 
L 56.471445 -61.761556 
L 55.901862 -62.901254 
L 55.303606 -64.040952 
L 54.679582 -65.180651 
L 54.033202 -66.320349 
L 53.368361 -67.460047 
L 52.689403 -68.599746 
L 52.001075 -69.739444 
L 51.308487 -70.879142 
L 50.617065 -72.018841 
L 49.932502 -73.158539 
L 49.260708 -74.298237 
L 48.607756 -75.437936 
L 47.979828 -76.577634 
L 47.383154 -77.717332 
L 46.823944 -78.857031 
L 46.308315 -79.996729 
L 45.842203 -81.136428 
L 45.431271 -82.276126 
L 45.080804 -83.415824 
L 44.79559 -84.555523 
L 44.579803 -85.695221 
L 44.436868 -86.834919 
L 44.369344 -87.974618 
L 44.378795 -89.114316 
L 44.465684 -90.254014 
L 44.629286 -91.393713 
L 44.867614 -92.533411 
L 45.177392 -93.673109 
L 45.554053 -94.812808 
L 45.991783 -95.952506 
L 46.483599 -97.092204 
L 47.021481 -98.231903 
L 47.596532 -99.371601 
L 48.199184 -100.511299 
L 48.819426 -101.650998 
L 49.447059 -102.790696 
L 50.071965 -103.930394 
L 50.684377 -105.070093 
L 51.275147 -106.209791 
L 51.83599 -107.349489 
L 52.359714 -108.489188 
L 52.8404 -109.628886 
L 53.273555 -110.768584 
L 53.656208 -111.908283 
L 53.986961 -113.047981 
L 54.265979 -114.187679 
L 54.494942 -115.327378 
L 54.676937 -116.467076 
L 54.816306 -117.606774 
L 54.918461 -118.746473 
L 54.989665 -119.886171 
L 55.036791 -121.025869 
L 55.067066 -122.165568 
L 55.087818 -123.305266 
L 55.10622 -124.444964 
L 55.12906 -125.584663 
L 55.162528 -126.724361 
L 55.212036 -127.864059 
L 55.282074 -129.003758 
L 55.376106 -130.143456 
L 55.496516 -131.283154 
L 55.644581 -132.422853 
L 55.820503 -133.562551 
L 56.023467 -134.702249 
L 56.251741 -135.841948 
L 56.502792 -136.981646 
L 56.773436 -138.121345 
L 57.059991 -139.261043 
L 57.358442 -140.400741 
L 57.664602 -141.54044 
L 57.974265 -142.680138 
L 58.283349 -143.819836 
L 58.588015 -144.959535 
L 58.884772 -146.099233 
L 59.170553 -147.238931 
L 59.442769 -148.37863 
L 59.699341 -149.518328 
L 59.938707 -150.658026 
L 60.159814 -151.797725 
L 60.362085 -152.937423 
L 60.54538 -154.077121 
L 60.709947 -155.21682 
L 60.856359 -156.356518 
L 60.985457 -157.496216 
L 61.098291 -158.635915 
L 62.249022 -158.635915 
L 62.249022 -158.635915 
L 62.361855 -157.496216 
L 62.490954 -156.356518 
L 62.637366 -155.21682 
L 62.801932 -154.077121 
L 62.985228 -152.937423 
L 63.187498 -151.797725 
L 63.408605 -150.658026 
L 63.647972 -149.518328 
L 63.904544 -148.37863 
L 64.17676 -147.238931 
L 64.46254 -146.099233 
L 64.759297 -144.959535 
L 65.063963 -143.819836 
L 65.373047 -142.680138 
L 65.682711 -141.54044 
L 65.988871 -140.400741 
L 66.287322 -139.261043 
L 66.573877 -138.121345 
L 66.84452 -136.981646 
L 67.095572 -135.841948 
L 67.323845 -134.702249 
L 67.52681 -133.562551 
L 67.702732 -132.422853 
L 67.850797 -131.283154 
L 67.971206 -130.143456 
L 68.065239 -129.003758 
L 68.135276 -127.864059 
L 68.184784 -126.724361 
L 68.218252 -125.584663 
L 68.241093 -124.444964 
L 68.259495 -123.305266 
L 68.280246 -122.165568 
L 68.310522 -121.025869 
L 68.357648 -119.886171 
L 68.428852 -118.746473 
L 68.531007 -117.606774 
L 68.670376 -116.467076 
L 68.85237 -115.327378 
L 69.081334 -114.187679 
L 69.360352 -113.047981 
L 69.691104 -111.908283 
L 70.073758 -110.768584 
L 70.506913 -109.628886 
L 70.987599 -108.489188 
L 71.511322 -107.349489 
L 72.072166 -106.209791 
L 72.662935 -105.070093 
L 73.275347 -103.930394 
L 73.900253 -102.790696 
L 74.527886 -101.650998 
L 75.148128 -100.511299 
L 75.75078 -99.371601 
L 76.325832 -98.231903 
L 76.863714 -97.092204 
L 77.35553 -95.952506 
L 77.793259 -94.812808 
L 78.169921 -93.673109 
L 78.479699 -92.533411 
L 78.718027 -91.393713 
L 78.881628 -90.254014 
L 78.968518 -89.114316 
L 78.977969 -87.974618 
L 78.910444 -86.834919 
L 78.76751 -85.695221 
L 78.551722 -84.555523 
L 78.266509 -83.415824 
L 77.916042 -82.276126 
L 77.50511 -81.136428 
L 77.038998 -79.996729 
L 76.523368 -78.857031 
L 75.964158 -77.717332 
L 75.367484 -76.577634 
L 74.739557 -75.437936 
L 74.086605 -74.298237 
L 73.41481 -73.158539 
L 72.730247 -72.018841 
L 72.038826 -70.879142 
L 71.346238 -69.739444 
L 70.657909 -68.599746 
L 69.978951 -67.460047 
L 69.314111 -66.320349 
L 68.667731 -65.180651 
L 68.043706 -64.040952 
L 67.445451 -62.901254 
L 66.875868 -61.761556 
L 66.33733 -60.621857 
L 65.831669 -59.482159 
L 65.360174 -58.342461 
L 64.923603 -57.202762 
L 64.522203 -56.063064 
L 64.155745 -54.923366 
L 63.823561 -53.783667 
L 63.524595 -52.643969 
L 63.257457 -51.504271 
L 63.020481 -50.364572 
L 62.811788 -49.224874 
L 62.629342 -48.085176 
L 62.471009 -46.945477 
L 62.334613 -45.805779 
z
"/>
    </defs>
    <g clip-path="url(#p233bc87b1a)">
     <use xlink:href="#mfe58d3c57f" x="0" y="243.64005" style="fill: #d4d4d4"/>
    </g>
   </g>
   <g id="patch_4">
    <path d="M 78.977969 217.335479 
L 78.977969 217.335479 
L 78.977969 217.335479 
L 78.977969 217.335479 
z
" clip-path="url(#p233bc87b1a)" style="fill: #11d6de"/>
   </g>
   <g id="PolyCollection_2">
    <defs>
     <path id="m4830f6789a" d="M 96.811325 -29.05525 
L 95.753238 -29.05525 
L 95.648814 -30.038939 
L 95.528619 -31.022627 
L 95.391251 -32.006316 
L 95.235352 -32.990004 
L 95.059635 -33.973693 
L 94.862913 -34.957382 
L 94.644129 -35.94107 
L 94.402381 -36.924759 
L 94.136942 -37.908448 
L 93.84729 -38.892136 
L 93.533117 -39.875825 
L 93.194352 -40.859513 
L 92.831167 -41.843202 
L 92.443994 -42.826891 
L 92.033532 -43.810579 
L 91.600754 -44.794268 
L 91.146919 -45.777957 
L 90.673576 -46.761645 
L 90.182577 -47.745334 
L 89.676078 -48.729022 
L 89.156545 -49.712711 
L 88.626758 -50.6964 
L 88.089798 -51.680088 
L 87.549037 -52.663777 
L 87.008106 -53.647466 
L 86.47086 -54.631154 
L 85.941317 -55.614843 
L 85.423593 -56.598531 
L 84.921809 -57.58222 
L 84.439994 -58.565909 
L 83.981975 -59.549597 
L 83.551257 -60.533286 
L 83.150914 -61.516975 
L 82.783471 -62.500663 
L 82.450814 -63.484352 
L 82.154111 -64.46804 
L 81.893767 -65.451729 
L 81.669399 -66.435418 
L 81.479861 -67.419106 
L 81.323292 -68.402795 
L 81.1972 -69.386483 
L 81.098584 -70.370172 
L 81.02407 -71.353861 
L 80.970076 -72.337549 
L 80.932973 -73.321238 
L 80.909255 -74.304927 
L 80.895693 -75.288615 
L 80.889476 -76.272304 
L 80.888317 -77.255992 
L 80.890538 -78.239681 
L 80.895115 -79.22337 
L 80.901693 -80.207058 
L 80.910562 -81.190747 
L 80.922611 -82.174436 
L 80.939255 -83.158124 
L 80.962347 -84.141813 
L 80.994076 -85.125501 
L 81.036861 -86.10919 
L 81.093258 -87.092879 
L 81.165858 -88.076567 
L 81.257204 -89.060256 
L 81.369723 -90.043945 
L 81.505665 -91.027633 
L 81.667051 -92.011322 
L 81.855641 -92.99501 
L 82.072902 -93.978699 
L 82.319976 -94.962388 
L 82.597664 -95.946076 
L 82.906399 -96.929765 
L 83.24622 -97.913454 
L 83.616757 -98.897142 
L 84.017203 -99.880831 
L 84.446296 -100.864519 
L 84.902312 -101.848208 
L 85.383057 -102.831897 
L 85.88588 -103.815585 
L 86.40769 -104.799274 
L 86.945 -105.782963 
L 87.493976 -106.766651 
L 88.05051 -107.75034 
L 88.610301 -108.734028 
L 89.16895 -109.717717 
L 89.72206 -110.701406 
L 90.265341 -111.685094 
L 90.79471 -112.668783 
L 91.306389 -113.652471 
L 91.796987 -114.63616 
L 92.26357 -115.619849 
L 92.703719 -116.603537 
L 93.115557 -117.587226 
L 93.49777 -118.570915 
L 93.8496 -119.554603 
L 94.170821 -120.538292 
L 94.461707 -121.52198 
L 94.722976 -122.505669 
L 94.955733 -123.489358 
L 95.161402 -124.473046 
L 95.341659 -125.456735 
L 95.498364 -126.440424 
L 97.066199 -126.440424 
L 97.066199 -126.440424 
L 97.222903 -125.456735 
L 97.403161 -124.473046 
L 97.60883 -123.489358 
L 97.841586 -122.505669 
L 98.102855 -121.52198 
L 98.393741 -120.538292 
L 98.714963 -119.554603 
L 99.066792 -118.570915 
L 99.449006 -117.587226 
L 99.860844 -116.603537 
L 100.300992 -115.619849 
L 100.767576 -114.63616 
L 101.258173 -113.652471 
L 101.769852 -112.668783 
L 102.299221 -111.685094 
L 102.842502 -110.701406 
L 103.395613 -109.717717 
L 103.954262 -108.734028 
L 104.514053 -107.75034 
L 105.070587 -106.766651 
L 105.619563 -105.782963 
L 106.156872 -104.799274 
L 106.678683 -103.815585 
L 107.181505 -102.831897 
L 107.662251 -101.848208 
L 108.118267 -100.864519 
L 108.54736 -99.880831 
L 108.947805 -98.897142 
L 109.318342 -97.913454 
L 109.658164 -96.929765 
L 109.966898 -95.946076 
L 110.244586 -94.962388 
L 110.491661 -93.978699 
L 110.708921 -92.99501 
L 110.897512 -92.011322 
L 111.058898 -91.027633 
L 111.194839 -90.043945 
L 111.307358 -89.060256 
L 111.398705 -88.076567 
L 111.471304 -87.092879 
L 111.527701 -86.10919 
L 111.570487 -85.125501 
L 111.602215 -84.141813 
L 111.625307 -83.158124 
L 111.641952 -82.174436 
L 111.654001 -81.190747 
L 111.66287 -80.207058 
L 111.669447 -79.22337 
L 111.674025 -78.239681 
L 111.676246 -77.255992 
L 111.675086 -76.272304 
L 111.668869 -75.288615 
L 111.655308 -74.304927 
L 111.63159 -73.321238 
L 111.594487 -72.337549 
L 111.540492 -71.353861 
L 111.465979 -70.370172 
L 111.367362 -69.386483 
L 111.241271 -68.402795 
L 111.084701 -67.419106 
L 110.895164 -66.435418 
L 110.670796 -65.451729 
L 110.410451 -64.46804 
L 110.113749 -63.484352 
L 109.781091 -62.500663 
L 109.413648 -61.516975 
L 109.013305 -60.533286 
L 108.582588 -59.549597 
L 108.124568 -58.565909 
L 107.642753 -57.58222 
L 107.140969 -56.598531 
L 106.623245 -55.614843 
L 106.093703 -54.631154 
L 105.556457 -53.647466 
L 105.015526 -52.663777 
L 104.474764 -51.680088 
L 103.937804 -50.6964 
L 103.408017 -49.712711 
L 102.888485 -48.729022 
L 102.381985 -47.745334 
L 101.890986 -46.761645 
L 101.417644 -45.777957 
L 100.963809 -44.794268 
L 100.531031 -43.810579 
L 100.120569 -42.826891 
L 99.733396 -41.843202 
L 99.370211 -40.859513 
L 99.031445 -39.875825 
L 98.717272 -38.892136 
L 98.42762 -37.908448 
L 98.162182 -36.924759 
L 97.920433 -35.94107 
L 97.70165 -34.957382 
L 97.504928 -33.973693 
L 97.329211 -32.990004 
L 97.173311 -32.006316 
L 97.035944 -31.022627 
L 96.915749 -30.038939 
L 96.811325 -29.05525 
z
"/>
    </defs>
    <g clip-path="url(#p233bc87b1a)">
     <use xlink:href="#m4830f6789a" x="0" y="243.64005" style="fill: #11d6de"/>
    </g>
   </g>
   <g id="PolyCollection_3">
    <defs>
     <path id="mde1769c7bb" d="M 148.906907 -36.858822 
L 147.48353 -36.858822 
L 147.337694 -37.982514 
L 147.168987 -39.106206 
L 146.975407 -40.229899 
L 146.755103 -41.353591 
L 146.506459 -42.477283 
L 146.228175 -43.600975 
L 145.919355 -44.724668 
L 145.579591 -45.84836 
L 145.209042 -46.972052 
L 144.808503 -48.095744 
L 144.379465 -49.219437 
L 143.92415 -50.343129 
L 143.445529 -51.466821 
L 142.947315 -52.590513 
L 142.433927 -53.714205 
L 141.910431 -54.837898 
L 141.382449 -55.96159 
L 140.856042 -57.085282 
L 140.337578 -58.208974 
L 139.833573 -59.332667 
L 139.350524 -60.456359 
L 138.89474 -61.580051 
L 138.472168 -62.703743 
L 138.088229 -63.827436 
L 137.747678 -64.951128 
L 137.454473 -66.07482 
L 137.211687 -67.198512 
L 137.021436 -68.322205 
L 136.884853 -69.445897 
L 136.802088 -70.569589 
L 136.77235 -71.693281 
L 136.793968 -72.816974 
L 136.864482 -73.940666 
L 136.980763 -75.064358 
L 137.139126 -76.18805 
L 137.335472 -77.311742 
L 137.565411 -78.435435 
L 137.824393 -79.559127 
L 138.107818 -80.682819 
L 138.411135 -81.806511 
L 138.729926 -82.930204 
L 139.059962 -84.053896 
L 139.397247 -85.177588 
L 139.738046 -86.30128 
L 140.078894 -87.424973 
L 140.416596 -88.548665 
L 140.74822 -89.672357 
L 141.071087 -90.796049 
L 141.382764 -91.919742 
L 141.681053 -93.043434 
L 141.963998 -94.167126 
L 142.229887 -95.290818 
L 142.477272 -96.414511 
L 142.704988 -97.538203 
L 142.912184 -98.661895 
L 143.098346 -99.785587 
L 143.263335 -100.90928 
L 143.407403 -102.032972 
L 143.531217 -103.156664 
L 143.635862 -104.280356 
L 143.722836 -105.404048 
L 143.794029 -106.527741 
L 143.851687 -107.651433 
L 143.898357 -108.775125 
L 143.936822 -109.898817 
L 143.970026 -111.02251 
L 144.000979 -112.146202 
L 144.032672 -113.269894 
L 144.067977 -114.393586 
L 144.109557 -115.517279 
L 144.159786 -116.640971 
L 144.220669 -117.764663 
L 144.293789 -118.888355 
L 144.380261 -120.012048 
L 144.480712 -121.13574 
L 144.59527 -122.259432 
L 144.723583 -123.383124 
L 144.864848 -124.506817 
L 145.017861 -125.630509 
L 145.181069 -126.754201 
L 145.352648 -127.877893 
L 145.530571 -129.001585 
L 145.712691 -130.125278 
L 145.896814 -131.24897 
L 146.080774 -132.372662 
L 146.262499 -133.496354 
L 146.440068 -134.620047 
L 146.611756 -135.743739 
L 146.776071 -136.867431 
L 146.931778 -137.991123 
L 147.077909 -139.114816 
L 147.213766 -140.238508 
L 147.338909 -141.3622 
L 147.453146 -142.485892 
L 147.556503 -143.609585 
L 147.649204 -144.733277 
L 147.731632 -145.856969 
L 147.804306 -146.980661 
L 147.867844 -148.104354 
L 148.522593 -148.104354 
L 148.522593 -148.104354 
L 148.586132 -146.980661 
L 148.658806 -145.856969 
L 148.741234 -144.733277 
L 148.833934 -143.609585 
L 148.937291 -142.485892 
L 149.051528 -141.3622 
L 149.176672 -140.238508 
L 149.312528 -139.114816 
L 149.458659 -137.991123 
L 149.614367 -136.867431 
L 149.778682 -135.743739 
L 149.95037 -134.620047 
L 150.127938 -133.496354 
L 150.309663 -132.372662 
L 150.493623 -131.24897 
L 150.677746 -130.125278 
L 150.859866 -129.001585 
L 151.037789 -127.877893 
L 151.209368 -126.754201 
L 151.372577 -125.630509 
L 151.525589 -124.506817 
L 151.666855 -123.383124 
L 151.795168 -122.259432 
L 151.909726 -121.13574 
L 152.010176 -120.012048 
L 152.096649 -118.888355 
L 152.169769 -117.764663 
L 152.230652 -116.640971 
L 152.28088 -115.517279 
L 152.322461 -114.393586 
L 152.357765 -113.269894 
L 152.389458 -112.146202 
L 152.420412 -111.02251 
L 152.453615 -109.898817 
L 152.492081 -108.775125 
L 152.538751 -107.651433 
L 152.596408 -106.527741 
L 152.667602 -105.404048 
L 152.754576 -104.280356 
L 152.859221 -103.156664 
L 152.983035 -102.032972 
L 153.127103 -100.90928 
L 153.292091 -99.785587 
L 153.478254 -98.661895 
L 153.685449 -97.538203 
L 153.913166 -96.414511 
L 154.160551 -95.290818 
L 154.42644 -94.167126 
L 154.709384 -93.043434 
L 155.007674 -91.919742 
L 155.31935 -90.796049 
L 155.642218 -89.672357 
L 155.973842 -88.548665 
L 156.311543 -87.424973 
L 156.652392 -86.30128 
L 156.993191 -85.177588 
L 157.330476 -84.053896 
L 157.660511 -82.930204 
L 157.979302 -81.806511 
L 158.28262 -80.682819 
L 158.566045 -79.559127 
L 158.825026 -78.435435 
L 159.054965 -77.311742 
L 159.251311 -76.18805 
L 159.409675 -75.064358 
L 159.525955 -73.940666 
L 159.59647 -72.816974 
L 159.618087 -71.693281 
L 159.588349 -70.569589 
L 159.505585 -69.445897 
L 159.369001 -68.322205 
L 159.17875 -67.198512 
L 158.935964 -66.07482 
L 158.64276 -64.951128 
L 158.302208 -63.827436 
L 157.91827 -62.703743 
L 157.495697 -61.580051 
L 157.039913 -60.456359 
L 156.556865 -59.332667 
L 156.05286 -58.208974 
L 155.534395 -57.085282 
L 155.007989 -55.96159 
L 154.480006 -54.837898 
L 153.95651 -53.714205 
L 153.443122 -52.590513 
L 152.944908 -51.466821 
L 152.466287 -50.343129 
L 152.010972 -49.219437 
L 151.581934 -48.095744 
L 151.181396 -46.972052 
L 150.810846 -45.84836 
L 150.471082 -44.724668 
L 150.162262 -43.600975 
L 149.883978 -42.477283 
L 149.635334 -41.353591 
L 149.41503 -40.229899 
L 149.22145 -39.106206 
L 149.052744 -37.982514 
L 148.906907 -36.858822 
z
"/>
    </defs>
    <g clip-path="url(#p233bc87b1a)">
     <use xlink:href="#mde1769c7bb" x="0" y="243.64005" style="fill: #d4d4d4"/>
    </g>
   </g>
   <g id="PolyCollection_4">
    <defs>
     <path id="mb0f4b44e55" d="M 183.809264 -38.171012 
L 181.798423 -38.171012 
L 181.597618 -38.799016 
L 181.367023 -39.42702 
L 181.104526 -40.055023 
L 180.808348 -40.683027 
L 180.477157 -41.311031 
L 180.110171 -41.939035 
L 179.707272 -42.567039 
L 179.269095 -43.195042 
L 178.797106 -43.823046 
L 178.293657 -44.45105 
L 177.76201 -45.079054 
L 177.206325 -45.707058 
L 176.631612 -46.335062 
L 176.043637 -46.963065 
L 175.448794 -47.591069 
L 174.853927 -48.219073 
L 174.266131 -48.847077 
L 173.692511 -49.475081 
L 173.139935 -50.103084 
L 172.614768 -50.731088 
L 172.122624 -51.359092 
L 171.668126 -51.987096 
L 171.254702 -52.6151 
L 170.884427 -53.243103 
L 170.557917 -53.871107 
L 170.274285 -54.499111 
L 170.031172 -55.127115 
L 169.824836 -55.755119 
L 169.650317 -56.383123 
L 169.501664 -57.011126 
L 169.372202 -57.63913 
L 169.254852 -58.267134 
L 169.142466 -58.895138 
L 169.028166 -59.523142 
L 168.905682 -60.151145 
L 168.769654 -60.779149 
L 168.615895 -61.407153 
L 168.441596 -62.035157 
L 168.24547 -62.663161 
L 168.027818 -63.291164 
L 167.790525 -63.919168 
L 167.53698 -64.547172 
L 167.271931 -65.175176 
L 167.001281 -65.80318 
L 166.731832 -66.431183 
L 166.471001 -67.059187 
L 166.226513 -67.687191 
L 166.00609 -68.315195 
L 165.81715 -68.943199 
L 165.666533 -69.571203 
L 165.560254 -70.199206 
L 165.503311 -70.82721 
L 165.499531 -71.455214 
L 165.551483 -72.083218 
L 165.660434 -72.711222 
L 165.826371 -73.339225 
L 166.048061 -73.967229 
L 166.323157 -74.595233 
L 166.648343 -75.223237 
L 167.019502 -75.851241 
L 167.431896 -76.479244 
L 167.880366 -77.107248 
L 168.359514 -77.735252 
L 168.863885 -78.363256 
L 169.388131 -78.99126 
L 169.927149 -79.619264 
L 170.476192 -80.247267 
L 171.030952 -80.875271 
L 171.587613 -81.503275 
L 172.142872 -82.131279 
L 172.693938 -82.759283 
L 173.238501 -83.387286 
L 173.77469 -84.01529 
L 174.30101 -84.643294 
L 174.816276 -85.271298 
L 175.31954 -85.899302 
L 175.810026 -86.527305 
L 176.287062 -87.155309 
L 176.750033 -87.783313 
L 177.198334 -88.411317 
L 177.631348 -89.039321 
L 178.04843 -89.667325 
L 178.448908 -90.295328 
L 178.83209 -90.923332 
L 179.197293 -91.551336 
L 179.543861 -92.17934 
L 179.871202 -92.807344 
L 180.178814 -93.435347 
L 180.466322 -94.063351 
L 180.733498 -94.691355 
L 180.980282 -95.319359 
L 181.206797 -95.947363 
L 181.413351 -96.575366 
L 181.600434 -97.20337 
L 181.768712 -97.831374 
L 181.919005 -98.459378 
L 182.05227 -99.087382 
L 182.169572 -99.715386 
L 182.272059 -100.343389 
L 183.335629 -100.343389 
L 183.335629 -100.343389 
L 183.438115 -99.715386 
L 183.555417 -99.087382 
L 183.688682 -98.459378 
L 183.838976 -97.831374 
L 184.007253 -97.20337 
L 184.194337 -96.575366 
L 184.40089 -95.947363 
L 184.627405 -95.319359 
L 184.874189 -94.691355 
L 185.141365 -94.063351 
L 185.428873 -93.435347 
L 185.736486 -92.807344 
L 186.063826 -92.17934 
L 186.410394 -91.551336 
L 186.775597 -90.923332 
L 187.15878 -90.295328 
L 187.559257 -89.667325 
L 187.976339 -89.039321 
L 188.409353 -88.411317 
L 188.857654 -87.783313 
L 189.320625 -87.155309 
L 189.797662 -86.527305 
L 190.288147 -85.899302 
L 190.791412 -85.271298 
L 191.306678 -84.643294 
L 191.832998 -84.01529 
L 192.369187 -83.387286 
L 192.91375 -82.759283 
L 193.464815 -82.131279 
L 194.020075 -81.503275 
L 194.576735 -80.875271 
L 195.131496 -80.247267 
L 195.680539 -79.619264 
L 196.219557 -78.99126 
L 196.743803 -78.363256 
L 197.248174 -77.735252 
L 197.727321 -77.107248 
L 198.175791 -76.479244 
L 198.588186 -75.851241 
L 198.959344 -75.223237 
L 199.284531 -74.595233 
L 199.559626 -73.967229 
L 199.781316 -73.339225 
L 199.947253 -72.711222 
L 200.056205 -72.083218 
L 200.108156 -71.455214 
L 200.104376 -70.82721 
L 200.047433 -70.199206 
L 199.941155 -69.571203 
L 199.790538 -68.943199 
L 199.601598 -68.315195 
L 199.381174 -67.687191 
L 199.136686 -67.059187 
L 198.875855 -66.431183 
L 198.606406 -65.80318 
L 198.335756 -65.175176 
L 198.070708 -64.547172 
L 197.817163 -63.919168 
L 197.579869 -63.291164 
L 197.362217 -62.663161 
L 197.166091 -62.035157 
L 196.991792 -61.407153 
L 196.838033 -60.779149 
L 196.702005 -60.151145 
L 196.579521 -59.523142 
L 196.465222 -58.895138 
L 196.352835 -58.267134 
L 196.235486 -57.63913 
L 196.106024 -57.011126 
L 195.95737 -56.383123 
L 195.782852 -55.755119 
L 195.576515 -55.127115 
L 195.333402 -54.499111 
L 195.049771 -53.871107 
L 194.723261 -53.243103 
L 194.352986 -52.6151 
L 193.939562 -51.987096 
L 193.485063 -51.359092 
L 192.992919 -50.731088 
L 192.467753 -50.103084 
L 191.915176 -49.475081 
L 191.341556 -48.847077 
L 190.75376 -48.219073 
L 190.158894 -47.591069 
L 189.56405 -46.963065 
L 188.976075 -46.335062 
L 188.401362 -45.707058 
L 187.845678 -45.079054 
L 187.314031 -44.45105 
L 186.810582 -43.823046 
L 186.338592 -43.195042 
L 185.900415 -42.567039 
L 185.497516 -41.939035 
L 185.130531 -41.311031 
L 184.799339 -40.683027 
L 184.503162 -40.055023 
L 184.240665 -39.42702 
L 184.01007 -38.799016 
L 183.809264 -38.171012 
z
"/>
    </defs>
    <g clip-path="url(#p233bc87b1a)">
     <use xlink:href="#mb0f4b44e55" x="0" y="243.64005" style="fill: #11d6de"/>
    </g>
   </g>
   <g id="matplotlib.axis_1">
    <g id="xtick_1">
     <g id="line2d_1">
      <defs>
       <path id="m362f3f2ff2" d="M 0 0 
L 0 3.5 
" style="stroke: #000000; stroke-width: 0.8"/>
      </defs>
      <g>
       <use xlink:href="#m362f3f2ff2" x="78.977969" y="222.1238" style="stroke: #000000; stroke-width: 0.8"/>
      </g>
     </g>
     <g id="text_1">
      <text style="font: 8px 'Arial', sans-serif; text-anchor: middle" x="78.977969" y="234.85005" transform="rotate(-0 78.977969 234.85005)">Male</text>
     </g>
    </g>
    <g id="xtick_2">
     <g id="line2d_2">
      <g>
       <use xlink:href="#m362f3f2ff2" x="165.499531" y="222.1238" style="stroke: #000000; stroke-width: 0.8"/>
      </g>
     </g>
     <g id="text_2">
      <text style="font: 8px 'Arial', sans-serif; text-anchor: middle" x="165.499531" y="234.85005" transform="rotate(-0 165.499531 234.85005)">Female</text>
     </g>
    </g>
   </g>
   <g id="matplotlib.axis_2">
    <g id="ytick_1">
     <g id="line2d_3">
      <defs>
       <path id="m2fcff9781b" d="M 0 0 
L -3.5 0 
" style="stroke: #000000; stroke-width: 0.8"/>
      </defs>
      <g>
       <use xlink:href="#m2fcff9781b" x="35.717188" y="217.335479" style="stroke: #000000; stroke-width: 0.8"/>
      </g>
     </g>
     <g id="text_3">
      <text style="font: 6px 'Arial', sans-serif; text-anchor: end" x="28.717188" y="219.482823" transform="rotate(-0 28.717188 219.482823)">0</text>
     </g>
    </g>
    <g id="ytick_2">
     <g id="line2d_4">
      <g>
       <use xlink:href="#m2fcff9781b" x="35.717188" y="192.36302" style="stroke: #000000; stroke-width: 0.8"/>
      </g>
     </g>
     <g id="text_4">
      <text style="font: 6px 'Arial', sans-serif; text-anchor: end" x="28.717188" y="194.510364" transform="rotate(-0 28.717188 194.510364)">50</text>
     </g>
    </g>
    <g id="ytick_3">
     <g id="line2d_5">
      <g>
       <use xlink:href="#m2fcff9781b" x="35.717188" y="167.390561" style="stroke: #000000; stroke-width: 0.8"/>
      </g>
     </g>
     <g id="text_5">
      <text style="font: 6px 'Arial', sans-serif; text-anchor: end" x="28.717188" y="169.537905" transform="rotate(-0 28.717188 169.537905)">100</text>
     </g>
    </g>
    <g id="ytick_4">
     <g id="line2d_6">
      <g>
       <use xlink:href="#m2fcff9781b" x="35.717188" y="142.418102" style="stroke: #000000; stroke-width: 0.8"/>
      </g>
     </g>
     <g id="text_6">
      <text style="font: 6px 'Arial', sans-serif; text-anchor: end" x="28.717188" y="144.565445" transform="rotate(-0 28.717188 144.565445)">150</text>
     </g>
    </g>
    <g id="ytick_5">
     <g id="line2d_7">
      <g>
       <use xlink:href="#m2fcff9781b" x="35.717188" y="117.445642" style="stroke: #000000; stroke-width: 0.8"/>
      </g>
     </g>
     <g id="text_7">
      <text style="font: 6px 'Arial', sans-serif; text-anchor: end" x="28.717188" y="119.592986" transform="rotate(-0 28.717188 119.592986)">200</text>
     </g>
    </g>
    <g id="ytick_6">
     <g id="line2d_8">
      <g>
       <use xlink:href="#m2fcff9781b" x="35.717188" y="92.473183" style="stroke: #000000; stroke-width: 0.8"/>
      </g>
     </g>
     <g id="text_8">
      <text style="font: 6px 'Arial', sans-serif; text-anchor: end" x="28.717188" y="94.620527" transform="rotate(-0 28.717188 94.620527)">250</text>
     </g>
    </g>
    <g id="ytick_7">
     <g id="line2d_9">
      <g>
       <use xlink:href="#m2fcff9781b" x="35.717188" y="67.500724" style="stroke: #000000; stroke-width: 0.8"/>
      </g>
     </g>
     <g id="text_9">
      <text style="font: 6px 'Arial', sans-serif; text-anchor: end" x="28.717188" y="69.648068" transform="rotate(-0 28.717188 69.648068)">300</text>
     </g>
    </g>
    <g id="text_10">
     <text style="font: 8px 'Arial', sans-serif; text-anchor: middle" x="13.02375" y="139.1948" transform="rotate(-90 13.02375 139.1948)">Cummulative Testing Lick Bursts</text>
    </g>
   </g>
   <g id="line2d_10">
    <path d="M 61.673656 171.386154 
L 61.673656 144.915347 
" clip-path="url(#p233bc87b1a)" style="fill: none"/>
   </g>
   <g id="line2d_11">
    <path d="M 61.673656 159.898823 
L 61.673656 144.915347 
" clip-path="url(#p233bc87b1a)" style="fill: none"/>
   </g>
   <g id="line2d_12">
    <path d="M 96.282281 191.863571 
L 96.282281 139.920856 
" clip-path="url(#p233bc87b1a)" style="fill: none"/>
   </g>
   <g id="line2d_13">
    <path d="M 96.282281 176.380646 
L 96.282281 152.906534 
" clip-path="url(#p233bc87b1a)" style="fill: none"/>
   </g>
   <g id="line2d_14">
    <path d="M 148.195219 180.37624 
L 148.195219 121.940685 
" clip-path="url(#p233bc87b1a)" style="fill: none"/>
   </g>
   <g id="line2d_15">
    <path d="M 148.195219 176.505508 
L 148.195219 152.282223 
" clip-path="url(#p233bc87b1a)" style="fill: none"/>
   </g>
   <g id="line2d_16">
    <path d="M 182.803844 190.864672 
L 182.803844 157.901026 
" clip-path="url(#p233bc87b1a)" style="fill: none"/>
   </g>
   <g id="line2d_17">
    <path d="M 182.803844 188.367426 
L 182.803844 169.388358 
" clip-path="url(#p233bc87b1a)" style="fill: none"/>
   </g>
   <g id="line2d_18">
    <path d="M 96.282281 69.098961 
L 96.282281 63.8048 
L 182.803844 63.8048 
L 182.803844 69.098961 
" clip-path="url(#p233bc87b1a)" style="fill: none; stroke: #000000; stroke-width: 0.5; stroke-linecap: square"/>
   </g>
   <g id="line2d_19">
    <path d="M 61.673656 84.981445 
L 61.673656 79.687284 
L 148.195219 79.687284 
L 148.195219 84.981445 
" clip-path="url(#p233bc87b1a)" style="fill: none; stroke: #000000; stroke-width: 0.5; stroke-linecap: square"/>
   </g>
   <g id="line2d_20">
    <path d="M 148.195219 100.863929 
L 148.195219 95.569768 
L 182.803844 95.569768 
L 182.803844 100.863929 
" clip-path="url(#p233bc87b1a)" style="fill: none; stroke: #000000; stroke-width: 0.5; stroke-linecap: square"/>
   </g>
   <g id="line2d_21">
    <path d="M 61.673656 100.863929 
L 61.673656 95.569768 
L 96.282281 95.569768 
L 96.282281 100.863929 
" clip-path="url(#p233bc87b1a)" style="fill: none; stroke: #000000; stroke-width: 0.5; stroke-linecap: square"/>
   </g>
   <g id="patch_5">
    <path d="M 35.717188 222.1238 
L 35.717188 56.2658 
" style="fill: none; stroke: #000000; stroke-width: 0.8; stroke-linejoin: miter; stroke-linecap: square"/>
   </g>
   <g id="patch_6">
    <path d="M 35.717188 222.1238 
L 208.760312 222.1238 
" style="fill: none; stroke: #000000; stroke-width: 0.8; stroke-linejoin: miter; stroke-linecap: square"/>
   </g>
   <g id="PathCollection_1">
    <defs>
     <path id="C0_0_35aa800dfc" d="M 0 2.5 
C 0.663008 2.5 1.29895 2.236584 1.767767 1.767767 
C 2.236584 1.29895 2.5 0.663008 2.5 -0 
C 2.5 -0.663008 2.236584 -1.29895 1.767767 -1.767767 
C 1.29895 -2.236584 0.663008 -2.5 0 -2.5 
C -0.663008 -2.5 -1.29895 -2.236584 -1.767767 -1.767767 
C -2.236584 -1.29895 -2.5 -0.663008 -2.5 0 
C -2.5 0.663008 -2.236584 1.29895 -1.767767 1.767767 
C -1.29895 2.236584 -0.663008 2.5 0 2.5 
z
"/>
    </defs>
    <g clip-path="url(#p233bc87b1a)">
     <use xlink:href="#C0_0_35aa800dfc" x="61.673656" y="111.452252" style="fill: #262626; fill-opacity: 0.5"/>
    </g>
    <g clip-path="url(#p233bc87b1a)">
     <use xlink:href="#C0_0_35aa800dfc" x="63.972795" y="148.411492" style="fill: #262626; fill-opacity: 0.5"/>
    </g>
    <g clip-path="url(#p233bc87b1a)">
     <use xlink:href="#C0_0_35aa800dfc" x="56.529492" y="151.907636" style="fill: #262626; fill-opacity: 0.5"/>
    </g>
    <g clip-path="url(#p233bc87b1a)">
     <use xlink:href="#C0_0_35aa800dfc" x="61.673656" y="159.898823" style="fill: #262626; fill-opacity: 0.5"/>
    </g>
    <g clip-path="url(#p233bc87b1a)">
     <use xlink:href="#C0_0_35aa800dfc" x="61.427295" y="166.391662" style="fill: #262626; fill-opacity: 0.5"/>
    </g>
    <g clip-path="url(#p233bc87b1a)">
     <use xlink:href="#C0_0_35aa800dfc" x="61.673656" y="116.946193" style="fill: #262626; fill-opacity: 0.5"/>
    </g>
    <g clip-path="url(#p233bc87b1a)">
     <use xlink:href="#C0_0_35aa800dfc" x="61.673656" y="171.386154" style="fill: #262626; fill-opacity: 0.5"/>
    </g>
    <g clip-path="url(#p233bc87b1a)">
     <use xlink:href="#C0_0_35aa800dfc" x="61.673656" y="152.906534" style="fill: #262626; fill-opacity: 0.5"/>
    </g>
    <g clip-path="url(#p233bc87b1a)">
     <use xlink:href="#C0_0_35aa800dfc" x="60.219581" y="144.915347" style="fill: #262626; fill-opacity: 0.5"/>
    </g>
   </g>
   <g id="PathCollection_2">
    <defs>
     <path id="C1_0_9c0fb9dd7b" d="M 0 2.5 
C 0.663008 2.5 1.29895 2.236584 1.767767 1.767767 
C 2.236584 1.29895 2.5 0.663008 2.5 -0 
C 2.5 -0.663008 2.236584 -1.29895 1.767767 -1.767767 
C 1.29895 -2.236584 0.663008 -2.5 0 -2.5 
C -0.663008 -2.5 -1.29895 -2.236584 -1.767767 -1.767767 
C -2.236584 -1.29895 -2.5 -0.663008 -2.5 0 
C -2.5 0.663008 -2.236584 1.29895 -1.767767 1.767767 
C -1.29895 2.236584 -0.663008 2.5 0 2.5 
z
"/>
    </defs>
    <g clip-path="url(#p233bc87b1a)">
     <use xlink:href="#C1_0_9c0fb9dd7b" x="96.282281" y="142.917551" style="fill-opacity: 0.5"/>
    </g>
    <g clip-path="url(#p233bc87b1a)">
     <use xlink:href="#C1_0_9c0fb9dd7b" x="92.079681" y="139.920856" style="fill-opacity: 0.5"/>
    </g>
    <g clip-path="url(#p233bc87b1a)">
     <use xlink:href="#C1_0_9c0fb9dd7b" x="92.079681" y="176.380646" style="fill-opacity: 0.5"/>
    </g>
    <g clip-path="url(#p233bc87b1a)">
     <use xlink:href="#C1_0_9c0fb9dd7b" x="96.282281" y="152.906534" style="fill-opacity: 0.5"/>
    </g>
    <g clip-path="url(#p233bc87b1a)">
     <use xlink:href="#C1_0_9c0fb9dd7b" x="96.282281" y="191.863571" style="fill-opacity: 0.5"/>
    </g>
    <g clip-path="url(#p233bc87b1a)">
     <use xlink:href="#C1_0_9c0fb9dd7b" x="99.438441" y="175.381748" style="fill-opacity: 0.5"/>
    </g>
    <g clip-path="url(#p233bc87b1a)">
     <use xlink:href="#C1_0_9c0fb9dd7b" x="92.529067" y="157.901026" style="fill-opacity: 0.5"/>
    </g>
    <g clip-path="url(#p233bc87b1a)">
     <use xlink:href="#C1_0_9c0fb9dd7b" x="96.282281" y="161.397171" style="fill-opacity: 0.5"/>
    </g>
    <g clip-path="url(#p233bc87b1a)">
     <use xlink:href="#C1_0_9c0fb9dd7b" x="96.282281" y="179.377341" style="fill-opacity: 0.5"/>
    </g>
   </g>
   <g id="PathCollection_3">
    <defs>
     <path id="C2_0_12d79d9870" d="M 0 2.5 
C 0.663008 2.5 1.29895 2.236584 1.767767 1.767767 
C 2.236584 1.29895 2.5 0.663008 2.5 -0 
C 2.5 -0.663008 2.236584 -1.29895 1.767767 -1.767767 
C 1.29895 -2.236584 0.663008 -2.5 0 -2.5 
C -0.663008 -2.5 -1.29895 -2.236584 -1.767767 -1.767767 
C -2.236584 -1.29895 -2.5 -0.663008 -2.5 0 
C -2.5 0.663008 -2.236584 1.29895 -1.767767 1.767767 
C -1.29895 2.236584 -0.663008 2.5 0 2.5 
z
"/>
    </defs>
    <g clip-path="url(#p233bc87b1a)">
     <use xlink:href="#C2_0_12d79d9870" x="148.195219" y="121.940685" style="fill: #262626; fill-opacity: 0.5"/>
    </g>
    <g clip-path="url(#p233bc87b1a)">
     <use xlink:href="#C2_0_12d79d9870" x="148.195219" y="128.433524" style="fill: #262626; fill-opacity: 0.5"/>
    </g>
    <g clip-path="url(#p233bc87b1a)">
     <use xlink:href="#C2_0_12d79d9870" x="148.195219" y="180.37624" style="fill: #262626; fill-opacity: 0.5"/>
    </g>
    <g clip-path="url(#p233bc87b1a)">
     <use xlink:href="#C2_0_12d79d9870" x="148.195219" y="156.402679" style="fill: #262626; fill-opacity: 0.5"/>
    </g>
    <g clip-path="url(#p233bc87b1a)">
     <use xlink:href="#C2_0_12d79d9870" x="141.69348" y="172.884502" style="fill: #262626; fill-opacity: 0.5"/>
    </g>
    <g clip-path="url(#p233bc87b1a)">
     <use xlink:href="#C2_0_12d79d9870" x="143.992618" y="177.379544" style="fill: #262626; fill-opacity: 0.5"/>
    </g>
    <g clip-path="url(#p233bc87b1a)">
     <use xlink:href="#C2_0_12d79d9870" x="148.195219" y="164.893315" style="fill: #262626; fill-opacity: 0.5"/>
    </g>
    <g clip-path="url(#p233bc87b1a)">
     <use xlink:href="#C2_0_12d79d9870" x="148.195219" y="173.8834" style="fill: #262626; fill-opacity: 0.5"/>
    </g>
    <g clip-path="url(#p233bc87b1a)">
     <use xlink:href="#C2_0_12d79d9870" x="148.195219" y="150.908738" style="fill: #262626; fill-opacity: 0.5"/>
    </g>
    <g clip-path="url(#p233bc87b1a)">
     <use xlink:href="#C2_0_12d79d9870" x="152.397819" y="177.379544" style="fill: #262626; fill-opacity: 0.5"/>
    </g>
   </g>
   <g id="PathCollection_4">
    <defs>
     <path id="C3_0_51632f4c9b" d="M 0 2.5 
C 0.663008 2.5 1.29895 2.236584 1.767767 1.767767 
C 2.236584 1.29895 2.5 0.663008 2.5 -0 
C 2.5 -0.663008 2.236584 -1.29895 1.767767 -1.767767 
C 1.29895 -2.236584 0.663008 -2.5 0 -2.5 
C -0.663008 -2.5 -1.29895 -2.236584 -1.767767 -1.767767 
C -2.236584 -1.29895 -2.5 -0.663008 -2.5 0 
C -2.5 0.663008 -2.236584 1.29895 -1.767767 1.767767 
C -1.29895 2.236584 -0.663008 2.5 0 2.5 
z
"/>
    </defs>
    <g clip-path="url(#p233bc87b1a)">
     <use xlink:href="#C3_0_51632f4c9b" x="182.803844" y="157.901026" style="fill-opacity: 0.5"/>
    </g>
    <g clip-path="url(#p233bc87b1a)">
     <use xlink:href="#C3_0_51632f4c9b" x="185.960003" y="172.385053" style="fill-opacity: 0.5"/>
    </g>
    <g clip-path="url(#p233bc87b1a)">
     <use xlink:href="#C3_0_51632f4c9b" x="182.803844" y="176.380646" style="fill-opacity: 0.5"/>
    </g>
    <g clip-path="url(#p233bc87b1a)">
     <use xlink:href="#C3_0_51632f4c9b" x="187.352145" y="188.367426" style="fill-opacity: 0.5"/>
    </g>
    <g clip-path="url(#p233bc87b1a)">
     <use xlink:href="#C3_0_51632f4c9b" x="177.795118" y="174.882299" style="fill-opacity: 0.5"/>
    </g>
    <g clip-path="url(#p233bc87b1a)">
     <use xlink:href="#C3_0_51632f4c9b" x="185.510617" y="165.892213" style="fill-opacity: 0.5"/>
    </g>
    <g clip-path="url(#p233bc87b1a)">
     <use xlink:href="#C3_0_51632f4c9b" x="181.757403" y="169.388358" style="fill-opacity: 0.5"/>
    </g>
    <g clip-path="url(#p233bc87b1a)">
     <use xlink:href="#C3_0_51632f4c9b" x="182.803844" y="190.864672" style="fill-opacity: 0.5"/>
    </g>
    <g clip-path="url(#p233bc87b1a)">
     <use xlink:href="#C3_0_51632f4c9b" x="177.99113" y="188.866876" style="fill-opacity: 0.5"/>
    </g>
   </g>
   <g id="PathCollection_5">
    <defs>
     <path id="m1f06915d60" d="M 0 0 
C 0 0 0 0 0 0 
C 0 0 0 0 0 0 
C 0 0 0 0 0 0 
C 0 0 0 0 0 0 
C 0 0 0 0 0 0 
C 0 0 0 0 0 0 
C 0 0 0 0 0 0 
C 0 0 0 0 0 0 
z
" style="stroke: #484848"/>
    </defs>
    <g clip-path="url(#p233bc87b1a)">
     <use xlink:href="#m1f06915d60" x="61.673656" y="151.907636" style="fill: #ffffff; stroke: #484848"/>
    </g>
   </g>
   <g id="PathCollection_6">
    <g clip-path="url(#p233bc87b1a)">
     <use xlink:href="#m1f06915d60" x="96.282281" y="161.397171" style="fill: #ffffff; stroke: #484848"/>
    </g>
   </g>
   <g id="PathCollection_7">
    <g clip-path="url(#p233bc87b1a)">
     <use xlink:href="#m1f06915d60" x="148.195219" y="168.888908" style="fill: #ffffff; stroke: #484848"/>
    </g>
   </g>
   <g id="PathCollection_8">
    <g clip-path="url(#p233bc87b1a)">
     <use xlink:href="#m1f06915d60" x="182.803844" y="174.882299" style="fill: #ffffff; stroke: #484848"/>
    </g>
   </g>
   <g id="text_11">
    <text style="font: 8px 'Arial', sans-serif; text-anchor: middle" x="139.543062" y="62.2148" transform="rotate(-0 139.543062 62.2148)">ns</text>
   </g>
   <g id="text_12">
    <text style="font: 8px 'Arial', sans-serif; text-anchor: middle" x="104.934438" y="78.097284" transform="rotate(-0 104.934438 78.097284)">ns</text>
   </g>
   <g id="text_13">
    <text style="font: 8px 'Arial', sans-serif; text-anchor: middle" x="165.499531" y="93.979768" transform="rotate(-0 165.499531 93.979768)">ns</text>
   </g>
   <g id="text_14">
    <text style="font: 8px 'Arial', sans-serif; text-anchor: middle" x="78.977969" y="93.979768" transform="rotate(-0 78.977969 93.979768)">ns</text>
   </g>
   <g id="legend_1">
    <g id="patch_7">
     <path d="M 42.917188 17.76 
L 58.917188 17.76 
L 58.917188 12.16 
L 42.917188 12.16 
z
" style="fill: #d4d4d4"/>
    </g>
    <g id="text_15">
     <!-- $AgRP^{TdTomato}$ -->
     <g transform="translate(65.317188 17.76)">
      <text>
       <tspan style="font: oblique 8px 'DejaVu Sans'" x="0 5.472656 10.550781 16.109375" y="-0.6828125000000007">AgRP</tspan>
       <tspan style="font: oblique 5.6px 'DejaVu Sans'" x="21.494323 24.915026 28.469714 31.890417 35.316589 40.771667 44.203307 46.39901" y="-3.7453125000000007">TdTomato</tspan>
      </text>
     </g>
    </g>
    <g id="patch_8">
     <path d="M 42.917188 30.8 
L 58.917188 30.8 
L 58.917188 25.2 
L 42.917188 25.2 
z
" style="fill: #11d6de"/>
    </g>
    <g id="text_16">
     <!-- $AgRP^{Chr2}$ -->
     <g transform="translate(65.317188 30.8)">
      <text>
       <tspan style="font: oblique 8px 'DejaVu Sans'" x="0 5.472656 10.550781 16.109375" y="-0.6828125000000007">AgRP</tspan>
       <tspan style="font: oblique 5.6px 'DejaVu Sans'" x="21.494323 25.404479 28.953698" y="-3.7453125000000007">Chr</tspan>
       <tspan style="font: 5.6px 'DejaVu Sans'" x="31.256042" y="-3.7453125000000007">2</tspan>
      </text>
     </g>
    </g>
   </g>
  </g>
  <g id="axes_2">
   <g id="patch_9">
    <path d="M 251.330313 222.1238 
L 424.373437 222.1238 
L 424.373437 56.2658 
L 251.330313 56.2658 
L 251.330313 222.1238 
z
" style="fill: none"/>
   </g>
   <g id="PathCollection_9">
    <path d="M 368.54693 150.314528 
C 369.61564 150.314528 370.640723 149.889925 371.396415 149.134233 
C 372.152107 148.378541 372.57671 147.353458 372.57671 146.284748 
C 372.57671 145.216038 372.152107 144.190955 371.396415 143.435263 
C 370.640723 142.679571 369.61564 142.254967 368.54693 142.254967 
C 367.47822 142.254967 366.453137 142.679571 365.697445 143.435263 
C 364.941753 144.190955 364.51715 145.216038 364.51715 146.284748 
C 364.51715 147.353458 364.941753 148.378541 365.697445 149.134233 
C 366.453137 149.889925 367.47822 150.314528 368.54693 150.314528 
z
" clip-path="url(#p60c9b581ce)" style="fill: #d4d4d4; stroke: #ffffff; stroke-width: 0.388373"/>
    <path d="M 372.740776 180.023113 
C 373.772994 180.023113 374.763074 179.613008 375.492963 178.883119 
C 376.222851 178.153231 376.632956 177.163151 376.632956 176.130932 
C 376.632956 175.098714 376.222851 174.108634 375.492963 173.378745 
C 374.763074 172.648857 373.772994 172.238752 372.740776 172.238752 
C 371.708557 172.238752 370.718477 172.648857 369.988589 173.378745 
C 369.2587 174.108634 368.848595 175.098714 368.848595 176.130932 
C 368.848595 177.163151 369.2587 178.153231 369.988589 178.883119 
C 370.718477 179.613008 371.708557 180.023113 372.740776 180.023113 
z
" clip-path="url(#p60c9b581ce)" style="fill: #d4d4d4; stroke: #ffffff; stroke-width: 0.388373"/>
    <path d="M 367.725792 176.091036 
C 368.398204 176.091036 369.043167 175.823884 369.518635 175.348416 
C 369.994102 174.872949 370.261255 174.227986 370.261255 173.555573 
C 370.261255 172.883161 369.994102 172.238198 369.518635 171.762731 
C 369.043167 171.287263 368.398204 171.020111 367.725792 171.020111 
C 367.053379 171.020111 366.408416 171.287263 365.932949 171.762731 
C 365.457481 172.238198 365.190329 172.883161 365.190329 173.555573 
C 365.190329 174.227986 365.457481 174.872949 365.932949 175.348416 
C 366.408416 175.823884 367.053379 176.091036 367.725792 176.091036 
z
" clip-path="url(#p60c9b581ce)" style="fill: #d4d4d4; stroke: #ffffff; stroke-width: 0.388373"/>
    <path d="M 369.97715 186.276412 
C 370.834598 186.276412 371.657042 185.935744 372.26335 185.329437 
C 372.869657 184.72313 373.210324 183.900686 373.210324 183.043238 
C 373.210324 182.18579 372.869657 181.363345 372.26335 180.757038 
C 371.657042 180.150731 370.834598 179.810063 369.97715 179.810063 
C 369.119702 179.810063 368.297258 180.150731 367.690951 180.757038 
C 367.084643 181.363345 366.743976 182.18579 366.743976 183.043238 
C 366.743976 183.900686 367.084643 184.72313 367.690951 185.329437 
C 368.297258 185.935744 369.119702 186.276412 369.97715 186.276412 
z
" clip-path="url(#p60c9b581ce)" style="fill: #d4d4d4; stroke: #ffffff; stroke-width: 0.388373"/>
    <path d="M 372.848544 184.461839 
C 373.583799 184.461839 374.289039 184.169719 374.808944 183.649815 
C 375.328848 183.129911 375.620968 182.424671 375.620968 181.689415 
C 375.620968 180.95416 375.328848 180.248919 374.808944 179.729015 
C 374.289039 179.209111 373.583799 178.916991 372.848544 178.916991 
C 372.113288 178.916991 371.408048 179.209111 370.888144 179.729015 
C 370.36824 180.248919 370.07612 180.95416 370.07612 181.689415 
C 370.07612 182.424671 370.36824 183.129911 370.888144 183.649815 
C 371.408048 184.169719 372.113288 184.461839 372.848544 184.461839 
z
" clip-path="url(#p60c9b581ce)" style="fill: #d4d4d4; stroke: #ffffff; stroke-width: 0.388373"/>
    <path d="M 372.057344 207.370075 
C 372.755573 207.370075 373.425298 207.092666 373.91902 206.598944 
C 374.412743 206.105221 374.690152 205.435496 374.690152 204.737267 
C 374.690152 204.039039 374.412743 203.369313 373.91902 202.875591 
C 373.425298 202.381869 372.755573 202.10446 372.057344 202.10446 
C 371.359115 202.10446 370.68939 202.381869 370.195668 202.875591 
C 369.701946 203.369313 369.424536 204.039039 369.424536 204.737267 
C 369.424536 205.435496 369.701946 206.105221 370.195668 206.598944 
C 370.68939 207.092666 371.359115 207.370075 372.057344 207.370075 
z
" clip-path="url(#p60c9b581ce)" style="fill: #d4d4d4; stroke: #ffffff; stroke-width: 0.388373"/>
    <path d="M 371.558688 199.244439 
C 372.355532 199.244439 373.119846 198.927849 373.6833 198.364396 
C 374.246753 197.800942 374.563343 197.036628 374.563343 196.239784 
C 374.563343 195.44294 374.246753 194.678626 373.6833 194.115172 
C 373.119846 193.551719 372.355532 193.235129 371.558688 193.235129 
C 370.761844 193.235129 369.99753 193.551719 369.434076 194.115172 
C 368.870623 194.678626 368.554033 195.44294 368.554033 196.239784 
C 368.554033 197.036628 368.870623 197.800942 369.434076 198.364396 
C 369.99753 198.927849 370.761844 199.244439 371.558688 199.244439 
z
" clip-path="url(#p60c9b581ce)" style="fill: #d4d4d4; stroke: #ffffff; stroke-width: 0.388373"/>
    <path d="M 367.985697 195.639666 
C 368.712887 195.639666 369.410391 195.35075 369.924593 194.836549 
C 370.438794 194.322348 370.727709 193.624844 370.727709 192.897653 
C 370.727709 192.170463 370.438794 191.472959 369.924593 190.958757 
C 369.410391 190.444556 368.712887 190.155641 367.985697 190.155641 
C 367.258507 190.155641 366.561002 190.444556 366.046801 190.958757 
C 365.5326 191.472959 365.243684 192.170463 365.243684 192.897653 
C 365.243684 193.624844 365.5326 194.322348 366.046801 194.836549 
C 366.561002 195.35075 367.258507 195.639666 367.985697 195.639666 
z
" clip-path="url(#p60c9b581ce)" style="fill: #d4d4d4; stroke: #ffffff; stroke-width: 0.388373"/>
    <path d="M 367.04736 127.91313 
C 367.941836 127.91313 368.799798 127.55775 369.432289 126.92526 
C 370.06478 126.292769 370.420159 125.434807 370.420159 124.54033 
C 370.420159 123.645853 370.06478 122.787892 369.432289 122.155401 
C 368.799798 121.52291 367.941836 121.167531 367.04736 121.167531 
C 366.152883 121.167531 365.294921 121.52291 364.66243 122.155401 
C 364.02994 122.787892 363.67456 123.645853 363.67456 124.54033 
C 363.67456 125.434807 364.02994 126.292769 364.66243 126.92526 
C 365.294921 127.55775 366.152883 127.91313 367.04736 127.91313 
z
" clip-path="url(#p60c9b581ce)" style="fill: #d4d4d4; stroke: #ffffff; stroke-width: 0.388373"/>
    <path d="M 369.36121 168.500399 
C 370.059439 168.500399 370.729164 168.222989 371.222887 167.729267 
C 371.716609 167.235545 371.994018 166.56582 371.994018 165.867591 
C 371.994018 165.169362 371.716609 164.499637 371.222887 164.005914 
C 370.729164 163.512192 370.059439 163.234783 369.36121 163.234783 
C 368.662982 163.234783 367.993257 163.512192 367.499534 164.005914 
C 367.005812 164.499637 366.728403 165.169362 366.728403 165.867591 
C 366.728403 166.56582 367.005812 167.235545 367.499534 167.729267 
C 367.993257 168.222989 368.662982 168.500399 369.36121 168.500399 
z
" clip-path="url(#p60c9b581ce)" style="fill: #d4d4d4; stroke: #ffffff; stroke-width: 0.388373"/>
    <path d="M 285.204097 137.07434 
C 286.329259 137.07434 287.408488 136.627308 288.204097 135.831699 
C 288.999707 135.03609 289.446738 133.956861 289.446738 132.831699 
C 289.446738 131.706538 288.999707 130.627308 288.204097 129.831699 
C 287.408488 129.03609 286.329259 128.589058 285.204097 128.589058 
C 284.078936 128.589058 282.999707 129.03609 282.204097 129.831699 
C 281.408488 130.627308 280.961457 131.706538 280.961457 132.831699 
C 280.961457 133.956861 281.408488 135.03609 282.204097 135.831699 
C 282.999707 136.627308 284.078936 137.07434 285.204097 137.07434 
z
" clip-path="url(#p60c9b581ce)" style="fill: #d4d4d4; stroke: #ffffff; stroke-width: 0.388373"/>
    <path d="M 283.324412 149.252602 
C 284.235223 149.252602 285.108852 148.890733 285.752892 148.246692 
C 286.396933 147.602652 286.758802 146.729023 286.758802 145.818212 
C 286.758802 144.907401 286.396933 144.033772 285.752892 143.389732 
C 285.108852 142.745692 284.235223 142.383823 283.324412 142.383823 
C 282.413601 142.383823 281.539972 142.745692 280.895932 143.389732 
C 280.251892 144.033772 279.890023 144.907401 279.890023 145.818212 
C 279.890023 146.729023 280.251892 147.602652 280.895932 148.246692 
C 281.539972 148.890733 282.413601 149.252602 283.324412 149.252602 
z
" clip-path="url(#p60c9b581ce)" style="fill: #d4d4d4; stroke: #ffffff; stroke-width: 0.388373"/>
    <path d="M 286.958607 150.64377 
C 287.846466 150.64377 288.69808 150.29102 289.325891 149.663208 
C 289.953703 149.035397 290.306453 148.183783 290.306453 147.295924 
C 290.306453 146.408064 289.953703 145.55645 289.325891 144.928639 
C 288.69808 144.300828 287.846466 143.948077 286.958607 143.948077 
C 286.070747 143.948077 285.219133 144.300828 284.591322 144.928639 
C 283.96351 145.55645 283.61076 146.408064 283.61076 147.295924 
C 283.61076 148.183783 283.96351 149.035397 284.591322 149.663208 
C 285.219133 150.29102 286.070747 150.64377 286.958607 150.64377 
z
" clip-path="url(#p60c9b581ce)" style="fill: #d4d4d4; stroke: #ffffff; stroke-width: 0.388373"/>
    <path d="M 284.321823 170.468216 
C 285.15485 170.468216 285.953871 170.137251 286.54291 169.548212 
C 287.13195 168.959172 287.462915 168.160151 287.462915 167.327124 
C 287.462915 166.494097 287.13195 165.695076 286.54291 165.106037 
C 285.953871 164.516997 285.15485 164.186032 284.321823 164.186032 
C 283.488795 164.186032 282.689774 164.516997 282.100735 165.106037 
C 281.511696 165.695076 281.180731 166.494097 281.180731 167.327124 
C 281.180731 168.160151 281.511696 168.959172 282.100735 169.548212 
C 282.689774 170.137251 283.488795 170.468216 284.321823 170.468216 
z
" clip-path="url(#p60c9b581ce)" style="fill: #d4d4d4; stroke: #ffffff; stroke-width: 0.388373"/>
    <path d="M 282.01637 201.498632 
C 282.802033 201.498632 283.555624 201.186485 284.111172 200.630936 
C 284.666721 200.075388 284.978868 199.321797 284.978868 198.536134 
C 284.978868 197.75047 284.666721 196.996879 284.111172 196.441331 
C 283.555624 195.885783 282.802033 195.573635 282.01637 195.573635 
C 281.230706 195.573635 280.477115 195.885783 279.921567 196.441331 
C 279.366019 196.996879 279.053871 197.75047 279.053871 198.536134 
C 279.053871 199.321797 279.366019 200.075388 279.921567 200.630936 
C 280.477115 201.186485 281.230706 201.498632 282.01637 201.498632 
z
" clip-path="url(#p60c9b581ce)" style="fill: #d4d4d4; stroke: #ffffff; stroke-width: 0.388373"/>
    <path d="M 283.841656 194.023354 
C 284.93761 194.023354 285.988825 193.587927 286.763782 192.81297 
C 287.538739 192.038013 287.974166 190.986799 287.974166 189.890844 
C 287.974166 188.79489 287.538739 187.743675 286.763782 186.968718 
C 285.988825 186.193761 284.93761 185.758334 283.841656 185.758334 
C 282.745701 185.758334 281.694487 186.193761 280.91953 186.968718 
C 280.144573 187.743675 279.709146 188.79489 279.709146 189.890844 
C 279.709146 190.986799 280.144573 192.038013 280.91953 192.81297 
C 281.694487 193.587927 282.745701 194.023354 283.841656 194.023354 
z
" clip-path="url(#p60c9b581ce)" style="fill: #d4d4d4; stroke: #ffffff; stroke-width: 0.388373"/>
    <path d="M 289.78362 162.462796 
C 290.53081 162.462796 291.247497 162.165934 291.775841 161.637591 
C 292.304184 161.109248 292.601045 160.39256 292.601045 159.64537 
C 292.601045 158.89818 292.304184 158.181492 291.775841 157.653149 
C 291.247497 157.124806 290.53081 156.827944 289.78362 156.827944 
C 289.03643 156.827944 288.319742 157.124806 287.791399 157.653149 
C 287.263056 158.181492 286.966194 158.89818 286.966194 159.64537 
C 286.966194 160.39256 287.263056 161.109248 287.791399 161.637591 
C 288.319742 162.165934 289.03643 162.462796 289.78362 162.462796 
z
" clip-path="url(#p60c9b581ce)" style="fill: #d4d4d4; stroke: #ffffff; stroke-width: 0.388373"/>
    <path d="M 285.040765 149.974596 
C 285.921957 149.974596 286.767176 149.624495 287.390273 149.001399 
C 288.01337 148.378302 288.363471 147.533083 288.363471 146.651891 
C 288.363471 145.770699 288.01337 144.92548 287.390273 144.302383 
C 286.767176 143.679286 285.921957 143.329185 285.040765 143.329185 
C 284.159574 143.329185 283.314355 143.679286 282.691258 144.302383 
C 282.068161 144.92548 281.71806 145.770699 281.71806 146.651891 
C 281.71806 147.533083 282.068161 148.378302 282.691258 149.001399 
C 283.314355 149.624495 284.159574 149.974596 285.040765 149.974596 
z
" clip-path="url(#p60c9b581ce)" style="fill: #d4d4d4; stroke: #ffffff; stroke-width: 0.388373"/>
    <path d="M 281.86131 131.430583 
C 282.794508 131.430583 283.68961 131.059819 284.349481 130.399949 
C 285.009351 129.740078 285.380115 128.844976 285.380115 127.911778 
C 285.380115 126.97858 285.009351 126.083478 284.349481 125.423607 
C 283.68961 124.763737 282.794508 124.392973 281.86131 124.392973 
C 280.928112 124.392973 280.03301 124.763737 279.373139 125.423607 
C 278.713269 126.083478 278.342505 126.97858 278.342505 127.911778 
C 278.342505 128.844976 278.713269 129.740078 279.373139 130.399949 
C 280.03301 131.059819 280.928112 131.430583 281.86131 131.430583 
z
" clip-path="url(#p60c9b581ce)" style="fill: #d4d4d4; stroke: #ffffff; stroke-width: 0.388373"/>
    <path d="M 393.350506 141.549972 
C 394.197574 141.549972 395.010062 141.213428 395.60903 140.614461 
C 396.207998 140.015493 396.544541 139.203005 396.544541 138.355936 
C 396.544541 137.508868 396.207998 136.69638 395.60903 136.097412 
C 395.010062 135.498445 394.197574 135.161901 393.350506 135.161901 
C 392.503438 135.161901 391.690949 135.498445 391.091981 136.097412 
C 390.493014 136.69638 390.15647 137.508868 390.15647 138.355936 
C 390.15647 139.203005 390.493014 140.015493 391.091981 140.614461 
C 391.690949 141.213428 392.503438 141.549972 393.350506 141.549972 
z
" clip-path="url(#p60c9b581ce)" style="fill: #06e1e9; stroke: #ffffff; stroke-width: 0.388373"/>
    <path d="M 390.58422 147.649766 
C 391.323475 147.649766 392.032552 147.356057 392.555284 146.833324 
C 393.078016 146.310592 393.371726 145.601516 393.371726 144.86226 
C 393.371726 144.123005 393.078016 143.413929 392.555284 142.891196 
C 392.032552 142.368464 391.323475 142.074755 390.58422 142.074755 
C 389.844965 142.074755 389.135888 142.368464 388.613156 142.891196 
C 388.090424 143.413929 387.796715 144.123005 387.796715 144.86226 
C 387.796715 145.601516 388.090424 146.310592 388.613156 146.833324 
C 389.135888 147.356057 389.844965 147.649766 390.58422 147.649766 
z
" clip-path="url(#p60c9b581ce)" style="fill: #06e1e9; stroke: #ffffff; stroke-width: 0.388373"/>
    <path d="M 390.321669 165.644841 
C 391.028294 165.644841 391.706072 165.364096 392.205731 164.864437 
C 392.70539 164.364778 392.986135 163.687 392.986135 162.980375 
C 392.986135 162.273751 392.70539 161.595972 392.205731 161.096313 
C 391.706072 160.596654 391.028294 160.315909 390.321669 160.315909 
C 389.615045 160.315909 388.937266 160.596654 388.437607 161.096313 
C 387.937948 161.595972 387.657203 162.273751 387.657203 162.980375 
C 387.657203 163.687 387.937948 164.364778 388.437607 164.864437 
C 388.937266 165.364096 389.615045 165.644841 390.321669 165.644841 
z
" clip-path="url(#p60c9b581ce)" style="fill: #06e1e9; stroke: #ffffff; stroke-width: 0.388373"/>
    <path d="M 390.561383 152.099939 
C 391.159529 152.099939 391.733258 151.862293 392.156211 151.439339 
C 392.579165 151.016386 392.816811 150.442657 392.816811 149.844511 
C 392.816811 149.246364 392.579165 148.672636 392.156211 148.249682 
C 391.733258 147.826729 391.159529 147.589083 390.561383 147.589083 
C 389.963236 147.589083 389.389508 147.826729 388.966554 148.249682 
C 388.543601 148.672636 388.305955 149.246364 388.305955 149.844511 
C 388.305955 150.442657 388.543601 151.016386 388.966554 151.439339 
C 389.389508 151.862293 389.963236 152.099939 390.561383 152.099939 
z
" clip-path="url(#p60c9b581ce)" style="fill: #06e1e9; stroke: #ffffff; stroke-width: 0.388373"/>
    <path d="M 388.374794 170.761373 
C 389.093829 170.761373 389.78351 170.475697 390.291944 169.967263 
C 390.800379 169.458829 391.086054 168.769147 391.086054 168.050113 
C 391.086054 167.331078 390.800379 166.641396 390.291944 166.132962 
C 389.78351 165.624528 389.093829 165.338853 388.374794 165.338853 
C 387.655759 165.338853 386.966078 165.624528 386.457643 166.132962 
C 385.949209 166.641396 385.663534 167.331078 385.663534 168.050113 
C 385.663534 168.769147 385.949209 169.458829 386.457643 169.967263 
C 386.966078 170.475697 387.655759 170.761373 388.374794 170.761373 
z
" clip-path="url(#p60c9b581ce)" style="fill: #06e1e9; stroke: #ffffff; stroke-width: 0.388373"/>
    <path d="M 389.247253 174.659221 
C 390.036661 174.659221 390.793844 174.345586 391.352039 173.78739 
C 391.910235 173.229194 392.22387 172.472012 392.22387 171.682604 
C 392.22387 170.893196 391.910235 170.136014 391.352039 169.577818 
C 390.793844 169.019622 390.036661 168.705987 389.247253 168.705987 
C 388.457845 168.705987 387.700663 169.019622 387.142467 169.577818 
C 386.584272 170.136014 386.270636 170.893196 386.270636 171.682604 
C 386.270636 172.472012 386.584272 173.229194 387.142467 173.78739 
C 387.700663 174.345586 388.457845 174.659221 389.247253 174.659221 
z
" clip-path="url(#p60c9b581ce)" style="fill: #06e1e9; stroke: #ffffff; stroke-width: 0.388373"/>
    <path d="M 392.52326 159.320972 
C 393.286072 159.320972 394.017744 159.017903 394.557134 158.478513 
C 395.096524 157.939124 395.399593 157.207451 395.399593 156.444639 
C 395.399593 155.681826 395.096524 154.950154 394.557134 154.410764 
C 394.017744 153.871374 393.286072 153.568306 392.52326 153.568306 
C 391.760447 153.568306 391.028775 153.871374 390.489385 154.410764 
C 389.949995 154.950154 389.646927 155.681826 389.646927 156.444639 
C 389.646927 157.207451 389.949995 157.939124 390.489385 158.478513 
C 391.028775 159.017903 391.760447 159.320972 392.52326 159.320972 
z
" clip-path="url(#p60c9b581ce)" style="fill: #06e1e9; stroke: #ffffff; stroke-width: 0.388373"/>
    <path d="M 391.850846 178.995593 
C 392.423813 178.995593 392.973391 178.767951 393.37854 178.362801 
C 393.78369 177.957652 394.011332 177.408074 394.011332 176.835107 
C 394.011332 176.262139 393.78369 175.712561 393.37854 175.307412 
C 392.973391 174.902263 392.423813 174.67462 391.850846 174.67462 
C 391.277878 174.67462 390.7283 174.902263 390.323151 175.307412 
C 389.918002 175.712561 389.690359 176.262139 389.690359 176.835107 
C 389.690359 177.408074 389.918002 177.957652 390.323151 178.362801 
C 390.7283 178.767951 391.277878 178.995593 391.850846 178.995593 
z
" clip-path="url(#p60c9b581ce)" style="fill: #06e1e9; stroke: #ffffff; stroke-width: 0.388373"/>
    <path d="M 391.36965 189.832936 
C 391.962847 189.832936 392.531827 189.597257 392.95128 189.177804 
C 393.370733 188.758351 393.606413 188.18937 393.606413 187.596174 
C 393.606413 187.002978 393.370733 186.433997 392.95128 186.014544 
C 392.531827 185.595091 391.962847 185.359412 391.36965 185.359412 
C 390.776454 185.359412 390.207474 185.595091 389.788021 186.014544 
C 389.368567 186.433997 389.132888 187.002978 389.132888 187.596174 
C 389.132888 188.18937 389.368567 188.758351 389.788021 189.177804 
C 390.207474 189.597257 390.776454 189.832936 391.36965 189.832936 
z
" clip-path="url(#p60c9b581ce)" style="fill: #06e1e9; stroke: #ffffff; stroke-width: 0.388373"/>
    <path d="M 307.168849 153.034479 
C 308.114601 153.034479 309.021746 152.658728 309.690494 151.98998 
C 310.359242 151.321231 310.734994 150.414087 310.734994 149.468334 
C 310.734994 148.522581 310.359242 147.615437 309.690494 146.946689 
C 309.021746 146.277941 308.114601 145.902189 307.168849 145.902189 
C 306.223096 145.902189 305.315951 146.277941 304.647203 146.946689 
C 303.978455 147.615437 303.602703 148.522581 303.602703 149.468334 
C 303.602703 150.414087 303.978455 151.321231 304.647203 151.98998 
C 305.315951 152.658728 306.223096 153.034479 307.168849 153.034479 
z
" clip-path="url(#p60c9b581ce)" style="fill: #06e1e9; stroke: #ffffff; stroke-width: 0.388373"/>
    <path d="M 304.249285 167.394825 
C 305.213564 167.394825 306.138478 167.011714 306.820326 166.329866 
C 307.502174 165.648018 307.885285 164.723104 307.885285 163.758825 
C 307.885285 162.794547 307.502174 161.869633 306.820326 161.187785 
C 306.138478 160.505937 305.213564 160.122825 304.249285 160.122825 
C 303.285007 160.122825 302.360093 160.505937 301.678245 161.187785 
C 300.996397 161.869633 300.613285 162.794547 300.613285 163.758825 
C 300.613285 164.723104 300.996397 165.648018 301.678245 166.329866 
C 302.360093 167.011714 303.285007 167.394825 304.249285 167.394825 
z
" clip-path="url(#p60c9b581ce)" style="fill: #06e1e9; stroke: #ffffff; stroke-width: 0.388373"/>
    <path d="M 307.461352 127.723206 
C 308.167976 127.723206 308.845755 127.442461 309.345414 126.942801 
C 309.845073 126.443142 310.125818 125.765364 310.125818 125.05874 
C 310.125818 124.352115 309.845073 123.674337 309.345414 123.174678 
C 308.845755 122.675019 308.167976 122.394274 307.461352 122.394274 
C 306.754727 122.394274 306.076949 122.675019 305.57729 123.174678 
C 305.077631 123.674337 304.796886 124.352115 304.796886 125.05874 
C 304.796886 125.765364 305.077631 126.443142 305.57729 126.942801 
C 306.076949 127.442461 306.754727 127.723206 307.461352 127.723206 
z
" clip-path="url(#p60c9b581ce)" style="fill: #06e1e9; stroke: #ffffff; stroke-width: 0.388373"/>
    <path d="M 305.844344 217.907506 
C 306.725536 217.907506 307.570755 217.557404 308.193852 216.934308 
C 308.816948 216.311211 309.16705 215.465992 309.16705 214.5848 
C 309.16705 213.703608 308.816948 212.858389 308.193852 212.235292 
C 307.570755 211.612196 306.725536 211.262094 305.844344 211.262094 
C 304.963152 211.262094 304.117933 211.612196 303.494836 212.235292 
C 302.87174 212.858389 302.521638 213.703608 302.521638 214.5848 
C 302.521638 215.465992 302.87174 216.311211 303.494836 216.934308 
C 304.117933 217.557404 304.963152 217.907506 305.844344 217.907506 
z
" clip-path="url(#p60c9b581ce)" style="fill: #06e1e9; stroke: #ffffff; stroke-width: 0.388373"/>
    <path d="M 305.756089 197.885998 
C 306.31867 197.885998 306.858285 197.662482 307.256089 197.264677 
C 307.653894 196.866873 307.87741 196.327258 307.87741 195.764677 
C 307.87741 195.202096 307.653894 194.662482 307.256089 194.264677 
C 306.858285 193.866873 306.31867 193.643357 305.756089 193.643357 
C 305.193508 193.643357 304.653894 193.866873 304.256089 194.264677 
C 303.858285 194.662482 303.634769 195.202096 303.634769 195.764677 
C 303.634769 196.327258 303.858285 196.866873 304.256089 197.264677 
C 304.653894 197.662482 305.193508 197.885998 305.756089 197.885998 
z
" clip-path="url(#p60c9b581ce)" style="fill: #06e1e9; stroke: #ffffff; stroke-width: 0.388373"/>
    <path d="M 305.024838 193.214458 
C 305.73976 193.214458 306.425496 192.930417 306.931022 192.424891 
C 307.436549 191.919365 307.72059 191.233628 307.72059 190.518706 
C 307.72059 189.803784 307.436549 189.118047 306.931022 188.612521 
C 306.425496 188.106995 305.73976 187.822954 305.024838 187.822954 
C 304.309916 187.822954 303.624179 188.106995 303.118653 188.612521 
C 302.613127 189.118047 302.329085 189.803784 302.329085 190.518706 
C 302.329085 191.233628 302.613127 191.919365 303.118653 192.424891 
C 303.624179 192.930417 304.309916 193.214458 305.024838 193.214458 
z
" clip-path="url(#p60c9b581ce)" style="fill: #06e1e9; stroke: #ffffff; stroke-width: 0.388373"/>
    <path d="M 302.983642 165.305313 
C 303.83071 165.305313 304.643199 164.968769 305.242166 164.369802 
C 305.841134 163.770834 306.177678 162.958346 306.177678 162.111277 
C 306.177678 161.264209 305.841134 160.451721 305.242166 159.852753 
C 304.643199 159.253786 303.83071 158.917242 302.983642 158.917242 
C 302.136574 158.917242 301.324086 159.253786 300.725118 159.852753 
C 300.12615 160.451721 299.789607 161.264209 299.789607 162.111277 
C 299.789607 162.958346 300.12615 163.770834 300.725118 164.369802 
C 301.324086 164.968769 302.136574 165.305313 302.983642 165.305313 
z
" clip-path="url(#p60c9b581ce)" style="fill: #06e1e9; stroke: #ffffff; stroke-width: 0.388373"/>
    <path d="M 304.337456 130.098705 
C 305.159796 130.098705 305.948565 129.771986 306.530047 129.190505 
C 307.111529 128.609023 307.438248 127.820254 307.438248 126.997914 
C 307.438248 126.175575 307.111529 125.386805 306.530047 124.805324 
C 305.948565 124.223842 305.159796 123.897123 304.337456 123.897123 
C 303.515117 123.897123 302.726348 124.223842 302.144866 124.805324 
C 301.563384 125.386805 301.236665 126.175575 301.236665 126.997914 
C 301.236665 127.820254 301.563384 128.609023 302.144866 129.190505 
C 302.726348 129.771986 303.515117 130.098705 304.337456 130.098705 
z
" clip-path="url(#p60c9b581ce)" style="fill: #06e1e9; stroke: #ffffff; stroke-width: 0.388373"/>
    <path d="M 309.37212 157.928081 
C 310.053247 157.928081 310.706568 157.657466 311.188197 157.175837 
C 311.669827 156.694207 311.940441 156.040886 311.940441 155.359759 
C 311.940441 154.678633 311.669827 154.025312 311.188197 153.543682 
C 310.706568 153.062053 310.053247 152.791438 309.37212 152.791438 
C 308.690993 152.791438 308.037672 153.062053 307.556043 153.543682 
C 307.074413 154.025312 306.803799 154.678633 306.803799 155.359759 
C 306.803799 156.040886 307.074413 156.694207 307.556043 157.175837 
C 308.037672 157.657466 308.690993 157.928081 309.37212 157.928081 
z
" clip-path="url(#p60c9b581ce)" style="fill: #06e1e9; stroke: #ffffff; stroke-width: 0.388373"/>
   </g>
   <g id="PathCollection_10"/>
   <g id="PathCollection_11"/>
   <g id="PathCollection_12"/>
   <g id="PathCollection_13"/>
   <g id="PathCollection_14"/>
   <g id="PathCollection_15"/>
   <g id="PathCollection_16"/>
   <g id="PathCollection_17"/>
   <g id="matplotlib.axis_3">
    <g id="xtick_3">
     <g id="line2d_22">
      <g>
       <use xlink:href="#m362f3f2ff2" x="295.646235" y="222.1238" style="stroke: #000000; stroke-width: 0.8"/>
      </g>
     </g>
     <g id="text_17">
      <text style="font: 8px 'Arial', sans-serif; text-anchor: middle" x="295.646235" y="234.85005" transform="rotate(-0 295.646235 234.85005)">Male</text>
     </g>
    </g>
    <g id="xtick_4">
     <g id="line2d_23">
      <g>
       <use xlink:href="#m362f3f2ff2" x="380.057515" y="222.1238" style="stroke: #000000; stroke-width: 0.8"/>
      </g>
     </g>
     <g id="text_18">
      <text style="font: 8px 'Arial', sans-serif; text-anchor: middle" x="380.057515" y="234.85005" transform="rotate(-0 380.057515 234.85005)">Female</text>
     </g>
    </g>
   </g>
   <g id="matplotlib.axis_4">
    <g id="ytick_8">
     <g id="line2d_24">
      <g>
       <use xlink:href="#m2fcff9781b" x="251.330313" y="202.970464" style="stroke: #000000; stroke-width: 0.8"/>
      </g>
     </g>
     <g id="text_19">
      <text style="font: 6px 'Arial', sans-serif; text-anchor: end" x="244.330313" y="205.117808" transform="rotate(-0 244.330313 205.117808)">0.4</text>
     </g>
    </g>
    <g id="ytick_9">
     <g id="line2d_25">
      <g>
       <use xlink:href="#m2fcff9781b" x="251.330313" y="174.701608" style="stroke: #000000; stroke-width: 0.8"/>
      </g>
     </g>
     <g id="text_20">
      <text style="font: 6px 'Arial', sans-serif; text-anchor: end" x="244.330313" y="176.848952" transform="rotate(-0 244.330313 176.848952)">0.6</text>
     </g>
    </g>
    <g id="ytick_10">
     <g id="line2d_26">
      <g>
       <use xlink:href="#m2fcff9781b" x="251.330313" y="146.432752" style="stroke: #000000; stroke-width: 0.8"/>
      </g>
     </g>
     <g id="text_21">
      <text style="font: 6px 'Arial', sans-serif; text-anchor: end" x="244.330313" y="148.580096" transform="rotate(-0 244.330313 148.580096)">0.8</text>
     </g>
    </g>
    <g id="ytick_11">
     <g id="line2d_27">
      <g>
       <use xlink:href="#m2fcff9781b" x="251.330313" y="118.163897" style="stroke: #000000; stroke-width: 0.8"/>
      </g>
     </g>
     <g id="text_22">
      <text style="font: 6px 'Arial', sans-serif; text-anchor: end" x="244.330313" y="120.31124" transform="rotate(-0 244.330313 120.31124)">1.0</text>
     </g>
    </g>
    <g id="ytick_12">
     <g id="line2d_28">
      <g>
       <use xlink:href="#m2fcff9781b" x="251.330313" y="89.895041" style="stroke: #000000; stroke-width: 0.8"/>
      </g>
     </g>
     <g id="text_23">
      <text style="font: 6px 'Arial', sans-serif; text-anchor: end" x="244.330313" y="92.042385" transform="rotate(-0 244.330313 92.042385)">1.2</text>
     </g>
    </g>
    <g id="ytick_13">
     <g id="line2d_29">
      <g>
       <use xlink:href="#m2fcff9781b" x="251.330313" y="61.626185" style="stroke: #000000; stroke-width: 0.8"/>
      </g>
     </g>
     <g id="text_24">
      <text style="font: 6px 'Arial', sans-serif; text-anchor: end" x="244.330313" y="63.773529" transform="rotate(-0 244.330313 63.773529)">1.4</text>
     </g>
    </g>
    <g id="text_25">
     <text style="font: 8px 'Arial', sans-serif; text-anchor: middle" x="230.400313" y="139.1948" transform="rotate(-90 230.400313 139.1948)">Burst Preference Index</text>
    </g>
   </g>
   <g id="line2d_30">
    <path d="M 365.764385 170.532014 
L 374.205513 170.532014 
" clip-path="url(#p60c9b581ce)" style="fill: none; stroke: #000000; stroke-opacity: 0.5; stroke-width: 1.5; stroke-linecap: square"/>
   </g>
   <g id="line2d_31">
    <path d="M 280.485287 156.041929 
L 288.926415 156.041929 
" clip-path="url(#p60c9b581ce)" style="fill: none; stroke: #000000; stroke-opacity: 0.5; stroke-width: 1.5; stroke-linecap: square"/>
   </g>
   <g id="line2d_32">
    <path d="M 386.688723 159.635031 
L 395.129851 159.635031 
" clip-path="url(#p60c9b581ce)" style="fill: none; stroke: #000000; stroke-opacity: 0.5; stroke-width: 1.5; stroke-linecap: square"/>
   </g>
   <g id="line2d_33">
    <path d="M 301.579211 163.9494 
L 310.020339 163.9494 
" clip-path="url(#p60c9b581ce)" style="fill: none; stroke: #000000; stroke-opacity: 0.5; stroke-width: 1.5; stroke-linecap: square"/>
   </g>
   <g id="line2d_34">
    <path d="M 306.197645 70.553192 
L 306.197645 63.8048 
L 390.608925 63.8048 
L 390.608925 70.553192 
" clip-path="url(#p60c9b581ce)" style="fill: none; stroke: #000000; stroke-width: 0.5; stroke-linecap: square"/>
   </g>
   <g id="line2d_35">
    <path d="M 285.094825 90.798369 
L 285.094825 84.049977 
L 369.506105 84.049977 
L 369.506105 90.798369 
" clip-path="url(#p60c9b581ce)" style="fill: none; stroke: #000000; stroke-width: 0.5; stroke-linecap: square"/>
   </g>
   <g id="line2d_36">
    <path d="M 369.506105 111.043546 
L 369.506105 104.295154 
L 390.608925 104.295154 
L 390.608925 111.043546 
" clip-path="url(#p60c9b581ce)" style="fill: none; stroke: #000000; stroke-width: 0.5; stroke-linecap: square"/>
   </g>
   <g id="line2d_37">
    <path d="M 285.094825 111.043546 
L 285.094825 104.295154 
L 306.197645 104.295154 
L 306.197645 111.043546 
" clip-path="url(#p60c9b581ce)" style="fill: none; stroke: #000000; stroke-width: 0.5; stroke-linecap: square"/>
   </g>
   <g id="patch_10">
    <path d="M 251.330313 222.1238 
L 251.330313 56.2658 
" style="fill: none; stroke: #000000; stroke-width: 0.8; stroke-linejoin: miter; stroke-linecap: square"/>
   </g>
   <g id="patch_11">
    <path d="M 251.330312 222.1238 
L 424.373437 222.1238 
" style="fill: none; stroke: #000000; stroke-width: 0.8; stroke-linejoin: miter; stroke-linecap: square"/>
   </g>
   <g id="text_26">
    <text style="font: 8px 'Arial', sans-serif; text-anchor: middle" x="348.403285" y="62.2148" transform="rotate(-0 348.403285 62.2148)">ns</text>
   </g>
   <g id="text_27">
    <text style="font: 8px 'Arial', sans-serif; text-anchor: middle" x="327.300465" y="82.459977" transform="rotate(-0 327.300465 82.459977)">****</text>
   </g>
   <g id="text_28">
    <text style="font: 8px 'Arial', sans-serif; text-anchor: middle" x="380.057515" y="102.705154" transform="rotate(-0 380.057515 102.705154)">**</text>
   </g>
   <g id="text_29">
    <text style="font: 8px 'Arial', sans-serif; text-anchor: middle" x="295.646235" y="102.705154" transform="rotate(-0 295.646235 102.705154)">**</text>
   </g>
   <g id="legend_2">
    <g id="text_30">
     <text style="font: 8px 'Arial', sans-serif; text-anchor: start" x="453.973437" y="69.19205" transform="rotate(-0 453.973437 69.19205)">Strain</text>
    </g>
    <g id="PathCollection_18">
     <defs>
      <path id="m2035b2f338" d="M 0 3 
C 0.795609 3 1.55874 2.683901 2.12132 2.12132 
C 2.683901 1.55874 3 0.795609 3 0 
C 3 -0.795609 2.683901 -1.55874 2.12132 -2.12132 
C 1.55874 -2.683901 0.795609 -3 0 -3 
C -0.795609 -3 -1.55874 -2.683901 -2.12132 -2.12132 
C -2.683901 -1.55874 -3 -0.795609 -3 0 
C -3 0.795609 -2.683901 1.55874 -2.12132 2.12132 
C -1.55874 2.683901 -0.795609 3 0 3 
z
" style="stroke: #d4d4d4"/>
     </defs>
     <g>
      <use xlink:href="#m2035b2f338" x="439.573437" y="80.04205" style="fill: #d4d4d4; stroke: #d4d4d4"/>
     </g>
    </g>
    <g id="text_31">
     <!-- $AgRP^{TdTomato}$ -->
     <g transform="translate(453.973437 82.14205)">
      <text>
       <tspan style="font: oblique 8px 'DejaVu Sans'" x="0 5.472656 10.550781 16.109375" y="-0.6828125000000007">AgRP</tspan>
       <tspan style="font: oblique 5.6px 'DejaVu Sans'" x="21.494323 24.915026 28.469714 31.890417 35.316589 40.771667 44.203307 46.39901" y="-3.7453125000000007">TdTomato</tspan>
      </text>
     </g>
    </g>
    <g id="PathCollection_19">
     <defs>
      <path id="m9ee1e07f15" d="M 0 3 
C 0.795609 3 1.55874 2.683901 2.12132 2.12132 
C 2.683901 1.55874 3 0.795609 3 0 
C 3 -0.795609 2.683901 -1.55874 2.12132 -2.12132 
C 1.55874 -2.683901 0.795609 -3 0 -3 
C -0.795609 -3 -1.55874 -2.683901 -2.12132 -2.12132 
C -2.683901 -1.55874 -3 -0.795609 -3 0 
C -3 0.795609 -2.683901 1.55874 -2.12132 2.12132 
C -1.55874 2.683901 -0.795609 3 0 3 
z
" style="stroke: #06e1e9"/>
     </defs>
     <g>
      <use xlink:href="#m9ee1e07f15" x="439.573437" y="93.08205" style="fill: #06e1e9; stroke: #06e1e9"/>
     </g>
    </g>
    <g id="text_32">
     <!-- $AgRP^{Chr2}$ -->
     <g transform="translate(453.973437 95.18205)">
      <text>
       <tspan style="font: oblique 8px 'DejaVu Sans'" x="0 5.472656 10.550781 16.109375" y="-0.6828125000000007">AgRP</tspan>
       <tspan style="font: oblique 5.6px 'DejaVu Sans'" x="21.494323 25.404479 28.953698" y="-3.7453125000000007">Chr</tspan>
       <tspan style="font: 5.6px 'DejaVu Sans'" x="31.256042" y="-3.7453125000000007">2</tspan>
      </text>
     </g>
    </g>
    <g id="text_33">
     <text style="font: 8px 'Arial', sans-serif; text-anchor: start" x="453.973437" y="106.5883" transform="rotate(-0 453.973437 106.5883)">Total Lick Bursts</text>
    </g>
    <g id="PathCollection_20">
     <defs>
      <path id="m9c6f12bc5d" d="M 0 2.292304 
C 0.607926 2.292304 1.191035 2.050773 1.620904 1.620904 
C 2.050773 1.191035 2.292304 0.607926 2.292304 0 
C 2.292304 -0.607926 2.050773 -1.191035 1.620904 -1.620904 
C 1.191035 -2.050773 0.607926 -2.292304 0 -2.292304 
C -0.607926 -2.292304 -1.191035 -2.050773 -1.620904 -1.620904 
C -2.050773 -1.191035 -2.292304 -0.607926 -2.292304 0 
C -2.292304 0.607926 -2.050773 1.191035 -1.620904 1.620904 
C -1.191035 2.050773 -0.607926 2.292304 0 2.292304 
z
" style="stroke: #333333"/>
     </defs>
     <g>
      <use xlink:href="#m9c6f12bc5d" x="439.573437" y="115.80455" style="fill: #333333; stroke: #333333"/>
     </g>
    </g>
    <g id="text_34">
     <text style="font: 8px 'Arial', sans-serif; text-anchor: start" x="453.973437" y="117.90455" transform="rotate(-0 453.973437 117.90455)">60</text>
    </g>
    <g id="PathCollection_21">
     <defs>
      <path id="m1647b8e88b" d="M 0 2.787505 
C 0.739255 2.787505 1.448332 2.493796 1.971064 1.971064 
C 2.493796 1.448332 2.787505 0.739255 2.787505 0 
C 2.787505 -0.739255 2.493796 -1.448332 1.971064 -1.971064 
C 1.448332 -2.493796 0.739255 -2.787505 0 -2.787505 
C -0.739255 -2.787505 -1.448332 -2.493796 -1.971064 -1.971064 
C -2.493796 -1.448332 -2.787505 -0.739255 -2.787505 0 
C -2.787505 0.739255 -2.493796 1.448332 -1.971064 1.971064 
C -1.448332 2.493796 -0.739255 2.787505 0 2.787505 
z
" style="stroke: #333333"/>
     </defs>
     <g>
      <use xlink:href="#m1647b8e88b" x="439.573437" y="127.1208" style="fill: #333333; stroke: #333333"/>
     </g>
    </g>
    <g id="text_35">
     <text style="font: 8px 'Arial', sans-serif; text-anchor: start" x="453.973437" y="129.2208" transform="rotate(-0 453.973437 129.2208)">90</text>
    </g>
    <g id="PathCollection_22">
     <defs>
      <path id="mcfedb0313c" d="M 0 3.207135 
C 0.850542 3.207135 1.666363 2.869211 2.267787 2.267787 
C 2.869211 1.666363 3.207135 0.850542 3.207135 0 
C 3.207135 -0.850542 2.869211 -1.666363 2.267787 -2.267787 
C 1.666363 -2.869211 0.850542 -3.207135 0 -3.207135 
C -0.850542 -3.207135 -1.666363 -2.869211 -2.267787 -2.267787 
C -2.869211 -1.666363 -3.207135 -0.850542 -3.207135 0 
C -3.207135 0.850542 -2.869211 1.666363 -2.267787 2.267787 
C -1.666363 2.869211 -0.850542 3.207135 0 3.207135 
z
" style="stroke: #333333"/>
     </defs>
     <g>
      <use xlink:href="#mcfedb0313c" x="439.573437" y="138.43705" style="fill: #333333; stroke: #333333"/>
     </g>
    </g>
    <g id="text_36">
     <text style="font: 8px 'Arial', sans-serif; text-anchor: start" x="453.973437" y="140.53705" transform="rotate(-0 453.973437 140.53705)">120</text>
    </g>
    <g id="PathCollection_23">
     <defs>
      <path id="mac2ce17b05" d="M 0 3.577882 
C 0.948865 3.577882 1.858996 3.200894 2.529945 2.529945 
C 3.200894 1.858996 3.577882 0.948865 3.577882 0 
C 3.577882 -0.948865 3.200894 -1.858996 2.529945 -2.529945 
C 1.858996 -3.200894 0.948865 -3.577882 0 -3.577882 
C -0.948865 -3.577882 -1.858996 -3.200894 -2.529945 -2.529945 
C -3.200894 -1.858996 -3.577882 -0.948865 -3.577882 0 
C -3.577882 0.948865 -3.200894 1.858996 -2.529945 2.529945 
C -1.858996 3.200894 -0.948865 3.577882 0 3.577882 
z
" style="stroke: #333333"/>
     </defs>
     <g>
      <use xlink:href="#mac2ce17b05" x="439.573437" y="149.7533" style="fill: #333333; stroke: #333333"/>
     </g>
    </g>
    <g id="text_37">
     <text style="font: 8px 'Arial', sans-serif; text-anchor: start" x="453.973437" y="151.8533" transform="rotate(-0 453.973437 151.8533)">150</text>
    </g>
    <g id="PathCollection_24">
     <defs>
      <path id="m6327b230bd" d="M 0 3.913665 
C 1.037916 3.913665 2.033461 3.501296 2.767379 2.767379 
C 3.501296 2.033461 3.913665 1.037916 3.913665 0 
C 3.913665 -1.037916 3.501296 -2.033461 2.767379 -2.767379 
C 2.033461 -3.501296 1.037916 -3.913665 0 -3.913665 
C -1.037916 -3.913665 -2.033461 -3.501296 -2.767379 -2.767379 
C -3.501296 -2.033461 -3.913665 -1.037916 -3.913665 0 
C -3.913665 1.037916 -3.501296 2.033461 -2.767379 2.767379 
C -2.033461 3.501296 -1.037916 3.913665 0 3.913665 
z
" style="stroke: #333333"/>
     </defs>
     <g>
      <use xlink:href="#m6327b230bd" x="439.573437" y="161.06955" style="fill: #333333; stroke: #333333"/>
     </g>
    </g>
    <g id="text_38">
     <text style="font: 8px 'Arial', sans-serif; text-anchor: start" x="453.973437" y="163.16955" transform="rotate(-0 453.973437 163.16955)">180</text>
    </g>
    <g id="PathCollection_25">
     <defs>
      <path id="m9452100f1e" d="M 0 4.222831 
C 1.119908 4.222831 2.194098 3.777887 2.985992 2.985992 
C 3.777887 2.194098 4.222831 1.119908 4.222831 0 
C 4.222831 -1.119908 3.777887 -2.194098 2.985992 -2.985992 
C 2.194098 -3.777887 1.119908 -4.222831 0 -4.222831 
C -1.119908 -4.222831 -2.194098 -3.777887 -2.985992 -2.985992 
C -3.777887 -2.194098 -4.222831 -1.119908 -4.222831 0 
C -4.222831 1.119908 -3.777887 2.194098 -2.985992 2.985992 
C -2.194098 3.777887 -1.119908 4.222831 0 4.222831 
z
" style="stroke: #333333"/>
     </defs>
     <g>
      <use xlink:href="#m9452100f1e" x="439.573437" y="172.3858" style="fill: #333333; stroke: #333333"/>
     </g>
    </g>
    <g id="text_39">
     <text style="font: 8px 'Arial', sans-serif; text-anchor: start" x="453.973437" y="174.4858" transform="rotate(-0 453.973437 174.4858)">210</text>
    </g>
   </g>
  </g>
 </g>
 <defs>
  <clipPath id="p233bc87b1a">
   <rect x="35.717188" y="56.2658" width="173.043125" height="165.858"/>
  </clipPath>
  <clipPath id="p60c9b581ce">
   <rect x="251.330313" y="56.2658" width="173.043125" height="165.858"/>
  </clipPath>
 </defs>
</svg>
