<?xml version="1.0" encoding="utf-8" standalone="no"?>
<!DOCTYPE svg PUBLIC "-//W3C//DTD SVG 1.1//EN"
  "http://www.w3.org/Graphics/SVG/1.1/DTD/svg11.dtd">
<svg xmlns:xlink="http://www.w3.org/1999/xlink" width="522.609687pt" height="243.64005pt" viewBox="0 0 522.609687 243.64005" xmlns="http://www.w3.org/2000/svg" version="1.1">
 <metadata>
  <rdf:RDF xmlns:dc="http://purl.org/dc/elements/1.1/" xmlns:cc="http://creativecommons.org/ns#" xmlns:rdf="http://www.w3.org/1999/02/22-rdf-syntax-ns#">
   <cc:Work>
    <dc:type rdf:resource="http://purl.org/dc/dcmitype/StillImage"/>
    <dc:date>2023-07-07T22:08:52.886174</dc:date>
    <dc:format>image/svg+xml</dc:format>
    <dc:creator>
     <cc:Agent>
      <dc:title>Matplotlib v3.6.2, https://matplotlib.org/</dc:title>
     </cc:Agent>
    </dc:creator>
   </cc:Work>
  </rdf:RDF>
 </metadata>
 <defs>
  <style type="text/css">*{stroke-linejoin: round; stroke-linecap: butt}</style>
 </defs>
 <g id="figure_1">
  <g id="patch_1">
   <path d="M 0 243.64005 
L 522.609687 243.64005 
L 522.609687 0 
L 0 0 
L 0 243.64005 
z
" style="fill: none"/>
  </g>
  <g id="axes_1">
   <g id="patch_2">
    <path d="M 35.717188 222.1238 
L 208.760312 222.1238 
L 208.760312 56.2658 
L 35.717188 56.2658 
L 35.717188 222.1238 
z
" style="fill: none"/>
   </g>
   <g id="patch_3">
    <path d="M 78.977969 217.335479 
L 78.977969 217.335479 
L 78.977969 217.335479 
L 78.977969 217.335479 
z
" clip-path="url(#p1f07517fd4)" style="fill: #d4d4d4"/>
   </g>
   <g id="PolyCollection_1">
    <defs>
     <path id="m484a63b010" d="M 62.334613 -45.805779 
L 61.0127 -45.805779 
L 60.876303 -46.945477 
L 60.71797 -48.085176 
L 60.535524 -49.224874 
L 60.326831 -50.364572 
L 60.089856 -51.504271 
L 59.822718 -52.643969 
L 59.523751 -53.783667 
L 59.191567 -54.923366 
L 58.825109 -56.063064 
L 58.42371 -57.202762 
L 57.987139 -58.342461 
L 57.515644 -59.482159 
L 57.009983 -60.621857 
L 56.471445 -61.761556 
L 55.901862 -62.901254 
L 55.303606 -64.040952 
L 54.679582 -65.180651 
L 54.033202 -66.320349 
L 53.368361 -67.460047 
L 52.689403 -68.599746 
L 52.001075 -69.739444 
L 51.308487 -70.879142 
L 50.617065 -72.018841 
L 49.932502 -73.158539 
L 49.260708 -74.298237 
L 48.607756 -75.437936 
L 47.979828 -76.577634 
L 47.383154 -77.717332 
L 46.823944 -78.857031 
L 46.308315 -79.996729 
L 45.842203 -81.136428 
L 45.431271 -82.276126 
L 45.080804 -83.415824 
L 44.79559 -84.555523 
L 44.579803 -85.695221 
L 44.436868 -86.834919 
L 44.369344 -87.974618 
L 44.378795 -89.114316 
L 44.465684 -90.254014 
L 44.629286 -91.393713 
L 44.867614 -92.533411 
L 45.177392 -93.673109 
L 45.554053 -94.812808 
L 45.991783 -95.952506 
L 46.483599 -97.092204 
L 47.021481 -98.231903 
L 47.596532 -99.371601 
L 48.199184 -100.511299 
L 48.819426 -101.650998 
L 49.447059 -102.790696 
L 50.071965 -103.930394 
L 50.684377 -105.070093 
L 51.275147 -106.209791 
L 51.83599 -107.349489 
L 52.359714 -108.489188 
L 52.8404 -109.628886 
L 53.273555 -110.768584 
L 53.656208 -111.908283 
L 53.986961 -113.047981 
L 54.265979 -114.187679 
L 54.494942 -115.327378 
L 54.676937 -116.467076 
L 54.816306 -117.606774 
L 54.918461 -118.746473 
L 54.989665 -119.886171 
L 55.036791 -121.025869 
L 55.067066 -122.165568 
L 55.087818 -123.305266 
L 55.10622 -124.444964 
L 55.12906 -125.584663 
L 55.162528 -126.724361 
L 55.212036 -127.864059 
L 55.282074 -129.003758 
L 55.376106 -130.143456 
L 55.496516 -131.283154 
L 55.644581 -132.422853 
L 55.820503 -133.562551 
L 56.023467 -134.702249 
L 56.251741 -135.841948 
L 56.502792 -136.981646 
L 56.773436 -138.121345 
L 57.059991 -139.261043 
L 57.358442 -140.400741 
L 57.664602 -141.54044 
L 57.974265 -142.680138 
L 58.283349 -143.819836 
L 58.588015 -144.959535 
L 58.884772 -146.099233 
L 59.170553 -147.238931 
L 59.442769 -148.37863 
L 59.699341 -149.518328 
L 59.938707 -150.658026 
L 60.159814 -151.797725 
L 60.362085 -152.937423 
L 60.54538 -154.077121 
L 60.709947 -155.21682 
L 60.856359 -156.356518 
L 60.985457 -157.496216 
L 61.098291 -158.635915 
L 62.249022 -158.635915 
L 62.249022 -158.635915 
L 62.361855 -157.496216 
L 62.490954 -156.356518 
L 62.637366 -155.21682 
L 62.801932 -154.077121 
L 62.985228 -152.937423 
L 63.187498 -151.797725 
L 63.408605 -150.658026 
L 63.647972 -149.518328 
L 63.904544 -148.37863 
L 64.17676 -147.238931 
L 64.46254 -146.099233 
L 64.759297 -144.959535 
L 65.063963 -143.819836 
L 65.373047 -142.680138 
L 65.682711 -141.54044 
L 65.988871 -140.400741 
L 66.287322 -139.261043 
L 66.573877 -138.121345 
L 66.84452 -136.981646 
L 67.095572 -135.841948 
L 67.323845 -134.702249 
L 67.52681 -133.562551 
L 67.702732 -132.422853 
L 67.850797 -131.283154 
L 67.971206 -130.143456 
L 68.065239 -129.003758 
L 68.135276 -127.864059 
L 68.184784 -126.724361 
L 68.218252 -125.584663 
L 68.241093 -124.444964 
L 68.259495 -123.305266 
L 68.280246 -122.165568 
L 68.310522 -121.025869 
L 68.357648 -119.886171 
L 68.428852 -118.746473 
L 68.531007 -117.606774 
L 68.670376 -116.467076 
L 68.85237 -115.327378 
L 69.081334 -114.187679 
L 69.360352 -113.047981 
L 69.691104 -111.908283 
L 70.073758 -110.768584 
L 70.506913 -109.628886 
L 70.987599 -108.489188 
L 71.511322 -107.349489 
L 72.072166 -106.209791 
L 72.662935 -105.070093 
L 73.275347 -103.930394 
L 73.900253 -102.790696 
L 74.527886 -101.650998 
L 75.148128 -100.511299 
L 75.75078 -99.371601 
L 76.325832 -98.231903 
L 76.863714 -97.092204 
L 77.35553 -95.952506 
L 77.793259 -94.812808 
L 78.169921 -93.673109 
L 78.479699 -92.533411 
L 78.718027 -91.393713 
L 78.881628 -90.254014 
L 78.968518 -89.114316 
L 78.977969 -87.974618 
L 78.910444 -86.834919 
L 78.76751 -85.695221 
L 78.551722 -84.555523 
L 78.266509 -83.415824 
L 77.916042 -82.276126 
L 77.50511 -81.136428 
L 77.038998 -79.996729 
L 76.523368 -78.857031 
L 75.964158 -77.717332 
L 75.367484 -76.577634 
L 74.739557 -75.437936 
L 74.086605 -74.298237 
L 73.41481 -73.158539 
L 72.730247 -72.018841 
L 72.038826 -70.879142 
L 71.346238 -69.739444 
L 70.657909 -68.599746 
L 69.978951 -67.460047 
L 69.314111 -66.320349 
L 68.667731 -65.180651 
L 68.043706 -64.040952 
L 67.445451 -62.901254 
L 66.875868 -61.761556 
L 66.33733 -60.621857 
L 65.831669 -59.482159 
L 65.360174 -58.342461 
L 64.923603 -57.202762 
L 64.522203 -56.063064 
L 64.155745 -54.923366 
L 63.823561 -53.783667 
L 63.524595 -52.643969 
L 63.257457 -51.504271 
L 63.020481 -50.364572 
L 62.811788 -49.224874 
L 62.629342 -48.085176 
L 62.471009 -46.945477 
L 62.334613 -45.805779 
z
"/>
    </defs>
    <g clip-path="url(#p1f07517fd4)">
     <use xlink:href="#m484a63b010" x="0" y="243.64005" style="fill: #d4d4d4"/>
    </g>
   </g>
   <g id="patch_4">
    <path d="M 78.977969 217.335479 
L 78.977969 217.335479 
L 78.977969 217.335479 
L 78.977969 217.335479 
z
" clip-path="url(#p1f07517fd4)" style="fill: #11d6de"/>
   </g>
   <g id="PolyCollection_2">
    <defs>
     <path id="mabcf0729dd" d="M 96.811325 -29.05525 
L 95.753238 -29.05525 
L 95.648814 -30.038939 
L 95.528619 -31.022627 
L 95.391251 -32.006316 
L 95.235352 -32.990004 
L 95.059635 -33.973693 
L 94.862913 -34.957382 
L 94.644129 -35.94107 
L 94.402381 -36.924759 
L 94.136942 -37.908448 
L 93.84729 -38.892136 
L 93.533117 -39.875825 
L 93.194352 -40.859513 
L 92.831167 -41.843202 
L 92.443994 -42.826891 
L 92.033532 -43.810579 
L 91.600754 -44.794268 
L 91.146919 -45.777957 
L 90.673576 -46.761645 
L 90.182577 -47.745334 
L 89.676078 -48.729022 
L 89.156545 -49.712711 
L 88.626758 -50.6964 
L 88.089798 -51.680088 
L 87.549037 -52.663777 
L 87.008106 -53.647466 
L 86.47086 -54.631154 
L 85.941317 -55.614843 
L 85.423593 -56.598531 
L 84.921809 -57.58222 
L 84.439994 -58.565909 
L 83.981975 -59.549597 
L 83.551257 -60.533286 
L 83.150914 -61.516975 
L 82.783471 -62.500663 
L 82.450814 -63.484352 
L 82.154111 -64.46804 
L 81.893767 -65.451729 
L 81.669399 -66.435418 
L 81.479861 -67.419106 
L 81.323292 -68.402795 
L 81.1972 -69.386483 
L 81.098584 -70.370172 
L 81.02407 -71.353861 
L 80.970076 -72.337549 
L 80.932973 -73.321238 
L 80.909255 -74.304927 
L 80.895693 -75.288615 
L 80.889476 -76.272304 
L 80.888317 -77.255992 
L 80.890538 -78.239681 
L 80.895115 -79.22337 
L 80.901693 -80.207058 
L 80.910562 -81.190747 
L 80.922611 -82.174436 
L 80.939255 -83.158124 
L 80.962347 -84.141813 
L 80.994076 -85.125501 
L 81.036861 -86.10919 
L 81.093258 -87.092879 
L 81.165858 -88.076567 
L 81.257204 -89.060256 
L 81.369723 -90.043945 
L 81.505665 -91.027633 
L 81.667051 -92.011322 
L 81.855641 -92.99501 
L 82.072902 -93.978699 
L 82.319976 -94.962388 
L 82.597664 -95.946076 
L 82.906399 -96.929765 
L 83.24622 -97.913454 
L 83.616757 -98.897142 
L 84.017203 -99.880831 
L 84.446296 -100.864519 
L 84.902312 -101.848208 
L 85.383057 -102.831897 
L 85.88588 -103.815585 
L 86.40769 -104.799274 
L 86.945 -105.782963 
L 87.493976 -106.766651 
L 88.05051 -107.75034 
L 88.610301 -108.734028 
L 89.16895 -109.717717 
L 89.72206 -110.701406 
L 90.265341 -111.685094 
L 90.79471 -112.668783 
L 91.306389 -113.652471 
L 91.796987 -114.63616 
L 92.26357 -115.619849 
L 92.703719 -116.603537 
L 93.115557 -117.587226 
L 93.49777 -118.570915 
L 93.8496 -119.554603 
L 94.170821 -120.538292 
L 94.461707 -121.52198 
L 94.722976 -122.505669 
L 94.955733 -123.489358 
L 95.161402 -124.473046 
L 95.341659 -125.456735 
L 95.498364 -126.440424 
L 97.066199 -126.440424 
L 97.066199 -126.440424 
L 97.222903 -125.456735 
L 97.403161 -124.473046 
L 97.60883 -123.489358 
L 97.841586 -122.505669 
L 98.102855 -121.52198 
L 98.393741 -120.538292 
L 98.714963 -119.554603 
L 99.066792 -118.570915 
L 99.449006 -117.587226 
L 99.860844 -116.603537 
L 100.300992 -115.619849 
L 100.767576 -114.63616 
L 101.258173 -113.652471 
L 101.769852 -112.668783 
L 102.299221 -111.685094 
L 102.842502 -110.701406 
L 103.395613 -109.717717 
L 103.954262 -108.734028 
L 104.514053 -107.75034 
L 105.070587 -106.766651 
L 105.619563 -105.782963 
L 106.156872 -104.799274 
L 106.678683 -103.815585 
L 107.181505 -102.831897 
L 107.662251 -101.848208 
L 108.118267 -100.864519 
L 108.54736 -99.880831 
L 108.947805 -98.897142 
L 109.318342 -97.913454 
L 109.658164 -96.929765 
L 109.966898 -95.946076 
L 110.244586 -94.962388 
L 110.491661 -93.978699 
L 110.708921 -92.99501 
L 110.897512 -92.011322 
L 111.058898 -91.027633 
L 111.194839 -90.043945 
L 111.307358 -89.060256 
L 111.398705 -88.076567 
L 111.471304 -87.092879 
L 111.527701 -86.10919 
L 111.570487 -85.125501 
L 111.602215 -84.141813 
L 111.625307 -83.158124 
L 111.641952 -82.174436 
L 111.654001 -81.190747 
L 111.66287 -80.207058 
L 111.669447 -79.22337 
L 111.674025 -78.239681 
L 111.676246 -77.255992 
L 111.675086 -76.272304 
L 111.668869 -75.288615 
L 111.655308 -74.304927 
L 111.63159 -73.321238 
L 111.594487 -72.337549 
L 111.540492 -71.353861 
L 111.465979 -70.370172 
L 111.367362 -69.386483 
L 111.241271 -68.402795 
L 111.084701 -67.419106 
L 110.895164 -66.435418 
L 110.670796 -65.451729 
L 110.410451 -64.46804 
L 110.113749 -63.484352 
L 109.781091 -62.500663 
L 109.413648 -61.516975 
L 109.013305 -60.533286 
L 108.582588 -59.549597 
L 108.124568 -58.565909 
L 107.642753 -57.58222 
L 107.140969 -56.598531 
L 106.623245 -55.614843 
L 106.093703 -54.631154 
L 105.556457 -53.647466 
L 105.015526 -52.663777 
L 104.474764 -51.680088 
L 103.937804 -50.6964 
L 103.408017 -49.712711 
L 102.888485 -48.729022 
L 102.381985 -47.745334 
L 101.890986 -46.761645 
L 101.417644 -45.777957 
L 100.963809 -44.794268 
L 100.531031 -43.810579 
L 100.120569 -42.826891 
L 99.733396 -41.843202 
L 99.370211 -40.859513 
L 99.031445 -39.875825 
L 98.717272 -38.892136 
L 98.42762 -37.908448 
L 98.162182 -36.924759 
L 97.920433 -35.94107 
L 97.70165 -34.957382 
L 97.504928 -33.973693 
L 97.329211 -32.990004 
L 97.173311 -32.006316 
L 97.035944 -31.022627 
L 96.915749 -30.038939 
L 96.811325 -29.05525 
z
"/>
    </defs>
    <g clip-path="url(#p1f07517fd4)">
     <use xlink:href="#mabcf0729dd" x="0" y="243.64005" style="fill: #11d6de"/>
    </g>
   </g>
   <g id="PolyCollection_3">
    <defs>
     <path id="md7ecf0603c" d="M 148.906907 -36.858822 
L 147.48353 -36.858822 
L 147.337694 -37.982514 
L 147.168987 -39.106206 
L 146.975407 -40.229899 
L 146.755103 -41.353591 
L 146.506459 -42.477283 
L 146.228175 -43.600975 
L 145.919355 -44.724668 
L 145.579591 -45.84836 
L 145.209042 -46.972052 
L 144.808503 -48.095744 
L 144.379465 -49.219437 
L 143.92415 -50.343129 
L 143.445529 -51.466821 
L 142.947315 -52.590513 
L 142.433927 -53.714205 
L 141.910431 -54.837898 
L 141.382449 -55.96159 
L 140.856042 -57.085282 
L 140.337578 -58.208974 
L 139.833573 -59.332667 
L 139.350524 -60.456359 
L 138.89474 -61.580051 
L 138.472168 -62.703743 
L 138.088229 -63.827436 
L 137.747678 -64.951128 
L 137.454473 -66.07482 
L 137.211687 -67.198512 
L 137.021436 -68.322205 
L 136.884853 -69.445897 
L 136.802088 -70.569589 
L 136.77235 -71.693281 
L 136.793968 -72.816974 
L 136.864482 -73.940666 
L 136.980763 -75.064358 
L 137.139126 -76.18805 
L 137.335472 -77.311742 
L 137.565411 -78.435435 
L 137.824393 -79.559127 
L 138.107818 -80.682819 
L 138.411135 -81.806511 
L 138.729926 -82.930204 
L 139.059962 -84.053896 
L 139.397247 -85.177588 
L 139.738046 -86.30128 
L 140.078894 -87.424973 
L 140.416596 -88.548665 
L 140.74822 -89.672357 
L 141.071087 -90.796049 
L 141.382764 -91.919742 
L 141.681053 -93.043434 
L 141.963998 -94.167126 
L 142.229887 -95.290818 
L 142.477272 -96.414511 
L 142.704988 -97.538203 
L 142.912184 -98.661895 
L 143.098346 -99.785587 
L 143.263335 -100.90928 
L 143.407403 -102.032972 
L 143.531217 -103.156664 
L 143.635862 -104.280356 
L 143.722836 -105.404048 
L 143.794029 -106.527741 
L 143.851687 -107.651433 
L 143.898357 -108.775125 
L 143.936822 -109.898817 
L 143.970026 -111.02251 
L 144.000979 -112.146202 
L 144.032672 -113.269894 
L 144.067977 -114.393586 
L 144.109557 -115.517279 
L 144.159786 -116.640971 
L 144.220669 -117.764663 
L 144.293789 -118.888355 
L 144.380261 -120.012048 
L 144.480712 -121.13574 
L 144.59527 -122.259432 
L 144.723583 -123.383124 
L 144.864848 -124.506817 
L 145.017861 -125.630509 
L 145.181069 -126.754201 
L 145.352648 -127.877893 
L 145.530571 -129.001585 
L 145.712691 -130.125278 
L 145.896814 -131.24897 
L 146.080774 -132.372662 
L 146.262499 -133.496354 
L 146.440068 -134.620047 
L 146.611756 -135.743739 
L 146.776071 -136.867431 
L 146.931778 -137.991123 
L 147.077909 -139.114816 
L 147.213766 -140.238508 
L 147.338909 -141.3622 
L 147.453146 -142.485892 
L 147.556503 -143.609585 
L 147.649204 -144.733277 
L 147.731632 -145.856969 
L 147.804306 -146.980661 
L 147.867844 -148.104354 
L 148.522593 -148.104354 
L 148.522593 -148.104354 
L 148.586132 -146.980661 
L 148.658806 -145.856969 
L 148.741234 -144.733277 
L 148.833934 -143.609585 
L 148.937291 -142.485892 
L 149.051528 -141.3622 
L 149.176672 -140.238508 
L 149.312528 -139.114816 
L 149.458659 -137.991123 
L 149.614367 -136.867431 
L 149.778682 -135.743739 
L 149.95037 -134.620047 
L 150.127938 -133.496354 
L 150.309663 -132.372662 
L 150.493623 -131.24897 
L 150.677746 -130.125278 
L 150.859866 -129.001585 
L 151.037789 -127.877893 
L 151.209368 -126.754201 
L 151.372577 -125.630509 
L 151.525589 -124.506817 
L 151.666855 -123.383124 
L 151.795168 -122.259432 
L 151.909726 -121.13574 
L 152.010176 -120.012048 
L 152.096649 -118.888355 
L 152.169769 -117.764663 
L 152.230652 -116.640971 
L 152.28088 -115.517279 
L 152.322461 -114.393586 
L 152.357765 -113.269894 
L 152.389458 -112.146202 
L 152.420412 -111.02251 
L 152.453615 -109.898817 
L 152.492081 -108.775125 
L 152.538751 -107.651433 
L 152.596408 -106.527741 
L 152.667602 -105.404048 
L 152.754576 -104.280356 
L 152.859221 -103.156664 
L 152.983035 -102.032972 
L 153.127103 -100.90928 
L 153.292091 -99.785587 
L 153.478254 -98.661895 
L 153.685449 -97.538203 
L 153.913166 -96.414511 
L 154.160551 -95.290818 
L 154.42644 -94.167126 
L 154.709384 -93.043434 
L 155.007674 -91.919742 
L 155.31935 -90.796049 
L 155.642218 -89.672357 
L 155.973842 -88.548665 
L 156.311543 -87.424973 
L 156.652392 -86.30128 
L 156.993191 -85.177588 
L 157.330476 -84.053896 
L 157.660511 -82.930204 
L 157.979302 -81.806511 
L 158.28262 -80.682819 
L 158.566045 -79.559127 
L 158.825026 -78.435435 
L 159.054965 -77.311742 
L 159.251311 -76.18805 
L 159.409675 -75.064358 
L 159.525955 -73.940666 
L 159.59647 -72.816974 
L 159.618087 -71.693281 
L 159.588349 -70.569589 
L 159.505585 -69.445897 
L 159.369001 -68.322205 
L 159.17875 -67.198512 
L 158.935964 -66.07482 
L 158.64276 -64.951128 
L 158.302208 -63.827436 
L 157.91827 -62.703743 
L 157.495697 -61.580051 
L 157.039913 -60.456359 
L 156.556865 -59.332667 
L 156.05286 -58.208974 
L 155.534395 -57.085282 
L 155.007989 -55.96159 
L 154.480006 -54.837898 
L 153.95651 -53.714205 
L 153.443122 -52.590513 
L 152.944908 -51.466821 
L 152.466287 -50.343129 
L 152.010972 -49.219437 
L 151.581934 -48.095744 
L 151.181396 -46.972052 
L 150.810846 -45.84836 
L 150.471082 -44.724668 
L 150.162262 -43.600975 
L 149.883978 -42.477283 
L 149.635334 -41.353591 
L 149.41503 -40.229899 
L 149.22145 -39.106206 
L 149.052744 -37.982514 
L 148.906907 -36.858822 
z
"/>
    </defs>
    <g clip-path="url(#p1f07517fd4)">
     <use xlink:href="#md7ecf0603c" x="0" y="243.64005" style="fill: #d4d4d4"/>
    </g>
   </g>
   <g id="PolyCollection_4">
    <defs>
     <path id="mbbd78d6915" d="M 183.809264 -38.171012 
L 181.798423 -38.171012 
L 181.597618 -38.799016 
L 181.367023 -39.42702 
L 181.104526 -40.055023 
L 180.808348 -40.683027 
L 180.477157 -41.311031 
L 180.110171 -41.939035 
L 179.707272 -42.567039 
L 179.269095 -43.195042 
L 178.797106 -43.823046 
L 178.293657 -44.45105 
L 177.76201 -45.079054 
L 177.206325 -45.707058 
L 176.631612 -46.335062 
L 176.043637 -46.963065 
L 175.448794 -47.591069 
L 174.853927 -48.219073 
L 174.266131 -48.847077 
L 173.692511 -49.475081 
L 173.139935 -50.103084 
L 172.614768 -50.731088 
L 172.122624 -51.359092 
L 171.668126 -51.987096 
L 171.254702 -52.6151 
L 170.884427 -53.243103 
L 170.557917 -53.871107 
L 170.274285 -54.499111 
L 170.031172 -55.127115 
L 169.824836 -55.755119 
L 169.650317 -56.383123 
L 169.501664 -57.011126 
L 169.372202 -57.63913 
L 169.254852 -58.267134 
L 169.142466 -58.895138 
L 169.028166 -59.523142 
L 168.905682 -60.151145 
L 168.769654 -60.779149 
L 168.615895 -61.407153 
L 168.441596 -62.035157 
L 168.24547 -62.663161 
L 168.027818 -63.291164 
L 167.790525 -63.919168 
L 167.53698 -64.547172 
L 167.271931 -65.175176 
L 167.001281 -65.80318 
L 166.731832 -66.431183 
L 166.471001 -67.059187 
L 166.226513 -67.687191 
L 166.00609 -68.315195 
L 165.81715 -68.943199 
L 165.666533 -69.571203 
L 165.560254 -70.199206 
L 165.503311 -70.82721 
L 165.499531 -71.455214 
L 165.551483 -72.083218 
L 165.660434 -72.711222 
L 165.826371 -73.339225 
L 166.048061 -73.967229 
L 166.323157 -74.595233 
L 166.648343 -75.223237 
L 167.019502 -75.851241 
L 167.431896 -76.479244 
L 167.880366 -77.107248 
L 168.359514 -77.735252 
L 168.863885 -78.363256 
L 169.388131 -78.99126 
L 169.927149 -79.619264 
L 170.476192 -80.247267 
L 171.030952 -80.875271 
L 171.587613 -81.503275 
L 172.142872 -82.131279 
L 172.693938 -82.759283 
L 173.238501 -83.387286 
L 173.77469 -84.01529 
L 174.30101 -84.643294 
L 174.816276 -85.271298 
L 175.31954 -85.899302 
L 175.810026 -86.527305 
L 176.287062 -87.155309 
L 176.750033 -87.783313 
L 177.198334 -88.411317 
L 177.631348 -89.039321 
L 178.04843 -89.667325 
L 178.448908 -90.295328 
L 178.83209 -90.923332 
L 179.197293 -91.551336 
L 179.543861 -92.17934 
L 179.871202 -92.807344 
L 180.178814 -93.435347 
L 180.466322 -94.063351 
L 180.733498 -94.691355 
L 180.980282 -95.319359 
L 181.206797 -95.947363 
L 181.413351 -96.575366 
L 181.600434 -97.20337 
L 181.768712 -97.831374 
L 181.919005 -98.459378 
L 182.05227 -99.087382 
L 182.169572 -99.715386 
L 182.272059 -100.343389 
L 183.335629 -100.343389 
L 183.335629 -100.343389 
L 183.438115 -99.715386 
L 183.555417 -99.087382 
L 183.688682 -98.459378 
L 183.838976 -97.831374 
L 184.007253 -97.20337 
L 184.194337 -96.575366 
L 184.40089 -95.947363 
L 184.627405 -95.319359 
L 184.874189 -94.691355 
L 185.141365 -94.063351 
L 185.428873 -93.435347 
L 185.736486 -92.807344 
L 186.063826 -92.17934 
L 186.410394 -91.551336 
L 186.775597 -90.923332 
L 187.15878 -90.295328 
L 187.559257 -89.667325 
L 187.976339 -89.039321 
L 188.409353 -88.411317 
L 188.857654 -87.783313 
L 189.320625 -87.155309 
L 189.797662 -86.527305 
L 190.288147 -85.899302 
L 190.791412 -85.271298 
L 191.306678 -84.643294 
L 191.832998 -84.01529 
L 192.369187 -83.387286 
L 192.91375 -82.759283 
L 193.464815 -82.131279 
L 194.020075 -81.503275 
L 194.576735 -80.875271 
L 195.131496 -80.247267 
L 195.680539 -79.619264 
L 196.219557 -78.99126 
L 196.743803 -78.363256 
L 197.248174 -77.735252 
L 197.727321 -77.107248 
L 198.175791 -76.479244 
L 198.588186 -75.851241 
L 198.959344 -75.223237 
L 199.284531 -74.595233 
L 199.559626 -73.967229 
L 199.781316 -73.339225 
L 199.947253 -72.711222 
L 200.056205 -72.083218 
L 200.108156 -71.455214 
L 200.104376 -70.82721 
L 200.047433 -70.199206 
L 199.941155 -69.571203 
L 199.790538 -68.943199 
L 199.601598 -68.315195 
L 199.381174 -67.687191 
L 199.136686 -67.059187 
L 198.875855 -66.431183 
L 198.606406 -65.80318 
L 198.335756 -65.175176 
L 198.070708 -64.547172 
L 197.817163 -63.919168 
L 197.579869 -63.291164 
L 197.362217 -62.663161 
L 197.166091 -62.035157 
L 196.991792 -61.407153 
L 196.838033 -60.779149 
L 196.702005 -60.151145 
L 196.579521 -59.523142 
L 196.465222 -58.895138 
L 196.352835 -58.267134 
L 196.235486 -57.63913 
L 196.106024 -57.011126 
L 195.95737 -56.383123 
L 195.782852 -55.755119 
L 195.576515 -55.127115 
L 195.333402 -54.499111 
L 195.049771 -53.871107 
L 194.723261 -53.243103 
L 194.352986 -52.6151 
L 193.939562 -51.987096 
L 193.485063 -51.359092 
L 192.992919 -50.731088 
L 192.467753 -50.103084 
L 191.915176 -49.475081 
L 191.341556 -48.847077 
L 190.75376 -48.219073 
L 190.158894 -47.591069 
L 189.56405 -46.963065 
L 188.976075 -46.335062 
L 188.401362 -45.707058 
L 187.845678 -45.079054 
L 187.314031 -44.45105 
L 186.810582 -43.823046 
L 186.338592 -43.195042 
L 185.900415 -42.567039 
L 185.497516 -41.939035 
L 185.130531 -41.311031 
L 184.799339 -40.683027 
L 184.503162 -40.055023 
L 184.240665 -39.42702 
L 184.01007 -38.799016 
L 183.809264 -38.171012 
z
"/>
    </defs>
    <g clip-path="url(#p1f07517fd4)">
     <use xlink:href="#mbbd78d6915" x="0" y="243.64005" style="fill: #11d6de"/>
    </g>
   </g>
   <g id="matplotlib.axis_1">
    <g id="xtick_1">
     <g id="line2d_1">
      <defs>
       <path id="me6695d6207" d="M 0 0 
L 0 3.5 
" style="stroke: #000000; stroke-width: 0.8"/>
      </defs>
      <g>
       <use xlink:href="#me6695d6207" x="78.977969" y="222.1238" style="stroke: #000000; stroke-width: 0.8"/>
      </g>
     </g>
     <g id="text_1">
      <text style="font: 8px 'Arial', sans-serif; text-anchor: middle" x="78.977969" y="234.85005" transform="rotate(-0 78.977969 234.85005)">Male</text>
     </g>
    </g>
    <g id="xtick_2">
     <g id="line2d_2">
      <g>
       <use xlink:href="#me6695d6207" x="165.499531" y="222.1238" style="stroke: #000000; stroke-width: 0.8"/>
      </g>
     </g>
     <g id="text_2">
      <text style="font: 8px 'Arial', sans-serif; text-anchor: middle" x="165.499531" y="234.85005" transform="rotate(-0 165.499531 234.85005)">Female</text>
     </g>
    </g>
   </g>
   <g id="matplotlib.axis_2">
    <g id="ytick_1">
     <g id="line2d_3">
      <defs>
       <path id="m2966f35d94" d="M 0 0 
L -3.5 0 
" style="stroke: #000000; stroke-width: 0.8"/>
      </defs>
      <g>
       <use xlink:href="#m2966f35d94" x="35.717188" y="217.335479" style="stroke: #000000; stroke-width: 0.8"/>
      </g>
     </g>
     <g id="text_3">
      <text style="font: 6px 'Arial', sans-serif; text-anchor: end" x="28.717188" y="219.482823" transform="rotate(-0 28.717188 219.482823)">0</text>
     </g>
    </g>
    <g id="ytick_2">
     <g id="line2d_4">
      <g>
       <use xlink:href="#m2966f35d94" x="35.717188" y="192.36302" style="stroke: #000000; stroke-width: 0.8"/>
      </g>
     </g>
     <g id="text_4">
      <text style="font: 6px 'Arial', sans-serif; text-anchor: end" x="28.717188" y="194.510364" transform="rotate(-0 28.717188 194.510364)">50</text>
     </g>
    </g>
    <g id="ytick_3">
     <g id="line2d_5">
      <g>
       <use xlink:href="#m2966f35d94" x="35.717188" y="167.390561" style="stroke: #000000; stroke-width: 0.8"/>
      </g>
     </g>
     <g id="text_5">
      <text style="font: 6px 'Arial', sans-serif; text-anchor: end" x="28.717188" y="169.537905" transform="rotate(-0 28.717188 169.537905)">100</text>
     </g>
    </g>
    <g id="ytick_4">
     <g id="line2d_6">
      <g>
       <use xlink:href="#m2966f35d94" x="35.717188" y="142.418102" style="stroke: #000000; stroke-width: 0.8"/>
      </g>
     </g>
     <g id="text_6">
      <text style="font: 6px 'Arial', sans-serif; text-anchor: end" x="28.717188" y="144.565445" transform="rotate(-0 28.717188 144.565445)">150</text>
     </g>
    </g>
    <g id="ytick_5">
     <g id="line2d_7">
      <g>
       <use xlink:href="#m2966f35d94" x="35.717188" y="117.445642" style="stroke: #000000; stroke-width: 0.8"/>
      </g>
     </g>
     <g id="text_7">
      <text style="font: 6px 'Arial', sans-serif; text-anchor: end" x="28.717188" y="119.592986" transform="rotate(-0 28.717188 119.592986)">200</text>
     </g>
    </g>
    <g id="ytick_6">
     <g id="line2d_8">
      <g>
       <use xlink:href="#m2966f35d94" x="35.717188" y="92.473183" style="stroke: #000000; stroke-width: 0.8"/>
      </g>
     </g>
     <g id="text_8">
      <text style="font: 6px 'Arial', sans-serif; text-anchor: end" x="28.717188" y="94.620527" transform="rotate(-0 28.717188 94.620527)">250</text>
     </g>
    </g>
    <g id="ytick_7">
     <g id="line2d_9">
      <g>
       <use xlink:href="#m2966f35d94" x="35.717188" y="67.500724" style="stroke: #000000; stroke-width: 0.8"/>
      </g>
     </g>
     <g id="text_9">
      <text style="font: 6px 'Arial', sans-serif; text-anchor: end" x="28.717188" y="69.648068" transform="rotate(-0 28.717188 69.648068)">300</text>
     </g>
    </g>
    <g id="text_10">
     <text style="font: 8px 'Arial', sans-serif; text-anchor: middle" x="13.02375" y="139.1948" transform="rotate(-90 13.02375 139.1948)">Cummulative Testing Lick Bursts</text>
    </g>
   </g>
   <g id="line2d_10">
    <path d="M 61.673656 171.386154 
L 61.673656 144.915347 
" clip-path="url(#p1f07517fd4)" style="fill: none"/>
   </g>
   <g id="line2d_11">
    <path d="M 61.673656 159.898823 
L 61.673656 144.915347 
" clip-path="url(#p1f07517fd4)" style="fill: none"/>
   </g>
   <g id="line2d_12">
    <path d="M 96.282281 191.863571 
L 96.282281 139.920856 
" clip-path="url(#p1f07517fd4)" style="fill: none"/>
   </g>
   <g id="line2d_13">
    <path d="M 96.282281 176.380646 
L 96.282281 152.906534 
" clip-path="url(#p1f07517fd4)" style="fill: none"/>
   </g>
   <g id="line2d_14">
    <path d="M 148.195219 180.37624 
L 148.195219 121.940685 
" clip-path="url(#p1f07517fd4)" style="fill: none"/>
   </g>
   <g id="line2d_15">
    <path d="M 148.195219 176.505508 
L 148.195219 152.282223 
" clip-path="url(#p1f07517fd4)" style="fill: none"/>
   </g>
   <g id="line2d_16">
    <path d="M 182.803844 190.864672 
L 182.803844 157.901026 
" clip-path="url(#p1f07517fd4)" style="fill: none"/>
   </g>
   <g id="line2d_17">
    <path d="M 182.803844 188.367426 
L 182.803844 169.388358 
" clip-path="url(#p1f07517fd4)" style="fill: none"/>
   </g>
   <g id="line2d_18">
    <path d="M 96.282281 69.098961 
L 96.282281 63.8048 
L 182.803844 63.8048 
L 182.803844 69.098961 
" clip-path="url(#p1f07517fd4)" style="fill: none; stroke: #000000; stroke-width: 0.5; stroke-linecap: square"/>
   </g>
   <g id="line2d_19">
    <path d="M 61.673656 84.981445 
L 61.673656 79.687284 
L 148.195219 79.687284 
L 148.195219 84.981445 
" clip-path="url(#p1f07517fd4)" style="fill: none; stroke: #000000; stroke-width: 0.5; stroke-linecap: square"/>
   </g>
   <g id="line2d_20">
    <path d="M 148.195219 100.863929 
L 148.195219 95.569768 
L 182.803844 95.569768 
L 182.803844 100.863929 
" clip-path="url(#p1f07517fd4)" style="fill: none; stroke: #000000; stroke-width: 0.5; stroke-linecap: square"/>
   </g>
   <g id="line2d_21">
    <path d="M 61.673656 100.863929 
L 61.673656 95.569768 
L 96.282281 95.569768 
L 96.282281 100.863929 
" clip-path="url(#p1f07517fd4)" style="fill: none; stroke: #000000; stroke-width: 0.5; stroke-linecap: square"/>
   </g>
   <g id="patch_5">
    <path d="M 35.717188 222.1238 
L 35.717188 56.2658 
" style="fill: none; stroke: #000000; stroke-width: 0.8; stroke-linejoin: miter; stroke-linecap: square"/>
   </g>
   <g id="patch_6">
    <path d="M 35.717188 222.1238 
L 208.760312 222.1238 
" style="fill: none; stroke: #000000; stroke-width: 0.8; stroke-linejoin: miter; stroke-linecap: square"/>
   </g>
   <g id="PathCollection_1">
    <defs>
     <path id="C0_0_530afbb9a4" d="M 0 2.5 
C 0.663008 2.5 1.29895 2.236584 1.767767 1.767767 
C 2.236584 1.29895 2.5 0.663008 2.5 -0 
C 2.5 -0.663008 2.236584 -1.29895 1.767767 -1.767767 
C 1.29895 -2.236584 0.663008 -2.5 0 -2.5 
C -0.663008 -2.5 -1.29895 -2.236584 -1.767767 -1.767767 
C -2.236584 -1.29895 -2.5 -0.663008 -2.5 0 
C -2.5 0.663008 -2.236584 1.29895 -1.767767 1.767767 
C -1.29895 2.236584 -0.663008 2.5 0 2.5 
z
"/>
    </defs>
    <g clip-path="url(#p1f07517fd4)">
     <use xlink:href="#C0_0_530afbb9a4" x="61.673656" y="111.452252" style="fill: #262626; fill-opacity: 0.5"/>
    </g>
    <g clip-path="url(#p1f07517fd4)">
     <use xlink:href="#C0_0_530afbb9a4" x="63.972795" y="148.411492" style="fill: #262626; fill-opacity: 0.5"/>
    </g>
    <g clip-path="url(#p1f07517fd4)">
     <use xlink:href="#C0_0_530afbb9a4" x="56.529492" y="151.907636" style="fill: #262626; fill-opacity: 0.5"/>
    </g>
    <g clip-path="url(#p1f07517fd4)">
     <use xlink:href="#C0_0_530afbb9a4" x="61.673656" y="159.898823" style="fill: #262626; fill-opacity: 0.5"/>
    </g>
    <g clip-path="url(#p1f07517fd4)">
     <use xlink:href="#C0_0_530afbb9a4" x="61.427295" y="166.391662" style="fill: #262626; fill-opacity: 0.5"/>
    </g>
    <g clip-path="url(#p1f07517fd4)">
     <use xlink:href="#C0_0_530afbb9a4" x="61.673656" y="116.946193" style="fill: #262626; fill-opacity: 0.5"/>
    </g>
    <g clip-path="url(#p1f07517fd4)">
     <use xlink:href="#C0_0_530afbb9a4" x="61.673656" y="171.386154" style="fill: #262626; fill-opacity: 0.5"/>
    </g>
    <g clip-path="url(#p1f07517fd4)">
     <use xlink:href="#C0_0_530afbb9a4" x="61.673656" y="152.906534" style="fill: #262626; fill-opacity: 0.5"/>
    </g>
    <g clip-path="url(#p1f07517fd4)">
     <use xlink:href="#C0_0_530afbb9a4" x="60.219581" y="144.915347" style="fill: #262626; fill-opacity: 0.5"/>
    </g>
   </g>
   <g id="PathCollection_2">
    <defs>
     <path id="C1_0_28aacd62e7" d="M 0 2.5 
C 0.663008 2.5 1.29895 2.236584 1.767767 1.767767 
C 2.236584 1.29895 2.5 0.663008 2.5 -0 
C 2.5 -0.663008 2.236584 -1.29895 1.767767 -1.767767 
C 1.29895 -2.236584 0.663008 -2.5 0 -2.5 
C -0.663008 -2.5 -1.29895 -2.236584 -1.767767 -1.767767 
C -2.236584 -1.29895 -2.5 -0.663008 -2.5 0 
C -2.5 0.663008 -2.236584 1.29895 -1.767767 1.767767 
C -1.29895 2.236584 -0.663008 2.5 0 2.5 
z
"/>
    </defs>
    <g clip-path="url(#p1f07517fd4)">
     <use xlink:href="#C1_0_28aacd62e7" x="96.282281" y="142.917551" style="fill-opacity: 0.5"/>
    </g>
    <g clip-path="url(#p1f07517fd4)">
     <use xlink:href="#C1_0_28aacd62e7" x="92.079681" y="139.920856" style="fill-opacity: 0.5"/>
    </g>
    <g clip-path="url(#p1f07517fd4)">
     <use xlink:href="#C1_0_28aacd62e7" x="92.079681" y="176.380646" style="fill-opacity: 0.5"/>
    </g>
    <g clip-path="url(#p1f07517fd4)">
     <use xlink:href="#C1_0_28aacd62e7" x="96.282281" y="152.906534" style="fill-opacity: 0.5"/>
    </g>
    <g clip-path="url(#p1f07517fd4)">
     <use xlink:href="#C1_0_28aacd62e7" x="96.282281" y="191.863571" style="fill-opacity: 0.5"/>
    </g>
    <g clip-path="url(#p1f07517fd4)">
     <use xlink:href="#C1_0_28aacd62e7" x="99.438441" y="175.381748" style="fill-opacity: 0.5"/>
    </g>
    <g clip-path="url(#p1f07517fd4)">
     <use xlink:href="#C1_0_28aacd62e7" x="92.529067" y="157.901026" style="fill-opacity: 0.5"/>
    </g>
    <g clip-path="url(#p1f07517fd4)">
     <use xlink:href="#C1_0_28aacd62e7" x="96.282281" y="161.397171" style="fill-opacity: 0.5"/>
    </g>
    <g clip-path="url(#p1f07517fd4)">
     <use xlink:href="#C1_0_28aacd62e7" x="96.282281" y="179.377341" style="fill-opacity: 0.5"/>
    </g>
   </g>
   <g id="PathCollection_3">
    <defs>
     <path id="C2_0_cf9f29b6e3" d="M 0 2.5 
C 0.663008 2.5 1.29895 2.236584 1.767767 1.767767 
C 2.236584 1.29895 2.5 0.663008 2.5 -0 
C 2.5 -0.663008 2.236584 -1.29895 1.767767 -1.767767 
C 1.29895 -2.236584 0.663008 -2.5 0 -2.5 
C -0.663008 -2.5 -1.29895 -2.236584 -1.767767 -1.767767 
C -2.236584 -1.29895 -2.5 -0.663008 -2.5 0 
C -2.5 0.663008 -2.236584 1.29895 -1.767767 1.767767 
C -1.29895 2.236584 -0.663008 2.5 0 2.5 
z
"/>
    </defs>
    <g clip-path="url(#p1f07517fd4)">
     <use xlink:href="#C2_0_cf9f29b6e3" x="148.195219" y="121.940685" style="fill: #262626; fill-opacity: 0.5"/>
    </g>
    <g clip-path="url(#p1f07517fd4)">
     <use xlink:href="#C2_0_cf9f29b6e3" x="148.195219" y="128.433524" style="fill: #262626; fill-opacity: 0.5"/>
    </g>
    <g clip-path="url(#p1f07517fd4)">
     <use xlink:href="#C2_0_cf9f29b6e3" x="148.195219" y="180.37624" style="fill: #262626; fill-opacity: 0.5"/>
    </g>
    <g clip-path="url(#p1f07517fd4)">
     <use xlink:href="#C2_0_cf9f29b6e3" x="148.195219" y="156.402679" style="fill: #262626; fill-opacity: 0.5"/>
    </g>
    <g clip-path="url(#p1f07517fd4)">
     <use xlink:href="#C2_0_cf9f29b6e3" x="141.69348" y="172.884502" style="fill: #262626; fill-opacity: 0.5"/>
    </g>
    <g clip-path="url(#p1f07517fd4)">
     <use xlink:href="#C2_0_cf9f29b6e3" x="143.992618" y="177.379544" style="fill: #262626; fill-opacity: 0.5"/>
    </g>
    <g clip-path="url(#p1f07517fd4)">
     <use xlink:href="#C2_0_cf9f29b6e3" x="148.195219" y="164.893315" style="fill: #262626; fill-opacity: 0.5"/>
    </g>
    <g clip-path="url(#p1f07517fd4)">
     <use xlink:href="#C2_0_cf9f29b6e3" x="148.195219" y="173.8834" style="fill: #262626; fill-opacity: 0.5"/>
    </g>
    <g clip-path="url(#p1f07517fd4)">
     <use xlink:href="#C2_0_cf9f29b6e3" x="148.195219" y="150.908738" style="fill: #262626; fill-opacity: 0.5"/>
    </g>
    <g clip-path="url(#p1f07517fd4)">
     <use xlink:href="#C2_0_cf9f29b6e3" x="152.397819" y="177.379544" style="fill: #262626; fill-opacity: 0.5"/>
    </g>
   </g>
   <g id="PathCollection_4">
    <defs>
     <path id="C3_0_b4fc64bd02" d="M 0 2.5 
C 0.663008 2.5 1.29895 2.236584 1.767767 1.767767 
C 2.236584 1.29895 2.5 0.663008 2.5 -0 
C 2.5 -0.663008 2.236584 -1.29895 1.767767 -1.767767 
C 1.29895 -2.236584 0.663008 -2.5 0 -2.5 
C -0.663008 -2.5 -1.29895 -2.236584 -1.767767 -1.767767 
C -2.236584 -1.29895 -2.5 -0.663008 -2.5 0 
C -2.5 0.663008 -2.236584 1.29895 -1.767767 1.767767 
C -1.29895 2.236584 -0.663008 2.5 0 2.5 
z
"/>
    </defs>
    <g clip-path="url(#p1f07517fd4)">
     <use xlink:href="#C3_0_b4fc64bd02" x="182.803844" y="157.901026" style="fill-opacity: 0.5"/>
    </g>
    <g clip-path="url(#p1f07517fd4)">
     <use xlink:href="#C3_0_b4fc64bd02" x="185.960003" y="172.385053" style="fill-opacity: 0.5"/>
    </g>
    <g clip-path="url(#p1f07517fd4)">
     <use xlink:href="#C3_0_b4fc64bd02" x="182.803844" y="176.380646" style="fill-opacity: 0.5"/>
    </g>
    <g clip-path="url(#p1f07517fd4)">
     <use xlink:href="#C3_0_b4fc64bd02" x="187.352145" y="188.367426" style="fill-opacity: 0.5"/>
    </g>
    <g clip-path="url(#p1f07517fd4)">
     <use xlink:href="#C3_0_b4fc64bd02" x="177.795118" y="174.882299" style="fill-opacity: 0.5"/>
    </g>
    <g clip-path="url(#p1f07517fd4)">
     <use xlink:href="#C3_0_b4fc64bd02" x="185.510617" y="165.892213" style="fill-opacity: 0.5"/>
    </g>
    <g clip-path="url(#p1f07517fd4)">
     <use xlink:href="#C3_0_b4fc64bd02" x="181.757403" y="169.388358" style="fill-opacity: 0.5"/>
    </g>
    <g clip-path="url(#p1f07517fd4)">
     <use xlink:href="#C3_0_b4fc64bd02" x="182.803844" y="190.864672" style="fill-opacity: 0.5"/>
    </g>
    <g clip-path="url(#p1f07517fd4)">
     <use xlink:href="#C3_0_b4fc64bd02" x="177.99113" y="188.866876" style="fill-opacity: 0.5"/>
    </g>
   </g>
   <g id="PathCollection_5">
    <defs>
     <path id="ma194814760" d="M 0 0 
C 0 0 0 0 0 0 
C 0 0 0 0 0 0 
C 0 0 0 0 0 0 
C 0 0 0 0 0 0 
C 0 0 0 0 0 0 
C 0 0 0 0 0 0 
C 0 0 0 0 0 0 
C 0 0 0 0 0 0 
z
" style="stroke: #484848"/>
    </defs>
    <g clip-path="url(#p1f07517fd4)">
     <use xlink:href="#ma194814760" x="61.673656" y="151.907636" style="fill: #ffffff; stroke: #484848"/>
    </g>
   </g>
   <g id="PathCollection_6">
    <g clip-path="url(#p1f07517fd4)">
     <use xlink:href="#ma194814760" x="96.282281" y="161.397171" style="fill: #ffffff; stroke: #484848"/>
    </g>
   </g>
   <g id="PathCollection_7">
    <g clip-path="url(#p1f07517fd4)">
     <use xlink:href="#ma194814760" x="148.195219" y="168.888908" style="fill: #ffffff; stroke: #484848"/>
    </g>
   </g>
   <g id="PathCollection_8">
    <g clip-path="url(#p1f07517fd4)">
     <use xlink:href="#ma194814760" x="182.803844" y="174.882299" style="fill: #ffffff; stroke: #484848"/>
    </g>
   </g>
   <g id="text_11">
    <text style="font: 8px 'Arial', sans-serif; text-anchor: middle" x="139.543062" y="62.2148" transform="rotate(-0 139.543062 62.2148)">ns</text>
   </g>
   <g id="text_12">
    <text style="font: 8px 'Arial', sans-serif; text-anchor: middle" x="104.934438" y="78.097284" transform="rotate(-0 104.934438 78.097284)">ns</text>
   </g>
   <g id="text_13">
    <text style="font: 8px 'Arial', sans-serif; text-anchor: middle" x="165.499531" y="93.979768" transform="rotate(-0 165.499531 93.979768)">ns</text>
   </g>
   <g id="text_14">
    <text style="font: 8px 'Arial', sans-serif; text-anchor: middle" x="78.977969" y="93.979768" transform="rotate(-0 78.977969 93.979768)">ns</text>
   </g>
   <g id="legend_1">
    <g id="patch_7">
     <path d="M 42.917188 17.76 
L 58.917188 17.76 
L 58.917188 12.16 
L 42.917188 12.16 
z
" style="fill: #d4d4d4"/>
    </g>
    <g id="text_15">
     <!-- $AgRP^{TdTomato}$ -->
     <g transform="translate(65.317188 17.76)">
      <text>
       <tspan style="font: oblique 8px 'DejaVu Sans'" x="0 5.472656 10.550781 16.109375" y="-0.6828125000000007">AgRP</tspan>
       <tspan style="font: oblique 5.6px 'DejaVu Sans'" x="21.494323 24.915026 28.469714 31.890417 35.316589 40.771667 44.203307 46.39901" y="-3.7453125000000007">TdTomato</tspan>
      </text>
     </g>
    </g>
    <g id="patch_8">
     <path d="M 42.917188 30.8 
L 58.917188 30.8 
L 58.917188 25.2 
L 42.917188 25.2 
z
" style="fill: #11d6de"/>
    </g>
    <g id="text_16">
     <!-- $AgRP^{Chr2}$ -->
     <g transform="translate(65.317188 30.8)">
      <text>
       <tspan style="font: oblique 8px 'DejaVu Sans'" x="0 5.472656 10.550781 16.109375" y="-0.6828125000000007">AgRP</tspan>
       <tspan style="font: oblique 5.6px 'DejaVu Sans'" x="21.494323 25.404479 28.953698" y="-3.7453125000000007">Chr</tspan>
       <tspan style="font: 5.6px 'DejaVu Sans'" x="31.256042" y="-3.7453125000000007">2</tspan>
      </text>
     </g>
    </g>
   </g>
  </g>
  <g id="axes_2">
   <g id="patch_9">
    <path d="M 251.330313 222.1238 
L 424.373437 222.1238 
L 424.373437 56.2658 
L 251.330313 56.2658 
L 251.330313 222.1238 
z
" style="fill: none"/>
   </g>
   <g id="PathCollection_9">
    <path d="M 367.491026 150.314528 
C 368.559736 150.314528 369.584819 149.889925 370.340511 149.134233 
C 371.096203 148.378541 371.520806 147.353458 371.520806 146.284748 
C 371.520806 145.216038 371.096203 144.190955 370.340511 143.435263 
C 369.584819 142.679571 368.559736 142.254967 367.491026 142.254967 
C 366.422316 142.254967 365.397233 142.679571 364.641541 143.435263 
C 363.885849 144.190955 363.461246 145.216038 363.461246 146.284748 
C 363.461246 147.353458 363.885849 148.378541 364.641541 149.134233 
C 365.397233 149.889925 366.422316 150.314528 367.491026 150.314528 
z
" clip-path="url(#pb628242083)" style="fill: #d4d4d4; stroke: #ffffff; stroke-width: 0.388373"/>
    <path d="M 371.443619 180.023113 
C 372.475837 180.023113 373.465917 179.613008 374.195806 178.883119 
C 374.925695 178.153231 375.335799 177.163151 375.335799 176.130932 
C 375.335799 175.098714 374.925695 174.108634 374.195806 173.378745 
C 373.465917 172.648857 372.475837 172.238752 371.443619 172.238752 
C 370.411401 172.238752 369.42132 172.648857 368.691432 173.378745 
C 367.961543 174.108634 367.551438 175.098714 367.551438 176.130932 
C 367.551438 177.163151 367.961543 178.153231 368.691432 178.883119 
C 369.42132 179.613008 370.411401 180.023113 371.443619 180.023113 
z
" clip-path="url(#pb628242083)" style="fill: #d4d4d4; stroke: #ffffff; stroke-width: 0.388373"/>
    <path d="M 371.108458 176.091036 
C 371.780871 176.091036 372.425834 175.823884 372.901301 175.348416 
C 373.376769 174.872949 373.643921 174.227986 373.643921 173.555573 
C 373.643921 172.883161 373.376769 172.238198 372.901301 171.762731 
C 372.425834 171.287263 371.780871 171.020111 371.108458 171.020111 
C 370.436046 171.020111 369.791083 171.287263 369.315615 171.762731 
C 368.840148 172.238198 368.572995 172.883161 368.572995 173.555573 
C 368.572995 174.227986 368.840148 174.872949 369.315615 175.348416 
C 369.791083 175.823884 370.436046 176.091036 371.108458 176.091036 
z
" clip-path="url(#pb628242083)" style="fill: #d4d4d4; stroke: #ffffff; stroke-width: 0.388373"/>
    <path d="M 367.886746 186.276412 
C 368.744194 186.276412 369.566639 185.935744 370.172946 185.329437 
C 370.779253 184.72313 371.119921 183.900686 371.119921 183.043238 
C 371.119921 182.18579 370.779253 181.363345 370.172946 180.757038 
C 369.566639 180.150731 368.744194 179.810063 367.886746 179.810063 
C 367.029299 179.810063 366.206854 180.150731 365.600547 180.757038 
C 364.99424 181.363345 364.653572 182.18579 364.653572 183.043238 
C 364.653572 183.900686 364.99424 184.72313 365.600547 185.329437 
C 366.206854 185.935744 367.029299 186.276412 367.886746 186.276412 
z
" clip-path="url(#pb628242083)" style="fill: #d4d4d4; stroke: #ffffff; stroke-width: 0.388373"/>
    <path d="M 370.296079 184.461839 
C 371.031334 184.461839 371.736574 184.169719 372.256479 183.649815 
C 372.776383 183.129911 373.068503 182.424671 373.068503 181.689415 
C 373.068503 180.95416 372.776383 180.248919 372.256479 179.729015 
C 371.736574 179.209111 371.031334 178.916991 370.296079 178.916991 
C 369.560823 178.916991 368.855583 179.209111 368.335679 179.729015 
C 367.815775 180.248919 367.523655 180.95416 367.523655 181.689415 
C 367.523655 182.424671 367.815775 183.129911 368.335679 183.649815 
C 368.855583 184.169719 369.560823 184.461839 370.296079 184.461839 
z
" clip-path="url(#pb628242083)" style="fill: #d4d4d4; stroke: #ffffff; stroke-width: 0.388373"/>
    <path d="M 368.673637 207.370075 
C 369.371866 207.370075 370.041591 207.092666 370.535314 206.598944 
C 371.029036 206.105221 371.306445 205.435496 371.306445 204.737267 
C 371.306445 204.039039 371.029036 203.369313 370.535314 202.875591 
C 370.041591 202.381869 369.371866 202.10446 368.673637 202.10446 
C 367.975409 202.10446 367.305683 202.381869 366.811961 202.875591 
C 366.318239 203.369313 366.04083 204.039039 366.04083 204.737267 
C 366.04083 205.435496 366.318239 206.105221 366.811961 206.598944 
C 367.305683 207.092666 367.975409 207.370075 368.673637 207.370075 
z
" clip-path="url(#pb628242083)" style="fill: #d4d4d4; stroke: #ffffff; stroke-width: 0.388373"/>
    <path d="M 369.863491 199.244439 
C 370.660335 199.244439 371.424649 198.927849 371.988103 198.364396 
C 372.551556 197.800942 372.868146 197.036628 372.868146 196.239784 
C 372.868146 195.44294 372.551556 194.678626 371.988103 194.115172 
C 371.424649 193.551719 370.660335 193.235129 369.863491 193.235129 
C 369.066647 193.235129 368.302333 193.551719 367.738879 194.115172 
C 367.175426 194.678626 366.858836 195.44294 366.858836 196.239784 
C 366.858836 197.036628 367.175426 197.800942 367.738879 198.364396 
C 368.302333 198.927849 369.066647 199.244439 369.863491 199.244439 
z
" clip-path="url(#pb628242083)" style="fill: #d4d4d4; stroke: #ffffff; stroke-width: 0.388373"/>
    <path d="M 369.337902 195.639666 
C 370.065092 195.639666 370.762597 195.35075 371.276798 194.836549 
C 371.790999 194.322348 372.079915 193.624844 372.079915 192.897653 
C 372.079915 192.170463 371.790999 191.472959 371.276798 190.958757 
C 370.762597 190.444556 370.065092 190.155641 369.337902 190.155641 
C 368.610712 190.155641 367.913208 190.444556 367.399006 190.958757 
C 366.884805 191.472959 366.595889 192.170463 366.595889 192.897653 
C 366.595889 193.624844 366.884805 194.322348 367.399006 194.836549 
C 367.913208 195.35075 368.610712 195.639666 369.337902 195.639666 
z
" clip-path="url(#pb628242083)" style="fill: #d4d4d4; stroke: #ffffff; stroke-width: 0.388373"/>
    <path d="M 372.950834 127.91313 
C 373.845311 127.91313 374.703273 127.55775 375.335763 126.92526 
C 375.968254 126.292769 376.323633 125.434807 376.323633 124.54033 
C 376.323633 123.645853 375.968254 122.787892 375.335763 122.155401 
C 374.703273 121.52291 373.845311 121.167531 372.950834 121.167531 
C 372.056357 121.167531 371.198395 121.52291 370.565904 122.155401 
C 369.933414 122.787892 369.578034 123.645853 369.578034 124.54033 
C 369.578034 125.434807 369.933414 126.292769 370.565904 126.92526 
C 371.198395 127.55775 372.056357 127.91313 372.950834 127.91313 
z
" clip-path="url(#pb628242083)" style="fill: #d4d4d4; stroke: #ffffff; stroke-width: 0.388373"/>
    <path d="M 370.990745 168.500399 
C 371.688974 168.500399 372.358699 168.222989 372.852421 167.729267 
C 373.346144 167.235545 373.623553 166.56582 373.623553 165.867591 
C 373.623553 165.169362 373.346144 164.499637 372.852421 164.005914 
C 372.358699 163.512192 371.688974 163.234783 370.990745 163.234783 
C 370.292516 163.234783 369.622791 163.512192 369.129069 164.005914 
C 368.635347 164.499637 368.357937 165.169362 368.357937 165.867591 
C 368.357937 166.56582 368.635347 167.235545 369.129069 167.729267 
C 369.622791 168.222989 370.292516 168.500399 370.990745 168.500399 
z
" clip-path="url(#pb628242083)" style="fill: #d4d4d4; stroke: #ffffff; stroke-width: 0.388373"/>
    <path d="M 285.097979 137.07434 
C 286.22314 137.07434 287.30237 136.627308 288.097979 135.831699 
C 288.893588 135.03609 289.34062 133.956861 289.34062 132.831699 
C 289.34062 131.706538 288.893588 130.627308 288.097979 129.831699 
C 287.30237 129.03609 286.22314 128.589058 285.097979 128.589058 
C 283.972817 128.589058 282.893588 129.03609 282.097979 129.831699 
C 281.30237 130.627308 280.855338 131.706538 280.855338 132.831699 
C 280.855338 133.956861 281.30237 135.03609 282.097979 135.831699 
C 282.893588 136.627308 283.972817 137.07434 285.097979 137.07434 
z
" clip-path="url(#pb628242083)" style="fill: #d4d4d4; stroke: #ffffff; stroke-width: 0.388373"/>
    <path d="M 290.509187 149.252602 
C 291.419997 149.252602 292.293626 148.890733 292.937667 148.246692 
C 293.581707 147.602652 293.943576 146.729023 293.943576 145.818212 
C 293.943576 144.907401 293.581707 144.033772 292.937667 143.389732 
C 292.293626 142.745692 291.419997 142.383823 290.509187 142.383823 
C 289.598376 142.383823 288.724747 142.745692 288.080707 143.389732 
C 287.436666 144.033772 287.074797 144.907401 287.074797 145.818212 
C 287.074797 146.729023 287.436666 147.602652 288.080707 148.246692 
C 288.724747 148.890733 289.598376 149.252602 290.509187 149.252602 
z
" clip-path="url(#pb628242083)" style="fill: #d4d4d4; stroke: #ffffff; stroke-width: 0.388373"/>
    <path d="M 282.627163 150.64377 
C 283.515022 150.64377 284.366636 150.29102 284.994448 149.663208 
C 285.622259 149.035397 285.975009 148.183783 285.975009 147.295924 
C 285.975009 146.408064 285.622259 145.55645 284.994448 144.928639 
C 284.366636 144.300828 283.515022 143.948077 282.627163 143.948077 
C 281.739304 143.948077 280.887689 144.300828 280.259878 144.928639 
C 279.632067 145.55645 279.279317 146.408064 279.279317 147.295924 
C 279.279317 148.183783 279.632067 149.035397 280.259878 149.663208 
C 280.887689 150.29102 281.739304 150.64377 282.627163 150.64377 
z
" clip-path="url(#pb628242083)" style="fill: #d4d4d4; stroke: #ffffff; stroke-width: 0.388373"/>
    <path d="M 286.585642 170.468216 
C 287.418669 170.468216 288.21769 170.137251 288.806729 169.548212 
C 289.395769 168.959172 289.726734 168.160151 289.726734 167.327124 
C 289.726734 166.494097 289.395769 165.695076 288.806729 165.106037 
C 288.21769 164.516997 287.418669 164.186032 286.585642 164.186032 
C 285.752614 164.186032 284.953594 164.516997 284.364554 165.106037 
C 283.775515 165.695076 283.44455 166.494097 283.44455 167.327124 
C 283.44455 168.160151 283.775515 168.959172 284.364554 169.548212 
C 284.953594 170.137251 285.752614 170.468216 286.585642 170.468216 
z
" clip-path="url(#pb628242083)" style="fill: #d4d4d4; stroke: #ffffff; stroke-width: 0.388373"/>
    <path d="M 285.738092 201.498632 
C 286.523756 201.498632 287.277347 201.186485 287.832895 200.630936 
C 288.388443 200.075388 288.700591 199.321797 288.700591 198.536134 
C 288.700591 197.75047 288.388443 196.996879 287.832895 196.441331 
C 287.277347 195.885783 286.523756 195.573635 285.738092 195.573635 
C 284.952428 195.573635 284.198838 195.885783 283.643289 196.441331 
C 283.087741 196.996879 282.775594 197.75047 282.775594 198.536134 
C 282.775594 199.321797 283.087741 200.075388 283.643289 200.630936 
C 284.198838 201.186485 284.952428 201.498632 285.738092 201.498632 
z
" clip-path="url(#pb628242083)" style="fill: #d4d4d4; stroke: #ffffff; stroke-width: 0.388373"/>
    <path d="M 285.081489 194.023354 
C 286.177444 194.023354 287.228659 193.587927 288.003615 192.81297 
C 288.778572 192.038013 289.214 190.986799 289.214 189.890844 
C 289.214 188.79489 288.778572 187.743675 288.003615 186.968718 
C 287.228659 186.193761 286.177444 185.758334 285.081489 185.758334 
C 283.985535 185.758334 282.93432 186.193761 282.159364 186.968718 
C 281.384407 187.743675 280.948979 188.79489 280.948979 189.890844 
C 280.948979 190.986799 281.384407 192.038013 282.159364 192.81297 
C 282.93432 193.587927 283.985535 194.023354 285.081489 194.023354 
z
" clip-path="url(#pb628242083)" style="fill: #d4d4d4; stroke: #ffffff; stroke-width: 0.388373"/>
    <path d="M 289.40442 162.462796 
C 290.15161 162.462796 290.868298 162.165934 291.396641 161.637591 
C 291.924984 161.109248 292.221846 160.39256 292.221846 159.64537 
C 292.221846 158.89818 291.924984 158.181492 291.396641 157.653149 
C 290.868298 157.124806 290.15161 156.827944 289.40442 156.827944 
C 288.65723 156.827944 287.940542 157.124806 287.412199 157.653149 
C 286.883856 158.181492 286.586994 158.89818 286.586994 159.64537 
C 286.586994 160.39256 286.883856 161.109248 287.412199 161.637591 
C 287.940542 162.165934 288.65723 162.462796 289.40442 162.462796 
z
" clip-path="url(#pb628242083)" style="fill: #d4d4d4; stroke: #ffffff; stroke-width: 0.388373"/>
    <path d="M 284.35254 149.974596 
C 285.233732 149.974596 286.078951 149.624495 286.702048 149.001399 
C 287.325145 148.378302 287.675246 147.533083 287.675246 146.651891 
C 287.675246 145.770699 287.325145 144.92548 286.702048 144.302383 
C 286.078951 143.679286 285.233732 143.329185 284.35254 143.329185 
C 283.471348 143.329185 282.626129 143.679286 282.003033 144.302383 
C 281.379936 144.92548 281.029835 145.770699 281.029835 146.651891 
C 281.029835 147.533083 281.379936 148.378302 282.003033 149.001399 
C 282.626129 149.624495 283.471348 149.974596 284.35254 149.974596 
z
" clip-path="url(#pb628242083)" style="fill: #d4d4d4; stroke: #ffffff; stroke-width: 0.388373"/>
    <path d="M 282.701836 131.430583 
C 283.635034 131.430583 284.530136 131.059819 285.190007 130.399949 
C 285.849877 129.740078 286.220641 128.844976 286.220641 127.911778 
C 286.220641 126.97858 285.849877 126.083478 285.190007 125.423607 
C 284.530136 124.763737 283.635034 124.392973 282.701836 124.392973 
C 281.768638 124.392973 280.873536 124.763737 280.213665 125.423607 
C 279.553795 126.083478 279.183031 126.97858 279.183031 127.911778 
C 279.183031 128.844976 279.553795 129.740078 280.213665 130.399949 
C 280.873536 131.059819 281.768638 131.430583 282.701836 131.430583 
z
" clip-path="url(#pb628242083)" style="fill: #d4d4d4; stroke: #ffffff; stroke-width: 0.388373"/>
    <path d="M 389.96291 141.549972 
C 390.809979 141.549972 391.622467 141.213428 392.221435 140.614461 
C 392.820402 140.015493 393.156946 139.203005 393.156946 138.355936 
C 393.156946 137.508868 392.820402 136.69638 392.221435 136.097412 
C 391.622467 135.498445 390.809979 135.161901 389.96291 135.161901 
C 389.115842 135.161901 388.303354 135.498445 387.704386 136.097412 
C 387.105419 136.69638 386.768875 137.508868 386.768875 138.355936 
C 386.768875 139.203005 387.105419 140.015493 387.704386 140.614461 
C 388.303354 141.213428 389.115842 141.549972 389.96291 141.549972 
z
" clip-path="url(#pb628242083)" style="fill: #06e1e9; stroke: #ffffff; stroke-width: 0.388373"/>
    <path d="M 392.853924 147.649766 
C 393.593179 147.649766 394.302255 147.356057 394.824988 146.833324 
C 395.34772 146.310592 395.641429 145.601516 395.641429 144.86226 
C 395.641429 144.123005 395.34772 143.413929 394.824988 142.891196 
C 394.302255 142.368464 393.593179 142.074755 392.853924 142.074755 
C 392.114669 142.074755 391.405592 142.368464 390.88286 142.891196 
C 390.360127 143.413929 390.066418 144.123005 390.066418 144.86226 
C 390.066418 145.601516 390.360127 146.310592 390.88286 146.833324 
C 391.405592 147.356057 392.114669 147.649766 392.853924 147.649766 
z
" clip-path="url(#pb628242083)" style="fill: #06e1e9; stroke: #ffffff; stroke-width: 0.388373"/>
    <path d="M 387.253866 165.644841 
C 387.96049 165.644841 388.638268 165.364096 389.137927 164.864437 
C 389.637587 164.364778 389.918331 163.687 389.918331 162.980375 
C 389.918331 162.273751 389.637587 161.595972 389.137927 161.096313 
C 388.638268 160.596654 387.96049 160.315909 387.253866 160.315909 
C 386.547241 160.315909 385.869463 160.596654 385.369804 161.096313 
C 384.870144 161.595972 384.5894 162.273751 384.5894 162.980375 
C 384.5894 163.687 384.870144 164.364778 385.369804 164.864437 
C 385.869463 165.364096 386.547241 165.644841 387.253866 165.644841 
z
" clip-path="url(#pb628242083)" style="fill: #06e1e9; stroke: #ffffff; stroke-width: 0.388373"/>
    <path d="M 390.704528 152.099939 
C 391.302674 152.099939 391.876403 151.862293 392.299356 151.439339 
C 392.72231 151.016386 392.959956 150.442657 392.959956 149.844511 
C 392.959956 149.246364 392.72231 148.672636 392.299356 148.249682 
C 391.876403 147.826729 391.302674 147.589083 390.704528 147.589083 
C 390.106381 147.589083 389.532653 147.826729 389.109699 148.249682 
C 388.686746 148.672636 388.4491 149.246364 388.4491 149.844511 
C 388.4491 150.442657 388.686746 151.016386 389.109699 151.439339 
C 389.532653 151.862293 390.106381 152.099939 390.704528 152.099939 
z
" clip-path="url(#pb628242083)" style="fill: #06e1e9; stroke: #ffffff; stroke-width: 0.388373"/>
    <path d="M 392.820563 170.761373 
C 393.539598 170.761373 394.229279 170.475697 394.737714 169.967263 
C 395.246148 169.458829 395.531823 168.769147 395.531823 168.050113 
C 395.531823 167.331078 395.246148 166.641396 394.737714 166.132962 
C 394.229279 165.624528 393.539598 165.338853 392.820563 165.338853 
C 392.101528 165.338853 391.411847 165.624528 390.903413 166.132962 
C 390.394978 166.641396 390.109303 167.331078 390.109303 168.050113 
C 390.109303 168.769147 390.394978 169.458829 390.903413 169.967263 
C 391.411847 170.475697 392.101528 170.761373 392.820563 170.761373 
z
" clip-path="url(#pb628242083)" style="fill: #06e1e9; stroke: #ffffff; stroke-width: 0.388373"/>
    <path d="M 391.810105 174.659221 
C 392.599513 174.659221 393.356695 174.345586 393.914891 173.78739 
C 394.473087 173.229194 394.786722 172.472012 394.786722 171.682604 
C 394.786722 170.893196 394.473087 170.136014 393.914891 169.577818 
C 393.356695 169.019622 392.599513 168.705987 391.810105 168.705987 
C 391.020697 168.705987 390.263515 169.019622 389.705319 169.577818 
C 389.147123 170.136014 388.833488 170.893196 388.833488 171.682604 
C 388.833488 172.472012 389.147123 173.229194 389.705319 173.78739 
C 390.263515 174.345586 391.020697 174.659221 391.810105 174.659221 
z
" clip-path="url(#pb628242083)" style="fill: #06e1e9; stroke: #ffffff; stroke-width: 0.388373"/>
    <path d="M 392.694468 159.320972 
C 393.45728 159.320972 394.188952 159.017903 394.728342 158.478513 
C 395.267732 157.939124 395.570801 157.207451 395.570801 156.444639 
C 395.570801 155.681826 395.267732 154.950154 394.728342 154.410764 
C 394.188952 153.871374 393.45728 153.568306 392.694468 153.568306 
C 391.931655 153.568306 391.199983 153.871374 390.660593 154.410764 
C 390.121203 154.950154 389.818135 155.681826 389.818135 156.444639 
C 389.818135 157.207451 390.121203 157.939124 390.660593 158.478513 
C 391.199983 159.017903 391.931655 159.320972 392.694468 159.320972 
z
" clip-path="url(#pb628242083)" style="fill: #06e1e9; stroke: #ffffff; stroke-width: 0.388373"/>
    <path d="M 392.31467 178.995593 
C 392.887638 178.995593 393.437215 178.767951 393.842365 178.362801 
C 394.247514 177.957652 394.475157 177.408074 394.475157 176.835107 
C 394.475157 176.262139 394.247514 175.712561 393.842365 175.307412 
C 393.437215 174.902263 392.887638 174.67462 392.31467 174.67462 
C 391.741702 174.67462 391.192125 174.902263 390.786975 175.307412 
C 390.381826 175.712561 390.154184 176.262139 390.154184 176.835107 
C 390.154184 177.408074 390.381826 177.957652 390.786975 178.362801 
C 391.192125 178.767951 391.741702 178.995593 392.31467 178.995593 
z
" clip-path="url(#pb628242083)" style="fill: #06e1e9; stroke: #ffffff; stroke-width: 0.388373"/>
    <path d="M 388.88004 189.832936 
C 389.473236 189.832936 390.042216 189.597257 390.461669 189.177804 
C 390.881123 188.758351 391.116802 188.18937 391.116802 187.596174 
C 391.116802 187.002978 390.881123 186.433997 390.461669 186.014544 
C 390.042216 185.595091 389.473236 185.359412 388.88004 185.359412 
C 388.286843 185.359412 387.717863 185.595091 387.29841 186.014544 
C 386.878957 186.433997 386.643277 187.002978 386.643277 187.596174 
C 386.643277 188.18937 386.878957 188.758351 387.29841 189.177804 
C 387.717863 189.597257 388.286843 189.832936 388.88004 189.832936 
z
" clip-path="url(#pb628242083)" style="fill: #06e1e9; stroke: #ffffff; stroke-width: 0.388373"/>
    <path d="M 303.161923 153.034479 
C 304.107675 153.034479 305.01482 152.658728 305.683568 151.98998 
C 306.352316 151.321231 306.728068 150.414087 306.728068 149.468334 
C 306.728068 148.522581 306.352316 147.615437 305.683568 146.946689 
C 305.01482 146.277941 304.107675 145.902189 303.161923 145.902189 
C 302.21617 145.902189 301.309025 146.277941 300.640277 146.946689 
C 299.971529 147.615437 299.595777 148.522581 299.595777 149.468334 
C 299.595777 150.414087 299.971529 151.321231 300.640277 151.98998 
C 301.309025 152.658728 302.21617 153.034479 303.161923 153.034479 
z
" clip-path="url(#pb628242083)" style="fill: #06e1e9; stroke: #ffffff; stroke-width: 0.388373"/>
    <path d="M 308.1025 167.394825 
C 309.066779 167.394825 309.991693 167.011714 310.673541 166.329866 
C 311.355389 165.648018 311.7385 164.723104 311.7385 163.758825 
C 311.7385 162.794547 311.355389 161.869633 310.673541 161.187785 
C 309.991693 160.505937 309.066779 160.122825 308.1025 160.122825 
C 307.138222 160.122825 306.213308 160.505937 305.53146 161.187785 
C 304.849612 161.869633 304.4665 162.794547 304.4665 163.758825 
C 304.4665 164.723104 304.849612 165.648018 305.53146 166.329866 
C 306.213308 167.011714 307.138222 167.394825 308.1025 167.394825 
z
" clip-path="url(#pb628242083)" style="fill: #06e1e9; stroke: #ffffff; stroke-width: 0.388373"/>
    <path d="M 305.283874 127.723206 
C 305.990499 127.723206 306.668277 127.442461 307.167936 126.942801 
C 307.667595 126.443142 307.94834 125.765364 307.94834 125.05874 
C 307.94834 124.352115 307.667595 123.674337 307.167936 123.174678 
C 306.668277 122.675019 305.990499 122.394274 305.283874 122.394274 
C 304.577249 122.394274 303.899471 122.675019 303.399812 123.174678 
C 302.900153 123.674337 302.619408 124.352115 302.619408 125.05874 
C 302.619408 125.765364 302.900153 126.443142 303.399812 126.942801 
C 303.899471 127.442461 304.577249 127.723206 305.283874 127.723206 
z
" clip-path="url(#pb628242083)" style="fill: #06e1e9; stroke: #ffffff; stroke-width: 0.388373"/>
    <path d="M 307.998474 217.907506 
C 308.879666 217.907506 309.724885 217.557404 310.347982 216.934308 
C 310.971079 216.311211 311.32118 215.465992 311.32118 214.5848 
C 311.32118 213.703608 310.971079 212.858389 310.347982 212.235292 
C 309.724885 211.612196 308.879666 211.262094 307.998474 211.262094 
C 307.117282 211.262094 306.272063 211.612196 305.648967 212.235292 
C 305.02587 212.858389 304.675769 213.703608 304.675769 214.5848 
C 304.675769 215.465992 305.02587 216.311211 305.648967 216.934308 
C 306.272063 217.557404 307.117282 217.907506 307.998474 217.907506 
z
" clip-path="url(#pb628242083)" style="fill: #06e1e9; stroke: #ffffff; stroke-width: 0.388373"/>
    <path d="M 301.610915 197.885998 
C 302.173495 197.885998 302.71311 197.662482 303.110915 197.264677 
C 303.508719 196.866873 303.732235 196.327258 303.732235 195.764677 
C 303.732235 195.202096 303.508719 194.662482 303.110915 194.264677 
C 302.71311 193.866873 302.173495 193.643357 301.610915 193.643357 
C 301.048334 193.643357 300.508719 193.866873 300.110915 194.264677 
C 299.71311 194.662482 299.489594 195.202096 299.489594 195.764677 
C 299.489594 196.327258 299.71311 196.866873 300.110915 197.264677 
C 300.508719 197.662482 301.048334 197.885998 301.610915 197.885998 
z
" clip-path="url(#pb628242083)" style="fill: #06e1e9; stroke: #ffffff; stroke-width: 0.388373"/>
    <path d="M 304.757895 193.214458 
C 305.472817 193.214458 306.158554 192.930417 306.66408 192.424891 
C 307.169606 191.919365 307.453648 191.233628 307.453648 190.518706 
C 307.453648 189.803784 307.169606 189.118047 306.66408 188.612521 
C 306.158554 188.106995 305.472817 187.822954 304.757895 187.822954 
C 304.042974 187.822954 303.357237 188.106995 302.851711 188.612521 
C 302.346185 189.118047 302.062143 189.803784 302.062143 190.518706 
C 302.062143 191.233628 302.346185 191.919365 302.851711 192.424891 
C 303.357237 192.930417 304.042974 193.214458 304.757895 193.214458 
z
" clip-path="url(#pb628242083)" style="fill: #06e1e9; stroke: #ffffff; stroke-width: 0.388373"/>
    <path d="M 309.646543 165.305313 
C 310.493612 165.305313 311.3061 164.968769 311.905068 164.369802 
C 312.504035 163.770834 312.840579 162.958346 312.840579 162.111277 
C 312.840579 161.264209 312.504035 160.451721 311.905068 159.852753 
C 311.3061 159.253786 310.493612 158.917242 309.646543 158.917242 
C 308.799475 158.917242 307.986987 159.253786 307.388019 159.852753 
C 306.789052 160.451721 306.452508 161.264209 306.452508 162.111277 
C 306.452508 162.958346 306.789052 163.770834 307.388019 164.369802 
C 307.986987 164.968769 308.799475 165.305313 309.646543 165.305313 
z
" clip-path="url(#pb628242083)" style="fill: #06e1e9; stroke: #ffffff; stroke-width: 0.388373"/>
    <path d="M 308.459706 130.098705 
C 309.282045 130.098705 310.070814 129.771986 310.652296 129.190505 
C 311.233778 128.609023 311.560497 127.820254 311.560497 126.997914 
C 311.560497 126.175575 311.233778 125.386805 310.652296 124.805324 
C 310.070814 124.223842 309.282045 123.897123 308.459706 123.897123 
C 307.637366 123.897123 306.848597 124.223842 306.267115 124.805324 
C 305.685633 125.386805 305.358914 126.175575 305.358914 126.997914 
C 305.358914 127.820254 305.685633 128.609023 306.267115 129.190505 
C 306.848597 129.771986 307.637366 130.098705 308.459706 130.098705 
z
" clip-path="url(#pb628242083)" style="fill: #06e1e9; stroke: #ffffff; stroke-width: 0.388373"/>
    <path d="M 309.911619 157.928081 
C 310.592746 157.928081 311.246067 157.657466 311.727697 157.175837 
C 312.209326 156.694207 312.47994 156.040886 312.47994 155.359759 
C 312.47994 154.678633 312.209326 154.025312 311.727697 153.543682 
C 311.246067 153.062053 310.592746 152.791438 309.911619 152.791438 
C 309.230493 152.791438 308.577171 153.062053 308.095542 153.543682 
C 307.613913 154.025312 307.343298 154.678633 307.343298 155.359759 
C 307.343298 156.040886 307.613913 156.694207 308.095542 157.175837 
C 308.577171 157.657466 309.230493 157.928081 309.911619 157.928081 
z
" clip-path="url(#pb628242083)" style="fill: #06e1e9; stroke: #ffffff; stroke-width: 0.388373"/>
   </g>
   <g id="PathCollection_10"/>
   <g id="PathCollection_11"/>
   <g id="PathCollection_12"/>
   <g id="PathCollection_13"/>
   <g id="PathCollection_14"/>
   <g id="PathCollection_15"/>
   <g id="PathCollection_16"/>
   <g id="PathCollection_17"/>
   <g id="matplotlib.axis_3">
    <g id="xtick_3">
     <g id="line2d_22">
      <g>
       <use xlink:href="#me6695d6207" x="295.646235" y="222.1238" style="stroke: #000000; stroke-width: 0.8"/>
      </g>
     </g>
     <g id="text_17">
      <text style="font: 8px 'Arial', sans-serif; text-anchor: middle" x="295.646235" y="234.85005" transform="rotate(-0 295.646235 234.85005)">Male</text>
     </g>
    </g>
    <g id="xtick_4">
     <g id="line2d_23">
      <g>
       <use xlink:href="#me6695d6207" x="380.057515" y="222.1238" style="stroke: #000000; stroke-width: 0.8"/>
      </g>
     </g>
     <g id="text_18">
      <text style="font: 8px 'Arial', sans-serif; text-anchor: middle" x="380.057515" y="234.85005" transform="rotate(-0 380.057515 234.85005)">Female</text>
     </g>
    </g>
   </g>
   <g id="matplotlib.axis_4">
    <g id="ytick_8">
     <g id="line2d_24">
      <g>
       <use xlink:href="#m2966f35d94" x="251.330313" y="202.970464" style="stroke: #000000; stroke-width: 0.8"/>
      </g>
     </g>
     <g id="text_19">
      <text style="font: 6px 'Arial', sans-serif; text-anchor: end" x="244.330313" y="205.117808" transform="rotate(-0 244.330313 205.117808)">0.4</text>
     </g>
    </g>
    <g id="ytick_9">
     <g id="line2d_25">
      <g>
       <use xlink:href="#m2966f35d94" x="251.330313" y="174.701608" style="stroke: #000000; stroke-width: 0.8"/>
      </g>
     </g>
     <g id="text_20">
      <text style="font: 6px 'Arial', sans-serif; text-anchor: end" x="244.330313" y="176.848952" transform="rotate(-0 244.330313 176.848952)">0.6</text>
     </g>
    </g>
    <g id="ytick_10">
     <g id="line2d_26">
      <g>
       <use xlink:href="#m2966f35d94" x="251.330313" y="146.432752" style="stroke: #000000; stroke-width: 0.8"/>
      </g>
     </g>
     <g id="text_21">
      <text style="font: 6px 'Arial', sans-serif; text-anchor: end" x="244.330313" y="148.580096" transform="rotate(-0 244.330313 148.580096)">0.8</text>
     </g>
    </g>
    <g id="ytick_11">
     <g id="line2d_27">
      <g>
       <use xlink:href="#m2966f35d94" x="251.330313" y="118.163897" style="stroke: #000000; stroke-width: 0.8"/>
      </g>
     </g>
     <g id="text_22">
      <text style="font: 6px 'Arial', sans-serif; text-anchor: end" x="244.330313" y="120.31124" transform="rotate(-0 244.330313 120.31124)">1.0</text>
     </g>
    </g>
    <g id="ytick_12">
     <g id="line2d_28">
      <g>
       <use xlink:href="#m2966f35d94" x="251.330313" y="89.895041" style="stroke: #000000; stroke-width: 0.8"/>
      </g>
     </g>
     <g id="text_23">
      <text style="font: 6px 'Arial', sans-serif; text-anchor: end" x="244.330313" y="92.042385" transform="rotate(-0 244.330313 92.042385)">1.2</text>
     </g>
    </g>
    <g id="ytick_13">
     <g id="line2d_29">
      <g>
       <use xlink:href="#m2966f35d94" x="251.330313" y="61.626185" style="stroke: #000000; stroke-width: 0.8"/>
      </g>
     </g>
     <g id="text_24">
      <text style="font: 6px 'Arial', sans-serif; text-anchor: end" x="244.330313" y="63.773529" transform="rotate(-0 244.330313 63.773529)">1.4</text>
     </g>
    </g>
    <g id="text_25">
     <text style="font: 8px 'Arial', sans-serif; text-anchor: middle" x="230.400313" y="139.1948" transform="rotate(-90 230.400313 139.1948)">Burst Preference Index</text>
    </g>
   </g>
   <g id="line2d_30">
    <path d="M 365.78369 170.532014 
L 374.224818 170.532014 
" clip-path="url(#pb628242083)" style="fill: none; stroke: #000000; stroke-opacity: 0.5; stroke-width: 1.5; stroke-linecap: square"/>
   </g>
   <g id="line2d_31">
    <path d="M 281.568141 156.041929 
L 290.009269 156.041929 
" clip-path="url(#pb628242083)" style="fill: none; stroke: #000000; stroke-opacity: 0.5; stroke-width: 1.5; stroke-linecap: square"/>
   </g>
   <g id="line2d_32">
    <path d="M 386.812222 159.635031 
L 395.25335 159.635031 
" clip-path="url(#pb628242083)" style="fill: none; stroke: #000000; stroke-opacity: 0.5; stroke-width: 1.5; stroke-linecap: square"/>
   </g>
   <g id="line2d_33">
    <path d="M 302.327597 163.9494 
L 310.768725 163.9494 
" clip-path="url(#pb628242083)" style="fill: none; stroke: #000000; stroke-opacity: 0.5; stroke-width: 1.5; stroke-linecap: square"/>
   </g>
   <g id="line2d_34">
    <path d="M 306.197645 70.553192 
L 306.197645 63.8048 
L 390.608925 63.8048 
L 390.608925 70.553192 
" clip-path="url(#pb628242083)" style="fill: none; stroke: #000000; stroke-width: 0.5; stroke-linecap: square"/>
   </g>
   <g id="line2d_35">
    <path d="M 285.094825 90.798369 
L 285.094825 84.049977 
L 369.506105 84.049977 
L 369.506105 90.798369 
" clip-path="url(#pb628242083)" style="fill: none; stroke: #000000; stroke-width: 0.5; stroke-linecap: square"/>
   </g>
   <g id="line2d_36">
    <path d="M 369.506105 111.043546 
L 369.506105 104.295154 
L 390.608925 104.295154 
L 390.608925 111.043546 
" clip-path="url(#pb628242083)" style="fill: none; stroke: #000000; stroke-width: 0.5; stroke-linecap: square"/>
   </g>
   <g id="line2d_37">
    <path d="M 285.094825 111.043546 
L 285.094825 104.295154 
L 306.197645 104.295154 
L 306.197645 111.043546 
" clip-path="url(#pb628242083)" style="fill: none; stroke: #000000; stroke-width: 0.5; stroke-linecap: square"/>
   </g>
   <g id="patch_10">
    <path d="M 251.330313 222.1238 
L 251.330313 56.2658 
" style="fill: none; stroke: #000000; stroke-width: 0.8; stroke-linejoin: miter; stroke-linecap: square"/>
   </g>
   <g id="patch_11">
    <path d="M 251.330312 222.1238 
L 424.373437 222.1238 
" style="fill: none; stroke: #000000; stroke-width: 0.8; stroke-linejoin: miter; stroke-linecap: square"/>
   </g>
   <g id="text_26">
    <text style="font: 8px 'Arial', sans-serif; text-anchor: middle" x="348.403285" y="62.2148" transform="rotate(-0 348.403285 62.2148)">ns</text>
   </g>
   <g id="text_27">
    <text style="font: 8px 'Arial', sans-serif; text-anchor: middle" x="327.300465" y="82.459977" transform="rotate(-0 327.300465 82.459977)">****</text>
   </g>
   <g id="text_28">
    <text style="font: 8px 'Arial', sans-serif; text-anchor: middle" x="380.057515" y="102.705154" transform="rotate(-0 380.057515 102.705154)">**</text>
   </g>
   <g id="text_29">
    <text style="font: 8px 'Arial', sans-serif; text-anchor: middle" x="295.646235" y="102.705154" transform="rotate(-0 295.646235 102.705154)">**</text>
   </g>
   <g id="legend_2">
    <g id="text_30">
     <text style="font: 8px 'Arial', sans-serif; text-anchor: start" x="453.973437" y="69.19205" transform="rotate(-0 453.973437 69.19205)">Strain</text>
    </g>
    <g id="PathCollection_18">
     <defs>
      <path id="m1c28c7e56d" d="M 0 3 
C 0.795609 3 1.55874 2.683901 2.12132 2.12132 
C 2.683901 1.55874 3 0.795609 3 0 
C 3 -0.795609 2.683901 -1.55874 2.12132 -2.12132 
C 1.55874 -2.683901 0.795609 -3 0 -3 
C -0.795609 -3 -1.55874 -2.683901 -2.12132 -2.12132 
C -2.683901 -1.55874 -3 -0.795609 -3 0 
C -3 0.795609 -2.683901 1.55874 -2.12132 2.12132 
C -1.55874 2.683901 -0.795609 3 0 3 
z
" style="stroke: #d4d4d4"/>
     </defs>
     <g>
      <use xlink:href="#m1c28c7e56d" x="439.573437" y="80.04205" style="fill: #d4d4d4; stroke: #d4d4d4"/>
     </g>
    </g>
    <g id="text_31">
     <!-- $AgRP^{TdTomato}$ -->
     <g transform="translate(453.973437 82.14205)">
      <text>
       <tspan style="font: oblique 8px 'DejaVu Sans'" x="0 5.472656 10.550781 16.109375" y="-0.6828125000000007">AgRP</tspan>
       <tspan style="font: oblique 5.6px 'DejaVu Sans'" x="21.494323 24.915026 28.469714 31.890417 35.316589 40.771667 44.203307 46.39901" y="-3.7453125000000007">TdTomato</tspan>
      </text>
     </g>
    </g>
    <g id="PathCollection_19">
     <defs>
      <path id="m79fd283aff" d="M 0 3 
C 0.795609 3 1.55874 2.683901 2.12132 2.12132 
C 2.683901 1.55874 3 0.795609 3 0 
C 3 -0.795609 2.683901 -1.55874 2.12132 -2.12132 
C 1.55874 -2.683901 0.795609 -3 0 -3 
C -0.795609 -3 -1.55874 -2.683901 -2.12132 -2.12132 
C -2.683901 -1.55874 -3 -0.795609 -3 0 
C -3 0.795609 -2.683901 1.55874 -2.12132 2.12132 
C -1.55874 2.683901 -0.795609 3 0 3 
z
" style="stroke: #06e1e9"/>
     </defs>
     <g>
      <use xlink:href="#m79fd283aff" x="439.573437" y="93.08205" style="fill: #06e1e9; stroke: #06e1e9"/>
     </g>
    </g>
    <g id="text_32">
     <!-- $AgRP^{Chr2}$ -->
     <g transform="translate(453.973437 95.18205)">
      <text>
       <tspan style="font: oblique 8px 'DejaVu Sans'" x="0 5.472656 10.550781 16.109375" y="-0.6828125000000007">AgRP</tspan>
       <tspan style="font: oblique 5.6px 'DejaVu Sans'" x="21.494323 25.404479 28.953698" y="-3.7453125000000007">Chr</tspan>
       <tspan style="font: 5.6px 'DejaVu Sans'" x="31.256042" y="-3.7453125000000007">2</tspan>
      </text>
     </g>
    </g>
    <g id="text_33">
     <text style="font: 8px 'Arial', sans-serif; text-anchor: start" x="453.973437" y="106.5883" transform="rotate(-0 453.973437 106.5883)">Total Lick Bursts</text>
    </g>
    <g id="PathCollection_20">
     <defs>
      <path id="m63b0af22af" d="M 0 2.292304 
C 0.607926 2.292304 1.191035 2.050773 1.620904 1.620904 
C 2.050773 1.191035 2.292304 0.607926 2.292304 0 
C 2.292304 -0.607926 2.050773 -1.191035 1.620904 -1.620904 
C 1.191035 -2.050773 0.607926 -2.292304 0 -2.292304 
C -0.607926 -2.292304 -1.191035 -2.050773 -1.620904 -1.620904 
C -2.050773 -1.191035 -2.292304 -0.607926 -2.292304 0 
C -2.292304 0.607926 -2.050773 1.191035 -1.620904 1.620904 
C -1.191035 2.050773 -0.607926 2.292304 0 2.292304 
z
" style="stroke: #333333"/>
     </defs>
     <g>
      <use xlink:href="#m63b0af22af" x="439.573437" y="115.80455" style="fill: #333333; stroke: #333333"/>
     </g>
    </g>
    <g id="text_34">
     <text style="font: 8px 'Arial', sans-serif; text-anchor: start" x="453.973437" y="117.90455" transform="rotate(-0 453.973437 117.90455)">60</text>
    </g>
    <g id="PathCollection_21">
     <defs>
      <path id="mefb949cdfa" d="M 0 2.787505 
C 0.739255 2.787505 1.448332 2.493796 1.971064 1.971064 
C 2.493796 1.448332 2.787505 0.739255 2.787505 0 
C 2.787505 -0.739255 2.493796 -1.448332 1.971064 -1.971064 
C 1.448332 -2.493796 0.739255 -2.787505 0 -2.787505 
C -0.739255 -2.787505 -1.448332 -2.493796 -1.971064 -1.971064 
C -2.493796 -1.448332 -2.787505 -0.739255 -2.787505 0 
C -2.787505 0.739255 -2.493796 1.448332 -1.971064 1.971064 
C -1.448332 2.493796 -0.739255 2.787505 0 2.787505 
z
" style="stroke: #333333"/>
     </defs>
     <g>
      <use xlink:href="#mefb949cdfa" x="439.573437" y="127.1208" style="fill: #333333; stroke: #333333"/>
     </g>
    </g>
    <g id="text_35">
     <text style="font: 8px 'Arial', sans-serif; text-anchor: start" x="453.973437" y="129.2208" transform="rotate(-0 453.973437 129.2208)">90</text>
    </g>
    <g id="PathCollection_22">
     <defs>
      <path id="m507a8f95b0" d="M 0 3.207135 
C 0.850542 3.207135 1.666363 2.869211 2.267787 2.267787 
C 2.869211 1.666363 3.207135 0.850542 3.207135 0 
C 3.207135 -0.850542 2.869211 -1.666363 2.267787 -2.267787 
C 1.666363 -2.869211 0.850542 -3.207135 0 -3.207135 
C -0.850542 -3.207135 -1.666363 -2.869211 -2.267787 -2.267787 
C -2.869211 -1.666363 -3.207135 -0.850542 -3.207135 0 
C -3.207135 0.850542 -2.869211 1.666363 -2.267787 2.267787 
C -1.666363 2.869211 -0.850542 3.207135 0 3.207135 
z
" style="stroke: #333333"/>
     </defs>
     <g>
      <use xlink:href="#m507a8f95b0" x="439.573437" y="138.43705" style="fill: #333333; stroke: #333333"/>
     </g>
    </g>
    <g id="text_36">
     <text style="font: 8px 'Arial', sans-serif; text-anchor: start" x="453.973437" y="140.53705" transform="rotate(-0 453.973437 140.53705)">120</text>
    </g>
    <g id="PathCollection_23">
     <defs>
      <path id="m5295802c6d" d="M 0 3.577882 
C 0.948865 3.577882 1.858996 3.200894 2.529945 2.529945 
C 3.200894 1.858996 3.577882 0.948865 3.577882 0 
C 3.577882 -0.948865 3.200894 -1.858996 2.529945 -2.529945 
C 1.858996 -3.200894 0.948865 -3.577882 0 -3.577882 
C -0.948865 -3.577882 -1.858996 -3.200894 -2.529945 -2.529945 
C -3.200894 -1.858996 -3.577882 -0.948865 -3.577882 0 
C -3.577882 0.948865 -3.200894 1.858996 -2.529945 2.529945 
C -1.858996 3.200894 -0.948865 3.577882 0 3.577882 
z
" style="stroke: #333333"/>
     </defs>
     <g>
      <use xlink:href="#m5295802c6d" x="439.573437" y="149.7533" style="fill: #333333; stroke: #333333"/>
     </g>
    </g>
    <g id="text_37">
     <text style="font: 8px 'Arial', sans-serif; text-anchor: start" x="453.973437" y="151.8533" transform="rotate(-0 453.973437 151.8533)">150</text>
    </g>
    <g id="PathCollection_24">
     <defs>
      <path id="m34dc751c7d" d="M 0 3.913665 
C 1.037916 3.913665 2.033461 3.501296 2.767379 2.767379 
C 3.501296 2.033461 3.913665 1.037916 3.913665 0 
C 3.913665 -1.037916 3.501296 -2.033461 2.767379 -2.767379 
C 2.033461 -3.501296 1.037916 -3.913665 0 -3.913665 
C -1.037916 -3.913665 -2.033461 -3.501296 -2.767379 -2.767379 
C -3.501296 -2.033461 -3.913665 -1.037916 -3.913665 0 
C -3.913665 1.037916 -3.501296 2.033461 -2.767379 2.767379 
C -2.033461 3.501296 -1.037916 3.913665 0 3.913665 
z
" style="stroke: #333333"/>
     </defs>
     <g>
      <use xlink:href="#m34dc751c7d" x="439.573437" y="161.06955" style="fill: #333333; stroke: #333333"/>
     </g>
    </g>
    <g id="text_38">
     <text style="font: 8px 'Arial', sans-serif; text-anchor: start" x="453.973437" y="163.16955" transform="rotate(-0 453.973437 163.16955)">180</text>
    </g>
    <g id="PathCollection_25">
     <defs>
      <path id="ma9d9057ac5" d="M 0 4.222831 
C 1.119908 4.222831 2.194098 3.777887 2.985992 2.985992 
C 3.777887 2.194098 4.222831 1.119908 4.222831 0 
C 4.222831 -1.119908 3.777887 -2.194098 2.985992 -2.985992 
C 2.194098 -3.777887 1.119908 -4.222831 0 -4.222831 
C -1.119908 -4.222831 -2.194098 -3.777887 -2.985992 -2.985992 
C -3.777887 -2.194098 -4.222831 -1.119908 -4.222831 0 
C -4.222831 1.119908 -3.777887 2.194098 -2.985992 2.985992 
C -2.194098 3.777887 -1.119908 4.222831 0 4.222831 
z
" style="stroke: #333333"/>
     </defs>
     <g>
      <use xlink:href="#ma9d9057ac5" x="439.573437" y="172.3858" style="fill: #333333; stroke: #333333"/>
     </g>
    </g>
    <g id="text_39">
     <text style="font: 8px 'Arial', sans-serif; text-anchor: start" x="453.973437" y="174.4858" transform="rotate(-0 453.973437 174.4858)">210</text>
    </g>
   </g>
  </g>
 </g>
 <defs>
  <clipPath id="p1f07517fd4">
   <rect x="35.717188" y="56.2658" width="173.043125" height="165.858"/>
  </clipPath>
  <clipPath id="pb628242083">
   <rect x="251.330313" y="56.2658" width="173.043125" height="165.858"/>
  </clipPath>
 </defs>
</svg>
