<?xml version="1.0" encoding="utf-8" standalone="no"?>
<!DOCTYPE svg PUBLIC "-//W3C//DTD SVG 1.1//EN"
  "http://www.w3.org/Graphics/SVG/1.1/DTD/svg11.dtd">
<svg xmlns:xlink="http://www.w3.org/1999/xlink" width="550.848125pt" height="326.201312pt" viewBox="0 0 550.848125 326.201312" xmlns="http://www.w3.org/2000/svg" version="1.1">
 <metadata>
  <rdf:RDF xmlns:dc="http://purl.org/dc/elements/1.1/" xmlns:cc="http://creativecommons.org/ns#" xmlns:rdf="http://www.w3.org/1999/02/22-rdf-syntax-ns#">
   <cc:Work>
    <dc:type rdf:resource="http://purl.org/dc/dcmitype/StillImage"/>
    <dc:date>2023-05-22T09:28:07.249138</dc:date>
    <dc:format>image/svg+xml</dc:format>
    <dc:creator>
     <cc:Agent>
      <dc:title>Matplotlib v3.6.2, https://matplotlib.org/</dc:title>
     </cc:Agent>
    </dc:creator>
   </cc:Work>
  </rdf:RDF>
 </metadata>
 <defs>
  <style type="text/css">*{stroke-linejoin: round; stroke-linecap: butt}</style>
 </defs>
 <g id="figure_1">
  <g id="patch_1">
   <path d="M 0 326.201312 
L 550.848125 326.201312 
L 550.848125 0 
L 0 0 
L 0 326.201312 
z
" style="fill: none"/>
  </g>
  <g id="axes_1">
   <g id="patch_2">
    <path d="M 44.028125 302.856 
L 267.043125 302.856 
L 267.043125 47.6 
L 44.028125 47.6 
L 44.028125 302.856 
z
" style="fill: none"/>
   </g>
   <g id="patch_3">
    <path d="M 99.218706 295.486759 
L 99.218706 295.486759 
L 99.218706 295.486759 
L 99.218706 295.486759 
z
" clip-path="url(#p75348bceff)" style="fill: #d4d4d4"/>
   </g>
   <g id="PolyCollection_1">
    <defs>
     <path id="m9d94c7de87" d="M 77.552372 -60.726976 
L 75.831504 -60.726976 
L 75.653943 -62.480976 
L 75.447826 -64.234975 
L 75.210317 -65.988975 
L 74.93864 -67.742974 
L 74.630145 -69.496974 
L 74.282385 -71.250973 
L 73.89319 -73.004972 
L 73.460753 -74.758972 
L 72.983698 -76.512971 
L 72.461156 -78.266971 
L 71.892827 -80.02097 
L 71.279034 -81.77497 
L 70.620764 -83.528969 
L 69.919695 -85.282969 
L 69.178212 -87.036968 
L 68.399402 -88.790967 
L 67.587046 -90.544967 
L 66.745588 -92.298966 
L 65.880099 -94.052966 
L 64.99623 -95.806965 
L 64.100164 -97.560965 
L 63.198552 -99.314964 
L 62.298459 -101.068964 
L 61.407294 -102.822963 
L 60.532752 -104.576962 
L 59.682739 -106.330962 
L 58.865302 -108.084961 
L 58.088551 -109.838961 
L 57.360571 -111.59296 
L 56.689324 -113.34696 
L 56.082539 -115.100959 
L 55.547588 -116.854959 
L 55.09135 -118.608958 
L 54.720059 -120.362957 
L 54.439146 -122.116957 
L 54.253074 -123.870956 
L 54.16517 -125.624956 
L 54.177474 -127.378955 
L 54.290587 -129.132955 
L 54.503563 -130.886954 
L 54.813819 -132.640954 
L 55.217088 -134.394953 
L 55.707426 -136.148952 
L 56.277263 -137.902952 
L 56.917509 -139.656951 
L 57.617724 -141.410951 
L 58.366327 -143.16495 
L 59.15086 -144.91895 
L 59.958291 -146.672949 
L 60.775345 -148.426948 
L 61.588848 -150.180948 
L 62.386086 -151.934947 
L 63.15515 -153.688947 
L 63.885257 -155.442946 
L 64.56704 -157.196946 
L 65.192798 -158.950945 
L 65.75668 -160.704945 
L 66.254818 -162.458944 
L 66.685392 -164.212943 
L 67.048618 -165.966943 
L 67.346683 -167.720942 
L 67.583603 -169.474942 
L 67.765034 -171.228941 
L 67.898019 -172.982941 
L 67.990713 -174.73694 
L 68.052062 -176.49094 
L 68.091474 -178.244939 
L 68.118488 -179.998938 
L 68.142444 -181.752938 
L 68.172178 -183.506937 
L 68.215747 -185.260937 
L 68.280196 -187.014936 
L 68.371371 -188.768936 
L 68.493783 -190.522935 
L 68.650532 -192.276935 
L 68.843283 -194.030934 
L 69.072298 -195.784933 
L 69.336518 -197.538933 
L 69.633685 -199.292932 
L 69.960503 -201.046932 
L 70.312827 -202.800931 
L 70.685865 -204.554931 
L 71.074389 -206.30893 
L 71.472948 -208.06293 
L 71.876068 -209.816929 
L 72.278434 -211.570928 
L 72.675049 -213.324928 
L 73.061367 -215.078927 
L 73.433396 -216.832927 
L 73.787767 -218.586926 
L 74.121772 -220.340926 
L 74.43338 -222.094925 
L 74.721217 -223.848924 
L 74.984533 -225.602924 
L 75.223147 -227.356923 
L 75.43738 -229.110923 
L 75.627979 -230.864922 
L 75.79604 -232.618922 
L 75.942927 -234.372921 
L 77.440949 -234.372921 
L 77.440949 -234.372921 
L 77.587836 -232.618922 
L 77.755897 -230.864922 
L 77.946496 -229.110923 
L 78.160729 -227.356923 
L 78.399343 -225.602924 
L 78.662659 -223.848924 
L 78.950496 -222.094925 
L 79.262104 -220.340926 
L 79.596109 -218.586926 
L 79.95048 -216.832927 
L 80.322509 -215.078927 
L 80.708828 -213.324928 
L 81.105442 -211.570928 
L 81.507808 -209.816929 
L 81.910928 -208.06293 
L 82.309488 -206.30893 
L 82.698012 -204.554931 
L 83.071049 -202.800931 
L 83.423373 -201.046932 
L 83.750192 -199.292932 
L 84.047358 -197.538933 
L 84.311578 -195.784933 
L 84.540594 -194.030934 
L 84.733345 -192.276935 
L 84.890093 -190.522935 
L 85.012505 -188.768936 
L 85.10368 -187.014936 
L 85.168129 -185.260937 
L 85.211698 -183.506937 
L 85.241432 -181.752938 
L 85.265388 -179.998938 
L 85.292402 -178.244939 
L 85.331815 -176.49094 
L 85.393163 -174.73694 
L 85.485857 -172.982941 
L 85.618843 -171.228941 
L 85.800273 -169.474942 
L 86.037194 -167.720942 
L 86.335258 -165.966943 
L 86.698485 -164.212943 
L 87.129058 -162.458944 
L 87.627197 -160.704945 
L 88.191078 -158.950945 
L 88.816836 -157.196946 
L 89.498619 -155.442946 
L 90.228726 -153.688947 
L 90.99779 -151.934947 
L 91.795029 -150.180948 
L 92.608532 -148.426948 
L 93.425585 -146.672949 
L 94.233016 -144.91895 
L 95.017549 -143.16495 
L 95.766152 -141.410951 
L 96.466367 -139.656951 
L 97.106614 -137.902952 
L 97.67645 -136.148952 
L 98.166788 -134.394953 
L 98.570058 -132.640954 
L 98.880313 -130.886954 
L 99.093289 -129.132955 
L 99.206403 -127.378955 
L 99.218706 -125.624956 
L 99.130803 -123.870956 
L 98.94473 -122.116957 
L 98.663818 -120.362957 
L 98.292527 -118.608958 
L 97.836288 -116.854959 
L 97.301337 -115.100959 
L 96.694552 -113.34696 
L 96.023305 -111.59296 
L 95.295325 -109.838961 
L 94.518574 -108.084961 
L 93.701138 -106.330962 
L 92.851124 -104.576962 
L 91.976582 -102.822963 
L 91.085417 -101.068964 
L 90.185324 -99.314964 
L 89.283712 -97.560965 
L 88.387646 -95.806965 
L 87.503778 -94.052966 
L 86.638288 -92.298966 
L 85.79683 -90.544967 
L 84.984474 -88.790967 
L 84.205664 -87.036968 
L 83.464181 -85.282969 
L 82.763112 -83.528969 
L 82.104842 -81.77497 
L 81.49105 -80.02097 
L 80.922721 -78.266971 
L 80.400179 -76.512971 
L 79.923123 -74.758972 
L 79.490686 -73.004972 
L 79.101492 -71.250973 
L 78.753731 -69.496974 
L 78.445236 -67.742974 
L 78.173559 -65.988975 
L 77.936051 -64.234975 
L 77.729933 -62.480976 
L 77.552372 -60.726976 
z
"/>
    </defs>
    <g clip-path="url(#p75348bceff)">
     <use xlink:href="#m9d94c7de87" x="0" y="326.201312" style="fill: #d4d4d4"/>
    </g>
   </g>
   <g id="patch_4">
    <path d="M 99.218706 295.486759 
L 99.218706 295.486759 
L 99.218706 295.486759 
L 99.218706 295.486759 
z
" clip-path="url(#p75348bceff)" style="fill: #06e1e9"/>
   </g>
   <g id="PolyCollection_2">
    <defs>
     <path id="mddc2d5c3f7" d="M 122.434183 -34.947858 
L 121.056764 -34.947858 
L 120.920825 -36.461758 
L 120.764355 -37.975658 
L 120.58553 -39.489558 
L 120.38258 -41.003458 
L 120.153831 -42.517358 
L 119.897739 -44.031258 
L 119.612926 -45.545158 
L 119.298217 -47.059058 
L 118.95267 -48.572958 
L 118.5756 -50.086858 
L 118.16661 -51.600758 
L 117.725604 -53.114658 
L 117.25281 -54.628558 
L 116.748788 -56.142458 
L 116.214448 -57.656358 
L 115.651058 -59.170258 
L 115.060255 -60.684158 
L 114.444057 -62.198058 
L 113.804874 -63.711958 
L 113.145512 -65.225858 
L 112.469185 -66.739758 
L 111.779507 -68.253658 
L 111.080493 -69.767557 
L 110.376529 -71.281457 
L 109.672345 -72.795357 
L 108.972957 -74.309257 
L 108.283599 -75.823157 
L 107.609625 -77.337057 
L 106.956402 -78.850957 
L 106.329175 -80.364857 
L 105.732925 -81.878757 
L 105.172217 -83.392657 
L 104.651049 -84.906557 
L 104.172712 -86.420457 
L 103.739658 -87.934357 
L 103.353411 -89.448257 
L 103.014494 -90.962157 
L 102.722412 -92.476057 
L 102.475672 -93.989957 
L 102.271849 -95.503857 
L 102.107703 -97.017757 
L 101.979324 -98.531657 
L 101.882322 -100.045557 
L 101.812032 -101.559457 
L 101.763731 -103.073357 
L 101.732855 -104.587257 
L 101.715201 -106.101157 
L 101.707108 -107.615057 
L 101.705599 -109.128957 
L 101.70849 -110.642857 
L 101.714449 -112.156757 
L 101.723011 -113.670657 
L 101.734557 -115.184557 
L 101.750242 -116.698457 
L 101.77191 -118.212357 
L 101.801972 -119.726257 
L 101.843275 -121.240157 
L 101.898974 -122.754057 
L 101.972392 -124.267957 
L 102.066901 -125.781857 
L 102.185816 -127.295757 
L 102.332294 -128.809657 
L 102.509262 -130.323557 
L 102.719355 -131.837457 
L 102.964862 -133.351357 
L 103.247692 -134.865257 
L 103.569334 -136.379157 
L 103.930828 -137.893057 
L 104.332739 -139.406957 
L 104.775119 -140.920857 
L 105.257485 -142.434757 
L 105.778784 -143.948657 
L 106.337378 -145.462556 
L 106.93102 -146.976456 
L 107.556855 -148.490356 
L 108.21143 -150.004256 
L 108.890723 -151.518156 
L 109.590193 -153.032056 
L 110.304851 -154.545956 
L 111.029347 -156.059856 
L 111.758083 -157.573756 
L 112.485333 -159.087656 
L 113.205372 -160.601556 
L 113.912616 -162.115456 
L 114.601749 -163.629356 
L 115.267853 -165.143256 
L 115.906513 -166.657156 
L 116.513912 -168.171056 
L 117.086898 -169.684956 
L 117.623029 -171.198856 
L 118.120595 -172.712756 
L 118.578607 -174.226656 
L 118.996773 -175.740556 
L 119.375449 -177.254456 
L 119.715569 -178.768356 
L 120.018571 -180.282256 
L 120.286312 -181.796156 
L 120.520971 -183.310056 
L 120.724969 -184.823956 
L 122.765978 -184.823956 
L 122.765978 -184.823956 
L 122.969976 -183.310056 
L 123.204635 -181.796156 
L 123.472376 -180.282256 
L 123.775378 -178.768356 
L 124.115498 -177.254456 
L 124.494174 -175.740556 
L 124.91234 -174.226656 
L 125.370352 -172.712756 
L 125.867918 -171.198856 
L 126.404049 -169.684956 
L 126.977035 -168.171056 
L 127.584434 -166.657156 
L 128.223094 -165.143256 
L 128.889197 -163.629356 
L 129.578331 -162.115456 
L 130.285575 -160.601556 
L 131.005614 -159.087656 
L 131.732864 -157.573756 
L 132.4616 -156.059856 
L 133.186096 -154.545956 
L 133.900754 -153.032056 
L 134.600224 -151.518156 
L 135.279517 -150.004256 
L 135.934092 -148.490356 
L 136.559927 -146.976456 
L 137.153569 -145.462556 
L 137.712162 -143.948657 
L 138.233462 -142.434757 
L 138.715828 -140.920857 
L 139.158208 -139.406957 
L 139.560119 -137.893057 
L 139.921613 -136.379157 
L 140.243255 -134.865257 
L 140.526085 -133.351357 
L 140.771592 -131.837457 
L 140.981685 -130.323557 
L 141.158653 -128.809657 
L 141.305131 -127.295757 
L 141.424046 -125.781857 
L 141.518555 -124.267957 
L 141.591973 -122.754057 
L 141.647672 -121.240157 
L 141.688975 -119.726257 
L 141.719037 -118.212357 
L 141.740705 -116.698457 
L 141.75639 -115.184557 
L 141.767936 -113.670657 
L 141.776498 -112.156757 
L 141.782457 -110.642857 
L 141.785348 -109.128957 
L 141.783839 -107.615057 
L 141.775746 -106.101157 
L 141.758092 -104.587257 
L 141.727215 -103.073357 
L 141.678915 -101.559457 
L 141.608625 -100.045557 
L 141.511623 -98.531657 
L 141.383244 -97.017757 
L 141.219098 -95.503857 
L 141.015275 -93.989957 
L 140.768535 -92.476057 
L 140.476453 -90.962157 
L 140.137536 -89.448257 
L 139.751289 -87.934357 
L 139.318235 -86.420457 
L 138.839898 -84.906557 
L 138.31873 -83.392657 
L 137.758022 -81.878757 
L 137.161772 -80.364857 
L 136.534545 -78.850957 
L 135.881322 -77.337057 
L 135.207348 -75.823157 
L 134.51799 -74.309257 
L 133.818602 -72.795357 
L 133.114418 -71.281457 
L 132.410454 -69.767557 
L 131.71144 -68.253658 
L 131.021762 -66.739758 
L 130.345435 -65.225858 
L 129.686073 -63.711958 
L 129.04689 -62.198058 
L 128.430692 -60.684158 
L 127.839889 -59.170258 
L 127.276499 -57.656358 
L 126.742159 -56.142458 
L 126.238137 -54.628558 
L 125.765343 -53.114658 
L 125.324337 -51.600758 
L 124.915347 -50.086858 
L 124.538277 -48.572958 
L 124.19273 -47.059058 
L 123.878021 -45.545158 
L 123.593208 -44.031258 
L 123.337116 -42.517358 
L 123.108367 -41.003458 
L 122.905417 -39.489558 
L 122.726592 -37.975658 
L 122.570122 -36.461758 
L 122.434183 -34.947858 
z
"/>
    </defs>
    <g clip-path="url(#p75348bceff)">
     <use xlink:href="#mddc2d5c3f7" x="0" y="326.201312" style="fill: #06e1e9"/>
    </g>
   </g>
   <g id="PolyCollection_3">
    <defs>
     <path id="me37bdd40e6" d="M 190.252253 -46.95758 
L 188.3993 -46.95758 
L 188.20945 -48.686946 
L 187.989828 -50.416312 
L 187.737825 -52.145678 
L 187.451033 -53.875044 
L 187.127348 -55.60441 
L 186.765078 -57.333776 
L 186.363056 -59.063142 
L 185.92075 -60.792508 
L 185.438369 -62.521874 
L 184.916947 -64.25124 
L 184.358426 -65.980606 
L 183.765696 -67.709972 
L 183.142627 -69.439338 
L 182.494051 -71.168704 
L 181.825723 -72.89807 
L 181.144235 -74.627436 
L 180.456907 -76.356802 
L 179.77163 -78.086168 
L 179.096693 -79.815534 
L 178.440579 -81.5449 
L 177.811746 -83.274266 
L 177.218406 -85.003632 
L 176.668301 -86.732998 
L 176.168489 -88.462364 
L 175.725159 -90.19173 
L 175.343466 -91.921096 
L 175.027406 -93.650462 
L 174.779737 -95.379828 
L 174.601933 -97.109194 
L 174.49419 -98.83856 
L 174.455477 -100.567926 
L 174.483619 -102.297292 
L 174.575415 -104.026658 
L 174.726789 -105.756024 
L 174.932947 -107.48539 
L 175.18855 -109.214756 
L 175.487885 -110.944122 
L 175.825027 -112.673488 
L 176.19399 -114.402854 
L 176.588849 -116.13222 
L 177.003851 -117.861586 
L 177.433492 -119.590952 
L 177.87257 -121.320318 
L 178.316222 -123.049684 
L 178.759939 -124.77905 
L 179.199559 -126.508416 
L 179.631267 -128.237782 
L 180.051577 -129.967148 
L 180.457317 -131.696514 
L 180.845631 -133.42588 
L 181.213968 -135.155246 
L 181.560103 -136.884612 
L 181.882149 -138.613978 
L 182.17859 -140.343344 
L 182.448317 -142.07271 
L 182.690664 -143.802076 
L 182.905446 -145.531442 
L 183.092994 -147.260808 
L 183.254175 -148.990174 
L 183.390402 -150.71954 
L 183.503625 -152.448906 
L 183.596305 -154.178272 
L 183.671363 -155.907638 
L 183.732118 -157.637004 
L 183.782193 -159.36637 
L 183.825417 -161.095736 
L 183.865712 -162.825102 
L 183.90697 -164.554468 
L 183.95293 -166.283834 
L 184.007059 -168.0132 
L 184.072447 -169.742566 
L 184.151704 -171.471932 
L 184.246892 -173.201298 
L 184.359462 -174.930664 
L 184.490228 -176.66003 
L 184.63936 -178.389396 
L 184.806398 -180.118762 
L 184.990298 -181.848128 
L 185.18949 -183.577494 
L 185.401955 -185.30686 
L 185.625316 -187.036226 
L 185.856937 -188.765592 
L 186.09402 -190.494958 
L 186.333711 -192.224324 
L 186.573191 -193.95369 
L 186.809761 -195.683056 
L 187.04092 -197.412422 
L 187.264423 -199.141788 
L 187.478329 -200.871154 
L 187.681029 -202.60052 
L 187.871262 -204.329886 
L 188.04812 -206.059252 
L 188.211032 -207.788618 
L 188.359746 -209.517984 
L 188.494296 -211.24735 
L 188.614974 -212.976716 
L 188.722279 -214.706082 
L 188.816886 -216.435448 
L 188.8996 -218.164814 
L 189.751953 -218.164814 
L 189.751953 -218.164814 
L 189.834667 -216.435448 
L 189.929274 -214.706082 
L 190.03658 -212.976716 
L 190.157257 -211.24735 
L 190.291807 -209.517984 
L 190.440521 -207.788618 
L 190.603433 -206.059252 
L 190.780291 -204.329886 
L 190.970524 -202.60052 
L 191.173224 -200.871154 
L 191.38713 -199.141788 
L 191.610633 -197.412422 
L 191.841792 -195.683056 
L 192.078362 -193.95369 
L 192.317842 -192.224324 
L 192.557533 -190.494958 
L 192.794616 -188.765592 
L 193.026237 -187.036226 
L 193.249598 -185.30686 
L 193.462063 -183.577494 
L 193.661255 -181.848128 
L 193.845155 -180.118762 
L 194.012193 -178.389396 
L 194.161325 -176.66003 
L 194.292091 -174.930664 
L 194.404661 -173.201298 
L 194.499849 -171.471932 
L 194.579106 -169.742566 
L 194.644494 -168.0132 
L 194.698623 -166.283834 
L 194.744583 -164.554468 
L 194.785841 -162.825102 
L 194.826136 -161.095736 
L 194.86936 -159.36637 
L 194.919435 -157.637004 
L 194.98019 -155.907638 
L 195.055248 -154.178272 
L 195.147928 -152.448906 
L 195.261151 -150.71954 
L 195.397378 -148.990174 
L 195.558559 -147.260808 
L 195.746107 -145.531442 
L 195.960889 -143.802076 
L 196.203236 -142.07271 
L 196.472963 -140.343344 
L 196.769404 -138.613978 
L 197.09145 -136.884612 
L 197.437585 -135.155246 
L 197.805922 -133.42588 
L 198.194236 -131.696514 
L 198.599976 -129.967148 
L 199.020286 -128.237782 
L 199.451994 -126.508416 
L 199.891614 -124.77905 
L 200.335331 -123.049684 
L 200.778984 -121.320318 
L 201.218062 -119.590952 
L 201.647702 -117.861586 
L 202.062704 -116.13222 
L 202.457563 -114.402854 
L 202.826526 -112.673488 
L 203.163668 -110.944122 
L 203.463003 -109.214756 
L 203.718606 -107.48539 
L 203.924764 -105.756024 
L 204.076138 -104.026658 
L 204.167934 -102.297292 
L 204.196076 -100.567926 
L 204.157363 -98.83856 
L 204.04962 -97.109194 
L 203.871816 -95.379828 
L 203.624147 -93.650462 
L 203.308087 -91.921096 
L 202.926394 -90.19173 
L 202.483064 -88.462364 
L 201.983252 -86.732998 
L 201.433147 -85.003632 
L 200.839807 -83.274266 
L 200.210974 -81.5449 
L 199.55486 -79.815534 
L 198.879923 -78.086168 
L 198.194646 -76.356802 
L 197.507318 -74.627436 
L 196.82583 -72.89807 
L 196.157502 -71.168704 
L 195.508926 -69.439338 
L 194.885857 -67.709972 
L 194.293127 -65.980606 
L 193.734606 -64.25124 
L 193.213184 -62.521874 
L 192.730803 -60.792508 
L 192.288497 -59.063142 
L 191.886475 -57.333776 
L 191.524205 -55.60441 
L 191.20052 -53.875044 
L 190.913728 -52.145678 
L 190.661725 -50.416312 
L 190.442103 -48.686946 
L 190.252253 -46.95758 
z
"/>
    </defs>
    <g clip-path="url(#p75348bceff)">
     <use xlink:href="#me37bdd40e6" x="0" y="326.201312" style="fill: #d4d4d4"/>
    </g>
   </g>
   <g id="PolyCollection_4">
    <defs>
     <path id="mf1612d300c" d="M 235.688169 -48.977045 
L 233.070455 -48.977045 
L 232.809046 -49.943545 
L 232.508857 -50.910045 
L 232.167138 -51.876545 
L 231.781574 -52.843045 
L 231.350429 -53.809545 
L 230.872687 -54.776045 
L 230.348193 -55.742545 
L 229.777773 -56.709044 
L 229.163337 -57.675544 
L 228.507947 -58.642044 
L 227.815848 -59.608544 
L 227.092458 -60.575044 
L 226.344296 -61.541544 
L 225.57887 -62.508044 
L 224.804502 -63.474544 
L 224.030104 -64.441044 
L 223.264911 -65.407544 
L 222.518172 -66.374043 
L 221.798828 -67.340543 
L 221.115165 -68.307043 
L 220.474492 -69.273543 
L 219.882826 -70.240043 
L 219.34463 -71.206543 
L 218.862606 -72.173043 
L 218.437554 -73.139543 
L 218.068323 -74.106043 
L 217.751838 -75.072543 
L 217.483229 -76.039042 
L 217.256041 -77.005542 
L 217.062523 -77.972042 
L 216.89399 -78.938542 
L 216.741224 -79.905042 
L 216.594919 -80.871542 
L 216.446124 -81.838042 
L 216.286674 -82.804542 
L 216.109593 -83.771042 
L 215.909429 -84.737542 
L 215.682527 -85.704042 
L 215.42721 -86.670541 
L 215.14387 -87.637041 
L 214.834961 -88.603541 
L 214.504896 -89.570041 
L 214.159856 -90.536541 
L 213.807524 -91.503041 
L 213.456755 -92.469541 
L 213.117205 -93.436041 
L 212.79893 -94.402541 
L 212.511982 -95.369041 
L 212.26602 -96.33554 
L 212.069947 -97.30204 
L 211.931594 -98.26854 
L 211.857465 -99.23504 
L 211.852544 -100.20154 
L 211.920174 -101.16804 
L 212.062008 -102.13454 
L 212.278025 -103.10104 
L 212.566621 -104.06754 
L 212.924741 -105.03404 
L 213.348068 -106.00054 
L 213.831243 -106.967039 
L 214.368099 -107.933539 
L 214.951917 -108.900039 
L 215.575671 -109.866539 
L 216.232262 -110.833039 
L 216.914726 -111.799539 
L 217.61642 -112.766039 
L 218.331165 -113.732539 
L 219.053352 -114.699039 
L 219.778014 -115.665539 
L 220.500851 -116.632038 
L 221.218228 -117.598538 
L 221.927141 -118.565038 
L 222.625152 -119.531538 
L 223.310316 -120.498038 
L 223.981089 -121.464538 
L 224.636239 -122.431038 
L 225.274754 -123.397538 
L 225.895761 -124.364038 
L 226.498456 -125.330538 
L 227.082055 -126.297037 
L 227.645753 -127.263537 
L 228.188711 -128.230037 
L 228.710053 -129.196537 
L 229.20888 -130.163037 
L 229.684302 -131.129537 
L 230.135464 -132.096037 
L 230.561596 -133.062537 
L 230.962046 -134.029037 
L 231.336324 -134.995537 
L 231.684134 -135.962037 
L 232.005398 -136.928536 
L 232.300276 -137.895036 
L 232.569167 -138.861536 
L 232.812712 -139.828036 
L 233.031776 -140.794536 
L 233.227429 -141.761036 
L 233.400913 -142.727536 
L 233.553617 -143.694036 
L 233.687034 -144.660536 
L 235.07159 -144.660536 
L 235.07159 -144.660536 
L 235.205007 -143.694036 
L 235.357711 -142.727536 
L 235.531195 -141.761036 
L 235.726847 -140.794536 
L 235.945911 -139.828036 
L 236.189457 -138.861536 
L 236.458348 -137.895036 
L 236.753225 -136.928536 
L 237.07449 -135.962037 
L 237.422299 -134.995537 
L 237.796578 -134.029037 
L 238.197028 -133.062537 
L 238.623159 -132.096037 
L 239.074322 -131.129537 
L 239.549743 -130.163037 
L 240.048571 -129.196537 
L 240.569913 -128.230037 
L 241.112871 -127.263537 
L 241.676569 -126.297037 
L 242.260167 -125.330538 
L 242.862863 -124.364038 
L 243.483869 -123.397538 
L 244.122384 -122.431038 
L 244.777535 -121.464538 
L 245.448308 -120.498038 
L 246.133472 -119.531538 
L 246.831483 -118.565038 
L 247.540396 -117.598538 
L 248.257773 -116.632038 
L 248.98061 -115.665539 
L 249.705272 -114.699039 
L 250.427459 -113.732539 
L 251.142203 -112.766039 
L 251.843898 -111.799539 
L 252.526362 -110.833039 
L 253.182952 -109.866539 
L 253.806707 -108.900039 
L 254.390525 -107.933539 
L 254.927381 -106.967039 
L 255.410555 -106.00054 
L 255.833883 -105.03404 
L 256.192003 -104.06754 
L 256.480599 -103.10104 
L 256.696616 -102.13454 
L 256.838449 -101.16804 
L 256.90608 -100.20154 
L 256.901159 -99.23504 
L 256.82703 -98.26854 
L 256.688677 -97.30204 
L 256.492603 -96.33554 
L 256.246641 -95.369041 
L 255.959694 -94.402541 
L 255.641419 -93.436041 
L 255.301869 -92.469541 
L 254.9511 -91.503041 
L 254.598768 -90.536541 
L 254.253727 -89.570041 
L 253.923662 -88.603541 
L 253.614754 -87.637041 
L 253.331414 -86.670541 
L 253.076097 -85.704042 
L 252.849195 -84.737542 
L 252.649031 -83.771042 
L 252.471949 -82.804542 
L 252.3125 -81.838042 
L 252.163704 -80.871542 
L 252.0174 -79.905042 
L 251.864634 -78.938542 
L 251.6961 -77.972042 
L 251.502583 -77.005542 
L 251.275395 -76.039042 
L 251.006786 -75.072543 
L 250.690301 -74.106043 
L 250.32107 -73.139543 
L 249.896018 -72.173043 
L 249.413994 -71.206543 
L 248.875798 -70.240043 
L 248.284132 -69.273543 
L 247.643459 -68.307043 
L 246.959796 -67.340543 
L 246.240452 -66.374043 
L 245.493713 -65.407544 
L 244.728519 -64.441044 
L 243.954122 -63.474544 
L 243.179754 -62.508044 
L 242.414328 -61.541544 
L 241.666166 -60.575044 
L 240.942775 -59.608544 
L 240.250677 -58.642044 
L 239.595286 -57.675544 
L 238.980851 -56.709044 
L 238.410431 -55.742545 
L 237.885937 -54.776045 
L 237.408195 -53.809545 
L 236.977049 -52.843045 
L 236.591486 -51.876545 
L 236.249767 -50.910045 
L 235.949578 -49.943545 
L 235.688169 -48.977045 
z
"/>
    </defs>
    <g clip-path="url(#p75348bceff)">
     <use xlink:href="#mf1612d300c" x="0" y="326.201312" style="fill: #06e1e9"/>
    </g>
   </g>
   <g id="matplotlib.axis_1">
    <g id="xtick_1">
     <g id="line2d_1">
      <defs>
       <path id="md7225b3d69" d="M 0 0 
L 0 3.5 
" style="stroke: #000000; stroke-width: 0.8"/>
      </defs>
      <g>
       <use xlink:href="#md7225b3d69" x="99.218706" y="302.856" style="stroke: #000000; stroke-width: 0.8"/>
      </g>
     </g>
     <g id="text_1">
      <text style="font: 10px 'Arial', sans-serif; text-anchor: middle" x="99.218706" y="317.013812" transform="rotate(-0 99.218706 317.013812)">Male</text>
     </g>
    </g>
    <g id="xtick_2">
     <g id="line2d_2">
      <g>
       <use xlink:href="#md7225b3d69" x="211.852544" y="302.856" style="stroke: #000000; stroke-width: 0.8"/>
      </g>
     </g>
     <g id="text_2">
      <text style="font: 10px 'Arial', sans-serif; text-anchor: middle" x="211.852544" y="317.013812" transform="rotate(-0 211.852544 317.013812)">Female</text>
     </g>
    </g>
   </g>
   <g id="matplotlib.axis_2">
    <g id="ytick_1">
     <g id="line2d_3">
      <defs>
       <path id="m19de942d79" d="M 0 0 
L -3.5 0 
" style="stroke: #000000; stroke-width: 0.8"/>
      </defs>
      <g>
       <use xlink:href="#m19de942d79" x="44.028125" y="295.486759" style="stroke: #000000; stroke-width: 0.8"/>
      </g>
     </g>
     <g id="text_3">
      <text style="font: 10px 'Arial', sans-serif; text-anchor: end" x="37.028125" y="299.065665" transform="rotate(-0 37.028125 299.065665)">0</text>
     </g>
    </g>
    <g id="ytick_2">
     <g id="line2d_4">
      <g>
       <use xlink:href="#m19de942d79" x="44.028125" y="257.054063" style="stroke: #000000; stroke-width: 0.8"/>
      </g>
     </g>
     <g id="text_4">
      <text style="font: 10px 'Arial', sans-serif; text-anchor: end" x="37.028125" y="260.632969" transform="rotate(-0 37.028125 260.632969)">50</text>
     </g>
    </g>
    <g id="ytick_3">
     <g id="line2d_5">
      <g>
       <use xlink:href="#m19de942d79" x="44.028125" y="218.621367" style="stroke: #000000; stroke-width: 0.8"/>
      </g>
     </g>
     <g id="text_5">
      <text style="font: 10px 'Arial', sans-serif; text-anchor: end" x="37.028125" y="222.200274" transform="rotate(-0 37.028125 222.200274)">100</text>
     </g>
    </g>
    <g id="ytick_4">
     <g id="line2d_6">
      <g>
       <use xlink:href="#m19de942d79" x="44.028125" y="180.188672" style="stroke: #000000; stroke-width: 0.8"/>
      </g>
     </g>
     <g id="text_6">
      <text style="font: 10px 'Arial', sans-serif; text-anchor: end" x="37.028125" y="183.767578" transform="rotate(-0 37.028125 183.767578)">150</text>
     </g>
    </g>
    <g id="ytick_5">
     <g id="line2d_7">
      <g>
       <use xlink:href="#m19de942d79" x="44.028125" y="141.755976" style="stroke: #000000; stroke-width: 0.8"/>
      </g>
     </g>
     <g id="text_7">
      <text style="font: 10px 'Arial', sans-serif; text-anchor: end" x="37.028125" y="145.334882" transform="rotate(-0 37.028125 145.334882)">200</text>
     </g>
    </g>
    <g id="ytick_6">
     <g id="line2d_8">
      <g>
       <use xlink:href="#m19de942d79" x="44.028125" y="103.32328" style="stroke: #000000; stroke-width: 0.8"/>
      </g>
     </g>
     <g id="text_8">
      <text style="font: 10px 'Arial', sans-serif; text-anchor: end" x="37.028125" y="106.902186" transform="rotate(-0 37.028125 106.902186)">250</text>
     </g>
    </g>
    <g id="ytick_7">
     <g id="line2d_9">
      <g>
       <use xlink:href="#m19de942d79" x="44.028125" y="64.890584" style="stroke: #000000; stroke-width: 0.8"/>
      </g>
     </g>
     <g id="text_9">
      <text style="font: 10px 'Arial', sans-serif; text-anchor: end" x="37.028125" y="68.469491" transform="rotate(-0 37.028125 68.469491)">300</text>
     </g>
    </g>
    <g id="text_10">
     <text style="font: 10px 'Arial', sans-serif; text-anchor: middle" x="14.357813" y="175.228" transform="rotate(-90 14.357813 175.228)">Total Lick Bursts</text>
    </g>
   </g>
   <g id="line2d_10">
    <path d="M 76.691938 224.770599 
L 76.691938 184.031941 
" clip-path="url(#p75348bceff)" style="fill: none"/>
   </g>
   <g id="line2d_11">
    <path d="M 76.691938 207.091559 
L 76.691938 184.031941 
" clip-path="url(#p75348bceff)" style="fill: none"/>
   </g>
   <g id="line2d_12">
    <path d="M 121.745473 256.285409 
L 121.745473 176.345402 
" clip-path="url(#p75348bceff)" style="fill: none"/>
   </g>
   <g id="line2d_13">
    <path d="M 121.745473 232.457138 
L 121.745473 196.330404 
" clip-path="url(#p75348bceff)" style="fill: none"/>
   </g>
   <g id="line2d_14">
    <path d="M 189.325777 238.606369 
L 189.325777 148.673861 
" clip-path="url(#p75348bceff)" style="fill: none"/>
   </g>
   <g id="line2d_15">
    <path d="M 189.325777 232.649301 
L 189.325777 195.369586 
" clip-path="url(#p75348bceff)" style="fill: none"/>
   </g>
   <g id="line2d_16">
    <path d="M 234.379312 254.748101 
L 234.379312 204.016943 
" clip-path="url(#p75348bceff)" style="fill: none"/>
   </g>
   <g id="line2d_17">
    <path d="M 234.379312 250.904832 
L 234.379312 221.695983 
" clip-path="url(#p75348bceff)" style="fill: none"/>
   </g>
   <g id="line2d_18">
    <path d="M 121.745473 67.350277 
L 121.745473 59.202545 
L 234.379312 59.202545 
L 234.379312 67.350277 
" clip-path="url(#p75348bceff)" style="fill: none; stroke: #000000; stroke-width: 0.5; stroke-linecap: square"/>
   </g>
   <g id="line2d_19">
    <path d="M 76.691938 91.793471 
L 76.691938 83.64574 
L 189.325777 83.64574 
L 189.325777 91.793471 
" clip-path="url(#p75348bceff)" style="fill: none; stroke: #000000; stroke-width: 0.5; stroke-linecap: square"/>
   </g>
   <g id="line2d_20">
    <path d="M 189.325777 116.236666 
L 189.325777 108.088934 
L 234.379312 108.088934 
L 234.379312 116.236666 
" clip-path="url(#p75348bceff)" style="fill: none; stroke: #000000; stroke-width: 0.5; stroke-linecap: square"/>
   </g>
   <g id="line2d_21">
    <path d="M 76.691938 116.236666 
L 76.691938 108.088934 
L 121.745473 108.088934 
L 121.745473 116.236666 
" clip-path="url(#p75348bceff)" style="fill: none; stroke: #000000; stroke-width: 0.5; stroke-linecap: square"/>
   </g>
   <g id="patch_5">
    <path d="M 44.028125 302.856 
L 44.028125 47.6 
" style="fill: none; stroke: #000000; stroke-width: 0.8; stroke-linejoin: miter; stroke-linecap: square"/>
   </g>
   <g id="patch_6">
    <path d="M 44.028125 302.856 
L 267.043125 302.856 
" style="fill: none; stroke: #000000; stroke-width: 0.8; stroke-linejoin: miter; stroke-linecap: square"/>
   </g>
   <g id="PathCollection_1">
    <defs>
     <path id="C0_0_60f0669ec9" d="M 0 2.5 
C 0.663008 2.5 1.29895 2.236584 1.767767 1.767767 
C 2.236584 1.29895 2.5 0.663008 2.5 -0 
C 2.5 -0.663008 2.236584 -1.29895 1.767767 -1.767767 
C 1.29895 -2.236584 0.663008 -2.5 0 -2.5 
C -0.663008 -2.5 -1.29895 -2.236584 -1.767767 -1.767767 
C -2.236584 -1.29895 -2.5 -0.663008 -2.5 0 
C -2.5 0.663008 -2.236584 1.29895 -1.767767 1.767767 
C -1.29895 2.236584 -0.663008 2.5 0 2.5 
z
"/>
    </defs>
    <g clip-path="url(#p75348bceff)">
     <use xlink:href="#C0_0_60f0669ec9" x="76.691938" y="132.532129" style="fill: #262626; fill-opacity: 0.5"/>
    </g>
    <g clip-path="url(#p75348bceff)">
     <use xlink:href="#C0_0_60f0669ec9" x="76.691938" y="189.412519" style="fill: #262626; fill-opacity: 0.5"/>
    </g>
    <g clip-path="url(#p75348bceff)">
     <use xlink:href="#C0_0_60f0669ec9" x="71.696246" y="194.793096" style="fill: #262626; fill-opacity: 0.5"/>
    </g>
    <g clip-path="url(#p75348bceff)">
     <use xlink:href="#C0_0_60f0669ec9" x="76.691938" y="207.091559" style="fill: #262626; fill-opacity: 0.5"/>
    </g>
    <g clip-path="url(#p75348bceff)">
     <use xlink:href="#C0_0_60f0669ec9" x="76.691938" y="217.084059" style="fill: #262626; fill-opacity: 0.5"/>
    </g>
    <g clip-path="url(#p75348bceff)">
     <use xlink:href="#C0_0_60f0669ec9" x="76.691938" y="140.987322" style="fill: #262626; fill-opacity: 0.5"/>
    </g>
    <g clip-path="url(#p75348bceff)">
     <use xlink:href="#C0_0_60f0669ec9" x="76.691938" y="224.770599" style="fill: #262626; fill-opacity: 0.5"/>
    </g>
    <g clip-path="url(#p75348bceff)">
     <use xlink:href="#C0_0_60f0669ec9" x="76.691938" y="196.330404" style="fill: #262626; fill-opacity: 0.5"/>
    </g>
    <g clip-path="url(#p75348bceff)">
     <use xlink:href="#C0_0_60f0669ec9" x="76.691938" y="184.031941" style="fill: #262626; fill-opacity: 0.5"/>
    </g>
   </g>
   <g id="PathCollection_2">
    <defs>
     <path id="C1_0_042a58a661" d="M 0 2.5 
C 0.663008 2.5 1.29895 2.236584 1.767767 1.767767 
C 2.236584 1.29895 2.5 0.663008 2.5 -0 
C 2.5 -0.663008 2.236584 -1.29895 1.767767 -1.767767 
C 1.29895 -2.236584 0.663008 -2.5 0 -2.5 
C -0.663008 -2.5 -1.29895 -2.236584 -1.767767 -1.767767 
C -2.236584 -1.29895 -2.5 -0.663008 -2.5 0 
C -2.5 0.663008 -2.236584 1.29895 -1.767767 1.767767 
C -1.29895 2.236584 -0.663008 2.5 0 2.5 
z
"/>
    </defs>
    <g clip-path="url(#p75348bceff)">
     <use xlink:href="#C1_0_042a58a661" x="121.745473" y="180.957325" style="fill-opacity: 0.5"/>
    </g>
    <g clip-path="url(#p75348bceff)">
     <use xlink:href="#C1_0_042a58a661" x="119.717543" y="176.345402" style="fill-opacity: 0.5"/>
    </g>
    <g clip-path="url(#p75348bceff)">
     <use xlink:href="#C1_0_042a58a661" x="119.717543" y="232.457138" style="fill-opacity: 0.5"/>
    </g>
    <g clip-path="url(#p75348bceff)">
     <use xlink:href="#C1_0_042a58a661" x="121.745473" y="196.330404" style="fill-opacity: 0.5"/>
    </g>
    <g clip-path="url(#p75348bceff)">
     <use xlink:href="#C1_0_042a58a661" x="121.745473" y="256.285409" style="fill-opacity: 0.5"/>
    </g>
    <g clip-path="url(#p75348bceff)">
     <use xlink:href="#C1_0_042a58a661" x="124.713235" y="230.91983" style="fill-opacity: 0.5"/>
    </g>
    <g clip-path="url(#p75348bceff)">
     <use xlink:href="#C1_0_042a58a661" x="121.745473" y="204.016943" style="fill-opacity: 0.5"/>
    </g>
    <g clip-path="url(#p75348bceff)">
     <use xlink:href="#C1_0_042a58a661" x="121.745473" y="209.39752" style="fill-opacity: 0.5"/>
    </g>
    <g clip-path="url(#p75348bceff)">
     <use xlink:href="#C1_0_042a58a661" x="121.745473" y="237.069061" style="fill-opacity: 0.5"/>
    </g>
   </g>
   <g id="PathCollection_3">
    <defs>
     <path id="C2_0_6fdfb78d35" d="M 0 2.5 
C 0.663008 2.5 1.29895 2.236584 1.767767 1.767767 
C 2.236584 1.29895 2.5 0.663008 2.5 -0 
C 2.5 -0.663008 2.236584 -1.29895 1.767767 -1.767767 
C 1.29895 -2.236584 0.663008 -2.5 0 -2.5 
C -0.663008 -2.5 -1.29895 -2.236584 -1.767767 -1.767767 
C -2.236584 -1.29895 -2.5 -0.663008 -2.5 0 
C -2.5 0.663008 -2.236584 1.29895 -1.767767 1.767767 
C -1.29895 2.236584 -0.663008 2.5 0 2.5 
z
"/>
    </defs>
    <g clip-path="url(#p75348bceff)">
     <use xlink:href="#C2_0_6fdfb78d35" x="189.325777" y="148.673861" style="fill: #262626; fill-opacity: 0.5"/>
    </g>
    <g clip-path="url(#p75348bceff)">
     <use xlink:href="#C2_0_6fdfb78d35" x="189.325777" y="158.666362" style="fill: #262626; fill-opacity: 0.5"/>
    </g>
    <g clip-path="url(#p75348bceff)">
     <use xlink:href="#C2_0_6fdfb78d35" x="189.325777" y="238.606369" style="fill: #262626; fill-opacity: 0.5"/>
    </g>
    <g clip-path="url(#p75348bceff)">
     <use xlink:href="#C2_0_6fdfb78d35" x="189.325777" y="201.710981" style="fill: #262626; fill-opacity: 0.5"/>
    </g>
    <g clip-path="url(#p75348bceff)">
     <use xlink:href="#C2_0_6fdfb78d35" x="184.330084" y="227.07656" style="fill: #262626; fill-opacity: 0.5"/>
    </g>
    <g clip-path="url(#p75348bceff)">
     <use xlink:href="#C2_0_6fdfb78d35" x="187.297846" y="233.994446" style="fill: #262626; fill-opacity: 0.5"/>
    </g>
    <g clip-path="url(#p75348bceff)">
     <use xlink:href="#C2_0_6fdfb78d35" x="189.325777" y="214.778098" style="fill: #262626; fill-opacity: 0.5"/>
    </g>
    <g clip-path="url(#p75348bceff)">
     <use xlink:href="#C2_0_6fdfb78d35" x="189.325777" y="228.613868" style="fill: #262626; fill-opacity: 0.5"/>
    </g>
    <g clip-path="url(#p75348bceff)">
     <use xlink:href="#C2_0_6fdfb78d35" x="189.325777" y="193.255788" style="fill: #262626; fill-opacity: 0.5"/>
    </g>
    <g clip-path="url(#p75348bceff)">
     <use xlink:href="#C2_0_6fdfb78d35" x="192.547846" y="233.994446" style="fill: #262626; fill-opacity: 0.5"/>
    </g>
   </g>
   <g id="PathCollection_4">
    <defs>
     <path id="C3_0_c68143e808" d="M 0 2.5 
C 0.663008 2.5 1.29895 2.236584 1.767767 1.767767 
C 2.236584 1.29895 2.5 0.663008 2.5 -0 
C 2.5 -0.663008 2.236584 -1.29895 1.767767 -1.767767 
C 1.29895 -2.236584 0.663008 -2.5 0 -2.5 
C -0.663008 -2.5 -1.29895 -2.236584 -1.767767 -1.767767 
C -2.236584 -1.29895 -2.5 -0.663008 -2.5 0 
C -2.5 0.663008 -2.236584 1.29895 -1.767767 1.767767 
C -1.29895 2.236584 -0.663008 2.5 0 2.5 
z
"/>
    </defs>
    <g clip-path="url(#p75348bceff)">
     <use xlink:href="#C3_0_c68143e808" x="234.379312" y="204.016943" style="fill-opacity: 0.5"/>
    </g>
    <g clip-path="url(#p75348bceff)">
     <use xlink:href="#C3_0_c68143e808" x="234.379312" y="226.307906" style="fill-opacity: 0.5"/>
    </g>
    <g clip-path="url(#p75348bceff)">
     <use xlink:href="#C3_0_c68143e808" x="234.379312" y="232.457138" style="fill-opacity: 0.5"/>
    </g>
    <g clip-path="url(#p75348bceff)">
     <use xlink:href="#C3_0_c68143e808" x="237.737552" y="250.904832" style="fill-opacity: 0.5"/>
    </g>
    <g clip-path="url(#p75348bceff)">
     <use xlink:href="#C3_0_c68143e808" x="229.720986" y="230.151176" style="fill-opacity: 0.5"/>
    </g>
    <g clip-path="url(#p75348bceff)">
     <use xlink:href="#C3_0_c68143e808" x="234.379312" y="216.315406" style="fill-opacity: 0.5"/>
    </g>
    <g clip-path="url(#p75348bceff)">
     <use xlink:href="#C3_0_c68143e808" x="232.351381" y="221.695983" style="fill-opacity: 0.5"/>
    </g>
    <g clip-path="url(#p75348bceff)">
     <use xlink:href="#C3_0_c68143e808" x="234.379312" y="254.748101" style="fill-opacity: 0.5"/>
    </g>
    <g clip-path="url(#p75348bceff)">
     <use xlink:href="#C3_0_c68143e808" x="230.23923" y="251.673486" style="fill-opacity: 0.5"/>
    </g>
   </g>
   <g id="PathCollection_5">
    <defs>
     <path id="me040714e33" d="M 0 0 
C 0 0 0 0 0 0 
C 0 0 0 0 0 0 
C 0 0 0 0 0 0 
C 0 0 0 0 0 0 
C 0 0 0 0 0 0 
C 0 0 0 0 0 0 
C 0 0 0 0 0 0 
C 0 0 0 0 0 0 
z
" style="stroke: #484848"/>
    </defs>
    <g clip-path="url(#p75348bceff)">
     <use xlink:href="#me040714e33" x="76.691938" y="194.793096" style="fill: #ffffff; stroke: #484848"/>
    </g>
   </g>
   <g id="PathCollection_6">
    <g clip-path="url(#p75348bceff)">
     <use xlink:href="#me040714e33" x="121.745473" y="209.39752" style="fill: #ffffff; stroke: #484848"/>
    </g>
   </g>
   <g id="PathCollection_7">
    <g clip-path="url(#p75348bceff)">
     <use xlink:href="#me040714e33" x="189.325777" y="220.927329" style="fill: #ffffff; stroke: #484848"/>
    </g>
   </g>
   <g id="PathCollection_8">
    <g clip-path="url(#p75348bceff)">
     <use xlink:href="#me040714e33" x="234.379312" y="230.151176" style="fill: #ffffff; stroke: #484848"/>
    </g>
   </g>
   <g id="text_11">
    <text style="font: 10px 'Arial', sans-serif; text-anchor: middle" x="178.062393" y="57.215045" transform="rotate(-0 178.062393 57.215045)">ns</text>
   </g>
   <g id="text_12">
    <text style="font: 10px 'Arial', sans-serif; text-anchor: middle" x="133.008857" y="81.65824" transform="rotate(-0 133.008857 81.65824)">ns</text>
   </g>
   <g id="text_13">
    <text style="font: 10px 'Arial', sans-serif; text-anchor: middle" x="211.852544" y="106.101434" transform="rotate(-0 211.852544 106.101434)">ns</text>
   </g>
   <g id="text_14">
    <text style="font: 10px 'Arial', sans-serif; text-anchor: middle" x="99.218706" y="106.101434" transform="rotate(-0 99.218706 106.101434)">ns</text>
   </g>
   <g id="legend_1">
    <g id="patch_7">
     <path d="M 53.028125 20.3 
L 73.028125 20.3 
L 73.028125 13.3 
L 53.028125 13.3 
z
" style="fill: #d4d4d4"/>
    </g>
    <g id="text_15">
     <!-- $AgrP^{Cre}$::Ai9 -->
     <g transform="translate(81.028125 20.3)">
      <text>
       <tspan style="font: oblique 10px 'DejaVu Sans'" x="0 6.84082 13.188477 17.299805" y="-0.9765625">AgrP</tspan>
       <tspan style="font: oblique 7px 'DejaVu Sans'" x="24.03263 28.920326 31.798255" y="-4.8046875">Cre</tspan>
       <tspan style="font: 10px 'Arial'" x="36.378333 39.156654 41.934974 48.604896 50.826576" y="-0.9765625">::Ai9</tspan>
      </text>
     </g>
    </g>
    <g id="patch_8">
     <path d="M 53.028125 36.5 
L 73.028125 36.5 
L 73.028125 29.5 
L 53.028125 29.5 
z
" style="fill: #06e1e9"/>
    </g>
    <g id="text_16">
     <!-- $AgrP^{Cre}$::Ai32 -->
     <g transform="translate(81.028125 36.5)">
      <text>
       <tspan style="font: oblique 10px 'DejaVu Sans'" x="0 6.84082 13.188477 17.299805" y="-0.9765625">AgrP</tspan>
       <tspan style="font: oblique 7px 'DejaVu Sans'" x="24.03263 28.920326 31.798255" y="-4.8046875">Cre</tspan>
       <tspan style="font: 10px 'Arial'" x="36.378333 39.156654 41.934974 48.604896 50.826576 56.388099" y="-0.9765625">::Ai32</tspan>
      </text>
     </g>
    </g>
   </g>
  </g>
  <g id="axes_2">
   <g id="patch_9">
    <path d="M 320.633125 302.856 
L 543.648125 302.856 
L 543.648125 47.6 
L 320.633125 47.6 
L 320.633125 302.856 
z
" style="fill: none"/>
   </g>
   <g id="patch_10">
    <path d="M 375.823706 360.390675 
L 375.823706 360.390675 
L 375.823706 360.390675 
L 375.823706 360.390675 
z
" clip-path="url(#pfee4db7c77)" style="fill: #d4d4d4"/>
   </g>
   <g id="PolyCollection_5">
    <defs>
     <path id="m3150b89c17" d="M 361.996338 -59.646808 
L 344.597538 -59.646808 
L 344.427133 -60.744698 
L 344.264255 -61.842588 
L 344.108913 -62.940478 
L 343.961031 -64.038368 
L 343.820446 -65.136258 
L 343.686909 -66.234148 
L 343.56009 -67.332038 
L 343.439574 -68.429928 
L 343.324867 -69.527818 
L 343.215401 -70.625708 
L 343.11054 -71.723598 
L 343.00958 -72.821488 
L 342.911763 -73.919378 
L 342.816279 -75.017268 
L 342.722277 -76.115158 
L 342.628872 -77.213048 
L 342.535154 -78.310938 
L 342.440196 -79.408828 
L 342.343069 -80.506718 
L 342.242844 -81.604608 
L 342.138606 -82.702498 
L 342.029462 -83.800388 
L 341.914553 -84.898278 
L 341.793057 -85.996168 
L 341.664205 -87.094058 
L 341.527282 -88.191948 
L 341.381639 -89.289838 
L 341.226699 -90.387728 
L 341.06196 -91.485618 
L 340.887007 -92.583508 
L 340.701509 -93.681398 
L 340.505227 -94.779288 
L 340.298016 -95.877178 
L 340.079829 -96.975068 
L 339.850714 -98.072958 
L 339.610819 -99.170848 
L 339.360388 -100.268738 
L 339.099763 -101.366629 
L 338.82938 -102.464519 
L 338.549767 -103.562409 
L 338.261542 -104.660299 
L 337.965409 -105.758189 
L 337.662151 -106.856079 
L 337.352628 -107.953969 
L 337.037772 -109.051859 
L 336.71858 -110.149749 
L 336.396107 -111.247639 
L 336.071463 -112.345529 
L 335.745804 -113.443419 
L 335.420324 -114.541309 
L 335.096252 -115.639199 
L 334.774843 -116.737089 
L 334.457369 -117.834979 
L 334.145114 -118.932869 
L 333.839368 -120.030759 
L 333.541418 -121.128649 
L 333.252539 -122.226539 
L 332.973992 -123.324429 
L 332.707015 -124.422319 
L 332.452815 -125.520209 
L 332.212562 -126.618099 
L 331.987386 -127.715989 
L 331.778367 -128.813879 
L 331.586534 -129.911769 
L 331.412852 -131.009659 
L 331.258228 -132.107549 
L 331.123498 -133.205439 
L 331.009424 -134.303329 
L 330.916696 -135.401219 
L 330.845922 -136.499109 
L 330.797629 -137.596999 
L 330.77226 -138.694889 
L 330.77017 -139.792779 
L 330.791631 -140.890669 
L 330.836822 -141.988559 
L 330.905836 -143.086449 
L 330.998677 -144.184339 
L 331.115262 -145.282229 
L 331.255419 -146.38012 
L 331.418892 -147.47801 
L 331.605342 -148.5759 
L 331.814346 -149.67379 
L 332.045406 -150.77168 
L 332.297946 -151.86957 
L 332.571317 -152.96746 
L 332.864802 -154.06535 
L 333.177621 -155.16324 
L 333.50893 -156.26113 
L 333.857829 -157.35902 
L 334.223368 -158.45691 
L 334.604548 -159.5548 
L 335.000327 -160.65269 
L 335.409626 -161.75058 
L 335.831333 -162.84847 
L 336.264309 -163.94636 
L 336.707392 -165.04425 
L 337.159404 -166.14214 
L 337.619152 -167.24003 
L 338.085439 -168.33792 
L 368.508438 -168.33792 
L 368.508438 -168.33792 
L 368.974724 -167.24003 
L 369.434473 -166.14214 
L 369.886484 -165.04425 
L 370.329567 -163.94636 
L 370.762543 -162.84847 
L 371.184251 -161.75058 
L 371.59355 -160.65269 
L 371.989328 -159.5548 
L 372.370508 -158.45691 
L 372.736047 -157.35902 
L 373.084946 -156.26113 
L 373.416255 -155.16324 
L 373.729074 -154.06535 
L 374.02256 -152.96746 
L 374.295931 -151.86957 
L 374.54847 -150.77168 
L 374.77953 -149.67379 
L 374.988535 -148.5759 
L 375.174984 -147.47801 
L 375.338457 -146.38012 
L 375.478614 -145.282229 
L 375.595199 -144.184339 
L 375.68804 -143.086449 
L 375.757054 -141.988559 
L 375.802245 -140.890669 
L 375.823706 -139.792779 
L 375.821617 -138.694889 
L 375.796247 -137.596999 
L 375.747954 -136.499109 
L 375.67718 -135.401219 
L 375.584452 -134.303329 
L 375.470379 -133.205439 
L 375.335648 -132.107549 
L 375.181024 -131.009659 
L 375.007343 -129.911769 
L 374.815509 -128.813879 
L 374.60649 -127.715989 
L 374.381314 -126.618099 
L 374.141062 -125.520209 
L 373.886861 -124.422319 
L 373.619884 -123.324429 
L 373.341338 -122.226539 
L 373.052459 -121.128649 
L 372.754508 -120.030759 
L 372.448762 -118.932869 
L 372.136508 -117.834979 
L 371.819033 -116.737089 
L 371.497624 -115.639199 
L 371.173552 -114.541309 
L 370.848073 -113.443419 
L 370.522413 -112.345529 
L 370.197769 -111.247639 
L 369.875296 -110.149749 
L 369.556104 -109.051859 
L 369.241248 -107.953969 
L 368.931725 -106.856079 
L 368.628467 -105.758189 
L 368.332334 -104.660299 
L 368.044109 -103.562409 
L 367.764497 -102.464519 
L 367.494114 -101.366629 
L 367.233488 -100.268738 
L 366.983057 -99.170848 
L 366.743162 -98.072958 
L 366.514047 -96.975068 
L 366.29586 -95.877178 
L 366.088649 -94.779288 
L 365.892367 -93.681398 
L 365.706869 -92.583508 
L 365.531916 -91.485618 
L 365.367178 -90.387728 
L 365.212237 -89.289838 
L 365.066594 -88.191948 
L 364.929671 -87.094058 
L 364.800819 -85.996168 
L 364.679323 -84.898278 
L 364.564414 -83.800388 
L 364.45527 -82.702498 
L 364.351032 -81.604608 
L 364.250807 -80.506718 
L 364.15368 -79.408828 
L 364.058723 -78.310938 
L 363.965004 -77.213048 
L 363.871599 -76.115158 
L 363.777597 -75.017268 
L 363.682113 -73.919378 
L 363.584296 -72.821488 
L 363.483336 -71.723598 
L 363.378475 -70.625708 
L 363.26901 -69.527818 
L 363.154303 -68.429928 
L 363.033786 -67.332038 
L 362.906967 -66.234148 
L 362.773431 -65.136258 
L 362.632845 -64.038368 
L 362.484963 -62.940478 
L 362.329621 -61.842588 
L 362.166744 -60.744698 
L 361.996338 -59.646808 
z
"/>
    </defs>
    <g clip-path="url(#pfee4db7c77)">
     <use xlink:href="#m3150b89c17" x="0" y="326.201312" style="fill: #d4d4d4"/>
    </g>
   </g>
   <g id="patch_11">
    <path d="M 375.823706 360.390675 
L 375.823706 360.390675 
L 375.823706 360.390675 
L 375.823706 360.390675 
z
" clip-path="url(#pfee4db7c77)" style="fill: #06e1e9"/>
   </g>
   <g id="PolyCollection_6">
    <defs>
     <path id="m8e4d6c1650" d="M 405.702296 -34.947858 
L 390.998651 -34.947858 
L 390.783342 -36.339584 
L 390.570638 -37.73131 
L 390.360888 -39.123037 
L 390.154415 -40.514763 
L 389.951509 -41.906489 
L 389.752431 -43.298215 
L 389.557402 -44.689942 
L 389.366607 -46.081668 
L 389.18019 -47.473394 
L 388.998252 -48.86512 
L 388.820853 -50.256847 
L 388.648004 -51.648573 
L 388.479675 -53.040299 
L 388.315788 -54.432025 
L 388.156223 -55.823752 
L 388.000815 -57.215478 
L 387.849359 -58.607204 
L 387.701609 -59.99893 
L 387.557286 -61.390656 
L 387.416074 -62.782383 
L 387.277633 -64.174109 
L 387.141596 -65.565835 
L 387.00758 -66.957561 
L 386.875187 -68.349288 
L 386.744014 -69.741014 
L 386.613656 -71.13274 
L 386.483715 -72.524466 
L 386.353806 -73.916193 
L 386.223562 -75.307919 
L 386.092645 -76.699645 
L 385.960749 -78.091371 
L 385.827607 -79.483098 
L 385.692996 -80.874824 
L 385.556748 -82.26655 
L 385.418746 -83.658276 
L 385.278936 -85.050002 
L 385.137327 -86.441729 
L 384.993993 -87.833455 
L 384.849076 -89.225181 
L 384.702788 -90.616907 
L 384.555406 -92.008634 
L 384.407277 -93.40036 
L 384.258811 -94.792086 
L 384.11048 -96.183812 
L 383.962811 -97.575539 
L 383.816385 -98.967265 
L 383.671827 -100.358991 
L 383.529803 -101.750717 
L 383.391009 -103.142444 
L 383.256164 -104.53417 
L 383.126004 -105.925896 
L 383.001272 -107.317622 
L 382.882706 -108.709349 
L 382.771036 -110.101075 
L 382.666972 -111.492801 
L 382.571196 -112.884527 
L 382.484356 -114.276253 
L 382.407057 -115.66798 
L 382.339856 -117.059706 
L 382.283254 -118.451432 
L 382.237695 -119.843158 
L 382.203557 -121.234885 
L 382.181156 -122.626611 
L 382.170738 -124.018337 
L 382.172481 -125.410063 
L 382.186495 -126.80179 
L 382.212825 -128.193516 
L 382.251449 -129.585242 
L 382.302285 -130.976968 
L 382.365195 -132.368695 
L 382.439986 -133.760421 
L 382.526419 -135.152147 
L 382.624212 -136.543873 
L 382.733048 -137.935599 
L 382.852579 -139.327326 
L 382.982434 -140.719052 
L 383.122225 -142.110778 
L 383.271553 -143.502504 
L 383.43001 -144.894231 
L 383.597192 -146.285957 
L 383.772694 -147.677683 
L 383.956124 -149.069409 
L 384.147098 -150.461136 
L 384.345247 -151.852862 
L 384.55022 -153.244588 
L 384.76168 -154.636314 
L 384.979313 -156.028041 
L 385.20282 -157.419767 
L 385.431917 -158.811493 
L 385.666341 -160.203219 
L 385.905838 -161.594946 
L 386.150166 -162.986672 
L 386.399094 -164.378398 
L 386.652393 -165.770124 
L 386.909838 -167.16185 
L 387.1712 -168.553577 
L 387.436248 -169.945303 
L 387.70474 -171.337029 
L 387.976424 -172.728755 
L 408.724523 -172.728755 
L 408.724523 -172.728755 
L 408.996207 -171.337029 
L 409.264699 -169.945303 
L 409.529747 -168.553577 
L 409.791109 -167.16185 
L 410.048554 -165.770124 
L 410.301853 -164.378398 
L 410.550781 -162.986672 
L 410.795109 -161.594946 
L 411.034606 -160.203219 
L 411.26903 -158.811493 
L 411.498127 -157.419767 
L 411.721634 -156.028041 
L 411.939266 -154.636314 
L 412.150727 -153.244588 
L 412.3557 -151.852862 
L 412.553849 -150.461136 
L 412.744823 -149.069409 
L 412.928253 -147.677683 
L 413.103755 -146.285957 
L 413.270937 -144.894231 
L 413.429394 -143.502504 
L 413.578722 -142.110778 
L 413.718513 -140.719052 
L 413.848368 -139.327326 
L 413.967899 -137.935599 
L 414.076735 -136.543873 
L 414.174528 -135.152147 
L 414.260961 -133.760421 
L 414.335752 -132.368695 
L 414.398662 -130.976968 
L 414.449498 -129.585242 
L 414.488122 -128.193516 
L 414.514452 -126.80179 
L 414.528466 -125.410063 
L 414.530209 -124.018337 
L 414.519791 -122.626611 
L 414.49739 -121.234885 
L 414.463252 -119.843158 
L 414.417693 -118.451432 
L 414.361091 -117.059706 
L 414.293889 -115.66798 
L 414.216591 -114.276253 
L 414.129751 -112.884527 
L 414.033975 -111.492801 
L 413.929911 -110.101075 
L 413.818241 -108.709349 
L 413.699675 -107.317622 
L 413.574943 -105.925896 
L 413.444783 -104.53417 
L 413.309938 -103.142444 
L 413.171144 -101.750717 
L 413.02912 -100.358991 
L 412.884562 -98.967265 
L 412.738136 -97.575539 
L 412.590467 -96.183812 
L 412.442136 -94.792086 
L 412.29367 -93.40036 
L 412.145541 -92.008634 
L 411.998159 -90.616907 
L 411.851871 -89.225181 
L 411.706954 -87.833455 
L 411.56362 -86.441729 
L 411.422011 -85.050002 
L 411.282201 -83.658276 
L 411.144199 -82.26655 
L 411.007951 -80.874824 
L 410.87334 -79.483098 
L 410.740198 -78.091371 
L 410.608302 -76.699645 
L 410.477385 -75.307919 
L 410.347141 -73.916193 
L 410.217232 -72.524466 
L 410.087291 -71.13274 
L 409.956933 -69.741014 
L 409.82576 -68.349288 
L 409.693367 -66.957561 
L 409.559351 -65.565835 
L 409.423314 -64.174109 
L 409.284873 -62.782383 
L 409.143661 -61.390656 
L 408.999338 -59.99893 
L 408.851588 -58.607204 
L 408.700132 -57.215478 
L 408.544724 -55.823752 
L 408.385159 -54.432025 
L 408.221272 -53.040299 
L 408.052943 -51.648573 
L 407.880094 -50.256847 
L 407.702695 -48.86512 
L 407.520757 -47.473394 
L 407.33434 -46.081668 
L 407.143545 -44.689942 
L 406.948516 -43.298215 
L 406.749438 -41.906489 
L 406.546532 -40.514763 
L 406.340059 -39.123037 
L 406.130309 -37.73131 
L 405.917605 -36.339584 
L 405.702296 -34.947858 
z
"/>
    </defs>
    <g clip-path="url(#pfee4db7c77)">
     <use xlink:href="#m8e4d6c1650" x="0" y="326.201312" style="fill: #06e1e9"/>
    </g>
   </g>
   <g id="PolyCollection_7">
    <defs>
     <path id="m56fb564db1" d="M 476.716775 -50.103243 
L 455.144778 -50.103243 
L 454.71119 -51.349943 
L 454.279232 -52.596644 
L 453.850132 -53.843344 
L 453.42513 -55.090044 
L 453.005476 -56.336745 
L 452.592421 -57.583445 
L 452.18722 -58.830146 
L 451.791122 -60.076846 
L 451.405366 -61.323547 
L 451.031181 -62.570247 
L 450.66978 -63.816948 
L 450.322352 -65.063648 
L 449.990065 -66.310349 
L 449.674055 -67.557049 
L 449.375427 -68.80375 
L 449.095242 -70.05045 
L 448.834522 -71.297151 
L 448.594236 -72.543851 
L 448.375299 -73.790551 
L 448.178562 -75.037252 
L 448.004809 -76.283952 
L 447.85475 -77.530653 
L 447.729012 -78.777353 
L 447.628133 -80.024054 
L 447.552557 -81.270754 
L 447.502625 -82.517455 
L 447.478572 -83.764155 
L 447.480517 -85.010856 
L 447.508462 -86.257556 
L 447.562285 -87.504257 
L 447.641739 -88.750957 
L 447.746446 -89.997658 
L 447.875899 -91.244358 
L 448.029463 -92.491058 
L 448.206371 -93.737759 
L 448.405733 -94.984459 
L 448.626538 -96.23116 
L 448.867658 -97.47786 
L 449.127859 -98.724561 
L 449.405806 -99.971261 
L 449.700076 -101.217962 
L 450.009167 -102.464662 
L 450.331512 -103.711363 
L 450.665491 -104.958063 
L 451.009446 -106.204764 
L 451.361693 -107.451464 
L 451.72054 -108.698165 
L 452.084299 -109.944865 
L 452.451302 -111.191566 
L 452.819916 -112.438266 
L 453.188555 -113.684966 
L 453.555692 -114.931667 
L 453.919874 -116.178367 
L 454.27973 -117.425068 
L 454.633983 -118.671768 
L 454.981453 -119.918469 
L 455.321072 -121.165169 
L 455.651879 -122.41187 
L 455.973034 -123.65857 
L 456.28381 -124.905271 
L 456.583603 -126.151971 
L 456.871922 -127.398672 
L 457.148395 -128.645372 
L 457.412762 -129.892073 
L 457.664869 -131.138773 
L 457.904668 -132.385473 
L 458.132204 -133.632174 
L 458.347616 -134.878874 
L 458.551124 -136.125575 
L 458.743024 -137.372275 
L 458.923681 -138.618976 
L 459.093521 -139.865676 
L 459.253023 -141.112377 
L 459.402714 -142.359077 
L 459.543158 -143.605778 
L 459.674952 -144.852478 
L 459.798719 -146.099179 
L 459.915104 -147.345879 
L 460.024763 -148.59258 
L 460.128365 -149.83928 
L 460.22658 -151.08598 
L 460.320078 -152.332681 
L 460.409527 -153.579381 
L 460.495581 -154.826082 
L 460.578885 -156.072782 
L 460.660065 -157.319483 
L 460.739728 -158.566183 
L 460.818455 -159.812884 
L 460.896801 -161.059584 
L 460.975291 -162.306285 
L 461.054412 -163.552985 
L 461.134617 -164.799686 
L 461.216319 -166.046386 
L 461.299886 -167.293087 
L 461.385641 -168.539787 
L 461.47386 -169.786487 
L 461.56477 -171.033188 
L 461.658544 -172.279888 
L 461.755306 -173.526589 
L 470.106247 -173.526589 
L 470.106247 -173.526589 
L 470.203009 -172.279888 
L 470.296783 -171.033188 
L 470.387693 -169.786487 
L 470.475912 -168.539787 
L 470.561667 -167.293087 
L 470.645234 -166.046386 
L 470.726936 -164.799686 
L 470.807141 -163.552985 
L 470.886262 -162.306285 
L 470.964752 -161.059584 
L 471.043098 -159.812884 
L 471.121825 -158.566183 
L 471.201488 -157.319483 
L 471.282668 -156.072782 
L 471.365972 -154.826082 
L 471.452026 -153.579381 
L 471.541475 -152.332681 
L 471.634973 -151.08598 
L 471.733188 -149.83928 
L 471.83679 -148.59258 
L 471.946449 -147.345879 
L 472.062834 -146.099179 
L 472.186601 -144.852478 
L 472.318395 -143.605778 
L 472.458839 -142.359077 
L 472.60853 -141.112377 
L 472.768032 -139.865676 
L 472.937872 -138.618976 
L 473.118529 -137.372275 
L 473.310429 -136.125575 
L 473.513937 -134.878874 
L 473.729349 -133.632174 
L 473.956885 -132.385473 
L 474.196684 -131.138773 
L 474.448791 -129.892073 
L 474.713158 -128.645372 
L 474.989631 -127.398672 
L 475.277951 -126.151971 
L 475.577743 -124.905271 
L 475.888519 -123.65857 
L 476.209674 -122.41187 
L 476.540481 -121.165169 
L 476.8801 -119.918469 
L 477.22757 -118.671768 
L 477.581823 -117.425068 
L 477.941679 -116.178367 
L 478.305861 -114.931667 
L 478.672998 -113.684966 
L 479.041637 -112.438266 
L 479.410251 -111.191566 
L 479.777254 -109.944865 
L 480.141014 -108.698165 
L 480.49986 -107.451464 
L 480.852107 -106.204764 
L 481.196062 -104.958063 
L 481.530041 -103.711363 
L 481.852386 -102.464662 
L 482.161477 -101.217962 
L 482.455747 -99.971261 
L 482.733694 -98.724561 
L 482.993895 -97.47786 
L 483.235015 -96.23116 
L 483.45582 -94.984459 
L 483.655182 -93.737759 
L 483.83209 -92.491058 
L 483.985654 -91.244358 
L 484.115107 -89.997658 
L 484.219814 -88.750957 
L 484.299268 -87.504257 
L 484.353091 -86.257556 
L 484.381036 -85.010856 
L 484.382981 -83.764155 
L 484.358928 -82.517455 
L 484.308996 -81.270754 
L 484.23342 -80.024054 
L 484.132541 -78.777353 
L 484.006803 -77.530653 
L 483.856744 -76.283952 
L 483.682991 -75.037252 
L 483.486254 -73.790551 
L 483.267317 -72.543851 
L 483.027031 -71.297151 
L 482.766311 -70.05045 
L 482.486127 -68.80375 
L 482.187498 -67.557049 
L 481.871488 -66.310349 
L 481.539201 -65.063648 
L 481.191773 -63.816948 
L 480.830372 -62.570247 
L 480.456187 -61.323547 
L 480.070431 -60.076846 
L 479.674333 -58.830146 
L 479.269132 -57.583445 
L 478.856077 -56.336745 
L 478.436423 -55.090044 
L 478.011421 -53.843344 
L 477.582321 -52.596644 
L 477.150363 -51.349943 
L 476.716775 -50.103243 
z
"/>
    </defs>
    <g clip-path="url(#pfee4db7c77)">
     <use xlink:href="#m56fb564db1" x="0" y="326.201312" style="fill: #d4d4d4"/>
    </g>
   </g>
   <g id="PolyCollection_8">
    <defs>
     <path id="mf6e32b0f5e" d="M 521.375688 -76.483441 
L 500.592935 -76.483441 
L 500.221078 -77.248904 
L 499.846402 -78.014368 
L 499.469275 -78.779831 
L 499.09008 -79.545295 
L 498.709218 -80.310758 
L 498.327109 -81.076222 
L 497.944195 -81.841685 
L 497.560944 -82.607149 
L 497.177845 -83.372612 
L 496.795417 -84.138076 
L 496.414203 -84.903539 
L 496.034774 -85.669003 
L 495.657727 -86.434466 
L 495.283686 -87.19993 
L 494.913296 -87.965393 
L 494.547227 -88.730857 
L 494.186166 -89.49632 
L 493.830814 -90.261784 
L 493.481884 -91.027247 
L 493.140097 -91.792711 
L 492.806172 -92.558174 
L 492.480824 -93.323638 
L 492.16476 -94.089101 
L 491.858667 -94.854565 
L 491.563208 -95.620028 
L 491.27902 -96.385492 
L 491.006701 -97.150955 
L 490.746806 -97.916419 
L 490.499842 -98.681882 
L 490.266262 -99.447346 
L 490.046461 -100.212809 
L 489.840768 -100.978273 
L 489.649446 -101.743736 
L 489.472687 -102.5092 
L 489.310611 -103.274663 
L 489.163264 -104.040127 
L 489.030617 -104.80559 
L 488.912569 -105.571053 
L 488.808946 -106.336517 
L 488.719505 -107.10198 
L 488.643937 -107.867444 
L 488.581872 -108.632907 
L 488.532884 -109.398371 
L 488.496495 -110.163834 
L 488.472186 -110.929298 
L 488.459397 -111.694761 
L 488.457544 -112.460225 
L 488.46602 -113.225688 
L 488.484204 -113.991152 
L 488.511473 -114.756615 
L 488.547207 -115.522079 
L 488.5908 -116.287542 
L 488.641663 -117.053006 
L 488.69924 -117.818469 
L 488.763005 -118.583933 
L 488.832479 -119.349396 
L 488.907229 -120.11486 
L 488.986874 -120.880323 
L 489.071093 -121.645787 
L 489.159627 -122.41125 
L 489.252278 -123.176714 
L 489.348919 -123.942177 
L 489.449485 -124.707641 
L 489.553981 -125.473104 
L 489.662477 -126.238568 
L 489.775107 -127.004031 
L 489.892064 -127.769495 
L 490.013602 -128.534958 
L 490.140022 -129.300422 
L 490.271678 -130.065885 
L 490.408961 -130.831349 
L 490.552298 -131.596812 
L 490.702145 -132.362276 
L 490.858977 -133.127739 
L 491.023279 -133.893202 
L 491.195545 -134.658666 
L 491.376262 -135.424129 
L 491.565906 -136.189593 
L 491.764933 -136.955056 
L 491.973771 -137.72052 
L 492.192814 -138.485983 
L 492.422411 -139.251447 
L 492.662865 -140.01691 
L 492.914421 -140.782374 
L 493.177265 -141.547837 
L 493.451517 -142.313301 
L 493.737225 -143.078764 
L 494.034367 -143.844228 
L 494.342843 -144.609691 
L 494.662476 -145.375155 
L 494.993013 -146.140618 
L 495.334119 -146.906082 
L 495.685384 -147.671545 
L 496.046324 -148.437009 
L 496.416379 -149.202472 
L 496.794921 -149.967936 
L 497.181257 -150.733399 
L 497.574633 -151.498863 
L 497.974241 -152.264326 
L 523.994383 -152.264326 
L 523.994383 -152.264326 
L 524.393991 -151.498863 
L 524.787367 -150.733399 
L 525.173703 -149.967936 
L 525.552245 -149.202472 
L 525.9223 -148.437009 
L 526.283239 -147.671545 
L 526.634505 -146.906082 
L 526.975611 -146.140618 
L 527.306147 -145.375155 
L 527.625781 -144.609691 
L 527.934257 -143.844228 
L 528.231399 -143.078764 
L 528.517107 -142.313301 
L 528.791358 -141.547837 
L 529.054202 -140.782374 
L 529.305759 -140.01691 
L 529.546212 -139.251447 
L 529.77581 -138.485983 
L 529.994852 -137.72052 
L 530.203691 -136.955056 
L 530.402717 -136.189593 
L 530.592361 -135.424129 
L 530.773078 -134.658666 
L 530.945344 -133.893202 
L 531.109647 -133.127739 
L 531.266478 -132.362276 
L 531.416325 -131.596812 
L 531.559663 -130.831349 
L 531.696946 -130.065885 
L 531.828602 -129.300422 
L 531.955022 -128.534958 
L 532.076559 -127.769495 
L 532.193517 -127.004031 
L 532.306146 -126.238568 
L 532.414642 -125.473104 
L 532.519139 -124.707641 
L 532.619705 -123.942177 
L 532.716345 -123.176714 
L 532.808997 -122.41125 
L 532.89753 -121.645787 
L 532.98175 -120.880323 
L 533.061395 -120.11486 
L 533.136144 -119.349396 
L 533.205618 -118.583933 
L 533.269384 -117.818469 
L 533.32696 -117.053006 
L 533.377824 -116.287542 
L 533.421416 -115.522079 
L 533.457151 -114.756615 
L 533.48442 -113.991152 
L 533.502604 -113.225688 
L 533.51108 -112.460225 
L 533.509227 -111.694761 
L 533.496438 -110.929298 
L 533.472128 -110.163834 
L 533.435739 -109.398371 
L 533.386751 -108.632907 
L 533.324687 -107.867444 
L 533.249119 -107.10198 
L 533.159678 -106.336517 
L 533.056055 -105.571053 
L 532.938007 -104.80559 
L 532.80536 -104.040127 
L 532.658013 -103.274663 
L 532.495937 -102.5092 
L 532.319178 -101.743736 
L 532.127856 -100.978273 
L 531.922163 -100.212809 
L 531.702362 -99.447346 
L 531.468782 -98.681882 
L 531.221818 -97.916419 
L 530.961923 -97.150955 
L 530.689603 -96.385492 
L 530.405415 -95.620028 
L 530.109957 -94.854565 
L 529.803864 -94.089101 
L 529.487799 -93.323638 
L 529.162452 -92.558174 
L 528.828527 -91.792711 
L 528.486739 -91.027247 
L 528.13781 -90.261784 
L 527.782458 -89.49632 
L 527.421396 -88.730857 
L 527.055327 -87.965393 
L 526.684938 -87.19993 
L 526.310897 -86.434466 
L 525.93385 -85.669003 
L 525.554421 -84.903539 
L 525.173207 -84.138076 
L 524.790778 -83.372612 
L 524.40768 -82.607149 
L 524.024428 -81.841685 
L 523.641515 -81.076222 
L 523.259406 -80.310758 
L 522.878544 -79.545295 
L 522.499348 -78.779831 
L 522.122222 -78.014368 
L 521.747546 -77.248904 
L 521.375688 -76.483441 
z
"/>
    </defs>
    <g clip-path="url(#pfee4db7c77)">
     <use xlink:href="#mf6e32b0f5e" x="0" y="326.201312" style="fill: #06e1e9"/>
    </g>
   </g>
   <g id="matplotlib.axis_3">
    <g id="xtick_3">
     <g id="line2d_22">
      <g>
       <use xlink:href="#md7225b3d69" x="375.823706" y="302.856" style="stroke: #000000; stroke-width: 0.8"/>
      </g>
     </g>
     <g id="text_17">
      <text style="font: 10px 'Arial', sans-serif; text-anchor: middle" x="375.823706" y="317.013812" transform="rotate(-0 375.823706 317.013812)">Male</text>
     </g>
    </g>
    <g id="xtick_4">
     <g id="line2d_23">
      <g>
       <use xlink:href="#md7225b3d69" x="488.457544" y="302.856" style="stroke: #000000; stroke-width: 0.8"/>
      </g>
     </g>
     <g id="text_18">
      <text style="font: 10px 'Arial', sans-serif; text-anchor: middle" x="488.457544" y="317.013812" transform="rotate(-0 488.457544 317.013812)">Female</text>
     </g>
    </g>
   </g>
   <g id="matplotlib.axis_4">
    <g id="ytick_8">
     <g id="line2d_24">
      <g>
       <use xlink:href="#m19de942d79" x="320.633125" y="273.378954" style="stroke: #000000; stroke-width: 0.8"/>
      </g>
     </g>
     <g id="text_19">
      <text style="font: 10px 'Arial', sans-serif; text-anchor: end" x="313.633125" y="276.95786" transform="rotate(-0 313.633125 276.95786)">0.4</text>
     </g>
    </g>
    <g id="ytick_9">
     <g id="line2d_25">
      <g>
       <use xlink:href="#m19de942d79" x="320.633125" y="229.873093" style="stroke: #000000; stroke-width: 0.8"/>
      </g>
     </g>
     <g id="text_20">
      <text style="font: 10px 'Arial', sans-serif; text-anchor: end" x="313.633125" y="233.451999" transform="rotate(-0 313.633125 233.451999)">0.6</text>
     </g>
    </g>
    <g id="ytick_10">
     <g id="line2d_26">
      <g>
       <use xlink:href="#m19de942d79" x="320.633125" y="186.367232" style="stroke: #000000; stroke-width: 0.8"/>
      </g>
     </g>
     <g id="text_21">
      <text style="font: 10px 'Arial', sans-serif; text-anchor: end" x="313.633125" y="189.946139" transform="rotate(-0 313.633125 189.946139)">0.8</text>
     </g>
    </g>
    <g id="ytick_11">
     <g id="line2d_27">
      <g>
       <use xlink:href="#m19de942d79" x="320.633125" y="142.861372" style="stroke: #000000; stroke-width: 0.8"/>
      </g>
     </g>
     <g id="text_22">
      <text style="font: 10px 'Arial', sans-serif; text-anchor: end" x="313.633125" y="146.440278" transform="rotate(-0 313.633125 146.440278)">1.0</text>
     </g>
    </g>
    <g id="ytick_12">
     <g id="line2d_28">
      <g>
       <use xlink:href="#m19de942d79" x="320.633125" y="99.355511" style="stroke: #000000; stroke-width: 0.8"/>
      </g>
     </g>
     <g id="text_23">
      <text style="font: 10px 'Arial', sans-serif; text-anchor: end" x="313.633125" y="102.934417" transform="rotate(-0 313.633125 102.934417)">1.2</text>
     </g>
    </g>
    <g id="ytick_13">
     <g id="line2d_29">
      <g>
       <use xlink:href="#m19de942d79" x="320.633125" y="55.84965" style="stroke: #000000; stroke-width: 0.8"/>
      </g>
     </g>
     <g id="text_24">
      <text style="font: 10px 'Arial', sans-serif; text-anchor: end" x="313.633125" y="59.428556" transform="rotate(-0 313.633125 59.428556)">1.4</text>
     </g>
    </g>
    <g id="text_25">
     <text style="font: 10px 'Arial', sans-serif; text-anchor: middle" x="293.745625" y="175.228" transform="rotate(-90 293.745625 175.228)">Burst Preference Index</text>
    </g>
   </g>
   <g id="line2d_30">
    <path d="M 353.296938 266.554505 
L 353.296938 157.863392 
" clip-path="url(#pfee4db7c77)" style="fill: none"/>
   </g>
   <g id="line2d_31">
    <path d="M 353.296938 218.523738 
L 353.296938 185.421453 
" clip-path="url(#pfee4db7c77)" style="fill: none"/>
   </g>
   <g id="line2d_32">
    <path d="M 398.350473 291.253455 
L 398.350473 153.472557 
" clip-path="url(#pfee4db7c77)" style="fill: none"/>
   </g>
   <g id="line2d_33">
    <path d="M 398.350473 254.215658 
L 398.350473 191.039003 
" clip-path="url(#pfee4db7c77)" style="fill: none"/>
   </g>
   <g id="line2d_34">
    <path d="M 465.930777 276.09807 
L 465.930777 186.139453 
" clip-path="url(#pfee4db7c77)" style="fill: none"/>
   </g>
   <g id="line2d_35">
    <path d="M 465.930777 254.085371 
L 465.930777 219.235469 
" clip-path="url(#pfee4db7c77)" style="fill: none"/>
   </g>
   <g id="line2d_36">
    <path d="M 510.984312 249.717872 
L 510.984312 173.936986 
" clip-path="url(#pfee4db7c77)" style="fill: none"/>
   </g>
   <g id="line2d_37">
    <path d="M 510.984312 225.226836 
L 510.984312 191.61794 
" clip-path="url(#pfee4db7c77)" style="fill: none"/>
   </g>
   <g id="line2d_38">
    <path d="M 398.350473 69.588343 
L 398.350473 59.202545 
L 510.984312 59.202545 
L 510.984312 69.588343 
" clip-path="url(#pfee4db7c77)" style="fill: none; stroke: #000000; stroke-width: 0.5; stroke-linecap: square"/>
   </g>
   <g id="line2d_39">
    <path d="M 353.296938 100.745736 
L 353.296938 90.359938 
L 465.930777 90.359938 
L 465.930777 100.745736 
" clip-path="url(#pfee4db7c77)" style="fill: none; stroke: #000000; stroke-width: 0.5; stroke-linecap: square"/>
   </g>
   <g id="line2d_40">
    <path d="M 465.930777 131.903128 
L 465.930777 121.517331 
L 510.984312 121.517331 
L 510.984312 131.903128 
" clip-path="url(#pfee4db7c77)" style="fill: none; stroke: #000000; stroke-width: 0.5; stroke-linecap: square"/>
   </g>
   <g id="line2d_41">
    <path d="M 353.296938 131.903128 
L 353.296938 121.517331 
L 398.350473 121.517331 
L 398.350473 131.903128 
" clip-path="url(#pfee4db7c77)" style="fill: none; stroke: #000000; stroke-width: 0.5; stroke-linecap: square"/>
   </g>
   <g id="patch_12">
    <path d="M 320.633125 302.856 
L 320.633125 47.6 
" style="fill: none; stroke: #000000; stroke-width: 0.8; stroke-linejoin: miter; stroke-linecap: square"/>
   </g>
   <g id="patch_13">
    <path d="M 320.633125 302.856 
L 543.648125 302.856 
" style="fill: none; stroke: #000000; stroke-width: 0.8; stroke-linejoin: miter; stroke-linecap: square"/>
   </g>
   <g id="PathCollection_9">
    <defs>
     <path id="C4_0_449bb63d54" d="M 0 2.5 
C 0.663008 2.5 1.29895 2.236584 1.767767 1.767767 
C 2.236584 1.29895 2.5 0.663008 2.5 -0 
C 2.5 -0.663008 2.236584 -1.29895 1.767767 -1.767767 
C 1.29895 -2.236584 0.663008 -2.5 0 -2.5 
C -0.663008 -2.5 -1.29895 -2.236584 -1.767767 -1.767767 
C -2.236584 -1.29895 -2.5 -0.663008 -2.5 0 
C -2.5 0.663008 -2.236584 1.29895 -1.767767 1.767767 
C -1.29895 2.236584 -0.663008 2.5 0 2.5 
z
"/>
    </defs>
    <g clip-path="url(#pfee4db7c77)">
     <use xlink:href="#C4_0_449bb63d54" x="353.296938" y="165.435167" style="fill: #262626; fill-opacity: 0.5"/>
    </g>
    <g clip-path="url(#pfee4db7c77)">
     <use xlink:href="#C4_0_449bb63d54" x="357.972446" y="185.421453" style="fill: #262626; fill-opacity: 0.5"/>
    </g>
    <g clip-path="url(#pfee4db7c77)">
     <use xlink:href="#C4_0_449bb63d54" x="353.296938" y="187.695655" style="fill: #262626; fill-opacity: 0.5"/>
    </g>
    <g clip-path="url(#pfee4db7c77)">
     <use xlink:href="#C4_0_449bb63d54" x="353.296938" y="218.523738" style="fill: #262626; fill-opacity: 0.5"/>
    </g>
    <g clip-path="url(#pfee4db7c77)">
     <use xlink:href="#C4_0_449bb63d54" x="353.296938" y="266.554505" style="fill: #262626; fill-opacity: 0.5"/>
    </g>
    <g clip-path="url(#pfee4db7c77)">
     <use xlink:href="#C4_0_449bb63d54" x="353.296938" y="253.249376" style="fill: #262626; fill-opacity: 0.5"/>
    </g>
    <g clip-path="url(#pfee4db7c77)">
     <use xlink:href="#C4_0_449bb63d54" x="353.296938" y="206.701493" style="fill: #262626; fill-opacity: 0.5"/>
    </g>
    <g clip-path="url(#pfee4db7c77)">
     <use xlink:href="#C4_0_449bb63d54" x="348.151126" y="186.704487" style="fill: #262626; fill-opacity: 0.5"/>
    </g>
    <g clip-path="url(#pfee4db7c77)">
     <use xlink:href="#C4_0_449bb63d54" x="353.296938" y="157.863392" style="fill: #262626; fill-opacity: 0.5"/>
    </g>
   </g>
   <g id="PathCollection_10">
    <defs>
     <path id="C5_0_4a08a1146a" d="M 0 2.5 
C 0.663008 2.5 1.29895 2.236584 1.767767 1.767767 
C 2.236584 1.29895 2.5 0.663008 2.5 -0 
C 2.5 -0.663008 2.236584 -1.29895 1.767767 -1.767767 
C 1.29895 -2.236584 0.663008 -2.5 0 -2.5 
C -0.663008 -2.5 -1.29895 -2.236584 -1.767767 -1.767767 
C -2.236584 -1.29895 -2.5 -0.663008 -2.5 0 
C -2.5 0.663008 -2.236584 1.29895 -1.767767 1.767767 
C -1.29895 2.236584 -0.663008 2.5 0 2.5 
z
"/>
    </defs>
    <g clip-path="url(#pfee4db7c77)">
     <use xlink:href="#C5_0_4a08a1146a" x="398.350473" y="191.039003" style="fill-opacity: 0.5"/>
    </g>
    <g clip-path="url(#pfee4db7c77)">
     <use xlink:href="#C5_0_4a08a1146a" x="398.350473" y="213.032115" style="fill-opacity: 0.5"/>
    </g>
    <g clip-path="url(#pfee4db7c77)">
     <use xlink:href="#C5_0_4a08a1146a" x="394.138235" y="153.472557" style="fill-opacity: 0.5"/>
    </g>
    <g clip-path="url(#pfee4db7c77)">
     <use xlink:href="#C5_0_4a08a1146a" x="398.350473" y="291.253455" style="fill-opacity: 0.5"/>
    </g>
    <g clip-path="url(#pfee4db7c77)">
     <use xlink:href="#C5_0_4a08a1146a" x="398.350473" y="262.289224" style="fill-opacity: 0.5"/>
    </g>
    <g clip-path="url(#pfee4db7c77)">
     <use xlink:href="#C5_0_4a08a1146a" x="398.350473" y="254.215658" style="fill-opacity: 0.5"/>
    </g>
    <g clip-path="url(#pfee4db7c77)">
     <use xlink:href="#C5_0_4a08a1146a" x="393.825616" y="210.496533" style="fill-opacity: 0.5"/>
    </g>
    <g clip-path="url(#pfee4db7c77)">
     <use xlink:href="#C5_0_4a08a1146a" x="398.350473" y="156.456953" style="fill-opacity: 0.5"/>
    </g>
    <g clip-path="url(#pfee4db7c77)">
     <use xlink:href="#C5_0_4a08a1146a" x="398.350473" y="200.105925" style="fill-opacity: 0.5"/>
    </g>
   </g>
   <g id="PathCollection_11">
    <defs>
     <path id="C6_0_d3bfe9ae4e" d="M 0 2.5 
C 0.663008 2.5 1.29895 2.236584 1.767767 1.767767 
C 2.236584 1.29895 2.5 0.663008 2.5 -0 
C 2.5 -0.663008 2.236584 -1.29895 1.767767 -1.767767 
C 1.29895 -2.236584 0.663008 -2.5 0 -2.5 
C -0.663008 -2.5 -1.29895 -2.236584 -1.767767 -1.767767 
C -2.236584 -1.29895 -2.5 -0.663008 -2.5 0 
C -2.5 0.663008 -2.236584 1.29895 -1.767767 1.767767 
C -1.29895 2.236584 -0.663008 2.5 0 2.5 
z
"/>
    </defs>
    <g clip-path="url(#pfee4db7c77)">
     <use xlink:href="#C6_0_d3bfe9ae4e" x="465.930777" y="186.139453" style="fill: #262626; fill-opacity: 0.5"/>
    </g>
    <g clip-path="url(#pfee4db7c77)">
     <use xlink:href="#C6_0_d3bfe9ae4e" x="465.930777" y="232.072827" style="fill: #262626; fill-opacity: 0.5"/>
    </g>
    <g clip-path="url(#pfee4db7c77)">
     <use xlink:href="#C6_0_d3bfe9ae4e" x="462.730294" y="228.109342" style="fill: #262626; fill-opacity: 0.5"/>
    </g>
    <g clip-path="url(#pfee4db7c77)">
     <use xlink:href="#C6_0_d3bfe9ae4e" x="465.930777" y="242.710888" style="fill: #262626; fill-opacity: 0.5"/>
    </g>
    <g clip-path="url(#pfee4db7c77)">
     <use xlink:href="#C6_0_d3bfe9ae4e" x="461.158313" y="240.627351" style="fill: #262626; fill-opacity: 0.5"/>
    </g>
    <g clip-path="url(#pfee4db7c77)">
     <use xlink:href="#C6_0_d3bfe9ae4e" x="465.930777" y="276.09807" style="fill: #262626; fill-opacity: 0.5"/>
    </g>
    <g clip-path="url(#pfee4db7c77)">
     <use xlink:href="#C6_0_d3bfe9ae4e" x="465.930777" y="263.020415" style="fill: #262626; fill-opacity: 0.5"/>
    </g>
    <g clip-path="url(#pfee4db7c77)">
     <use xlink:href="#C6_0_d3bfe9ae4e" x="465.930777" y="257.876865" style="fill: #262626; fill-opacity: 0.5"/>
    </g>
    <g clip-path="url(#pfee4db7c77)">
     <use xlink:href="#C6_0_d3bfe9ae4e" x="465.930777" y="152.674724" style="fill: #262626; fill-opacity: 0.5"/>
    </g>
    <g clip-path="url(#pfee4db7c77)">
     <use xlink:href="#C6_0_d3bfe9ae4e" x="465.930777" y="216.277511" style="fill: #262626; fill-opacity: 0.5"/>
    </g>
   </g>
   <g id="PathCollection_12">
    <defs>
     <path id="C7_0_74be81320a" d="M 0 2.5 
C 0.663008 2.5 1.29895 2.236584 1.767767 1.767767 
C 2.236584 1.29895 2.5 0.663008 2.5 -0 
C 2.5 -0.663008 2.236584 -1.29895 1.767767 -1.767767 
C 1.29895 -2.236584 0.663008 -2.5 0 -2.5 
C -0.663008 -2.5 -1.29895 -2.236584 -1.767767 -1.767767 
C -2.236584 -1.29895 -2.5 -0.663008 -2.5 0 
C -2.5 0.663008 -2.236584 1.29895 -1.767767 1.767767 
C -1.29895 2.236584 -0.663008 2.5 0 2.5 
z
"/>
    </defs>
    <g clip-path="url(#pfee4db7c77)">
     <use xlink:href="#C7_0_74be81320a" x="510.984312" y="173.936986" style="fill-opacity: 0.5"/>
    </g>
    <g clip-path="url(#pfee4db7c77)">
     <use xlink:href="#C7_0_74be81320a" x="510.984312" y="183.95024" style="fill-opacity: 0.5"/>
    </g>
    <g clip-path="url(#pfee4db7c77)">
     <use xlink:href="#C7_0_74be81320a" x="510.984312" y="211.834078" style="fill-opacity: 0.5"/>
    </g>
    <g clip-path="url(#pfee4db7c77)">
     <use xlink:href="#C7_0_74be81320a" x="510.984312" y="191.61794" style="fill-opacity: 0.5"/>
    </g>
    <g clip-path="url(#pfee4db7c77)">
     <use xlink:href="#C7_0_74be81320a" x="510.984312" y="219.63642" style="fill-opacity: 0.5"/>
    </g>
    <g clip-path="url(#pfee4db7c77)">
     <use xlink:href="#C7_0_74be81320a" x="510.984312" y="225.226836" style="fill-opacity: 0.5"/>
    </g>
    <g clip-path="url(#pfee4db7c77)">
     <use xlink:href="#C7_0_74be81320a" x="510.984312" y="201.775558" style="fill-opacity: 0.5"/>
    </g>
    <g clip-path="url(#pfee4db7c77)">
     <use xlink:href="#C7_0_74be81320a" x="510.984312" y="233.156554" style="fill-opacity: 0.5"/>
    </g>
    <g clip-path="url(#pfee4db7c77)">
     <use xlink:href="#C7_0_74be81320a" x="510.984312" y="249.717872" style="fill-opacity: 0.5"/>
    </g>
   </g>
   <g id="PathCollection_13">
    <g clip-path="url(#pfee4db7c77)">
     <use xlink:href="#me040714e33" x="353.296938" y="187.695655" style="fill: #ffffff; stroke: #484848"/>
    </g>
   </g>
   <g id="PathCollection_14">
    <g clip-path="url(#pfee4db7c77)">
     <use xlink:href="#me040714e33" x="398.350473" y="210.496533" style="fill: #ffffff; stroke: #484848"/>
    </g>
   </g>
   <g id="PathCollection_15">
    <g clip-path="url(#pfee4db7c77)">
     <use xlink:href="#me040714e33" x="465.930777" y="236.350089" style="fill: #ffffff; stroke: #484848"/>
    </g>
   </g>
   <g id="PathCollection_16">
    <g clip-path="url(#pfee4db7c77)">
     <use xlink:href="#me040714e33" x="510.984312" y="211.834078" style="fill: #ffffff; stroke: #484848"/>
    </g>
   </g>
   <g id="text_26">
    <text style="font: 10px 'Arial', sans-serif; text-anchor: middle" x="454.667393" y="57.215045" transform="rotate(-0 454.667393 57.215045)">ns</text>
   </g>
   <g id="text_27">
    <text style="font: 10px 'Arial', sans-serif; text-anchor: middle" x="409.613857" y="88.372438" transform="rotate(-0 409.613857 88.372438)">****</text>
   </g>
   <g id="text_28">
    <text style="font: 10px 'Arial', sans-serif; text-anchor: middle" x="488.457544" y="119.529831" transform="rotate(-0 488.457544 119.529831)">**</text>
   </g>
   <g id="text_29">
    <text style="font: 10px 'Arial', sans-serif; text-anchor: middle" x="375.823706" y="119.529831" transform="rotate(-0 375.823706 119.529831)">**</text>
   </g>
  </g>
 </g>
 <defs>
  <clipPath id="p75348bceff">
   <rect x="44.028125" y="47.6" width="223.015" height="255.256"/>
  </clipPath>
  <clipPath id="pfee4db7c77">
   <rect x="320.633125" y="47.6" width="223.015" height="255.256"/>
  </clipPath>
 </defs>
</svg>
