<?xml version="1.0" encoding="utf-8" standalone="no"?>
<!DOCTYPE svg PUBLIC "-//W3C//DTD SVG 1.1//EN"
  "http://www.w3.org/Graphics/SVG/1.1/DTD/svg11.dtd">
<svg xmlns:xlink="http://www.w3.org/1999/xlink" width="522.609687pt" height="243.64005pt" viewBox="0 0 522.609687 243.64005" xmlns="http://www.w3.org/2000/svg" version="1.1">
 <metadata>
  <rdf:RDF xmlns:dc="http://purl.org/dc/elements/1.1/" xmlns:cc="http://creativecommons.org/ns#" xmlns:rdf="http://www.w3.org/1999/02/22-rdf-syntax-ns#">
   <cc:Work>
    <dc:type rdf:resource="http://purl.org/dc/dcmitype/StillImage"/>
    <dc:date>2023-07-08T22:40:22.648593</dc:date>
    <dc:format>image/svg+xml</dc:format>
    <dc:creator>
     <cc:Agent>
      <dc:title>Matplotlib v3.6.2, https://matplotlib.org/</dc:title>
     </cc:Agent>
    </dc:creator>
   </cc:Work>
  </rdf:RDF>
 </metadata>
 <defs>
  <style type="text/css">*{stroke-linejoin: round; stroke-linecap: butt}</style>
 </defs>
 <g id="figure_1">
  <g id="patch_1">
   <path d="M 0 243.64005 
L 522.609687 243.64005 
L 522.609687 0 
L 0 0 
L 0 243.64005 
z
" style="fill: none"/>
  </g>
  <g id="axes_1">
   <g id="patch_2">
    <path d="M 35.717188 222.1238 
L 208.760312 222.1238 
L 208.760312 56.2658 
L 35.717188 56.2658 
L 35.717188 222.1238 
z
" style="fill: none"/>
   </g>
   <g id="patch_3">
    <path d="M 78.977969 217.335479 
L 78.977969 217.335479 
L 78.977969 217.335479 
L 78.977969 217.335479 
z
" clip-path="url(#p3e344d6d63)" style="fill: #d4d4d4"/>
   </g>
   <g id="PolyCollection_1">
    <defs>
     <path id="ma44d744638" d="M 62.334613 -45.805779 
L 61.0127 -45.805779 
L 60.876303 -46.945477 
L 60.71797 -48.085176 
L 60.535524 -49.224874 
L 60.326831 -50.364572 
L 60.089856 -51.504271 
L 59.822718 -52.643969 
L 59.523751 -53.783667 
L 59.191567 -54.923366 
L 58.825109 -56.063064 
L 58.42371 -57.202762 
L 57.987139 -58.342461 
L 57.515644 -59.482159 
L 57.009983 -60.621857 
L 56.471445 -61.761556 
L 55.901862 -62.901254 
L 55.303606 -64.040952 
L 54.679582 -65.180651 
L 54.033202 -66.320349 
L 53.368361 -67.460047 
L 52.689403 -68.599746 
L 52.001075 -69.739444 
L 51.308487 -70.879142 
L 50.617065 -72.018841 
L 49.932502 -73.158539 
L 49.260708 -74.298237 
L 48.607756 -75.437936 
L 47.979828 -76.577634 
L 47.383154 -77.717332 
L 46.823944 -78.857031 
L 46.308315 -79.996729 
L 45.842203 -81.136428 
L 45.431271 -82.276126 
L 45.080804 -83.415824 
L 44.79559 -84.555523 
L 44.579803 -85.695221 
L 44.436868 -86.834919 
L 44.369344 -87.974618 
L 44.378795 -89.114316 
L 44.465684 -90.254014 
L 44.629286 -91.393713 
L 44.867614 -92.533411 
L 45.177392 -93.673109 
L 45.554053 -94.812808 
L 45.991783 -95.952506 
L 46.483599 -97.092204 
L 47.021481 -98.231903 
L 47.596532 -99.371601 
L 48.199184 -100.511299 
L 48.819426 -101.650998 
L 49.447059 -102.790696 
L 50.071965 -103.930394 
L 50.684377 -105.070093 
L 51.275147 -106.209791 
L 51.83599 -107.349489 
L 52.359714 -108.489188 
L 52.8404 -109.628886 
L 53.273555 -110.768584 
L 53.656208 -111.908283 
L 53.986961 -113.047981 
L 54.265979 -114.187679 
L 54.494942 -115.327378 
L 54.676937 -116.467076 
L 54.816306 -117.606774 
L 54.918461 -118.746473 
L 54.989665 -119.886171 
L 55.036791 -121.025869 
L 55.067066 -122.165568 
L 55.087818 -123.305266 
L 55.10622 -124.444964 
L 55.12906 -125.584663 
L 55.162528 -126.724361 
L 55.212036 -127.864059 
L 55.282074 -129.003758 
L 55.376106 -130.143456 
L 55.496516 -131.283154 
L 55.644581 -132.422853 
L 55.820503 -133.562551 
L 56.023467 -134.702249 
L 56.251741 -135.841948 
L 56.502792 -136.981646 
L 56.773436 -138.121345 
L 57.059991 -139.261043 
L 57.358442 -140.400741 
L 57.664602 -141.54044 
L 57.974265 -142.680138 
L 58.283349 -143.819836 
L 58.588015 -144.959535 
L 58.884772 -146.099233 
L 59.170553 -147.238931 
L 59.442769 -148.37863 
L 59.699341 -149.518328 
L 59.938707 -150.658026 
L 60.159814 -151.797725 
L 60.362085 -152.937423 
L 60.54538 -154.077121 
L 60.709947 -155.21682 
L 60.856359 -156.356518 
L 60.985457 -157.496216 
L 61.098291 -158.635915 
L 62.249022 -158.635915 
L 62.249022 -158.635915 
L 62.361855 -157.496216 
L 62.490954 -156.356518 
L 62.637366 -155.21682 
L 62.801932 -154.077121 
L 62.985228 -152.937423 
L 63.187498 -151.797725 
L 63.408605 -150.658026 
L 63.647972 -149.518328 
L 63.904544 -148.37863 
L 64.17676 -147.238931 
L 64.46254 -146.099233 
L 64.759297 -144.959535 
L 65.063963 -143.819836 
L 65.373047 -142.680138 
L 65.682711 -141.54044 
L 65.988871 -140.400741 
L 66.287322 -139.261043 
L 66.573877 -138.121345 
L 66.84452 -136.981646 
L 67.095572 -135.841948 
L 67.323845 -134.702249 
L 67.52681 -133.562551 
L 67.702732 -132.422853 
L 67.850797 -131.283154 
L 67.971206 -130.143456 
L 68.065239 -129.003758 
L 68.135276 -127.864059 
L 68.184784 -126.724361 
L 68.218252 -125.584663 
L 68.241093 -124.444964 
L 68.259495 -123.305266 
L 68.280246 -122.165568 
L 68.310522 -121.025869 
L 68.357648 -119.886171 
L 68.428852 -118.746473 
L 68.531007 -117.606774 
L 68.670376 -116.467076 
L 68.85237 -115.327378 
L 69.081334 -114.187679 
L 69.360352 -113.047981 
L 69.691104 -111.908283 
L 70.073758 -110.768584 
L 70.506913 -109.628886 
L 70.987599 -108.489188 
L 71.511322 -107.349489 
L 72.072166 -106.209791 
L 72.662935 -105.070093 
L 73.275347 -103.930394 
L 73.900253 -102.790696 
L 74.527886 -101.650998 
L 75.148128 -100.511299 
L 75.75078 -99.371601 
L 76.325832 -98.231903 
L 76.863714 -97.092204 
L 77.35553 -95.952506 
L 77.793259 -94.812808 
L 78.169921 -93.673109 
L 78.479699 -92.533411 
L 78.718027 -91.393713 
L 78.881628 -90.254014 
L 78.968518 -89.114316 
L 78.977969 -87.974618 
L 78.910444 -86.834919 
L 78.76751 -85.695221 
L 78.551722 -84.555523 
L 78.266509 -83.415824 
L 77.916042 -82.276126 
L 77.50511 -81.136428 
L 77.038998 -79.996729 
L 76.523368 -78.857031 
L 75.964158 -77.717332 
L 75.367484 -76.577634 
L 74.739557 -75.437936 
L 74.086605 -74.298237 
L 73.41481 -73.158539 
L 72.730247 -72.018841 
L 72.038826 -70.879142 
L 71.346238 -69.739444 
L 70.657909 -68.599746 
L 69.978951 -67.460047 
L 69.314111 -66.320349 
L 68.667731 -65.180651 
L 68.043706 -64.040952 
L 67.445451 -62.901254 
L 66.875868 -61.761556 
L 66.33733 -60.621857 
L 65.831669 -59.482159 
L 65.360174 -58.342461 
L 64.923603 -57.202762 
L 64.522203 -56.063064 
L 64.155745 -54.923366 
L 63.823561 -53.783667 
L 63.524595 -52.643969 
L 63.257457 -51.504271 
L 63.020481 -50.364572 
L 62.811788 -49.224874 
L 62.629342 -48.085176 
L 62.471009 -46.945477 
L 62.334613 -45.805779 
z
"/>
    </defs>
    <g clip-path="url(#p3e344d6d63)">
     <use xlink:href="#ma44d744638" x="0" y="243.64005" style="fill: #d4d4d4"/>
    </g>
   </g>
   <g id="patch_4">
    <path d="M 78.977969 217.335479 
L 78.977969 217.335479 
L 78.977969 217.335479 
L 78.977969 217.335479 
z
" clip-path="url(#p3e344d6d63)" style="fill: #11d6de"/>
   </g>
   <g id="PolyCollection_2">
    <defs>
     <path id="m72457c9b65" d="M 96.811325 -29.05525 
L 95.753238 -29.05525 
L 95.648814 -30.038939 
L 95.528619 -31.022627 
L 95.391251 -32.006316 
L 95.235352 -32.990004 
L 95.059635 -33.973693 
L 94.862913 -34.957382 
L 94.644129 -35.94107 
L 94.402381 -36.924759 
L 94.136942 -37.908448 
L 93.84729 -38.892136 
L 93.533117 -39.875825 
L 93.194352 -40.859513 
L 92.831167 -41.843202 
L 92.443994 -42.826891 
L 92.033532 -43.810579 
L 91.600754 -44.794268 
L 91.146919 -45.777957 
L 90.673576 -46.761645 
L 90.182577 -47.745334 
L 89.676078 -48.729022 
L 89.156545 -49.712711 
L 88.626758 -50.6964 
L 88.089798 -51.680088 
L 87.549037 -52.663777 
L 87.008106 -53.647466 
L 86.47086 -54.631154 
L 85.941317 -55.614843 
L 85.423593 -56.598531 
L 84.921809 -57.58222 
L 84.439994 -58.565909 
L 83.981975 -59.549597 
L 83.551257 -60.533286 
L 83.150914 -61.516975 
L 82.783471 -62.500663 
L 82.450814 -63.484352 
L 82.154111 -64.46804 
L 81.893767 -65.451729 
L 81.669399 -66.435418 
L 81.479861 -67.419106 
L 81.323292 -68.402795 
L 81.1972 -69.386483 
L 81.098584 -70.370172 
L 81.02407 -71.353861 
L 80.970076 -72.337549 
L 80.932973 -73.321238 
L 80.909255 -74.304927 
L 80.895693 -75.288615 
L 80.889476 -76.272304 
L 80.888317 -77.255992 
L 80.890538 -78.239681 
L 80.895115 -79.22337 
L 80.901693 -80.207058 
L 80.910562 -81.190747 
L 80.922611 -82.174436 
L 80.939255 -83.158124 
L 80.962347 -84.141813 
L 80.994076 -85.125501 
L 81.036861 -86.10919 
L 81.093258 -87.092879 
L 81.165858 -88.076567 
L 81.257204 -89.060256 
L 81.369723 -90.043945 
L 81.505665 -91.027633 
L 81.667051 -92.011322 
L 81.855641 -92.99501 
L 82.072902 -93.978699 
L 82.319976 -94.962388 
L 82.597664 -95.946076 
L 82.906399 -96.929765 
L 83.24622 -97.913454 
L 83.616757 -98.897142 
L 84.017203 -99.880831 
L 84.446296 -100.864519 
L 84.902312 -101.848208 
L 85.383057 -102.831897 
L 85.88588 -103.815585 
L 86.40769 -104.799274 
L 86.945 -105.782963 
L 87.493976 -106.766651 
L 88.05051 -107.75034 
L 88.610301 -108.734028 
L 89.16895 -109.717717 
L 89.72206 -110.701406 
L 90.265341 -111.685094 
L 90.79471 -112.668783 
L 91.306389 -113.652471 
L 91.796987 -114.63616 
L 92.26357 -115.619849 
L 92.703719 -116.603537 
L 93.115557 -117.587226 
L 93.49777 -118.570915 
L 93.8496 -119.554603 
L 94.170821 -120.538292 
L 94.461707 -121.52198 
L 94.722976 -122.505669 
L 94.955733 -123.489358 
L 95.161402 -124.473046 
L 95.341659 -125.456735 
L 95.498364 -126.440424 
L 97.066199 -126.440424 
L 97.066199 -126.440424 
L 97.222903 -125.456735 
L 97.403161 -124.473046 
L 97.60883 -123.489358 
L 97.841586 -122.505669 
L 98.102855 -121.52198 
L 98.393741 -120.538292 
L 98.714963 -119.554603 
L 99.066792 -118.570915 
L 99.449006 -117.587226 
L 99.860844 -116.603537 
L 100.300992 -115.619849 
L 100.767576 -114.63616 
L 101.258173 -113.652471 
L 101.769852 -112.668783 
L 102.299221 -111.685094 
L 102.842502 -110.701406 
L 103.395613 -109.717717 
L 103.954262 -108.734028 
L 104.514053 -107.75034 
L 105.070587 -106.766651 
L 105.619563 -105.782963 
L 106.156872 -104.799274 
L 106.678683 -103.815585 
L 107.181505 -102.831897 
L 107.662251 -101.848208 
L 108.118267 -100.864519 
L 108.54736 -99.880831 
L 108.947805 -98.897142 
L 109.318342 -97.913454 
L 109.658164 -96.929765 
L 109.966898 -95.946076 
L 110.244586 -94.962388 
L 110.491661 -93.978699 
L 110.708921 -92.99501 
L 110.897512 -92.011322 
L 111.058898 -91.027633 
L 111.194839 -90.043945 
L 111.307358 -89.060256 
L 111.398705 -88.076567 
L 111.471304 -87.092879 
L 111.527701 -86.10919 
L 111.570487 -85.125501 
L 111.602215 -84.141813 
L 111.625307 -83.158124 
L 111.641952 -82.174436 
L 111.654001 -81.190747 
L 111.66287 -80.207058 
L 111.669447 -79.22337 
L 111.674025 -78.239681 
L 111.676246 -77.255992 
L 111.675086 -76.272304 
L 111.668869 -75.288615 
L 111.655308 -74.304927 
L 111.63159 -73.321238 
L 111.594487 -72.337549 
L 111.540492 -71.353861 
L 111.465979 -70.370172 
L 111.367362 -69.386483 
L 111.241271 -68.402795 
L 111.084701 -67.419106 
L 110.895164 -66.435418 
L 110.670796 -65.451729 
L 110.410451 -64.46804 
L 110.113749 -63.484352 
L 109.781091 -62.500663 
L 109.413648 -61.516975 
L 109.013305 -60.533286 
L 108.582588 -59.549597 
L 108.124568 -58.565909 
L 107.642753 -57.58222 
L 107.140969 -56.598531 
L 106.623245 -55.614843 
L 106.093703 -54.631154 
L 105.556457 -53.647466 
L 105.015526 -52.663777 
L 104.474764 -51.680088 
L 103.937804 -50.6964 
L 103.408017 -49.712711 
L 102.888485 -48.729022 
L 102.381985 -47.745334 
L 101.890986 -46.761645 
L 101.417644 -45.777957 
L 100.963809 -44.794268 
L 100.531031 -43.810579 
L 100.120569 -42.826891 
L 99.733396 -41.843202 
L 99.370211 -40.859513 
L 99.031445 -39.875825 
L 98.717272 -38.892136 
L 98.42762 -37.908448 
L 98.162182 -36.924759 
L 97.920433 -35.94107 
L 97.70165 -34.957382 
L 97.504928 -33.973693 
L 97.329211 -32.990004 
L 97.173311 -32.006316 
L 97.035944 -31.022627 
L 96.915749 -30.038939 
L 96.811325 -29.05525 
z
"/>
    </defs>
    <g clip-path="url(#p3e344d6d63)">
     <use xlink:href="#m72457c9b65" x="0" y="243.64005" style="fill: #11d6de"/>
    </g>
   </g>
   <g id="PolyCollection_3">
    <defs>
     <path id="m9895752aad" d="M 148.906907 -36.858822 
L 147.48353 -36.858822 
L 147.337694 -37.982514 
L 147.168987 -39.106206 
L 146.975407 -40.229899 
L 146.755103 -41.353591 
L 146.506459 -42.477283 
L 146.228175 -43.600975 
L 145.919355 -44.724668 
L 145.579591 -45.84836 
L 145.209042 -46.972052 
L 144.808503 -48.095744 
L 144.379465 -49.219437 
L 143.92415 -50.343129 
L 143.445529 -51.466821 
L 142.947315 -52.590513 
L 142.433927 -53.714205 
L 141.910431 -54.837898 
L 141.382449 -55.96159 
L 140.856042 -57.085282 
L 140.337578 -58.208974 
L 139.833573 -59.332667 
L 139.350524 -60.456359 
L 138.89474 -61.580051 
L 138.472168 -62.703743 
L 138.088229 -63.827436 
L 137.747678 -64.951128 
L 137.454473 -66.07482 
L 137.211687 -67.198512 
L 137.021436 -68.322205 
L 136.884853 -69.445897 
L 136.802088 -70.569589 
L 136.77235 -71.693281 
L 136.793968 -72.816974 
L 136.864482 -73.940666 
L 136.980763 -75.064358 
L 137.139126 -76.18805 
L 137.335472 -77.311742 
L 137.565411 -78.435435 
L 137.824393 -79.559127 
L 138.107818 -80.682819 
L 138.411135 -81.806511 
L 138.729926 -82.930204 
L 139.059962 -84.053896 
L 139.397247 -85.177588 
L 139.738046 -86.30128 
L 140.078894 -87.424973 
L 140.416596 -88.548665 
L 140.74822 -89.672357 
L 141.071087 -90.796049 
L 141.382764 -91.919742 
L 141.681053 -93.043434 
L 141.963998 -94.167126 
L 142.229887 -95.290818 
L 142.477272 -96.414511 
L 142.704988 -97.538203 
L 142.912184 -98.661895 
L 143.098346 -99.785587 
L 143.263335 -100.90928 
L 143.407403 -102.032972 
L 143.531217 -103.156664 
L 143.635862 -104.280356 
L 143.722836 -105.404048 
L 143.794029 -106.527741 
L 143.851687 -107.651433 
L 143.898357 -108.775125 
L 143.936822 -109.898817 
L 143.970026 -111.02251 
L 144.000979 -112.146202 
L 144.032672 -113.269894 
L 144.067977 -114.393586 
L 144.109557 -115.517279 
L 144.159786 -116.640971 
L 144.220669 -117.764663 
L 144.293789 -118.888355 
L 144.380261 -120.012048 
L 144.480712 -121.13574 
L 144.59527 -122.259432 
L 144.723583 -123.383124 
L 144.864848 -124.506817 
L 145.017861 -125.630509 
L 145.181069 -126.754201 
L 145.352648 -127.877893 
L 145.530571 -129.001585 
L 145.712691 -130.125278 
L 145.896814 -131.24897 
L 146.080774 -132.372662 
L 146.262499 -133.496354 
L 146.440068 -134.620047 
L 146.611756 -135.743739 
L 146.776071 -136.867431 
L 146.931778 -137.991123 
L 147.077909 -139.114816 
L 147.213766 -140.238508 
L 147.338909 -141.3622 
L 147.453146 -142.485892 
L 147.556503 -143.609585 
L 147.649204 -144.733277 
L 147.731632 -145.856969 
L 147.804306 -146.980661 
L 147.867844 -148.104354 
L 148.522593 -148.104354 
L 148.522593 -148.104354 
L 148.586132 -146.980661 
L 148.658806 -145.856969 
L 148.741234 -144.733277 
L 148.833934 -143.609585 
L 148.937291 -142.485892 
L 149.051528 -141.3622 
L 149.176672 -140.238508 
L 149.312528 -139.114816 
L 149.458659 -137.991123 
L 149.614367 -136.867431 
L 149.778682 -135.743739 
L 149.95037 -134.620047 
L 150.127938 -133.496354 
L 150.309663 -132.372662 
L 150.493623 -131.24897 
L 150.677746 -130.125278 
L 150.859866 -129.001585 
L 151.037789 -127.877893 
L 151.209368 -126.754201 
L 151.372577 -125.630509 
L 151.525589 -124.506817 
L 151.666855 -123.383124 
L 151.795168 -122.259432 
L 151.909726 -121.13574 
L 152.010176 -120.012048 
L 152.096649 -118.888355 
L 152.169769 -117.764663 
L 152.230652 -116.640971 
L 152.28088 -115.517279 
L 152.322461 -114.393586 
L 152.357765 -113.269894 
L 152.389458 -112.146202 
L 152.420412 -111.02251 
L 152.453615 -109.898817 
L 152.492081 -108.775125 
L 152.538751 -107.651433 
L 152.596408 -106.527741 
L 152.667602 -105.404048 
L 152.754576 -104.280356 
L 152.859221 -103.156664 
L 152.983035 -102.032972 
L 153.127103 -100.90928 
L 153.292091 -99.785587 
L 153.478254 -98.661895 
L 153.685449 -97.538203 
L 153.913166 -96.414511 
L 154.160551 -95.290818 
L 154.42644 -94.167126 
L 154.709384 -93.043434 
L 155.007674 -91.919742 
L 155.31935 -90.796049 
L 155.642218 -89.672357 
L 155.973842 -88.548665 
L 156.311543 -87.424973 
L 156.652392 -86.30128 
L 156.993191 -85.177588 
L 157.330476 -84.053896 
L 157.660511 -82.930204 
L 157.979302 -81.806511 
L 158.28262 -80.682819 
L 158.566045 -79.559127 
L 158.825026 -78.435435 
L 159.054965 -77.311742 
L 159.251311 -76.18805 
L 159.409675 -75.064358 
L 159.525955 -73.940666 
L 159.59647 -72.816974 
L 159.618087 -71.693281 
L 159.588349 -70.569589 
L 159.505585 -69.445897 
L 159.369001 -68.322205 
L 159.17875 -67.198512 
L 158.935964 -66.07482 
L 158.64276 -64.951128 
L 158.302208 -63.827436 
L 157.91827 -62.703743 
L 157.495697 -61.580051 
L 157.039913 -60.456359 
L 156.556865 -59.332667 
L 156.05286 -58.208974 
L 155.534395 -57.085282 
L 155.007989 -55.96159 
L 154.480006 -54.837898 
L 153.95651 -53.714205 
L 153.443122 -52.590513 
L 152.944908 -51.466821 
L 152.466287 -50.343129 
L 152.010972 -49.219437 
L 151.581934 -48.095744 
L 151.181396 -46.972052 
L 150.810846 -45.84836 
L 150.471082 -44.724668 
L 150.162262 -43.600975 
L 149.883978 -42.477283 
L 149.635334 -41.353591 
L 149.41503 -40.229899 
L 149.22145 -39.106206 
L 149.052744 -37.982514 
L 148.906907 -36.858822 
z
"/>
    </defs>
    <g clip-path="url(#p3e344d6d63)">
     <use xlink:href="#m9895752aad" x="0" y="243.64005" style="fill: #d4d4d4"/>
    </g>
   </g>
   <g id="PolyCollection_4">
    <defs>
     <path id="mb825b4bb4b" d="M 183.809264 -38.171012 
L 181.798423 -38.171012 
L 181.597618 -38.799016 
L 181.367023 -39.42702 
L 181.104526 -40.055023 
L 180.808348 -40.683027 
L 180.477157 -41.311031 
L 180.110171 -41.939035 
L 179.707272 -42.567039 
L 179.269095 -43.195042 
L 178.797106 -43.823046 
L 178.293657 -44.45105 
L 177.76201 -45.079054 
L 177.206325 -45.707058 
L 176.631612 -46.335062 
L 176.043637 -46.963065 
L 175.448794 -47.591069 
L 174.853927 -48.219073 
L 174.266131 -48.847077 
L 173.692511 -49.475081 
L 173.139935 -50.103084 
L 172.614768 -50.731088 
L 172.122624 -51.359092 
L 171.668126 -51.987096 
L 171.254702 -52.6151 
L 170.884427 -53.243103 
L 170.557917 -53.871107 
L 170.274285 -54.499111 
L 170.031172 -55.127115 
L 169.824836 -55.755119 
L 169.650317 -56.383123 
L 169.501664 -57.011126 
L 169.372202 -57.63913 
L 169.254852 -58.267134 
L 169.142466 -58.895138 
L 169.028166 -59.523142 
L 168.905682 -60.151145 
L 168.769654 -60.779149 
L 168.615895 -61.407153 
L 168.441596 -62.035157 
L 168.24547 -62.663161 
L 168.027818 -63.291164 
L 167.790525 -63.919168 
L 167.53698 -64.547172 
L 167.271931 -65.175176 
L 167.001281 -65.80318 
L 166.731832 -66.431183 
L 166.471001 -67.059187 
L 166.226513 -67.687191 
L 166.00609 -68.315195 
L 165.81715 -68.943199 
L 165.666533 -69.571203 
L 165.560254 -70.199206 
L 165.503311 -70.82721 
L 165.499531 -71.455214 
L 165.551483 -72.083218 
L 165.660434 -72.711222 
L 165.826371 -73.339225 
L 166.048061 -73.967229 
L 166.323157 -74.595233 
L 166.648343 -75.223237 
L 167.019502 -75.851241 
L 167.431896 -76.479244 
L 167.880366 -77.107248 
L 168.359514 -77.735252 
L 168.863885 -78.363256 
L 169.388131 -78.99126 
L 169.927149 -79.619264 
L 170.476192 -80.247267 
L 171.030952 -80.875271 
L 171.587613 -81.503275 
L 172.142872 -82.131279 
L 172.693938 -82.759283 
L 173.238501 -83.387286 
L 173.77469 -84.01529 
L 174.30101 -84.643294 
L 174.816276 -85.271298 
L 175.31954 -85.899302 
L 175.810026 -86.527305 
L 176.287062 -87.155309 
L 176.750033 -87.783313 
L 177.198334 -88.411317 
L 177.631348 -89.039321 
L 178.04843 -89.667325 
L 178.448908 -90.295328 
L 178.83209 -90.923332 
L 179.197293 -91.551336 
L 179.543861 -92.17934 
L 179.871202 -92.807344 
L 180.178814 -93.435347 
L 180.466322 -94.063351 
L 180.733498 -94.691355 
L 180.980282 -95.319359 
L 181.206797 -95.947363 
L 181.413351 -96.575366 
L 181.600434 -97.20337 
L 181.768712 -97.831374 
L 181.919005 -98.459378 
L 182.05227 -99.087382 
L 182.169572 -99.715386 
L 182.272059 -100.343389 
L 183.335629 -100.343389 
L 183.335629 -100.343389 
L 183.438115 -99.715386 
L 183.555417 -99.087382 
L 183.688682 -98.459378 
L 183.838976 -97.831374 
L 184.007253 -97.20337 
L 184.194337 -96.575366 
L 184.40089 -95.947363 
L 184.627405 -95.319359 
L 184.874189 -94.691355 
L 185.141365 -94.063351 
L 185.428873 -93.435347 
L 185.736486 -92.807344 
L 186.063826 -92.17934 
L 186.410394 -91.551336 
L 186.775597 -90.923332 
L 187.15878 -90.295328 
L 187.559257 -89.667325 
L 187.976339 -89.039321 
L 188.409353 -88.411317 
L 188.857654 -87.783313 
L 189.320625 -87.155309 
L 189.797662 -86.527305 
L 190.288147 -85.899302 
L 190.791412 -85.271298 
L 191.306678 -84.643294 
L 191.832998 -84.01529 
L 192.369187 -83.387286 
L 192.91375 -82.759283 
L 193.464815 -82.131279 
L 194.020075 -81.503275 
L 194.576735 -80.875271 
L 195.131496 -80.247267 
L 195.680539 -79.619264 
L 196.219557 -78.99126 
L 196.743803 -78.363256 
L 197.248174 -77.735252 
L 197.727321 -77.107248 
L 198.175791 -76.479244 
L 198.588186 -75.851241 
L 198.959344 -75.223237 
L 199.284531 -74.595233 
L 199.559626 -73.967229 
L 199.781316 -73.339225 
L 199.947253 -72.711222 
L 200.056205 -72.083218 
L 200.108156 -71.455214 
L 200.104376 -70.82721 
L 200.047433 -70.199206 
L 199.941155 -69.571203 
L 199.790538 -68.943199 
L 199.601598 -68.315195 
L 199.381174 -67.687191 
L 199.136686 -67.059187 
L 198.875855 -66.431183 
L 198.606406 -65.80318 
L 198.335756 -65.175176 
L 198.070708 -64.547172 
L 197.817163 -63.919168 
L 197.579869 -63.291164 
L 197.362217 -62.663161 
L 197.166091 -62.035157 
L 196.991792 -61.407153 
L 196.838033 -60.779149 
L 196.702005 -60.151145 
L 196.579521 -59.523142 
L 196.465222 -58.895138 
L 196.352835 -58.267134 
L 196.235486 -57.63913 
L 196.106024 -57.011126 
L 195.95737 -56.383123 
L 195.782852 -55.755119 
L 195.576515 -55.127115 
L 195.333402 -54.499111 
L 195.049771 -53.871107 
L 194.723261 -53.243103 
L 194.352986 -52.6151 
L 193.939562 -51.987096 
L 193.485063 -51.359092 
L 192.992919 -50.731088 
L 192.467753 -50.103084 
L 191.915176 -49.475081 
L 191.341556 -48.847077 
L 190.75376 -48.219073 
L 190.158894 -47.591069 
L 189.56405 -46.963065 
L 188.976075 -46.335062 
L 188.401362 -45.707058 
L 187.845678 -45.079054 
L 187.314031 -44.45105 
L 186.810582 -43.823046 
L 186.338592 -43.195042 
L 185.900415 -42.567039 
L 185.497516 -41.939035 
L 185.130531 -41.311031 
L 184.799339 -40.683027 
L 184.503162 -40.055023 
L 184.240665 -39.42702 
L 184.01007 -38.799016 
L 183.809264 -38.171012 
z
"/>
    </defs>
    <g clip-path="url(#p3e344d6d63)">
     <use xlink:href="#mb825b4bb4b" x="0" y="243.64005" style="fill: #11d6de"/>
    </g>
   </g>
   <g id="matplotlib.axis_1">
    <g id="xtick_1">
     <g id="line2d_1">
      <defs>
       <path id="ma0f3146efe" d="M 0 0 
L 0 3.5 
" style="stroke: #000000; stroke-width: 0.8"/>
      </defs>
      <g>
       <use xlink:href="#ma0f3146efe" x="78.977969" y="222.1238" style="stroke: #000000; stroke-width: 0.8"/>
      </g>
     </g>
     <g id="text_1">
      <text style="font: 8px 'Arial', sans-serif; text-anchor: middle" x="78.977969" y="234.85005" transform="rotate(-0 78.977969 234.85005)">Male</text>
     </g>
    </g>
    <g id="xtick_2">
     <g id="line2d_2">
      <g>
       <use xlink:href="#ma0f3146efe" x="165.499531" y="222.1238" style="stroke: #000000; stroke-width: 0.8"/>
      </g>
     </g>
     <g id="text_2">
      <text style="font: 8px 'Arial', sans-serif; text-anchor: middle" x="165.499531" y="234.85005" transform="rotate(-0 165.499531 234.85005)">Female</text>
     </g>
    </g>
   </g>
   <g id="matplotlib.axis_2">
    <g id="ytick_1">
     <g id="line2d_3">
      <defs>
       <path id="m2b0e4fe8af" d="M 0 0 
L -3.5 0 
" style="stroke: #000000; stroke-width: 0.8"/>
      </defs>
      <g>
       <use xlink:href="#m2b0e4fe8af" x="35.717188" y="217.335479" style="stroke: #000000; stroke-width: 0.8"/>
      </g>
     </g>
     <g id="text_3">
      <text style="font: 6px 'Arial', sans-serif; text-anchor: end" x="28.717188" y="219.482823" transform="rotate(-0 28.717188 219.482823)">0</text>
     </g>
    </g>
    <g id="ytick_2">
     <g id="line2d_4">
      <g>
       <use xlink:href="#m2b0e4fe8af" x="35.717188" y="192.36302" style="stroke: #000000; stroke-width: 0.8"/>
      </g>
     </g>
     <g id="text_4">
      <text style="font: 6px 'Arial', sans-serif; text-anchor: end" x="28.717188" y="194.510364" transform="rotate(-0 28.717188 194.510364)">50</text>
     </g>
    </g>
    <g id="ytick_3">
     <g id="line2d_5">
      <g>
       <use xlink:href="#m2b0e4fe8af" x="35.717188" y="167.390561" style="stroke: #000000; stroke-width: 0.8"/>
      </g>
     </g>
     <g id="text_5">
      <text style="font: 6px 'Arial', sans-serif; text-anchor: end" x="28.717188" y="169.537905" transform="rotate(-0 28.717188 169.537905)">100</text>
     </g>
    </g>
    <g id="ytick_4">
     <g id="line2d_6">
      <g>
       <use xlink:href="#m2b0e4fe8af" x="35.717188" y="142.418102" style="stroke: #000000; stroke-width: 0.8"/>
      </g>
     </g>
     <g id="text_6">
      <text style="font: 6px 'Arial', sans-serif; text-anchor: end" x="28.717188" y="144.565445" transform="rotate(-0 28.717188 144.565445)">150</text>
     </g>
    </g>
    <g id="ytick_5">
     <g id="line2d_7">
      <g>
       <use xlink:href="#m2b0e4fe8af" x="35.717188" y="117.445642" style="stroke: #000000; stroke-width: 0.8"/>
      </g>
     </g>
     <g id="text_7">
      <text style="font: 6px 'Arial', sans-serif; text-anchor: end" x="28.717188" y="119.592986" transform="rotate(-0 28.717188 119.592986)">200</text>
     </g>
    </g>
    <g id="ytick_6">
     <g id="line2d_8">
      <g>
       <use xlink:href="#m2b0e4fe8af" x="35.717188" y="92.473183" style="stroke: #000000; stroke-width: 0.8"/>
      </g>
     </g>
     <g id="text_8">
      <text style="font: 6px 'Arial', sans-serif; text-anchor: end" x="28.717188" y="94.620527" transform="rotate(-0 28.717188 94.620527)">250</text>
     </g>
    </g>
    <g id="ytick_7">
     <g id="line2d_9">
      <g>
       <use xlink:href="#m2b0e4fe8af" x="35.717188" y="67.500724" style="stroke: #000000; stroke-width: 0.8"/>
      </g>
     </g>
     <g id="text_9">
      <text style="font: 6px 'Arial', sans-serif; text-anchor: end" x="28.717188" y="69.648068" transform="rotate(-0 28.717188 69.648068)">300</text>
     </g>
    </g>
    <g id="text_10">
     <text style="font: 8px 'Arial', sans-serif; text-anchor: middle" x="13.02375" y="139.1948" transform="rotate(-90 13.02375 139.1948)">Cummulative Testing Lick Bursts</text>
    </g>
   </g>
   <g id="line2d_10">
    <path d="M 61.673656 171.386154 
L 61.673656 144.915347 
" clip-path="url(#p3e344d6d63)" style="fill: none"/>
   </g>
   <g id="line2d_11">
    <path d="M 61.673656 159.898823 
L 61.673656 144.915347 
" clip-path="url(#p3e344d6d63)" style="fill: none"/>
   </g>
   <g id="line2d_12">
    <path d="M 96.282281 191.863571 
L 96.282281 139.920856 
" clip-path="url(#p3e344d6d63)" style="fill: none"/>
   </g>
   <g id="line2d_13">
    <path d="M 96.282281 176.380646 
L 96.282281 152.906534 
" clip-path="url(#p3e344d6d63)" style="fill: none"/>
   </g>
   <g id="line2d_14">
    <path d="M 148.195219 180.37624 
L 148.195219 121.940685 
" clip-path="url(#p3e344d6d63)" style="fill: none"/>
   </g>
   <g id="line2d_15">
    <path d="M 148.195219 176.505508 
L 148.195219 152.282223 
" clip-path="url(#p3e344d6d63)" style="fill: none"/>
   </g>
   <g id="line2d_16">
    <path d="M 182.803844 190.864672 
L 182.803844 157.901026 
" clip-path="url(#p3e344d6d63)" style="fill: none"/>
   </g>
   <g id="line2d_17">
    <path d="M 182.803844 188.367426 
L 182.803844 169.388358 
" clip-path="url(#p3e344d6d63)" style="fill: none"/>
   </g>
   <g id="line2d_18">
    <path d="M 96.282281 69.098961 
L 96.282281 63.8048 
L 182.803844 63.8048 
L 182.803844 69.098961 
" clip-path="url(#p3e344d6d63)" style="fill: none; stroke: #000000; stroke-width: 0.5; stroke-linecap: square"/>
   </g>
   <g id="line2d_19">
    <path d="M 61.673656 84.981445 
L 61.673656 79.687284 
L 148.195219 79.687284 
L 148.195219 84.981445 
" clip-path="url(#p3e344d6d63)" style="fill: none; stroke: #000000; stroke-width: 0.5; stroke-linecap: square"/>
   </g>
   <g id="line2d_20">
    <path d="M 148.195219 100.863929 
L 148.195219 95.569768 
L 182.803844 95.569768 
L 182.803844 100.863929 
" clip-path="url(#p3e344d6d63)" style="fill: none; stroke: #000000; stroke-width: 0.5; stroke-linecap: square"/>
   </g>
   <g id="line2d_21">
    <path d="M 61.673656 100.863929 
L 61.673656 95.569768 
L 96.282281 95.569768 
L 96.282281 100.863929 
" clip-path="url(#p3e344d6d63)" style="fill: none; stroke: #000000; stroke-width: 0.5; stroke-linecap: square"/>
   </g>
   <g id="patch_5">
    <path d="M 35.717188 222.1238 
L 35.717188 56.2658 
" style="fill: none; stroke: #000000; stroke-width: 0.8; stroke-linejoin: miter; stroke-linecap: square"/>
   </g>
   <g id="patch_6">
    <path d="M 35.717188 222.1238 
L 208.760312 222.1238 
" style="fill: none; stroke: #000000; stroke-width: 0.8; stroke-linejoin: miter; stroke-linecap: square"/>
   </g>
   <g id="PathCollection_1">
    <defs>
     <path id="C0_0_ead809a7c5" d="M 0 2.5 
C 0.663008 2.5 1.29895 2.236584 1.767767 1.767767 
C 2.236584 1.29895 2.5 0.663008 2.5 -0 
C 2.5 -0.663008 2.236584 -1.29895 1.767767 -1.767767 
C 1.29895 -2.236584 0.663008 -2.5 0 -2.5 
C -0.663008 -2.5 -1.29895 -2.236584 -1.767767 -1.767767 
C -2.236584 -1.29895 -2.5 -0.663008 -2.5 0 
C -2.5 0.663008 -2.236584 1.29895 -1.767767 1.767767 
C -1.29895 2.236584 -0.663008 2.5 0 2.5 
z
"/>
    </defs>
    <g clip-path="url(#p3e344d6d63)">
     <use xlink:href="#C0_0_ead809a7c5" x="61.673656" y="111.452252" style="fill: #262626; fill-opacity: 0.5"/>
    </g>
    <g clip-path="url(#p3e344d6d63)">
     <use xlink:href="#C0_0_ead809a7c5" x="63.972795" y="148.411492" style="fill: #262626; fill-opacity: 0.5"/>
    </g>
    <g clip-path="url(#p3e344d6d63)">
     <use xlink:href="#C0_0_ead809a7c5" x="56.529492" y="151.907636" style="fill: #262626; fill-opacity: 0.5"/>
    </g>
    <g clip-path="url(#p3e344d6d63)">
     <use xlink:href="#C0_0_ead809a7c5" x="61.673656" y="159.898823" style="fill: #262626; fill-opacity: 0.5"/>
    </g>
    <g clip-path="url(#p3e344d6d63)">
     <use xlink:href="#C0_0_ead809a7c5" x="61.427295" y="166.391662" style="fill: #262626; fill-opacity: 0.5"/>
    </g>
    <g clip-path="url(#p3e344d6d63)">
     <use xlink:href="#C0_0_ead809a7c5" x="61.673656" y="116.946193" style="fill: #262626; fill-opacity: 0.5"/>
    </g>
    <g clip-path="url(#p3e344d6d63)">
     <use xlink:href="#C0_0_ead809a7c5" x="61.673656" y="171.386154" style="fill: #262626; fill-opacity: 0.5"/>
    </g>
    <g clip-path="url(#p3e344d6d63)">
     <use xlink:href="#C0_0_ead809a7c5" x="61.673656" y="152.906534" style="fill: #262626; fill-opacity: 0.5"/>
    </g>
    <g clip-path="url(#p3e344d6d63)">
     <use xlink:href="#C0_0_ead809a7c5" x="60.219581" y="144.915347" style="fill: #262626; fill-opacity: 0.5"/>
    </g>
   </g>
   <g id="PathCollection_2">
    <defs>
     <path id="C1_0_8c76dcf9f2" d="M 0 2.5 
C 0.663008 2.5 1.29895 2.236584 1.767767 1.767767 
C 2.236584 1.29895 2.5 0.663008 2.5 -0 
C 2.5 -0.663008 2.236584 -1.29895 1.767767 -1.767767 
C 1.29895 -2.236584 0.663008 -2.5 0 -2.5 
C -0.663008 -2.5 -1.29895 -2.236584 -1.767767 -1.767767 
C -2.236584 -1.29895 -2.5 -0.663008 -2.5 0 
C -2.5 0.663008 -2.236584 1.29895 -1.767767 1.767767 
C -1.29895 2.236584 -0.663008 2.5 0 2.5 
z
"/>
    </defs>
    <g clip-path="url(#p3e344d6d63)">
     <use xlink:href="#C1_0_8c76dcf9f2" x="96.282281" y="142.917551" style="fill-opacity: 0.5"/>
    </g>
    <g clip-path="url(#p3e344d6d63)">
     <use xlink:href="#C1_0_8c76dcf9f2" x="92.079681" y="139.920856" style="fill-opacity: 0.5"/>
    </g>
    <g clip-path="url(#p3e344d6d63)">
     <use xlink:href="#C1_0_8c76dcf9f2" x="92.079681" y="176.380646" style="fill-opacity: 0.5"/>
    </g>
    <g clip-path="url(#p3e344d6d63)">
     <use xlink:href="#C1_0_8c76dcf9f2" x="96.282281" y="152.906534" style="fill-opacity: 0.5"/>
    </g>
    <g clip-path="url(#p3e344d6d63)">
     <use xlink:href="#C1_0_8c76dcf9f2" x="96.282281" y="191.863571" style="fill-opacity: 0.5"/>
    </g>
    <g clip-path="url(#p3e344d6d63)">
     <use xlink:href="#C1_0_8c76dcf9f2" x="99.438441" y="175.381748" style="fill-opacity: 0.5"/>
    </g>
    <g clip-path="url(#p3e344d6d63)">
     <use xlink:href="#C1_0_8c76dcf9f2" x="92.529067" y="157.901026" style="fill-opacity: 0.5"/>
    </g>
    <g clip-path="url(#p3e344d6d63)">
     <use xlink:href="#C1_0_8c76dcf9f2" x="96.282281" y="161.397171" style="fill-opacity: 0.5"/>
    </g>
    <g clip-path="url(#p3e344d6d63)">
     <use xlink:href="#C1_0_8c76dcf9f2" x="96.282281" y="179.377341" style="fill-opacity: 0.5"/>
    </g>
   </g>
   <g id="PathCollection_3">
    <defs>
     <path id="C2_0_a1a0cebd19" d="M 0 2.5 
C 0.663008 2.5 1.29895 2.236584 1.767767 1.767767 
C 2.236584 1.29895 2.5 0.663008 2.5 -0 
C 2.5 -0.663008 2.236584 -1.29895 1.767767 -1.767767 
C 1.29895 -2.236584 0.663008 -2.5 0 -2.5 
C -0.663008 -2.5 -1.29895 -2.236584 -1.767767 -1.767767 
C -2.236584 -1.29895 -2.5 -0.663008 -2.5 0 
C -2.5 0.663008 -2.236584 1.29895 -1.767767 1.767767 
C -1.29895 2.236584 -0.663008 2.5 0 2.5 
z
"/>
    </defs>
    <g clip-path="url(#p3e344d6d63)">
     <use xlink:href="#C2_0_a1a0cebd19" x="148.195219" y="121.940685" style="fill: #262626; fill-opacity: 0.5"/>
    </g>
    <g clip-path="url(#p3e344d6d63)">
     <use xlink:href="#C2_0_a1a0cebd19" x="148.195219" y="128.433524" style="fill: #262626; fill-opacity: 0.5"/>
    </g>
    <g clip-path="url(#p3e344d6d63)">
     <use xlink:href="#C2_0_a1a0cebd19" x="148.195219" y="180.37624" style="fill: #262626; fill-opacity: 0.5"/>
    </g>
    <g clip-path="url(#p3e344d6d63)">
     <use xlink:href="#C2_0_a1a0cebd19" x="148.195219" y="156.402679" style="fill: #262626; fill-opacity: 0.5"/>
    </g>
    <g clip-path="url(#p3e344d6d63)">
     <use xlink:href="#C2_0_a1a0cebd19" x="141.69348" y="172.884502" style="fill: #262626; fill-opacity: 0.5"/>
    </g>
    <g clip-path="url(#p3e344d6d63)">
     <use xlink:href="#C2_0_a1a0cebd19" x="143.992618" y="177.379544" style="fill: #262626; fill-opacity: 0.5"/>
    </g>
    <g clip-path="url(#p3e344d6d63)">
     <use xlink:href="#C2_0_a1a0cebd19" x="148.195219" y="164.893315" style="fill: #262626; fill-opacity: 0.5"/>
    </g>
    <g clip-path="url(#p3e344d6d63)">
     <use xlink:href="#C2_0_a1a0cebd19" x="148.195219" y="173.8834" style="fill: #262626; fill-opacity: 0.5"/>
    </g>
    <g clip-path="url(#p3e344d6d63)">
     <use xlink:href="#C2_0_a1a0cebd19" x="148.195219" y="150.908738" style="fill: #262626; fill-opacity: 0.5"/>
    </g>
    <g clip-path="url(#p3e344d6d63)">
     <use xlink:href="#C2_0_a1a0cebd19" x="152.397819" y="177.379544" style="fill: #262626; fill-opacity: 0.5"/>
    </g>
   </g>
   <g id="PathCollection_4">
    <defs>
     <path id="C3_0_1b96d75748" d="M 0 2.5 
C 0.663008 2.5 1.29895 2.236584 1.767767 1.767767 
C 2.236584 1.29895 2.5 0.663008 2.5 -0 
C 2.5 -0.663008 2.236584 -1.29895 1.767767 -1.767767 
C 1.29895 -2.236584 0.663008 -2.5 0 -2.5 
C -0.663008 -2.5 -1.29895 -2.236584 -1.767767 -1.767767 
C -2.236584 -1.29895 -2.5 -0.663008 -2.5 0 
C -2.5 0.663008 -2.236584 1.29895 -1.767767 1.767767 
C -1.29895 2.236584 -0.663008 2.5 0 2.5 
z
"/>
    </defs>
    <g clip-path="url(#p3e344d6d63)">
     <use xlink:href="#C3_0_1b96d75748" x="182.803844" y="157.901026" style="fill-opacity: 0.5"/>
    </g>
    <g clip-path="url(#p3e344d6d63)">
     <use xlink:href="#C3_0_1b96d75748" x="185.960003" y="172.385053" style="fill-opacity: 0.5"/>
    </g>
    <g clip-path="url(#p3e344d6d63)">
     <use xlink:href="#C3_0_1b96d75748" x="182.803844" y="176.380646" style="fill-opacity: 0.5"/>
    </g>
    <g clip-path="url(#p3e344d6d63)">
     <use xlink:href="#C3_0_1b96d75748" x="187.352145" y="188.367426" style="fill-opacity: 0.5"/>
    </g>
    <g clip-path="url(#p3e344d6d63)">
     <use xlink:href="#C3_0_1b96d75748" x="177.795118" y="174.882299" style="fill-opacity: 0.5"/>
    </g>
    <g clip-path="url(#p3e344d6d63)">
     <use xlink:href="#C3_0_1b96d75748" x="185.510617" y="165.892213" style="fill-opacity: 0.5"/>
    </g>
    <g clip-path="url(#p3e344d6d63)">
     <use xlink:href="#C3_0_1b96d75748" x="181.757403" y="169.388358" style="fill-opacity: 0.5"/>
    </g>
    <g clip-path="url(#p3e344d6d63)">
     <use xlink:href="#C3_0_1b96d75748" x="182.803844" y="190.864672" style="fill-opacity: 0.5"/>
    </g>
    <g clip-path="url(#p3e344d6d63)">
     <use xlink:href="#C3_0_1b96d75748" x="177.99113" y="188.866876" style="fill-opacity: 0.5"/>
    </g>
   </g>
   <g id="PathCollection_5">
    <defs>
     <path id="m9c7132a182" d="M 0 0 
C 0 0 0 0 0 0 
C 0 0 0 0 0 0 
C 0 0 0 0 0 0 
C 0 0 0 0 0 0 
C 0 0 0 0 0 0 
C 0 0 0 0 0 0 
C 0 0 0 0 0 0 
C 0 0 0 0 0 0 
z
" style="stroke: #484848"/>
    </defs>
    <g clip-path="url(#p3e344d6d63)">
     <use xlink:href="#m9c7132a182" x="61.673656" y="151.907636" style="fill: #ffffff; stroke: #484848"/>
    </g>
   </g>
   <g id="PathCollection_6">
    <g clip-path="url(#p3e344d6d63)">
     <use xlink:href="#m9c7132a182" x="96.282281" y="161.397171" style="fill: #ffffff; stroke: #484848"/>
    </g>
   </g>
   <g id="PathCollection_7">
    <g clip-path="url(#p3e344d6d63)">
     <use xlink:href="#m9c7132a182" x="148.195219" y="168.888908" style="fill: #ffffff; stroke: #484848"/>
    </g>
   </g>
   <g id="PathCollection_8">
    <g clip-path="url(#p3e344d6d63)">
     <use xlink:href="#m9c7132a182" x="182.803844" y="174.882299" style="fill: #ffffff; stroke: #484848"/>
    </g>
   </g>
   <g id="text_11">
    <text style="font: 8px 'Arial', sans-serif; text-anchor: middle" x="139.543062" y="62.2148" transform="rotate(-0 139.543062 62.2148)">ns</text>
   </g>
   <g id="text_12">
    <text style="font: 8px 'Arial', sans-serif; text-anchor: middle" x="104.934438" y="78.097284" transform="rotate(-0 104.934438 78.097284)">ns</text>
   </g>
   <g id="text_13">
    <text style="font: 8px 'Arial', sans-serif; text-anchor: middle" x="165.499531" y="93.979768" transform="rotate(-0 165.499531 93.979768)">ns</text>
   </g>
   <g id="text_14">
    <text style="font: 8px 'Arial', sans-serif; text-anchor: middle" x="78.977969" y="93.979768" transform="rotate(-0 78.977969 93.979768)">ns</text>
   </g>
   <g id="legend_1">
    <g id="patch_7">
     <path d="M 42.917188 17.76 
L 58.917188 17.76 
L 58.917188 12.16 
L 42.917188 12.16 
z
" style="fill: #d4d4d4"/>
    </g>
    <g id="text_15">
     <!-- $AgRP^{TdTomato}$ -->
     <g transform="translate(65.317188 17.76)">
      <text>
       <tspan style="font: oblique 8px 'DejaVu Sans'" x="0 5.472656 10.550781 16.109375" y="-0.6828125000000007">AgRP</tspan>
       <tspan style="font: oblique 5.6px 'DejaVu Sans'" x="21.494323 24.915026 28.469714 31.890417 35.316589 40.771667 44.203307 46.39901" y="-3.7453125000000007">TdTomato</tspan>
      </text>
     </g>
    </g>
    <g id="patch_8">
     <path d="M 42.917188 30.8 
L 58.917188 30.8 
L 58.917188 25.2 
L 42.917188 25.2 
z
" style="fill: #11d6de"/>
    </g>
    <g id="text_16">
     <!-- $AgRP^{Chr2}$ -->
     <g transform="translate(65.317188 30.8)">
      <text>
       <tspan style="font: oblique 8px 'DejaVu Sans'" x="0 5.472656 10.550781 16.109375" y="-0.6828125000000007">AgRP</tspan>
       <tspan style="font: oblique 5.6px 'DejaVu Sans'" x="21.494323 25.404479 28.953698" y="-3.7453125000000007">Chr</tspan>
       <tspan style="font: 5.6px 'DejaVu Sans'" x="31.256042" y="-3.7453125000000007">2</tspan>
      </text>
     </g>
    </g>
   </g>
  </g>
  <g id="axes_2">
   <g id="patch_9">
    <path d="M 251.330313 222.1238 
L 424.373437 222.1238 
L 424.373437 56.2658 
L 251.330313 56.2658 
L 251.330313 222.1238 
z
" style="fill: none"/>
   </g>
   <g id="PathCollection_9">
    <path d="M 369.274869 150.314528 
C 370.343579 150.314528 371.368662 149.889925 372.124354 149.134233 
C 372.880046 148.378541 373.30465 147.353458 373.30465 146.284748 
C 373.30465 145.216038 372.880046 144.190955 372.124354 143.435263 
C 371.368662 142.679571 370.343579 142.254967 369.274869 142.254967 
C 368.206159 142.254967 367.181076 142.679571 366.425384 143.435263 
C 365.669692 144.190955 365.245089 145.216038 365.245089 146.284748 
C 365.245089 147.353458 365.669692 148.378541 366.425384 149.134233 
C 367.181076 149.889925 368.206159 150.314528 369.274869 150.314528 
z
" clip-path="url(#p0212c77724)" style="fill: #d4d4d4; stroke: #ffffff; stroke-width: 0.388373"/>
    <path d="M 370.403543 180.023113 
C 371.435761 180.023113 372.425841 179.613008 373.15573 178.883119 
C 373.885619 178.153231 374.295723 177.163151 374.295723 176.130932 
C 374.295723 175.098714 373.885619 174.108634 373.15573 173.378745 
C 372.425841 172.648857 371.435761 172.238752 370.403543 172.238752 
C 369.371324 172.238752 368.381244 172.648857 367.651356 173.378745 
C 366.921467 174.108634 366.511362 175.098714 366.511362 176.130932 
C 366.511362 177.163151 366.921467 178.153231 367.651356 178.883119 
C 368.381244 179.613008 369.371324 180.023113 370.403543 180.023113 
z
" clip-path="url(#p0212c77724)" style="fill: #d4d4d4; stroke: #ffffff; stroke-width: 0.388373"/>
    <path d="M 368.150205 176.091036 
C 368.822618 176.091036 369.467581 175.823884 369.943048 175.348416 
C 370.418516 174.872949 370.685668 174.227986 370.685668 173.555573 
C 370.685668 172.883161 370.418516 172.238198 369.943048 171.762731 
C 369.467581 171.287263 368.822618 171.020111 368.150205 171.020111 
C 367.477793 171.020111 366.83283 171.287263 366.357362 171.762731 
C 365.881895 172.238198 365.614742 172.883161 365.614742 173.555573 
C 365.614742 174.227986 365.881895 174.872949 366.357362 175.348416 
C 366.83283 175.823884 367.477793 176.091036 368.150205 176.091036 
z
" clip-path="url(#p0212c77724)" style="fill: #d4d4d4; stroke: #ffffff; stroke-width: 0.388373"/>
    <path d="M 371.331714 186.276412 
C 372.189162 186.276412 373.011607 185.935744 373.617914 185.329437 
C 374.224221 184.72313 374.564889 183.900686 374.564889 183.043238 
C 374.564889 182.18579 374.224221 181.363345 373.617914 180.757038 
C 373.011607 180.150731 372.189162 179.810063 371.331714 179.810063 
C 370.474266 179.810063 369.651822 180.150731 369.045515 180.757038 
C 368.439208 181.363345 368.09854 182.18579 368.09854 183.043238 
C 368.09854 183.900686 368.439208 184.72313 369.045515 185.329437 
C 369.651822 185.935744 370.474266 186.276412 371.331714 186.276412 
z
" clip-path="url(#p0212c77724)" style="fill: #d4d4d4; stroke: #ffffff; stroke-width: 0.388373"/>
    <path d="M 373.312353 184.461839 
C 374.047608 184.461839 374.752848 184.169719 375.272752 183.649815 
C 375.792657 183.129911 376.084777 182.424671 376.084777 181.689415 
C 376.084777 180.95416 375.792657 180.248919 375.272752 179.729015 
C 374.752848 179.209111 374.047608 178.916991 373.312353 178.916991 
C 372.577097 178.916991 371.871857 179.209111 371.351953 179.729015 
C 370.832049 180.248919 370.539928 180.95416 370.539928 181.689415 
C 370.539928 182.424671 370.832049 183.129911 371.351953 183.649815 
C 371.871857 184.169719 372.577097 184.461839 373.312353 184.461839 
z
" clip-path="url(#p0212c77724)" style="fill: #d4d4d4; stroke: #ffffff; stroke-width: 0.388373"/>
    <path d="M 367.997622 207.370075 
C 368.69585 207.370075 369.365576 207.092666 369.859298 206.598944 
C 370.35302 206.105221 370.63043 205.435496 370.63043 204.737267 
C 370.63043 204.039039 370.35302 203.369313 369.859298 202.875591 
C 369.365576 202.381869 368.69585 202.10446 367.997622 202.10446 
C 367.299393 202.10446 366.629668 202.381869 366.135945 202.875591 
C 365.642223 203.369313 365.364814 204.039039 365.364814 204.737267 
C 365.364814 205.435496 365.642223 206.105221 366.135945 206.598944 
C 366.629668 207.092666 367.299393 207.370075 367.997622 207.370075 
z
" clip-path="url(#p0212c77724)" style="fill: #d4d4d4; stroke: #ffffff; stroke-width: 0.388373"/>
    <path d="M 372.202223 199.244439 
C 372.999067 199.244439 373.763381 198.927849 374.326835 198.364396 
C 374.890289 197.800942 375.206878 197.036628 375.206878 196.239784 
C 375.206878 195.44294 374.890289 194.678626 374.326835 194.115172 
C 373.763381 193.551719 372.999067 193.235129 372.202223 193.235129 
C 371.405379 193.235129 370.641065 193.551719 370.077611 194.115172 
C 369.514158 194.678626 369.197568 195.44294 369.197568 196.239784 
C 369.197568 197.036628 369.514158 197.800942 370.077611 198.364396 
C 370.641065 198.927849 371.405379 199.244439 372.202223 199.244439 
z
" clip-path="url(#p0212c77724)" style="fill: #d4d4d4; stroke: #ffffff; stroke-width: 0.388373"/>
    <path d="M 371.776307 195.639666 
C 372.503497 195.639666 373.201002 195.35075 373.715203 194.836549 
C 374.229404 194.322348 374.51832 193.624844 374.51832 192.897653 
C 374.51832 192.170463 374.229404 191.472959 373.715203 190.958757 
C 373.201002 190.444556 372.503497 190.155641 371.776307 190.155641 
C 371.049117 190.155641 370.351612 190.444556 369.837411 190.958757 
C 369.32321 191.472959 369.034294 192.170463 369.034294 192.897653 
C 369.034294 193.624844 369.32321 194.322348 369.837411 194.836549 
C 370.351612 195.35075 371.049117 195.639666 371.776307 195.639666 
z
" clip-path="url(#p0212c77724)" style="fill: #d4d4d4; stroke: #ffffff; stroke-width: 0.388373"/>
    <path d="M 369.645416 127.91313 
C 370.539893 127.91313 371.397855 127.55775 372.030346 126.92526 
C 372.662836 126.292769 373.018216 125.434807 373.018216 124.54033 
C 373.018216 123.645853 372.662836 122.787892 372.030346 122.155401 
C 371.397855 121.52291 370.539893 121.167531 369.645416 121.167531 
C 368.75094 121.167531 367.892978 121.52291 367.260487 122.155401 
C 366.627996 122.787892 366.272617 123.645853 366.272617 124.54033 
C 366.272617 125.434807 366.627996 126.292769 367.260487 126.92526 
C 367.892978 127.55775 368.75094 127.91313 369.645416 127.91313 
z
" clip-path="url(#p0212c77724)" style="fill: #d4d4d4; stroke: #ffffff; stroke-width: 0.388373"/>
    <path d="M 371.551408 168.500399 
C 372.249637 168.500399 372.919362 168.222989 373.413084 167.729267 
C 373.906807 167.235545 374.184216 166.56582 374.184216 165.867591 
C 374.184216 165.169362 373.906807 164.499637 373.413084 164.005914 
C 372.919362 163.512192 372.249637 163.234783 371.551408 163.234783 
C 370.853179 163.234783 370.183454 163.512192 369.689732 164.005914 
C 369.19601 164.499637 368.9186 165.169362 368.9186 165.867591 
C 368.9186 166.56582 369.19601 167.235545 369.689732 167.729267 
C 370.183454 168.222989 370.853179 168.500399 371.551408 168.500399 
z
" clip-path="url(#p0212c77724)" style="fill: #d4d4d4; stroke: #ffffff; stroke-width: 0.388373"/>
    <path d="M 286.010486 137.07434 
C 287.135647 137.07434 288.214877 136.627308 289.010486 135.831699 
C 289.806095 135.03609 290.253127 133.956861 290.253127 132.831699 
C 290.253127 131.706538 289.806095 130.627308 289.010486 129.831699 
C 288.214877 129.03609 287.135647 128.589058 286.010486 128.589058 
C 284.885324 128.589058 283.806095 129.03609 283.010486 129.831699 
C 282.214877 130.627308 281.767845 131.706538 281.767845 132.831699 
C 281.767845 133.956861 282.214877 135.03609 283.010486 135.831699 
C 283.806095 136.627308 284.885324 137.07434 286.010486 137.07434 
z
" clip-path="url(#p0212c77724)" style="fill: #d4d4d4; stroke: #ffffff; stroke-width: 0.388373"/>
    <path d="M 283.65211 149.252602 
C 284.562921 149.252602 285.436549 148.890733 286.08059 148.246692 
C 286.72463 147.602652 287.086499 146.729023 287.086499 145.818212 
C 287.086499 144.907401 286.72463 144.033772 286.08059 143.389732 
C 285.436549 142.745692 284.562921 142.383823 283.65211 142.383823 
C 282.741299 142.383823 281.86767 142.745692 281.22363 143.389732 
C 280.579589 144.033772 280.21772 144.907401 280.21772 145.818212 
C 280.21772 146.729023 280.579589 147.602652 281.22363 148.246692 
C 281.86767 148.890733 282.741299 149.252602 283.65211 149.252602 
z
" clip-path="url(#p0212c77724)" style="fill: #d4d4d4; stroke: #ffffff; stroke-width: 0.388373"/>
    <path d="M 283.441149 150.64377 
C 284.329008 150.64377 285.180622 150.29102 285.808433 149.663208 
C 286.436245 149.035397 286.788995 148.183783 286.788995 147.295924 
C 286.788995 146.408064 286.436245 145.55645 285.808433 144.928639 
C 285.180622 144.300828 284.329008 143.948077 283.441149 143.948077 
C 282.553289 143.948077 281.701675 144.300828 281.073864 144.928639 
C 280.446053 145.55645 280.093302 146.408064 280.093302 147.295924 
C 280.093302 148.183783 280.446053 149.035397 281.073864 149.663208 
C 281.701675 150.29102 282.553289 150.64377 283.441149 150.64377 
z
" clip-path="url(#p0212c77724)" style="fill: #d4d4d4; stroke: #ffffff; stroke-width: 0.388373"/>
    <path d="M 286.193104 170.468216 
C 287.026132 170.468216 287.825152 170.137251 288.414192 169.548212 
C 289.003231 168.959172 289.334196 168.160151 289.334196 167.327124 
C 289.334196 166.494097 289.003231 165.695076 288.414192 165.106037 
C 287.825152 164.516997 287.026132 164.186032 286.193104 164.186032 
C 285.360077 164.186032 284.561056 164.516997 283.972017 165.106037 
C 283.382977 165.695076 283.052012 166.494097 283.052012 167.327124 
C 283.052012 168.160151 283.382977 168.959172 283.972017 169.548212 
C 284.561056 170.137251 285.360077 170.468216 286.193104 170.468216 
z
" clip-path="url(#p0212c77724)" style="fill: #d4d4d4; stroke: #ffffff; stroke-width: 0.388373"/>
    <path d="M 287.778298 201.498632 
C 288.563961 201.498632 289.317552 201.186485 289.8731 200.630936 
C 290.428649 200.075388 290.740796 199.321797 290.740796 198.536134 
C 290.740796 197.75047 290.428649 196.996879 289.8731 196.441331 
C 289.317552 195.885783 288.563961 195.573635 287.778298 195.573635 
C 286.992634 195.573635 286.239043 195.885783 285.683495 196.441331 
C 285.127947 196.996879 284.815799 197.75047 284.815799 198.536134 
C 284.815799 199.321797 285.127947 200.075388 285.683495 200.630936 
C 286.239043 201.186485 286.992634 201.498632 287.778298 201.498632 
z
" clip-path="url(#p0212c77724)" style="fill: #d4d4d4; stroke: #ffffff; stroke-width: 0.388373"/>
    <path d="M 286.203684 194.023354 
C 287.299639 194.023354 288.350853 193.587927 289.12581 192.81297 
C 289.900767 192.038013 290.336194 190.986799 290.336194 189.890844 
C 290.336194 188.79489 289.900767 187.743675 289.12581 186.968718 
C 288.350853 186.193761 287.299639 185.758334 286.203684 185.758334 
C 285.10773 185.758334 284.056515 186.193761 283.281558 186.968718 
C 282.506601 187.743675 282.071174 188.79489 282.071174 189.890844 
C 282.071174 190.986799 282.506601 192.038013 283.281558 192.81297 
C 284.056515 193.587927 285.10773 194.023354 286.203684 194.023354 
z
" clip-path="url(#p0212c77724)" style="fill: #d4d4d4; stroke: #ffffff; stroke-width: 0.388373"/>
    <path d="M 285.757618 162.462796 
C 286.504808 162.462796 287.221496 162.165934 287.749839 161.637591 
C 288.278182 161.109248 288.575044 160.39256 288.575044 159.64537 
C 288.575044 158.89818 288.278182 158.181492 287.749839 157.653149 
C 287.221496 157.124806 286.504808 156.827944 285.757618 156.827944 
C 285.010428 156.827944 284.29374 157.124806 283.765397 157.653149 
C 283.237054 158.181492 282.940192 158.89818 282.940192 159.64537 
C 282.940192 160.39256 283.237054 161.109248 283.765397 161.637591 
C 284.29374 162.165934 285.010428 162.462796 285.757618 162.462796 
z
" clip-path="url(#p0212c77724)" style="fill: #d4d4d4; stroke: #ffffff; stroke-width: 0.388373"/>
    <path d="M 283.188867 149.974596 
C 284.070059 149.974596 284.915278 149.624495 285.538375 149.001399 
C 286.161471 148.378302 286.511573 147.533083 286.511573 146.651891 
C 286.511573 145.770699 286.161471 144.92548 285.538375 144.302383 
C 284.915278 143.679286 284.070059 143.329185 283.188867 143.329185 
C 282.307675 143.329185 281.462456 143.679286 280.839359 144.302383 
C 280.216263 144.92548 279.866161 145.770699 279.866161 146.651891 
C 279.866161 147.533083 280.216263 148.378302 280.839359 149.001399 
C 281.462456 149.624495 282.307675 149.974596 283.188867 149.974596 
z
" clip-path="url(#p0212c77724)" style="fill: #d4d4d4; stroke: #ffffff; stroke-width: 0.388373"/>
    <path d="M 286.684524 131.430583 
C 287.617722 131.430583 288.512825 131.059819 289.172695 130.399949 
C 289.832566 129.740078 290.203329 128.844976 290.203329 127.911778 
C 290.203329 126.97858 289.832566 126.083478 289.172695 125.423607 
C 288.512825 124.763737 287.617722 124.392973 286.684524 124.392973 
C 285.751326 124.392973 284.856224 124.763737 284.196354 125.423607 
C 283.536483 126.083478 283.165719 126.97858 283.165719 127.911778 
C 283.165719 128.844976 283.536483 129.740078 284.196354 130.399949 
C 284.856224 131.059819 285.751326 131.430583 286.684524 131.430583 
z
" clip-path="url(#p0212c77724)" style="fill: #d4d4d4; stroke: #ffffff; stroke-width: 0.388373"/>
    <path d="M 387.86544 141.549972 
C 388.712508 141.549972 389.524997 141.213428 390.123965 140.614461 
C 390.722932 140.015493 391.059476 139.203005 391.059476 138.355936 
C 391.059476 137.508868 390.722932 136.69638 390.123965 136.097412 
C 389.524997 135.498445 388.712508 135.161901 387.86544 135.161901 
C 387.018372 135.161901 386.205884 135.498445 385.606916 136.097412 
C 385.007948 136.69638 384.671405 137.508868 384.671405 138.355936 
C 384.671405 139.203005 385.007948 140.015493 385.606916 140.614461 
C 386.205884 141.213428 387.018372 141.549972 387.86544 141.549972 
z
" clip-path="url(#p0212c77724)" style="fill: #06e1e9; stroke: #ffffff; stroke-width: 0.388373"/>
    <path d="M 386.386587 147.649766 
C 387.125842 147.649766 387.834918 147.356057 388.357651 146.833324 
C 388.880383 146.310592 389.174092 145.601516 389.174092 144.86226 
C 389.174092 144.123005 388.880383 143.413929 388.357651 142.891196 
C 387.834918 142.368464 387.125842 142.074755 386.386587 142.074755 
C 385.647332 142.074755 384.938255 142.368464 384.415523 142.891196 
C 383.89279 143.413929 383.599081 144.123005 383.599081 144.86226 
C 383.599081 145.601516 383.89279 146.310592 384.415523 146.833324 
C 384.938255 147.356057 385.647332 147.649766 386.386587 147.649766 
z
" clip-path="url(#p0212c77724)" style="fill: #06e1e9; stroke: #ffffff; stroke-width: 0.388373"/>
    <path d="M 389.419675 165.644841 
C 390.1263 165.644841 390.804078 165.364096 391.303737 164.864437 
C 391.803396 164.364778 392.084141 163.687 392.084141 162.980375 
C 392.084141 162.273751 391.803396 161.595972 391.303737 161.096313 
C 390.804078 160.596654 390.1263 160.315909 389.419675 160.315909 
C 388.713051 160.315909 388.035272 160.596654 387.535613 161.096313 
C 387.035954 161.595972 386.755209 162.273751 386.755209 162.980375 
C 386.755209 163.687 387.035954 164.364778 387.535613 164.864437 
C 388.035272 165.364096 388.713051 165.644841 389.419675 165.644841 
z
" clip-path="url(#p0212c77724)" style="fill: #06e1e9; stroke: #ffffff; stroke-width: 0.388373"/>
    <path d="M 393.659129 152.099939 
C 394.257275 152.099939 394.831004 151.862293 395.253957 151.439339 
C 395.676911 151.016386 395.914557 150.442657 395.914557 149.844511 
C 395.914557 149.246364 395.676911 148.672636 395.253957 148.249682 
C 394.831004 147.826729 394.257275 147.589083 393.659129 147.589083 
C 393.060982 147.589083 392.487253 147.826729 392.0643 148.249682 
C 391.641346 148.672636 391.4037 149.246364 391.4037 149.844511 
C 391.4037 150.442657 391.641346 151.016386 392.0643 151.439339 
C 392.487253 151.862293 393.060982 152.099939 393.659129 152.099939 
z
" clip-path="url(#p0212c77724)" style="fill: #06e1e9; stroke: #ffffff; stroke-width: 0.388373"/>
    <path d="M 393.810605 170.761373 
C 394.52964 170.761373 395.219321 170.475697 395.727755 169.967263 
C 396.23619 169.458829 396.521865 168.769147 396.521865 168.050113 
C 396.521865 167.331078 396.23619 166.641396 395.727755 166.132962 
C 395.219321 165.624528 394.52964 165.338853 393.810605 165.338853 
C 393.09157 165.338853 392.401889 165.624528 391.893455 166.132962 
C 391.38502 166.641396 391.099345 167.331078 391.099345 168.050113 
C 391.099345 168.769147 391.38502 169.458829 391.893455 169.967263 
C 392.401889 170.475697 393.09157 170.761373 393.810605 170.761373 
z
" clip-path="url(#p0212c77724)" style="fill: #06e1e9; stroke: #ffffff; stroke-width: 0.388373"/>
    <path d="M 389.477725 174.659221 
C 390.267134 174.659221 391.024316 174.345586 391.582511 173.78739 
C 392.140707 173.229194 392.454342 172.472012 392.454342 171.682604 
C 392.454342 170.893196 392.140707 170.136014 391.582511 169.577818 
C 391.024316 169.019622 390.267134 168.705987 389.477725 168.705987 
C 388.688317 168.705987 387.931135 169.019622 387.372939 169.577818 
C 386.814744 170.136014 386.501109 170.893196 386.501109 171.682604 
C 386.501109 172.472012 386.814744 173.229194 387.372939 173.78739 
C 387.931135 174.345586 388.688317 174.659221 389.477725 174.659221 
z
" clip-path="url(#p0212c77724)" style="fill: #06e1e9; stroke: #ffffff; stroke-width: 0.388373"/>
    <path d="M 392.458361 159.320972 
C 393.221173 159.320972 393.952845 159.017903 394.492235 158.478513 
C 395.031625 157.939124 395.334694 157.207451 395.334694 156.444639 
C 395.334694 155.681826 395.031625 154.950154 394.492235 154.410764 
C 393.952845 153.871374 393.221173 153.568306 392.458361 153.568306 
C 391.695548 153.568306 390.963876 153.871374 390.424486 154.410764 
C 389.885096 154.950154 389.582028 155.681826 389.582028 156.444639 
C 389.582028 157.207451 389.885096 157.939124 390.424486 158.478513 
C 390.963876 159.017903 391.695548 159.320972 392.458361 159.320972 
z
" clip-path="url(#p0212c77724)" style="fill: #06e1e9; stroke: #ffffff; stroke-width: 0.388373"/>
    <path d="M 389.032198 178.995593 
C 389.605165 178.995593 390.154743 178.767951 390.559892 178.362801 
C 390.965042 177.957652 391.192684 177.408074 391.192684 176.835107 
C 391.192684 176.262139 390.965042 175.712561 390.559892 175.307412 
C 390.154743 174.902263 389.605165 174.67462 389.032198 174.67462 
C 388.45923 174.67462 387.909652 174.902263 387.504503 175.307412 
C 387.099354 175.712561 386.871711 176.262139 386.871711 176.835107 
C 386.871711 177.408074 387.099354 177.957652 387.504503 178.362801 
C 387.909652 178.767951 388.45923 178.995593 389.032198 178.995593 
z
" clip-path="url(#p0212c77724)" style="fill: #06e1e9; stroke: #ffffff; stroke-width: 0.388373"/>
    <path d="M 390.87997 189.832936 
C 391.473166 189.832936 392.042147 189.597257 392.4616 189.177804 
C 392.881053 188.758351 393.116732 188.18937 393.116732 187.596174 
C 393.116732 187.002978 392.881053 186.433997 392.4616 186.014544 
C 392.042147 185.595091 391.473166 185.359412 390.87997 185.359412 
C 390.286774 185.359412 389.717793 185.595091 389.29834 186.014544 
C 388.878887 186.433997 388.643208 187.002978 388.643208 187.596174 
C 388.643208 188.18937 388.878887 188.758351 389.29834 189.177804 
C 389.717793 189.597257 390.286774 189.832936 390.87997 189.832936 
z
" clip-path="url(#p0212c77724)" style="fill: #06e1e9; stroke: #ffffff; stroke-width: 0.388373"/>
    <path d="M 308.276798 153.034479 
C 309.222551 153.034479 310.129696 152.658728 310.798444 151.98998 
C 311.467192 151.321231 311.842943 150.414087 311.842943 149.468334 
C 311.842943 148.522581 311.467192 147.615437 310.798444 146.946689 
C 310.129696 146.277941 309.222551 145.902189 308.276798 145.902189 
C 307.331046 145.902189 306.423901 146.277941 305.755153 146.946689 
C 305.086405 147.615437 304.710653 148.522581 304.710653 149.468334 
C 304.710653 150.414087 305.086405 151.321231 305.755153 151.98998 
C 306.423901 152.658728 307.331046 153.034479 308.276798 153.034479 
z
" clip-path="url(#p0212c77724)" style="fill: #06e1e9; stroke: #ffffff; stroke-width: 0.388373"/>
    <path d="M 306.963954 167.394825 
C 307.928233 167.394825 308.853146 167.011714 309.534994 166.329866 
C 310.216842 165.648018 310.599954 164.723104 310.599954 163.758825 
C 310.599954 162.794547 310.216842 161.869633 309.534994 161.187785 
C 308.853146 160.505937 307.928233 160.122825 306.963954 160.122825 
C 305.999676 160.122825 305.074762 160.505937 304.392914 161.187785 
C 303.711066 161.869633 303.327954 162.794547 303.327954 163.758825 
C 303.327954 164.723104 303.711066 165.648018 304.392914 166.329866 
C 305.074762 167.011714 305.999676 167.394825 306.963954 167.394825 
z
" clip-path="url(#p0212c77724)" style="fill: #06e1e9; stroke: #ffffff; stroke-width: 0.388373"/>
    <path d="M 307.335448 127.723206 
C 308.042073 127.723206 308.719851 127.442461 309.21951 126.942801 
C 309.719169 126.443142 309.999914 125.765364 309.999914 125.05874 
C 309.999914 124.352115 309.719169 123.674337 309.21951 123.174678 
C 308.719851 122.675019 308.042073 122.394274 307.335448 122.394274 
C 306.628824 122.394274 305.951045 122.675019 305.451386 123.174678 
C 304.951727 123.674337 304.670982 124.352115 304.670982 125.05874 
C 304.670982 125.765364 304.951727 126.443142 305.451386 126.942801 
C 305.951045 127.442461 306.628824 127.723206 307.335448 127.723206 
z
" clip-path="url(#p0212c77724)" style="fill: #06e1e9; stroke: #ffffff; stroke-width: 0.388373"/>
    <path d="M 305.103891 217.907506 
C 305.985083 217.907506 306.830302 217.557404 307.453399 216.934308 
C 308.076496 216.311211 308.426597 215.465992 308.426597 214.5848 
C 308.426597 213.703608 308.076496 212.858389 307.453399 212.235292 
C 306.830302 211.612196 305.985083 211.262094 305.103891 211.262094 
C 304.2227 211.262094 303.37748 211.612196 302.754384 212.235292 
C 302.131287 212.858389 301.781186 213.703608 301.781186 214.5848 
C 301.781186 215.465992 302.131287 216.311211 302.754384 216.934308 
C 303.37748 217.557404 304.2227 217.907506 305.103891 217.907506 
z
" clip-path="url(#p0212c77724)" style="fill: #06e1e9; stroke: #ffffff; stroke-width: 0.388373"/>
    <path d="M 304.487958 197.885998 
C 305.050539 197.885998 305.590153 197.662482 305.987958 197.264677 
C 306.385763 196.866873 306.609278 196.327258 306.609278 195.764677 
C 306.609278 195.202096 306.385763 194.662482 305.987958 194.264677 
C 305.590153 193.866873 305.050539 193.643357 304.487958 193.643357 
C 303.925377 193.643357 303.385763 193.866873 302.987958 194.264677 
C 302.590153 194.662482 302.366638 195.202096 302.366638 195.764677 
C 302.366638 196.327258 302.590153 196.866873 302.987958 197.264677 
C 303.385763 197.662482 303.925377 197.885998 304.487958 197.885998 
z
" clip-path="url(#p0212c77724)" style="fill: #06e1e9; stroke: #ffffff; stroke-width: 0.388373"/>
    <path d="M 305.605091 193.214458 
C 306.320013 193.214458 307.005749 192.930417 307.511276 192.424891 
C 308.016802 191.919365 308.300843 191.233628 308.300843 190.518706 
C 308.300843 189.803784 308.016802 189.118047 307.511276 188.612521 
C 307.005749 188.106995 306.320013 187.822954 305.605091 187.822954 
C 304.890169 187.822954 304.204432 188.106995 303.698906 188.612521 
C 303.19338 189.118047 302.909338 189.803784 302.909338 190.518706 
C 302.909338 191.233628 303.19338 191.919365 303.698906 192.424891 
C 304.204432 192.930417 304.890169 193.214458 305.605091 193.214458 
z
" clip-path="url(#p0212c77724)" style="fill: #06e1e9; stroke: #ffffff; stroke-width: 0.388373"/>
    <path d="M 306.344479 165.305313 
C 307.191547 165.305313 308.004036 164.968769 308.603003 164.369802 
C 309.201971 163.770834 309.538515 162.958346 309.538515 162.111277 
C 309.538515 161.264209 309.201971 160.451721 308.603003 159.852753 
C 308.004036 159.253786 307.191547 158.917242 306.344479 158.917242 
C 305.497411 158.917242 304.684923 159.253786 304.085955 159.852753 
C 303.486987 160.451721 303.150444 161.264209 303.150444 162.111277 
C 303.150444 162.958346 303.486987 163.770834 304.085955 164.369802 
C 304.684923 164.968769 305.497411 165.305313 306.344479 165.305313 
z
" clip-path="url(#p0212c77724)" style="fill: #06e1e9; stroke: #ffffff; stroke-width: 0.388373"/>
    <path d="M 304.733728 130.098705 
C 305.556067 130.098705 306.344837 129.771986 306.926319 129.190505 
C 307.5078 128.609023 307.834519 127.820254 307.834519 126.997914 
C 307.834519 126.175575 307.5078 125.386805 306.926319 124.805324 
C 306.344837 124.223842 305.556067 123.897123 304.733728 123.897123 
C 303.911389 123.897123 303.122619 124.223842 302.541137 124.805324 
C 301.959656 125.386805 301.632937 126.175575 301.632937 126.997914 
C 301.632937 127.820254 301.959656 128.609023 302.541137 129.190505 
C 303.122619 129.771986 303.911389 130.098705 304.733728 130.098705 
z
" clip-path="url(#p0212c77724)" style="fill: #06e1e9; stroke: #ffffff; stroke-width: 0.388373"/>
    <path d="M 301.899848 157.928081 
C 302.580975 157.928081 303.234296 157.657466 303.715925 157.175837 
C 304.197554 156.694207 304.468169 156.040886 304.468169 155.359759 
C 304.468169 154.678633 304.197554 154.025312 303.715925 153.543682 
C 303.234296 153.062053 302.580975 152.791438 301.899848 152.791438 
C 301.218721 152.791438 300.5654 153.062053 300.083771 153.543682 
C 299.602141 154.025312 299.331527 154.678633 299.331527 155.359759 
C 299.331527 156.040886 299.602141 156.694207 300.083771 157.175837 
C 300.5654 157.657466 301.218721 157.928081 301.899848 157.928081 
z
" clip-path="url(#p0212c77724)" style="fill: #06e1e9; stroke: #ffffff; stroke-width: 0.388373"/>
   </g>
   <g id="PathCollection_10"/>
   <g id="PathCollection_11"/>
   <g id="PathCollection_12"/>
   <g id="PathCollection_13"/>
   <g id="PathCollection_14"/>
   <g id="PathCollection_15"/>
   <g id="PathCollection_16"/>
   <g id="PathCollection_17"/>
   <g id="matplotlib.axis_3">
    <g id="xtick_3">
     <g id="line2d_22">
      <g>
       <use xlink:href="#ma0f3146efe" x="295.646235" y="222.1238" style="stroke: #000000; stroke-width: 0.8"/>
      </g>
     </g>
     <g id="text_17">
      <text style="font: 8px 'Arial', sans-serif; text-anchor: middle" x="295.646235" y="234.85005" transform="rotate(-0 295.646235 234.85005)">Male</text>
     </g>
    </g>
    <g id="xtick_4">
     <g id="line2d_23">
      <g>
       <use xlink:href="#ma0f3146efe" x="380.057515" y="222.1238" style="stroke: #000000; stroke-width: 0.8"/>
      </g>
     </g>
     <g id="text_18">
      <text style="font: 8px 'Arial', sans-serif; text-anchor: middle" x="380.057515" y="234.85005" transform="rotate(-0 380.057515 234.85005)">Female</text>
     </g>
    </g>
   </g>
   <g id="matplotlib.axis_4">
    <g id="ytick_8">
     <g id="line2d_24">
      <g>
       <use xlink:href="#m2b0e4fe8af" x="251.330313" y="202.970464" style="stroke: #000000; stroke-width: 0.8"/>
      </g>
     </g>
     <g id="text_19">
      <text style="font: 6px 'Arial', sans-serif; text-anchor: end" x="244.330313" y="205.117808" transform="rotate(-0 244.330313 205.117808)">0.4</text>
     </g>
    </g>
    <g id="ytick_9">
     <g id="line2d_25">
      <g>
       <use xlink:href="#m2b0e4fe8af" x="251.330313" y="174.701608" style="stroke: #000000; stroke-width: 0.8"/>
      </g>
     </g>
     <g id="text_20">
      <text style="font: 6px 'Arial', sans-serif; text-anchor: end" x="244.330313" y="176.848952" transform="rotate(-0 244.330313 176.848952)">0.6</text>
     </g>
    </g>
    <g id="ytick_10">
     <g id="line2d_26">
      <g>
       <use xlink:href="#m2b0e4fe8af" x="251.330313" y="146.432752" style="stroke: #000000; stroke-width: 0.8"/>
      </g>
     </g>
     <g id="text_21">
      <text style="font: 6px 'Arial', sans-serif; text-anchor: end" x="244.330313" y="148.580096" transform="rotate(-0 244.330313 148.580096)">0.8</text>
     </g>
    </g>
    <g id="ytick_11">
     <g id="line2d_27">
      <g>
       <use xlink:href="#m2b0e4fe8af" x="251.330313" y="118.163897" style="stroke: #000000; stroke-width: 0.8"/>
      </g>
     </g>
     <g id="text_22">
      <text style="font: 6px 'Arial', sans-serif; text-anchor: end" x="244.330313" y="120.31124" transform="rotate(-0 244.330313 120.31124)">1.0</text>
     </g>
    </g>
    <g id="ytick_12">
     <g id="line2d_28">
      <g>
       <use xlink:href="#m2b0e4fe8af" x="251.330313" y="89.895041" style="stroke: #000000; stroke-width: 0.8"/>
      </g>
     </g>
     <g id="text_23">
      <text style="font: 6px 'Arial', sans-serif; text-anchor: end" x="244.330313" y="92.042385" transform="rotate(-0 244.330313 92.042385)">1.2</text>
     </g>
    </g>
    <g id="ytick_13">
     <g id="line2d_29">
      <g>
       <use xlink:href="#m2b0e4fe8af" x="251.330313" y="61.626185" style="stroke: #000000; stroke-width: 0.8"/>
      </g>
     </g>
     <g id="text_24">
      <text style="font: 6px 'Arial', sans-serif; text-anchor: end" x="244.330313" y="63.773529" transform="rotate(-0 244.330313 63.773529)">1.4</text>
     </g>
    </g>
    <g id="text_25">
     <text style="font: 8px 'Arial', sans-serif; text-anchor: middle" x="230.400313" y="139.1948" transform="rotate(-90 230.400313 139.1948)">Burst Preference Index</text>
    </g>
   </g>
   <g id="line2d_30">
    <path d="M 366.344002 170.532014 
L 374.78513 170.532014 
" clip-path="url(#p0212c77724)" style="fill: none; stroke: #000000; stroke-opacity: 0.5; stroke-width: 1.5; stroke-linecap: square"/>
   </g>
   <g id="line2d_31">
    <path d="M 281.213863 156.041929 
L 289.654991 156.041929 
" clip-path="url(#p0212c77724)" style="fill: none; stroke: #000000; stroke-opacity: 0.5; stroke-width: 1.5; stroke-linecap: square"/>
   </g>
   <g id="line2d_32">
    <path d="M 386.111624 159.635031 
L 394.552752 159.635031 
" clip-path="url(#p0212c77724)" style="fill: none; stroke: #000000; stroke-opacity: 0.5; stroke-width: 1.5; stroke-linecap: square"/>
   </g>
   <g id="line2d_33">
    <path d="M 301.418458 163.9494 
L 309.859586 163.9494 
" clip-path="url(#p0212c77724)" style="fill: none; stroke: #000000; stroke-opacity: 0.5; stroke-width: 1.5; stroke-linecap: square"/>
   </g>
   <g id="line2d_34">
    <path d="M 306.197645 70.553192 
L 306.197645 63.8048 
L 390.608925 63.8048 
L 390.608925 70.553192 
" clip-path="url(#p0212c77724)" style="fill: none; stroke: #000000; stroke-width: 0.5; stroke-linecap: square"/>
   </g>
   <g id="line2d_35">
    <path d="M 285.094825 90.798369 
L 285.094825 84.049977 
L 369.506105 84.049977 
L 369.506105 90.798369 
" clip-path="url(#p0212c77724)" style="fill: none; stroke: #000000; stroke-width: 0.5; stroke-linecap: square"/>
   </g>
   <g id="line2d_36">
    <path d="M 369.506105 111.043546 
L 369.506105 104.295154 
L 390.608925 104.295154 
L 390.608925 111.043546 
" clip-path="url(#p0212c77724)" style="fill: none; stroke: #000000; stroke-width: 0.5; stroke-linecap: square"/>
   </g>
   <g id="line2d_37">
    <path d="M 285.094825 111.043546 
L 285.094825 104.295154 
L 306.197645 104.295154 
L 306.197645 111.043546 
" clip-path="url(#p0212c77724)" style="fill: none; stroke: #000000; stroke-width: 0.5; stroke-linecap: square"/>
   </g>
   <g id="patch_10">
    <path d="M 251.330313 222.1238 
L 251.330313 56.2658 
" style="fill: none; stroke: #000000; stroke-width: 0.8; stroke-linejoin: miter; stroke-linecap: square"/>
   </g>
   <g id="patch_11">
    <path d="M 251.330312 222.1238 
L 424.373437 222.1238 
" style="fill: none; stroke: #000000; stroke-width: 0.8; stroke-linejoin: miter; stroke-linecap: square"/>
   </g>
   <g id="text_26">
    <text style="font: 8px 'Arial', sans-serif; text-anchor: middle" x="348.403285" y="62.2148" transform="rotate(-0 348.403285 62.2148)">ns</text>
   </g>
   <g id="text_27">
    <text style="font: 8px 'Arial', sans-serif; text-anchor: middle" x="327.300465" y="82.459977" transform="rotate(-0 327.300465 82.459977)">****</text>
   </g>
   <g id="text_28">
    <text style="font: 8px 'Arial', sans-serif; text-anchor: middle" x="380.057515" y="102.705154" transform="rotate(-0 380.057515 102.705154)">**</text>
   </g>
   <g id="text_29">
    <text style="font: 8px 'Arial', sans-serif; text-anchor: middle" x="295.646235" y="102.705154" transform="rotate(-0 295.646235 102.705154)">**</text>
   </g>
   <g id="legend_2">
    <g id="text_30">
     <text style="font: 8px 'Arial', sans-serif; text-anchor: start" x="453.973437" y="69.19205" transform="rotate(-0 453.973437 69.19205)">Strain</text>
    </g>
    <g id="PathCollection_18">
     <defs>
      <path id="mb8ee098066" d="M 0 3 
C 0.795609 3 1.55874 2.683901 2.12132 2.12132 
C 2.683901 1.55874 3 0.795609 3 0 
C 3 -0.795609 2.683901 -1.55874 2.12132 -2.12132 
C 1.55874 -2.683901 0.795609 -3 0 -3 
C -0.795609 -3 -1.55874 -2.683901 -2.12132 -2.12132 
C -2.683901 -1.55874 -3 -0.795609 -3 0 
C -3 0.795609 -2.683901 1.55874 -2.12132 2.12132 
C -1.55874 2.683901 -0.795609 3 0 3 
z
" style="stroke: #d4d4d4"/>
     </defs>
     <g>
      <use xlink:href="#mb8ee098066" x="439.573437" y="80.04205" style="fill: #d4d4d4; stroke: #d4d4d4"/>
     </g>
    </g>
    <g id="text_31">
     <!-- $AgRP^{TdTomato}$ -->
     <g transform="translate(453.973437 82.14205)">
      <text>
       <tspan style="font: oblique 8px 'DejaVu Sans'" x="0 5.472656 10.550781 16.109375" y="-0.6828125000000007">AgRP</tspan>
       <tspan style="font: oblique 5.6px 'DejaVu Sans'" x="21.494323 24.915026 28.469714 31.890417 35.316589 40.771667 44.203307 46.39901" y="-3.7453125000000007">TdTomato</tspan>
      </text>
     </g>
    </g>
    <g id="PathCollection_19">
     <defs>
      <path id="m24f9c10474" d="M 0 3 
C 0.795609 3 1.55874 2.683901 2.12132 2.12132 
C 2.683901 1.55874 3 0.795609 3 0 
C 3 -0.795609 2.683901 -1.55874 2.12132 -2.12132 
C 1.55874 -2.683901 0.795609 -3 0 -3 
C -0.795609 -3 -1.55874 -2.683901 -2.12132 -2.12132 
C -2.683901 -1.55874 -3 -0.795609 -3 0 
C -3 0.795609 -2.683901 1.55874 -2.12132 2.12132 
C -1.55874 2.683901 -0.795609 3 0 3 
z
" style="stroke: #06e1e9"/>
     </defs>
     <g>
      <use xlink:href="#m24f9c10474" x="439.573437" y="93.08205" style="fill: #06e1e9; stroke: #06e1e9"/>
     </g>
    </g>
    <g id="text_32">
     <!-- $AgRP^{Chr2}$ -->
     <g transform="translate(453.973437 95.18205)">
      <text>
       <tspan style="font: oblique 8px 'DejaVu Sans'" x="0 5.472656 10.550781 16.109375" y="-0.6828125000000007">AgRP</tspan>
       <tspan style="font: oblique 5.6px 'DejaVu Sans'" x="21.494323 25.404479 28.953698" y="-3.7453125000000007">Chr</tspan>
       <tspan style="font: 5.6px 'DejaVu Sans'" x="31.256042" y="-3.7453125000000007">2</tspan>
      </text>
     </g>
    </g>
    <g id="text_33">
     <text style="font: 8px 'Arial', sans-serif; text-anchor: start" x="453.973437" y="106.5883" transform="rotate(-0 453.973437 106.5883)">Total Lick Bursts</text>
    </g>
    <g id="PathCollection_20">
     <defs>
      <path id="me155cc26ba" d="M 0 2.292304 
C 0.607926 2.292304 1.191035 2.050773 1.620904 1.620904 
C 2.050773 1.191035 2.292304 0.607926 2.292304 0 
C 2.292304 -0.607926 2.050773 -1.191035 1.620904 -1.620904 
C 1.191035 -2.050773 0.607926 -2.292304 0 -2.292304 
C -0.607926 -2.292304 -1.191035 -2.050773 -1.620904 -1.620904 
C -2.050773 -1.191035 -2.292304 -0.607926 -2.292304 0 
C -2.292304 0.607926 -2.050773 1.191035 -1.620904 1.620904 
C -1.191035 2.050773 -0.607926 2.292304 0 2.292304 
z
" style="stroke: #333333"/>
     </defs>
     <g>
      <use xlink:href="#me155cc26ba" x="439.573437" y="115.80455" style="fill: #333333; stroke: #333333"/>
     </g>
    </g>
    <g id="text_34">
     <text style="font: 8px 'Arial', sans-serif; text-anchor: start" x="453.973437" y="117.90455" transform="rotate(-0 453.973437 117.90455)">60</text>
    </g>
    <g id="PathCollection_21">
     <defs>
      <path id="me2c1ba692d" d="M 0 2.787505 
C 0.739255 2.787505 1.448332 2.493796 1.971064 1.971064 
C 2.493796 1.448332 2.787505 0.739255 2.787505 0 
C 2.787505 -0.739255 2.493796 -1.448332 1.971064 -1.971064 
C 1.448332 -2.493796 0.739255 -2.787505 0 -2.787505 
C -0.739255 -2.787505 -1.448332 -2.493796 -1.971064 -1.971064 
C -2.493796 -1.448332 -2.787505 -0.739255 -2.787505 0 
C -2.787505 0.739255 -2.493796 1.448332 -1.971064 1.971064 
C -1.448332 2.493796 -0.739255 2.787505 0 2.787505 
z
" style="stroke: #333333"/>
     </defs>
     <g>
      <use xlink:href="#me2c1ba692d" x="439.573437" y="127.1208" style="fill: #333333; stroke: #333333"/>
     </g>
    </g>
    <g id="text_35">
     <text style="font: 8px 'Arial', sans-serif; text-anchor: start" x="453.973437" y="129.2208" transform="rotate(-0 453.973437 129.2208)">90</text>
    </g>
    <g id="PathCollection_22">
     <defs>
      <path id="m9a5eff3f29" d="M 0 3.207135 
C 0.850542 3.207135 1.666363 2.869211 2.267787 2.267787 
C 2.869211 1.666363 3.207135 0.850542 3.207135 0 
C 3.207135 -0.850542 2.869211 -1.666363 2.267787 -2.267787 
C 1.666363 -2.869211 0.850542 -3.207135 0 -3.207135 
C -0.850542 -3.207135 -1.666363 -2.869211 -2.267787 -2.267787 
C -2.869211 -1.666363 -3.207135 -0.850542 -3.207135 0 
C -3.207135 0.850542 -2.869211 1.666363 -2.267787 2.267787 
C -1.666363 2.869211 -0.850542 3.207135 0 3.207135 
z
" style="stroke: #333333"/>
     </defs>
     <g>
      <use xlink:href="#m9a5eff3f29" x="439.573437" y="138.43705" style="fill: #333333; stroke: #333333"/>
     </g>
    </g>
    <g id="text_36">
     <text style="font: 8px 'Arial', sans-serif; text-anchor: start" x="453.973437" y="140.53705" transform="rotate(-0 453.973437 140.53705)">120</text>
    </g>
    <g id="PathCollection_23">
     <defs>
      <path id="m8150aecb53" d="M 0 3.577882 
C 0.948865 3.577882 1.858996 3.200894 2.529945 2.529945 
C 3.200894 1.858996 3.577882 0.948865 3.577882 0 
C 3.577882 -0.948865 3.200894 -1.858996 2.529945 -2.529945 
C 1.858996 -3.200894 0.948865 -3.577882 0 -3.577882 
C -0.948865 -3.577882 -1.858996 -3.200894 -2.529945 -2.529945 
C -3.200894 -1.858996 -3.577882 -0.948865 -3.577882 0 
C -3.577882 0.948865 -3.200894 1.858996 -2.529945 2.529945 
C -1.858996 3.200894 -0.948865 3.577882 0 3.577882 
z
" style="stroke: #333333"/>
     </defs>
     <g>
      <use xlink:href="#m8150aecb53" x="439.573437" y="149.7533" style="fill: #333333; stroke: #333333"/>
     </g>
    </g>
    <g id="text_37">
     <text style="font: 8px 'Arial', sans-serif; text-anchor: start" x="453.973437" y="151.8533" transform="rotate(-0 453.973437 151.8533)">150</text>
    </g>
    <g id="PathCollection_24">
     <defs>
      <path id="mec3449d3df" d="M 0 3.913665 
C 1.037916 3.913665 2.033461 3.501296 2.767379 2.767379 
C 3.501296 2.033461 3.913665 1.037916 3.913665 0 
C 3.913665 -1.037916 3.501296 -2.033461 2.767379 -2.767379 
C 2.033461 -3.501296 1.037916 -3.913665 0 -3.913665 
C -1.037916 -3.913665 -2.033461 -3.501296 -2.767379 -2.767379 
C -3.501296 -2.033461 -3.913665 -1.037916 -3.913665 0 
C -3.913665 1.037916 -3.501296 2.033461 -2.767379 2.767379 
C -2.033461 3.501296 -1.037916 3.913665 0 3.913665 
z
" style="stroke: #333333"/>
     </defs>
     <g>
      <use xlink:href="#mec3449d3df" x="439.573437" y="161.06955" style="fill: #333333; stroke: #333333"/>
     </g>
    </g>
    <g id="text_38">
     <text style="font: 8px 'Arial', sans-serif; text-anchor: start" x="453.973437" y="163.16955" transform="rotate(-0 453.973437 163.16955)">180</text>
    </g>
    <g id="PathCollection_25">
     <defs>
      <path id="m30d8689cf3" d="M 0 4.222831 
C 1.119908 4.222831 2.194098 3.777887 2.985992 2.985992 
C 3.777887 2.194098 4.222831 1.119908 4.222831 0 
C 4.222831 -1.119908 3.777887 -2.194098 2.985992 -2.985992 
C 2.194098 -3.777887 1.119908 -4.222831 0 -4.222831 
C -1.119908 -4.222831 -2.194098 -3.777887 -2.985992 -2.985992 
C -3.777887 -2.194098 -4.222831 -1.119908 -4.222831 0 
C -4.222831 1.119908 -3.777887 2.194098 -2.985992 2.985992 
C -2.194098 3.777887 -1.119908 4.222831 0 4.222831 
z
" style="stroke: #333333"/>
     </defs>
     <g>
      <use xlink:href="#m30d8689cf3" x="439.573437" y="172.3858" style="fill: #333333; stroke: #333333"/>
     </g>
    </g>
    <g id="text_39">
     <text style="font: 8px 'Arial', sans-serif; text-anchor: start" x="453.973437" y="174.4858" transform="rotate(-0 453.973437 174.4858)">210</text>
    </g>
   </g>
  </g>
 </g>
 <defs>
  <clipPath id="p3e344d6d63">
   <rect x="35.717188" y="56.2658" width="173.043125" height="165.858"/>
  </clipPath>
  <clipPath id="p0212c77724">
   <rect x="251.330313" y="56.2658" width="173.043125" height="165.858"/>
  </clipPath>
 </defs>
</svg>
