<?xml version="1.0" encoding="utf-8" standalone="no"?>
<!DOCTYPE svg PUBLIC "-//W3C//DTD SVG 1.1//EN"
  "http://www.w3.org/Graphics/SVG/1.1/DTD/svg11.dtd">
<svg xmlns:xlink="http://www.w3.org/1999/xlink" width="522.609687pt" height="243.64005pt" viewBox="0 0 522.609687 243.64005" xmlns="http://www.w3.org/2000/svg" version="1.1">
 <metadata>
  <rdf:RDF xmlns:dc="http://purl.org/dc/elements/1.1/" xmlns:cc="http://creativecommons.org/ns#" xmlns:rdf="http://www.w3.org/1999/02/22-rdf-syntax-ns#">
   <cc:Work>
    <dc:type rdf:resource="http://purl.org/dc/dcmitype/StillImage"/>
    <dc:date>2023-08-21T20:26:47.150525</dc:date>
    <dc:format>image/svg+xml</dc:format>
    <dc:creator>
     <cc:Agent>
      <dc:title>Matplotlib v3.6.2, https://matplotlib.org/</dc:title>
     </cc:Agent>
    </dc:creator>
   </cc:Work>
  </rdf:RDF>
 </metadata>
 <defs>
  <style type="text/css">*{stroke-linejoin: round; stroke-linecap: butt}</style>
 </defs>
 <g id="figure_1">
  <g id="patch_1">
   <path d="M 0 243.64005 
L 522.609687 243.64005 
L 522.609687 0 
L 0 0 
L 0 243.64005 
z
" style="fill: none"/>
  </g>
  <g id="axes_1">
   <g id="patch_2">
    <path d="M 35.717188 222.1238 
L 208.760312 222.1238 
L 208.760312 56.2658 
L 35.717188 56.2658 
L 35.717188 222.1238 
z
" style="fill: none"/>
   </g>
   <g id="patch_3">
    <path d="M 78.977969 217.335479 
L 78.977969 217.335479 
L 78.977969 217.335479 
L 78.977969 217.335479 
z
" clip-path="url(#p9529b4d4fe)" style="fill: #d4d4d4"/>
   </g>
   <g id="PolyCollection_1">
    <defs>
     <path id="m91f4928754" d="M 62.334613 -45.805779 
L 61.0127 -45.805779 
L 60.876303 -46.945477 
L 60.71797 -48.085176 
L 60.535524 -49.224874 
L 60.326831 -50.364572 
L 60.089856 -51.504271 
L 59.822718 -52.643969 
L 59.523751 -53.783667 
L 59.191567 -54.923366 
L 58.825109 -56.063064 
L 58.42371 -57.202762 
L 57.987139 -58.342461 
L 57.515644 -59.482159 
L 57.009983 -60.621857 
L 56.471445 -61.761556 
L 55.901862 -62.901254 
L 55.303606 -64.040952 
L 54.679582 -65.180651 
L 54.033202 -66.320349 
L 53.368361 -67.460047 
L 52.689403 -68.599746 
L 52.001075 -69.739444 
L 51.308487 -70.879142 
L 50.617065 -72.018841 
L 49.932502 -73.158539 
L 49.260708 -74.298237 
L 48.607756 -75.437936 
L 47.979828 -76.577634 
L 47.383154 -77.717332 
L 46.823944 -78.857031 
L 46.308315 -79.996729 
L 45.842203 -81.136428 
L 45.431271 -82.276126 
L 45.080804 -83.415824 
L 44.79559 -84.555523 
L 44.579803 -85.695221 
L 44.436868 -86.834919 
L 44.369344 -87.974618 
L 44.378795 -89.114316 
L 44.465684 -90.254014 
L 44.629286 -91.393713 
L 44.867614 -92.533411 
L 45.177392 -93.673109 
L 45.554053 -94.812808 
L 45.991783 -95.952506 
L 46.483599 -97.092204 
L 47.021481 -98.231903 
L 47.596532 -99.371601 
L 48.199184 -100.511299 
L 48.819426 -101.650998 
L 49.447059 -102.790696 
L 50.071965 -103.930394 
L 50.684377 -105.070093 
L 51.275147 -106.209791 
L 51.83599 -107.349489 
L 52.359714 -108.489188 
L 52.8404 -109.628886 
L 53.273555 -110.768584 
L 53.656208 -111.908283 
L 53.986961 -113.047981 
L 54.265979 -114.187679 
L 54.494942 -115.327378 
L 54.676937 -116.467076 
L 54.816306 -117.606774 
L 54.918461 -118.746473 
L 54.989665 -119.886171 
L 55.036791 -121.025869 
L 55.067066 -122.165568 
L 55.087818 -123.305266 
L 55.10622 -124.444964 
L 55.12906 -125.584663 
L 55.162528 -126.724361 
L 55.212036 -127.864059 
L 55.282074 -129.003758 
L 55.376106 -130.143456 
L 55.496516 -131.283154 
L 55.644581 -132.422853 
L 55.820503 -133.562551 
L 56.023467 -134.702249 
L 56.251741 -135.841948 
L 56.502792 -136.981646 
L 56.773436 -138.121345 
L 57.059991 -139.261043 
L 57.358442 -140.400741 
L 57.664602 -141.54044 
L 57.974265 -142.680138 
L 58.283349 -143.819836 
L 58.588015 -144.959535 
L 58.884772 -146.099233 
L 59.170553 -147.238931 
L 59.442769 -148.37863 
L 59.699341 -149.518328 
L 59.938707 -150.658026 
L 60.159814 -151.797725 
L 60.362085 -152.937423 
L 60.54538 -154.077121 
L 60.709947 -155.21682 
L 60.856359 -156.356518 
L 60.985457 -157.496216 
L 61.098291 -158.635915 
L 62.249022 -158.635915 
L 62.249022 -158.635915 
L 62.361855 -157.496216 
L 62.490954 -156.356518 
L 62.637366 -155.21682 
L 62.801932 -154.077121 
L 62.985228 -152.937423 
L 63.187498 -151.797725 
L 63.408605 -150.658026 
L 63.647972 -149.518328 
L 63.904544 -148.37863 
L 64.17676 -147.238931 
L 64.46254 -146.099233 
L 64.759297 -144.959535 
L 65.063963 -143.819836 
L 65.373047 -142.680138 
L 65.682711 -141.54044 
L 65.988871 -140.400741 
L 66.287322 -139.261043 
L 66.573877 -138.121345 
L 66.84452 -136.981646 
L 67.095572 -135.841948 
L 67.323845 -134.702249 
L 67.52681 -133.562551 
L 67.702732 -132.422853 
L 67.850797 -131.283154 
L 67.971206 -130.143456 
L 68.065239 -129.003758 
L 68.135276 -127.864059 
L 68.184784 -126.724361 
L 68.218252 -125.584663 
L 68.241093 -124.444964 
L 68.259495 -123.305266 
L 68.280246 -122.165568 
L 68.310522 -121.025869 
L 68.357648 -119.886171 
L 68.428852 -118.746473 
L 68.531007 -117.606774 
L 68.670376 -116.467076 
L 68.85237 -115.327378 
L 69.081334 -114.187679 
L 69.360352 -113.047981 
L 69.691104 -111.908283 
L 70.073758 -110.768584 
L 70.506913 -109.628886 
L 70.987599 -108.489188 
L 71.511322 -107.349489 
L 72.072166 -106.209791 
L 72.662935 -105.070093 
L 73.275347 -103.930394 
L 73.900253 -102.790696 
L 74.527886 -101.650998 
L 75.148128 -100.511299 
L 75.75078 -99.371601 
L 76.325832 -98.231903 
L 76.863714 -97.092204 
L 77.35553 -95.952506 
L 77.793259 -94.812808 
L 78.169921 -93.673109 
L 78.479699 -92.533411 
L 78.718027 -91.393713 
L 78.881628 -90.254014 
L 78.968518 -89.114316 
L 78.977969 -87.974618 
L 78.910444 -86.834919 
L 78.76751 -85.695221 
L 78.551722 -84.555523 
L 78.266509 -83.415824 
L 77.916042 -82.276126 
L 77.50511 -81.136428 
L 77.038998 -79.996729 
L 76.523368 -78.857031 
L 75.964158 -77.717332 
L 75.367484 -76.577634 
L 74.739557 -75.437936 
L 74.086605 -74.298237 
L 73.41481 -73.158539 
L 72.730247 -72.018841 
L 72.038826 -70.879142 
L 71.346238 -69.739444 
L 70.657909 -68.599746 
L 69.978951 -67.460047 
L 69.314111 -66.320349 
L 68.667731 -65.180651 
L 68.043706 -64.040952 
L 67.445451 -62.901254 
L 66.875868 -61.761556 
L 66.33733 -60.621857 
L 65.831669 -59.482159 
L 65.360174 -58.342461 
L 64.923603 -57.202762 
L 64.522203 -56.063064 
L 64.155745 -54.923366 
L 63.823561 -53.783667 
L 63.524595 -52.643969 
L 63.257457 -51.504271 
L 63.020481 -50.364572 
L 62.811788 -49.224874 
L 62.629342 -48.085176 
L 62.471009 -46.945477 
L 62.334613 -45.805779 
z
"/>
    </defs>
    <g clip-path="url(#p9529b4d4fe)">
     <use xlink:href="#m91f4928754" x="0" y="243.64005" style="fill: #d4d4d4"/>
    </g>
   </g>
   <g id="patch_4">
    <path d="M 78.977969 217.335479 
L 78.977969 217.335479 
L 78.977969 217.335479 
L 78.977969 217.335479 
z
" clip-path="url(#p9529b4d4fe)" style="fill: #11d6de"/>
   </g>
   <g id="PolyCollection_2">
    <defs>
     <path id="ma6ad40b72b" d="M 96.811325 -29.05525 
L 95.753238 -29.05525 
L 95.648814 -30.038939 
L 95.528619 -31.022627 
L 95.391251 -32.006316 
L 95.235352 -32.990004 
L 95.059635 -33.973693 
L 94.862913 -34.957382 
L 94.644129 -35.94107 
L 94.402381 -36.924759 
L 94.136942 -37.908448 
L 93.84729 -38.892136 
L 93.533117 -39.875825 
L 93.194352 -40.859513 
L 92.831167 -41.843202 
L 92.443994 -42.826891 
L 92.033532 -43.810579 
L 91.600754 -44.794268 
L 91.146919 -45.777957 
L 90.673576 -46.761645 
L 90.182577 -47.745334 
L 89.676078 -48.729022 
L 89.156545 -49.712711 
L 88.626758 -50.6964 
L 88.089798 -51.680088 
L 87.549037 -52.663777 
L 87.008106 -53.647466 
L 86.47086 -54.631154 
L 85.941317 -55.614843 
L 85.423593 -56.598531 
L 84.921809 -57.58222 
L 84.439994 -58.565909 
L 83.981975 -59.549597 
L 83.551257 -60.533286 
L 83.150914 -61.516975 
L 82.783471 -62.500663 
L 82.450814 -63.484352 
L 82.154111 -64.46804 
L 81.893767 -65.451729 
L 81.669399 -66.435418 
L 81.479861 -67.419106 
L 81.323292 -68.402795 
L 81.1972 -69.386483 
L 81.098584 -70.370172 
L 81.02407 -71.353861 
L 80.970076 -72.337549 
L 80.932973 -73.321238 
L 80.909255 -74.304927 
L 80.895693 -75.288615 
L 80.889476 -76.272304 
L 80.888317 -77.255992 
L 80.890538 -78.239681 
L 80.895115 -79.22337 
L 80.901693 -80.207058 
L 80.910562 -81.190747 
L 80.922611 -82.174436 
L 80.939255 -83.158124 
L 80.962347 -84.141813 
L 80.994076 -85.125501 
L 81.036861 -86.10919 
L 81.093258 -87.092879 
L 81.165858 -88.076567 
L 81.257204 -89.060256 
L 81.369723 -90.043945 
L 81.505665 -91.027633 
L 81.667051 -92.011322 
L 81.855641 -92.99501 
L 82.072902 -93.978699 
L 82.319976 -94.962388 
L 82.597664 -95.946076 
L 82.906399 -96.929765 
L 83.24622 -97.913454 
L 83.616757 -98.897142 
L 84.017203 -99.880831 
L 84.446296 -100.864519 
L 84.902312 -101.848208 
L 85.383057 -102.831897 
L 85.88588 -103.815585 
L 86.40769 -104.799274 
L 86.945 -105.782963 
L 87.493976 -106.766651 
L 88.05051 -107.75034 
L 88.610301 -108.734028 
L 89.16895 -109.717717 
L 89.72206 -110.701406 
L 90.265341 -111.685094 
L 90.79471 -112.668783 
L 91.306389 -113.652471 
L 91.796987 -114.63616 
L 92.26357 -115.619849 
L 92.703719 -116.603537 
L 93.115557 -117.587226 
L 93.49777 -118.570915 
L 93.8496 -119.554603 
L 94.170821 -120.538292 
L 94.461707 -121.52198 
L 94.722976 -122.505669 
L 94.955733 -123.489358 
L 95.161402 -124.473046 
L 95.341659 -125.456735 
L 95.498364 -126.440424 
L 97.066199 -126.440424 
L 97.066199 -126.440424 
L 97.222903 -125.456735 
L 97.403161 -124.473046 
L 97.60883 -123.489358 
L 97.841586 -122.505669 
L 98.102855 -121.52198 
L 98.393741 -120.538292 
L 98.714963 -119.554603 
L 99.066792 -118.570915 
L 99.449006 -117.587226 
L 99.860844 -116.603537 
L 100.300992 -115.619849 
L 100.767576 -114.63616 
L 101.258173 -113.652471 
L 101.769852 -112.668783 
L 102.299221 -111.685094 
L 102.842502 -110.701406 
L 103.395613 -109.717717 
L 103.954262 -108.734028 
L 104.514053 -107.75034 
L 105.070587 -106.766651 
L 105.619563 -105.782963 
L 106.156872 -104.799274 
L 106.678683 -103.815585 
L 107.181505 -102.831897 
L 107.662251 -101.848208 
L 108.118267 -100.864519 
L 108.54736 -99.880831 
L 108.947805 -98.897142 
L 109.318342 -97.913454 
L 109.658164 -96.929765 
L 109.966898 -95.946076 
L 110.244586 -94.962388 
L 110.491661 -93.978699 
L 110.708921 -92.99501 
L 110.897512 -92.011322 
L 111.058898 -91.027633 
L 111.194839 -90.043945 
L 111.307358 -89.060256 
L 111.398705 -88.076567 
L 111.471304 -87.092879 
L 111.527701 -86.10919 
L 111.570487 -85.125501 
L 111.602215 -84.141813 
L 111.625307 -83.158124 
L 111.641952 -82.174436 
L 111.654001 -81.190747 
L 111.66287 -80.207058 
L 111.669447 -79.22337 
L 111.674025 -78.239681 
L 111.676246 -77.255992 
L 111.675086 -76.272304 
L 111.668869 -75.288615 
L 111.655308 -74.304927 
L 111.63159 -73.321238 
L 111.594487 -72.337549 
L 111.540492 -71.353861 
L 111.465979 -70.370172 
L 111.367362 -69.386483 
L 111.241271 -68.402795 
L 111.084701 -67.419106 
L 110.895164 -66.435418 
L 110.670796 -65.451729 
L 110.410451 -64.46804 
L 110.113749 -63.484352 
L 109.781091 -62.500663 
L 109.413648 -61.516975 
L 109.013305 -60.533286 
L 108.582588 -59.549597 
L 108.124568 -58.565909 
L 107.642753 -57.58222 
L 107.140969 -56.598531 
L 106.623245 -55.614843 
L 106.093703 -54.631154 
L 105.556457 -53.647466 
L 105.015526 -52.663777 
L 104.474764 -51.680088 
L 103.937804 -50.6964 
L 103.408017 -49.712711 
L 102.888485 -48.729022 
L 102.381985 -47.745334 
L 101.890986 -46.761645 
L 101.417644 -45.777957 
L 100.963809 -44.794268 
L 100.531031 -43.810579 
L 100.120569 -42.826891 
L 99.733396 -41.843202 
L 99.370211 -40.859513 
L 99.031445 -39.875825 
L 98.717272 -38.892136 
L 98.42762 -37.908448 
L 98.162182 -36.924759 
L 97.920433 -35.94107 
L 97.70165 -34.957382 
L 97.504928 -33.973693 
L 97.329211 -32.990004 
L 97.173311 -32.006316 
L 97.035944 -31.022627 
L 96.915749 -30.038939 
L 96.811325 -29.05525 
z
"/>
    </defs>
    <g clip-path="url(#p9529b4d4fe)">
     <use xlink:href="#ma6ad40b72b" x="0" y="243.64005" style="fill: #11d6de"/>
    </g>
   </g>
   <g id="PolyCollection_3">
    <defs>
     <path id="mfe9de8f8cb" d="M 148.906907 -36.858822 
L 147.48353 -36.858822 
L 147.337694 -37.982514 
L 147.168987 -39.106206 
L 146.975407 -40.229899 
L 146.755103 -41.353591 
L 146.506459 -42.477283 
L 146.228175 -43.600975 
L 145.919355 -44.724668 
L 145.579591 -45.84836 
L 145.209042 -46.972052 
L 144.808503 -48.095744 
L 144.379465 -49.219437 
L 143.92415 -50.343129 
L 143.445529 -51.466821 
L 142.947315 -52.590513 
L 142.433927 -53.714205 
L 141.910431 -54.837898 
L 141.382449 -55.96159 
L 140.856042 -57.085282 
L 140.337578 -58.208974 
L 139.833573 -59.332667 
L 139.350524 -60.456359 
L 138.89474 -61.580051 
L 138.472168 -62.703743 
L 138.088229 -63.827436 
L 137.747678 -64.951128 
L 137.454473 -66.07482 
L 137.211687 -67.198512 
L 137.021436 -68.322205 
L 136.884853 -69.445897 
L 136.802088 -70.569589 
L 136.77235 -71.693281 
L 136.793968 -72.816974 
L 136.864482 -73.940666 
L 136.980763 -75.064358 
L 137.139126 -76.18805 
L 137.335472 -77.311742 
L 137.565411 -78.435435 
L 137.824393 -79.559127 
L 138.107818 -80.682819 
L 138.411135 -81.806511 
L 138.729926 -82.930204 
L 139.059962 -84.053896 
L 139.397247 -85.177588 
L 139.738046 -86.30128 
L 140.078894 -87.424973 
L 140.416596 -88.548665 
L 140.74822 -89.672357 
L 141.071087 -90.796049 
L 141.382764 -91.919742 
L 141.681053 -93.043434 
L 141.963998 -94.167126 
L 142.229887 -95.290818 
L 142.477272 -96.414511 
L 142.704988 -97.538203 
L 142.912184 -98.661895 
L 143.098346 -99.785587 
L 143.263335 -100.90928 
L 143.407403 -102.032972 
L 143.531217 -103.156664 
L 143.635862 -104.280356 
L 143.722836 -105.404048 
L 143.794029 -106.527741 
L 143.851687 -107.651433 
L 143.898357 -108.775125 
L 143.936822 -109.898817 
L 143.970026 -111.02251 
L 144.000979 -112.146202 
L 144.032672 -113.269894 
L 144.067977 -114.393586 
L 144.109557 -115.517279 
L 144.159786 -116.640971 
L 144.220669 -117.764663 
L 144.293789 -118.888355 
L 144.380261 -120.012048 
L 144.480712 -121.13574 
L 144.59527 -122.259432 
L 144.723583 -123.383124 
L 144.864848 -124.506817 
L 145.017861 -125.630509 
L 145.181069 -126.754201 
L 145.352648 -127.877893 
L 145.530571 -129.001585 
L 145.712691 -130.125278 
L 145.896814 -131.24897 
L 146.080774 -132.372662 
L 146.262499 -133.496354 
L 146.440068 -134.620047 
L 146.611756 -135.743739 
L 146.776071 -136.867431 
L 146.931778 -137.991123 
L 147.077909 -139.114816 
L 147.213766 -140.238508 
L 147.338909 -141.3622 
L 147.453146 -142.485892 
L 147.556503 -143.609585 
L 147.649204 -144.733277 
L 147.731632 -145.856969 
L 147.804306 -146.980661 
L 147.867844 -148.104354 
L 148.522593 -148.104354 
L 148.522593 -148.104354 
L 148.586132 -146.980661 
L 148.658806 -145.856969 
L 148.741234 -144.733277 
L 148.833934 -143.609585 
L 148.937291 -142.485892 
L 149.051528 -141.3622 
L 149.176672 -140.238508 
L 149.312528 -139.114816 
L 149.458659 -137.991123 
L 149.614367 -136.867431 
L 149.778682 -135.743739 
L 149.95037 -134.620047 
L 150.127938 -133.496354 
L 150.309663 -132.372662 
L 150.493623 -131.24897 
L 150.677746 -130.125278 
L 150.859866 -129.001585 
L 151.037789 -127.877893 
L 151.209368 -126.754201 
L 151.372577 -125.630509 
L 151.525589 -124.506817 
L 151.666855 -123.383124 
L 151.795168 -122.259432 
L 151.909726 -121.13574 
L 152.010176 -120.012048 
L 152.096649 -118.888355 
L 152.169769 -117.764663 
L 152.230652 -116.640971 
L 152.28088 -115.517279 
L 152.322461 -114.393586 
L 152.357765 -113.269894 
L 152.389458 -112.146202 
L 152.420412 -111.02251 
L 152.453615 -109.898817 
L 152.492081 -108.775125 
L 152.538751 -107.651433 
L 152.596408 -106.527741 
L 152.667602 -105.404048 
L 152.754576 -104.280356 
L 152.859221 -103.156664 
L 152.983035 -102.032972 
L 153.127103 -100.90928 
L 153.292091 -99.785587 
L 153.478254 -98.661895 
L 153.685449 -97.538203 
L 153.913166 -96.414511 
L 154.160551 -95.290818 
L 154.42644 -94.167126 
L 154.709384 -93.043434 
L 155.007674 -91.919742 
L 155.31935 -90.796049 
L 155.642218 -89.672357 
L 155.973842 -88.548665 
L 156.311543 -87.424973 
L 156.652392 -86.30128 
L 156.993191 -85.177588 
L 157.330476 -84.053896 
L 157.660511 -82.930204 
L 157.979302 -81.806511 
L 158.28262 -80.682819 
L 158.566045 -79.559127 
L 158.825026 -78.435435 
L 159.054965 -77.311742 
L 159.251311 -76.18805 
L 159.409675 -75.064358 
L 159.525955 -73.940666 
L 159.59647 -72.816974 
L 159.618087 -71.693281 
L 159.588349 -70.569589 
L 159.505585 -69.445897 
L 159.369001 -68.322205 
L 159.17875 -67.198512 
L 158.935964 -66.07482 
L 158.64276 -64.951128 
L 158.302208 -63.827436 
L 157.91827 -62.703743 
L 157.495697 -61.580051 
L 157.039913 -60.456359 
L 156.556865 -59.332667 
L 156.05286 -58.208974 
L 155.534395 -57.085282 
L 155.007989 -55.96159 
L 154.480006 -54.837898 
L 153.95651 -53.714205 
L 153.443122 -52.590513 
L 152.944908 -51.466821 
L 152.466287 -50.343129 
L 152.010972 -49.219437 
L 151.581934 -48.095744 
L 151.181396 -46.972052 
L 150.810846 -45.84836 
L 150.471082 -44.724668 
L 150.162262 -43.600975 
L 149.883978 -42.477283 
L 149.635334 -41.353591 
L 149.41503 -40.229899 
L 149.22145 -39.106206 
L 149.052744 -37.982514 
L 148.906907 -36.858822 
z
"/>
    </defs>
    <g clip-path="url(#p9529b4d4fe)">
     <use xlink:href="#mfe9de8f8cb" x="0" y="243.64005" style="fill: #d4d4d4"/>
    </g>
   </g>
   <g id="PolyCollection_4">
    <defs>
     <path id="m1a01b9d1a1" d="M 183.809264 -38.171012 
L 181.798423 -38.171012 
L 181.597618 -38.799016 
L 181.367023 -39.42702 
L 181.104526 -40.055023 
L 180.808348 -40.683027 
L 180.477157 -41.311031 
L 180.110171 -41.939035 
L 179.707272 -42.567039 
L 179.269095 -43.195042 
L 178.797106 -43.823046 
L 178.293657 -44.45105 
L 177.76201 -45.079054 
L 177.206325 -45.707058 
L 176.631612 -46.335062 
L 176.043637 -46.963065 
L 175.448794 -47.591069 
L 174.853927 -48.219073 
L 174.266131 -48.847077 
L 173.692511 -49.475081 
L 173.139935 -50.103084 
L 172.614768 -50.731088 
L 172.122624 -51.359092 
L 171.668126 -51.987096 
L 171.254702 -52.6151 
L 170.884427 -53.243103 
L 170.557917 -53.871107 
L 170.274285 -54.499111 
L 170.031172 -55.127115 
L 169.824836 -55.755119 
L 169.650317 -56.383123 
L 169.501664 -57.011126 
L 169.372202 -57.63913 
L 169.254852 -58.267134 
L 169.142466 -58.895138 
L 169.028166 -59.523142 
L 168.905682 -60.151145 
L 168.769654 -60.779149 
L 168.615895 -61.407153 
L 168.441596 -62.035157 
L 168.24547 -62.663161 
L 168.027818 -63.291164 
L 167.790525 -63.919168 
L 167.53698 -64.547172 
L 167.271931 -65.175176 
L 167.001281 -65.80318 
L 166.731832 -66.431183 
L 166.471001 -67.059187 
L 166.226513 -67.687191 
L 166.00609 -68.315195 
L 165.81715 -68.943199 
L 165.666533 -69.571203 
L 165.560254 -70.199206 
L 165.503311 -70.82721 
L 165.499531 -71.455214 
L 165.551483 -72.083218 
L 165.660434 -72.711222 
L 165.826371 -73.339225 
L 166.048061 -73.967229 
L 166.323157 -74.595233 
L 166.648343 -75.223237 
L 167.019502 -75.851241 
L 167.431896 -76.479244 
L 167.880366 -77.107248 
L 168.359514 -77.735252 
L 168.863885 -78.363256 
L 169.388131 -78.99126 
L 169.927149 -79.619264 
L 170.476192 -80.247267 
L 171.030952 -80.875271 
L 171.587613 -81.503275 
L 172.142872 -82.131279 
L 172.693938 -82.759283 
L 173.238501 -83.387286 
L 173.77469 -84.01529 
L 174.30101 -84.643294 
L 174.816276 -85.271298 
L 175.31954 -85.899302 
L 175.810026 -86.527305 
L 176.287062 -87.155309 
L 176.750033 -87.783313 
L 177.198334 -88.411317 
L 177.631348 -89.039321 
L 178.04843 -89.667325 
L 178.448908 -90.295328 
L 178.83209 -90.923332 
L 179.197293 -91.551336 
L 179.543861 -92.17934 
L 179.871202 -92.807344 
L 180.178814 -93.435347 
L 180.466322 -94.063351 
L 180.733498 -94.691355 
L 180.980282 -95.319359 
L 181.206797 -95.947363 
L 181.413351 -96.575366 
L 181.600434 -97.20337 
L 181.768712 -97.831374 
L 181.919005 -98.459378 
L 182.05227 -99.087382 
L 182.169572 -99.715386 
L 182.272059 -100.343389 
L 183.335629 -100.343389 
L 183.335629 -100.343389 
L 183.438115 -99.715386 
L 183.555417 -99.087382 
L 183.688682 -98.459378 
L 183.838976 -97.831374 
L 184.007253 -97.20337 
L 184.194337 -96.575366 
L 184.40089 -95.947363 
L 184.627405 -95.319359 
L 184.874189 -94.691355 
L 185.141365 -94.063351 
L 185.428873 -93.435347 
L 185.736486 -92.807344 
L 186.063826 -92.17934 
L 186.410394 -91.551336 
L 186.775597 -90.923332 
L 187.15878 -90.295328 
L 187.559257 -89.667325 
L 187.976339 -89.039321 
L 188.409353 -88.411317 
L 188.857654 -87.783313 
L 189.320625 -87.155309 
L 189.797662 -86.527305 
L 190.288147 -85.899302 
L 190.791412 -85.271298 
L 191.306678 -84.643294 
L 191.832998 -84.01529 
L 192.369187 -83.387286 
L 192.91375 -82.759283 
L 193.464815 -82.131279 
L 194.020075 -81.503275 
L 194.576735 -80.875271 
L 195.131496 -80.247267 
L 195.680539 -79.619264 
L 196.219557 -78.99126 
L 196.743803 -78.363256 
L 197.248174 -77.735252 
L 197.727321 -77.107248 
L 198.175791 -76.479244 
L 198.588186 -75.851241 
L 198.959344 -75.223237 
L 199.284531 -74.595233 
L 199.559626 -73.967229 
L 199.781316 -73.339225 
L 199.947253 -72.711222 
L 200.056205 -72.083218 
L 200.108156 -71.455214 
L 200.104376 -70.82721 
L 200.047433 -70.199206 
L 199.941155 -69.571203 
L 199.790538 -68.943199 
L 199.601598 -68.315195 
L 199.381174 -67.687191 
L 199.136686 -67.059187 
L 198.875855 -66.431183 
L 198.606406 -65.80318 
L 198.335756 -65.175176 
L 198.070708 -64.547172 
L 197.817163 -63.919168 
L 197.579869 -63.291164 
L 197.362217 -62.663161 
L 197.166091 -62.035157 
L 196.991792 -61.407153 
L 196.838033 -60.779149 
L 196.702005 -60.151145 
L 196.579521 -59.523142 
L 196.465222 -58.895138 
L 196.352835 -58.267134 
L 196.235486 -57.63913 
L 196.106024 -57.011126 
L 195.95737 -56.383123 
L 195.782852 -55.755119 
L 195.576515 -55.127115 
L 195.333402 -54.499111 
L 195.049771 -53.871107 
L 194.723261 -53.243103 
L 194.352986 -52.6151 
L 193.939562 -51.987096 
L 193.485063 -51.359092 
L 192.992919 -50.731088 
L 192.467753 -50.103084 
L 191.915176 -49.475081 
L 191.341556 -48.847077 
L 190.75376 -48.219073 
L 190.158894 -47.591069 
L 189.56405 -46.963065 
L 188.976075 -46.335062 
L 188.401362 -45.707058 
L 187.845678 -45.079054 
L 187.314031 -44.45105 
L 186.810582 -43.823046 
L 186.338592 -43.195042 
L 185.900415 -42.567039 
L 185.497516 -41.939035 
L 185.130531 -41.311031 
L 184.799339 -40.683027 
L 184.503162 -40.055023 
L 184.240665 -39.42702 
L 184.01007 -38.799016 
L 183.809264 -38.171012 
z
"/>
    </defs>
    <g clip-path="url(#p9529b4d4fe)">
     <use xlink:href="#m1a01b9d1a1" x="0" y="243.64005" style="fill: #11d6de"/>
    </g>
   </g>
   <g id="matplotlib.axis_1">
    <g id="xtick_1">
     <g id="line2d_1">
      <defs>
       <path id="mf1f2e95a9a" d="M 0 0 
L 0 3.5 
" style="stroke: #000000; stroke-width: 0.8"/>
      </defs>
      <g>
       <use xlink:href="#mf1f2e95a9a" x="78.977969" y="222.1238" style="stroke: #000000; stroke-width: 0.8"/>
      </g>
     </g>
     <g id="text_1">
      <text style="font: 8px 'Arial', sans-serif; text-anchor: middle" x="78.977969" y="234.85005" transform="rotate(-0 78.977969 234.85005)">Male</text>
     </g>
    </g>
    <g id="xtick_2">
     <g id="line2d_2">
      <g>
       <use xlink:href="#mf1f2e95a9a" x="165.499531" y="222.1238" style="stroke: #000000; stroke-width: 0.8"/>
      </g>
     </g>
     <g id="text_2">
      <text style="font: 8px 'Arial', sans-serif; text-anchor: middle" x="165.499531" y="234.85005" transform="rotate(-0 165.499531 234.85005)">Female</text>
     </g>
    </g>
   </g>
   <g id="matplotlib.axis_2">
    <g id="ytick_1">
     <g id="line2d_3">
      <defs>
       <path id="m117b05323e" d="M 0 0 
L -3.5 0 
" style="stroke: #000000; stroke-width: 0.8"/>
      </defs>
      <g>
       <use xlink:href="#m117b05323e" x="35.717188" y="217.335479" style="stroke: #000000; stroke-width: 0.8"/>
      </g>
     </g>
     <g id="text_3">
      <text style="font: 6px 'Arial', sans-serif; text-anchor: end" x="28.717188" y="219.482823" transform="rotate(-0 28.717188 219.482823)">0</text>
     </g>
    </g>
    <g id="ytick_2">
     <g id="line2d_4">
      <g>
       <use xlink:href="#m117b05323e" x="35.717188" y="192.36302" style="stroke: #000000; stroke-width: 0.8"/>
      </g>
     </g>
     <g id="text_4">
      <text style="font: 6px 'Arial', sans-serif; text-anchor: end" x="28.717188" y="194.510364" transform="rotate(-0 28.717188 194.510364)">50</text>
     </g>
    </g>
    <g id="ytick_3">
     <g id="line2d_5">
      <g>
       <use xlink:href="#m117b05323e" x="35.717188" y="167.390561" style="stroke: #000000; stroke-width: 0.8"/>
      </g>
     </g>
     <g id="text_5">
      <text style="font: 6px 'Arial', sans-serif; text-anchor: end" x="28.717188" y="169.537905" transform="rotate(-0 28.717188 169.537905)">100</text>
     </g>
    </g>
    <g id="ytick_4">
     <g id="line2d_6">
      <g>
       <use xlink:href="#m117b05323e" x="35.717188" y="142.418102" style="stroke: #000000; stroke-width: 0.8"/>
      </g>
     </g>
     <g id="text_6">
      <text style="font: 6px 'Arial', sans-serif; text-anchor: end" x="28.717188" y="144.565445" transform="rotate(-0 28.717188 144.565445)">150</text>
     </g>
    </g>
    <g id="ytick_5">
     <g id="line2d_7">
      <g>
       <use xlink:href="#m117b05323e" x="35.717188" y="117.445642" style="stroke: #000000; stroke-width: 0.8"/>
      </g>
     </g>
     <g id="text_7">
      <text style="font: 6px 'Arial', sans-serif; text-anchor: end" x="28.717188" y="119.592986" transform="rotate(-0 28.717188 119.592986)">200</text>
     </g>
    </g>
    <g id="ytick_6">
     <g id="line2d_8">
      <g>
       <use xlink:href="#m117b05323e" x="35.717188" y="92.473183" style="stroke: #000000; stroke-width: 0.8"/>
      </g>
     </g>
     <g id="text_8">
      <text style="font: 6px 'Arial', sans-serif; text-anchor: end" x="28.717188" y="94.620527" transform="rotate(-0 28.717188 94.620527)">250</text>
     </g>
    </g>
    <g id="ytick_7">
     <g id="line2d_9">
      <g>
       <use xlink:href="#m117b05323e" x="35.717188" y="67.500724" style="stroke: #000000; stroke-width: 0.8"/>
      </g>
     </g>
     <g id="text_9">
      <text style="font: 6px 'Arial', sans-serif; text-anchor: end" x="28.717188" y="69.648068" transform="rotate(-0 28.717188 69.648068)">300</text>
     </g>
    </g>
    <g id="text_10">
     <text style="font: 8px 'Arial', sans-serif; text-anchor: middle" x="13.02375" y="139.1948" transform="rotate(-90 13.02375 139.1948)">Cummulative Testing Lick Bursts</text>
    </g>
   </g>
   <g id="line2d_10">
    <path d="M 61.673656 171.386154 
L 61.673656 144.915347 
" clip-path="url(#p9529b4d4fe)" style="fill: none"/>
   </g>
   <g id="line2d_11">
    <path d="M 61.673656 159.898823 
L 61.673656 144.915347 
" clip-path="url(#p9529b4d4fe)" style="fill: none"/>
   </g>
   <g id="line2d_12">
    <path d="M 96.282281 191.863571 
L 96.282281 139.920856 
" clip-path="url(#p9529b4d4fe)" style="fill: none"/>
   </g>
   <g id="line2d_13">
    <path d="M 96.282281 176.380646 
L 96.282281 152.906534 
" clip-path="url(#p9529b4d4fe)" style="fill: none"/>
   </g>
   <g id="line2d_14">
    <path d="M 148.195219 180.37624 
L 148.195219 121.940685 
" clip-path="url(#p9529b4d4fe)" style="fill: none"/>
   </g>
   <g id="line2d_15">
    <path d="M 148.195219 176.505508 
L 148.195219 152.282223 
" clip-path="url(#p9529b4d4fe)" style="fill: none"/>
   </g>
   <g id="line2d_16">
    <path d="M 182.803844 190.864672 
L 182.803844 157.901026 
" clip-path="url(#p9529b4d4fe)" style="fill: none"/>
   </g>
   <g id="line2d_17">
    <path d="M 182.803844 188.367426 
L 182.803844 169.388358 
" clip-path="url(#p9529b4d4fe)" style="fill: none"/>
   </g>
   <g id="line2d_18">
    <path d="M 96.282281 69.098961 
L 96.282281 63.8048 
L 182.803844 63.8048 
L 182.803844 69.098961 
" clip-path="url(#p9529b4d4fe)" style="fill: none; stroke: #000000; stroke-width: 0.5; stroke-linecap: square"/>
   </g>
   <g id="line2d_19">
    <path d="M 61.673656 84.981445 
L 61.673656 79.687284 
L 148.195219 79.687284 
L 148.195219 84.981445 
" clip-path="url(#p9529b4d4fe)" style="fill: none; stroke: #000000; stroke-width: 0.5; stroke-linecap: square"/>
   </g>
   <g id="line2d_20">
    <path d="M 148.195219 100.863929 
L 148.195219 95.569768 
L 182.803844 95.569768 
L 182.803844 100.863929 
" clip-path="url(#p9529b4d4fe)" style="fill: none; stroke: #000000; stroke-width: 0.5; stroke-linecap: square"/>
   </g>
   <g id="line2d_21">
    <path d="M 61.673656 100.863929 
L 61.673656 95.569768 
L 96.282281 95.569768 
L 96.282281 100.863929 
" clip-path="url(#p9529b4d4fe)" style="fill: none; stroke: #000000; stroke-width: 0.5; stroke-linecap: square"/>
   </g>
   <g id="patch_5">
    <path d="M 35.717188 222.1238 
L 35.717188 56.2658 
" style="fill: none; stroke: #000000; stroke-width: 0.8; stroke-linejoin: miter; stroke-linecap: square"/>
   </g>
   <g id="patch_6">
    <path d="M 35.717188 222.1238 
L 208.760312 222.1238 
" style="fill: none; stroke: #000000; stroke-width: 0.8; stroke-linejoin: miter; stroke-linecap: square"/>
   </g>
   <g id="PathCollection_1">
    <defs>
     <path id="C0_0_1dd81db447" d="M 0 2.5 
C 0.663008 2.5 1.29895 2.236584 1.767767 1.767767 
C 2.236584 1.29895 2.5 0.663008 2.5 -0 
C 2.5 -0.663008 2.236584 -1.29895 1.767767 -1.767767 
C 1.29895 -2.236584 0.663008 -2.5 0 -2.5 
C -0.663008 -2.5 -1.29895 -2.236584 -1.767767 -1.767767 
C -2.236584 -1.29895 -2.5 -0.663008 -2.5 0 
C -2.5 0.663008 -2.236584 1.29895 -1.767767 1.767767 
C -1.29895 2.236584 -0.663008 2.5 0 2.5 
z
"/>
    </defs>
    <g clip-path="url(#p9529b4d4fe)">
     <use xlink:href="#C0_0_1dd81db447" x="61.673656" y="111.452252" style="fill: #262626; fill-opacity: 0.5"/>
    </g>
    <g clip-path="url(#p9529b4d4fe)">
     <use xlink:href="#C0_0_1dd81db447" x="63.972795" y="148.411492" style="fill: #262626; fill-opacity: 0.5"/>
    </g>
    <g clip-path="url(#p9529b4d4fe)">
     <use xlink:href="#C0_0_1dd81db447" x="56.529492" y="151.907636" style="fill: #262626; fill-opacity: 0.5"/>
    </g>
    <g clip-path="url(#p9529b4d4fe)">
     <use xlink:href="#C0_0_1dd81db447" x="61.673656" y="159.898823" style="fill: #262626; fill-opacity: 0.5"/>
    </g>
    <g clip-path="url(#p9529b4d4fe)">
     <use xlink:href="#C0_0_1dd81db447" x="61.427295" y="166.391662" style="fill: #262626; fill-opacity: 0.5"/>
    </g>
    <g clip-path="url(#p9529b4d4fe)">
     <use xlink:href="#C0_0_1dd81db447" x="61.673656" y="116.946193" style="fill: #262626; fill-opacity: 0.5"/>
    </g>
    <g clip-path="url(#p9529b4d4fe)">
     <use xlink:href="#C0_0_1dd81db447" x="61.673656" y="171.386154" style="fill: #262626; fill-opacity: 0.5"/>
    </g>
    <g clip-path="url(#p9529b4d4fe)">
     <use xlink:href="#C0_0_1dd81db447" x="61.673656" y="152.906534" style="fill: #262626; fill-opacity: 0.5"/>
    </g>
    <g clip-path="url(#p9529b4d4fe)">
     <use xlink:href="#C0_0_1dd81db447" x="60.219581" y="144.915347" style="fill: #262626; fill-opacity: 0.5"/>
    </g>
   </g>
   <g id="PathCollection_2">
    <defs>
     <path id="C1_0_f7fa39098b" d="M 0 2.5 
C 0.663008 2.5 1.29895 2.236584 1.767767 1.767767 
C 2.236584 1.29895 2.5 0.663008 2.5 -0 
C 2.5 -0.663008 2.236584 -1.29895 1.767767 -1.767767 
C 1.29895 -2.236584 0.663008 -2.5 0 -2.5 
C -0.663008 -2.5 -1.29895 -2.236584 -1.767767 -1.767767 
C -2.236584 -1.29895 -2.5 -0.663008 -2.5 0 
C -2.5 0.663008 -2.236584 1.29895 -1.767767 1.767767 
C -1.29895 2.236584 -0.663008 2.5 0 2.5 
z
"/>
    </defs>
    <g clip-path="url(#p9529b4d4fe)">
     <use xlink:href="#C1_0_f7fa39098b" x="96.282281" y="142.917551" style="fill-opacity: 0.5"/>
    </g>
    <g clip-path="url(#p9529b4d4fe)">
     <use xlink:href="#C1_0_f7fa39098b" x="92.079681" y="139.920856" style="fill-opacity: 0.5"/>
    </g>
    <g clip-path="url(#p9529b4d4fe)">
     <use xlink:href="#C1_0_f7fa39098b" x="92.079681" y="176.380646" style="fill-opacity: 0.5"/>
    </g>
    <g clip-path="url(#p9529b4d4fe)">
     <use xlink:href="#C1_0_f7fa39098b" x="96.282281" y="152.906534" style="fill-opacity: 0.5"/>
    </g>
    <g clip-path="url(#p9529b4d4fe)">
     <use xlink:href="#C1_0_f7fa39098b" x="96.282281" y="191.863571" style="fill-opacity: 0.5"/>
    </g>
    <g clip-path="url(#p9529b4d4fe)">
     <use xlink:href="#C1_0_f7fa39098b" x="99.438441" y="175.381748" style="fill-opacity: 0.5"/>
    </g>
    <g clip-path="url(#p9529b4d4fe)">
     <use xlink:href="#C1_0_f7fa39098b" x="92.529067" y="157.901026" style="fill-opacity: 0.5"/>
    </g>
    <g clip-path="url(#p9529b4d4fe)">
     <use xlink:href="#C1_0_f7fa39098b" x="96.282281" y="161.397171" style="fill-opacity: 0.5"/>
    </g>
    <g clip-path="url(#p9529b4d4fe)">
     <use xlink:href="#C1_0_f7fa39098b" x="96.282281" y="179.377341" style="fill-opacity: 0.5"/>
    </g>
   </g>
   <g id="PathCollection_3">
    <defs>
     <path id="C2_0_4023173fc8" d="M 0 2.5 
C 0.663008 2.5 1.29895 2.236584 1.767767 1.767767 
C 2.236584 1.29895 2.5 0.663008 2.5 -0 
C 2.5 -0.663008 2.236584 -1.29895 1.767767 -1.767767 
C 1.29895 -2.236584 0.663008 -2.5 0 -2.5 
C -0.663008 -2.5 -1.29895 -2.236584 -1.767767 -1.767767 
C -2.236584 -1.29895 -2.5 -0.663008 -2.5 0 
C -2.5 0.663008 -2.236584 1.29895 -1.767767 1.767767 
C -1.29895 2.236584 -0.663008 2.5 0 2.5 
z
"/>
    </defs>
    <g clip-path="url(#p9529b4d4fe)">
     <use xlink:href="#C2_0_4023173fc8" x="148.195219" y="121.940685" style="fill: #262626; fill-opacity: 0.5"/>
    </g>
    <g clip-path="url(#p9529b4d4fe)">
     <use xlink:href="#C2_0_4023173fc8" x="148.195219" y="128.433524" style="fill: #262626; fill-opacity: 0.5"/>
    </g>
    <g clip-path="url(#p9529b4d4fe)">
     <use xlink:href="#C2_0_4023173fc8" x="148.195219" y="180.37624" style="fill: #262626; fill-opacity: 0.5"/>
    </g>
    <g clip-path="url(#p9529b4d4fe)">
     <use xlink:href="#C2_0_4023173fc8" x="148.195219" y="156.402679" style="fill: #262626; fill-opacity: 0.5"/>
    </g>
    <g clip-path="url(#p9529b4d4fe)">
     <use xlink:href="#C2_0_4023173fc8" x="141.69348" y="172.884502" style="fill: #262626; fill-opacity: 0.5"/>
    </g>
    <g clip-path="url(#p9529b4d4fe)">
     <use xlink:href="#C2_0_4023173fc8" x="143.992618" y="177.379544" style="fill: #262626; fill-opacity: 0.5"/>
    </g>
    <g clip-path="url(#p9529b4d4fe)">
     <use xlink:href="#C2_0_4023173fc8" x="148.195219" y="164.893315" style="fill: #262626; fill-opacity: 0.5"/>
    </g>
    <g clip-path="url(#p9529b4d4fe)">
     <use xlink:href="#C2_0_4023173fc8" x="148.195219" y="173.8834" style="fill: #262626; fill-opacity: 0.5"/>
    </g>
    <g clip-path="url(#p9529b4d4fe)">
     <use xlink:href="#C2_0_4023173fc8" x="148.195219" y="150.908738" style="fill: #262626; fill-opacity: 0.5"/>
    </g>
    <g clip-path="url(#p9529b4d4fe)">
     <use xlink:href="#C2_0_4023173fc8" x="152.397819" y="177.379544" style="fill: #262626; fill-opacity: 0.5"/>
    </g>
   </g>
   <g id="PathCollection_4">
    <defs>
     <path id="C3_0_b2a3f306f8" d="M 0 2.5 
C 0.663008 2.5 1.29895 2.236584 1.767767 1.767767 
C 2.236584 1.29895 2.5 0.663008 2.5 -0 
C 2.5 -0.663008 2.236584 -1.29895 1.767767 -1.767767 
C 1.29895 -2.236584 0.663008 -2.5 0 -2.5 
C -0.663008 -2.5 -1.29895 -2.236584 -1.767767 -1.767767 
C -2.236584 -1.29895 -2.5 -0.663008 -2.5 0 
C -2.5 0.663008 -2.236584 1.29895 -1.767767 1.767767 
C -1.29895 2.236584 -0.663008 2.5 0 2.5 
z
"/>
    </defs>
    <g clip-path="url(#p9529b4d4fe)">
     <use xlink:href="#C3_0_b2a3f306f8" x="182.803844" y="157.901026" style="fill-opacity: 0.5"/>
    </g>
    <g clip-path="url(#p9529b4d4fe)">
     <use xlink:href="#C3_0_b2a3f306f8" x="185.960003" y="172.385053" style="fill-opacity: 0.5"/>
    </g>
    <g clip-path="url(#p9529b4d4fe)">
     <use xlink:href="#C3_0_b2a3f306f8" x="182.803844" y="176.380646" style="fill-opacity: 0.5"/>
    </g>
    <g clip-path="url(#p9529b4d4fe)">
     <use xlink:href="#C3_0_b2a3f306f8" x="187.352145" y="188.367426" style="fill-opacity: 0.5"/>
    </g>
    <g clip-path="url(#p9529b4d4fe)">
     <use xlink:href="#C3_0_b2a3f306f8" x="177.795118" y="174.882299" style="fill-opacity: 0.5"/>
    </g>
    <g clip-path="url(#p9529b4d4fe)">
     <use xlink:href="#C3_0_b2a3f306f8" x="185.510617" y="165.892213" style="fill-opacity: 0.5"/>
    </g>
    <g clip-path="url(#p9529b4d4fe)">
     <use xlink:href="#C3_0_b2a3f306f8" x="181.757403" y="169.388358" style="fill-opacity: 0.5"/>
    </g>
    <g clip-path="url(#p9529b4d4fe)">
     <use xlink:href="#C3_0_b2a3f306f8" x="182.803844" y="190.864672" style="fill-opacity: 0.5"/>
    </g>
    <g clip-path="url(#p9529b4d4fe)">
     <use xlink:href="#C3_0_b2a3f306f8" x="177.99113" y="188.866876" style="fill-opacity: 0.5"/>
    </g>
   </g>
   <g id="PathCollection_5">
    <defs>
     <path id="m562554cfeb" d="M 0 0 
C 0 0 0 0 0 0 
C 0 0 0 0 0 0 
C 0 0 0 0 0 0 
C 0 0 0 0 0 0 
C 0 0 0 0 0 0 
C 0 0 0 0 0 0 
C 0 0 0 0 0 0 
C 0 0 0 0 0 0 
z
" style="stroke: #484848"/>
    </defs>
    <g clip-path="url(#p9529b4d4fe)">
     <use xlink:href="#m562554cfeb" x="61.673656" y="151.907636" style="fill: #ffffff; stroke: #484848"/>
    </g>
   </g>
   <g id="PathCollection_6">
    <g clip-path="url(#p9529b4d4fe)">
     <use xlink:href="#m562554cfeb" x="96.282281" y="161.397171" style="fill: #ffffff; stroke: #484848"/>
    </g>
   </g>
   <g id="PathCollection_7">
    <g clip-path="url(#p9529b4d4fe)">
     <use xlink:href="#m562554cfeb" x="148.195219" y="168.888908" style="fill: #ffffff; stroke: #484848"/>
    </g>
   </g>
   <g id="PathCollection_8">
    <g clip-path="url(#p9529b4d4fe)">
     <use xlink:href="#m562554cfeb" x="182.803844" y="174.882299" style="fill: #ffffff; stroke: #484848"/>
    </g>
   </g>
   <g id="text_11">
    <text style="font: 8px 'Arial', sans-serif; text-anchor: middle" x="139.543062" y="62.2148" transform="rotate(-0 139.543062 62.2148)">ns</text>
   </g>
   <g id="text_12">
    <text style="font: 8px 'Arial', sans-serif; text-anchor: middle" x="104.934438" y="78.097284" transform="rotate(-0 104.934438 78.097284)">ns</text>
   </g>
   <g id="text_13">
    <text style="font: 8px 'Arial', sans-serif; text-anchor: middle" x="165.499531" y="93.979768" transform="rotate(-0 165.499531 93.979768)">ns</text>
   </g>
   <g id="text_14">
    <text style="font: 8px 'Arial', sans-serif; text-anchor: middle" x="78.977969" y="93.979768" transform="rotate(-0 78.977969 93.979768)">ns</text>
   </g>
   <g id="legend_1">
    <g id="patch_7">
     <path d="M 42.917188 17.76 
L 58.917188 17.76 
L 58.917188 12.16 
L 42.917188 12.16 
z
" style="fill: #d4d4d4"/>
    </g>
    <g id="text_15">
     <!-- $AgRP^{TdTomato}$ -->
     <g transform="translate(65.317188 17.76)">
      <text>
       <tspan style="font: oblique 8px 'DejaVu Sans'" x="0 5.472656 10.550781 16.109375" y="-0.6828125000000007">AgRP</tspan>
       <tspan style="font: oblique 5.6px 'DejaVu Sans'" x="21.494323 24.915026 28.469714 31.890417 35.316589 40.771667 44.203307 46.39901" y="-3.7453125000000007">TdTomato</tspan>
      </text>
     </g>
    </g>
    <g id="patch_8">
     <path d="M 42.917188 30.8 
L 58.917188 30.8 
L 58.917188 25.2 
L 42.917188 25.2 
z
" style="fill: #11d6de"/>
    </g>
    <g id="text_16">
     <!-- $AgRP^{Chr2}$ -->
     <g transform="translate(65.317188 30.8)">
      <text>
       <tspan style="font: oblique 8px 'DejaVu Sans'" x="0 5.472656 10.550781 16.109375" y="-0.6828125000000007">AgRP</tspan>
       <tspan style="font: oblique 5.6px 'DejaVu Sans'" x="21.494323 25.404479 28.953698" y="-3.7453125000000007">Chr</tspan>
       <tspan style="font: 5.6px 'DejaVu Sans'" x="31.256042" y="-3.7453125000000007">2</tspan>
      </text>
     </g>
    </g>
   </g>
  </g>
  <g id="axes_2">
   <g id="patch_9">
    <path d="M 251.330313 222.1238 
L 424.373437 222.1238 
L 424.373437 56.2658 
L 251.330313 56.2658 
L 251.330313 222.1238 
z
" style="fill: none"/>
   </g>
   <g id="PathCollection_9">
    <path d="M 368.233462 150.314528 
C 369.302173 150.314528 370.327255 149.889925 371.082948 149.134233 
C 371.83864 148.378541 372.263243 147.353458 372.263243 146.284748 
C 372.263243 145.216038 371.83864 144.190955 371.082948 143.435263 
C 370.327255 142.679571 369.302173 142.254967 368.233462 142.254967 
C 367.164752 142.254967 366.13967 142.679571 365.383977 143.435263 
C 364.628285 144.190955 364.203682 145.216038 364.203682 146.284748 
C 364.203682 147.353458 364.628285 148.378541 365.383977 149.134233 
C 366.13967 149.889925 367.164752 150.314528 368.233462 150.314528 
z
" clip-path="url(#p2e823a24a2)" style="fill: #d4d4d4; stroke: #ffffff; stroke-width: 0.388373"/>
    <path d="M 367.118411 180.023113 
C 368.150629 180.023113 369.140709 179.613008 369.870598 178.883119 
C 370.600486 178.153231 371.010591 177.163151 371.010591 176.130932 
C 371.010591 175.098714 370.600486 174.108634 369.870598 173.378745 
C 369.140709 172.648857 368.150629 172.238752 367.118411 172.238752 
C 366.086192 172.238752 365.096112 172.648857 364.366224 173.378745 
C 363.636335 174.108634 363.22623 175.098714 363.22623 176.130932 
C 363.22623 177.163151 363.636335 178.153231 364.366224 178.883119 
C 365.096112 179.613008 366.086192 180.023113 367.118411 180.023113 
z
" clip-path="url(#p2e823a24a2)" style="fill: #d4d4d4; stroke: #ffffff; stroke-width: 0.388373"/>
    <path d="M 369.52049 176.091036 
C 370.192903 176.091036 370.837866 175.823884 371.313333 175.348416 
C 371.788801 174.872949 372.055953 174.227986 372.055953 173.555573 
C 372.055953 172.883161 371.788801 172.238198 371.313333 171.762731 
C 370.837866 171.287263 370.192903 171.020111 369.52049 171.020111 
C 368.848078 171.020111 368.203115 171.287263 367.727648 171.762731 
C 367.25218 172.238198 366.985028 172.883161 366.985028 173.555573 
C 366.985028 174.227986 367.25218 174.872949 367.727648 175.348416 
C 368.203115 175.823884 368.848078 176.091036 369.52049 176.091036 
z
" clip-path="url(#p2e823a24a2)" style="fill: #d4d4d4; stroke: #ffffff; stroke-width: 0.388373"/>
    <path d="M 370.193476 186.276412 
C 371.050923 186.276412 371.873368 185.935744 372.479675 185.329437 
C 373.085982 184.72313 373.42665 183.900686 373.42665 183.043238 
C 373.42665 182.18579 373.085982 181.363345 372.479675 180.757038 
C 371.873368 180.150731 371.050923 179.810063 370.193476 179.810063 
C 369.336028 179.810063 368.513583 180.150731 367.907276 180.757038 
C 367.300969 181.363345 366.960301 182.18579 366.960301 183.043238 
C 366.960301 183.900686 367.300969 184.72313 367.907276 185.329437 
C 368.513583 185.935744 369.336028 186.276412 370.193476 186.276412 
z
" clip-path="url(#p2e823a24a2)" style="fill: #d4d4d4; stroke: #ffffff; stroke-width: 0.388373"/>
    <path d="M 368.568095 184.461839 
C 369.30335 184.461839 370.008591 184.169719 370.528495 183.649815 
C 371.048399 183.129911 371.340519 182.424671 371.340519 181.689415 
C 371.340519 180.95416 371.048399 180.248919 370.528495 179.729015 
C 370.008591 179.209111 369.30335 178.916991 368.568095 178.916991 
C 367.83284 178.916991 367.127599 179.209111 366.607695 179.729015 
C 366.087791 180.248919 365.795671 180.95416 365.795671 181.689415 
C 365.795671 182.424671 366.087791 183.129911 366.607695 183.649815 
C 367.127599 184.169719 367.83284 184.461839 368.568095 184.461839 
z
" clip-path="url(#p2e823a24a2)" style="fill: #d4d4d4; stroke: #ffffff; stroke-width: 0.388373"/>
    <path d="M 369.915684 207.370075 
C 370.613913 207.370075 371.283638 207.092666 371.777361 206.598944 
C 372.271083 206.105221 372.548492 205.435496 372.548492 204.737267 
C 372.548492 204.039039 372.271083 203.369313 371.777361 202.875591 
C 371.283638 202.381869 370.613913 202.10446 369.915684 202.10446 
C 369.217456 202.10446 368.54773 202.381869 368.054008 202.875591 
C 367.560286 203.369313 367.282877 204.039039 367.282877 204.737267 
C 367.282877 205.435496 367.560286 206.105221 368.054008 206.598944 
C 368.54773 207.092666 369.217456 207.370075 369.915684 207.370075 
z
" clip-path="url(#p2e823a24a2)" style="fill: #d4d4d4; stroke: #ffffff; stroke-width: 0.388373"/>
    <path d="M 367.71043 199.244439 
C 368.507273 199.244439 369.271588 198.927849 369.835041 198.364396 
C 370.398495 197.800942 370.715084 197.036628 370.715084 196.239784 
C 370.715084 195.44294 370.398495 194.678626 369.835041 194.115172 
C 369.271588 193.551719 368.507273 193.235129 367.71043 193.235129 
C 366.913586 193.235129 366.149271 193.551719 365.585818 194.115172 
C 365.022364 194.678626 364.705775 195.44294 364.705775 196.239784 
C 364.705775 197.036628 365.022364 197.800942 365.585818 198.364396 
C 366.149271 198.927849 366.913586 199.244439 367.71043 199.244439 
z
" clip-path="url(#p2e823a24a2)" style="fill: #d4d4d4; stroke: #ffffff; stroke-width: 0.388373"/>
    <path d="M 373.574469 195.639666 
C 374.301659 195.639666 374.999163 195.35075 375.513364 194.836549 
C 376.027566 194.322348 376.316481 193.624844 376.316481 192.897653 
C 376.316481 192.170463 376.027566 191.472959 375.513364 190.958757 
C 374.999163 190.444556 374.301659 190.155641 373.574469 190.155641 
C 372.847278 190.155641 372.149774 190.444556 371.635573 190.958757 
C 371.121372 191.472959 370.832456 192.170463 370.832456 192.897653 
C 370.832456 193.624844 371.121372 194.322348 371.635573 194.836549 
C 372.149774 195.35075 372.847278 195.639666 373.574469 195.639666 
z
" clip-path="url(#p2e823a24a2)" style="fill: #d4d4d4; stroke: #ffffff; stroke-width: 0.388373"/>
    <path d="M 369.543448 127.91313 
C 370.437925 127.91313 371.295887 127.55775 371.928377 126.92526 
C 372.560868 126.292769 372.916247 125.434807 372.916247 124.54033 
C 372.916247 123.645853 372.560868 122.787892 371.928377 122.155401 
C 371.295887 121.52291 370.437925 121.167531 369.543448 121.167531 
C 368.648971 121.167531 367.791009 121.52291 367.158519 122.155401 
C 366.526028 122.787892 366.170648 123.645853 366.170648 124.54033 
C 366.170648 125.434807 366.526028 126.292769 367.158519 126.92526 
C 367.791009 127.55775 368.648971 127.91313 369.543448 127.91313 
z
" clip-path="url(#p2e823a24a2)" style="fill: #d4d4d4; stroke: #ffffff; stroke-width: 0.388373"/>
    <path d="M 365.743876 168.500399 
C 366.442104 168.500399 367.11183 168.222989 367.605552 167.729267 
C 368.099274 167.235545 368.376683 166.56582 368.376683 165.867591 
C 368.376683 165.169362 368.099274 164.499637 367.605552 164.005914 
C 367.11183 163.512192 366.442104 163.234783 365.743876 163.234783 
C 365.045647 163.234783 364.375922 163.512192 363.882199 164.005914 
C 363.388477 164.499637 363.111068 165.169362 363.111068 165.867591 
C 363.111068 166.56582 363.388477 167.235545 363.882199 167.729267 
C 364.375922 168.222989 365.045647 168.500399 365.743876 168.500399 
z
" clip-path="url(#p2e823a24a2)" style="fill: #d4d4d4; stroke: #ffffff; stroke-width: 0.388373"/>
    <path d="M 284.57143 137.07434 
C 285.696592 137.07434 286.775821 136.627308 287.57143 135.831699 
C 288.36704 135.03609 288.814071 133.956861 288.814071 132.831699 
C 288.814071 131.706538 288.36704 130.627308 287.57143 129.831699 
C 286.775821 129.03609 285.696592 128.589058 284.57143 128.589058 
C 283.446269 128.589058 282.36704 129.03609 281.57143 129.831699 
C 280.775821 130.627308 280.32879 131.706538 280.32879 132.831699 
C 280.32879 133.956861 280.775821 135.03609 281.57143 135.831699 
C 282.36704 136.627308 283.446269 137.07434 284.57143 137.07434 
z
" clip-path="url(#p2e823a24a2)" style="fill: #d4d4d4; stroke: #ffffff; stroke-width: 0.388373"/>
    <path d="M 286.283686 149.252602 
C 287.194497 149.252602 288.068125 148.890733 288.712166 148.246692 
C 289.356206 147.602652 289.718075 146.729023 289.718075 145.818212 
C 289.718075 144.907401 289.356206 144.033772 288.712166 143.389732 
C 288.068125 142.745692 287.194497 142.383823 286.283686 142.383823 
C 285.372875 142.383823 284.499246 142.745692 283.855206 143.389732 
C 283.211165 144.033772 282.849296 144.907401 282.849296 145.818212 
C 282.849296 146.729023 283.211165 147.602652 283.855206 148.246692 
C 284.499246 148.890733 285.372875 149.252602 286.283686 149.252602 
z
" clip-path="url(#p2e823a24a2)" style="fill: #d4d4d4; stroke: #ffffff; stroke-width: 0.388373"/>
    <path d="M 283.634257 150.64377 
C 284.522116 150.64377 285.373731 150.29102 286.001542 149.663208 
C 286.629353 149.035397 286.982103 148.183783 286.982103 147.295924 
C 286.982103 146.408064 286.629353 145.55645 286.001542 144.928639 
C 285.373731 144.300828 284.522116 143.948077 283.634257 143.948077 
C 282.746398 143.948077 281.894783 144.300828 281.266972 144.928639 
C 280.639161 145.55645 280.286411 146.408064 280.286411 147.295924 
C 280.286411 148.183783 280.639161 149.035397 281.266972 149.663208 
C 281.894783 150.29102 282.746398 150.64377 283.634257 150.64377 
z
" clip-path="url(#p2e823a24a2)" style="fill: #d4d4d4; stroke: #ffffff; stroke-width: 0.388373"/>
    <path d="M 283.566124 170.468216 
C 284.399151 170.468216 285.198172 170.137251 285.787211 169.548212 
C 286.376251 168.959172 286.707216 168.160151 286.707216 167.327124 
C 286.707216 166.494097 286.376251 165.695076 285.787211 165.106037 
C 285.198172 164.516997 284.399151 164.186032 283.566124 164.186032 
C 282.733096 164.186032 281.934076 164.516997 281.345036 165.106037 
C 280.755997 165.695076 280.425032 166.494097 280.425032 167.327124 
C 280.425032 168.160151 280.755997 168.959172 281.345036 169.548212 
C 281.934076 170.137251 282.733096 170.468216 283.566124 170.468216 
z
" clip-path="url(#p2e823a24a2)" style="fill: #d4d4d4; stroke: #ffffff; stroke-width: 0.388373"/>
    <path d="M 285.751637 201.498632 
C 286.537301 201.498632 287.290891 201.186485 287.84644 200.630936 
C 288.401988 200.075388 288.714135 199.321797 288.714135 198.536134 
C 288.714135 197.75047 288.401988 196.996879 287.84644 196.441331 
C 287.290891 195.885783 286.537301 195.573635 285.751637 195.573635 
C 284.965973 195.573635 284.212382 195.885783 283.656834 196.441331 
C 283.101286 196.996879 282.789138 197.75047 282.789138 198.536134 
C 282.789138 199.321797 283.101286 200.075388 283.656834 200.630936 
C 284.212382 201.186485 284.965973 201.498632 285.751637 201.498632 
z
" clip-path="url(#p2e823a24a2)" style="fill: #d4d4d4; stroke: #ffffff; stroke-width: 0.388373"/>
    <path d="M 282.785411 194.023354 
C 283.881366 194.023354 284.93258 193.587927 285.707537 192.81297 
C 286.482494 192.038013 286.917921 190.986799 286.917921 189.890844 
C 286.917921 188.79489 286.482494 187.743675 285.707537 186.968718 
C 284.93258 186.193761 283.881366 185.758334 282.785411 185.758334 
C 281.689457 185.758334 280.638242 186.193761 279.863285 186.968718 
C 279.088328 187.743675 278.652901 188.79489 278.652901 189.890844 
C 278.652901 190.986799 279.088328 192.038013 279.863285 192.81297 
C 280.638242 193.587927 281.689457 194.023354 282.785411 194.023354 
z
" clip-path="url(#p2e823a24a2)" style="fill: #d4d4d4; stroke: #ffffff; stroke-width: 0.388373"/>
    <path d="M 282.925045 162.462796 
C 283.672235 162.462796 284.388922 162.165934 284.917266 161.637591 
C 285.445609 161.109248 285.74247 160.39256 285.74247 159.64537 
C 285.74247 158.89818 285.445609 158.181492 284.917266 157.653149 
C 284.388922 157.124806 283.672235 156.827944 282.925045 156.827944 
C 282.177855 156.827944 281.461167 157.124806 280.932824 157.653149 
C 280.404481 158.181492 280.107619 158.89818 280.107619 159.64537 
C 280.107619 160.39256 280.404481 161.109248 280.932824 161.637591 
C 281.461167 162.165934 282.177855 162.462796 282.925045 162.462796 
z
" clip-path="url(#p2e823a24a2)" style="fill: #d4d4d4; stroke: #ffffff; stroke-width: 0.388373"/>
    <path d="M 284.259181 149.974596 
C 285.140372 149.974596 285.985591 149.624495 286.608688 149.001399 
C 287.231785 148.378302 287.581886 147.533083 287.581886 146.651891 
C 287.581886 145.770699 287.231785 144.92548 286.608688 144.302383 
C 285.985591 143.679286 285.140372 143.329185 284.259181 143.329185 
C 283.377989 143.329185 282.53277 143.679286 281.909673 144.302383 
C 281.286576 144.92548 280.936475 145.770699 280.936475 146.651891 
C 280.936475 147.533083 281.286576 148.378302 281.909673 149.001399 
C 282.53277 149.624495 283.377989 149.974596 284.259181 149.974596 
z
" clip-path="url(#p2e823a24a2)" style="fill: #d4d4d4; stroke: #ffffff; stroke-width: 0.388373"/>
    <path d="M 287.201401 131.430583 
C 288.134599 131.430583 289.029701 131.059819 289.689571 130.399949 
C 290.349442 129.740078 290.720205 128.844976 290.720205 127.911778 
C 290.720205 126.97858 290.349442 126.083478 289.689571 125.423607 
C 289.029701 124.763737 288.134599 124.392973 287.201401 124.392973 
C 286.268203 124.392973 285.3731 124.763737 284.71323 125.423607 
C 284.053359 126.083478 283.682596 126.97858 283.682596 127.911778 
C 283.682596 128.844976 284.053359 129.740078 284.71323 130.399949 
C 285.3731 131.059819 286.268203 131.430583 287.201401 131.430583 
z
" clip-path="url(#p2e823a24a2)" style="fill: #d4d4d4; stroke: #ffffff; stroke-width: 0.388373"/>
    <path d="M 388.016222 141.549972 
C 388.86329 141.549972 389.675778 141.213428 390.274746 140.614461 
C 390.873714 140.015493 391.210257 139.203005 391.210257 138.355936 
C 391.210257 137.508868 390.873714 136.69638 390.274746 136.097412 
C 389.675778 135.498445 388.86329 135.161901 388.016222 135.161901 
C 387.169154 135.161901 386.356665 135.498445 385.757697 136.097412 
C 385.15873 136.69638 384.822186 137.508868 384.822186 138.355936 
C 384.822186 139.203005 385.15873 140.015493 385.757697 140.614461 
C 386.356665 141.213428 387.169154 141.549972 388.016222 141.549972 
z
" clip-path="url(#p2e823a24a2)" style="fill: #06e1e9; stroke: #ffffff; stroke-width: 0.388373"/>
    <path d="M 391.240209 147.649766 
C 391.979464 147.649766 392.688541 147.356057 393.211273 146.833324 
C 393.734005 146.310592 394.027714 145.601516 394.027714 144.86226 
C 394.027714 144.123005 393.734005 143.413929 393.211273 142.891196 
C 392.688541 142.368464 391.979464 142.074755 391.240209 142.074755 
C 390.500954 142.074755 389.791877 142.368464 389.269145 142.891196 
C 388.746413 143.413929 388.452703 144.123005 388.452703 144.86226 
C 388.452703 145.601516 388.746413 146.310592 389.269145 146.833324 
C 389.791877 147.356057 390.500954 147.649766 391.240209 147.649766 
z
" clip-path="url(#p2e823a24a2)" style="fill: #06e1e9; stroke: #ffffff; stroke-width: 0.388373"/>
    <path d="M 388.88028 165.644841 
C 389.586905 165.644841 390.264683 165.364096 390.764342 164.864437 
C 391.264002 164.364778 391.544746 163.687 391.544746 162.980375 
C 391.544746 162.273751 391.264002 161.595972 390.764342 161.096313 
C 390.264683 160.596654 389.586905 160.315909 388.88028 160.315909 
C 388.173656 160.315909 387.495878 160.596654 386.996219 161.096313 
C 386.496559 161.595972 386.215815 162.273751 386.215815 162.980375 
C 386.215815 163.687 386.496559 164.364778 386.996219 164.864437 
C 387.495878 165.364096 388.173656 165.644841 388.88028 165.644841 
z
" clip-path="url(#p2e823a24a2)" style="fill: #06e1e9; stroke: #ffffff; stroke-width: 0.388373"/>
    <path d="M 390.250303 152.099939 
C 390.848449 152.099939 391.422178 151.862293 391.845131 151.439339 
C 392.268085 151.016386 392.505731 150.442657 392.505731 149.844511 
C 392.505731 149.246364 392.268085 148.672636 391.845131 148.249682 
C 391.422178 147.826729 390.848449 147.589083 390.250303 147.589083 
C 389.652156 147.589083 389.078428 147.826729 388.655474 148.249682 
C 388.232521 148.672636 387.994874 149.246364 387.994874 149.844511 
C 387.994874 150.442657 388.232521 151.016386 388.655474 151.439339 
C 389.078428 151.862293 389.652156 152.099939 390.250303 152.099939 
z
" clip-path="url(#p2e823a24a2)" style="fill: #06e1e9; stroke: #ffffff; stroke-width: 0.388373"/>
    <path d="M 391.12306 170.761373 
C 391.842095 170.761373 392.531776 170.475697 393.040211 169.967263 
C 393.548645 169.458829 393.83432 168.769147 393.83432 168.050113 
C 393.83432 167.331078 393.548645 166.641396 393.040211 166.132962 
C 392.531776 165.624528 391.842095 165.338853 391.12306 165.338853 
C 390.404026 165.338853 389.714344 165.624528 389.20591 166.132962 
C 388.697475 166.641396 388.4118 167.331078 388.4118 168.050113 
C 388.4118 168.769147 388.697475 169.458829 389.20591 169.967263 
C 389.714344 170.475697 390.404026 170.761373 391.12306 170.761373 
z
" clip-path="url(#p2e823a24a2)" style="fill: #06e1e9; stroke: #ffffff; stroke-width: 0.388373"/>
    <path d="M 390.4799 174.659221 
C 391.269308 174.659221 392.02649 174.345586 392.584686 173.78739 
C 393.142882 173.229194 393.456517 172.472012 393.456517 171.682604 
C 393.456517 170.893196 393.142882 170.136014 392.584686 169.577818 
C 392.02649 169.019622 391.269308 168.705987 390.4799 168.705987 
C 389.690492 168.705987 388.93331 169.019622 388.375114 169.577818 
C 387.816918 170.136014 387.503283 170.893196 387.503283 171.682604 
C 387.503283 172.472012 387.816918 173.229194 388.375114 173.78739 
C 388.93331 174.345586 389.690492 174.659221 390.4799 174.659221 
z
" clip-path="url(#p2e823a24a2)" style="fill: #06e1e9; stroke: #ffffff; stroke-width: 0.388373"/>
    <path d="M 389.456249 159.320972 
C 390.219061 159.320972 390.950734 159.017903 391.490124 158.478513 
C 392.029513 157.939124 392.332582 157.207451 392.332582 156.444639 
C 392.332582 155.681826 392.029513 154.950154 391.490124 154.410764 
C 390.950734 153.871374 390.219061 153.568306 389.456249 153.568306 
C 388.693436 153.568306 387.961764 153.871374 387.422374 154.410764 
C 386.882984 154.950154 386.579916 155.681826 386.579916 156.444639 
C 386.579916 157.207451 386.882984 157.939124 387.422374 158.478513 
C 387.961764 159.017903 388.693436 159.320972 389.456249 159.320972 
z
" clip-path="url(#p2e823a24a2)" style="fill: #06e1e9; stroke: #ffffff; stroke-width: 0.388373"/>
    <path d="M 393.504565 178.995593 
C 394.077532 178.995593 394.62711 178.767951 395.032259 178.362801 
C 395.437409 177.957652 395.665051 177.408074 395.665051 176.835107 
C 395.665051 176.262139 395.437409 175.712561 395.032259 175.307412 
C 394.62711 174.902263 394.077532 174.67462 393.504565 174.67462 
C 392.931597 174.67462 392.382019 174.902263 391.97687 175.307412 
C 391.571721 175.712561 391.344078 176.262139 391.344078 176.835107 
C 391.344078 177.408074 391.571721 177.957652 391.97687 178.362801 
C 392.382019 178.767951 392.931597 178.995593 393.504565 178.995593 
z
" clip-path="url(#p2e823a24a2)" style="fill: #06e1e9; stroke: #ffffff; stroke-width: 0.388373"/>
    <path d="M 392.736305 189.832936 
C 393.329501 189.832936 393.898482 189.597257 394.317935 189.177804 
C 394.737388 188.758351 394.973067 188.18937 394.973067 187.596174 
C 394.973067 187.002978 394.737388 186.433997 394.317935 186.014544 
C 393.898482 185.595091 393.329501 185.359412 392.736305 185.359412 
C 392.143109 185.359412 391.574128 185.595091 391.154675 186.014544 
C 390.735222 186.433997 390.499543 187.002978 390.499543 187.596174 
C 390.499543 188.18937 390.735222 188.758351 391.154675 189.177804 
C 391.574128 189.597257 392.143109 189.832936 392.736305 189.832936 
z
" clip-path="url(#p2e823a24a2)" style="fill: #06e1e9; stroke: #ffffff; stroke-width: 0.388373"/>
    <path d="M 304.76844 153.034479 
C 305.714193 153.034479 306.621338 152.658728 307.290086 151.98998 
C 307.958834 151.321231 308.334586 150.414087 308.334586 149.468334 
C 308.334586 148.522581 307.958834 147.615437 307.290086 146.946689 
C 306.621338 146.277941 305.714193 145.902189 304.76844 145.902189 
C 303.822688 145.902189 302.915543 146.277941 302.246795 146.946689 
C 301.578047 147.615437 301.202295 148.522581 301.202295 149.468334 
C 301.202295 150.414087 301.578047 151.321231 302.246795 151.98998 
C 302.915543 152.658728 303.822688 153.034479 304.76844 153.034479 
z
" clip-path="url(#p2e823a24a2)" style="fill: #06e1e9; stroke: #ffffff; stroke-width: 0.388373"/>
    <path d="M 305.486445 167.394825 
C 306.450723 167.394825 307.375637 167.011714 308.057485 166.329866 
C 308.739333 165.648018 309.122445 164.723104 309.122445 163.758825 
C 309.122445 162.794547 308.739333 161.869633 308.057485 161.187785 
C 307.375637 160.505937 306.450723 160.122825 305.486445 160.122825 
C 304.522166 160.122825 303.597252 160.505937 302.915405 161.187785 
C 302.233557 161.869633 301.850445 162.794547 301.850445 163.758825 
C 301.850445 164.723104 302.233557 165.648018 302.915405 166.329866 
C 303.597252 167.011714 304.522166 167.394825 305.486445 167.394825 
z
" clip-path="url(#p2e823a24a2)" style="fill: #06e1e9; stroke: #ffffff; stroke-width: 0.388373"/>
    <path d="M 310.088736 127.723206 
C 310.79536 127.723206 311.473138 127.442461 311.972798 126.942801 
C 312.472457 126.443142 312.753202 125.765364 312.753202 125.05874 
C 312.753202 124.352115 312.472457 123.674337 311.972798 123.174678 
C 311.473138 122.675019 310.79536 122.394274 310.088736 122.394274 
C 309.382111 122.394274 308.704333 122.675019 308.204674 123.174678 
C 307.705015 123.674337 307.42427 124.352115 307.42427 125.05874 
C 307.42427 125.765364 307.705015 126.443142 308.204674 126.942801 
C 308.704333 127.442461 309.382111 127.723206 310.088736 127.723206 
z
" clip-path="url(#p2e823a24a2)" style="fill: #06e1e9; stroke: #ffffff; stroke-width: 0.388373"/>
    <path d="M 309.790325 217.907506 
C 310.671517 217.907506 311.516736 217.557404 312.139833 216.934308 
C 312.76293 216.311211 313.113031 215.465992 313.113031 214.5848 
C 313.113031 213.703608 312.76293 212.858389 312.139833 212.235292 
C 311.516736 211.612196 310.671517 211.262094 309.790325 211.262094 
C 308.909133 211.262094 308.063914 211.612196 307.440818 212.235292 
C 306.817721 212.858389 306.46762 213.703608 306.46762 214.5848 
C 306.46762 215.465992 306.817721 216.311211 307.440818 216.934308 
C 308.063914 217.557404 308.909133 217.907506 309.790325 217.907506 
z
" clip-path="url(#p2e823a24a2)" style="fill: #06e1e9; stroke: #ffffff; stroke-width: 0.388373"/>
    <path d="M 303.887816 197.885998 
C 304.450397 197.885998 304.990011 197.662482 305.387816 197.264677 
C 305.785621 196.866873 306.009136 196.327258 306.009136 195.764677 
C 306.009136 195.202096 305.785621 194.662482 305.387816 194.264677 
C 304.990011 193.866873 304.450397 193.643357 303.887816 193.643357 
C 303.325235 193.643357 302.785621 193.866873 302.387816 194.264677 
C 301.990011 194.662482 301.766496 195.202096 301.766496 195.764677 
C 301.766496 196.327258 301.990011 196.866873 302.387816 197.264677 
C 302.785621 197.662482 303.325235 197.885998 303.887816 197.885998 
z
" clip-path="url(#p2e823a24a2)" style="fill: #06e1e9; stroke: #ffffff; stroke-width: 0.388373"/>
    <path d="M 306.103196 193.214458 
C 306.818118 193.214458 307.503855 192.930417 308.009381 192.424891 
C 308.514907 191.919365 308.798948 191.233628 308.798948 190.518706 
C 308.798948 189.803784 308.514907 189.118047 308.009381 188.612521 
C 307.503855 188.106995 306.818118 187.822954 306.103196 187.822954 
C 305.388274 187.822954 304.702537 188.106995 304.197011 188.612521 
C 303.691485 189.118047 303.407444 189.803784 303.407444 190.518706 
C 303.407444 191.233628 303.691485 191.919365 304.197011 192.424891 
C 304.702537 192.930417 305.388274 193.214458 306.103196 193.214458 
z
" clip-path="url(#p2e823a24a2)" style="fill: #06e1e9; stroke: #ffffff; stroke-width: 0.388373"/>
    <path d="M 302.928326 165.305313 
C 303.775394 165.305313 304.587883 164.968769 305.18685 164.369802 
C 305.785818 163.770834 306.122362 162.958346 306.122362 162.111277 
C 306.122362 161.264209 305.785818 160.451721 305.18685 159.852753 
C 304.587883 159.253786 303.775394 158.917242 302.928326 158.917242 
C 302.081258 158.917242 301.26877 159.253786 300.669802 159.852753 
C 300.070834 160.451721 299.734291 161.264209 299.734291 162.111277 
C 299.734291 162.958346 300.070834 163.770834 300.669802 164.369802 
C 301.26877 164.968769 302.081258 165.305313 302.928326 165.305313 
z
" clip-path="url(#p2e823a24a2)" style="fill: #06e1e9; stroke: #ffffff; stroke-width: 0.388373"/>
    <path d="M 308.035692 130.098705 
C 308.858031 130.098705 309.646801 129.771986 310.228282 129.190505 
C 310.809764 128.609023 311.136483 127.820254 311.136483 126.997914 
C 311.136483 126.175575 310.809764 125.386805 310.228282 124.805324 
C 309.646801 124.223842 308.858031 123.897123 308.035692 123.897123 
C 307.213352 123.897123 306.424583 124.223842 305.843101 124.805324 
C 305.261619 125.386805 304.934901 126.175575 304.934901 126.997914 
C 304.934901 127.820254 305.261619 128.609023 305.843101 129.190505 
C 306.424583 129.771986 307.213352 130.098705 308.035692 130.098705 
z
" clip-path="url(#p2e823a24a2)" style="fill: #06e1e9; stroke: #ffffff; stroke-width: 0.388373"/>
    <path d="M 307.183842 157.928081 
C 307.864968 157.928081 308.51829 157.657466 308.999919 157.175837 
C 309.481548 156.694207 309.752163 156.040886 309.752163 155.359759 
C 309.752163 154.678633 309.481548 154.025312 308.999919 153.543682 
C 308.51829 153.062053 307.864968 152.791438 307.183842 152.791438 
C 306.502715 152.791438 305.849394 153.062053 305.367764 153.543682 
C 304.886135 154.025312 304.615521 154.678633 304.615521 155.359759 
C 304.615521 156.040886 304.886135 156.694207 305.367764 157.175837 
C 305.849394 157.657466 306.502715 157.928081 307.183842 157.928081 
z
" clip-path="url(#p2e823a24a2)" style="fill: #06e1e9; stroke: #ffffff; stroke-width: 0.388373"/>
   </g>
   <g id="PathCollection_10"/>
   <g id="PathCollection_11"/>
   <g id="PathCollection_12"/>
   <g id="PathCollection_13"/>
   <g id="PathCollection_14"/>
   <g id="PathCollection_15"/>
   <g id="PathCollection_16"/>
   <g id="PathCollection_17"/>
   <g id="matplotlib.axis_3">
    <g id="xtick_3">
     <g id="line2d_22">
      <g>
       <use xlink:href="#mf1f2e95a9a" x="295.646235" y="222.1238" style="stroke: #000000; stroke-width: 0.8"/>
      </g>
     </g>
     <g id="text_17">
      <text style="font: 8px 'Arial', sans-serif; text-anchor: middle" x="295.646235" y="234.85005" transform="rotate(-0 295.646235 234.85005)">Male</text>
     </g>
    </g>
    <g id="xtick_4">
     <g id="line2d_23">
      <g>
       <use xlink:href="#mf1f2e95a9a" x="380.057515" y="222.1238" style="stroke: #000000; stroke-width: 0.8"/>
      </g>
     </g>
     <g id="text_18">
      <text style="font: 8px 'Arial', sans-serif; text-anchor: middle" x="380.057515" y="234.85005" transform="rotate(-0 380.057515 234.85005)">Female</text>
     </g>
    </g>
   </g>
   <g id="matplotlib.axis_4">
    <g id="ytick_8">
     <g id="line2d_24">
      <g>
       <use xlink:href="#m117b05323e" x="251.330313" y="202.970464" style="stroke: #000000; stroke-width: 0.8"/>
      </g>
     </g>
     <g id="text_19">
      <text style="font: 6px 'Arial', sans-serif; text-anchor: end" x="244.330313" y="205.117808" transform="rotate(-0 244.330313 205.117808)">0.4</text>
     </g>
    </g>
    <g id="ytick_9">
     <g id="line2d_25">
      <g>
       <use xlink:href="#m117b05323e" x="251.330313" y="174.701608" style="stroke: #000000; stroke-width: 0.8"/>
      </g>
     </g>
     <g id="text_20">
      <text style="font: 6px 'Arial', sans-serif; text-anchor: end" x="244.330313" y="176.848952" transform="rotate(-0 244.330313 176.848952)">0.6</text>
     </g>
    </g>
    <g id="ytick_10">
     <g id="line2d_26">
      <g>
       <use xlink:href="#m117b05323e" x="251.330313" y="146.432752" style="stroke: #000000; stroke-width: 0.8"/>
      </g>
     </g>
     <g id="text_21">
      <text style="font: 6px 'Arial', sans-serif; text-anchor: end" x="244.330313" y="148.580096" transform="rotate(-0 244.330313 148.580096)">0.8</text>
     </g>
    </g>
    <g id="ytick_11">
     <g id="line2d_27">
      <g>
       <use xlink:href="#m117b05323e" x="251.330313" y="118.163897" style="stroke: #000000; stroke-width: 0.8"/>
      </g>
     </g>
     <g id="text_22">
      <text style="font: 6px 'Arial', sans-serif; text-anchor: end" x="244.330313" y="120.31124" transform="rotate(-0 244.330313 120.31124)">1.0</text>
     </g>
    </g>
    <g id="ytick_12">
     <g id="line2d_28">
      <g>
       <use xlink:href="#m117b05323e" x="251.330313" y="89.895041" style="stroke: #000000; stroke-width: 0.8"/>
      </g>
     </g>
     <g id="text_23">
      <text style="font: 6px 'Arial', sans-serif; text-anchor: end" x="244.330313" y="92.042385" transform="rotate(-0 244.330313 92.042385)">1.2</text>
     </g>
    </g>
    <g id="ytick_13">
     <g id="line2d_29">
      <g>
       <use xlink:href="#m117b05323e" x="251.330313" y="61.626185" style="stroke: #000000; stroke-width: 0.8"/>
      </g>
     </g>
     <g id="text_24">
      <text style="font: 6px 'Arial', sans-serif; text-anchor: end" x="244.330313" y="63.773529" transform="rotate(-0 244.330313 63.773529)">1.4</text>
     </g>
    </g>
    <g id="text_25">
     <text style="font: 8px 'Arial', sans-serif; text-anchor: middle" x="230.400313" y="139.1948" transform="rotate(-90 230.400313 139.1948)">Burst Preference Index</text>
    </g>
   </g>
   <g id="line2d_30">
    <path d="M 364.79162 170.532014 
L 373.232748 170.532014 
" clip-path="url(#p2e823a24a2)" style="fill: none; stroke: #000000; stroke-opacity: 0.5; stroke-width: 1.5; stroke-linecap: square"/>
   </g>
   <g id="line2d_31">
    <path d="M 280.332566 156.041929 
L 288.773694 156.041929 
" clip-path="url(#p2e823a24a2)" style="fill: none; stroke: #000000; stroke-opacity: 0.5; stroke-width: 1.5; stroke-linecap: square"/>
   </g>
   <g id="line2d_32">
    <path d="M 386.411335 159.635031 
L 394.852463 159.635031 
" clip-path="url(#p2e823a24a2)" style="fill: none; stroke: #000000; stroke-opacity: 0.5; stroke-width: 1.5; stroke-linecap: square"/>
   </g>
   <g id="line2d_33">
    <path d="M 302.254193 163.9494 
L 310.695322 163.9494 
" clip-path="url(#p2e823a24a2)" style="fill: none; stroke: #000000; stroke-opacity: 0.5; stroke-width: 1.5; stroke-linecap: square"/>
   </g>
   <g id="line2d_34">
    <path d="M 306.197645 70.553192 
L 306.197645 63.8048 
L 390.608925 63.8048 
L 390.608925 70.553192 
" clip-path="url(#p2e823a24a2)" style="fill: none; stroke: #000000; stroke-width: 0.5; stroke-linecap: square"/>
   </g>
   <g id="line2d_35">
    <path d="M 285.094825 90.798369 
L 285.094825 84.049977 
L 369.506105 84.049977 
L 369.506105 90.798369 
" clip-path="url(#p2e823a24a2)" style="fill: none; stroke: #000000; stroke-width: 0.5; stroke-linecap: square"/>
   </g>
   <g id="line2d_36">
    <path d="M 369.506105 111.043546 
L 369.506105 104.295154 
L 390.608925 104.295154 
L 390.608925 111.043546 
" clip-path="url(#p2e823a24a2)" style="fill: none; stroke: #000000; stroke-width: 0.5; stroke-linecap: square"/>
   </g>
   <g id="line2d_37">
    <path d="M 285.094825 111.043546 
L 285.094825 104.295154 
L 306.197645 104.295154 
L 306.197645 111.043546 
" clip-path="url(#p2e823a24a2)" style="fill: none; stroke: #000000; stroke-width: 0.5; stroke-linecap: square"/>
   </g>
   <g id="patch_10">
    <path d="M 251.330313 222.1238 
L 251.330313 56.2658 
" style="fill: none; stroke: #000000; stroke-width: 0.8; stroke-linejoin: miter; stroke-linecap: square"/>
   </g>
   <g id="patch_11">
    <path d="M 251.330312 222.1238 
L 424.373437 222.1238 
" style="fill: none; stroke: #000000; stroke-width: 0.8; stroke-linejoin: miter; stroke-linecap: square"/>
   </g>
   <g id="text_26">
    <text style="font: 8px 'Arial', sans-serif; text-anchor: middle" x="348.403285" y="62.2148" transform="rotate(-0 348.403285 62.2148)">ns</text>
   </g>
   <g id="text_27">
    <text style="font: 8px 'Arial', sans-serif; text-anchor: middle" x="327.300465" y="82.459977" transform="rotate(-0 327.300465 82.459977)">****</text>
   </g>
   <g id="text_28">
    <text style="font: 8px 'Arial', sans-serif; text-anchor: middle" x="380.057515" y="102.705154" transform="rotate(-0 380.057515 102.705154)">**</text>
   </g>
   <g id="text_29">
    <text style="font: 8px 'Arial', sans-serif; text-anchor: middle" x="295.646235" y="102.705154" transform="rotate(-0 295.646235 102.705154)">**</text>
   </g>
   <g id="legend_2">
    <g id="text_30">
     <text style="font: 8px 'Arial', sans-serif; text-anchor: start" x="453.973437" y="69.19205" transform="rotate(-0 453.973437 69.19205)">Strain</text>
    </g>
    <g id="PathCollection_18">
     <defs>
      <path id="md5e359723f" d="M 0 3 
C 0.795609 3 1.55874 2.683901 2.12132 2.12132 
C 2.683901 1.55874 3 0.795609 3 0 
C 3 -0.795609 2.683901 -1.55874 2.12132 -2.12132 
C 1.55874 -2.683901 0.795609 -3 0 -3 
C -0.795609 -3 -1.55874 -2.683901 -2.12132 -2.12132 
C -2.683901 -1.55874 -3 -0.795609 -3 0 
C -3 0.795609 -2.683901 1.55874 -2.12132 2.12132 
C -1.55874 2.683901 -0.795609 3 0 3 
z
" style="stroke: #d4d4d4"/>
     </defs>
     <g>
      <use xlink:href="#md5e359723f" x="439.573437" y="80.04205" style="fill: #d4d4d4; stroke: #d4d4d4"/>
     </g>
    </g>
    <g id="text_31">
     <!-- $AgRP^{TdTomato}$ -->
     <g transform="translate(453.973437 82.14205)">
      <text>
       <tspan style="font: oblique 8px 'DejaVu Sans'" x="0 5.472656 10.550781 16.109375" y="-0.6828125000000007">AgRP</tspan>
       <tspan style="font: oblique 5.6px 'DejaVu Sans'" x="21.494323 24.915026 28.469714 31.890417 35.316589 40.771667 44.203307 46.39901" y="-3.7453125000000007">TdTomato</tspan>
      </text>
     </g>
    </g>
    <g id="PathCollection_19">
     <defs>
      <path id="m9fe9f5f5b9" d="M 0 3 
C 0.795609 3 1.55874 2.683901 2.12132 2.12132 
C 2.683901 1.55874 3 0.795609 3 0 
C 3 -0.795609 2.683901 -1.55874 2.12132 -2.12132 
C 1.55874 -2.683901 0.795609 -3 0 -3 
C -0.795609 -3 -1.55874 -2.683901 -2.12132 -2.12132 
C -2.683901 -1.55874 -3 -0.795609 -3 0 
C -3 0.795609 -2.683901 1.55874 -2.12132 2.12132 
C -1.55874 2.683901 -0.795609 3 0 3 
z
" style="stroke: #06e1e9"/>
     </defs>
     <g>
      <use xlink:href="#m9fe9f5f5b9" x="439.573437" y="93.08205" style="fill: #06e1e9; stroke: #06e1e9"/>
     </g>
    </g>
    <g id="text_32">
     <!-- $AgRP^{Chr2}$ -->
     <g transform="translate(453.973437 95.18205)">
      <text>
       <tspan style="font: oblique 8px 'DejaVu Sans'" x="0 5.472656 10.550781 16.109375" y="-0.6828125000000007">AgRP</tspan>
       <tspan style="font: oblique 5.6px 'DejaVu Sans'" x="21.494323 25.404479 28.953698" y="-3.7453125000000007">Chr</tspan>
       <tspan style="font: 5.6px 'DejaVu Sans'" x="31.256042" y="-3.7453125000000007">2</tspan>
      </text>
     </g>
    </g>
    <g id="text_33">
     <text style="font: 8px 'Arial', sans-serif; text-anchor: start" x="453.973437" y="106.5883" transform="rotate(-0 453.973437 106.5883)">Total Lick Bursts</text>
    </g>
    <g id="PathCollection_20">
     <defs>
      <path id="m81edd88bb1" d="M 0 2.292304 
C 0.607926 2.292304 1.191035 2.050773 1.620904 1.620904 
C 2.050773 1.191035 2.292304 0.607926 2.292304 0 
C 2.292304 -0.607926 2.050773 -1.191035 1.620904 -1.620904 
C 1.191035 -2.050773 0.607926 -2.292304 0 -2.292304 
C -0.607926 -2.292304 -1.191035 -2.050773 -1.620904 -1.620904 
C -2.050773 -1.191035 -2.292304 -0.607926 -2.292304 0 
C -2.292304 0.607926 -2.050773 1.191035 -1.620904 1.620904 
C -1.191035 2.050773 -0.607926 2.292304 0 2.292304 
z
" style="stroke: #333333"/>
     </defs>
     <g>
      <use xlink:href="#m81edd88bb1" x="439.573437" y="115.80455" style="fill: #333333; stroke: #333333"/>
     </g>
    </g>
    <g id="text_34">
     <text style="font: 8px 'Arial', sans-serif; text-anchor: start" x="453.973437" y="117.90455" transform="rotate(-0 453.973437 117.90455)">60</text>
    </g>
    <g id="PathCollection_21">
     <defs>
      <path id="m790854ec21" d="M 0 2.787505 
C 0.739255 2.787505 1.448332 2.493796 1.971064 1.971064 
C 2.493796 1.448332 2.787505 0.739255 2.787505 0 
C 2.787505 -0.739255 2.493796 -1.448332 1.971064 -1.971064 
C 1.448332 -2.493796 0.739255 -2.787505 0 -2.787505 
C -0.739255 -2.787505 -1.448332 -2.493796 -1.971064 -1.971064 
C -2.493796 -1.448332 -2.787505 -0.739255 -2.787505 0 
C -2.787505 0.739255 -2.493796 1.448332 -1.971064 1.971064 
C -1.448332 2.493796 -0.739255 2.787505 0 2.787505 
z
" style="stroke: #333333"/>
     </defs>
     <g>
      <use xlink:href="#m790854ec21" x="439.573437" y="127.1208" style="fill: #333333; stroke: #333333"/>
     </g>
    </g>
    <g id="text_35">
     <text style="font: 8px 'Arial', sans-serif; text-anchor: start" x="453.973437" y="129.2208" transform="rotate(-0 453.973437 129.2208)">90</text>
    </g>
    <g id="PathCollection_22">
     <defs>
      <path id="m0e20cfe306" d="M 0 3.207135 
C 0.850542 3.207135 1.666363 2.869211 2.267787 2.267787 
C 2.869211 1.666363 3.207135 0.850542 3.207135 0 
C 3.207135 -0.850542 2.869211 -1.666363 2.267787 -2.267787 
C 1.666363 -2.869211 0.850542 -3.207135 0 -3.207135 
C -0.850542 -3.207135 -1.666363 -2.869211 -2.267787 -2.267787 
C -2.869211 -1.666363 -3.207135 -0.850542 -3.207135 0 
C -3.207135 0.850542 -2.869211 1.666363 -2.267787 2.267787 
C -1.666363 2.869211 -0.850542 3.207135 0 3.207135 
z
" style="stroke: #333333"/>
     </defs>
     <g>
      <use xlink:href="#m0e20cfe306" x="439.573437" y="138.43705" style="fill: #333333; stroke: #333333"/>
     </g>
    </g>
    <g id="text_36">
     <text style="font: 8px 'Arial', sans-serif; text-anchor: start" x="453.973437" y="140.53705" transform="rotate(-0 453.973437 140.53705)">120</text>
    </g>
    <g id="PathCollection_23">
     <defs>
      <path id="mfa37547f0a" d="M 0 3.577882 
C 0.948865 3.577882 1.858996 3.200894 2.529945 2.529945 
C 3.200894 1.858996 3.577882 0.948865 3.577882 0 
C 3.577882 -0.948865 3.200894 -1.858996 2.529945 -2.529945 
C 1.858996 -3.200894 0.948865 -3.577882 0 -3.577882 
C -0.948865 -3.577882 -1.858996 -3.200894 -2.529945 -2.529945 
C -3.200894 -1.858996 -3.577882 -0.948865 -3.577882 0 
C -3.577882 0.948865 -3.200894 1.858996 -2.529945 2.529945 
C -1.858996 3.200894 -0.948865 3.577882 0 3.577882 
z
" style="stroke: #333333"/>
     </defs>
     <g>
      <use xlink:href="#mfa37547f0a" x="439.573437" y="149.7533" style="fill: #333333; stroke: #333333"/>
     </g>
    </g>
    <g id="text_37">
     <text style="font: 8px 'Arial', sans-serif; text-anchor: start" x="453.973437" y="151.8533" transform="rotate(-0 453.973437 151.8533)">150</text>
    </g>
    <g id="PathCollection_24">
     <defs>
      <path id="me8aeda4492" d="M 0 3.913665 
C 1.037916 3.913665 2.033461 3.501296 2.767379 2.767379 
C 3.501296 2.033461 3.913665 1.037916 3.913665 0 
C 3.913665 -1.037916 3.501296 -2.033461 2.767379 -2.767379 
C 2.033461 -3.501296 1.037916 -3.913665 0 -3.913665 
C -1.037916 -3.913665 -2.033461 -3.501296 -2.767379 -2.767379 
C -3.501296 -2.033461 -3.913665 -1.037916 -3.913665 0 
C -3.913665 1.037916 -3.501296 2.033461 -2.767379 2.767379 
C -2.033461 3.501296 -1.037916 3.913665 0 3.913665 
z
" style="stroke: #333333"/>
     </defs>
     <g>
      <use xlink:href="#me8aeda4492" x="439.573437" y="161.06955" style="fill: #333333; stroke: #333333"/>
     </g>
    </g>
    <g id="text_38">
     <text style="font: 8px 'Arial', sans-serif; text-anchor: start" x="453.973437" y="163.16955" transform="rotate(-0 453.973437 163.16955)">180</text>
    </g>
    <g id="PathCollection_25">
     <defs>
      <path id="me9fd807ad2" d="M 0 4.222831 
C 1.119908 4.222831 2.194098 3.777887 2.985992 2.985992 
C 3.777887 2.194098 4.222831 1.119908 4.222831 0 
C 4.222831 -1.119908 3.777887 -2.194098 2.985992 -2.985992 
C 2.194098 -3.777887 1.119908 -4.222831 0 -4.222831 
C -1.119908 -4.222831 -2.194098 -3.777887 -2.985992 -2.985992 
C -3.777887 -2.194098 -4.222831 -1.119908 -4.222831 0 
C -4.222831 1.119908 -3.777887 2.194098 -2.985992 2.985992 
C -2.194098 3.777887 -1.119908 4.222831 0 4.222831 
z
" style="stroke: #333333"/>
     </defs>
     <g>
      <use xlink:href="#me9fd807ad2" x="439.573437" y="172.3858" style="fill: #333333; stroke: #333333"/>
     </g>
    </g>
    <g id="text_39">
     <text style="font: 8px 'Arial', sans-serif; text-anchor: start" x="453.973437" y="174.4858" transform="rotate(-0 453.973437 174.4858)">210</text>
    </g>
   </g>
  </g>
 </g>
 <defs>
  <clipPath id="p9529b4d4fe">
   <rect x="35.717188" y="56.2658" width="173.043125" height="165.858"/>
  </clipPath>
  <clipPath id="p2e823a24a2">
   <rect x="251.330313" y="56.2658" width="173.043125" height="165.858"/>
  </clipPath>
 </defs>
</svg>
