<?xml version="1.0" encoding="utf-8" standalone="no"?>
<!DOCTYPE svg PUBLIC "-//W3C//DTD SVG 1.1//EN"
  "http://www.w3.org/Graphics/SVG/1.1/DTD/svg11.dtd">
<svg xmlns:xlink="http://www.w3.org/1999/xlink" width="126pt" height="121.554688pt" viewBox="0 0 126 121.554688" xmlns="http://www.w3.org/2000/svg" version="1.1">
 <metadata>
  <rdf:RDF xmlns:dc="http://purl.org/dc/elements/1.1/" xmlns:cc="http://creativecommons.org/ns#" xmlns:rdf="http://www.w3.org/1999/02/22-rdf-syntax-ns#">
   <cc:Work>
    <dc:type rdf:resource="http://purl.org/dc/dcmitype/StillImage"/>
    <dc:date>2023-10-17T22:51:01.045956</dc:date>
    <dc:format>image/svg+xml</dc:format>
    <dc:creator>
     <cc:Agent>
      <dc:title>Matplotlib v3.6.2, https://matplotlib.org/</dc:title>
     </cc:Agent>
    </dc:creator>
   </cc:Work>
  </rdf:RDF>
 </metadata>
 <defs>
  <style type="text/css">*{stroke-linejoin: round; stroke-linecap: butt}</style>
 </defs>
 <g id="figure_1">
  <g id="patch_1">
   <path d="M 0 121.554688 
L 126 121.554688 
L 126 0 
L 0 0 
L 0 121.554688 
z
" style="fill: none"/>
  </g>
  <g id="axes_1">
   <g id="patch_2">
    <path d="M 7.2 90.36 
L 118.8 90.36 
L 118.8 7.2 
L 7.2 7.2 
L 7.2 90.36 
z
" style="fill: none"/>
   </g>
   <g id="PolyCollection_1">
    <defs>
     <path id="mac258b8f58" d="M 12.272727 -92.683419 
L 12.272727 -96.902599 
L 12.441818 -96.417244 
L 12.610909 -99.852562 
L 12.78 -96.90565 
L 12.949091 -99.013422 
L 13.118182 -98.926676 
L 13.287273 -97.316332 
L 13.456364 -100.946313 
L 13.625455 -96.762956 
L 13.794545 -98.559104 
L 13.963636 -95.660803 
L 14.132727 -96.618317 
L 14.301818 -97.385717 
L 14.470909 -92.502157 
L 14.64 -98.290812 
L 14.809091 -97.199904 
L 14.978182 -100.861788 
L 15.147273 -98.964802 
L 15.316364 -101.21658 
L 15.485455 -97.64825 
L 15.654545 -102.78711 
L 15.823636 -94.79351 
L 15.992727 -97.181602 
L 16.161818 -103.21852 
L 16.330909 -100.464925 
L 16.5 -98.16841 
L 16.669091 -97.438444 
L 16.838182 -99.420563 
L 17.007273 -100.430225 
L 17.176364 -92.258622 
L 17.345455 -97.492472 
L 17.514545 -98.70706 
L 17.683636 -101.385848 
L 17.852727 -99.617976 
L 18.021818 -97.950336 
L 18.190909 -101.587178 
L 18.36 -98.831122 
L 18.529091 -100.302374 
L 18.698182 -101.8915 
L 18.867273 -98.147684 
L 19.036364 -97.386371 
L 19.205455 -94.779893 
L 19.374545 -100.069627 
L 19.543636 -98.095859 
L 19.712727 -94.380466 
L 19.881818 -98.025876 
L 20.050909 -96.539 
L 20.22 -93.68781 
L 20.389091 -100.793571 
L 20.558182 -103.022542 
L 20.727273 -99.355563 
L 20.896364 -97.819957 
L 21.065455 -98.305487 
L 21.234545 -100.131412 
L 21.403636 -97.934764 
L 21.572727 -96.668958 
L 21.741818 -95.328968 
L 21.910909 -93.94263 
L 22.08 -98.80585 
L 22.249091 -95.749069 
L 22.418182 -97.497168 
L 22.587273 -96.254552 
L 22.756364 -99.087055 
L 22.925455 -98.191269 
L 23.094545 -98.845292 
L 23.263636 -98.47289 
L 23.432727 -96.79351 
L 23.601818 -97.856785 
L 23.770909 -95.842448 
L 23.94 -93.249225 
L 24.109091 -97.198345 
L 24.278182 -90.499856 
L 24.447273 -98.7048 
L 24.616364 -100.112648 
L 24.785455 -91.391565 
L 24.954545 -92.433452 
L 25.123636 -95.97526 
L 25.292727 -90.429223 
L 25.461818 -95.423856 
L 25.630909 -97.295066 
L 25.8 -94.145817 
L 25.969091 -93.923538 
L 26.138182 -94.10186 
L 26.307273 -95.792868 
L 26.476364 -96.139512 
L 26.645455 -97.950662 
L 26.814545 -94.268601 
L 26.983636 -94.28101 
L 27.152727 -97.845033 
L 27.321818 -94.867231 
L 27.490909 -92.534958 
L 27.66 -93.530928 
L 27.829091 -93.097027 
L 27.998182 -98.459896 
L 28.167273 -94.409374 
L 28.336364 -96.840049 
L 28.505455 -93.757905 
L 28.674545 -95.698148 
L 28.843636 -95.109488 
L 29.012727 -95.985154 
L 29.181818 -92.07217 
L 29.350909 -98.991767 
L 29.52 -97.050797 
L 29.689091 -94.767956 
L 29.858182 -94.58962 
L 30.027273 -99.232546 
L 30.196364 -93.365068 
L 30.365455 -89.910543 
L 30.534545 -93.768487 
L 30.703636 -93.004661 
L 30.872727 -93.847831 
L 31.041818 -97.565008 
L 31.210909 -95.442207 
L 31.38 -96.236785 
L 31.549091 -92.113815 
L 31.718182 -93.728139 
L 31.887273 -95.82378 
L 32.056364 -95.352006 
L 32.225455 -93.970258 
L 32.394545 -93.473522 
L 32.563636 -94.97318 
L 32.732727 -91.104695 
L 32.901818 -92.687528 
L 33.070909 -92.996864 
L 33.24 -90.638577 
L 33.409091 -94.822806 
L 33.578182 -91.989787 
L 33.747273 -94.144751 
L 33.916364 -92.051027 
L 34.085455 -91.634102 
L 34.254545 -93.559016 
L 34.423636 -93.028913 
L 34.592727 -94.930118 
L 34.761818 -93.640391 
L 34.930909 -92.397541 
L 35.1 -91.862055 
L 35.269091 -93.682144 
L 35.438182 -95.563039 
L 35.607273 -99.893436 
L 35.776364 -92.467562 
L 35.945455 -92.940871 
L 36.114545 -91.654248 
L 36.283636 -89.943242 
L 36.452727 -92.808206 
L 36.621818 -93.789903 
L 36.790909 -95.851132 
L 36.96 -100.985839 
L 37.129091 -92.467446 
L 37.298182 -92.328117 
L 37.467273 -95.212945 
L 37.636364 -90.842209 
L 37.805455 -90.672673 
L 37.974545 -96.104009 
L 38.143636 -94.330438 
L 38.312727 -91.317658 
L 38.481818 -94.19612 
L 38.650909 -91.788426 
L 38.82 -91.696197 
L 38.989091 -89.318234 
L 39.158182 -95.392285 
L 39.327273 -88.553224 
L 39.496364 -96.177818 
L 39.665455 -97.380307 
L 39.834545 -94.538991 
L 40.003636 -92.475728 
L 40.172727 -95.144827 
L 40.341818 -96.41844 
L 40.510909 -93.563174 
L 40.68 -89.691199 
L 40.849091 -95.13242 
L 41.018182 -92.451391 
L 41.187273 -90.638055 
L 41.356364 -92.557281 
L 41.525455 -96.054 
L 41.694545 -96.669274 
L 41.863636 -98.194409 
L 42.032727 -95.277415 
L 42.201818 -90.164219 
L 42.370909 -94.753108 
L 42.54 -88.915384 
L 42.709091 -90.928017 
L 42.878182 -93.923986 
L 43.047273 -95.736241 
L 43.216364 -93.569373 
L 43.385455 -95.569572 
L 43.554545 -93.063684 
L 43.723636 -91.236043 
L 43.892727 -95.962735 
L 44.061818 -94.104822 
L 44.230909 -91.634925 
L 44.4 -90.224047 
L 44.569091 -91.241802 
L 44.738182 -92.180238 
L 44.907273 -91.669766 
L 45.076364 -93.209484 
L 45.245455 -91.545238 
L 45.414545 -86.478549 
L 45.583636 -90.692967 
L 45.752727 -87.433934 
L 45.921818 -90.741724 
L 46.090909 -93.342607 
L 46.26 -91.497944 
L 46.429091 -93.542276 
L 46.598182 -88.234333 
L 46.767273 -89.294839 
L 46.936364 -90.774887 
L 47.105455 -93.298349 
L 47.274545 -90.774645 
L 47.443636 -92.952233 
L 47.612727 -93.785814 
L 47.781818 -92.818023 
L 47.950909 -94.160249 
L 48.12 -97.017976 
L 48.289091 -92.704584 
L 48.458182 -90.965038 
L 48.627273 -91.610815 
L 48.796364 -90.086363 
L 48.965455 -92.225387 
L 49.134545 -89.10079 
L 49.303636 -92.748258 
L 49.472727 -91.552672 
L 49.641818 -96.575574 
L 49.810909 -95.318203 
L 49.98 -89.88764 
L 50.149091 -91.503271 
L 50.318182 -95.294863 
L 50.487273 -91.631479 
L 50.656364 -97.189637 
L 50.825455 -95.630105 
L 50.994545 -89.056085 
L 51.163636 -92.463295 
L 51.332727 -91.325344 
L 51.501818 -90.334628 
L 51.670909 -91.655641 
L 51.84 -93.545592 
L 52.009091 -88.42955 
L 52.178182 -93.388683 
L 52.347273 -89.472536 
L 52.516364 -90.661724 
L 52.685455 -94.004337 
L 52.854545 -92.289596 
L 53.023636 -90.207513 
L 53.192727 -88.502195 
L 53.361818 -85.483769 
L 53.530909 -88.91047 
L 53.7 -91.792125 
L 53.869091 -89.344907 
L 54.038182 -90.750185 
L 54.207273 -90.028045 
L 54.376364 -93.310734 
L 54.545455 -88.822239 
L 54.714545 -89.336449 
L 54.883636 -93.05999 
L 55.052727 -89.648632 
L 55.221818 -91.852248 
L 55.390909 -89.178743 
L 55.56 -88.239658 
L 55.729091 -88.219711 
L 55.898182 -91.769595 
L 56.067273 -87.278918 
L 56.236364 -90.0603 
L 56.405455 -90.856621 
L 56.574545 -90.217044 
L 56.743636 -93.290051 
L 56.912727 -89.145716 
L 57.081818 -89.111713 
L 57.250909 -92.015469 
L 57.42 -90.494828 
L 57.589091 -89.36823 
L 57.758182 -88.009037 
L 57.927273 -93.372141 
L 58.096364 -90.094691 
L 58.265455 -90.774683 
L 58.434545 -88.799208 
L 58.603636 -94.579514 
L 58.772727 -94.745796 
L 58.941818 -92.240604 
L 59.110909 -90.316669 
L 59.28 -87.169963 
L 59.449091 -88.44559 
L 59.618182 -90.467362 
L 59.787273 -86.702757 
L 59.956364 -89.642614 
L 60.125455 -90.020283 
L 60.294545 -87.27444 
L 60.463636 -89.640118 
L 60.632727 -92.867236 
L 60.801818 -89.881918 
L 60.970909 -88.565272 
L 61.14 -86.393012 
L 61.309091 -89.170459 
L 61.478182 -91.414653 
L 61.647273 -91.914614 
L 61.816364 -88.163469 
L 61.985455 -89.43102 
L 62.154545 -84.735814 
L 62.323636 -90.446783 
L 62.492727 -88.035668 
L 62.661818 -90.519942 
L 62.830909 -88.097265 
L 63 -89.939807 
L 63.169091 -90.119057 
L 63.338182 -89.225229 
L 63.507273 -90.766672 
L 63.676364 -91.029434 
L 63.845455 -90.402729 
L 64.014545 -97.188181 
L 64.183636 -90.04559 
L 64.352727 -93.257248 
L 64.521818 -93.3365 
L 64.690909 -91.816338 
L 64.86 -90.881316 
L 65.029091 -93.348516 
L 65.198182 -92.2406 
L 65.367273 -91.33767 
L 65.536364 -94.803237 
L 65.705455 -92.085594 
L 65.874545 -92.007125 
L 66.043636 -92.431978 
L 66.212727 -94.763653 
L 66.381818 -89.617241 
L 66.550909 -89.826858 
L 66.72 -93.547292 
L 66.889091 -93.153459 
L 67.058182 -93.909604 
L 67.227273 -88.317743 
L 67.396364 -94.664235 
L 67.565455 -89.98801 
L 67.734545 -91.638162 
L 67.903636 -96.082856 
L 68.072727 -91.7427 
L 68.241818 -89.312568 
L 68.410909 -95.067872 
L 68.58 -93.094223 
L 68.749091 -90.231431 
L 68.918182 -91.529509 
L 69.087273 -87.839715 
L 69.256364 -93.125207 
L 69.425455 -90.955595 
L 69.594545 -93.76008 
L 69.763636 -90.744842 
L 69.932727 -93.416448 
L 70.101818 -88.403161 
L 70.270909 -91.051227 
L 70.44 -90.625677 
L 70.609091 -93.324098 
L 70.778182 -90.646288 
L 70.947273 -91.570345 
L 71.116364 -86.311841 
L 71.285455 -89.050914 
L 71.454545 -86.618967 
L 71.623636 -94.271433 
L 71.792727 -94.548135 
L 71.961818 -90.287393 
L 72.130909 -88.113203 
L 72.3 -89.088825 
L 72.469091 -90.962971 
L 72.638182 -89.285169 
L 72.807273 -88.711585 
L 72.976364 -93.169763 
L 73.145455 -89.626702 
L 73.314545 -92.401014 
L 73.483636 -95.778706 
L 73.652727 -87.131406 
L 73.821818 -86.991728 
L 73.990909 -85.684911 
L 74.16 -90.228645 
L 74.329091 -87.527428 
L 74.498182 -88.493989 
L 74.667273 -90.804294 
L 74.836364 -90.43736 
L 75.005455 -92.647939 
L 75.174545 -92.541682 
L 75.343636 -87.611591 
L 75.512727 -93.969354 
L 75.681818 -91.992166 
L 75.850909 -88.741257 
L 76.02 -90.559078 
L 76.189091 -92.426126 
L 76.358182 -91.917496 
L 76.527273 -93.46988 
L 76.696364 -87.600024 
L 76.865455 -92.68475 
L 77.034545 -92.638705 
L 77.203636 -86.368079 
L 77.372727 -91.295387 
L 77.541818 -86.487221 
L 77.710909 -87.610215 
L 77.88 -87.474954 
L 78.049091 -84.269709 
L 78.218182 -89.306406 
L 78.387273 -91.145602 
L 78.556364 -91.292484 
L 78.725455 -94.240888 
L 78.894545 -85.651196 
L 79.063636 -90.270404 
L 79.232727 -91.742734 
L 79.401818 -90.931774 
L 79.570909 -88.212681 
L 79.74 -86.805435 
L 79.909091 -93.606224 
L 80.078182 -86.08373 
L 80.247273 -91.029144 
L 80.416364 -87.776863 
L 80.585455 -94.206774 
L 80.754545 -88.864749 
L 80.923636 -87.40383 
L 81.092727 -90.719995 
L 81.261818 -87.756483 
L 81.430909 -90.273349 
L 81.6 -87.805772 
L 81.769091 -90.893779 
L 81.938182 -81.622163 
L 82.107273 -88.964228 
L 82.276364 -89.418396 
L 82.445455 -93.75389 
L 82.614545 -85.907741 
L 82.783636 -91.487607 
L 82.952727 -93.38027 
L 83.121818 -88.939767 
L 83.290909 -91.210747 
L 83.46 -89.151136 
L 83.629091 -89.839589 
L 83.798182 -92.73891 
L 83.967273 -90.437036 
L 84.136364 -85.64735 
L 84.305455 -87.319058 
L 84.474545 -89.874147 
L 84.643636 -88.314473 
L 84.812727 -89.690622 
L 84.981818 -89.348251 
L 85.150909 -86.331284 
L 85.32 -88.176437 
L 85.489091 -90.835405 
L 85.658182 -93.86099 
L 85.827273 -89.228162 
L 85.996364 -87.584211 
L 86.165455 -88.60519 
L 86.334545 -89.338626 
L 86.503636 -91.508618 
L 86.672727 -91.57677 
L 86.841818 -85.179742 
L 87.010909 -90.527324 
L 87.18 -86.654819 
L 87.349091 -89.873113 
L 87.518182 -90.438464 
L 87.687273 -87.36782 
L 87.856364 -88.619927 
L 88.025455 -87.87712 
L 88.194545 -89.020087 
L 88.363636 -87.441028 
L 88.532727 -92.323372 
L 88.701818 -88.651432 
L 88.870909 -87.497008 
L 89.04 -87.801039 
L 89.209091 -90.732127 
L 89.378182 -88.417013 
L 89.547273 -89.457381 
L 89.716364 -83.296702 
L 89.885455 -87.721541 
L 90.054545 -85.132754 
L 90.223636 -86.309135 
L 90.392727 -85.249142 
L 90.561818 -90.2628 
L 90.730909 -88.924608 
L 90.9 -88.153878 
L 91.069091 -82.885109 
L 91.238182 -81.699027 
L 91.407273 -87.544004 
L 91.576364 -82.25605 
L 91.745455 -88.854175 
L 91.914545 -85.511386 
L 92.083636 -91.189893 
L 92.252727 -86.724591 
L 92.421818 -86.003245 
L 92.590909 -83.872014 
L 92.76 -85.933861 
L 92.929091 -89.316042 
L 93.098182 -87.000238 
L 93.267273 -89.706833 
L 93.436364 -86.18815 
L 93.605455 -89.741838 
L 93.774545 -85.659451 
L 93.943636 -83.298024 
L 94.112727 -88.59927 
L 94.281818 -90.477995 
L 94.450909 -86.274819 
L 94.62 -87.757248 
L 94.789091 -89.087175 
L 94.958182 -90.732744 
L 95.127273 -90.705704 
L 95.296364 -88.408028 
L 95.465455 -86.444735 
L 95.634545 -87.61366 
L 95.803636 -90.689713 
L 95.972727 -88.010413 
L 96.141818 -87.97019 
L 96.310909 -88.39193 
L 96.48 -87.794666 
L 96.649091 -86.937954 
L 96.818182 -86.864039 
L 96.987273 -88.962262 
L 97.156364 -86.028061 
L 97.325455 -81.201204 
L 97.494545 -88.31258 
L 97.663636 -89.978196 
L 97.832727 -89.98292 
L 98.001818 -90.085257 
L 98.170909 -85.457669 
L 98.34 -86.184251 
L 98.509091 -87.221461 
L 98.678182 -86.532736 
L 98.847273 -90.814137 
L 99.016364 -92.642889 
L 99.185455 -84.13651 
L 99.354545 -90.959952 
L 99.523636 -83.216465 
L 99.692727 -87.410746 
L 99.861818 -86.275324 
L 100.030909 -86.912536 
L 100.2 -89.506616 
L 100.369091 -90.230427 
L 100.538182 -90.164632 
L 100.707273 -85.734921 
L 100.876364 -86.956235 
L 101.045455 -85.666478 
L 101.214545 -88.043992 
L 101.383636 -84.881798 
L 101.552727 -84.03432 
L 101.721818 -83.610681 
L 101.890909 -83.904187 
L 102.06 -87.107613 
L 102.229091 -89.028295 
L 102.398182 -88.868139 
L 102.567273 -82.640707 
L 102.736364 -85.711589 
L 102.905455 -87.043739 
L 103.074545 -85.201052 
L 103.243636 -87.1351 
L 103.412727 -87.42924 
L 103.581818 -86.225931 
L 103.750909 -84.304278 
L 103.92 -86.690936 
L 104.089091 -88.433382 
L 104.258182 -90.584816 
L 104.427273 -85.568754 
L 104.596364 -85.710964 
L 104.765455 -84.231662 
L 104.934545 -85.916951 
L 105.103636 -88.789679 
L 105.272727 -87.503041 
L 105.441818 -87.421925 
L 105.610909 -92.160421 
L 105.78 -91.171495 
L 105.949091 -86.72162 
L 106.118182 -89.575708 
L 106.287273 -91.392864 
L 106.456364 -82.711038 
L 106.625455 -83.582127 
L 106.794545 -83.572369 
L 106.963636 -85.135199 
L 107.132727 -86.630828 
L 107.301818 -88.623649 
L 107.470909 -86.981834 
L 107.64 -90.781348 
L 107.809091 -89.293185 
L 107.978182 -90.547129 
L 108.147273 -83.119259 
L 108.316364 -83.191001 
L 108.485455 -83.900751 
L 108.654545 -85.934359 
L 108.823636 -88.396459 
L 108.992727 -84.258993 
L 109.161818 -87.867667 
L 109.330909 -90.537352 
L 109.5 -89.678252 
L 109.669091 -96.717338 
L 109.838182 -89.993312 
L 110.007273 -84.310754 
L 110.176364 -92.686483 
L 110.345455 -85.563464 
L 110.514545 -85.13035 
L 110.683636 -90.051459 
L 110.852727 -87.103245 
L 111.021818 -84.576602 
L 111.190909 -87.452118 
L 111.36 -87.437131 
L 111.529091 -86.558539 
L 111.698182 -92.616244 
L 111.867273 -83.376901 
L 112.036364 -87.642837 
L 112.205455 -87.198809 
L 112.374545 -87.602587 
L 112.543636 -89.322758 
L 112.712727 -85.212259 
L 112.881818 -83.442839 
L 113.050909 -88.830395 
L 113.22 -85.630086 
L 113.389091 -86.260098 
L 113.558182 -88.019505 
L 113.727273 -85.503787 
L 113.727273 -82.869725 
L 113.727273 -82.869725 
L 113.558182 -82.273151 
L 113.389091 -81.727403 
L 113.22 -81.582739 
L 113.050909 -85.352347 
L 112.881818 -78.859294 
L 112.712727 -81.467809 
L 112.543636 -85.437827 
L 112.374545 -81.849106 
L 112.205455 -81.905194 
L 112.036364 -81.125589 
L 111.867273 -79.621575 
L 111.698182 -86.927237 
L 111.529091 -81.703579 
L 111.36 -81.80302 
L 111.190909 -83.866619 
L 111.021818 -79.939466 
L 110.852727 -80.11279 
L 110.683636 -84.898536 
L 110.514545 -81.59872 
L 110.345455 -81.329534 
L 110.176364 -88.007216 
L 110.007273 -79.854829 
L 109.838182 -85.721018 
L 109.669091 -87.80354 
L 109.5 -82.829634 
L 109.330909 -86.031129 
L 109.161818 -83.25777 
L 108.992727 -79.725689 
L 108.823636 -83.116383 
L 108.654545 -80.817456 
L 108.485455 -80.68827 
L 108.316364 -78.565617 
L 108.147273 -79.802832 
L 107.978182 -85.80571 
L 107.809091 -84.895636 
L 107.64 -86.419348 
L 107.470909 -83.75828 
L 107.301818 -83.950823 
L 107.132727 -81.089537 
L 106.963636 -81.650692 
L 106.794545 -79.871274 
L 106.625455 -80.126668 
L 106.456364 -77.840049 
L 106.287273 -86.036856 
L 106.118182 -83.704142 
L 105.949091 -82.972745 
L 105.78 -84.63052 
L 105.610909 -82.867402 
L 105.441818 -82.452481 
L 105.272727 -82.770201 
L 105.103636 -83.68223 
L 104.934545 -78.932748 
L 104.765455 -82.480721 
L 104.596364 -82.600466 
L 104.427273 -84.051242 
L 104.258182 -84.27043 
L 104.089091 -82.581246 
L 103.92 -84.723393 
L 103.750909 -81.11903 
L 103.581818 -83.338169 
L 103.412727 -83.204272 
L 103.243636 -82.84784 
L 103.074545 -82.312633 
L 102.905455 -83.844422 
L 102.736364 -81.593 
L 102.567273 -79.415868 
L 102.398182 -83.249179 
L 102.229091 -85.857042 
L 102.06 -80.778084 
L 101.890909 -82.232732 
L 101.721818 -81.304227 
L 101.552727 -81.312476 
L 101.383636 -82.350145 
L 101.214545 -84.797799 
L 101.045455 -79.299846 
L 100.876364 -84.518812 
L 100.707273 -81.111863 
L 100.538182 -84.99838 
L 100.369091 -84.701488 
L 100.2 -84.960278 
L 100.030909 -80.904506 
L 99.861818 -82.2259 
L 99.692727 -81.557491 
L 99.523636 -80.937807 
L 99.354545 -85.132235 
L 99.185455 -79.38791 
L 99.016364 -85.492516 
L 98.847273 -86.535386 
L 98.678182 -82.786989 
L 98.509091 -84.183475 
L 98.34 -82.647069 
L 98.170909 -82.353492 
L 98.001818 -84.673671 
L 97.832727 -86.198781 
L 97.663636 -85.556769 
L 97.494545 -85.973542 
L 97.325455 -78.019808 
L 97.156364 -81.979278 
L 96.987273 -87.460662 
L 96.818182 -82.526455 
L 96.649091 -80.94959 
L 96.48 -84.547433 
L 96.310909 -85.878835 
L 96.141818 -85.454118 
L 95.972727 -82.975846 
L 95.803636 -86.305037 
L 95.634545 -83.640948 
L 95.465455 -83.616368 
L 95.296364 -85.701257 
L 95.127273 -86.665527 
L 94.958182 -85.74668 
L 94.789091 -85.169363 
L 94.62 -86.321978 
L 94.450909 -82.830726 
L 94.281818 -85.544378 
L 94.112727 -84.967895 
L 93.943636 -80.721404 
L 93.774545 -83.605524 
L 93.605455 -85.86882 
L 93.436364 -84.051403 
L 93.267273 -85.56916 
L 93.098182 -82.708679 
L 92.929091 -83.829933 
L 92.76 -79.97129 
L 92.590909 -80.649085 
L 92.421818 -81.615373 
L 92.252727 -84.265021 
L 92.083636 -87.00784 
L 91.914545 -80.721346 
L 91.745455 -86.269264 
L 91.576364 -78.261297 
L 91.407273 -81.853924 
L 91.238182 -78.595472 
L 91.069091 -80.282977 
L 90.9 -81.858928 
L 90.730909 -84.887919 
L 90.561818 -84.035865 
L 90.392727 -81.854219 
L 90.223636 -82.715625 
L 90.054545 -79.524824 
L 89.885455 -82.434701 
L 89.716364 -80.518702 
L 89.547273 -82.663857 
L 89.378182 -85.45032 
L 89.209091 -87.983874 
L 89.04 -84.471582 
L 88.870909 -83.854547 
L 88.701818 -84.194159 
L 88.532727 -88.069226 
L 88.363636 -82.32876 
L 88.194545 -85.584938 
L 88.025455 -85.497325 
L 87.856364 -86.017634 
L 87.687273 -84.344274 
L 87.518182 -87.171867 
L 87.349091 -86.327521 
L 87.18 -83.392847 
L 87.010909 -85.037165 
L 86.841818 -81.506865 
L 86.672727 -87.83718 
L 86.503636 -88.192676 
L 86.334545 -83.843294 
L 86.165455 -84.178474 
L 85.996364 -80.528063 
L 85.827273 -84.965532 
L 85.658182 -87.343362 
L 85.489091 -85.984261 
L 85.32 -83.357138 
L 85.150909 -83.019613 
L 84.981818 -85.915856 
L 84.812727 -86.010713 
L 84.643636 -83.789384 
L 84.474545 -85.86514 
L 84.305455 -83.678285 
L 84.136364 -81.804404 
L 83.967273 -86.388847 
L 83.798182 -89.476254 
L 83.629091 -85.83912 
L 83.46 -84.543979 
L 83.290909 -84.484354 
L 83.121818 -85.046461 
L 82.952727 -88.905236 
L 82.783636 -88.13813 
L 82.614545 -83.387588 
L 82.445455 -89.25898 
L 82.276364 -85.658143 
L 82.107273 -84.227208 
L 81.938182 -76.046105 
L 81.769091 -85.324618 
L 81.6 -82.494743 
L 81.430909 -86.253956 
L 81.261818 -82.350542 
L 81.092727 -88.133012 
L 80.923636 -86.161344 
L 80.754545 -83.766258 
L 80.585455 -89.098169 
L 80.416364 -85.106575 
L 80.247273 -87.367416 
L 80.078182 -83.006014 
L 79.909091 -88.070045 
L 79.74 -82.893852 
L 79.570909 -85.683722 
L 79.401818 -87.26631 
L 79.232727 -85.361679 
L 79.063636 -86.673974 
L 78.894545 -82.501697 
L 78.725455 -90.430867 
L 78.556364 -87.755299 
L 78.387273 -85.346486 
L 78.218182 -83.670503 
L 78.049091 -81.056075 
L 77.88 -85.212668 
L 77.710909 -82.70941 
L 77.541818 -83.752403 
L 77.372727 -88.958574 
L 77.203636 -83.645756 
L 77.034545 -88.34663 
L 76.865455 -89.163887 
L 76.696364 -85.590918 
L 76.527273 -88.149266 
L 76.358182 -87.679571 
L 76.189091 -89.078414 
L 76.02 -86.985341 
L 75.850909 -85.120495 
L 75.681818 -86.850165 
L 75.512727 -91.359771 
L 75.343636 -84.903018 
L 75.174545 -87.643801 
L 75.005455 -88.332485 
L 74.836364 -86.095666 
L 74.667273 -87.536284 
L 74.498182 -86.265123 
L 74.329091 -83.50954 
L 74.16 -87.145098 
L 73.990909 -82.237468 
L 73.821818 -85.780235 
L 73.652727 -83.924374 
L 73.483636 -90.91369 
L 73.314545 -88.572104 
L 73.145455 -86.607964 
L 72.976364 -89.803483 
L 72.807273 -85.51915 
L 72.638182 -83.006889 
L 72.469091 -87.013156 
L 72.3 -85.883753 
L 72.130909 -84.618616 
L 71.961818 -86.071353 
L 71.792727 -90.563742 
L 71.623636 -88.152137 
L 71.454545 -82.823349 
L 71.285455 -83.746782 
L 71.116364 -82.182334 
L 70.947273 -87.446973 
L 70.778182 -87.766108 
L 70.609091 -89.428603 
L 70.44 -86.267481 
L 70.270909 -85.63919 
L 70.101818 -84.038956 
L 69.932727 -90.728042 
L 69.763636 -86.77034 
L 69.594545 -87.921769 
L 69.425455 -86.438324 
L 69.256364 -86.762629 
L 69.087273 -83.566098 
L 68.918182 -86.221163 
L 68.749091 -84.325276 
L 68.58 -89.834496 
L 68.410909 -90.37617 
L 68.241818 -84.93032 
L 68.072727 -87.898124 
L 67.903636 -92.075221 
L 67.734545 -87.041145 
L 67.565455 -87.89266 
L 67.396364 -89.328374 
L 67.227273 -83.818954 
L 67.058182 -89.298997 
L 66.889091 -88.674428 
L 66.72 -91.803769 
L 66.550909 -87.151574 
L 66.381818 -85.517272 
L 66.212727 -91.680085 
L 66.043636 -87.385602 
L 65.874545 -87.012138 
L 65.705455 -88.457004 
L 65.536364 -89.660498 
L 65.367273 -82.197026 
L 65.198182 -89.182916 
L 65.029091 -88.559537 
L 64.86 -86.837377 
L 64.690909 -85.382554 
L 64.521818 -89.577259 
L 64.352727 -89.280198 
L 64.183636 -85.789661 
L 64.014545 -90.70692 
L 63.845455 -88.084664 
L 63.676364 -86.942286 
L 63.507273 -86.973315 
L 63.338182 -85.004904 
L 63.169091 -85.587471 
L 63 -85.864453 
L 62.830909 -84.577393 
L 62.661818 -86.831288 
L 62.492727 -84.428168 
L 62.323636 -84.222484 
L 62.154545 -82.569501 
L 61.985455 -84.766464 
L 61.816364 -82.959955 
L 61.647273 -88.730181 
L 61.478182 -86.7513 
L 61.309091 -83.556686 
L 61.14 -84.64206 
L 60.970909 -85.476535 
L 60.801818 -86.242358 
L 60.632727 -90.716421 
L 60.463636 -88.066081 
L 60.294545 -84.486933 
L 60.125455 -86.682726 
L 59.956364 -86.68647 
L 59.787273 -83.083323 
L 59.618182 -85.123274 
L 59.449091 -85.644992 
L 59.28 -84.585907 
L 59.110909 -85.397579 
L 58.941818 -88.967429 
L 58.772727 -88.433469 
L 58.603636 -89.259809 
L 58.434545 -86.933687 
L 58.265455 -88.133301 
L 58.096364 -87.02756 
L 57.927273 -88.41628 
L 57.758182 -83.617682 
L 57.589091 -86.410354 
L 57.42 -85.030549 
L 57.250909 -86.376468 
L 57.081818 -86.626696 
L 56.912727 -87.478907 
L 56.743636 -89.319819 
L 56.574545 -86.819872 
L 56.405455 -87.330206 
L 56.236364 -87.191593 
L 56.067273 -82.747756 
L 55.898182 -87.6847 
L 55.729091 -85.49566 
L 55.56 -85.726134 
L 55.390909 -85.164599 
L 55.221818 -90.42231 
L 55.052727 -84.736526 
L 54.883636 -88.630388 
L 54.714545 -86.392674 
L 54.545455 -85.335682 
L 54.376364 -87.872785 
L 54.207273 -86.522746 
L 54.038182 -85.238008 
L 53.869091 -85.683885 
L 53.7 -87.807941 
L 53.530909 -85.048831 
L 53.361818 -83.25497 
L 53.192727 -85.303254 
L 53.023636 -88.259546 
L 52.854545 -87.903987 
L 52.685455 -89.071082 
L 52.516364 -88.738085 
L 52.347273 -85.11414 
L 52.178182 -88.89259 
L 52.009091 -85.619915 
L 51.84 -90.480113 
L 51.670909 -89.76307 
L 51.501818 -87.081478 
L 51.332727 -88.35284 
L 51.163636 -86.557982 
L 50.994545 -85.810238 
L 50.825455 -89.484616 
L 50.656364 -93.985841 
L 50.487273 -87.231978 
L 50.318182 -91.497317 
L 50.149091 -89.008082 
L 49.98 -87.095065 
L 49.810909 -87.279308 
L 49.641818 -92.963756 
L 49.472727 -87.995861 
L 49.303636 -88.498827 
L 49.134545 -85.35928 
L 48.965455 -89.006362 
L 48.796364 -87.187867 
L 48.627273 -87.686961 
L 48.458182 -88.452331 
L 48.289091 -86.560813 
L 48.12 -93.604243 
L 47.950909 -90.05991 
L 47.781818 -88.380271 
L 47.612727 -89.338103 
L 47.443636 -88.36279 
L 47.274545 -87.299691 
L 47.105455 -90.769944 
L 46.936364 -87.697414 
L 46.767273 -83.750977 
L 46.598182 -84.873398 
L 46.429091 -89.137656 
L 46.26 -88.752932 
L 46.090909 -88.678905 
L 45.921818 -86.774108 
L 45.752727 -84.766888 
L 45.583636 -87.271173 
L 45.414545 -83.523588 
L 45.245455 -85.955608 
L 45.076364 -88.588037 
L 44.907273 -88.462782 
L 44.738182 -87.834314 
L 44.569091 -88.668815 
L 44.4 -85.710987 
L 44.230909 -87.402122 
L 44.061818 -89.965312 
L 43.892727 -89.198692 
L 43.723636 -88.423079 
L 43.554545 -86.95335 
L 43.385455 -90.91819 
L 43.216364 -90.37897 
L 43.047273 -91.852621 
L 42.878182 -89.497077 
L 42.709091 -87.329871 
L 42.54 -85.758962 
L 42.370909 -91.620102 
L 42.201818 -88.146635 
L 42.032727 -87.155048 
L 41.863636 -91.279396 
L 41.694545 -92.34858 
L 41.525455 -92.403105 
L 41.356364 -91.161807 
L 41.187273 -88.276368 
L 41.018182 -89.947653 
L 40.849091 -91.235645 
L 40.68 -86.347168 
L 40.510909 -92.3363 
L 40.341818 -88.987116 
L 40.172727 -89.919973 
L 40.003636 -89.709584 
L 39.834545 -91.191035 
L 39.665455 -95.02606 
L 39.496364 -90.197386 
L 39.327273 -85.453023 
L 39.158182 -92.548696 
L 38.989091 -87.713493 
L 38.82 -86.882682 
L 38.650909 -88.027448 
L 38.481818 -91.283028 
L 38.312727 -87.942513 
L 38.143636 -90.699869 
L 37.974545 -92.423244 
L 37.805455 -88.680123 
L 37.636364 -88.761734 
L 37.467273 -90.644231 
L 37.298182 -89.999444 
L 37.129091 -89.387536 
L 36.96 -95.809662 
L 36.790909 -91.987538 
L 36.621818 -91.616143 
L 36.452727 -89.354978 
L 36.283636 -87.850211 
L 36.114545 -87.665196 
L 35.945455 -88.180765 
L 35.776364 -89.423866 
L 35.607273 -95.256737 
L 35.438182 -91.878775 
L 35.269091 -91.984636 
L 35.1 -88.694578 
L 34.930909 -87.650562 
L 34.761818 -91.848166 
L 34.592727 -89.765951 
L 34.423636 -89.004517 
L 34.254545 -90.404597 
L 34.085455 -89.904941 
L 33.916364 -89.023001 
L 33.747273 -89.532426 
L 33.578182 -89.564075 
L 33.409091 -91.508508 
L 33.24 -86.290228 
L 33.070909 -89.597835 
L 32.901818 -88.956112 
L 32.732727 -89.127611 
L 32.563636 -87.756405 
L 32.394545 -86.930593 
L 32.225455 -90.125178 
L 32.056364 -92.198384 
L 31.887273 -90.914132 
L 31.718182 -90.568918 
L 31.549091 -89.38334 
L 31.38 -91.510544 
L 31.210909 -90.493081 
L 31.041818 -93.874873 
L 30.872727 -92.223514 
L 30.703636 -90.898208 
L 30.534545 -91.041983 
L 30.365455 -88.296491 
L 30.196364 -87.003754 
L 30.027273 -95.763329 
L 29.858182 -89.233083 
L 29.689091 -88.349559 
L 29.52 -91.392315 
L 29.350909 -95.523433 
L 29.181818 -90.003303 
L 29.012727 -94.441577 
L 28.843636 -91.076776 
L 28.674545 -92.66295 
L 28.505455 -89.807118 
L 28.336364 -92.056463 
L 28.167273 -88.734485 
L 27.998182 -92.380844 
L 27.829091 -91.100462 
L 27.66 -91.279274 
L 27.490909 -90.0282 
L 27.321818 -91.786903 
L 27.152727 -94.722104 
L 26.983636 -89.610761 
L 26.814545 -88.628174 
L 26.645455 -93.050491 
L 26.476364 -89.301389 
L 26.307273 -91.545812 
L 26.138182 -89.430395 
L 25.969091 -91.110053 
L 25.8 -91.649601 
L 25.630909 -93.508937 
L 25.461818 -88.876123 
L 25.292727 -86.790786 
L 25.123636 -92.455891 
L 24.954545 -88.714122 
L 24.785455 -89.934448 
L 24.616364 -92.911742 
L 24.447273 -91.740189 
L 24.278182 -87.06889 
L 24.109091 -91.89205 
L 23.94 -89.604697 
L 23.770909 -92.687673 
L 23.601818 -89.886149 
L 23.432727 -92.832293 
L 23.263636 -90.663185 
L 23.094545 -96.861958 
L 22.925455 -93.201755 
L 22.756364 -92.973251 
L 22.587273 -91.881814 
L 22.418182 -96.090482 
L 22.249091 -94.657639 
L 22.08 -94.722419 
L 21.910909 -91.914893 
L 21.741818 -88.655738 
L 21.572727 -91.183947 
L 21.403636 -94.095856 
L 21.234545 -96.449943 
L 21.065455 -96.234984 
L 20.896364 -92.8422 
L 20.727273 -95.970467 
L 20.558182 -98.424274 
L 20.389091 -98.063104 
L 20.22 -88.229557 
L 20.050909 -92.380843 
L 19.881818 -93.26472 
L 19.712727 -90.349986 
L 19.543636 -95.861885 
L 19.374545 -97.439044 
L 19.205455 -89.057078 
L 19.036364 -94.841351 
L 18.867273 -93.439007 
L 18.698182 -97.324702 
L 18.529091 -95.989605 
L 18.36 -93.489703 
L 18.190909 -95.864021 
L 18.021818 -94.792908 
L 17.852727 -95.351359 
L 17.683636 -96.458272 
L 17.514545 -93.773391 
L 17.345455 -93.085372 
L 17.176364 -88.777357 
L 17.007273 -94.392219 
L 16.838182 -95.030594 
L 16.669091 -93.152079 
L 16.5 -95.316665 
L 16.330909 -96.795383 
L 16.161818 -96.217154 
L 15.992727 -94.879056 
L 15.823636 -91.246004 
L 15.654545 -99.963787 
L 15.485455 -92.343951 
L 15.316364 -96.69447 
L 15.147273 -94.412678 
L 14.978182 -96.837209 
L 14.809091 -92.882705 
L 14.64 -95.400941 
L 14.470909 -88.470582 
L 14.301818 -92.962227 
L 14.132727 -92.824753 
L 13.963636 -93.694824 
L 13.794545 -92.988987 
L 13.625455 -92.304122 
L 13.456364 -94.326042 
L 13.287273 -94.244182 
L 13.118182 -95.247309 
L 12.949091 -96.186147 
L 12.78 -89.231764 
L 12.610909 -94.517763 
L 12.441818 -92.980843 
L 12.272727 -92.683419 
z
" style="stroke: #808080; stroke-opacity: 0.3"/>
    </defs>
    <g clip-path="url(#p17af9d1e61)">
     <use xlink:href="#mac258b8f58" x="0" y="121.554688" style="fill: #808080; fill-opacity: 0.3; stroke: #808080; stroke-opacity: 0.3"/>
    </g>
   </g>
   <g id="PolyCollection_2">
    <defs>
     <path id="m6ecf133406" d="M 12.272727 -87.033722 
L 12.272727 -97.820352 
L 12.441818 -96.54217 
L 12.610909 -96.575154 
L 12.78 -92.774807 
L 12.949091 -93.115019 
L 13.118182 -95.182712 
L 13.287273 -93.976173 
L 13.456364 -101.666284 
L 13.625455 -103.639173 
L 13.794545 -98.623446 
L 13.963636 -96.662524 
L 14.132727 -103.738933 
L 14.301818 -102.765545 
L 14.470909 -96.679688 
L 14.64 -97.504451 
L 14.809091 -93.480086 
L 14.978182 -95.745939 
L 15.147273 -97.026059 
L 15.316364 -96.816032 
L 15.485455 -95.115044 
L 15.654545 -98.298147 
L 15.823636 -94.120037 
L 15.992727 -92.477369 
L 16.161818 -93.898801 
L 16.330909 -94.210955 
L 16.5 -92.497851 
L 16.669091 -88.419814 
L 16.838182 -90.337861 
L 17.007273 -91.650184 
L 17.176364 -90.36952 
L 17.345455 -91.420022 
L 17.514545 -97.56925 
L 17.683636 -104.603562 
L 17.852727 -105.189085 
L 18.021818 -97.863286 
L 18.190909 -97.562662 
L 18.36 -101.450923 
L 18.529091 -95.886033 
L 18.698182 -91.322494 
L 18.867273 -93.344588 
L 19.036364 -90.65591 
L 19.205455 -94.616022 
L 19.374545 -97.469077 
L 19.543636 -99.662052 
L 19.712727 -100.289147 
L 19.881818 -96.991553 
L 20.050909 -103.260882 
L 20.22 -101.03812 
L 20.389091 -98.896783 
L 20.558182 -99.561957 
L 20.727273 -95.218697 
L 20.896364 -95.707767 
L 21.065455 -94.301864 
L 21.234545 -95.952598 
L 21.403636 -96.45304 
L 21.572727 -89.030786 
L 21.741818 -91.215705 
L 21.910909 -92.500091 
L 22.08 -95.722989 
L 22.249091 -93.919081 
L 22.418182 -93.71327 
L 22.587273 -92.473258 
L 22.756364 -91.664331 
L 22.925455 -91.490379 
L 23.094545 -92.158037 
L 23.263636 -90.968283 
L 23.432727 -90.78354 
L 23.601818 -91.081753 
L 23.770909 -91.646016 
L 23.94 -89.961831 
L 24.109091 -92.078685 
L 24.278182 -90.749451 
L 24.447273 -91.845128 
L 24.616364 -91.497584 
L 24.785455 -91.24934 
L 24.954545 -89.483093 
L 25.123636 -98.030372 
L 25.292727 -100.813042 
L 25.461818 -96.598815 
L 25.630909 -99.486195 
L 25.8 -98.526179 
L 25.969091 -95.981472 
L 26.138182 -96.036821 
L 26.307273 -102.134055 
L 26.476364 -96.033249 
L 26.645455 -97.585613 
L 26.814545 -101.224881 
L 26.983636 -99.004843 
L 27.152727 -98.022828 
L 27.321818 -101.718934 
L 27.490909 -99.486685 
L 27.66 -101.128586 
L 27.829091 -103.792512 
L 27.998182 -105.178661 
L 28.167273 -101.77397 
L 28.336364 -101.138258 
L 28.505455 -100.494569 
L 28.674545 -98.07195 
L 28.843636 -98.335352 
L 29.012727 -94.727133 
L 29.181818 -94.961114 
L 29.350909 -91.722216 
L 29.52 -92.537156 
L 29.689091 -93.891704 
L 29.858182 -92.105463 
L 30.027273 -99.291848 
L 30.196364 -98.207785 
L 30.365455 -98.999189 
L 30.534545 -97.585882 
L 30.703636 -98.419623 
L 30.872727 -96.991122 
L 31.041818 -99.461656 
L 31.210909 -98.164335 
L 31.38 -100.593939 
L 31.549091 -97.098241 
L 31.718182 -103.5736 
L 31.887273 -102.428475 
L 32.056364 -100.916856 
L 32.225455 -95.80742 
L 32.394545 -98.782593 
L 32.563636 -94.532613 
L 32.732727 -94.176169 
L 32.901818 -88.833936 
L 33.070909 -89.09586 
L 33.24 -85.992476 
L 33.409091 -87.591551 
L 33.578182 -89.116709 
L 33.747273 -92.801022 
L 33.916364 -94.73281 
L 34.085455 -96.089598 
L 34.254545 -94.927003 
L 34.423636 -97.605813 
L 34.592727 -95.617877 
L 34.761818 -100.102339 
L 34.930909 -97.028753 
L 35.1 -97.277744 
L 35.269091 -99.735293 
L 35.438182 -96.331091 
L 35.607273 -98.893314 
L 35.776364 -96.906813 
L 35.945455 -92.105612 
L 36.114545 -93.936041 
L 36.283636 -93.84473 
L 36.452727 -95.284038 
L 36.621818 -92.336985 
L 36.790909 -96.176504 
L 36.96 -96.503939 
L 37.129091 -94.536125 
L 37.298182 -95.720583 
L 37.467273 -91.381346 
L 37.636364 -93.431555 
L 37.805455 -91.36794 
L 37.974545 -91.404575 
L 38.143636 -90.028453 
L 38.312727 -91.922674 
L 38.481818 -95.918566 
L 38.650909 -91.638004 
L 38.82 -94.337168 
L 38.989091 -95.662749 
L 39.158182 -97.523983 
L 39.327273 -96.344916 
L 39.496364 -106.218552 
L 39.665455 -110.574688 
L 39.834545 -104.351081 
L 40.003636 -105.296231 
L 40.172727 -98.302627 
L 40.341818 -94.799856 
L 40.510909 -94.049228 
L 40.68 -93.41437 
L 40.849091 -98.886009 
L 41.018182 -93.848681 
L 41.187273 -97.257615 
L 41.356364 -96.947464 
L 41.525455 -95.632725 
L 41.694545 -94.462051 
L 41.863636 -90.40028 
L 42.032727 -91.699033 
L 42.201818 -87.226148 
L 42.370909 -92.123823 
L 42.54 -88.08153 
L 42.709091 -92.050436 
L 42.878182 -90.875828 
L 43.047273 -94.764047 
L 43.216364 -89.871579 
L 43.385455 -86.457617 
L 43.554545 -91.552801 
L 43.723636 -88.606723 
L 43.892727 -94.340568 
L 44.061818 -92.641667 
L 44.230909 -96.161026 
L 44.4 -99.272211 
L 44.569091 -96.939432 
L 44.738182 -101.0219 
L 44.907273 -105.390372 
L 45.076364 -105.074174 
L 45.245455 -105.056689 
L 45.414545 -98.83123 
L 45.583636 -95.42186 
L 45.752727 -98.070001 
L 45.921818 -97.636478 
L 46.090909 -93.478652 
L 46.26 -96.030534 
L 46.429091 -101.009316 
L 46.598182 -94.889589 
L 46.767273 -91.26772 
L 46.936364 -92.753988 
L 47.105455 -93.273738 
L 47.274545 -93.135317 
L 47.443636 -96.9024 
L 47.612727 -94.759044 
L 47.781818 -93.566643 
L 47.950909 -94.4176 
L 48.12 -97.170511 
L 48.289091 -97.610095 
L 48.458182 -96.501127 
L 48.627273 -91.764224 
L 48.796364 -95.376847 
L 48.965455 -94.447762 
L 49.134545 -91.276952 
L 49.303636 -91.59779 
L 49.472727 -90.360427 
L 49.641818 -98.268339 
L 49.810909 -97.341327 
L 49.98 -95.484732 
L 50.149091 -97.029363 
L 50.318182 -94.375547 
L 50.487273 -93.79574 
L 50.656364 -94.045534 
L 50.825455 -97.073902 
L 50.994545 -92.546108 
L 51.163636 -92.148873 
L 51.332727 -97.277491 
L 51.501818 -97.131336 
L 51.670909 -97.325783 
L 51.84 -100.825857 
L 52.009091 -100.415449 
L 52.178182 -101.956194 
L 52.347273 -99.335299 
L 52.516364 -98.007425 
L 52.685455 -99.265015 
L 52.854545 -96.302698 
L 53.023636 -101.528769 
L 53.192727 -95.761578 
L 53.361818 -104.21961 
L 53.530909 -96.806723 
L 53.7 -99.684412 
L 53.869091 -105.670466 
L 54.038182 -96.555443 
L 54.207273 -102.966385 
L 54.376364 -99.015042 
L 54.545455 -102.338787 
L 54.714545 -103.637086 
L 54.883636 -101.844457 
L 55.052727 -102.396985 
L 55.221818 -101.859521 
L 55.390909 -107.05364 
L 55.56 -104.884923 
L 55.729091 -101.268381 
L 55.898182 -102.85621 
L 56.067273 -97.3516 
L 56.236364 -100.616761 
L 56.405455 -104.637429 
L 56.574545 -104.587073 
L 56.743636 -105.823083 
L 56.912727 -104.181842 
L 57.081818 -98.222726 
L 57.250909 -102.33175 
L 57.42 -106.587232 
L 57.589091 -103.991509 
L 57.758182 -108.999424 
L 57.927273 -103.400742 
L 58.096364 -105.638064 
L 58.265455 -103.814882 
L 58.434545 -103.159863 
L 58.603636 -103.167785 
L 58.772727 -102.356386 
L 58.941818 -99.7381 
L 59.110909 -103.875276 
L 59.28 -100.354245 
L 59.449091 -101.314038 
L 59.618182 -98.115805 
L 59.787273 -101.379053 
L 59.956364 -101.476363 
L 60.125455 -94.618609 
L 60.294545 -101.014504 
L 60.463636 -101.705444 
L 60.632727 -100.792299 
L 60.801818 -99.374425 
L 60.970909 -97.091358 
L 61.14 -94.976772 
L 61.309091 -97.189811 
L 61.478182 -92.012898 
L 61.647273 -94.312496 
L 61.816364 -94.958168 
L 61.985455 -99.438479 
L 62.154545 -94.384687 
L 62.323636 -104.951568 
L 62.492727 -103.422074 
L 62.661818 -98.708534 
L 62.830909 -96.730791 
L 63 -93.30607 
L 63.169091 -88.944176 
L 63.338182 -82.483559 
L 63.507273 -78.091503 
L 63.676364 -75.67361 
L 63.845455 -75.107146 
L 64.014545 -73.99143 
L 64.183636 -72.390344 
L 64.352727 -73.086089 
L 64.521818 -70.015218 
L 64.690909 -70.291748 
L 64.86 -67.96574 
L 65.029091 -68.661328 
L 65.198182 -66.323902 
L 65.367273 -65.044992 
L 65.536364 -65.36141 
L 65.705455 -60.738325 
L 65.874545 -61.518084 
L 66.043636 -60.835608 
L 66.212727 -61.964865 
L 66.381818 -64.768804 
L 66.550909 -65.716296 
L 66.72 -62.686756 
L 66.889091 -59.139357 
L 67.058182 -58.107807 
L 67.227273 -55.248614 
L 67.396364 -55.764216 
L 67.565455 -53.353333 
L 67.734545 -51.537305 
L 67.903636 -50.348189 
L 68.072727 -50.627104 
L 68.241818 -48.749129 
L 68.410909 -49.696643 
L 68.58 -49.243383 
L 68.749091 -46.564961 
L 68.918182 -48.778709 
L 69.087273 -47.857255 
L 69.256364 -48.603904 
L 69.425455 -51.001628 
L 69.594545 -49.736013 
L 69.763636 -52.364118 
L 69.932727 -52.602954 
L 70.101818 -50.199415 
L 70.270909 -50.544816 
L 70.44 -49.405683 
L 70.609091 -49.377992 
L 70.778182 -49.840823 
L 70.947273 -52.267613 
L 71.116364 -51.964402 
L 71.285455 -51.773571 
L 71.454545 -53.832731 
L 71.623636 -52.914106 
L 71.792727 -54.372234 
L 71.961818 -52.763981 
L 72.130909 -53.130593 
L 72.3 -50.954822 
L 72.469091 -51.616361 
L 72.638182 -51.679652 
L 72.807273 -51.961438 
L 72.976364 -51.247508 
L 73.145455 -49.972161 
L 73.314545 -52.998688 
L 73.483636 -50.398882 
L 73.652727 -49.569664 
L 73.821818 -49.137402 
L 73.990909 -50.188227 
L 74.16 -48.448601 
L 74.329091 -48.893605 
L 74.498182 -47.991656 
L 74.667273 -49.232513 
L 74.836364 -48.073481 
L 75.005455 -47.659107 
L 75.174545 -46.010386 
L 75.343636 -48.609391 
L 75.512727 -48.456761 
L 75.681818 -46.416083 
L 75.850909 -47.661423 
L 76.02 -50.279037 
L 76.189091 -49.333793 
L 76.358182 -49.265519 
L 76.527273 -46.367552 
L 76.696364 -51.371482 
L 76.865455 -53.001202 
L 77.034545 -56.028924 
L 77.203636 -51.713041 
L 77.372727 -51.650886 
L 77.541818 -49.778244 
L 77.710909 -49.679319 
L 77.88 -49.013037 
L 78.049091 -48.92207 
L 78.218182 -50.111519 
L 78.387273 -48.638963 
L 78.556364 -48.801832 
L 78.725455 -47.551961 
L 78.894545 -47.223803 
L 79.063636 -48.2993 
L 79.232727 -49.44397 
L 79.401818 -48.430367 
L 79.570909 -52.75791 
L 79.74 -49.562566 
L 79.909091 -51.290968 
L 80.078182 -50.095997 
L 80.247273 -48.518704 
L 80.416364 -52.564713 
L 80.585455 -52.862171 
L 80.754545 -52.834895 
L 80.923636 -54.517282 
L 81.092727 -53.098208 
L 81.261818 -50.467989 
L 81.430909 -49.545514 
L 81.6 -48.394413 
L 81.769091 -49.808234 
L 81.938182 -50.366448 
L 82.107273 -48.482887 
L 82.276364 -50.258342 
L 82.445455 -49.096703 
L 82.614545 -48.913955 
L 82.783636 -49.932475 
L 82.952727 -49.874244 
L 83.121818 -52.289453 
L 83.290909 -51.080962 
L 83.46 -52.461413 
L 83.629091 -53.36415 
L 83.798182 -52.44973 
L 83.967273 -53.9511 
L 84.136364 -52.866137 
L 84.305455 -56.011327 
L 84.474545 -56.936659 
L 84.643636 -58.344713 
L 84.812727 -54.245453 
L 84.981818 -54.706957 
L 85.150909 -54.821768 
L 85.32 -52.763588 
L 85.489091 -51.995745 
L 85.658182 -57.551206 
L 85.827273 -53.592891 
L 85.996364 -55.736256 
L 86.165455 -57.645539 
L 86.334545 -57.89841 
L 86.503636 -56.854257 
L 86.672727 -54.213433 
L 86.841818 -51.936806 
L 87.010909 -51.083146 
L 87.18 -53.594011 
L 87.349091 -54.467663 
L 87.518182 -54.503898 
L 87.687273 -48.950785 
L 87.856364 -53.816263 
L 88.025455 -52.550775 
L 88.194545 -50.486996 
L 88.363636 -53.518366 
L 88.532727 -54.734009 
L 88.701818 -49.660422 
L 88.870909 -50.739414 
L 89.04 -51.327169 
L 89.209091 -51.898331 
L 89.378182 -48.605414 
L 89.547273 -48.351052 
L 89.716364 -47.087397 
L 89.885455 -46.5193 
L 90.054545 -46.614795 
L 90.223636 -46.985626 
L 90.392727 -48.300302 
L 90.561818 -48.180841 
L 90.730909 -47.819506 
L 90.9 -47.72085 
L 91.069091 -48.834324 
L 91.238182 -48.579507 
L 91.407273 -49.641153 
L 91.576364 -49.277349 
L 91.745455 -49.915917 
L 91.914545 -48.262778 
L 92.083636 -49.261303 
L 92.252727 -50.221844 
L 92.421818 -49.178608 
L 92.590909 -49.952238 
L 92.76 -52.063462 
L 92.929091 -50.623878 
L 93.098182 -51.884099 
L 93.267273 -53.445052 
L 93.436364 -52.225588 
L 93.605455 -52.95523 
L 93.774545 -52.685104 
L 93.943636 -50.80136 
L 94.112727 -51.530451 
L 94.281818 -51.485564 
L 94.450909 -51.271001 
L 94.62 -50.247937 
L 94.789091 -49.180576 
L 94.958182 -49.256961 
L 95.127273 -50.319076 
L 95.296364 -50.508854 
L 95.465455 -51.365297 
L 95.634545 -50.917613 
L 95.803636 -55.228033 
L 95.972727 -53.035946 
L 96.141818 -52.640261 
L 96.310909 -50.327247 
L 96.48 -52.482755 
L 96.649091 -53.218862 
L 96.818182 -53.042204 
L 96.987273 -52.11233 
L 97.156364 -50.500371 
L 97.325455 -52.814839 
L 97.494545 -56.857351 
L 97.663636 -55.112367 
L 97.832727 -55.767589 
L 98.001818 -53.525547 
L 98.170909 -53.707426 
L 98.34 -52.718366 
L 98.509091 -54.054336 
L 98.678182 -54.709991 
L 98.847273 -57.819847 
L 99.016364 -59.730758 
L 99.185455 -57.449896 
L 99.354545 -59.252522 
L 99.523636 -60.28826 
L 99.692727 -61.621157 
L 99.861818 -61.153788 
L 100.030909 -62.248009 
L 100.2 -60.399338 
L 100.369091 -62.724249 
L 100.538182 -60.575065 
L 100.707273 -59.606284 
L 100.876364 -59.180763 
L 101.045455 -57.861813 
L 101.214545 -57.174422 
L 101.383636 -57.713785 
L 101.552727 -58.980257 
L 101.721818 -59.345576 
L 101.890909 -59.684617 
L 102.06 -57.777126 
L 102.229091 -56.274576 
L 102.398182 -56.842627 
L 102.567273 -56.312394 
L 102.736364 -57.960347 
L 102.905455 -59.754255 
L 103.074545 -60.175483 
L 103.243636 -61.279703 
L 103.412727 -59.950615 
L 103.581818 -59.608825 
L 103.750909 -59.802034 
L 103.92 -61.367579 
L 104.089091 -62.172664 
L 104.258182 -61.758558 
L 104.427273 -73.925901 
L 104.596364 -69.527573 
L 104.765455 -67.800361 
L 104.934545 -69.034403 
L 105.103636 -65.364236 
L 105.272727 -64.382686 
L 105.441818 -68.378166 
L 105.610909 -64.465377 
L 105.78 -65.441853 
L 105.949091 -60.428172 
L 106.118182 -64.631214 
L 106.287273 -64.142272 
L 106.456364 -61.882699 
L 106.625455 -64.195584 
L 106.794545 -63.01927 
L 106.963636 -67.326588 
L 107.132727 -63.381947 
L 107.301818 -61.829702 
L 107.470909 -67.214522 
L 107.64 -69.593136 
L 107.809091 -65.442538 
L 107.978182 -65.373705 
L 108.147273 -64.859799 
L 108.316364 -63.332539 
L 108.485455 -60.733709 
L 108.654545 -66.501533 
L 108.823636 -62.565488 
L 108.992727 -64.909737 
L 109.161818 -64.970864 
L 109.330909 -67.034336 
L 109.5 -62.653624 
L 109.669091 -62.433294 
L 109.838182 -63.968193 
L 110.007273 -61.405918 
L 110.176364 -63.338568 
L 110.345455 -60.345024 
L 110.514545 -69.230872 
L 110.683636 -69.934397 
L 110.852727 -68.092082 
L 111.021818 -66.917031 
L 111.190909 -66.151005 
L 111.36 -78.102621 
L 111.529091 -70.09768 
L 111.698182 -69.54233 
L 111.867273 -73.807705 
L 112.036364 -70.288622 
L 112.205455 -76.813865 
L 112.374545 -75.590978 
L 112.543636 -75.639721 
L 112.712727 -72.592154 
L 112.881818 -73.807944 
L 113.050909 -73.143071 
L 113.22 -70.649355 
L 113.389091 -65.075075 
L 113.558182 -64.950274 
L 113.727273 -62.566453 
L 113.727273 -53.852112 
L 113.727273 -53.852112 
L 113.558182 -52.158464 
L 113.389091 -53.257077 
L 113.22 -56.036691 
L 113.050909 -57.506267 
L 112.881818 -53.783705 
L 112.712727 -53.605535 
L 112.543636 -56.805253 
L 112.374545 -55.864998 
L 112.205455 -55.137622 
L 112.036364 -55.302491 
L 111.867273 -54.768313 
L 111.698182 -53.073329 
L 111.529091 -55.645161 
L 111.36 -55.371769 
L 111.190909 -55.289771 
L 111.021818 -59.255351 
L 110.852727 -56.09264 
L 110.683636 -53.813789 
L 110.514545 -54.265803 
L 110.345455 -51.029206 
L 110.176364 -52.001388 
L 110.007273 -50.704048 
L 109.838182 -52.412833 
L 109.669091 -53.092507 
L 109.5 -50.509018 
L 109.330909 -53.536586 
L 109.161818 -51.360146 
L 108.992727 -52.897074 
L 108.823636 -52.103088 
L 108.654545 -56.774256 
L 108.485455 -54.769132 
L 108.316364 -57.391714 
L 108.147273 -55.286858 
L 107.978182 -54.995694 
L 107.809091 -57.026724 
L 107.64 -58.583948 
L 107.470909 -55.653289 
L 107.301818 -53.835264 
L 107.132727 -55.47736 
L 106.963636 -57.935321 
L 106.794545 -53.791827 
L 106.625455 -55.994569 
L 106.456364 -52.099809 
L 106.287273 -54.410584 
L 106.118182 -54.627557 
L 105.949091 -51.799332 
L 105.78 -57.054503 
L 105.610909 -51.849751 
L 105.441818 -55.572844 
L 105.272727 -54.965497 
L 105.103636 -55.978719 
L 104.934545 -57.580715 
L 104.765455 -55.250662 
L 104.596364 -56.307962 
L 104.427273 -57.392834 
L 104.258182 -53.61242 
L 104.089091 -55.79679 
L 103.92 -52.838564 
L 103.750909 -51.670624 
L 103.581818 -51.690122 
L 103.412727 -51.538467 
L 103.243636 -52.324865 
L 103.074545 -48.971382 
L 102.905455 -48.683904 
L 102.736364 -47.67764 
L 102.567273 -46.786489 
L 102.398182 -48.349643 
L 102.229091 -47.973821 
L 102.06 -48.247103 
L 101.890909 -49.670764 
L 101.721818 -48.213284 
L 101.552727 -48.557154 
L 101.383636 -50.111545 
L 101.214545 -50.054386 
L 101.045455 -49.52542 
L 100.876364 -50.263263 
L 100.707273 -50.51911 
L 100.538182 -51.512456 
L 100.369091 -52.170184 
L 100.2 -51.475701 
L 100.030909 -52.351143 
L 99.861818 -50.934865 
L 99.692727 -51.057805 
L 99.523636 -47.617674 
L 99.354545 -48.687669 
L 99.185455 -47.923645 
L 99.016364 -49.57768 
L 98.847273 -47.977519 
L 98.678182 -45.347208 
L 98.509091 -44.145613 
L 98.34 -43.56853 
L 98.170909 -45.204872 
L 98.001818 -44.208331 
L 97.832727 -45.702536 
L 97.663636 -45.42876 
L 97.494545 -47.040431 
L 97.325455 -43.386781 
L 97.156364 -42.816435 
L 96.987273 -43.973677 
L 96.818182 -44.833909 
L 96.649091 -43.867684 
L 96.48 -43.914561 
L 96.310909 -42.181496 
L 96.141818 -44.045685 
L 95.972727 -42.783226 
L 95.803636 -47.250604 
L 95.634545 -44.23947 
L 95.465455 -44.983711 
L 95.296364 -44.525781 
L 95.127273 -45.021653 
L 94.958182 -42.689799 
L 94.789091 -42.729199 
L 94.62 -44.229243 
L 94.450909 -44.786166 
L 94.281818 -44.188828 
L 94.112727 -45.97624 
L 93.943636 -41.768093 
L 93.774545 -42.355059 
L 93.605455 -41.064962 
L 93.436364 -42.733613 
L 93.267273 -43.862996 
L 93.098182 -42.970826 
L 92.929091 -39.682931 
L 92.76 -40.723894 
L 92.590909 -40.327371 
L 92.421818 -38.172301 
L 92.252727 -39.458739 
L 92.083636 -41.190519 
L 91.914545 -38.536545 
L 91.745455 -37.705057 
L 91.576364 -38.637259 
L 91.407273 -38.98783 
L 91.238182 -39.649958 
L 91.069091 -39.545739 
L 90.9 -42.241015 
L 90.730909 -41.872041 
L 90.561818 -42.771305 
L 90.392727 -40.975375 
L 90.223636 -38.512303 
L 90.054545 -38.387449 
L 89.885455 -38.544642 
L 89.716364 -41.076061 
L 89.547273 -40.79817 
L 89.378182 -42.009212 
L 89.209091 -43.77796 
L 89.04 -41.583257 
L 88.870909 -42.056061 
L 88.701818 -43.198539 
L 88.532727 -44.504649 
L 88.363636 -45.061411 
L 88.194545 -42.717638 
L 88.025455 -43.958571 
L 87.856364 -44.561061 
L 87.687273 -42.657128 
L 87.518182 -46.101057 
L 87.349091 -45.070468 
L 87.18 -44.19277 
L 87.010909 -44.106919 
L 86.841818 -43.379317 
L 86.672727 -45.39254 
L 86.503636 -48.419824 
L 86.334545 -47.07156 
L 86.165455 -44.465332 
L 85.996364 -43.624169 
L 85.827273 -44.981345 
L 85.658182 -46.164647 
L 85.489091 -44.842994 
L 85.32 -46.081601 
L 85.150909 -48.140871 
L 84.981818 -48.157201 
L 84.812727 -45.488023 
L 84.643636 -48.256243 
L 84.474545 -45.970064 
L 84.305455 -45.666997 
L 84.136364 -42.212283 
L 83.967273 -43.496903 
L 83.798182 -44.113332 
L 83.629091 -46.300533 
L 83.46 -43.323299 
L 83.290909 -40.036454 
L 83.121818 -41.626731 
L 82.952727 -39.443174 
L 82.783636 -41.914175 
L 82.614545 -40.152692 
L 82.445455 -39.587043 
L 82.276364 -41.350368 
L 82.107273 -39.726588 
L 81.938182 -38.41352 
L 81.769091 -38.156622 
L 81.6 -37.440809 
L 81.430909 -40.456182 
L 81.261818 -41.020929 
L 81.092727 -41.925455 
L 80.923636 -41.736334 
L 80.754545 -41.762217 
L 80.585455 -41.462112 
L 80.416364 -42.444712 
L 80.247273 -38.675872 
L 80.078182 -40.029037 
L 79.909091 -39.435585 
L 79.74 -39.569525 
L 79.570909 -41.514139 
L 79.401818 -39.251574 
L 79.232727 -39.647111 
L 79.063636 -40.896022 
L 78.894545 -40.143081 
L 78.725455 -39.881511 
L 78.556364 -42.590421 
L 78.387273 -39.813803 
L 78.218182 -40.487383 
L 78.049091 -39.330185 
L 77.88 -40.524202 
L 77.710909 -39.868428 
L 77.541818 -42.005739 
L 77.372727 -41.624535 
L 77.203636 -42.029485 
L 77.034545 -45.461553 
L 76.865455 -43.317889 
L 76.696364 -42.323301 
L 76.527273 -36.645695 
L 76.358182 -42.621073 
L 76.189091 -41.54632 
L 76.02 -42.024493 
L 75.850909 -39.098462 
L 75.681818 -37.10088 
L 75.512727 -39.397517 
L 75.343636 -40.350389 
L 75.174545 -39.013443 
L 75.005455 -40.873696 
L 74.836364 -39.209687 
L 74.667273 -40.151648 
L 74.498182 -39.631649 
L 74.329091 -38.919951 
L 74.16 -39.606595 
L 73.990909 -40.039408 
L 73.821818 -38.373726 
L 73.652727 -37.791234 
L 73.483636 -40.184132 
L 73.314545 -41.881437 
L 73.145455 -38.952069 
L 72.976364 -41.799317 
L 72.807273 -41.756267 
L 72.638182 -41.17965 
L 72.469091 -43.267729 
L 72.3 -41.761369 
L 72.130909 -41.131516 
L 71.961818 -40.887311 
L 71.792727 -42.861507 
L 71.623636 -40.099936 
L 71.454545 -41.755325 
L 71.285455 -40.737661 
L 71.116364 -40.583568 
L 70.947273 -42.864859 
L 70.778182 -40.222295 
L 70.609091 -39.053395 
L 70.44 -39.313426 
L 70.270909 -39.604037 
L 70.101818 -40.289204 
L 69.932727 -41.144365 
L 69.763636 -41.114426 
L 69.594545 -39.779824 
L 69.425455 -40.354282 
L 69.256364 -38.194913 
L 69.087273 -35.88116 
L 68.918182 -36.86518 
L 68.749091 -34.974687 
L 68.58 -37.272336 
L 68.410909 -37.985442 
L 68.241818 -36.081716 
L 68.072727 -37.372934 
L 67.903636 -38.11667 
L 67.734545 -39.150149 
L 67.565455 -39.046001 
L 67.396364 -42.524447 
L 67.227273 -41.8109 
L 67.058182 -44.129858 
L 66.889091 -43.754694 
L 66.72 -45.353053 
L 66.550909 -46.253117 
L 66.381818 -45.83417 
L 66.212727 -44.931119 
L 66.043636 -46.93332 
L 65.874545 -47.637569 
L 65.705455 -49.831224 
L 65.536364 -51.95967 
L 65.367273 -50.614953 
L 65.198182 -52.526756 
L 65.029091 -53.30259 
L 64.86 -54.229425 
L 64.690909 -55.700721 
L 64.521818 -56.746006 
L 64.352727 -59.959348 
L 64.183636 -58.386603 
L 64.014545 -63.566755 
L 63.845455 -63.601964 
L 63.676364 -67.823164 
L 63.507273 -69.131591 
L 63.338182 -74.328373 
L 63.169091 -80.479043 
L 63 -85.771169 
L 62.830909 -88.436711 
L 62.661818 -89.249338 
L 62.492727 -93.315157 
L 62.323636 -94.106096 
L 62.154545 -85.16191 
L 61.985455 -91.346816 
L 61.816364 -89.029461 
L 61.647273 -87.132268 
L 61.478182 -89.902465 
L 61.309091 -88.066587 
L 61.14 -86.832244 
L 60.970909 -89.146511 
L 60.801818 -90.677036 
L 60.632727 -92.66999 
L 60.463636 -93.630124 
L 60.294545 -94.496947 
L 60.125455 -90.912532 
L 59.956364 -94.614342 
L 59.787273 -95.942526 
L 59.618182 -92.97229 
L 59.449091 -96.85475 
L 59.28 -94.577749 
L 59.110909 -94.238582 
L 58.941818 -95.918852 
L 58.772727 -93.214809 
L 58.603636 -92.185355 
L 58.434545 -93.057219 
L 58.265455 -96.995418 
L 58.096364 -96.727146 
L 57.927273 -97.042925 
L 57.758182 -98.465893 
L 57.589091 -93.690045 
L 57.42 -97.895015 
L 57.250909 -91.89894 
L 57.081818 -90.132818 
L 56.912727 -91.752264 
L 56.743636 -92.08333 
L 56.574545 -94.061129 
L 56.405455 -95.968363 
L 56.236364 -92.951446 
L 56.067273 -87.966761 
L 55.898182 -94.376614 
L 55.729091 -92.040409 
L 55.56 -94.124026 
L 55.390909 -95.186457 
L 55.221818 -92.460939 
L 55.052727 -93.8843 
L 54.883636 -93.723659 
L 54.714545 -95.258976 
L 54.545455 -94.360467 
L 54.376364 -92.506773 
L 54.207273 -94.713093 
L 54.038182 -89.579457 
L 53.869091 -90.310502 
L 53.7 -89.488583 
L 53.530909 -88.30636 
L 53.361818 -91.414762 
L 53.192727 -91.011825 
L 53.023636 -93.992467 
L 52.854545 -91.021054 
L 52.685455 -91.326755 
L 52.516364 -90.217737 
L 52.347273 -92.895726 
L 52.178182 -94.201755 
L 52.009091 -92.809389 
L 51.84 -92.367203 
L 51.670909 -91.979292 
L 51.501818 -89.805762 
L 51.332727 -89.998172 
L 51.163636 -86.536237 
L 50.994545 -83.321767 
L 50.825455 -89.625063 
L 50.656364 -86.857183 
L 50.487273 -87.698399 
L 50.318182 -89.947284 
L 50.149091 -91.55805 
L 49.98 -90.802115 
L 49.810909 -90.633125 
L 49.641818 -90.150192 
L 49.472727 -85.252274 
L 49.303636 -86.411733 
L 49.134545 -86.16086 
L 48.965455 -89.162663 
L 48.796364 -90.208247 
L 48.627273 -88.148797 
L 48.458182 -92.090993 
L 48.289091 -90.638368 
L 48.12 -90.910284 
L 47.950909 -86.445325 
L 47.781818 -89.492852 
L 47.612727 -90.819988 
L 47.443636 -92.159604 
L 47.274545 -87.185818 
L 47.105455 -85.515027 
L 46.936364 -86.176758 
L 46.767273 -82.292092 
L 46.598182 -84.76932 
L 46.429091 -88.318925 
L 46.26 -87.221304 
L 46.090909 -87.142164 
L 45.921818 -90.154387 
L 45.752727 -89.83154 
L 45.583636 -89.417535 
L 45.414545 -91.419643 
L 45.245455 -96.01751 
L 45.076364 -92.26043 
L 44.907273 -89.76232 
L 44.738182 -88.374071 
L 44.569091 -90.856019 
L 44.4 -88.659258 
L 44.230909 -85.602984 
L 44.061818 -85.10461 
L 43.892727 -88.041532 
L 43.723636 -83.335365 
L 43.554545 -84.636205 
L 43.385455 -80.474536 
L 43.216364 -83.308426 
L 43.047273 -84.716516 
L 42.878182 -84.240501 
L 42.709091 -84.153875 
L 42.54 -84.113407 
L 42.370909 -86.051451 
L 42.201818 -84.822796 
L 42.032727 -87.441285 
L 41.863636 -86.221318 
L 41.694545 -84.928547 
L 41.525455 -83.920203 
L 41.356364 -85.74881 
L 41.187273 -88.635526 
L 41.018182 -87.976907 
L 40.849091 -85.825607 
L 40.68 -84.117609 
L 40.510909 -85.21508 
L 40.341818 -86.541467 
L 40.172727 -89.629703 
L 40.003636 -94.411009 
L 39.834545 -93.654957 
L 39.665455 -93.814494 
L 39.496364 -90.701595 
L 39.327273 -87.853447 
L 39.158182 -90.20434 
L 38.989091 -88.806521 
L 38.82 -86.733596 
L 38.650909 -83.046531 
L 38.481818 -87.424374 
L 38.312727 -84.214169 
L 38.143636 -83.392085 
L 37.974545 -84.293817 
L 37.805455 -86.174063 
L 37.636364 -86.839338 
L 37.467273 -83.439333 
L 37.298182 -86.767594 
L 37.129091 -83.320923 
L 36.96 -89.383433 
L 36.790909 -92.91776 
L 36.621818 -88.229152 
L 36.452727 -88.379513 
L 36.283636 -87.607903 
L 36.114545 -86.712258 
L 35.945455 -85.580741 
L 35.776364 -87.360104 
L 35.607273 -90.012725 
L 35.438182 -88.530374 
L 35.269091 -92.075189 
L 35.1 -88.459777 
L 34.930909 -88.81653 
L 34.761818 -91.256529 
L 34.592727 -89.440883 
L 34.423636 -90.560506 
L 34.254545 -84.274093 
L 34.085455 -88.929254 
L 33.916364 -87.689036 
L 33.747273 -86.939603 
L 33.578182 -85.627618 
L 33.409091 -83.005729 
L 33.24 -78.85897 
L 33.070909 -83.399729 
L 32.901818 -84.36908 
L 32.732727 -85.433289 
L 32.563636 -85.343514 
L 32.394545 -87.019183 
L 32.225455 -87.556428 
L 32.056364 -91.629794 
L 31.887273 -93.22979 
L 31.718182 -94.10743 
L 31.549091 -89.347463 
L 31.38 -94.29724 
L 31.210909 -89.110333 
L 31.041818 -89.366735 
L 30.872727 -88.231742 
L 30.703636 -91.800678 
L 30.534545 -90.075648 
L 30.365455 -88.426878 
L 30.196364 -85.390589 
L 30.027273 -88.942254 
L 29.858182 -83.365526 
L 29.689091 -83.870098 
L 29.52 -83.245757 
L 29.350909 -87.356441 
L 29.181818 -89.164862 
L 29.012727 -86.923819 
L 28.843636 -89.101052 
L 28.674545 -88.62476 
L 28.505455 -87.907122 
L 28.336364 -88.518035 
L 28.167273 -88.92972 
L 27.998182 -91.844955 
L 27.829091 -91.839334 
L 27.66 -88.954449 
L 27.490909 -90.16404 
L 27.321818 -93.409524 
L 27.152727 -91.538372 
L 26.983636 -91.901199 
L 26.814545 -91.320253 
L 26.645455 -87.661817 
L 26.476364 -90.70795 
L 26.307273 -93.578697 
L 26.138182 -88.383687 
L 25.969091 -89.038928 
L 25.8 -91.618363 
L 25.630909 -91.463722 
L 25.461818 -88.330004 
L 25.292727 -92.669878 
L 25.123636 -90.569115 
L 24.954545 -84.699153 
L 24.785455 -84.086267 
L 24.616364 -83.611363 
L 24.447273 -83.50523 
L 24.278182 -84.434661 
L 24.109091 -89.435343 
L 23.94 -84.597319 
L 23.770909 -85.317692 
L 23.601818 -83.664426 
L 23.432727 -84.422314 
L 23.263636 -84.017585 
L 23.094545 -84.269083 
L 22.925455 -84.863273 
L 22.756364 -85.860386 
L 22.587273 -87.330781 
L 22.418182 -88.6174 
L 22.249091 -87.419313 
L 22.08 -86.303047 
L 21.910909 -86.045859 
L 21.741818 -82.111543 
L 21.572727 -81.470874 
L 21.403636 -90.18614 
L 21.234545 -87.151717 
L 21.065455 -87.182943 
L 20.896364 -87.916201 
L 20.727273 -90.016495 
L 20.558182 -94.235405 
L 20.389091 -90.971955 
L 20.22 -91.074548 
L 20.050909 -91.397694 
L 19.881818 -87.705122 
L 19.712727 -89.854977 
L 19.543636 -87.849846 
L 19.374545 -89.818612 
L 19.205455 -85.503371 
L 19.036364 -85.862741 
L 18.867273 -86.976919 
L 18.698182 -84.856292 
L 18.529091 -88.943209 
L 18.36 -94.719297 
L 18.190909 -89.300586 
L 18.021818 -89.263046 
L 17.852727 -94.250225 
L 17.683636 -92.963945 
L 17.514545 -88.621925 
L 17.345455 -85.149295 
L 17.176364 -84.345334 
L 17.007273 -86.929253 
L 16.838182 -82.643418 
L 16.669091 -83.090639 
L 16.5 -85.150008 
L 16.330909 -87.365704 
L 16.161818 -88.61311 
L 15.992727 -88.102839 
L 15.823636 -91.49264 
L 15.654545 -95.474065 
L 15.485455 -89.144089 
L 15.316364 -88.668398 
L 15.147273 -90.194617 
L 14.978182 -88.071506 
L 14.809091 -86.094316 
L 14.64 -88.238093 
L 14.470909 -86.130149 
L 14.301818 -92.528362 
L 14.132727 -91.857217 
L 13.963636 -85.181196 
L 13.794545 -84.223693 
L 13.625455 -86.427612 
L 13.456364 -87.908992 
L 13.287273 -86.614517 
L 13.118182 -88.789147 
L 12.949091 -81.458586 
L 12.78 -82.598927 
L 12.610909 -84.96494 
L 12.441818 -85.985391 
L 12.272727 -87.033722 
z
" style="stroke: #008000; stroke-opacity: 0.3"/>
    </defs>
    <g clip-path="url(#p17af9d1e61)">
     <use xlink:href="#m6ecf133406" x="0" y="121.554688" style="fill: #008000; fill-opacity: 0.3; stroke: #008000; stroke-opacity: 0.3"/>
    </g>
   </g>
   <g id="matplotlib.axis_1">
    <g id="xtick_1">
     <g id="line2d_1">
      <defs>
       <path id="m95f58decb5" d="M 0 0 
L 0 3.5 
" style="stroke: #000000; stroke-width: 0.8"/>
      </defs>
      <g>
       <use xlink:href="#m95f58decb5" x="20.727273" y="90.36" style="stroke: #000000; stroke-width: 0.8"/>
      </g>
     </g>
     <g id="text_1">
      <text style="font: 6px 'Arial', sans-serif; text-anchor: middle" x="20.727273" y="101.654687" transform="rotate(-0 20.727273 101.654687)">250</text>
     </g>
    </g>
    <g id="xtick_2">
     <g id="line2d_2">
      <g>
       <use xlink:href="#m95f58decb5" x="63" y="90.36" style="stroke: #000000; stroke-width: 0.8"/>
      </g>
     </g>
     <g id="text_2">
      <text style="font: 6px 'Arial', sans-serif; text-anchor: middle" x="63" y="101.654687" transform="rotate(-0 63 101.654687)">0</text>
     </g>
    </g>
    <g id="xtick_3">
     <g id="line2d_3">
      <g>
       <use xlink:href="#m95f58decb5" x="105.272727" y="90.36" style="stroke: #000000; stroke-width: 0.8"/>
      </g>
     </g>
     <g id="text_3">
      <text style="font: 6px 'Arial', sans-serif; text-anchor: middle" x="105.272727" y="101.654687" transform="rotate(-0 105.272727 101.654687)">250</text>
     </g>
    </g>
    <g id="text_4">
     <text style="font: 8px 'Arial', sans-serif; text-anchor: middle" x="63" y="112.670938" transform="rotate(-0 63 112.670938)">Time Relative to Stimulus (s)</text>
    </g>
   </g>
   <g id="matplotlib.axis_2">
    <g id="ytick_1"/>
    <g id="ytick_2"/>
   </g>
   <g id="line2d_4">
    <path d="M 12.272727 26.761678 
L 12.441818 26.855644 
L 12.610909 24.369525 
L 12.78 28.485981 
L 12.949091 23.954903 
L 13.118182 24.467695 
L 13.287273 25.77443 
L 13.456364 23.91851 
L 13.625455 27.021148 
L 13.794545 25.780642 
L 13.963636 26.876874 
L 14.132727 26.833153 
L 14.301818 26.380716 
L 14.470909 31.068318 
L 14.64 24.708811 
L 14.809091 26.513383 
L 14.978182 22.705189 
L 15.147273 24.865947 
L 15.316364 22.599162 
L 15.485455 26.558587 
L 15.654545 20.179239 
L 15.823636 28.534931 
L 16.161818 21.83685 
L 16.330909 22.924534 
L 16.669091 26.259426 
L 16.838182 24.329109 
L 17.007273 24.143466 
L 17.176364 31.036698 
L 17.345455 26.265766 
L 17.514545 25.314462 
L 17.683636 22.632628 
L 18.021818 25.183066 
L 18.190909 22.829088 
L 18.36 25.394275 
L 18.698182 21.946587 
L 18.867273 25.761342 
L 19.036364 25.440826 
L 19.205455 29.636202 
L 19.374545 22.800352 
L 19.543636 24.575816 
L 19.712727 29.189462 
L 19.881818 25.909389 
L 20.050909 27.094766 
L 20.22 30.596004 
L 20.389091 22.12635 
L 20.558182 20.831279 
L 20.896364 26.223609 
L 21.234545 23.26401 
L 21.741818 29.562335 
L 21.910909 28.625926 
L 22.08 24.790553 
L 22.249091 26.351333 
L 22.418182 24.760863 
L 22.587273 27.486504 
L 22.756364 25.524535 
L 22.925455 25.858175 
L 23.094545 23.701063 
L 23.263636 26.98665 
L 23.432727 26.741786 
L 23.601818 27.683221 
L 23.770909 27.289627 
L 23.94 30.127726 
L 24.109091 27.00949 
L 24.278182 32.770314 
L 24.447273 26.332193 
L 24.616364 25.042492 
L 24.785455 30.891681 
L 24.954545 30.980901 
L 25.123636 27.339112 
L 25.292727 32.944683 
L 25.630909 26.152686 
L 25.8 28.656978 
L 25.969091 29.037892 
L 26.138182 29.78856 
L 26.307273 27.885348 
L 26.476364 28.834237 
L 26.645455 26.054111 
L 26.814545 30.1063 
L 26.983636 29.608802 
L 27.152727 25.271119 
L 27.490909 30.273109 
L 27.66 29.149586 
L 27.829091 29.455943 
L 27.998182 26.134318 
L 28.167273 29.982758 
L 28.336364 27.106432 
L 28.505455 29.772176 
L 28.674545 27.374138 
L 28.843636 28.461556 
L 29.012727 26.341322 
L 29.181818 30.516951 
L 29.350909 24.297087 
L 29.689091 29.99593 
L 29.858182 29.643336 
L 30.027273 24.05675 
L 30.196364 31.370276 
L 30.365455 32.451171 
L 30.534545 29.149453 
L 30.703636 29.603253 
L 30.872727 28.519015 
L 31.041818 25.834747 
L 31.210909 28.587043 
L 31.38 27.681023 
L 31.549091 30.80611 
L 31.887273 28.185731 
L 32.056364 27.779493 
L 32.394545 31.35263 
L 32.563636 30.189895 
L 32.732727 31.438535 
L 33.070909 30.257338 
L 33.24 33.090285 
L 33.409091 28.38903 
L 33.578182 30.777757 
L 33.747273 29.716099 
L 33.916364 31.017674 
L 34.085455 30.785166 
L 34.254545 29.572881 
L 34.423636 30.537972 
L 34.592727 29.206653 
L 34.761818 28.810409 
L 34.930909 31.530636 
L 35.1 31.276371 
L 35.607273 23.979601 
L 35.776364 30.608973 
L 35.945455 30.993869 
L 36.283636 32.657961 
L 36.621818 28.851664 
L 36.790909 27.635352 
L 36.96 23.156937 
L 37.129091 30.627197 
L 37.298182 30.390907 
L 37.467273 28.626099 
L 37.636364 31.752716 
L 37.805455 31.878289 
L 37.974545 27.291061 
L 38.312727 31.924602 
L 38.481818 28.815113 
L 38.650909 31.64675 
L 38.989091 33.038824 
L 39.158182 27.584197 
L 39.327273 34.551564 
L 39.665455 25.351504 
L 40.003636 30.462032 
L 40.172727 29.022287 
L 40.510909 28.604951 
L 40.68 33.535504 
L 40.849091 28.370655 
L 41.187273 32.097476 
L 41.525455 27.326135 
L 41.863636 26.817785 
L 42.201818 32.399261 
L 42.370909 28.368083 
L 42.54 34.217515 
L 43.047273 27.760257 
L 43.216364 29.580516 
L 43.385455 28.310807 
L 43.554545 31.54617 
L 43.723636 31.725126 
L 43.892727 28.973974 
L 44.061818 29.519621 
L 44.4 33.587171 
L 44.569091 31.599379 
L 44.907273 31.488413 
L 45.076364 30.655927 
L 45.245455 32.804264 
L 45.414545 36.553619 
L 45.583636 32.572618 
L 45.752727 35.454277 
L 46.090909 30.543931 
L 46.26 31.42925 
L 46.429091 30.214722 
L 46.598182 35.000822 
L 46.767273 35.031779 
L 47.105455 29.520541 
L 47.274545 32.517519 
L 47.612727 29.992729 
L 47.781818 30.95554 
L 47.950909 29.444608 
L 48.12 26.243578 
L 48.289091 31.921989 
L 48.458182 31.846003 
L 48.627273 31.905799 
L 48.796364 32.917572 
L 48.965455 30.938813 
L 49.134545 34.324652 
L 49.303636 30.931145 
L 49.472727 31.780421 
L 49.641818 26.785022 
L 49.98 33.063335 
L 50.149091 31.299011 
L 50.318182 28.158598 
L 50.487273 32.122959 
L 50.656364 25.966949 
L 50.825455 28.997327 
L 50.994545 34.121526 
L 51.163636 32.044049 
L 51.332727 31.715595 
L 51.501818 32.846634 
L 51.84 29.541835 
L 52.009091 34.529955 
L 52.178182 30.414051 
L 52.347273 34.26135 
L 52.685455 30.016978 
L 53.192727 34.651963 
L 53.361818 37.185318 
L 53.7 31.754655 
L 53.869091 34.040291 
L 54.207273 33.279292 
L 54.376364 30.962928 
L 54.545455 34.475727 
L 54.714545 33.690126 
L 54.883636 30.709498 
L 55.052727 34.362109 
L 55.221818 30.417409 
L 55.390909 34.383016 
L 55.729091 34.697002 
L 55.898182 31.82754 
L 56.067273 36.54135 
L 56.236364 32.928741 
L 56.405455 32.461274 
L 56.574545 33.036229 
L 56.743636 30.249752 
L 56.912727 33.242376 
L 57.081818 33.685483 
L 57.250909 32.358719 
L 57.42 33.791999 
L 57.589091 33.665395 
L 57.758182 35.741328 
L 57.927273 30.660477 
L 58.096364 32.993562 
L 58.265455 32.100695 
L 58.434545 33.68824 
L 58.603636 29.635026 
L 58.772727 29.965055 
L 58.941818 30.950671 
L 59.28 35.676753 
L 59.618182 33.759369 
L 59.787273 36.661647 
L 59.956364 33.390145 
L 60.125455 33.203183 
L 60.294545 35.674001 
L 60.632727 29.762859 
L 60.801818 33.49255 
L 61.14 36.037152 
L 61.309091 35.191115 
L 61.647273 31.23229 
L 61.816364 35.992975 
L 61.985455 34.455945 
L 62.154545 37.90203 
L 62.323636 34.220054 
L 62.492727 35.322769 
L 62.661818 32.879073 
L 62.830909 35.217358 
L 63 33.652558 
L 63.169091 33.701424 
L 63.338182 34.439621 
L 63.507273 32.684694 
L 63.676364 32.568828 
L 63.845455 32.310991 
L 64.014545 27.607137 
L 64.183636 33.637062 
L 64.352727 30.285965 
L 64.521818 30.097808 
L 64.690909 32.955242 
L 64.86 32.695341 
L 65.029091 30.600661 
L 65.198182 30.84293 
L 65.367273 34.787339 
L 65.536364 29.32282 
L 65.874545 32.045056 
L 66.043636 31.645898 
L 66.212727 28.332819 
L 66.381818 33.987431 
L 66.550909 33.065472 
L 66.72 28.879157 
L 66.889091 30.640744 
L 67.058182 29.950387 
L 67.227273 35.486339 
L 67.396364 29.558383 
L 67.565455 32.614353 
L 67.734545 32.215034 
L 67.903636 27.475649 
L 68.241818 34.433243 
L 68.410909 28.832667 
L 68.58 30.090328 
L 68.749091 34.276334 
L 68.918182 32.679351 
L 69.087273 35.851781 
L 69.256364 31.610769 
L 69.425455 32.857728 
L 69.594545 30.713763 
L 69.763636 32.797097 
L 69.932727 29.482443 
L 70.101818 35.333629 
L 70.270909 33.209479 
L 70.44 33.108109 
L 70.609091 30.178337 
L 70.778182 32.348489 
L 70.947273 32.046028 
L 71.116364 37.3076 
L 71.285455 35.155839 
L 71.454545 36.83353 
L 71.623636 30.342903 
L 71.792727 28.998749 
L 72.130909 35.188778 
L 72.469091 32.566624 
L 72.638182 35.408659 
L 72.807273 34.43932 
L 72.976364 30.068064 
L 73.145455 33.437354 
L 73.483636 28.208489 
L 73.652727 36.026797 
L 73.821818 35.168706 
L 73.990909 37.593498 
L 74.16 32.867816 
L 74.329091 36.036204 
L 74.667273 32.384398 
L 74.836364 33.288175 
L 75.005455 31.064476 
L 75.174545 31.461946 
L 75.343636 35.297383 
L 75.512727 28.890125 
L 75.850909 34.623811 
L 76.189091 30.802417 
L 76.358182 31.756154 
L 76.527273 30.745115 
L 76.696364 34.959216 
L 76.865455 30.630369 
L 77.034545 31.06202 
L 77.203636 36.54777 
L 77.372727 31.427707 
L 77.541818 36.434875 
L 77.710909 36.394875 
L 77.88 35.210877 
L 78.049091 38.891795 
L 78.387273 33.308644 
L 78.556364 32.030796 
L 78.725455 29.21881 
L 78.894545 37.478241 
L 79.063636 33.082499 
L 79.232727 33.002481 
L 79.401818 32.455645 
L 79.74 36.705044 
L 79.909091 30.716553 
L 80.078182 37.009816 
L 80.247273 32.356407 
L 80.416364 35.112968 
L 80.585455 29.902216 
L 80.754545 35.239184 
L 80.923636 34.7721 
L 81.092727 32.128184 
L 81.261818 36.501175 
L 81.430909 33.291035 
L 81.6 36.40443 
L 81.769091 33.445489 
L 81.938182 42.720553 
L 82.107273 34.958969 
L 82.276364 34.016418 
L 82.445455 30.048253 
L 82.614545 36.907023 
L 82.783636 31.741819 
L 82.952727 30.411934 
L 83.121818 34.561574 
L 83.290909 33.707137 
L 83.46 34.70713 
L 83.629091 33.715333 
L 83.798182 30.447105 
L 83.967273 33.141746 
L 84.136364 37.828811 
L 84.474545 33.685044 
L 84.643636 35.502759 
L 84.812727 33.70402 
L 84.981818 33.922634 
L 85.150909 36.879239 
L 85.32 35.7879 
L 85.658182 30.952511 
L 85.996364 37.498551 
L 86.165455 35.162855 
L 86.334545 34.963728 
L 86.503636 31.704041 
L 86.672727 31.847712 
L 86.841818 38.211384 
L 87.010909 33.772443 
L 87.18 36.530854 
L 87.349091 33.454371 
L 87.518182 32.749522 
L 87.687273 35.698641 
L 87.856364 34.235907 
L 88.025455 34.867465 
L 88.194545 34.252175 
L 88.363636 36.669793 
L 88.532727 31.358388 
L 88.701818 35.131892 
L 88.870909 35.87891 
L 89.04 35.418377 
L 89.209091 32.196687 
L 89.716364 39.646986 
L 89.885455 36.476567 
L 90.054545 39.225898 
L 90.223636 37.042307 
L 90.392727 38.003007 
L 90.561818 34.405355 
L 90.730909 34.648424 
L 90.9 36.548284 
L 91.238182 41.407438 
L 91.407273 36.855723 
L 91.576364 41.296014 
L 91.745455 33.992968 
L 91.914545 38.438321 
L 92.083636 32.455821 
L 92.421818 37.745378 
L 92.590909 39.294138 
L 92.76 38.602112 
L 92.929091 34.9817 
L 93.098182 36.700229 
L 93.267273 33.916691 
L 93.436364 36.434911 
L 93.605455 33.749358 
L 93.943636 39.544974 
L 94.112727 34.771105 
L 94.281818 33.543501 
L 94.450909 37.001915 
L 94.62 34.515075 
L 94.789091 34.426418 
L 95.127273 32.869072 
L 95.465455 36.524136 
L 95.634545 35.927384 
L 95.803636 33.057313 
L 95.972727 36.061558 
L 96.310909 34.419305 
L 96.48 35.383638 
L 96.649091 37.610916 
L 96.818182 36.85944 
L 96.987273 33.343225 
L 97.325455 41.944182 
L 97.494545 34.411626 
L 97.832727 33.463837 
L 98.001818 34.175224 
L 98.170909 37.649107 
L 98.34 37.139028 
L 98.509091 35.85222 
L 98.678182 36.894825 
L 98.847273 32.879926 
L 99.016364 32.486985 
L 99.185455 39.792477 
L 99.354545 33.508594 
L 99.523636 39.477551 
L 99.692727 37.070569 
L 100.030909 37.646166 
L 100.2 34.32124 
L 100.538182 33.973181 
L 100.707273 38.131296 
L 100.876364 35.817164 
L 101.045455 39.071526 
L 101.214545 35.133792 
L 101.383636 37.938716 
L 101.552727 38.881289 
L 101.721818 39.097234 
L 102.06 37.611839 
L 102.229091 34.112019 
L 102.398182 35.496028 
L 102.567273 40.5264 
L 102.905455 36.110607 
L 103.074545 37.797845 
L 103.243636 36.563218 
L 103.412727 36.237931 
L 103.581818 36.772638 
L 103.750909 38.843033 
L 103.92 35.847523 
L 104.089091 36.047373 
L 104.258182 34.127065 
L 104.427273 36.74469 
L 104.934545 39.129838 
L 105.103636 35.318733 
L 105.272727 36.418067 
L 105.441818 36.617484 
L 105.610909 34.040776 
L 105.78 33.65368 
L 105.949091 36.707505 
L 106.287273 32.839828 
L 106.456364 41.279144 
L 106.625455 39.70029 
L 106.794545 39.832866 
L 106.963636 38.161742 
L 107.132727 37.694505 
L 107.301818 35.267451 
L 107.470909 36.184631 
L 107.64 32.954339 
L 107.809091 34.460277 
L 107.978182 33.378268 
L 108.147273 40.093642 
L 108.316364 40.676379 
L 108.823636 35.798266 
L 108.992727 39.562346 
L 109.330909 33.270447 
L 109.5 35.300745 
L 109.669091 29.294249 
L 110.007273 39.471896 
L 110.176364 31.207838 
L 110.345455 38.108189 
L 110.514545 38.190152 
L 110.683636 34.07969 
L 111.021818 39.296654 
L 111.190909 35.895319 
L 111.529091 37.423628 
L 111.698182 31.782947 
L 111.867273 40.05545 
L 112.036364 37.170475 
L 112.374545 36.828841 
L 112.543636 34.174395 
L 112.881818 40.403621 
L 113.050909 34.463316 
L 113.22 37.948275 
L 113.389091 37.560937 
L 113.558182 36.408359 
L 113.727273 37.367932 
L 113.727273 37.367932 
" clip-path="url(#p17af9d1e61)" style="fill: none; stroke: #808080; stroke-width: 0.2; stroke-linecap: square"/>
   </g>
   <g id="line2d_5">
    <path d="M 12.272727 29.12765 
L 12.610909 30.78464 
L 12.78 33.867821 
L 12.949091 34.267885 
L 13.118182 29.568758 
L 13.287273 31.259342 
L 13.456364 26.767049 
L 13.625455 26.521295 
L 13.794545 30.131118 
L 13.963636 30.632827 
L 14.132727 23.756612 
L 14.301818 23.907734 
L 14.470909 30.149769 
L 14.64 28.683415 
L 14.809091 31.767487 
L 15.147273 27.944349 
L 15.485455 29.425121 
L 15.654545 24.668581 
L 15.992727 31.264583 
L 16.161818 30.298732 
L 16.330909 30.766358 
L 16.669091 35.799461 
L 16.838182 35.064048 
L 17.007273 32.264969 
L 17.176364 34.197261 
L 17.345455 33.270029 
L 17.852727 21.835032 
L 18.021818 27.991522 
L 18.190909 28.123063 
L 18.36 23.469577 
L 18.698182 33.465294 
L 18.867273 31.393934 
L 19.036364 33.295362 
L 19.205455 31.494991 
L 19.374545 27.910843 
L 19.543636 27.798739 
L 19.712727 26.482625 
L 19.881818 29.20635 
L 20.050909 24.225399 
L 20.389091 26.620319 
L 20.558182 24.656006 
L 20.727273 28.937092 
L 21.065455 30.812284 
L 21.234545 30.00253 
L 21.403636 28.235097 
L 21.572727 36.303857 
L 21.741818 34.891064 
L 22.08 30.541669 
L 22.249091 30.88549 
L 22.418182 30.389353 
L 22.925455 33.377861 
L 23.094545 33.341128 
L 23.263636 34.061754 
L 23.432727 33.951761 
L 23.601818 34.181598 
L 23.770909 33.072834 
L 23.94 34.275113 
L 24.109091 30.797673 
L 24.278182 33.962632 
L 24.447273 33.879508 
L 24.616364 34.000214 
L 24.785455 33.886884 
L 24.954545 34.463564 
L 25.123636 27.254944 
L 25.292727 24.813227 
L 25.461818 29.090278 
L 25.630909 26.079729 
L 25.8 26.482417 
L 25.969091 29.044488 
L 26.138182 29.344433 
L 26.307273 23.698312 
L 26.476364 28.184088 
L 26.645455 28.930973 
L 26.814545 25.282121 
L 27.152727 26.774088 
L 27.321818 23.990459 
L 27.490909 26.729325 
L 27.66 26.51317 
L 27.829091 23.738764 
L 27.998182 23.04288 
L 28.167273 26.202842 
L 28.505455 27.353842 
L 28.674545 28.206332 
L 28.843636 27.836485 
L 29.012727 30.729212 
L 29.181818 29.491699 
L 29.52 33.663231 
L 29.689091 32.673787 
L 29.858182 33.819193 
L 30.027273 27.437637 
L 30.196364 29.755501 
L 30.365455 27.841654 
L 30.534545 27.723923 
L 30.703636 26.444537 
L 30.872727 28.943255 
L 31.041818 27.140492 
L 31.210909 27.917354 
L 31.38 24.109098 
L 31.549091 28.331835 
L 31.718182 22.714173 
L 32.056364 25.281363 
L 32.225455 29.872763 
L 32.394545 28.6538 
L 32.563636 31.616624 
L 32.732727 31.749958 
L 32.901818 34.953179 
L 33.070909 35.306893 
L 33.24 39.128965 
L 33.747273 31.684375 
L 34.085455 29.045262 
L 34.254545 31.95414 
L 34.423636 27.471528 
L 34.592727 29.025307 
L 34.761818 25.875253 
L 34.930909 28.632046 
L 35.1 28.685927 
L 35.269091 25.649446 
L 35.438182 29.123955 
L 35.607273 27.101668 
L 35.945455 32.711511 
L 36.114545 31.230538 
L 36.283636 30.828371 
L 36.452727 29.722912 
L 36.621818 31.271619 
L 36.790909 27.007556 
L 36.96 28.611001 
L 37.129091 32.626164 
L 37.298182 30.310599 
L 37.467273 34.144348 
L 37.636364 31.419241 
L 38.143636 34.844418 
L 38.312727 33.486266 
L 38.481818 29.883218 
L 38.650909 34.21242 
L 38.989091 29.320053 
L 39.158182 27.690526 
L 39.327273 29.455506 
L 39.665455 19.360097 
L 39.834545 22.551669 
L 40.003636 21.701068 
L 40.341818 30.884026 
L 40.68 32.788698 
L 40.849091 29.198879 
L 41.018182 30.641894 
L 41.187273 28.608117 
L 41.525455 31.778223 
L 41.694545 31.859388 
L 41.863636 33.243888 
L 42.032727 31.984528 
L 42.201818 35.530216 
L 42.370909 32.46705 
L 42.54 35.457219 
L 42.709091 33.452532 
L 42.878182 33.996523 
L 43.047273 31.814406 
L 43.385455 38.088611 
L 43.554545 33.460184 
L 43.723636 35.583644 
L 43.892727 30.363637 
L 44.061818 32.681549 
L 44.4 27.588953 
L 44.569091 27.656962 
L 44.738182 26.856702 
L 45.076364 22.887385 
L 45.245455 21.017588 
L 45.583636 29.13499 
L 45.752727 27.603917 
L 45.921818 27.659255 
L 46.090909 31.244279 
L 46.26 29.928768 
L 46.429091 26.890567 
L 46.767273 34.774782 
L 46.936364 32.089315 
L 47.105455 32.160305 
L 47.274545 31.39412 
L 47.443636 27.023685 
L 47.950909 31.123225 
L 48.12 27.51429 
L 48.458182 27.258627 
L 48.627273 31.598177 
L 48.796364 28.76214 
L 48.965455 29.749475 
L 49.134545 32.835781 
L 49.303636 32.549926 
L 49.472727 33.748337 
L 49.641818 27.345422 
L 49.810909 27.567461 
L 49.98 28.411264 
L 50.149091 27.260981 
L 50.487273 30.807618 
L 50.656364 31.103329 
L 50.825455 28.205205 
L 50.994545 33.62075 
L 51.163636 32.212132 
L 51.332727 27.916856 
L 51.501818 28.086138 
L 52.178182 23.475713 
L 52.516364 27.442106 
L 52.685455 26.258802 
L 52.854545 27.892812 
L 53.023636 23.79407 
L 53.192727 28.167986 
L 53.361818 23.737502 
L 53.530909 28.998146 
L 53.7 26.96819 
L 53.869091 23.564204 
L 54.038182 28.487238 
L 54.207273 22.714949 
L 54.376364 25.79378 
L 54.714545 22.106656 
L 54.883636 23.77063 
L 55.052727 23.414045 
L 55.221818 24.394458 
L 55.390909 20.434639 
L 55.56 22.050213 
L 55.729091 24.900293 
L 55.898182 22.938276 
L 56.067273 28.895507 
L 56.405455 21.251791 
L 56.912727 23.587634 
L 57.081818 27.376916 
L 57.250909 24.439343 
L 57.42 19.313564 
L 57.589091 22.71391 
L 57.758182 17.822029 
L 57.927273 21.332854 
L 58.096364 20.372082 
L 58.265455 21.149537 
L 58.434545 23.446147 
L 58.603636 23.878118 
L 58.941818 23.726212 
L 59.110909 22.497758 
L 59.28 24.088691 
L 59.449091 22.470293 
L 59.618182 26.01064 
L 59.787273 22.893898 
L 59.956364 23.509335 
L 60.125455 28.789117 
L 60.294545 23.798962 
L 60.463636 23.886904 
L 60.632727 24.823543 
L 61.14 30.65018 
L 61.309091 28.926489 
L 61.478182 30.597006 
L 61.647273 30.832306 
L 61.816364 29.560873 
L 61.985455 26.16204 
L 62.154545 31.781389 
L 62.323636 22.025855 
L 62.492727 23.186072 
L 62.661818 27.575751 
L 62.830909 28.970937 
L 63.169091 36.843078 
L 63.507273 47.943141 
L 64.183636 56.166214 
L 64.352727 55.031969 
L 64.521818 58.174075 
L 64.690909 58.558453 
L 64.86 60.457105 
L 65.029091 60.572729 
L 65.367273 63.724715 
L 65.536364 62.894148 
L 65.705455 66.269913 
L 66.212727 68.106695 
L 66.550909 65.569981 
L 67.227273 73.02493 
L 67.396364 72.410356 
L 67.565455 75.355021 
L 68.241818 79.139265 
L 68.410909 77.713645 
L 68.58 78.296828 
L 68.749091 80.784863 
L 68.918182 78.732743 
L 69.087273 79.68548 
L 69.425455 75.876733 
L 69.594545 76.796769 
L 69.763636 74.815415 
L 69.932727 74.681028 
L 70.101818 76.310378 
L 70.270909 76.480261 
L 70.44 77.195133 
L 70.609091 77.338994 
L 70.778182 76.523129 
L 70.947273 73.988451 
L 71.116364 75.280703 
L 71.285455 75.299072 
L 71.454545 73.76066 
L 71.623636 75.047667 
L 71.792727 72.937817 
L 71.961818 74.729041 
L 72.130909 74.423633 
L 72.3 75.196592 
L 72.469091 74.112642 
L 72.638182 75.125037 
L 72.807273 74.695835 
L 72.976364 75.031275 
L 73.145455 77.092572 
L 73.314545 74.114625 
L 73.652727 77.874238 
L 73.821818 77.799124 
L 73.990909 76.44087 
L 74.16 77.527089 
L 74.498182 77.743035 
L 74.667273 76.862607 
L 74.836364 77.913104 
L 75.005455 77.288286 
L 75.174545 79.042773 
L 75.343636 77.074798 
L 75.512727 77.627549 
L 75.681818 79.796206 
L 75.850909 78.174745 
L 76.02 75.402922 
L 76.189091 76.114631 
L 76.358182 75.611392 
L 76.527273 80.048064 
L 76.696364 74.707296 
L 76.865455 73.395142 
L 77.034545 70.809449 
L 77.203636 74.683424 
L 77.372727 74.916977 
L 78.049091 77.42856 
L 78.218182 76.255237 
L 78.387273 77.328304 
L 78.556364 75.858561 
L 78.725455 77.837952 
L 78.894545 77.871245 
L 79.063636 76.957027 
L 79.232727 77.009147 
L 79.401818 77.713717 
L 79.570909 74.418663 
L 79.74 76.988642 
L 79.909091 76.191411 
L 80.078182 76.49217 
L 80.247273 77.9574 
L 80.416364 74.049975 
L 80.585455 74.392546 
L 80.754545 74.256132 
L 80.923636 73.427879 
L 81.092727 74.042856 
L 81.6 78.637076 
L 81.938182 77.164704 
L 82.107273 77.44995 
L 82.276364 75.750332 
L 82.445455 77.212814 
L 82.614545 77.021364 
L 82.783636 75.631362 
L 82.952727 76.895979 
L 83.121818 74.596596 
L 83.290909 75.99598 
L 83.629091 71.722346 
L 83.798182 73.273156 
L 83.967273 72.830686 
L 84.136364 74.015478 
L 84.305455 70.715526 
L 84.474545 70.101326 
L 84.643636 68.254209 
L 84.812727 71.687949 
L 84.981818 70.122609 
L 85.150909 70.073368 
L 85.489091 73.135318 
L 85.658182 69.696761 
L 85.827273 72.267569 
L 85.996364 71.874475 
L 86.334545 69.069702 
L 86.503636 68.917647 
L 86.841818 73.896626 
L 87.010909 73.959655 
L 87.349091 71.785622 
L 87.518182 71.25221 
L 87.687273 75.750731 
L 87.856364 72.366026 
L 88.025455 73.300014 
L 88.194545 74.952371 
L 88.363636 72.264799 
L 88.532727 71.935359 
L 88.701818 75.125207 
L 89.04 75.099474 
L 89.209091 73.716542 
L 89.378182 76.247374 
L 89.716364 77.472959 
L 89.885455 79.022717 
L 90.054545 79.053565 
L 90.223636 78.805723 
L 90.561818 76.078614 
L 90.730909 76.708914 
L 90.9 76.573755 
L 91.069091 77.364656 
L 91.238182 77.439955 
L 91.407273 77.240196 
L 91.914545 78.155026 
L 92.083636 76.328776 
L 92.252727 76.714396 
L 92.421818 77.879233 
L 92.76 75.161009 
L 92.929091 76.401283 
L 93.267273 72.900664 
L 93.605455 74.544591 
L 93.774545 74.034606 
L 93.943636 75.269961 
L 94.112727 72.801342 
L 94.281818 73.717491 
L 94.450909 73.526104 
L 94.958182 75.581307 
L 95.127273 73.884323 
L 95.296364 74.03737 
L 95.465455 73.380184 
L 95.634545 73.976146 
L 95.803636 70.315369 
L 95.972727 73.645101 
L 96.141818 73.211715 
L 96.310909 75.300316 
L 96.48 73.356029 
L 96.818182 72.616631 
L 97.156364 74.896285 
L 97.325455 73.453878 
L 97.494545 69.605797 
L 97.663636 71.284124 
L 97.832727 70.819625 
L 98.001818 72.687748 
L 98.170909 72.098538 
L 98.34 73.411239 
L 98.678182 71.526088 
L 99.016364 66.900468 
L 99.185455 68.867917 
L 99.354545 67.584592 
L 99.523636 67.60172 
L 99.692727 65.215206 
L 99.861818 65.510361 
L 100.030909 64.255111 
L 100.2 65.617168 
L 100.369091 64.107471 
L 100.707273 66.491991 
L 100.876364 66.832674 
L 101.045455 67.861071 
L 101.214545 67.940283 
L 101.383636 67.642023 
L 101.552727 67.785982 
L 101.721818 67.775258 
L 101.890909 66.876997 
L 102.229091 69.430489 
L 102.398182 68.958552 
L 102.567273 70.005246 
L 103.243636 64.752404 
L 103.412727 65.810146 
L 103.581818 65.905214 
L 103.750909 65.818358 
L 104.089091 62.569961 
L 104.258182 63.869198 
L 104.427273 55.89532 
L 104.765455 60.029176 
L 104.934545 58.247129 
L 105.272727 61.880596 
L 105.441818 59.579182 
L 105.610909 63.397124 
L 105.78 60.306509 
L 105.949091 65.440935 
L 106.118182 61.925302 
L 106.287273 62.278259 
L 106.456364 64.563433 
L 106.625455 61.459611 
L 106.794545 63.149139 
L 106.963636 58.923733 
L 107.301818 63.722205 
L 107.64 57.466146 
L 107.978182 61.369988 
L 108.147273 61.481359 
L 108.316364 61.192561 
L 108.485455 63.803267 
L 108.654545 59.916793 
L 108.823636 64.2204 
L 108.992727 62.651282 
L 109.161818 63.389183 
L 109.330909 61.269227 
L 109.5 64.973367 
L 109.838182 63.364174 
L 110.007273 65.499704 
L 110.176364 63.88471 
L 110.345455 65.867573 
L 110.514545 59.80635 
L 110.852727 59.462327 
L 111.021818 58.468497 
L 111.190909 60.834299 
L 111.36 54.817492 
L 111.698182 60.246858 
L 111.867273 57.266679 
L 112.036364 58.759131 
L 112.205455 55.578944 
L 112.374545 55.8267 
L 112.543636 55.332201 
L 112.712727 58.455843 
L 112.881818 57.758863 
L 113.050909 56.230019 
L 113.22 58.211665 
L 113.389091 62.388612 
L 113.727273 63.345405 
L 113.727273 63.345405 
" clip-path="url(#p17af9d1e61)" style="fill: none; stroke: #008000; stroke-width: 0.2; stroke-linecap: square"/>
   </g>
   <g id="patch_3">
    <path d="M 7.2 90.36 
L 118.8 90.36 
" style="fill: none; stroke: #000000; stroke-width: 0.8; stroke-linejoin: miter; stroke-linecap: square"/>
   </g>
   <g id="patch_4">
    <path d="M 31.067798 77.214687 
L 31.236889 77.214687 
L 31.236889 61.619952 
L 31.067798 61.619952 
z
" style="stroke: #000000; stroke-linejoin: miter"/>
   </g>
   <g id="text_5">
    <text style="font: 10px 'Arial', sans-serif; text-anchor: start" x="9.2" y="86.3725" transform="rotate(-0 9.2 86.3725)">10% F/F</text>
   </g>
  </g>
 </g>
 <defs>
  <clipPath id="p17af9d1e61">
   <rect x="7.2" y="7.2" width="111.6" height="83.16"/>
  </clipPath>
 </defs>
</svg>
