<?xml version="1.0" encoding="utf-8" standalone="no"?>
<!DOCTYPE svg PUBLIC "-//W3C//DTD SVG 1.1//EN"
  "http://www.w3.org/Graphics/SVG/1.1/DTD/svg11.dtd">
<svg xmlns:xlink="http://www.w3.org/1999/xlink" width="288pt" height="144pt" viewBox="0 0 288 144" xmlns="http://www.w3.org/2000/svg" version="1.1">
 <metadata>
  <rdf:RDF xmlns:dc="http://purl.org/dc/elements/1.1/" xmlns:cc="http://creativecommons.org/ns#" xmlns:rdf="http://www.w3.org/1999/02/22-rdf-syntax-ns#">
   <cc:Work>
    <dc:type rdf:resource="http://purl.org/dc/dcmitype/StillImage"/>
    <dc:date>2023-07-08T16:42:40.850842</dc:date>
    <dc:format>image/svg+xml</dc:format>
    <dc:creator>
     <cc:Agent>
      <dc:title>Matplotlib v3.6.2, https://matplotlib.org/</dc:title>
     </cc:Agent>
    </dc:creator>
   </cc:Work>
  </rdf:RDF>
 </metadata>
 <defs>
  <style type="text/css">*{stroke-linejoin: round; stroke-linecap: butt}</style>
 </defs>
 <g id="figure_1">
  <g id="patch_1">
   <path d="M 0 144 
L 288 144 
L 288 0 
L 0 0 
z
" style="fill: #ffffff"/>
  </g>
  <g id="axes_1">
   <g id="patch_2">
    <path d="M 36 128.16 
L 259.2 128.16 
L 259.2 17.28 
L 36 17.28 
z
" style="fill: #ffffff"/>
   </g>
   <g id="matplotlib.axis_1">
    <g id="xtick_1">
     <g id="line2d_1">
      <defs>
       <path id="m33b3d35169" d="M 0 0 
L 0 3.5 
" style="stroke: #000000; stroke-width: 0.8"/>
      </defs>
      <g>
       <use xlink:href="#m33b3d35169" x="46.145455" y="128.16" style="stroke: #000000; stroke-width: 0.8"/>
      </g>
     </g>
     <g id="text_1">
      <text style="font: 6px 'Arial', sans-serif; text-anchor: middle" x="46.145455" y="139.454688" transform="rotate(-0 46.145455 139.454688)">−15</text>
     </g>
    </g>
    <g id="xtick_2">
     <g id="line2d_2">
      <g>
       <use xlink:href="#m33b3d35169" x="79.963636" y="128.16" style="stroke: #000000; stroke-width: 0.8"/>
      </g>
     </g>
     <g id="text_2">
      <text style="font: 6px 'Arial', sans-serif; text-anchor: middle" x="79.963636" y="139.454688" transform="rotate(-0 79.963636 139.454688)">−10</text>
     </g>
    </g>
    <g id="xtick_3">
     <g id="line2d_3">
      <g>
       <use xlink:href="#m33b3d35169" x="113.781818" y="128.16" style="stroke: #000000; stroke-width: 0.8"/>
      </g>
     </g>
     <g id="text_3">
      <text style="font: 6px 'Arial', sans-serif; text-anchor: middle" x="113.781818" y="139.454688" transform="rotate(-0 113.781818 139.454688)">−5</text>
     </g>
    </g>
    <g id="xtick_4">
     <g id="line2d_4">
      <g>
       <use xlink:href="#m33b3d35169" x="147.6" y="128.16" style="stroke: #000000; stroke-width: 0.8"/>
      </g>
     </g>
     <g id="text_4">
      <text style="font: 6px 'Arial', sans-serif; text-anchor: middle" x="147.6" y="139.454688" transform="rotate(-0 147.6 139.454688)">0</text>
     </g>
    </g>
    <g id="xtick_5">
     <g id="line2d_5">
      <g>
       <use xlink:href="#m33b3d35169" x="181.418182" y="128.16" style="stroke: #000000; stroke-width: 0.8"/>
      </g>
     </g>
     <g id="text_5">
      <text style="font: 6px 'Arial', sans-serif; text-anchor: middle" x="181.418182" y="139.454688" transform="rotate(-0 181.418182 139.454688)">5</text>
     </g>
    </g>
    <g id="xtick_6">
     <g id="line2d_6">
      <g>
       <use xlink:href="#m33b3d35169" x="215.236364" y="128.16" style="stroke: #000000; stroke-width: 0.8"/>
      </g>
     </g>
     <g id="text_6">
      <text style="font: 6px 'Arial', sans-serif; text-anchor: middle" x="215.236364" y="139.454688" transform="rotate(-0 215.236364 139.454688)">10</text>
     </g>
    </g>
    <g id="xtick_7">
     <g id="line2d_7">
      <g>
       <use xlink:href="#m33b3d35169" x="249.054545" y="128.16" style="stroke: #000000; stroke-width: 0.8"/>
      </g>
     </g>
     <g id="text_7">
      <text style="font: 6px 'Arial', sans-serif; text-anchor: middle" x="249.054545" y="139.454688" transform="rotate(-0 249.054545 139.454688)">15</text>
     </g>
    </g>
    <g id="text_8">
     <text style="font: 8px 'Arial', sans-serif; text-anchor: middle" x="147.6" y="150.470937" transform="rotate(-0 147.6 150.470937)">Time Lag (s)</text>
    </g>
   </g>
   <g id="matplotlib.axis_2">
    <g id="ytick_1">
     <g id="line2d_8">
      <defs>
       <path id="m74ee232b6a" d="M 0 0 
L -3.5 0 
" style="stroke: #000000; stroke-width: 0.8"/>
      </defs>
      <g>
       <use xlink:href="#m74ee232b6a" x="36" y="123.12" style="stroke: #000000; stroke-width: 0.8"/>
      </g>
     </g>
     <g id="text_9">
      <text style="font: 6px 'Arial', sans-serif; text-anchor: end" x="29" y="125.267344" transform="rotate(-0 29 125.267344)">0.00</text>
     </g>
    </g>
    <g id="ytick_2">
     <g id="line2d_9">
      <g>
       <use xlink:href="#m74ee232b6a" x="36" y="97.92" style="stroke: #000000; stroke-width: 0.8"/>
      </g>
     </g>
     <g id="text_10">
      <text style="font: 6px 'Arial', sans-serif; text-anchor: end" x="29" y="100.067344" transform="rotate(-0 29 100.067344)">0.25</text>
     </g>
    </g>
    <g id="ytick_3">
     <g id="line2d_10">
      <g>
       <use xlink:href="#m74ee232b6a" x="36" y="72.72" style="stroke: #000000; stroke-width: 0.8"/>
      </g>
     </g>
     <g id="text_11">
      <text style="font: 6px 'Arial', sans-serif; text-anchor: end" x="29" y="74.867344" transform="rotate(-0 29 74.867344)">0.50</text>
     </g>
    </g>
    <g id="ytick_4">
     <g id="line2d_11">
      <g>
       <use xlink:href="#m74ee232b6a" x="36" y="47.52" style="stroke: #000000; stroke-width: 0.8"/>
      </g>
     </g>
     <g id="text_12">
      <text style="font: 6px 'Arial', sans-serif; text-anchor: end" x="29" y="49.667344" transform="rotate(-0 29 49.667344)">0.75</text>
     </g>
    </g>
    <g id="ytick_5">
     <g id="line2d_12">
      <g>
       <use xlink:href="#m74ee232b6a" x="36" y="22.32" style="stroke: #000000; stroke-width: 0.8"/>
      </g>
     </g>
     <g id="text_13">
      <text style="font: 6px 'Arial', sans-serif; text-anchor: end" x="29" y="24.467344" transform="rotate(-0 29 24.467344)">1.00</text>
     </g>
    </g>
   </g>
   <g id="line2d_13">
    <path d="M 46.145455 123.12 
L 52.909091 79.3728 
L 59.672727 63.4464 
L 66.436364 66.8736 
L 73.2 81.1872 
L 79.963636 97.92 
L 86.727273 110.2176 
L 93.490909 117.6768 
L 100.254545 121.5072 
L 107.018182 122.9184 
L 113.781818 123.12 
L 120.545455 123.12 
L 127.309091 123.12 
L 134.072727 123.12 
L 140.836364 123.12 
L 147.6 123.12 
L 154.363636 123.12 
L 161.127273 123.12 
L 167.890909 123.12 
L 174.654545 123.12 
L 181.418182 123.12 
L 188.181818 123.12 
L 194.945455 123.12 
L 201.709091 123.12 
L 208.472727 123.12 
L 215.236364 123.12 
L 222 123.12 
L 228.763636 123.12 
L 235.527273 123.12 
L 242.290909 123.12 
L 249.054545 123.12 
" clip-path="url(#p312239c5d2)" style="fill: none; stroke: #181822; stroke-width: 1.5; stroke-linecap: square"/>
   </g>
   <g id="line2d_14">
    <path d="M 46.145455 123.12 
L 52.909091 117.8112 
L 59.672727 104.8416 
L 66.436364 88.6464 
L 73.2 73.6608 
L 79.963636 64.32 
L 86.727273 63.8496 
L 93.490909 70.6368 
L 100.254545 81.8592 
L 107.018182 94.6944 
L 113.781818 106.32 
L 120.545455 114.5184 
L 127.309091 119.4912 
L 134.072727 122.0448 
L 140.836364 122.9856 
L 147.6 123.12 
L 154.363636 123.12 
L 161.127273 123.12 
L 167.890909 123.12 
L 174.654545 123.12 
L 181.418182 123.12 
L 188.181818 123.12 
L 194.945455 123.12 
L 201.709091 123.12 
L 208.472727 123.12 
L 215.236364 123.12 
L 222 123.12 
L 228.763636 123.12 
L 235.527273 123.12 
L 242.290909 123.12 
L 249.054545 123.12 
" clip-path="url(#p312239c5d2)" style="fill: none; stroke: #313144; stroke-width: 1.5; stroke-linecap: square"/>
   </g>
   <g id="line2d_15">
    <path d="M 46.145455 123.12 
L 52.909091 122.9856 
L 59.672727 122.0448 
L 66.436364 119.4912 
L 73.2 114.5184 
L 79.963636 106.32 
L 86.727273 94.6272 
L 93.490909 81.3216 
L 100.254545 68.8224 
L 107.018182 59.5488 
L 113.781818 55.92 
L 120.545455 59.5488 
L 127.309091 68.8224 
L 134.072727 81.3216 
L 140.836364 94.6272 
L 147.6 106.32 
L 154.363636 114.5184 
L 161.127273 119.4912 
L 167.890909 122.0448 
L 174.654545 122.9856 
L 181.418182 123.12 
L 188.181818 123.12 
L 194.945455 123.12 
L 201.709091 123.12 
L 208.472727 123.12 
L 215.236364 123.12 
L 222 123.12 
L 228.763636 123.12 
L 235.527273 123.12 
L 242.290909 123.12 
L 249.054545 123.12 
" clip-path="url(#p312239c5d2)" style="fill: none; stroke: #4a4a67; stroke-width: 1.5; stroke-linecap: square"/>
   </g>
   <g id="line2d_16">
    <path d="M 46.145455 123.12 
L 52.909091 123.12 
L 59.672727 123.12 
L 66.436364 123.12 
L 73.2 123.12 
L 79.963636 123.12 
L 86.727273 122.9856 
L 93.490909 122.0448 
L 100.254545 119.4912 
L 107.018182 114.5184 
L 113.781818 106.32 
L 120.545455 94.6272 
L 127.309091 81.3216 
L 134.072727 68.8224 
L 140.836364 59.5488 
L 147.6 55.92 
L 154.363636 59.5488 
L 161.127273 68.8224 
L 167.890909 81.3216 
L 174.654545 94.6272 
L 181.418182 106.32 
L 188.181818 114.5184 
L 194.945455 119.4912 
L 201.709091 122.0448 
L 208.472727 122.9856 
L 215.236364 123.12 
L 222 123.12 
L 228.763636 123.12 
L 235.527273 123.12 
L 242.290909 123.12 
L 249.054545 123.12 
" clip-path="url(#p312239c5d2)" style="fill: none; stroke: #636983; stroke-width: 1.5; stroke-linecap: square"/>
   </g>
   <g id="line2d_17">
    <path d="M 46.145455 123.12 
L 52.909091 123.12 
L 59.672727 123.12 
L 66.436364 123.12 
L 73.2 123.12 
L 79.963636 123.12 
L 86.727273 123.12 
L 93.490909 123.12 
L 100.254545 123.12 
L 107.018182 123.12 
L 113.781818 123.12 
L 120.545455 122.9856 
L 127.309091 122.0448 
L 134.072727 119.4912 
L 140.836364 114.5184 
L 147.6 106.32 
L 154.363636 94.6272 
L 161.127273 81.3216 
L 167.890909 68.8224 
L 174.654545 59.5488 
L 181.418182 55.92 
L 188.181818 59.5488 
L 194.945455 68.8224 
L 201.709091 81.3216 
L 208.472727 94.6272 
L 215.236364 106.32 
L 222 114.5184 
L 228.763636 119.4912 
L 235.527273 122.0448 
L 242.290909 122.9856 
L 249.054545 123.12 
" clip-path="url(#p312239c5d2)" style="fill: none; stroke: #7c8c9c; stroke-width: 1.5; stroke-linecap: square"/>
   </g>
   <g id="line2d_18">
    <path d="M 46.145455 123.12 
L 52.909091 123.12 
L 59.672727 123.12 
L 66.436364 123.12 
L 73.2 123.12 
L 79.963636 123.12 
L 86.727273 123.12 
L 93.490909 123.12 
L 100.254545 123.12 
L 107.018182 123.12 
L 113.781818 123.12 
L 120.545455 123.12 
L 127.309091 123.12 
L 134.072727 123.12 
L 140.836364 123.12 
L 147.6 123.12 
L 154.363636 122.9856 
L 161.127273 122.0448 
L 167.890909 119.4912 
L 174.654545 114.5184 
L 181.418182 106.32 
L 188.181818 94.6944 
L 194.945455 81.8592 
L 201.709091 70.6368 
L 208.472727 63.8496 
L 215.236364 64.32 
L 222 73.6608 
L 228.763636 88.6464 
L 235.527273 104.8416 
L 242.290909 117.8112 
L 249.054545 123.12 
" clip-path="url(#p312239c5d2)" style="fill: none; stroke: #95aeb5; stroke-width: 1.5; stroke-linecap: square"/>
   </g>
   <g id="line2d_19">
    <path d="M 46.145455 123.12 
L 52.909091 123.12 
L 59.672727 123.12 
L 66.436364 123.12 
L 73.2 123.12 
L 79.963636 123.12 
L 86.727273 123.12 
L 93.490909 123.12 
L 100.254545 123.12 
L 107.018182 123.12 
L 113.781818 123.12 
L 120.545455 123.12 
L 127.309091 123.12 
L 134.072727 123.12 
L 140.836364 123.12 
L 147.6 123.12 
L 154.363636 123.12 
L 161.127273 123.12 
L 167.890909 123.12 
L 174.654545 123.12 
L 181.418182 123.12 
L 188.181818 122.9184 
L 194.945455 121.5072 
L 201.709091 117.6768 
L 208.472727 110.2176 
L 215.236364 97.92 
L 222 81.1872 
L 228.763636 66.8736 
L 235.527273 63.4464 
L 242.290909 79.3728 
L 249.054545 123.12 
" clip-path="url(#p312239c5d2)" style="fill: none; stroke: #b2cece; stroke-width: 1.5; stroke-linecap: square"/>
   </g>
   <g id="line2d_20">
    <path d="M 46.145455 123.12 
L 52.909091 123.12 
L 59.672727 123.12 
L 66.436364 123.12 
L 73.2 123.12 
L 79.963636 123.12 
L 86.727273 123.12 
L 93.490909 123.12 
L 100.254545 123.12 
L 107.018182 123.12 
L 113.781818 123.12 
L 120.545455 123.12 
L 127.309091 123.12 
L 134.072727 123.12 
L 140.836364 123.12 
L 147.6 123.12 
L 154.363636 123.12 
L 161.127273 123.12 
L 167.890909 123.12 
L 174.654545 123.12 
L 181.418182 123.12 
L 188.181818 123.12 
L 194.945455 123.12 
L 201.709091 123.12 
L 208.472727 123.12 
L 215.236364 123.12 
L 222 122.3136 
L 228.763636 116.6688 
L 235.527273 101.3472 
L 242.290909 71.5104 
L 249.054545 22.32 
" clip-path="url(#p312239c5d2)" style="fill: none; stroke: #d9e6e6; stroke-width: 1.5; stroke-linecap: square"/>
   </g>
   <g id="patch_3">
    <path d="M 36 128.16 
L 36 17.28 
" style="fill: none; stroke: #000000; stroke-width: 0.8; stroke-linejoin: miter; stroke-linecap: square"/>
   </g>
   <g id="patch_4">
    <path d="M 36 128.16 
L 259.2 128.16 
" style="fill: none; stroke: #000000; stroke-width: 0.8; stroke-linejoin: miter; stroke-linecap: square"/>
   </g>
  </g>
 </g>
 <defs>
  <clipPath id="p312239c5d2">
   <rect x="36" y="17.28" width="223.2" height="110.88"/>
  </clipPath>
 </defs>
</svg>
