<?xml version="1.0" encoding="utf-8" standalone="no"?>
<!DOCTYPE svg PUBLIC "-//W3C//DTD SVG 1.1//EN"
  "http://www.w3.org/Graphics/SVG/1.1/DTD/svg11.dtd">
<svg xmlns:xlink="http://www.w3.org/1999/xlink" width="402.275pt" height="406.47625pt" viewBox="0 0 402.275 406.47625" xmlns="http://www.w3.org/2000/svg" version="1.1">
 <metadata>
  <rdf:RDF xmlns:dc="http://purl.org/dc/elements/1.1/" xmlns:cc="http://creativecommons.org/ns#" xmlns:rdf="http://www.w3.org/1999/02/22-rdf-syntax-ns#">
   <cc:Work>
    <dc:type rdf:resource="http://purl.org/dc/dcmitype/StillImage"/>
    <dc:date>2023-05-07T16:04:10.948704</dc:date>
    <dc:format>image/svg+xml</dc:format>
    <dc:creator>
     <cc:Agent>
      <dc:title>Matplotlib v3.6.2, https://matplotlib.org/</dc:title>
     </cc:Agent>
    </dc:creator>
   </cc:Work>
  </rdf:RDF>
 </metadata>
 <defs>
  <style type="text/css">*{stroke-linejoin: round; stroke-linecap: butt}</style>
 </defs>
 <g id="figure_1">
  <g id="patch_1">
   <path d="M 0 406.47625 
L 402.275 406.47625 
L 402.275 0 
L 0 0 
L 0 406.47625 
z
" style="fill: none"/>
  </g>
  <g id="axes_1">
   <g id="patch_2">
    <path d="M 28.1 183.138125 
L 395.075 183.138125 
L 395.075 22.318125 
L 28.1 22.318125 
L 28.1 183.138125 
z
" style="fill: none"/>
   </g>
   <g id="matplotlib.axis_1"/>
   <g id="matplotlib.axis_2">
    <g id="text_1">
     <!-- $\frac{\Delta F}{F}$ -->
     <g transform="translate(16.7 107.778125) rotate(-90)">
      <text>
       <tspan style="font: 7px 'DejaVu Sans'" x="0" y="-4.8921875">Δ</tspan>
       <tspan style="font: oblique 7px 'DejaVu Sans'" x="2 4.788574" y="3.3406249999999993 -4.8921875">FF</tspan>
      </text>
      <rect x="0" y="-3.392188" width="8.814941" height="0.625"/>
     </g>
    </g>
   </g>
   <g id="line2d_1">
    <path d="M 44.780682 47.059943 
L 48.150517 47.060061 
L 51.520351 47.06023 
L 54.890186 47.060471 
L 58.260021 47.060813 
L 61.629855 47.0613 
L 64.99969 47.061995 
L 68.369525 47.062984 
L 71.73936 47.064392 
L 75.109194 47.066397 
L 78.479029 47.069253 
L 81.848864 47.07332 
L 85.218698 47.079111 
L 88.588533 47.087357 
L 91.958368 47.099099 
L 95.328202 47.115817 
L 98.698037 47.139618 
L 102.067872 47.173497 
L 105.437707 47.221711 
L 108.807541 47.29031 
L 112.177376 47.387869 
L 115.547211 47.526538 
L 118.917045 47.72348 
L 122.28688 48.00286 
L 125.656715 48.398543 
L 129.02655 48.957652 
L 132.396384 49.745115 
L 135.766219 50.849127 
L 139.136054 52.387023 
L 142.505888 54.51027 
L 145.875723 57.405782 
L 149.245558 61.288835 
L 152.615393 66.38085 
L 155.985227 72.865534 
L 159.355062 80.822665 
L 162.724897 90.153309 
L 166.094731 100.529555 
L 169.464566 111.409733 
L 172.834401 122.137166 
L 176.204236 132.09082 
L 179.57407 140.819402 
L 182.943905 148.10257 
L 186.31374 153.931737 
L 189.683574 158.443452 
L 193.053409 161.845571 
L 196.423244 164.360632 
L 199.793079 166.192502 
L 203.162913 167.511977 
L 206.532748 168.454258 
L 209.902583 169.1224 
L 213.272417 169.59293 
L 216.642252 169.92162 
L 220.012087 170.148533 
L 223.381921 170.302089 
L 226.751756 170.402174 
L 230.121591 170.462446 
L 233.491426 170.492004 
L 236.86126 170.496562 
L 240.231095 170.479251 
L 243.60093 170.441146 
L 246.970764 170.381583 
L 250.340599 170.2983 
L 253.710434 170.187453 
L 257.080269 170.043514 
L 260.450103 169.859056 
L 263.819938 169.624445 
L 267.189773 169.327417 
L 270.559607 168.952565 
L 273.929442 168.480713 
L 277.299277 167.888208 
L 280.669112 167.14615 
L 284.038946 166.219616 
L 287.408781 165.066979 
L 290.778616 163.639476 
L 294.14845 161.881276 
L 297.518285 159.730352 
L 300.88812 157.120601 
L 304.257955 153.98563 
L 307.627789 150.264615 
L 310.997624 145.91032 
L 314.367459 140.898894 
L 317.737293 135.240231 
L 321.107128 128.986826 
L 324.476963 122.238468 
L 327.846798 115.140203 
L 331.216632 107.872293 
L 334.586467 100.633027 
L 337.956302 93.61761 
L 341.326136 86.997724 
L 344.695971 80.906152 
L 348.065806 75.429046 
L 351.43564 70.606014 
L 354.805475 66.436289 
L 358.17531 62.888273 
L 361.545145 59.909909 
L 364.914979 57.43805 
L 368.284814 55.405876 
L 371.654649 53.748135 
L 375.024483 52.404402 
L 378.394318 51.320799 
" clip-path="url(#p0595f7bd02)" style="fill: none; stroke: #d4d4d4; stroke-width: 4; stroke-linecap: square"/>
   </g>
   <g id="line2d_2">
    <path d="M 140.098864 183.138125 
L 140.098864 22.318125 
" clip-path="url(#p0595f7bd02)" style="fill: none; stroke-dasharray: 7.4,3.2; stroke-dashoffset: 0; stroke: #808080; stroke-width: 2"/>
   </g>
   <g id="patch_3">
    <path d="M 28.1 183.138125 
L 28.1 22.318125 
" style="fill: none; stroke: #000000; stroke-width: 0.8; stroke-linejoin: miter; stroke-linecap: square"/>
   </g>
   <g id="patch_4">
    <path d="M 28.1 183.138125 
L 395.075 183.138125 
" style="fill: none; stroke: #000000; stroke-width: 0.8; stroke-linejoin: miter; stroke-linecap: square"/>
   </g>
   <g id="text_2">
    <!-- $t_{20}$ -->
    <g transform="translate(149.630682 34.688894)">
     <text>
      <tspan style="font: oblique 10px 'DejaVu Sans'" x="0" y="-0.984375">t</tspan>
      <tspan style="font: 7px 'DejaVu Sans'" x="3.920898 8.374512" y="0.65625">20</tspan>
     </text>
    </g>
   </g>
   <g id="text_3">
    <text style="font: 12px 'DejaVu Sans', 'Bitstream Vera Sans', 'Computer Modern Sans Serif', 'Lucida Grande', 'Verdana', 'Geneva', 'Lucid', 'Arial', 'Helvetica', 'Avant Garde', sans-serif; text-anchor: middle" x="211.5875" y="16.318125" transform="rotate(-0 211.5875 16.318125)">Control</text>
   </g>
  </g>
  <g id="axes_2">
   <g id="patch_5">
    <path d="M 28.1 382.098125 
L 395.075 382.098125 
L 395.075 221.278125 
L 28.1 221.278125 
L 28.1 382.098125 
z
" style="fill: none"/>
   </g>
   <g id="matplotlib.axis_3">
    <g id="text_4">
     <text style="font: 10px 'DejaVu Sans', 'Bitstream Vera Sans', 'Computer Modern Sans Serif', 'Lucida Grande', 'Verdana', 'Geneva', 'Lucid', 'Arial', 'Helvetica', 'Avant Garde', sans-serif; text-anchor: middle" x="211.5875" y="397.196562" transform="rotate(-0 211.5875 397.196562)">Time</text>
    </g>
   </g>
   <g id="matplotlib.axis_4">
    <g id="text_5">
     <!-- $\frac{\Delta F}{F}$ -->
     <g transform="translate(16.7 306.738125) rotate(-90)">
      <text>
       <tspan style="font: 7px 'DejaVu Sans'" x="0" y="-4.8921875">Δ</tspan>
       <tspan style="font: oblique 7px 'DejaVu Sans'" x="2 4.788574" y="3.3406249999999993 -4.8921875">FF</tspan>
      </text>
      <rect x="0" y="-3.392188" width="8.814941" height="0.625"/>
     </g>
    </g>
   </g>
   <g id="line2d_3">
    <path d="M 44.780682 246.019663 
L 48.150517 246.019663 
L 51.520351 246.019663 
L 54.890186 246.019663 
L 58.260021 246.019663 
L 61.629855 246.019663 
L 64.99969 246.019663 
L 68.369525 246.019663 
L 71.73936 246.019663 
L 75.109194 246.019663 
L 78.479029 246.019663 
L 81.848864 246.019663 
L 85.218698 246.019663 
L 88.588533 246.019663 
L 91.958368 246.019663 
L 95.328202 246.019663 
L 98.698037 246.019663 
L 102.067872 246.019663 
L 105.437707 246.019663 
L 108.807541 246.019663 
L 112.177376 246.019663 
L 115.547211 246.019663 
L 118.917045 246.019663 
L 122.28688 246.019663 
L 125.656715 246.019663 
L 129.02655 246.019663 
L 132.396384 246.019663 
L 135.766219 246.019663 
L 139.136054 246.019663 
L 142.505888 246.019663 
L 145.875723 246.019663 
L 149.245558 246.019663 
L 152.615393 246.019663 
L 155.985227 246.019663 
L 159.355062 246.019663 
L 162.724897 246.019663 
L 166.094731 246.019663 
L 169.464566 246.019663 
L 172.834401 246.019663 
L 176.204236 246.019663 
L 179.57407 246.019663 
L 182.943905 246.019663 
L 186.31374 246.019663 
L 189.683574 246.019663 
L 193.053409 246.019663 
L 196.423244 246.019663 
L 199.793079 246.019663 
L 203.162913 246.019663 
L 206.532748 246.019663 
L 209.902583 246.019663 
L 213.272417 246.019663 
L 216.642252 246.019663 
L 220.012087 246.019663 
L 223.381921 246.019663 
L 226.751756 246.019663 
L 230.121591 246.019663 
L 233.491426 246.019663 
L 236.86126 246.019663 
L 240.231095 246.019663 
L 243.60093 246.019663 
L 246.970764 246.019663 
L 250.340599 246.019663 
L 253.710434 246.019663 
L 257.080269 246.019663 
L 260.450103 246.019663 
L 263.819938 246.019663 
L 267.189773 246.019663 
L 270.559607 246.019663 
L 273.929442 246.019663 
L 277.299277 246.019663 
L 280.669112 246.019663 
L 284.038946 246.019663 
L 287.408781 246.019663 
L 290.778616 246.019663 
L 294.14845 246.019663 
L 297.518285 246.019663 
L 300.88812 246.019663 
L 304.257955 246.019663 
L 307.627789 246.019663 
L 310.997624 246.019663 
L 314.367459 246.019663 
L 317.737293 246.019663 
L 321.107128 246.019663 
L 324.476963 246.019663 
L 327.846798 246.019663 
L 331.216632 246.019663 
L 334.586467 246.019663 
L 337.956302 246.019663 
L 341.326136 246.019663 
L 344.695971 246.019663 
L 348.065806 246.019663 
L 351.43564 246.019663 
L 354.805475 246.019663 
L 358.17531 246.019663 
L 361.545145 246.019663 
L 364.914979 246.019663 
L 368.284814 246.019663 
L 371.654649 246.019663 
L 375.024483 246.019663 
L 378.394318 246.019663 
" clip-path="url(#pf8e982e204)" style="fill: none; stroke: #06e1e9; stroke-width: 4; stroke-linecap: square"/>
   </g>
   <g id="line2d_4">
    <path d="M 140.098864 382.098125 
L 140.098864 221.278125 
" clip-path="url(#pf8e982e204)" style="fill: none; stroke-dasharray: 7.4,3.2; stroke-dashoffset: 0; stroke: #808080; stroke-width: 2"/>
   </g>
   <g id="patch_6">
    <path d="M 28.1 382.098125 
L 28.1 221.278125 
" style="fill: none; stroke: #000000; stroke-width: 0.8; stroke-linejoin: miter; stroke-linecap: square"/>
   </g>
   <g id="patch_7">
    <path d="M 28.1 382.098125 
L 395.075 382.098125 
" style="fill: none; stroke: #000000; stroke-width: 0.8; stroke-linejoin: miter; stroke-linecap: square"/>
   </g>
   <g id="text_6">
    <!-- $t_{20}$ -->
    <g transform="translate(149.630682 233.648894)">
     <text>
      <tspan style="font: oblique 10px 'DejaVu Sans'" x="0" y="-0.984375">t</tspan>
      <tspan style="font: 7px 'DejaVu Sans'" x="3.920898 8.374512" y="0.65625">20</tspan>
     </text>
    </g>
   </g>
   <g id="text_7">
    <text style="font: 12px 'DejaVu Sans', 'Bitstream Vera Sans', 'Computer Modern Sans Serif', 'Lucida Grande', 'Verdana', 'Geneva', 'Lucid', 'Arial', 'Helvetica', 'Avant Garde', sans-serif; text-anchor: middle" x="211.5875" y="215.278125" transform="rotate(-0 211.5875 215.278125)">AgRP Stim</text>
   </g>
  </g>
 </g>
 <defs>
  <clipPath id="p0595f7bd02">
   <rect x="28.1" y="22.318125" width="366.975" height="160.82"/>
  </clipPath>
  <clipPath id="pf8e982e204">
   <rect x="28.1" y="221.278125" width="366.975" height="160.82"/>
  </clipPath>
 </defs>
</svg>
