<?xml version="1.0" encoding="utf-8" standalone="no"?>
<!DOCTYPE svg PUBLIC "-//W3C//DTD SVG 1.1//EN"
  "http://www.w3.org/Graphics/SVG/1.1/DTD/svg11.dtd">
<svg xmlns:xlink="http://www.w3.org/1999/xlink" width="549.915625pt" height="325.294125pt" viewBox="0 0 549.915625 325.294125" xmlns="http://www.w3.org/2000/svg" version="1.1">
 <metadata>
  <rdf:RDF xmlns:dc="http://purl.org/dc/elements/1.1/" xmlns:cc="http://creativecommons.org/ns#" xmlns:rdf="http://www.w3.org/1999/02/22-rdf-syntax-ns#">
   <cc:Work>
    <dc:type rdf:resource="http://purl.org/dc/dcmitype/StillImage"/>
    <dc:date>2023-05-06T15:55:50.263072</dc:date>
    <dc:format>image/svg+xml</dc:format>
    <dc:creator>
     <cc:Agent>
      <dc:title>Matplotlib v3.6.2, https://matplotlib.org/</dc:title>
     </cc:Agent>
    </dc:creator>
   </cc:Work>
  </rdf:RDF>
 </metadata>
 <defs>
  <style type="text/css">*{stroke-linejoin: round; stroke-linecap: butt}</style>
 </defs>
 <g id="figure_1">
  <g id="patch_1">
   <path d="M 0 325.294125 
L 549.915625 325.294125 
L 549.915625 0 
L 0 0 
L 0 325.294125 
z
" style="fill: none"/>
  </g>
  <g id="axes_1">
   <g id="patch_2">
    <path d="M 46.965625 301.416 
L 266.335625 301.416 
L 266.335625 47.6 
L 46.965625 47.6 
L 46.965625 301.416 
z
" style="fill: none"/>
   </g>
   <g id="patch_3">
    <path d="M 101.25416 294.088332 
L 101.25416 294.088332 
L 101.25416 294.088332 
L 101.25416 294.088332 
z
" clip-path="url(#p75586833f3)" style="fill: #d4d4d4"/>
   </g>
   <g id="PolyCollection_1">
    <defs>
     <path id="mf17204c615" d="M 79.941945 -61.048904 
L 78.249204 -61.048904 
L 78.074545 -62.793009 
L 77.871796 -64.537113 
L 77.638169 -66.281217 
L 77.370933 -68.025322 
L 77.06748 -69.769426 
L 76.725403 -71.513531 
L 76.34257 -73.257635 
L 75.9172 -75.00174 
L 75.447942 -76.745844 
L 74.933941 -78.489949 
L 74.374901 -80.234053 
L 73.77114 -81.978157 
L 73.123629 -83.722262 
L 72.434019 -85.466366 
L 71.704654 -87.210471 
L 70.938573 -88.954575 
L 70.139495 -90.69868 
L 69.31179 -92.442784 
L 68.460446 -94.186888 
L 67.591024 -95.930993 
L 66.709603 -97.675097 
L 65.822727 -99.419202 
L 64.937345 -101.163306 
L 64.060746 -102.907411 
L 63.200497 -104.651515 
L 62.364377 -106.39562 
L 61.5603 -108.139724 
L 60.796245 -109.883828 
L 60.080163 -111.627933 
L 59.419887 -113.372037 
L 58.82302 -115.116142 
L 58.296812 -116.860246 
L 57.84803 -118.604351 
L 57.482808 -120.348455 
L 57.206486 -122.092559 
L 57.023455 -123.836664 
L 56.936989 -125.580768 
L 56.949091 -127.324873 
L 57.060355 -129.068977 
L 57.269851 -130.813082 
L 57.575035 -132.557186 
L 57.971714 -134.301291 
L 58.454038 -136.045395 
L 59.01456 -137.789499 
L 59.644343 -139.533604 
L 60.333113 -141.277708 
L 61.069481 -143.021813 
L 61.841191 -144.765917 
L 62.635426 -146.510022 
L 63.439125 -148.254126 
L 64.239332 -149.99823 
L 65.02354 -151.742335 
L 65.780035 -153.486439 
L 66.498208 -155.230544 
L 67.168848 -156.974648 
L 67.784378 -158.718753 
L 68.339044 -160.462857 
L 68.829041 -162.206962 
L 69.252577 -163.951066 
L 69.609866 -165.69517 
L 69.90306 -167.439275 
L 70.136108 -169.183379 
L 70.314573 -170.927484 
L 70.445385 -172.671588 
L 70.536564 -174.415693 
L 70.59691 -176.159797 
L 70.635678 -177.903901 
L 70.662251 -179.648006 
L 70.685815 -181.39211 
L 70.715063 -183.136215 
L 70.75792 -184.880319 
L 70.821316 -186.624424 
L 70.911 -188.368528 
L 71.031411 -190.112633 
L 71.185598 -191.856737 
L 71.375199 -193.600841 
L 71.600471 -195.344946 
L 71.860373 -197.08905 
L 72.152682 -198.833155 
L 72.474159 -200.577259 
L 72.820725 -202.321364 
L 73.187665 -204.065468 
L 73.569839 -205.809572 
L 73.961885 -207.553677 
L 74.358416 -209.297781 
L 74.754205 -211.041886 
L 75.144338 -212.78599 
L 75.524342 -214.530095 
L 75.890291 -216.274199 
L 76.23887 -218.018304 
L 76.567416 -219.762408 
L 76.873931 -221.506512 
L 77.157064 -223.250617 
L 77.416076 -224.994721 
L 77.65079 -226.738826 
L 77.861521 -228.48293 
L 78.049005 -230.227035 
L 78.214319 -231.971139 
L 78.358805 -233.715243 
L 79.832344 -233.715243 
L 79.832344 -233.715243 
L 79.97683 -231.971139 
L 80.142144 -230.227035 
L 80.329628 -228.48293 
L 80.540359 -226.738826 
L 80.775073 -224.994721 
L 81.034085 -223.250617 
L 81.317218 -221.506512 
L 81.623733 -219.762408 
L 81.952279 -218.018304 
L 82.300858 -216.274199 
L 82.666807 -214.530095 
L 83.046811 -212.78599 
L 83.436944 -211.041886 
L 83.832733 -209.297781 
L 84.229264 -207.553677 
L 84.62131 -205.809572 
L 85.003484 -204.065468 
L 85.370424 -202.321364 
L 85.71699 -200.577259 
L 86.038467 -198.833155 
L 86.330776 -197.08905 
L 86.590678 -195.344946 
L 86.81595 -193.600841 
L 87.005551 -191.856737 
L 87.159738 -190.112633 
L 87.280149 -188.368528 
L 87.369833 -186.624424 
L 87.433229 -184.880319 
L 87.476086 -183.136215 
L 87.505334 -181.39211 
L 87.528898 -179.648006 
L 87.555471 -177.903901 
L 87.594239 -176.159797 
L 87.654585 -174.415693 
L 87.745764 -172.671588 
L 87.876576 -170.927484 
L 88.055041 -169.183379 
L 88.288089 -167.439275 
L 88.581283 -165.69517 
L 88.938572 -163.951066 
L 89.362108 -162.206962 
L 89.852105 -160.462857 
L 90.406771 -158.718753 
L 91.022301 -156.974648 
L 91.692941 -155.230544 
L 92.411114 -153.486439 
L 93.167609 -151.742335 
L 93.951817 -149.99823 
L 94.752024 -148.254126 
L 95.555723 -146.510022 
L 96.349958 -144.765917 
L 97.121668 -143.021813 
L 97.858036 -141.277708 
L 98.546806 -139.533604 
L 99.176589 -137.789499 
L 99.737111 -136.045395 
L 100.219435 -134.301291 
L 100.616114 -132.557186 
L 100.921298 -130.813082 
L 101.130794 -129.068977 
L 101.242058 -127.324873 
L 101.25416 -125.580768 
L 101.167694 -123.836664 
L 100.984663 -122.092559 
L 100.708341 -120.348455 
L 100.343119 -118.604351 
L 99.894337 -116.860246 
L 99.368129 -115.116142 
L 98.771262 -113.372037 
L 98.110986 -111.627933 
L 97.394904 -109.883828 
L 96.630849 -108.139724 
L 95.826772 -106.39562 
L 94.990652 -104.651515 
L 94.130403 -102.907411 
L 93.253804 -101.163306 
L 92.368422 -99.419202 
L 91.481546 -97.675097 
L 90.600125 -95.930993 
L 89.730703 -94.186888 
L 88.879359 -92.442784 
L 88.051654 -90.69868 
L 87.252576 -88.954575 
L 86.486495 -87.210471 
L 85.75713 -85.466366 
L 85.06752 -83.722262 
L 84.420009 -81.978157 
L 83.816248 -80.234053 
L 83.257208 -78.489949 
L 82.743207 -76.745844 
L 82.273949 -75.00174 
L 81.848579 -73.257635 
L 81.465746 -71.513531 
L 81.123669 -69.769426 
L 80.820216 -68.025322 
L 80.55298 -66.281217 
L 80.319353 -64.537113 
L 80.116604 -62.793009 
L 79.941945 -61.048904 
z
"/>
    </defs>
    <g clip-path="url(#p75586833f3)">
     <use xlink:href="#mf17204c615" x="0" y="325.294125" style="fill: #d4d4d4"/>
    </g>
   </g>
   <g id="patch_4">
    <path d="M 101.25416 294.088332 
L 101.25416 294.088332 
L 101.25416 294.088332 
L 101.25416 294.088332 
z
" clip-path="url(#p75586833f3)" style="fill: #06e1e9"/>
   </g>
   <g id="PolyCollection_2">
    <defs>
     <path id="m9be41b813d" d="M 124.090199 -35.415216 
L 122.735294 -35.415216 
L 122.601576 -36.920575 
L 122.447663 -38.425935 
L 122.271761 -39.931294 
L 122.072128 -41.436654 
L 121.847118 -42.942013 
L 121.595211 -44.447373 
L 121.315053 -45.952732 
L 121.005488 -47.458092 
L 120.665588 -48.963451 
L 120.294682 -50.468811 
L 119.892376 -51.97417 
L 119.458579 -53.47953 
L 118.993512 -54.984889 
L 118.497728 -56.490249 
L 117.972121 -57.995608 
L 117.417939 -59.500967 
L 116.836792 -61.006327 
L 116.230666 -62.511686 
L 115.601929 -64.017046 
L 114.953344 -65.522405 
L 114.288071 -67.027765 
L 113.609666 -68.533124 
L 112.922076 -70.038484 
L 112.229618 -71.543843 
L 111.536943 -73.049203 
L 110.848986 -74.554562 
L 110.170895 -76.059922 
L 109.507937 -77.565281 
L 108.86539 -79.070641 
L 108.248414 -80.576 
L 107.66191 -82.08136 
L 107.110366 -83.586719 
L 106.597717 -85.092078 
L 106.127197 -86.597438 
L 105.701222 -88.102797 
L 105.321287 -89.608157 
L 104.987909 -91.113516 
L 104.700601 -92.618876 
L 104.457894 -94.124235 
L 104.257403 -95.629595 
L 104.095939 -97.134954 
L 103.969658 -98.640314 
L 103.874242 -100.145673 
L 103.805101 -101.651033 
L 103.75759 -103.156392 
L 103.727218 -104.661752 
L 103.709852 -106.167111 
L 103.701891 -107.672471 
L 103.700407 -109.17783 
L 103.703251 -110.683189 
L 103.709112 -112.188549 
L 103.717535 -113.693908 
L 103.728892 -115.199268 
L 103.744321 -116.704627 
L 103.765635 -118.209987 
L 103.795205 -119.715346 
L 103.835833 -121.220706 
L 103.890622 -122.726065 
L 103.962839 -124.231425 
L 104.055805 -125.736784 
L 104.172776 -127.242144 
L 104.316859 -128.747503 
L 104.490935 -130.252863 
L 104.697594 -131.758222 
L 104.939089 -133.263582 
L 105.217296 -134.768941 
L 105.533681 -136.274301 
L 105.889267 -137.77966 
L 106.284609 -139.285019 
L 106.719759 -140.790379 
L 107.19424 -142.295738 
L 107.70702 -143.801098 
L 108.256484 -145.306457 
L 108.840423 -146.811817 
L 109.456029 -148.317176 
L 110.099906 -149.822536 
L 110.768096 -151.327895 
L 111.456134 -152.833255 
L 112.159111 -154.338614 
L 112.871766 -155.843974 
L 113.588592 -157.349333 
L 114.303955 -158.854693 
L 115.012226 -160.360052 
L 115.707911 -161.865412 
L 116.385781 -163.370771 
L 117.040998 -164.87613 
L 117.669219 -166.38149 
L 118.266691 -167.886849 
L 118.830311 -169.392209 
L 119.35768 -170.897568 
L 119.847113 -172.402928 
L 120.297639 -173.908287 
L 120.708971 -175.413647 
L 121.081458 -176.919006 
L 121.416019 -178.424366 
L 121.714069 -179.929725 
L 121.977433 -181.435085 
L 122.208257 -182.940444 
L 122.408921 -184.445804 
L 124.416571 -184.445804 
L 124.416571 -184.445804 
L 124.617235 -182.940444 
L 124.848059 -181.435085 
L 125.111423 -179.929725 
L 125.409474 -178.424366 
L 125.744035 -176.919006 
L 126.116521 -175.413647 
L 126.527853 -173.908287 
L 126.978379 -172.402928 
L 127.467813 -170.897568 
L 127.995181 -169.392209 
L 128.558802 -167.886849 
L 129.156273 -166.38149 
L 129.784495 -164.87613 
L 130.439712 -163.370771 
L 131.117582 -161.865412 
L 131.813266 -160.360052 
L 132.521537 -158.854693 
L 133.2369 -157.349333 
L 133.953726 -155.843974 
L 134.666381 -154.338614 
L 135.369358 -152.833255 
L 136.057396 -151.327895 
L 136.725587 -149.822536 
L 137.369463 -148.317176 
L 137.985069 -146.811817 
L 138.569009 -145.306457 
L 139.118473 -143.801098 
L 139.631252 -142.295738 
L 140.105734 -140.790379 
L 140.540884 -139.285019 
L 140.936225 -137.77966 
L 141.291812 -136.274301 
L 141.608196 -134.768941 
L 141.886403 -133.263582 
L 142.127898 -131.758222 
L 142.334557 -130.252863 
L 142.508633 -128.747503 
L 142.652717 -127.242144 
L 142.769688 -125.736784 
L 142.862653 -124.231425 
L 142.934871 -122.726065 
L 142.989659 -121.220706 
L 143.030288 -119.715346 
L 143.059858 -118.209987 
L 143.081172 -116.704627 
L 143.096601 -115.199268 
L 143.107957 -113.693908 
L 143.11638 -112.188549 
L 143.122242 -110.683189 
L 143.125086 -109.17783 
L 143.123601 -107.672471 
L 143.11564 -106.167111 
L 143.098274 -104.661752 
L 143.067903 -103.156392 
L 143.020391 -101.651033 
L 142.95125 -100.145673 
L 142.855834 -98.640314 
L 142.729553 -97.134954 
L 142.56809 -95.629595 
L 142.367599 -94.124235 
L 142.124891 -92.618876 
L 141.837583 -91.113516 
L 141.504205 -89.608157 
L 141.124271 -88.102797 
L 140.698295 -86.597438 
L 140.227776 -85.092078 
L 139.715127 -83.586719 
L 139.163583 -82.08136 
L 138.577078 -80.576 
L 137.960102 -79.070641 
L 137.317556 -77.565281 
L 136.654598 -76.059922 
L 135.976506 -74.554562 
L 135.288549 -73.049203 
L 134.595874 -71.543843 
L 133.903416 -70.038484 
L 133.215827 -68.533124 
L 132.537422 -67.027765 
L 131.872148 -65.522405 
L 131.223563 -64.017046 
L 130.594827 -62.511686 
L 129.988701 -61.006327 
L 129.407554 -59.500967 
L 128.853372 -57.995608 
L 128.327765 -56.490249 
L 127.831981 -54.984889 
L 127.366914 -53.47953 
L 126.933116 -51.97417 
L 126.530811 -50.468811 
L 126.159904 -48.963451 
L 125.820004 -47.458092 
L 125.510439 -45.952732 
L 125.230281 -44.447373 
L 124.978375 -42.942013 
L 124.753364 -41.436654 
L 124.553732 -39.931294 
L 124.377829 -38.425935 
L 124.223917 -36.920575 
L 124.090199 -35.415216 
z
"/>
    </defs>
    <g clip-path="url(#p75586833f3)">
     <use xlink:href="#m9be41b813d" x="0" y="325.294125" style="fill: #06e1e9"/>
    </g>
   </g>
   <g id="PolyCollection_3">
    <defs>
     <path id="me8a53e5829" d="M 190.799838 -47.357187 
L 188.97717 -47.357187 
L 188.790422 -49.076797 
L 188.57439 -50.796407 
L 188.326506 -52.516017 
L 188.044402 -54.235627 
L 187.726007 -55.955237 
L 187.369658 -57.674847 
L 186.974206 -59.394457 
L 186.53913 -61.114066 
L 186.064633 -62.833676 
L 185.551733 -64.553286 
L 185.00234 -66.272896 
L 184.419299 -67.992506 
L 183.806413 -69.712116 
L 183.168438 -71.431726 
L 182.511032 -73.151336 
L 181.840683 -74.870946 
L 181.164589 -76.590556 
L 180.490513 -78.310166 
L 179.826607 -80.029776 
L 179.181216 -81.749386 
L 178.562661 -83.468996 
L 177.979019 -85.188606 
L 177.437905 -86.908216 
L 176.946262 -88.627826 
L 176.510177 -90.347436 
L 176.134722 -92.067046 
L 175.823829 -93.786656 
L 175.580208 -95.506266 
L 175.40531 -97.225876 
L 175.299328 -98.945486 
L 175.261248 -100.665096 
L 175.288929 -102.384706 
L 175.379225 -104.104316 
L 175.528125 -105.823926 
L 175.730913 -107.543535 
L 175.982338 -109.263145 
L 176.276781 -110.982755 
L 176.608413 -112.702365 
L 176.971345 -114.421975 
L 177.359751 -116.141585 
L 177.76797 -117.861195 
L 178.190589 -119.580805 
L 178.62249 -121.300415 
L 179.058892 -123.020025 
L 179.495356 -124.739635 
L 179.927791 -126.459245 
L 180.352444 -128.178855 
L 180.765883 -129.898465 
L 181.164992 -131.618075 
L 181.546959 -133.337685 
L 181.909276 -135.057295 
L 182.249754 -136.776905 
L 182.566536 -138.496515 
L 182.858133 -140.216125 
L 183.123451 -141.935735 
L 183.361837 -143.655345 
L 183.573108 -145.374955 
L 183.757591 -147.094565 
L 183.916138 -148.814175 
L 184.050138 -150.533785 
L 184.161511 -152.253395 
L 184.252676 -153.973004 
L 184.326508 -155.692614 
L 184.386269 -157.412224 
L 184.435525 -159.131834 
L 184.478043 -160.851444 
L 184.51768 -162.571054 
L 184.558263 -164.290664 
L 184.603472 -166.010274 
L 184.656716 -167.729884 
L 184.721035 -169.449494 
L 184.798998 -171.169104 
L 184.89263 -172.888714 
L 185.00336 -174.608324 
L 185.131989 -176.327934 
L 185.278683 -178.047544 
L 185.442991 -179.767154 
L 185.623885 -181.486764 
L 185.819821 -183.206374 
L 186.028814 -184.925984 
L 186.248524 -186.645594 
L 186.476359 -188.365204 
L 186.709568 -190.084814 
L 186.945342 -191.804424 
L 187.180907 -193.524034 
L 187.41361 -195.243644 
L 187.640991 -196.963254 
L 187.860841 -198.682864 
L 188.071251 -200.402473 
L 188.270638 -202.122083 
L 188.457763 -203.841693 
L 188.63173 -205.561303 
L 188.791979 -207.280913 
L 188.938262 -209.000523 
L 189.070614 -210.720133 
L 189.189318 -212.439743 
L 189.29487 -214.159353 
L 189.387931 -215.878963 
L 189.469293 -217.598573 
L 190.307714 -217.598573 
L 190.307714 -217.598573 
L 190.389077 -215.878963 
L 190.482138 -214.159353 
L 190.587689 -212.439743 
L 190.706394 -210.720133 
L 190.838746 -209.000523 
L 190.985028 -207.280913 
L 191.145278 -205.561303 
L 191.319245 -203.841693 
L 191.50637 -202.122083 
L 191.705757 -200.402473 
L 191.916166 -198.682864 
L 192.136017 -196.963254 
L 192.363397 -195.243644 
L 192.596101 -193.524034 
L 192.831666 -191.804424 
L 193.06744 -190.084814 
L 193.300648 -188.365204 
L 193.528483 -186.645594 
L 193.748194 -184.925984 
L 193.957186 -183.206374 
L 194.153123 -181.486764 
L 194.334017 -179.767154 
L 194.498325 -178.047544 
L 194.645019 -176.327934 
L 194.773648 -174.608324 
L 194.884378 -172.888714 
L 194.97801 -171.169104 
L 195.055972 -169.449494 
L 195.120291 -167.729884 
L 195.173536 -166.010274 
L 195.218744 -164.290664 
L 195.259328 -162.571054 
L 195.298964 -160.851444 
L 195.341482 -159.131834 
L 195.390738 -157.412224 
L 195.4505 -155.692614 
L 195.524332 -153.973004 
L 195.615497 -152.253395 
L 195.72687 -150.533785 
L 195.86087 -148.814175 
L 196.019417 -147.094565 
L 196.203899 -145.374955 
L 196.415171 -143.655345 
L 196.653557 -141.935735 
L 196.918875 -140.216125 
L 197.210471 -138.496515 
L 197.527254 -136.776905 
L 197.867731 -135.057295 
L 198.230049 -133.337685 
L 198.612015 -131.618075 
L 199.011124 -129.898465 
L 199.424564 -128.178855 
L 199.849216 -126.459245 
L 200.281652 -124.739635 
L 200.718116 -123.020025 
L 201.154517 -121.300415 
L 201.586419 -119.580805 
L 202.009037 -117.861195 
L 202.417257 -116.141585 
L 202.805662 -114.421975 
L 203.168594 -112.702365 
L 203.500227 -110.982755 
L 203.794669 -109.263145 
L 204.046094 -107.543535 
L 204.248883 -105.823926 
L 204.397783 -104.104316 
L 204.488079 -102.384706 
L 204.51576 -100.665096 
L 204.47768 -98.945486 
L 204.371698 -97.225876 
L 204.1968 -95.506266 
L 203.953179 -93.786656 
L 203.642285 -92.067046 
L 203.26683 -90.347436 
L 202.830746 -88.627826 
L 202.339103 -86.908216 
L 201.797989 -85.188606 
L 201.214347 -83.468996 
L 200.595792 -81.749386 
L 199.950401 -80.029776 
L 199.286495 -78.310166 
L 198.612419 -76.590556 
L 197.936324 -74.870946 
L 197.265975 -73.151336 
L 196.60857 -71.431726 
L 195.970595 -69.712116 
L 195.357709 -67.992506 
L 194.774667 -66.272896 
L 194.225274 -64.553286 
L 193.712375 -62.833676 
L 193.237878 -61.114066 
L 192.802801 -59.394457 
L 192.40735 -57.674847 
L 192.051001 -55.955237 
L 191.732606 -54.235627 
L 191.450502 -52.516017 
L 191.202618 -50.796407 
L 190.986585 -49.076797 
L 190.799838 -47.357187 
z
"/>
    </defs>
    <g clip-path="url(#p75586833f3)">
     <use xlink:href="#me8a53e5829" x="0" y="325.294125" style="fill: #d4d4d4"/>
    </g>
   </g>
   <g id="PolyCollection_4">
    <defs>
     <path id="m7228ad5c42" d="M 235.49314 -49.365259 
L 232.918211 -49.365259 
L 232.661074 -50.326306 
L 232.365792 -51.287354 
L 232.029658 -52.248401 
L 231.650396 -53.209449 
L 231.226297 -54.170496 
L 230.756363 -55.131544 
L 230.240442 -56.092591 
L 229.679345 -57.053639 
L 229.074952 -58.014686 
L 228.430273 -58.975734 
L 227.749487 -59.936781 
L 227.037919 -60.897829 
L 226.301985 -61.858876 
L 225.54907 -62.819924 
L 224.787358 -63.780971 
L 224.025617 -64.742019 
L 223.27293 -65.703066 
L 222.538397 -66.664114 
L 221.830809 -67.625161 
L 221.158321 -68.586209 
L 220.528119 -69.547256 
L 219.946123 -70.508304 
L 219.416723 -71.469351 
L 218.942577 -72.430399 
L 218.524473 -73.391446 
L 218.161276 -74.352494 
L 217.849964 -75.313541 
L 217.585746 -76.274589 
L 217.362271 -77.235636 
L 217.171916 -78.196684 
L 217.006137 -79.157731 
L 216.855868 -80.118779 
L 216.711954 -81.079826 
L 216.565591 -82.040874 
L 216.408748 -83.001921 
L 216.234561 -83.962969 
L 216.037668 -84.924016 
L 215.814474 -85.885064 
L 215.56333 -86.846111 
L 215.284621 -87.807159 
L 214.980762 -88.768206 
L 214.656091 -89.729254 
L 214.316691 -90.690301 
L 213.970117 -91.651349 
L 213.625081 -92.612396 
L 213.29108 -93.573444 
L 212.978007 -94.534491 
L 212.69575 -95.495539 
L 212.453808 -96.456586 
L 212.260939 -97.417634 
L 212.124847 -98.378681 
L 212.05193 -99.339729 
L 212.04709 -100.300776 
L 212.113615 -101.261824 
L 212.25313 -102.222871 
L 212.465616 -103.183919 
L 212.749495 -104.144966 
L 213.101762 -105.106014 
L 213.518171 -106.067061 
L 213.993448 -107.028109 
L 214.521529 -107.989156 
L 215.095806 -108.950204 
L 215.709365 -109.911251 
L 216.355224 -110.872299 
L 217.026534 -111.833346 
L 217.71676 -112.794394 
L 218.419823 -113.755441 
L 219.130206 -114.716489 
L 219.843024 -115.677536 
L 220.554046 -116.638584 
L 221.259699 -117.599631 
L 221.957025 -118.560679 
L 222.643628 -119.521726 
L 223.317593 -120.482774 
L 223.977403 -121.443821 
L 224.621846 -122.404869 
L 225.249925 -123.365916 
L 225.860781 -124.326964 
L 226.453626 -125.288011 
L 227.027687 -126.249059 
L 227.582171 -127.210106 
L 228.116255 -128.171154 
L 228.629076 -129.132201 
L 229.11975 -130.093249 
L 229.587401 -131.054296 
L 230.03119 -132.015344 
L 230.450357 -132.976391 
L 230.844262 -133.937439 
L 231.212423 -134.898486 
L 231.554548 -135.859534 
L 231.870562 -136.820581 
L 232.160619 -137.781629 
L 232.425116 -138.742676 
L 232.664681 -139.703724 
L 232.880164 -140.664771 
L 233.072619 -141.625819 
L 233.243268 -142.586866 
L 233.393476 -143.547914 
L 233.524712 -144.508961 
L 234.886639 -144.508961 
L 234.886639 -144.508961 
L 235.017875 -143.547914 
L 235.168083 -142.586866 
L 235.338732 -141.625819 
L 235.531187 -140.664771 
L 235.74667 -139.703724 
L 235.986235 -138.742676 
L 236.250732 -137.781629 
L 236.540789 -136.820581 
L 236.856803 -135.859534 
L 237.198928 -134.898486 
L 237.567089 -133.937439 
L 237.960994 -132.976391 
L 238.380161 -132.015344 
L 238.82395 -131.054296 
L 239.291601 -130.093249 
L 239.782275 -129.132201 
L 240.295096 -128.171154 
L 240.82918 -127.210106 
L 241.383664 -126.249059 
L 241.957725 -125.288011 
L 242.55057 -124.326964 
L 243.161426 -123.365916 
L 243.789505 -122.404869 
L 244.433948 -121.443821 
L 245.093758 -120.482774 
L 245.767723 -119.521726 
L 246.454326 -118.560679 
L 247.151652 -117.599631 
L 247.857305 -116.638584 
L 248.568327 -115.677536 
L 249.281145 -114.716489 
L 249.991528 -113.755441 
L 250.694591 -112.794394 
L 251.384817 -111.833346 
L 252.056127 -110.872299 
L 252.701986 -109.911251 
L 253.315545 -108.950204 
L 253.889822 -107.989156 
L 254.417903 -107.028109 
L 254.89318 -106.067061 
L 255.309589 -105.106014 
L 255.661856 -104.144966 
L 255.945735 -103.183919 
L 256.158221 -102.222871 
L 256.297736 -101.261824 
L 256.364261 -100.300776 
L 256.359421 -99.339729 
L 256.286504 -98.378681 
L 256.150412 -97.417634 
L 255.957543 -96.456586 
L 255.715601 -95.495539 
L 255.433344 -94.534491 
L 255.120271 -93.573444 
L 254.78627 -92.612396 
L 254.441234 -91.651349 
L 254.09466 -90.690301 
L 253.75526 -89.729254 
L 253.430589 -88.768206 
L 253.12673 -87.807159 
L 252.848021 -86.846111 
L 252.596877 -85.885064 
L 252.373683 -84.924016 
L 252.17679 -83.962969 
L 252.002603 -83.001921 
L 251.84576 -82.040874 
L 251.699397 -81.079826 
L 251.555483 -80.118779 
L 251.405214 -79.157731 
L 251.239435 -78.196684 
L 251.04908 -77.235636 
L 250.825605 -76.274589 
L 250.561387 -75.313541 
L 250.250075 -74.352494 
L 249.886878 -73.391446 
L 249.468774 -72.430399 
L 248.994628 -71.469351 
L 248.465228 -70.508304 
L 247.883232 -69.547256 
L 247.25303 -68.586209 
L 246.580542 -67.625161 
L 245.872954 -66.664114 
L 245.138421 -65.703066 
L 244.385734 -64.742019 
L 243.623993 -63.780971 
L 242.862281 -62.819924 
L 242.109366 -61.858876 
L 241.373432 -60.897829 
L 240.661864 -59.936781 
L 239.981078 -58.975734 
L 239.336399 -58.014686 
L 238.732006 -57.053639 
L 238.170909 -56.092591 
L 237.654988 -55.131544 
L 237.185054 -54.170496 
L 236.760955 -53.209449 
L 236.381693 -52.248401 
L 236.045559 -51.287354 
L 235.750277 -50.326306 
L 235.49314 -49.365259 
z
"/>
    </defs>
    <g clip-path="url(#p75586833f3)">
     <use xlink:href="#m7228ad5c42" x="0" y="325.294125" style="fill: #06e1e9"/>
    </g>
   </g>
   <g id="matplotlib.axis_1">
    <g id="xtick_1">
     <g id="line2d_1">
      <defs>
       <path id="mac1e13b68d" d="M 0 0 
L 0 3.5 
" style="stroke: #000000; stroke-width: 0.8"/>
      </defs>
      <g>
       <use xlink:href="#mac1e13b68d" x="101.25416" y="301.416" style="stroke: #000000; stroke-width: 0.8"/>
      </g>
     </g>
     <g id="text_1">
      <text style="font: 10px 'DejaVu Sans', 'Bitstream Vera Sans', 'Computer Modern Sans Serif', 'Lucida Grande', 'Verdana', 'Geneva', 'Lucid', 'Arial', 'Helvetica', 'Avant Garde', sans-serif; text-anchor: middle" x="101.25416" y="316.014437" transform="rotate(-0 101.25416 316.014437)">Male</text>
     </g>
    </g>
    <g id="xtick_2">
     <g id="line2d_2">
      <g>
       <use xlink:href="#mac1e13b68d" x="212.04709" y="301.416" style="stroke: #000000; stroke-width: 0.8"/>
      </g>
     </g>
     <g id="text_2">
      <text style="font: 10px 'DejaVu Sans', 'Bitstream Vera Sans', 'Computer Modern Sans Serif', 'Lucida Grande', 'Verdana', 'Geneva', 'Lucid', 'Arial', 'Helvetica', 'Avant Garde', sans-serif; text-anchor: middle" x="212.04709" y="316.014437" transform="rotate(-0 212.04709 316.014437)">Female</text>
     </g>
    </g>
   </g>
   <g id="matplotlib.axis_2">
    <g id="ytick_1">
     <g id="line2d_3">
      <defs>
       <path id="ma10f53bf19" d="M 0 0 
L -3.5 0 
" style="stroke: #000000; stroke-width: 0.8"/>
      </defs>
      <g>
       <use xlink:href="#ma10f53bf19" x="46.965625" y="294.088332" style="stroke: #000000; stroke-width: 0.8"/>
      </g>
     </g>
     <g id="text_3">
      <text style="font: 10px 'DejaVu Sans', 'Bitstream Vera Sans', 'Computer Modern Sans Serif', 'Lucida Grande', 'Verdana', 'Geneva', 'Lucid', 'Arial', 'Helvetica', 'Avant Garde', sans-serif; text-anchor: end" x="39.965625" y="297.88755" transform="rotate(-0 39.965625 297.88755)">0</text>
     </g>
    </g>
    <g id="ytick_2">
     <g id="line2d_4">
      <g>
       <use xlink:href="#ma10f53bf19" x="46.965625" y="255.87245" style="stroke: #000000; stroke-width: 0.8"/>
      </g>
     </g>
     <g id="text_4">
      <text style="font: 10px 'DejaVu Sans', 'Bitstream Vera Sans', 'Computer Modern Sans Serif', 'Lucida Grande', 'Verdana', 'Geneva', 'Lucid', 'Arial', 'Helvetica', 'Avant Garde', sans-serif; text-anchor: end" x="39.965625" y="259.671669" transform="rotate(-0 39.965625 259.671669)">50</text>
     </g>
    </g>
    <g id="ytick_3">
     <g id="line2d_5">
      <g>
       <use xlink:href="#ma10f53bf19" x="46.965625" y="217.656568" style="stroke: #000000; stroke-width: 0.8"/>
      </g>
     </g>
     <g id="text_5">
      <text style="font: 10px 'DejaVu Sans', 'Bitstream Vera Sans', 'Computer Modern Sans Serif', 'Lucida Grande', 'Verdana', 'Geneva', 'Lucid', 'Arial', 'Helvetica', 'Avant Garde', sans-serif; text-anchor: end" x="39.965625" y="221.455787" transform="rotate(-0 39.965625 221.455787)">100</text>
     </g>
    </g>
    <g id="ytick_4">
     <g id="line2d_6">
      <g>
       <use xlink:href="#ma10f53bf19" x="46.965625" y="179.440686" style="stroke: #000000; stroke-width: 0.8"/>
      </g>
     </g>
     <g id="text_6">
      <text style="font: 10px 'DejaVu Sans', 'Bitstream Vera Sans', 'Computer Modern Sans Serif', 'Lucida Grande', 'Verdana', 'Geneva', 'Lucid', 'Arial', 'Helvetica', 'Avant Garde', sans-serif; text-anchor: end" x="39.965625" y="183.239905" transform="rotate(-0 39.965625 183.239905)">150</text>
     </g>
    </g>
    <g id="ytick_5">
     <g id="line2d_7">
      <g>
       <use xlink:href="#ma10f53bf19" x="46.965625" y="141.224805" style="stroke: #000000; stroke-width: 0.8"/>
      </g>
     </g>
     <g id="text_7">
      <text style="font: 10px 'DejaVu Sans', 'Bitstream Vera Sans', 'Computer Modern Sans Serif', 'Lucida Grande', 'Verdana', 'Geneva', 'Lucid', 'Arial', 'Helvetica', 'Avant Garde', sans-serif; text-anchor: end" x="39.965625" y="145.024024" transform="rotate(-0 39.965625 145.024024)">200</text>
     </g>
    </g>
    <g id="ytick_6">
     <g id="line2d_8">
      <g>
       <use xlink:href="#ma10f53bf19" x="46.965625" y="103.008923" style="stroke: #000000; stroke-width: 0.8"/>
      </g>
     </g>
     <g id="text_8">
      <text style="font: 10px 'DejaVu Sans', 'Bitstream Vera Sans', 'Computer Modern Sans Serif', 'Lucida Grande', 'Verdana', 'Geneva', 'Lucid', 'Arial', 'Helvetica', 'Avant Garde', sans-serif; text-anchor: end" x="39.965625" y="106.808142" transform="rotate(-0 39.965625 106.808142)">250</text>
     </g>
    </g>
    <g id="ytick_7">
     <g id="line2d_9">
      <g>
       <use xlink:href="#ma10f53bf19" x="46.965625" y="64.793041" style="stroke: #000000; stroke-width: 0.8"/>
      </g>
     </g>
     <g id="text_9">
      <text style="font: 10px 'DejaVu Sans', 'Bitstream Vera Sans', 'Computer Modern Sans Serif', 'Lucida Grande', 'Verdana', 'Geneva', 'Lucid', 'Arial', 'Helvetica', 'Avant Garde', sans-serif; text-anchor: end" x="39.965625" y="68.59226" transform="rotate(-0 39.965625 68.59226)">300</text>
     </g>
    </g>
    <g id="text_10">
     <text style="font: 10px 'DejaVu Sans', 'Bitstream Vera Sans', 'Computer Modern Sans Serif', 'Lucida Grande', 'Verdana', 'Geneva', 'Lucid', 'Arial', 'Helvetica', 'Avant Garde', sans-serif; text-anchor: middle" x="14.798438" y="174.508" transform="rotate(-90 14.798438 174.508)">Total Lick Bouts</text>
    </g>
   </g>
   <g id="line2d_10">
    <path d="M 79.095574 223.771109 
L 79.095574 183.262275 
" clip-path="url(#p75586833f3)" style="fill: none"/>
   </g>
   <g id="line2d_11">
    <path d="M 79.095574 206.191804 
L 79.095574 183.262275 
" clip-path="url(#p75586833f3)" style="fill: none"/>
   </g>
   <g id="line2d_12">
    <path d="M 123.412746 255.108132 
L 123.412746 175.619098 
" clip-path="url(#p75586833f3)" style="fill: none"/>
   </g>
   <g id="line2d_13">
    <path d="M 123.412746 231.414286 
L 123.412746 195.491357 
" clip-path="url(#p75586833f3)" style="fill: none"/>
   </g>
   <g id="line2d_14">
    <path d="M 189.888504 237.528827 
L 189.888504 148.103663 
" clip-path="url(#p75586833f3)" style="fill: none"/>
   </g>
   <g id="line2d_15">
    <path d="M 189.888504 231.605365 
L 189.888504 194.53596 
" clip-path="url(#p75586833f3)" style="fill: none"/>
   </g>
   <g id="line2d_16">
    <path d="M 234.205676 253.579497 
L 234.205676 203.134533 
" clip-path="url(#p75586833f3)" style="fill: none"/>
   </g>
   <g id="line2d_17">
    <path d="M 234.205676 249.757909 
L 234.205676 220.713839 
" clip-path="url(#p75586833f3)" style="fill: none"/>
   </g>
   <g id="line2d_18">
    <path d="M 123.412746 67.238858 
L 123.412746 59.137091 
L 234.205676 59.137091 
L 234.205676 67.238858 
" clip-path="url(#p75586833f3)" style="fill: none; stroke: #000000; stroke-width: 0.5; stroke-linecap: square"/>
   </g>
   <g id="line2d_19">
    <path d="M 79.095574 91.544159 
L 79.095574 83.442392 
L 189.888504 83.442392 
L 189.888504 91.544159 
" clip-path="url(#p75586833f3)" style="fill: none; stroke: #000000; stroke-width: 0.5; stroke-linecap: square"/>
   </g>
   <g id="line2d_20">
    <path d="M 189.888504 115.849459 
L 189.888504 107.747692 
L 234.205676 107.747692 
L 234.205676 115.849459 
" clip-path="url(#p75586833f3)" style="fill: none; stroke: #000000; stroke-width: 0.5; stroke-linecap: square"/>
   </g>
   <g id="line2d_21">
    <path d="M 79.095574 115.849459 
L 79.095574 107.747692 
L 123.412746 107.747692 
L 123.412746 115.849459 
" clip-path="url(#p75586833f3)" style="fill: none; stroke: #000000; stroke-width: 0.5; stroke-linecap: square"/>
   </g>
   <g id="patch_5">
    <path d="M 46.965625 301.416 
L 46.965625 47.6 
" style="fill: none; stroke: #000000; stroke-width: 0.8; stroke-linejoin: miter; stroke-linecap: square"/>
   </g>
   <g id="patch_6">
    <path d="M 46.965625 301.416 
L 266.335625 301.416 
" style="fill: none; stroke: #000000; stroke-width: 0.8; stroke-linejoin: miter; stroke-linecap: square"/>
   </g>
   <g id="PathCollection_1">
    <defs>
     <path id="C0_0_b5fc5a5f55" d="M 0 2.5 
C 0.663008 2.5 1.29895 2.236584 1.767767 1.767767 
C 2.236584 1.29895 2.5 0.663008 2.5 -0 
C 2.5 -0.663008 2.236584 -1.29895 1.767767 -1.767767 
C 1.29895 -2.236584 0.663008 -2.5 0 -2.5 
C -0.663008 -2.5 -1.29895 -2.236584 -1.767767 -1.767767 
C -2.236584 -1.29895 -2.5 -0.663008 -2.5 0 
C -2.5 0.663008 -2.236584 1.29895 -1.767767 1.767767 
C -1.29895 2.236584 -0.663008 2.5 0 2.5 
z
"/>
    </defs>
    <g clip-path="url(#p75586833f3)">
     <use xlink:href="#C0_0_b5fc5a5f55" x="79.095574" y="132.052993" style="fill: #262626; fill-opacity: 0.5"/>
    </g>
    <g clip-path="url(#p75586833f3)">
     <use xlink:href="#C0_0_b5fc5a5f55" x="79.095574" y="188.612498" style="fill: #262626; fill-opacity: 0.5"/>
    </g>
    <g clip-path="url(#p75586833f3)">
     <use xlink:href="#C0_0_b5fc5a5f55" x="74.096949" y="193.962722" style="fill: #262626; fill-opacity: 0.5"/>
    </g>
    <g clip-path="url(#p75586833f3)">
     <use xlink:href="#C0_0_b5fc5a5f55" x="79.095574" y="206.191804" style="fill: #262626; fill-opacity: 0.5"/>
    </g>
    <g clip-path="url(#p75586833f3)">
     <use xlink:href="#C0_0_b5fc5a5f55" x="79.095574" y="216.127933" style="fill: #262626; fill-opacity: 0.5"/>
    </g>
    <g clip-path="url(#p75586833f3)">
     <use xlink:href="#C0_0_b5fc5a5f55" x="79.095574" y="140.460487" style="fill: #262626; fill-opacity: 0.5"/>
    </g>
    <g clip-path="url(#p75586833f3)">
     <use xlink:href="#C0_0_b5fc5a5f55" x="79.095574" y="223.771109" style="fill: #262626; fill-opacity: 0.5"/>
    </g>
    <g clip-path="url(#p75586833f3)">
     <use xlink:href="#C0_0_b5fc5a5f55" x="79.095574" y="195.491357" style="fill: #262626; fill-opacity: 0.5"/>
    </g>
    <g clip-path="url(#p75586833f3)">
     <use xlink:href="#C0_0_b5fc5a5f55" x="79.095574" y="183.262275" style="fill: #262626; fill-opacity: 0.5"/>
    </g>
   </g>
   <g id="PathCollection_2">
    <defs>
     <path id="C1_0_4e4f9b2ce7" d="M 0 2.5 
C 0.663008 2.5 1.29895 2.236584 1.767767 1.767767 
C 2.236584 1.29895 2.5 0.663008 2.5 -0 
C 2.5 -0.663008 2.236584 -1.29895 1.767767 -1.767767 
C 1.29895 -2.236584 0.663008 -2.5 0 -2.5 
C -0.663008 -2.5 -1.29895 -2.236584 -1.767767 -1.767767 
C -2.236584 -1.29895 -2.5 -0.663008 -2.5 0 
C -2.5 0.663008 -2.236584 1.29895 -1.767767 1.767767 
C -1.29895 2.236584 -0.663008 2.5 0 2.5 
z
"/>
    </defs>
    <g clip-path="url(#p75586833f3)">
     <use xlink:href="#C1_0_4e4f9b2ce7" x="123.412746" y="180.205004" style="fill-opacity: 0.5"/>
    </g>
    <g clip-path="url(#p75586833f3)">
     <use xlink:href="#C1_0_4e4f9b2ce7" x="121.320776" y="175.619098" style="fill-opacity: 0.5"/>
    </g>
    <g clip-path="url(#p75586833f3)">
     <use xlink:href="#C1_0_4e4f9b2ce7" x="121.320776" y="231.414286" style="fill-opacity: 0.5"/>
    </g>
    <g clip-path="url(#p75586833f3)">
     <use xlink:href="#C1_0_4e4f9b2ce7" x="123.412746" y="195.491357" style="fill-opacity: 0.5"/>
    </g>
    <g clip-path="url(#p75586833f3)">
     <use xlink:href="#C1_0_4e4f9b2ce7" x="123.412746" y="255.108132" style="fill-opacity: 0.5"/>
    </g>
    <g clip-path="url(#p75586833f3)">
     <use xlink:href="#C1_0_4e4f9b2ce7" x="126.319402" y="229.88565" style="fill-opacity: 0.5"/>
    </g>
    <g clip-path="url(#p75586833f3)">
     <use xlink:href="#C1_0_4e4f9b2ce7" x="123.412746" y="203.134533" style="fill-opacity: 0.5"/>
    </g>
    <g clip-path="url(#p75586833f3)">
     <use xlink:href="#C1_0_4e4f9b2ce7" x="123.412746" y="208.484757" style="fill-opacity: 0.5"/>
    </g>
    <g clip-path="url(#p75586833f3)">
     <use xlink:href="#C1_0_4e4f9b2ce7" x="123.412746" y="236.000191" style="fill-opacity: 0.5"/>
    </g>
   </g>
   <g id="PathCollection_3">
    <defs>
     <path id="C2_0_a8201c2a56" d="M 0 2.5 
C 0.663008 2.5 1.29895 2.236584 1.767767 1.767767 
C 2.236584 1.29895 2.5 0.663008 2.5 -0 
C 2.5 -0.663008 2.236584 -1.29895 1.767767 -1.767767 
C 1.29895 -2.236584 0.663008 -2.5 0 -2.5 
C -0.663008 -2.5 -1.29895 -2.236584 -1.767767 -1.767767 
C -2.236584 -1.29895 -2.5 -0.663008 -2.5 0 
C -2.5 0.663008 -2.236584 1.29895 -1.767767 1.767767 
C -1.29895 2.236584 -0.663008 2.5 0 2.5 
z
"/>
    </defs>
    <g clip-path="url(#p75586833f3)">
     <use xlink:href="#C2_0_a8201c2a56" x="189.888504" y="148.103663" style="fill: #262626; fill-opacity: 0.5"/>
    </g>
    <g clip-path="url(#p75586833f3)">
     <use xlink:href="#C2_0_a8201c2a56" x="189.888504" y="158.039793" style="fill: #262626; fill-opacity: 0.5"/>
    </g>
    <g clip-path="url(#p75586833f3)">
     <use xlink:href="#C2_0_a8201c2a56" x="189.888504" y="237.528827" style="fill: #262626; fill-opacity: 0.5"/>
    </g>
    <g clip-path="url(#p75586833f3)">
     <use xlink:href="#C2_0_a8201c2a56" x="189.888504" y="200.84158" style="fill: #262626; fill-opacity: 0.5"/>
    </g>
    <g clip-path="url(#p75586833f3)">
     <use xlink:href="#C2_0_a8201c2a56" x="184.889878" y="226.064062" style="fill: #262626; fill-opacity: 0.5"/>
    </g>
    <g clip-path="url(#p75586833f3)">
     <use xlink:href="#C2_0_a8201c2a56" x="187.796534" y="232.942921" style="fill: #262626; fill-opacity: 0.5"/>
    </g>
    <g clip-path="url(#p75586833f3)">
     <use xlink:href="#C2_0_a8201c2a56" x="189.888504" y="213.83498" style="fill: #262626; fill-opacity: 0.5"/>
    </g>
    <g clip-path="url(#p75586833f3)">
     <use xlink:href="#C2_0_a8201c2a56" x="189.888504" y="227.592697" style="fill: #262626; fill-opacity: 0.5"/>
    </g>
    <g clip-path="url(#p75586833f3)">
     <use xlink:href="#C2_0_a8201c2a56" x="189.888504" y="192.434086" style="fill: #262626; fill-opacity: 0.5"/>
    </g>
    <g clip-path="url(#p75586833f3)">
     <use xlink:href="#C2_0_a8201c2a56" x="193.046534" y="232.942921" style="fill: #262626; fill-opacity: 0.5"/>
    </g>
   </g>
   <g id="PathCollection_4">
    <defs>
     <path id="C3_0_4768a0b204" d="M 0 2.5 
C 0.663008 2.5 1.29895 2.236584 1.767767 1.767767 
C 2.236584 1.29895 2.5 0.663008 2.5 -0 
C 2.5 -0.663008 2.236584 -1.29895 1.767767 -1.767767 
C 1.29895 -2.236584 0.663008 -2.5 0 -2.5 
C -0.663008 -2.5 -1.29895 -2.236584 -1.767767 -1.767767 
C -2.236584 -1.29895 -2.5 -0.663008 -2.5 0 
C -2.5 0.663008 -2.236584 1.29895 -1.767767 1.767767 
C -1.29895 2.236584 -0.663008 2.5 0 2.5 
z
"/>
    </defs>
    <g clip-path="url(#p75586833f3)">
     <use xlink:href="#C3_0_4768a0b204" x="234.205676" y="203.134533" style="fill-opacity: 0.5"/>
    </g>
    <g clip-path="url(#p75586833f3)">
     <use xlink:href="#C3_0_4768a0b204" x="234.205676" y="225.299744" style="fill-opacity: 0.5"/>
    </g>
    <g clip-path="url(#p75586833f3)">
     <use xlink:href="#C3_0_4768a0b204" x="234.205676" y="231.414286" style="fill-opacity: 0.5"/>
    </g>
    <g clip-path="url(#p75586833f3)">
     <use xlink:href="#C3_0_4768a0b204" x="237.591085" y="249.757909" style="fill-opacity: 0.5"/>
    </g>
    <g clip-path="url(#p75586833f3)">
     <use xlink:href="#C3_0_4768a0b204" x="229.540275" y="229.121333" style="fill-opacity: 0.5"/>
    </g>
    <g clip-path="url(#p75586833f3)">
     <use xlink:href="#C3_0_4768a0b204" x="234.205676" y="215.363615" style="fill-opacity: 0.5"/>
    </g>
    <g clip-path="url(#p75586833f3)">
     <use xlink:href="#C3_0_4768a0b204" x="232.113706" y="220.713839" style="fill-opacity: 0.5"/>
    </g>
    <g clip-path="url(#p75586833f3)">
     <use xlink:href="#C3_0_4768a0b204" x="234.205676" y="253.579497" style="fill-opacity: 0.5"/>
    </g>
    <g clip-path="url(#p75586833f3)">
     <use xlink:href="#C3_0_4768a0b204" x="230.051456" y="250.522226" style="fill-opacity: 0.5"/>
    </g>
   </g>
   <g id="PathCollection_5">
    <defs>
     <path id="ma825e08f02" d="M 0 0 
C 0 0 0 0 0 0 
C 0 0 0 0 0 0 
C 0 0 0 0 0 0 
C 0 0 0 0 0 0 
C 0 0 0 0 0 0 
C 0 0 0 0 0 0 
C 0 0 0 0 0 0 
C 0 0 0 0 0 0 
z
" style="stroke: #484848"/>
    </defs>
    <g clip-path="url(#p75586833f3)">
     <use xlink:href="#ma825e08f02" x="79.095574" y="193.962722" style="fill: #ffffff; stroke: #484848"/>
    </g>
   </g>
   <g id="PathCollection_6">
    <g clip-path="url(#p75586833f3)">
     <use xlink:href="#ma825e08f02" x="123.412746" y="208.484757" style="fill: #ffffff; stroke: #484848"/>
    </g>
   </g>
   <g id="PathCollection_7">
    <g clip-path="url(#p75586833f3)">
     <use xlink:href="#ma825e08f02" x="189.888504" y="219.949521" style="fill: #ffffff; stroke: #484848"/>
    </g>
   </g>
   <g id="PathCollection_8">
    <g clip-path="url(#p75586833f3)">
     <use xlink:href="#ma825e08f02" x="234.205676" y="229.121333" style="fill: #ffffff; stroke: #484848"/>
    </g>
   </g>
   <g id="text_11">
    <text style="font: 10px 'DejaVu Sans', 'Bitstream Vera Sans', 'Computer Modern Sans Serif', 'Lucida Grande', 'Verdana', 'Geneva', 'Lucid', 'Arial', 'Helvetica', 'Avant Garde', sans-serif; text-anchor: middle" x="178.809211" y="57.057403" transform="rotate(-0 178.809211 57.057403)">ns</text>
   </g>
   <g id="text_12">
    <text style="font: 10px 'DejaVu Sans', 'Bitstream Vera Sans', 'Computer Modern Sans Serif', 'Lucida Grande', 'Verdana', 'Geneva', 'Lucid', 'Arial', 'Helvetica', 'Avant Garde', sans-serif; text-anchor: middle" x="134.492039" y="81.362704" transform="rotate(-0 134.492039 81.362704)">ns</text>
   </g>
   <g id="text_13">
    <text style="font: 10px 'DejaVu Sans', 'Bitstream Vera Sans', 'Computer Modern Sans Serif', 'Lucida Grande', 'Verdana', 'Geneva', 'Lucid', 'Arial', 'Helvetica', 'Avant Garde', sans-serif; text-anchor: middle" x="212.04709" y="105.668005" transform="rotate(-0 212.04709 105.668005)">ns</text>
   </g>
   <g id="text_14">
    <text style="font: 10px 'DejaVu Sans', 'Bitstream Vera Sans', 'Computer Modern Sans Serif', 'Lucida Grande', 'Verdana', 'Geneva', 'Lucid', 'Arial', 'Helvetica', 'Avant Garde', sans-serif; text-anchor: middle" x="101.25416" y="105.668005" transform="rotate(-0 101.25416 105.668005)">ns</text>
   </g>
   <g id="legend_1">
    <g id="patch_7">
     <path d="M 55.965625 20.3 
L 75.965625 20.3 
L 75.965625 13.3 
L 55.965625 13.3 
z
" style="fill: #d4d4d4"/>
    </g>
    <g id="text_15">
     <!-- $AgrP^{Cre}$::Ai9 -->
     <g transform="translate(83.965625 20.3)">
      <text>
       <tspan style="font: oblique 10px 'DejaVu Sans'" x="0 6.84082 13.188477 17.299805" y="-0.9765625">AgrP</tspan>
       <tspan style="font: oblique 7px 'DejaVu Sans'" x="24.03263 28.920326 31.798255" y="-4.8046875">Cre</tspan>
       <tspan style="font: 10px 'DejaVu Sans'" x="36.378333 39.747474 43.116615 49.957435 52.735755" y="-0.9765625">::Ai9</tspan>
      </text>
     </g>
    </g>
    <g id="patch_8">
     <path d="M 55.965625 36.5 
L 75.965625 36.5 
L 75.965625 29.5 
L 55.965625 29.5 
z
" style="fill: #06e1e9"/>
    </g>
    <g id="text_16">
     <!-- $AgrP^{Cre}$::Ai32 -->
     <g transform="translate(83.965625 36.5)">
      <text>
       <tspan style="font: oblique 10px 'DejaVu Sans'" x="0 6.84082 13.188477 17.299805" y="-0.9765625">AgrP</tspan>
       <tspan style="font: oblique 7px 'DejaVu Sans'" x="24.03263 28.920326 31.798255" y="-4.8046875">Cre</tspan>
       <tspan style="font: 10px 'DejaVu Sans'" x="36.378333 39.747474 43.116615 49.957435 52.735755 59.09806" y="-0.9765625">::Ai32</tspan>
      </text>
     </g>
    </g>
   </g>
  </g>
  <g id="axes_2">
   <g id="patch_9">
    <path d="M 323.345625 301.416 
L 542.715625 301.416 
L 542.715625 47.6 
L 323.345625 47.6 
L 323.345625 301.416 
z
" style="fill: none"/>
   </g>
   <g id="patch_10">
    <path d="M 377.63416 358.626099 
L 377.63416 358.626099 
L 377.63416 358.626099 
L 377.63416 358.626099 
z
" clip-path="url(#p5569f800d8)" style="fill: #d4d4d4"/>
   </g>
   <g id="PolyCollection_5">
    <defs>
     <path id="mdd0e1883df" d="M 364.03279 -59.974829 
L 346.918359 -59.974829 
L 346.750739 -61.066525 
L 346.590523 -62.158222 
L 346.43772 -63.249918 
L 346.292255 -64.341615 
L 346.153968 -65.433311 
L 346.022614 -66.525007 
L 345.897867 -67.616704 
L 345.779321 -68.7084 
L 345.666489 -69.800097 
L 345.558812 -70.891793 
L 345.455665 -71.983489 
L 345.356355 -73.075186 
L 345.260137 -74.166882 
L 345.166214 -75.258579 
L 345.073748 -76.350275 
L 344.981869 -77.441971 
L 344.889683 -78.533668 
L 344.796277 -79.625364 
L 344.700738 -80.71706 
L 344.602151 -81.808757 
L 344.499616 -82.900453 
L 344.392257 -83.99215 
L 344.279225 -85.083846 
L 344.159715 -86.175542 
L 344.032969 -87.267239 
L 343.898284 -88.358935 
L 343.755021 -89.450632 
L 343.602613 -90.542328 
L 343.440568 -91.634024 
L 343.268474 -92.725721 
L 343.086007 -93.817417 
L 342.892933 -94.909114 
L 342.68911 -96.00081 
L 342.474488 -97.092506 
L 342.249118 -98.184203 
L 342.013144 -99.275899 
L 341.766806 -100.367596 
L 341.51044 -101.459292 
L 341.244477 -102.550988 
L 340.969434 -103.642685 
L 340.68592 -104.734381 
L 340.394627 -105.826078 
L 340.096325 -106.917774 
L 339.791861 -108.00947 
L 339.482152 -109.101167 
L 339.168176 -110.192863 
L 338.850974 -111.284559 
L 338.531636 -112.376256 
L 338.211299 -113.467952 
L 337.891139 -114.559649 
L 337.572364 -115.651345 
L 337.256208 -116.743041 
L 336.943923 -117.834738 
L 336.636772 -118.926434 
L 336.336023 -120.018131 
L 336.042942 -121.109827 
L 335.758785 -122.201523 
L 335.484791 -123.29322 
L 335.222177 -124.384916 
L 334.972131 -125.476613 
L 334.735805 -126.568309 
L 334.51431 -127.660005 
L 334.308707 -128.751702 
L 334.120009 -129.843398 
L 333.949166 -130.935095 
L 333.797069 -132.026791 
L 333.664541 -133.118487 
L 333.552332 -134.210184 
L 333.461119 -135.30188 
L 333.391502 -136.393577 
L 333.343998 -137.485273 
L 333.319044 -138.576969 
L 333.316989 -139.668666 
L 333.338098 -140.760362 
L 333.382551 -141.852058 
L 333.450437 -142.943755 
L 333.541761 -144.035451 
L 333.65644 -145.127148 
L 333.794306 -146.218844 
L 333.955107 -147.31054 
L 334.13851 -148.402237 
L 334.344098 -149.493933 
L 334.571382 -150.58563 
L 334.819793 -151.677326 
L 335.088697 -152.769022 
L 335.377386 -153.860719 
L 335.685091 -154.952415 
L 336.010985 -156.044112 
L 336.354182 -157.135808 
L 336.713747 -158.227504 
L 337.088696 -159.319201 
L 337.478006 -160.410897 
L 337.880616 -161.502594 
L 338.29543 -162.59429 
L 338.72133 -163.685986 
L 339.157171 -164.777683 
L 339.601795 -165.869379 
L 340.054029 -166.961076 
L 340.512695 -168.052772 
L 370.438454 -168.052772 
L 370.438454 -168.052772 
L 370.89712 -166.961076 
L 371.349354 -165.869379 
L 371.793978 -164.777683 
L 372.229819 -163.685986 
L 372.655719 -162.59429 
L 373.070533 -161.502594 
L 373.473143 -160.410897 
L 373.862453 -159.319201 
L 374.237402 -158.227504 
L 374.596967 -157.135808 
L 374.940164 -156.044112 
L 375.266058 -154.952415 
L 375.573763 -153.860719 
L 375.862452 -152.769022 
L 376.131356 -151.677326 
L 376.379767 -150.58563 
L 376.607051 -149.493933 
L 376.812639 -148.402237 
L 376.996042 -147.31054 
L 377.156843 -146.218844 
L 377.294709 -145.127148 
L 377.409388 -144.035451 
L 377.500712 -142.943755 
L 377.568598 -141.852058 
L 377.613051 -140.760362 
L 377.63416 -139.668666 
L 377.632105 -138.576969 
L 377.607151 -137.485273 
L 377.559647 -136.393577 
L 377.49003 -135.30188 
L 377.398817 -134.210184 
L 377.286608 -133.118487 
L 377.15408 -132.026791 
L 377.001983 -130.935095 
L 376.83114 -129.843398 
L 376.642441 -128.751702 
L 376.436839 -127.660005 
L 376.215344 -126.568309 
L 375.979018 -125.476613 
L 375.728972 -124.384916 
L 375.466358 -123.29322 
L 375.192364 -122.201523 
L 374.908207 -121.109827 
L 374.615126 -120.018131 
L 374.314377 -118.926434 
L 374.007226 -117.834738 
L 373.694941 -116.743041 
L 373.378785 -115.651345 
L 373.06001 -114.559649 
L 372.73985 -113.467952 
L 372.419513 -112.376256 
L 372.100175 -111.284559 
L 371.782973 -110.192863 
L 371.468997 -109.101167 
L 371.159288 -108.00947 
L 370.854824 -106.917774 
L 370.556522 -105.826078 
L 370.265229 -104.734381 
L 369.981715 -103.642685 
L 369.706672 -102.550988 
L 369.440709 -101.459292 
L 369.184343 -100.367596 
L 368.938005 -99.275899 
L 368.702031 -98.184203 
L 368.476661 -97.092506 
L 368.262039 -96.00081 
L 368.058216 -94.909114 
L 367.865142 -93.817417 
L 367.682675 -92.725721 
L 367.510581 -91.634024 
L 367.348536 -90.542328 
L 367.196128 -89.450632 
L 367.052865 -88.358935 
L 366.91818 -87.267239 
L 366.791434 -86.175542 
L 366.671924 -85.083846 
L 366.558892 -83.99215 
L 366.451533 -82.900453 
L 366.348998 -81.808757 
L 366.250411 -80.71706 
L 366.154872 -79.625364 
L 366.061466 -78.533668 
L 365.96928 -77.441971 
L 365.877401 -76.350275 
L 365.784935 -75.258579 
L 365.691012 -74.166882 
L 365.594794 -73.075186 
L 365.495484 -71.983489 
L 365.392337 -70.891793 
L 365.28466 -69.800097 
L 365.171828 -68.7084 
L 365.053282 -67.616704 
L 364.928535 -66.525007 
L 364.797181 -65.433311 
L 364.658894 -64.341615 
L 364.513429 -63.249918 
L 364.360626 -62.158222 
L 364.20041 -61.066525 
L 364.03279 -59.974829 
z
"/>
    </defs>
    <g clip-path="url(#p5569f800d8)">
     <use xlink:href="#mdd0e1883df" x="0" y="325.294125" style="fill: #d4d4d4"/>
    </g>
   </g>
   <g id="patch_11">
    <path d="M 377.63416 358.626099 
L 377.63416 358.626099 
L 377.63416 358.626099 
L 377.63416 358.626099 
z
" clip-path="url(#p5569f800d8)" style="fill: #06e1e9"/>
   </g>
   <g id="PolyCollection_6">
    <defs>
     <path id="m07fcf60a71" d="M 407.024409 -35.415216 
L 392.561084 -35.415216 
L 392.349293 -36.799091 
L 392.140066 -38.182966 
L 391.933744 -39.566841 
L 391.730645 -40.950716 
L 391.531056 -42.334591 
L 391.335232 -43.718466 
L 391.14339 -45.102341 
L 390.955714 -46.486216 
L 390.772343 -47.870091 
L 390.59338 -49.253965 
L 390.418879 -50.63784 
L 390.248856 -52.021715 
L 390.083278 -53.40559 
L 389.92207 -54.789465 
L 389.765112 -56.17334 
L 389.612245 -57.557215 
L 389.463264 -58.94109 
L 389.317929 -60.324965 
L 389.175964 -61.70884 
L 389.037061 -63.092715 
L 388.900882 -64.47659 
L 388.767069 -65.860465 
L 388.635243 -67.24434 
L 388.505014 -68.628215 
L 388.375985 -70.01209 
L 388.247758 -71.395965 
L 388.11994 -72.77984 
L 387.992154 -74.163715 
L 387.86404 -75.54759 
L 387.735262 -76.931465 
L 387.605522 -78.31534 
L 387.474555 -79.699215 
L 387.342145 -81.08309 
L 387.208123 -82.466965 
L 387.072377 -83.850839 
L 386.934852 -85.234714 
L 386.795558 -86.618589 
L 386.654566 -88.002464 
L 386.512018 -89.386339 
L 386.368121 -90.770214 
L 386.223148 -92.154089 
L 386.07744 -93.537964 
L 385.931401 -94.921839 
L 385.785494 -96.305714 
L 385.640238 -97.689589 
L 385.496205 -99.073464 
L 385.35401 -100.457339 
L 385.214307 -101.841214 
L 385.077782 -103.225089 
L 384.945141 -104.608964 
L 384.817109 -105.992839 
L 384.694415 -107.376714 
L 384.577787 -108.760589 
L 384.467942 -110.144464 
L 384.365579 -111.528339 
L 384.271368 -112.912214 
L 384.185948 -114.296089 
L 384.109912 -115.679964 
L 384.043809 -117.063838 
L 383.988133 -118.447713 
L 383.943318 -119.831588 
L 383.909738 -121.215463 
L 383.887703 -122.599338 
L 383.877455 -123.983213 
L 383.87917 -125.367088 
L 383.892955 -126.750963 
L 383.918854 -128.134838 
L 383.956847 -129.518713 
L 384.006853 -130.902588 
L 384.068734 -132.286463 
L 384.142303 -133.670338 
L 384.227323 -135.054213 
L 384.323518 -136.438088 
L 384.430575 -137.821963 
L 384.548152 -139.205838 
L 384.675885 -140.589713 
L 384.813391 -141.973588 
L 384.960278 -143.357463 
L 385.116146 -144.741338 
L 385.280595 -146.125213 
L 385.453229 -147.509088 
L 385.633661 -148.892963 
L 385.821513 -150.276838 
L 386.016424 -151.660712 
L 386.218046 -153.044587 
L 386.426051 -154.428462 
L 386.640127 -155.812337 
L 386.85998 -157.196212 
L 387.085333 -158.580087 
L 387.315926 -159.963962 
L 387.551508 -161.347837 
L 387.791843 -162.731712 
L 388.036703 -164.115587 
L 388.285862 -165.499462 
L 388.539098 -166.883337 
L 388.796189 -168.267212 
L 389.056904 -169.651087 
L 389.321008 -171.034962 
L 389.588253 -172.418837 
L 409.99724 -172.418837 
L 409.99724 -172.418837 
L 410.264484 -171.034962 
L 410.528588 -169.651087 
L 410.789304 -168.267212 
L 411.046394 -166.883337 
L 411.299631 -165.499462 
L 411.54879 -164.115587 
L 411.793649 -162.731712 
L 412.033985 -161.347837 
L 412.269567 -159.963962 
L 412.500159 -158.580087 
L 412.725512 -157.196212 
L 412.945365 -155.812337 
L 413.159441 -154.428462 
L 413.367446 -153.044587 
L 413.569069 -151.660712 
L 413.763979 -150.276838 
L 413.951832 -148.892963 
L 414.132263 -147.509088 
L 414.304898 -146.125213 
L 414.469347 -144.741338 
L 414.625214 -143.357463 
L 414.772101 -141.973588 
L 414.909608 -140.589713 
L 415.03734 -139.205838 
L 415.154918 -137.821963 
L 415.261974 -136.438088 
L 415.358169 -135.054213 
L 415.443189 -133.670338 
L 415.516758 -132.286463 
L 415.57864 -130.902588 
L 415.628646 -129.518713 
L 415.666638 -128.134838 
L 415.692538 -126.750963 
L 415.706323 -125.367088 
L 415.708037 -123.983213 
L 415.697789 -122.599338 
L 415.675754 -121.215463 
L 415.642175 -119.831588 
L 415.59736 -118.447713 
L 415.541683 -117.063838 
L 415.47558 -115.679964 
L 415.399545 -114.296089 
L 415.314124 -112.912214 
L 415.219914 -111.528339 
L 415.117551 -110.144464 
L 415.007706 -108.760589 
L 414.891078 -107.376714 
L 414.768384 -105.992839 
L 414.640351 -104.608964 
L 414.507711 -103.225089 
L 414.371185 -101.841214 
L 414.231482 -100.457339 
L 414.089287 -99.073464 
L 413.945254 -97.689589 
L 413.799999 -96.305714 
L 413.654091 -94.921839 
L 413.508052 -93.537964 
L 413.362344 -92.154089 
L 413.217372 -90.770214 
L 413.073474 -89.386339 
L 412.930926 -88.002464 
L 412.789935 -86.618589 
L 412.65064 -85.234714 
L 412.513115 -83.850839 
L 412.377369 -82.466965 
L 412.243347 -81.08309 
L 412.110937 -79.699215 
L 411.979971 -78.31534 
L 411.85023 -76.931465 
L 411.721453 -75.54759 
L 411.593338 -74.163715 
L 411.465552 -72.77984 
L 411.337735 -71.395965 
L 411.209507 -70.01209 
L 411.080478 -68.628215 
L 410.950249 -67.24434 
L 410.818424 -65.860465 
L 410.68461 -64.47659 
L 410.548432 -63.092715 
L 410.409528 -61.70884 
L 410.267563 -60.324965 
L 410.122228 -58.94109 
L 409.973248 -57.557215 
L 409.82038 -56.17334 
L 409.663423 -54.789465 
L 409.502215 -53.40559 
L 409.336637 -52.021715 
L 409.166613 -50.63784 
L 408.992113 -49.253965 
L 408.813149 -47.870091 
L 408.629779 -46.486216 
L 408.442102 -45.102341 
L 408.250261 -43.718466 
L 408.054436 -42.334591 
L 407.854847 -40.950716 
L 407.651748 -39.566841 
L 407.445427 -38.182966 
L 407.236199 -36.799091 
L 407.024409 -35.415216 
z
"/>
    </defs>
    <g clip-path="url(#p5569f800d8)">
     <use xlink:href="#m07fcf60a71" x="0" y="325.294125" style="fill: #06e1e9"/>
    </g>
   </g>
   <g id="PolyCollection_7">
    <defs>
     <path id="m54c09d3e0c" d="M 476.878214 -50.485103 
L 455.658793 -50.485103 
L 455.232292 -51.72477 
L 454.807395 -52.964438 
L 454.385308 -54.204105 
L 453.967252 -55.443772 
L 453.554456 -56.68344 
L 453.148153 -57.923107 
L 452.749575 -59.162774 
L 452.35995 -60.402442 
L 451.980499 -61.642109 
L 451.61243 -62.881776 
L 451.256936 -64.121444 
L 450.915186 -65.361111 
L 450.58833 -66.600778 
L 450.277486 -67.840446 
L 449.983738 -69.080113 
L 449.708133 -70.31978 
L 449.451674 -71.559448 
L 449.215315 -72.799115 
L 448.999956 -74.038782 
L 448.806435 -75.27845 
L 448.635522 -76.518117 
L 448.487916 -77.757784 
L 448.364232 -78.997452 
L 448.265002 -80.237119 
L 448.190661 -81.476786 
L 448.141546 -82.716454 
L 448.117885 -83.956121 
L 448.119799 -85.195788 
L 448.147287 -86.435456 
L 448.200231 -87.675123 
L 448.278386 -88.91479 
L 448.381381 -90.154458 
L 448.508719 -91.394125 
L 448.659772 -92.633792 
L 448.833789 -93.87346 
L 449.029893 -95.113127 
L 449.247089 -96.352795 
L 449.484268 -97.592462 
L 449.740216 -98.832129 
L 450.01362 -100.071797 
L 450.303081 -101.311464 
L 450.60712 -102.551131 
L 450.924197 -103.790799 
L 451.252717 -105.030466 
L 451.59105 -106.270133 
L 451.93754 -107.509801 
L 452.290522 -108.749468 
L 452.648335 -109.989135 
L 453.009341 -111.228803 
L 453.37193 -112.46847 
L 453.734544 -113.708137 
L 454.09568 -114.947805 
L 454.45391 -116.187472 
L 454.807885 -117.427139 
L 455.156347 -118.666807 
L 455.498138 -119.906474 
L 455.832206 -121.146141 
L 456.157607 -122.385809 
L 456.473512 -123.625476 
L 456.779209 -124.865143 
L 457.074102 -126.104811 
L 457.357709 -127.344478 
L 457.629663 -128.584145 
L 457.889709 -129.823813 
L 458.137696 -131.06348 
L 458.373575 -132.303147 
L 458.597393 -133.542815 
L 458.809284 -134.782482 
L 459.009465 -136.022149 
L 459.198229 -137.261817 
L 459.375933 -138.501484 
L 459.542998 -139.741151 
L 459.699893 -140.980819 
L 459.847137 -142.220486 
L 459.985286 -143.460153 
L 460.114925 -144.699821 
L 460.23667 -145.939488 
L 460.351152 -147.179155 
L 460.45902 -148.418823 
L 460.560928 -149.65849 
L 460.657538 -150.898157 
L 460.749508 -152.137825 
L 460.837494 -153.377492 
L 460.922142 -154.617159 
L 461.004084 -155.856827 
L 461.083938 -157.096494 
L 461.162298 -158.336161 
L 461.239739 -159.575829 
L 461.316805 -160.815496 
L 461.394011 -162.055163 
L 461.471839 -163.294831 
L 461.550734 -164.534498 
L 461.6311 -165.774165 
L 461.713301 -167.013833 
L 461.797655 -168.2535 
L 461.884432 -169.493167 
L 461.973856 -170.732835 
L 462.066097 -171.972502 
L 462.161278 -173.212169 
L 470.375729 -173.212169 
L 470.375729 -173.212169 
L 470.47091 -171.972502 
L 470.563152 -170.732835 
L 470.652575 -169.493167 
L 470.739353 -168.2535 
L 470.823706 -167.013833 
L 470.905907 -165.774165 
L 470.986274 -164.534498 
L 471.065168 -163.294831 
L 471.142996 -162.055163 
L 471.220203 -160.815496 
L 471.297269 -159.575829 
L 471.374709 -158.336161 
L 471.45307 -157.096494 
L 471.532923 -155.856827 
L 471.614866 -154.617159 
L 471.699513 -153.377492 
L 471.7875 -152.137825 
L 471.87947 -150.898157 
L 471.97608 -149.65849 
L 472.077988 -148.418823 
L 472.185855 -147.179155 
L 472.300338 -145.939488 
L 472.422082 -144.699821 
L 472.551722 -143.460153 
L 472.68987 -142.220486 
L 472.837114 -140.980819 
L 472.99401 -139.741151 
L 473.161074 -138.501484 
L 473.338779 -137.261817 
L 473.527542 -136.022149 
L 473.727724 -134.782482 
L 473.939615 -133.542815 
L 474.163432 -132.303147 
L 474.399311 -131.06348 
L 474.647298 -129.823813 
L 474.907344 -128.584145 
L 475.179299 -127.344478 
L 475.462906 -126.104811 
L 475.757798 -124.865143 
L 476.063495 -123.625476 
L 476.379401 -122.385809 
L 476.704802 -121.146141 
L 477.038869 -119.906474 
L 477.380661 -118.666807 
L 477.729123 -117.427139 
L 478.083098 -116.187472 
L 478.441327 -114.947805 
L 478.802464 -113.708137 
L 479.165078 -112.46847 
L 479.527667 -111.228803 
L 479.888672 -109.989135 
L 480.246486 -108.749468 
L 480.599468 -107.509801 
L 480.945957 -106.270133 
L 481.28429 -105.030466 
L 481.612811 -103.790799 
L 481.929888 -102.551131 
L 482.233927 -101.311464 
L 482.523387 -100.071797 
L 482.796791 -98.832129 
L 483.052739 -97.592462 
L 483.289919 -96.352795 
L 483.507115 -95.113127 
L 483.703219 -93.87346 
L 483.877235 -92.633792 
L 484.028289 -91.394125 
L 484.155626 -90.154458 
L 484.258622 -88.91479 
L 484.336777 -87.675123 
L 484.389721 -86.435456 
L 484.417209 -85.195788 
L 484.419122 -83.956121 
L 484.395462 -82.716454 
L 484.346346 -81.476786 
L 484.272006 -80.237119 
L 484.172775 -78.997452 
L 484.049092 -77.757784 
L 483.901486 -76.518117 
L 483.730573 -75.27845 
L 483.537052 -74.038782 
L 483.321692 -72.799115 
L 483.085334 -71.559448 
L 482.828875 -70.31978 
L 482.55327 -69.080113 
L 482.259522 -67.840446 
L 481.948677 -66.600778 
L 481.621821 -65.361111 
L 481.280072 -64.121444 
L 480.924577 -62.881776 
L 480.556508 -61.642109 
L 480.177057 -60.402442 
L 479.787433 -59.162774 
L 479.388854 -57.923107 
L 478.982551 -56.68344 
L 478.569755 -55.443772 
L 478.1517 -54.204105 
L 477.729613 -52.964438 
L 477.304715 -51.72477 
L 476.878214 -50.485103 
z
"/>
    </defs>
    <g clip-path="url(#p5569f800d8)">
     <use xlink:href="#m54c09d3e0c" x="0" y="325.294125" style="fill: #d4d4d4"/>
    </g>
   </g>
   <g id="PolyCollection_8">
    <defs>
     <path id="mf9bcbb0ba6" d="M 520.807213 -76.71648 
L 500.364138 -76.71648 
L 499.998358 -77.477626 
L 499.629806 -78.238771 
L 499.258843 -78.999916 
L 498.885845 -79.761061 
L 498.511208 -80.522206 
L 498.135344 -81.283352 
L 497.758689 -82.044497 
L 497.381702 -82.805642 
L 497.004865 -83.566787 
L 496.628687 -84.327932 
L 496.253703 -85.089078 
L 495.880476 -85.850223 
L 495.509591 -86.611368 
L 495.141663 -87.372513 
L 494.777328 -88.133658 
L 494.417242 -88.894804 
L 494.062082 -89.655949 
L 493.712537 -90.417094 
L 493.369311 -91.178239 
L 493.03311 -91.939384 
L 492.704642 -92.70053 
L 492.384613 -93.461675 
L 492.073714 -94.22282 
L 491.772623 -94.983965 
L 491.481994 -95.74511 
L 491.202451 -96.506256 
L 490.934582 -97.267401 
L 490.678935 -98.028546 
L 490.436007 -98.789691 
L 490.206246 -99.550836 
L 489.990037 -100.311982 
L 489.787706 -101.073127 
L 489.59951 -101.834272 
L 489.425641 -102.595417 
L 489.266214 -103.356562 
L 489.121275 -104.117708 
L 488.990796 -104.878853 
L 488.874677 -105.639998 
L 488.772748 -106.401143 
L 488.684769 -107.162288 
L 488.610436 -107.923434 
L 488.549386 -108.684579 
L 488.501198 -109.445724 
L 488.465404 -110.206869 
L 488.441492 -110.968015 
L 488.428912 -111.72916 
L 488.42709 -112.490305 
L 488.435427 -113.25145 
L 488.453314 -114.012595 
L 488.480137 -114.773741 
L 488.515287 -115.534886 
L 488.558167 -116.296031 
L 488.6082 -117.057176 
L 488.664835 -117.818321 
L 488.727558 -118.579467 
L 488.795897 -119.340612 
L 488.869425 -120.101757 
L 488.947768 -120.862902 
L 489.030611 -121.624047 
L 489.117697 -122.385193 
L 489.208835 -123.146338 
L 489.303896 -123.907483 
L 489.402818 -124.668628 
L 489.505606 -125.429773 
L 489.612329 -126.190919 
L 489.723118 -126.952064 
L 489.838164 -127.713209 
L 489.957714 -128.474354 
L 490.082069 -129.235499 
L 490.211573 -129.996645 
L 490.346612 -130.75779 
L 490.487607 -131.518935 
L 490.635005 -132.28008 
L 490.789273 -133.041225 
L 490.95089 -133.802371 
L 491.12034 -134.563516 
L 491.298104 -135.324661 
L 491.484648 -136.085806 
L 491.680422 -136.846951 
L 491.885847 -137.608097 
L 492.101309 -138.369242 
L 492.327154 -139.130387 
L 492.563678 -139.891532 
L 492.811123 -140.652677 
L 493.069671 -141.413823 
L 493.33944 -142.174968 
L 493.620478 -142.936113 
L 493.912764 -143.697258 
L 494.216198 -144.458403 
L 494.530607 -145.219549 
L 494.855741 -145.980694 
L 495.191272 -146.741839 
L 495.536797 -147.502984 
L 495.891837 -148.26413 
L 496.255843 -149.025275 
L 496.628198 -149.78642 
L 497.00822 -150.547565 
L 497.395167 -151.30871 
L 497.788244 -152.069856 
L 523.383107 -152.069856 
L 523.383107 -152.069856 
L 523.776184 -151.30871 
L 524.163131 -150.547565 
L 524.543153 -149.78642 
L 524.915508 -149.025275 
L 525.279514 -148.26413 
L 525.634554 -147.502984 
L 525.980079 -146.741839 
L 526.31561 -145.980694 
L 526.640744 -145.219549 
L 526.955153 -144.458403 
L 527.258587 -143.697258 
L 527.550873 -142.936113 
L 527.831911 -142.174968 
L 528.10168 -141.413823 
L 528.360228 -140.652677 
L 528.607673 -139.891532 
L 528.844197 -139.130387 
L 529.070042 -138.369242 
L 529.285504 -137.608097 
L 529.490929 -136.846951 
L 529.686703 -136.085806 
L 529.873247 -135.324661 
L 530.051011 -134.563516 
L 530.220461 -133.802371 
L 530.382078 -133.041225 
L 530.536346 -132.28008 
L 530.683744 -131.518935 
L 530.824739 -130.75779 
L 530.959778 -129.996645 
L 531.089282 -129.235499 
L 531.213637 -128.474354 
L 531.333187 -127.713209 
L 531.448233 -126.952064 
L 531.559022 -126.190919 
L 531.665745 -125.429773 
L 531.768533 -124.668628 
L 531.867456 -123.907483 
L 531.962516 -123.146338 
L 532.053654 -122.385193 
L 532.14074 -121.624047 
L 532.223583 -120.862902 
L 532.301926 -120.101757 
L 532.375454 -119.340612 
L 532.443793 -118.579467 
L 532.506516 -117.818321 
L 532.563151 -117.057176 
L 532.613184 -116.296031 
L 532.656064 -115.534886 
L 532.691214 -114.773741 
L 532.718037 -114.012595 
L 532.735924 -113.25145 
L 532.744261 -112.490305 
L 532.742439 -111.72916 
L 532.729859 -110.968015 
L 532.705947 -110.206869 
L 532.670153 -109.445724 
L 532.621965 -108.684579 
L 532.560915 -107.923434 
L 532.486582 -107.162288 
L 532.398603 -106.401143 
L 532.296674 -105.639998 
L 532.180555 -104.878853 
L 532.050076 -104.117708 
L 531.905137 -103.356562 
L 531.74571 -102.595417 
L 531.571841 -101.834272 
L 531.383645 -101.073127 
L 531.181314 -100.311982 
L 530.965105 -99.550836 
L 530.735344 -98.789691 
L 530.492416 -98.028546 
L 530.236769 -97.267401 
L 529.9689 -96.506256 
L 529.689357 -95.74511 
L 529.398728 -94.983965 
L 529.097637 -94.22282 
L 528.786738 -93.461675 
L 528.466709 -92.70053 
L 528.138241 -91.939384 
L 527.80204 -91.178239 
L 527.458814 -90.417094 
L 527.109269 -89.655949 
L 526.754109 -88.894804 
L 526.394023 -88.133658 
L 526.029688 -87.372513 
L 525.66176 -86.611368 
L 525.290875 -85.850223 
L 524.917648 -85.089078 
L 524.542664 -84.327932 
L 524.166486 -83.566787 
L 523.789649 -82.805642 
L 523.412662 -82.044497 
L 523.036007 -81.283352 
L 522.660143 -80.522206 
L 522.285506 -79.761061 
L 521.912508 -78.999916 
L 521.541545 -78.238771 
L 521.172993 -77.477626 
L 520.807213 -76.71648 
z
"/>
    </defs>
    <g clip-path="url(#p5569f800d8)">
     <use xlink:href="#mf9bcbb0ba6" x="0" y="325.294125" style="fill: #06e1e9"/>
    </g>
   </g>
   <g id="matplotlib.axis_3">
    <g id="xtick_3">
     <g id="line2d_22">
      <g>
       <use xlink:href="#mac1e13b68d" x="377.63416" y="301.416" style="stroke: #000000; stroke-width: 0.8"/>
      </g>
     </g>
     <g id="text_17">
      <text style="font: 10px 'DejaVu Sans', 'Bitstream Vera Sans', 'Computer Modern Sans Serif', 'Lucida Grande', 'Verdana', 'Geneva', 'Lucid', 'Arial', 'Helvetica', 'Avant Garde', sans-serif; text-anchor: middle" x="377.63416" y="316.014437" transform="rotate(-0 377.63416 316.014437)">Male</text>
     </g>
    </g>
    <g id="xtick_4">
     <g id="line2d_23">
      <g>
       <use xlink:href="#mac1e13b68d" x="488.42709" y="301.416" style="stroke: #000000; stroke-width: 0.8"/>
      </g>
     </g>
     <g id="text_18">
      <text style="font: 10px 'DejaVu Sans', 'Bitstream Vera Sans', 'Computer Modern Sans Serif', 'Lucida Grande', 'Verdana', 'Geneva', 'Lucid', 'Arial', 'Helvetica', 'Avant Garde', sans-serif; text-anchor: middle" x="488.42709" y="316.014437" transform="rotate(-0 488.42709 316.014437)">Female</text>
     </g>
    </g>
   </g>
   <g id="matplotlib.axis_4">
    <g id="ytick_8">
     <g id="line2d_24">
      <g>
       <use xlink:href="#ma10f53bf19" x="323.345625" y="272.105245" style="stroke: #000000; stroke-width: 0.8"/>
      </g>
     </g>
     <g id="text_19">
      <text style="font: 10px 'DejaVu Sans', 'Bitstream Vera Sans', 'Computer Modern Sans Serif', 'Lucida Grande', 'Verdana', 'Geneva', 'Lucid', 'Arial', 'Helvetica', 'Avant Garde', sans-serif; text-anchor: end" x="316.345625" y="275.904464" transform="rotate(-0 316.345625 275.904464)">0.4</text>
     </g>
    </g>
    <g id="ytick_9">
     <g id="line2d_25">
      <g>
       <use xlink:href="#ma10f53bf19" x="323.345625" y="228.844818" style="stroke: #000000; stroke-width: 0.8"/>
      </g>
     </g>
     <g id="text_20">
      <text style="font: 10px 'DejaVu Sans', 'Bitstream Vera Sans', 'Computer Modern Sans Serif', 'Lucida Grande', 'Verdana', 'Geneva', 'Lucid', 'Arial', 'Helvetica', 'Avant Garde', sans-serif; text-anchor: end" x="316.345625" y="232.644037" transform="rotate(-0 316.345625 232.644037)">0.6</text>
     </g>
    </g>
    <g id="ytick_10">
     <g id="line2d_26">
      <g>
       <use xlink:href="#ma10f53bf19" x="323.345625" y="185.584391" style="stroke: #000000; stroke-width: 0.8"/>
      </g>
     </g>
     <g id="text_21">
      <text style="font: 10px 'DejaVu Sans', 'Bitstream Vera Sans', 'Computer Modern Sans Serif', 'Lucida Grande', 'Verdana', 'Geneva', 'Lucid', 'Arial', 'Helvetica', 'Avant Garde', sans-serif; text-anchor: end" x="316.345625" y="189.38361" transform="rotate(-0 316.345625 189.38361)">0.8</text>
     </g>
    </g>
    <g id="ytick_11">
     <g id="line2d_27">
      <g>
       <use xlink:href="#ma10f53bf19" x="323.345625" y="142.323965" style="stroke: #000000; stroke-width: 0.8"/>
      </g>
     </g>
     <g id="text_22">
      <text style="font: 10px 'DejaVu Sans', 'Bitstream Vera Sans', 'Computer Modern Sans Serif', 'Lucida Grande', 'Verdana', 'Geneva', 'Lucid', 'Arial', 'Helvetica', 'Avant Garde', sans-serif; text-anchor: end" x="316.345625" y="146.123183" transform="rotate(-0 316.345625 146.123183)">1.0</text>
     </g>
    </g>
    <g id="ytick_12">
     <g id="line2d_28">
      <g>
       <use xlink:href="#ma10f53bf19" x="323.345625" y="99.063538" style="stroke: #000000; stroke-width: 0.8"/>
      </g>
     </g>
     <g id="text_23">
      <text style="font: 10px 'DejaVu Sans', 'Bitstream Vera Sans', 'Computer Modern Sans Serif', 'Lucida Grande', 'Verdana', 'Geneva', 'Lucid', 'Arial', 'Helvetica', 'Avant Garde', sans-serif; text-anchor: end" x="316.345625" y="102.862756" transform="rotate(-0 316.345625 102.862756)">1.2</text>
     </g>
    </g>
    <g id="ytick_13">
     <g id="line2d_29">
      <g>
       <use xlink:href="#ma10f53bf19" x="323.345625" y="55.803111" style="stroke: #000000; stroke-width: 0.8"/>
      </g>
     </g>
     <g id="text_24">
      <text style="font: 10px 'DejaVu Sans', 'Bitstream Vera Sans', 'Computer Modern Sans Serif', 'Lucida Grande', 'Verdana', 'Geneva', 'Lucid', 'Arial', 'Helvetica', 'Avant Garde', sans-serif; text-anchor: end" x="316.345625" y="59.602329" transform="rotate(-0 316.345625 59.602329)">1.4</text>
     </g>
    </g>
    <g id="text_25">
     <text style="font: 10px 'DejaVu Sans', 'Bitstream Vera Sans', 'Computer Modern Sans Serif', 'Lucida Grande', 'Verdana', 'Geneva', 'Lucid', 'Arial', 'Helvetica', 'Avant Garde', sans-serif; text-anchor: middle" x="294.362813" y="174.508" transform="rotate(-90 294.362813 174.508)">Bout Preference Index</text>
    </g>
   </g>
   <g id="line2d_30">
    <path d="M 355.475574 265.319296 
L 355.475574 157.241353 
" clip-path="url(#p5569f800d8)" style="fill: none"/>
   </g>
   <g id="line2d_31">
    <path d="M 355.475574 217.55949 
L 355.475574 184.643947 
" clip-path="url(#p5569f800d8)" style="fill: none"/>
   </g>
   <g id="line2d_32">
    <path d="M 399.792746 289.878909 
L 399.792746 152.875288 
" clip-path="url(#p5569f800d8)" style="fill: none"/>
   </g>
   <g id="line2d_33">
    <path d="M 399.792746 253.050057 
L 399.792746 190.229806 
" clip-path="url(#p5569f800d8)" style="fill: none"/>
   </g>
   <g id="line2d_34">
    <path d="M 466.268504 274.809022 
L 466.268504 185.357897 
" clip-path="url(#p5569f800d8)" style="fill: none"/>
   </g>
   <g id="line2d_35">
    <path d="M 466.268504 252.920505 
L 466.268504 218.267206 
" clip-path="url(#p5569f800d8)" style="fill: none"/>
   </g>
   <g id="line2d_36">
    <path d="M 510.585676 248.577645 
L 510.585676 173.224269 
" clip-path="url(#p5569f800d8)" style="fill: none"/>
   </g>
   <g id="line2d_37">
    <path d="M 510.585676 224.224773 
L 510.585676 190.805477 
" clip-path="url(#p5569f800d8)" style="fill: none"/>
   </g>
   <g id="line2d_38">
    <path d="M 399.792746 69.464298 
L 399.792746 59.137091 
L 510.585676 59.137091 
L 510.585676 69.464298 
" clip-path="url(#p5569f800d8)" style="fill: none; stroke: #000000; stroke-width: 0.5; stroke-linecap: square"/>
   </g>
   <g id="line2d_39">
    <path d="M 355.475574 100.44592 
L 355.475574 90.118712 
L 466.268504 90.118712 
L 466.268504 100.44592 
" clip-path="url(#p5569f800d8)" style="fill: none; stroke: #000000; stroke-width: 0.5; stroke-linecap: square"/>
   </g>
   <g id="line2d_40">
    <path d="M 466.268504 131.427541 
L 466.268504 121.100334 
L 510.585676 121.100334 
L 510.585676 131.427541 
" clip-path="url(#p5569f800d8)" style="fill: none; stroke: #000000; stroke-width: 0.5; stroke-linecap: square"/>
   </g>
   <g id="line2d_41">
    <path d="M 355.475574 131.427541 
L 355.475574 121.100334 
L 399.792746 121.100334 
L 399.792746 131.427541 
" clip-path="url(#p5569f800d8)" style="fill: none; stroke: #000000; stroke-width: 0.5; stroke-linecap: square"/>
   </g>
   <g id="patch_12">
    <path d="M 323.345625 301.416 
L 323.345625 47.6 
" style="fill: none; stroke: #000000; stroke-width: 0.8; stroke-linejoin: miter; stroke-linecap: square"/>
   </g>
   <g id="patch_13">
    <path d="M 323.345625 301.416 
L 542.715625 301.416 
" style="fill: none; stroke: #000000; stroke-width: 0.8; stroke-linejoin: miter; stroke-linecap: square"/>
   </g>
   <g id="PathCollection_9">
    <defs>
     <path id="C4_0_ae7aee4f6d" d="M 0 2.5 
C 0.663008 2.5 1.29895 2.236584 1.767767 1.767767 
C 2.236584 1.29895 2.5 0.663008 2.5 -0 
C 2.5 -0.663008 2.236584 -1.29895 1.767767 -1.767767 
C 1.29895 -2.236584 0.663008 -2.5 0 -2.5 
C -0.663008 -2.5 -1.29895 -2.236584 -1.767767 -1.767767 
C -2.236584 -1.29895 -2.5 -0.663008 -2.5 0 
C -2.5 0.663008 -2.236584 1.29895 -1.767767 1.767767 
C -1.29895 2.236584 -0.663008 2.5 0 2.5 
z
"/>
    </defs>
    <g clip-path="url(#p5569f800d8)">
     <use xlink:href="#C4_0_ae7aee4f6d" x="355.475574" y="164.770412" style="fill: #262626; fill-opacity: 0.5"/>
    </g>
    <g clip-path="url(#p5569f800d8)">
     <use xlink:href="#C4_0_ae7aee4f6d" x="360.157938" y="184.643947" style="fill: #262626; fill-opacity: 0.5"/>
    </g>
    <g clip-path="url(#p5569f800d8)">
     <use xlink:href="#C4_0_ae7aee4f6d" x="355.475574" y="186.905321" style="fill: #262626; fill-opacity: 0.5"/>
    </g>
    <g clip-path="url(#p5569f800d8)">
     <use xlink:href="#C4_0_ae7aee4f6d" x="355.475574" y="217.55949" style="fill: #262626; fill-opacity: 0.5"/>
    </g>
    <g clip-path="url(#p5569f800d8)">
     <use xlink:href="#C4_0_ae7aee4f6d" x="355.475574" y="265.319296" style="fill: #262626; fill-opacity: 0.5"/>
    </g>
    <g clip-path="url(#p5569f800d8)">
     <use xlink:href="#C4_0_ae7aee4f6d" x="355.475574" y="252.089227" style="fill: #262626; fill-opacity: 0.5"/>
    </g>
    <g clip-path="url(#p5569f800d8)">
     <use xlink:href="#C4_0_ae7aee4f6d" x="355.475574" y="205.803939" style="fill: #262626; fill-opacity: 0.5"/>
    </g>
    <g clip-path="url(#p5569f800d8)">
     <use xlink:href="#C4_0_ae7aee4f6d" x="350.328578" y="185.919744" style="fill: #262626; fill-opacity: 0.5"/>
    </g>
    <g clip-path="url(#p5569f800d8)">
     <use xlink:href="#C4_0_ae7aee4f6d" x="355.475574" y="157.241353" style="fill: #262626; fill-opacity: 0.5"/>
    </g>
   </g>
   <g id="PathCollection_10">
    <defs>
     <path id="C5_0_abb4cd805f" d="M 0 2.5 
C 0.663008 2.5 1.29895 2.236584 1.767767 1.767767 
C 2.236584 1.29895 2.5 0.663008 2.5 -0 
C 2.5 -0.663008 2.236584 -1.29895 1.767767 -1.767767 
C 1.29895 -2.236584 0.663008 -2.5 0 -2.5 
C -0.663008 -2.5 -1.29895 -2.236584 -1.767767 -1.767767 
C -2.236584 -1.29895 -2.5 -0.663008 -2.5 0 
C -2.5 0.663008 -2.236584 1.29895 -1.767767 1.767767 
C -1.29895 2.236584 -0.663008 2.5 0 2.5 
z
"/>
    </defs>
    <g clip-path="url(#p5569f800d8)">
     <use xlink:href="#C5_0_abb4cd805f" x="399.792746" y="190.229806" style="fill-opacity: 0.5"/>
    </g>
    <g clip-path="url(#p5569f800d8)">
     <use xlink:href="#C5_0_abb4cd805f" x="399.792746" y="212.098847" style="fill-opacity: 0.5"/>
    </g>
    <g clip-path="url(#p5569f800d8)">
     <use xlink:href="#C5_0_abb4cd805f" x="395.567414" y="152.875288" style="fill-opacity: 0.5"/>
    </g>
    <g clip-path="url(#p5569f800d8)">
     <use xlink:href="#C5_0_abb4cd805f" x="399.792746" y="289.878909" style="fill-opacity: 0.5"/>
    </g>
    <g clip-path="url(#p5569f800d8)">
     <use xlink:href="#C5_0_abb4cd805f" x="399.792746" y="261.078078" style="fill-opacity: 0.5"/>
    </g>
    <g clip-path="url(#p5569f800d8)">
     <use xlink:href="#C5_0_abb4cd805f" x="399.792746" y="253.050057" style="fill-opacity: 0.5"/>
    </g>
    <g clip-path="url(#p5569f800d8)">
     <use xlink:href="#C5_0_abb4cd805f" x="395.259085" y="209.577569" style="fill-opacity: 0.5"/>
    </g>
    <g clip-path="url(#p5569f800d8)">
     <use xlink:href="#C5_0_abb4cd805f" x="399.792746" y="155.842848" style="fill-opacity: 0.5"/>
    </g>
    <g clip-path="url(#p5569f800d8)">
     <use xlink:href="#C5_0_abb4cd805f" x="399.792746" y="199.245579" style="fill-opacity: 0.5"/>
    </g>
   </g>
   <g id="PathCollection_11">
    <defs>
     <path id="C6_0_43836f5b91" d="M 0 2.5 
C 0.663008 2.5 1.29895 2.236584 1.767767 1.767767 
C 2.236584 1.29895 2.5 0.663008 2.5 -0 
C 2.5 -0.663008 2.236584 -1.29895 1.767767 -1.767767 
C 1.29895 -2.236584 0.663008 -2.5 0 -2.5 
C -0.663008 -2.5 -1.29895 -2.236584 -1.767767 -1.767767 
C -2.236584 -1.29895 -2.5 -0.663008 -2.5 0 
C -2.5 0.663008 -2.236584 1.29895 -1.767767 1.767767 
C -1.29895 2.236584 -0.663008 2.5 0 2.5 
z
"/>
    </defs>
    <g clip-path="url(#p5569f800d8)">
     <use xlink:href="#C6_0_43836f5b91" x="466.268504" y="185.357897" style="fill: #262626; fill-opacity: 0.5"/>
    </g>
    <g clip-path="url(#p5569f800d8)">
     <use xlink:href="#C6_0_43836f5b91" x="466.268504" y="231.032143" style="fill: #262626; fill-opacity: 0.5"/>
    </g>
    <g clip-path="url(#p5569f800d8)">
     <use xlink:href="#C6_0_43836f5b91" x="463.037723" y="227.091017" style="fill: #262626; fill-opacity: 0.5"/>
    </g>
    <g clip-path="url(#p5569f800d8)">
     <use xlink:href="#C6_0_43836f5b91" x="466.268504" y="241.61019" style="fill: #262626; fill-opacity: 0.5"/>
    </g>
    <g clip-path="url(#p5569f800d8)">
     <use xlink:href="#C6_0_43836f5b91" x="461.490402" y="239.538407" style="fill: #262626; fill-opacity: 0.5"/>
    </g>
    <g clip-path="url(#p5569f800d8)">
     <use xlink:href="#C6_0_43836f5b91" x="466.268504" y="274.809022" style="fill: #262626; fill-opacity: 0.5"/>
    </g>
    <g clip-path="url(#p5569f800d8)">
     <use xlink:href="#C6_0_43836f5b91" x="466.268504" y="261.805144" style="fill: #262626; fill-opacity: 0.5"/>
    </g>
    <g clip-path="url(#p5569f800d8)">
     <use xlink:href="#C6_0_43836f5b91" x="466.268504" y="256.69061" style="fill: #262626; fill-opacity: 0.5"/>
    </g>
    <g clip-path="url(#p5569f800d8)">
     <use xlink:href="#C6_0_43836f5b91" x="466.268504" y="152.081956" style="fill: #262626; fill-opacity: 0.5"/>
    </g>
    <g clip-path="url(#p5569f800d8)">
     <use xlink:href="#C6_0_43836f5b91" x="466.268504" y="215.325935" style="fill: #262626; fill-opacity: 0.5"/>
    </g>
   </g>
   <g id="PathCollection_12">
    <defs>
     <path id="C7_0_dc3b1ab35e" d="M 0 2.5 
C 0.663008 2.5 1.29895 2.236584 1.767767 1.767767 
C 2.236584 1.29895 2.5 0.663008 2.5 -0 
C 2.5 -0.663008 2.236584 -1.29895 1.767767 -1.767767 
C 1.29895 -2.236584 0.663008 -2.5 0 -2.5 
C -0.663008 -2.5 -1.29895 -2.236584 -1.767767 -1.767767 
C -2.236584 -1.29895 -2.5 -0.663008 -2.5 0 
C -2.5 0.663008 -2.236584 1.29895 -1.767767 1.767767 
C -1.29895 2.236584 -0.663008 2.5 0 2.5 
z
"/>
    </defs>
    <g clip-path="url(#p5569f800d8)">
     <use xlink:href="#C7_0_dc3b1ab35e" x="510.585676" y="173.224269" style="fill-opacity: 0.5"/>
    </g>
    <g clip-path="url(#p5569f800d8)">
     <use xlink:href="#C7_0_dc3b1ab35e" x="510.585676" y="183.181034" style="fill-opacity: 0.5"/>
    </g>
    <g clip-path="url(#p5569f800d8)">
     <use xlink:href="#C7_0_dc3b1ab35e" x="510.585676" y="210.907568" style="fill-opacity: 0.5"/>
    </g>
    <g clip-path="url(#p5569f800d8)">
     <use xlink:href="#C7_0_dc3b1ab35e" x="510.585676" y="190.805477" style="fill-opacity: 0.5"/>
    </g>
    <g clip-path="url(#p5569f800d8)">
     <use xlink:href="#C7_0_dc3b1ab35e" x="510.585676" y="218.665894" style="fill-opacity: 0.5"/>
    </g>
    <g clip-path="url(#p5569f800d8)">
     <use xlink:href="#C7_0_dc3b1ab35e" x="510.585676" y="224.224773" style="fill-opacity: 0.5"/>
    </g>
    <g clip-path="url(#p5569f800d8)">
     <use xlink:href="#C7_0_dc3b1ab35e" x="510.585676" y="200.905793" style="fill-opacity: 0.5"/>
    </g>
    <g clip-path="url(#p5569f800d8)">
     <use xlink:href="#C7_0_dc3b1ab35e" x="510.585676" y="232.109756" style="fill-opacity: 0.5"/>
    </g>
    <g clip-path="url(#p5569f800d8)">
     <use xlink:href="#C7_0_dc3b1ab35e" x="510.585676" y="248.577645" style="fill-opacity: 0.5"/>
    </g>
   </g>
   <g id="PathCollection_13">
    <g clip-path="url(#p5569f800d8)">
     <use xlink:href="#ma825e08f02" x="355.475574" y="186.905321" style="fill: #ffffff; stroke: #484848"/>
    </g>
   </g>
   <g id="PathCollection_14">
    <g clip-path="url(#p5569f800d8)">
     <use xlink:href="#ma825e08f02" x="399.792746" y="209.577569" style="fill: #ffffff; stroke: #484848"/>
    </g>
   </g>
   <g id="PathCollection_15">
    <g clip-path="url(#p5569f800d8)">
     <use xlink:href="#ma825e08f02" x="466.268504" y="235.285275" style="fill: #ffffff; stroke: #484848"/>
    </g>
   </g>
   <g id="PathCollection_16">
    <g clip-path="url(#p5569f800d8)">
     <use xlink:href="#ma825e08f02" x="510.585676" y="210.907568" style="fill: #ffffff; stroke: #484848"/>
    </g>
   </g>
   <g id="text_26">
    <text style="font: 10px 'DejaVu Sans', 'Bitstream Vera Sans', 'Computer Modern Sans Serif', 'Lucida Grande', 'Verdana', 'Geneva', 'Lucid', 'Arial', 'Helvetica', 'Avant Garde', sans-serif; text-anchor: middle" x="455.189211" y="57.057403" transform="rotate(-0 455.189211 57.057403)">ns</text>
   </g>
   <g id="text_27">
    <text style="font: 10px 'DejaVu Sans', 'Bitstream Vera Sans', 'Computer Modern Sans Serif', 'Lucida Grande', 'Verdana', 'Geneva', 'Lucid', 'Arial', 'Helvetica', 'Avant Garde', sans-serif; text-anchor: middle" x="410.872039" y="88.039025" transform="rotate(-0 410.872039 88.039025)">****</text>
   </g>
   <g id="text_28">
    <text style="font: 10px 'DejaVu Sans', 'Bitstream Vera Sans', 'Computer Modern Sans Serif', 'Lucida Grande', 'Verdana', 'Geneva', 'Lucid', 'Arial', 'Helvetica', 'Avant Garde', sans-serif; text-anchor: middle" x="488.42709" y="119.020646" transform="rotate(-0 488.42709 119.020646)">**</text>
   </g>
   <g id="text_29">
    <text style="font: 10px 'DejaVu Sans', 'Bitstream Vera Sans', 'Computer Modern Sans Serif', 'Lucida Grande', 'Verdana', 'Geneva', 'Lucid', 'Arial', 'Helvetica', 'Avant Garde', sans-serif; text-anchor: middle" x="377.63416" y="119.020646" transform="rotate(-0 377.63416 119.020646)">**</text>
   </g>
  </g>
 </g>
 <defs>
  <clipPath id="p75586833f3">
   <rect x="46.965625" y="47.6" width="219.37" height="253.816"/>
  </clipPath>
  <clipPath id="p5569f800d8">
   <rect x="323.345625" y="47.6" width="219.37" height="253.816"/>
  </clipPath>
 </defs>
</svg>
